<?xml version="1.0" encoding="UTF-8" standalone="no"?>
<!DOCTYPE svg PUBLIC "-//W3C//DTD SVG 20010904//EN"
"http://www.w3.org/TR/2001/REC-SVG-20010904/DTD/svg10.dtd">
<!-- Created with Sodipodi ("http://www.sodipodi.com/") -->
<svg
   id="svg623"
   sodipodi:version="0.32"
   width="128pt"
   height="128pt"
   sodipodi:docbase="/home/francois/Documents/work/artwork/new_theme/Improved/various/scalable"
   sodipodi:docname="synaptic2.svg"
   inkscape:version="0.38.1"
   xmlns="http://www.w3.org/2000/svg"
   xmlns:inkscape="http://www.inkscape.org/namespaces/inkscape"
   xmlns:sodipodi="http://sodipodi.sourceforge.net/DTD/sodipodi-0.dtd"
   xmlns:xlink="http://www.w3.org/1999/xlink">
  <defs
     id="defs625">
    <linearGradient
       id="linearGradient692">
      <stop
         style="stop-color:#ffe700;stop-opacity:1.0000;"
         offset="0"
         id="stop693" />
      <stop
         style="stop-color:#ff8f00;stop-opacity:1.0000;"
         offset="1"
         id="stop694" />
    </linearGradient>
    <linearGradient
       xlink:href="#linearGradient692"
       id="linearGradient695" />
  </defs>
  <sodipodi:namedview
     id="base"
     showgrid="true"
     snaptogrid="false"
     gridspacingx="1mm"
     gridspacingy="1mm"
     inkscape:zoom="4.5312500"
     inkscape:cx="64.000000"
     inkscape:cy="64.000000"
     inkscape:window-width="640"
     inkscape:window-height="913"
     inkscape:window-x="0"
     inkscape:window-y="31" />
  <path
     id="path830"
     fill="none"
     stroke="black"
     stroke-width="1"
     d="M 88.416805,5.3514572 C 88.416805,5.3514572 88.416805,5.4721072 88.416805,5.4721072 C 88.416805,5.4721072 88.535533,5.3514572 88.535533,5.3514572 C 88.535533,5.3514572 88.416805,5.3514572 88.416805,5.3514572 z M 84.618141,5.7134172 C 85.211674,5.9547172 85.567804,5.8340672 86.161348,5.7134172 C 86.161348,5.7134172 84.618141,5.7134172 84.618141,5.7134172 z M 73.459507,7.4025572 C 73.459507,7.4025572 73.578213,6.7992872 73.578213,6.7992872 C 73.578213,6.7992872 70.610484,8.0058172 70.610484,8.0058172 C 70.610484,8.0058172 65.980841,10.056928 65.980841,10.056928 C 60.164122,12.711287 55.653185,14.762387 50.667412,19.105887 C 50.667412,19.105887 50.548694,17.899357 50.548694,17.899357 C 49.717738,18.502627 48.886770,19.467847 48.174520,20.191767 C 48.174520,20.191767 46.631302,21.639597 46.631302,21.639597 C 44.257127,23.811357 41.051996,26.707017 39.152647,29.240737 C 38.677810,29.843997 38.440397,30.326617 38.084266,31.050527 C 38.084266,31.050527 37.609429,32.136407 37.609429,32.136407 C 37.372005,32.498367 37.015886,32.377707 36.778462,32.739667 C 36.422342,33.222287 35.591385,35.152727 35.235255,35.755987 C 34.760417,37.083187 33.573330,40.099507 32.861080,41.064723 C 32.386243,41.788643 31.792699,42.512553 30.843036,42.271243 C 29.062394,45.528873 26.569502,52.044133 25.501132,55.784373 C 25.501132,55.784373 24.195338,59.886583 24.195338,59.886583 C 24.076620,60.248543 23.720501,61.093103 23.720501,61.455063 C 23.720501,61.455063 24.195338,64.833343 24.195338,64.833343 C 24.195338,64.833343 24.195338,67.849663 24.195338,67.849663 C 24.195338,67.849663 24.076620,69.780113 24.076620,69.780113 C 24.076620,69.780113 24.076620,72.555133 24.076620,72.555133 C 24.076620,72.555133 23.957914,74.364933 23.957914,74.364933 C 23.957914,74.364933 23.957914,76.174713 23.957914,76.174713 C 23.957914,76.174713 24.076620,77.622553 24.076620,77.622553 C 24.076620,77.622553 23.957914,82.207373 23.957914,82.207373 C 23.957914,82.207373 24.076620,83.775863 24.076620,83.775863 C 24.076620,83.775863 24.076620,85.706303 24.076620,85.706303 C 24.076620,85.706303 24.195338,87.154143 24.195338,87.154143 C 24.432751,91.497643 25.145012,95.720493 26.213393,99.943358 C 31.080449,118.88586 42.832616,135.77727 58.858317,146.63603 C 66.099548,151.58281 75.833671,155.80565 84.618141,155.92631 C 84.618141,155.92631 86.398772,156.04696 86.398772,156.04696 C 86.398772,156.04696 88.654229,156.04696 88.654229,156.04696 C 88.654229,156.04696 90.909697,156.16761 90.909697,156.16761 C 90.197447,155.80565 87.229718,155.20239 86.280054,155.08173 C 83.668456,154.59913 80.582031,154.11651 78.207856,153.03063 C 76.783345,152.42737 74.765300,150.85889 73.696920,149.77301 C 72.628539,148.68713 71.441452,147.11864 70.254364,146.27407 C 70.254364,146.27407 71.204028,148.20452 71.204028,148.20452 C 71.204028,148.20452 67.880189,146.63603 67.880189,146.63603 C 67.880189,146.63603 66.218254,145.42950 66.218254,145.42950 C 65.387308,144.82624 63.962797,144.22298 62.894416,143.98167 C 62.894416,143.98167 64.081503,142.29252 64.081503,142.29252 C 62.300872,141.56860 61.469905,140.96534 60.164122,139.63816 C 59.570567,139.03490 59.333154,138.79360 58.858317,138.19032 C 58.739610,137.94902 58.383480,137.46641 58.146056,137.34576 C 57.908643,137.22510 57.077675,137.22510 56.840262,137.22510 C 55.771892,137.22510 55.534468,136.50118 54.940924,135.65662 C 53.991250,134.32943 52.922869,132.88160 52.448032,131.31311 C 52.448032,131.31311 52.210619,130.22723 52.210619,130.22723 C 52.210619,130.22723 51.498358,131.19245 51.498358,131.19245 C 51.142238,130.46854 50.192575,129.26201 49.717738,128.53809 C 49.717738,128.53809 46.512585,123.95328 46.512585,123.95328 C 46.275171,123.47067 45.681638,122.62610 45.562932,122.14349 C 45.325508,121.29892 45.800345,121.29892 46.393878,121.54022 C 45.681638,120.69565 44.019714,119.60978 43.782290,118.52390 C 43.544877,117.79998 44.494551,117.55868 44.138421,116.83476 C 44.138421,116.83476 42.832616,114.78366 42.832616,114.78366 C 41.764235,113.09452 40.933289,111.52604 40.577158,109.59558 C 41.526822,110.56080 41.882942,111.28472 43.307453,111.64668 C 42.713909,109.83690 41.289398,106.82057 39.983615,105.49338 C 38.677810,104.16620 37.846842,104.89012 36.778462,104.16620 C 35.235255,103.20098 33.929461,99.581398 33.573330,97.771593 C 33.573330,97.771593 34.285591,97.771593 34.285591,97.771593 C 34.285591,97.771593 32.861080,94.634623 32.861080,94.634623 C 32.742362,93.790053 33.217200,91.618303 33.098493,90.773723 C 33.098493,90.773723 31.911406,88.240023 31.911406,88.240023 C 31.436569,86.792183 31.199155,84.982383 31.199155,83.413903 C 31.199155,83.413903 31.080449,81.845413 31.080449,81.845413 C 31.080449,81.845413 31.199155,78.346473 31.199155,78.346473 C 31.199155,78.346473 31.317873,77.139953 31.317873,77.139953 C 31.317873,77.139953 32.148819,68.332283 32.148819,68.332283 C 32.148819,68.332283 32.861080,61.817023 32.861080,61.817023 C 33.335917,60.248543 34.641711,57.714823 35.472678,56.266993 C 36.422342,54.457193 37.372005,52.526753 38.084266,50.596293 C 38.084266,50.596293 36.778462,50.354993 36.778462,50.354993 C 38.202973,47.941933 40.102321,45.649533 42.001659,43.598433 C 44.494551,40.823413 47.343552,37.927747 50.311281,35.755987 C 51.498358,34.911427 53.041576,33.825547 54.466087,33.342937 C 54.822218,33.222287 55.297055,32.980977 55.771892,32.980977 C 56.009294,32.980977 56.602838,32.980977 56.840262,32.860327 C 57.196382,32.619017 57.671219,31.895097 57.789936,31.412487 C 57.077675,31.774447 56.602838,32.136407 55.771892,32.257057 C 57.196382,30.326617 60.164122,27.913557 62.538286,27.310297 C 64.437634,26.827677 67.405352,27.189637 68.711146,25.621157 C 68.711146,25.621157 65.506015,26.224417 65.506015,26.224417 C 65.624711,25.983097 65.624711,25.862457 65.862134,25.741797 C 65.862134,25.741797 68.711146,24.655917 68.711146,24.655917 C 71.916289,23.328737 72.865963,21.760257 76.664638,20.915677 C 76.664638,20.915677 79.751074,20.312417 79.751074,20.312417 C 80.107204,20.312417 80.938151,20.071117 80.700737,20.674377 C 81.175574,20.795037 81.887825,20.553727 82.362662,20.433077 C 82.362662,20.433077 85.686511,20.071117 85.686511,20.071117 C 85.686511,20.071117 87.823272,19.950457 87.823272,19.950457 C 87.823272,19.950457 88.416805,19.950457 88.416805,19.950457 C 88.416805,19.950457 89.603914,20.071117 89.603914,20.071117 C 89.603914,20.071117 90.790991,20.071117 90.790991,20.071117 C 90.790991,20.071117 91.978078,20.191767 91.978078,20.191767 C 95.539340,20.433077 99.694150,21.277637 103.01800,22.484177 C 108.59732,24.535277 112.98954,27.913557 116.90693,32.377707 C 121.18045,37.203827 124.62299,42.633203 126.52235,48.907153 C 126.87847,50.354993 127.23460,51.802833 127.47201,53.250673 C 127.47201,53.250673 127.59072,55.181113 127.59072,55.181113 C 127.82814,56.387643 128.18426,55.543073 128.18426,57.111563 C 128.18426,57.111563 128.18426,61.937683 128.18426,61.937683 C 128.18426,61.937683 128.30298,63.144203 128.30298,63.144203 C 128.30298,63.144203 128.30298,64.833343 128.30298,64.833343 C 128.30298,64.833343 128.18426,66.884443 128.18426,66.884443 C 128.18426,68.814893 127.70944,70.504033 127.35331,72.434483 C 127.35331,72.434483 128.30298,70.504033 128.30298,70.504033 C 128.54039,71.227953 128.42169,71.831213 128.30298,72.555133 C 128.06557,74.364933 127.59072,75.812773 126.87847,77.501903 C 126.87847,77.501903 126.04750,79.673653 126.04750,79.673653 C 125.69138,80.276923 124.74171,80.518233 124.14817,80.880183 C 123.55462,81.362793 123.19850,82.569323 123.19850,83.413903 C 123.19850,83.896513 123.31722,84.137813 123.19850,84.741083 C 122.96109,86.068263 121.41786,87.154143 120.46820,87.998703 C 120.46820,87.998703 115.95725,91.980263 115.95725,91.980263 C 115.00757,92.704173 113.70180,93.910703 112.39599,94.031353 C 112.63341,93.186783 113.34567,92.704173 113.82050,92.100903 C 112.51470,92.824823 111.32761,94.272663 110.02181,95.237883 C 108.83473,96.203113 106.93539,96.927033 105.39217,97.288993 C 105.39217,97.288993 105.27346,96.927033 105.27346,96.927033 C 101.83091,98.374868 100.05027,98.616178 96.370297,98.616178 C 93.402589,98.616178 89.603914,97.288993 86.992305,95.841153 C 78.801410,91.618303 72.747246,82.689983 72.747246,73.279053 C 72.747246,73.279053 72.034995,74.002973 72.034995,74.002973 C 72.034995,74.002973 71.916289,72.434483 71.916289,72.434483 C 71.916289,72.434483 72.034995,70.986643 72.034995,70.986643 C 72.153702,69.056203 72.509832,67.125753 73.103376,65.195303 C 75.477551,57.714823 81.294281,52.285443 88.772946,50.354993 C 91.028404,49.751733 92.452915,49.751733 94.708383,49.751733 C 97.557395,49.751733 101.23737,50.837613 103.73025,52.285443 C 105.27346,53.130013 105.74831,53.612623 107.05409,54.577853 C 106.69797,53.853933 106.10443,53.371313 105.51089,52.768053 C 104.08639,51.320213 102.54317,50.113693 100.76253,49.269113 C 98.269647,47.941933 95.420623,46.856063 92.571632,46.856063 C 91.147121,46.856063 89.722621,46.856063 88.298109,46.976713 C 84.380717,47.579973 80.463313,49.510433 77.495606,52.285443 C 76.783345,53.009353 75.714964,54.215893 75.240138,55.060463 C 75.240138,55.060463 74.290463,56.628943 74.290463,56.628943 C 73.815626,57.232213 73.340789,57.111563 72.272408,58.921353 C 70.966614,60.851803 70.491788,63.023563 69.660820,65.195303 C 69.660820,65.195303 68.473733,67.487713 68.473733,67.487713 C 68.473733,67.487713 68.117603,71.951873 68.117603,71.951873 C 68.117603,71.951873 68.117603,74.485573 68.117603,74.485573 C 68.117603,74.485573 68.236320,75.933413 68.236320,75.933413 C 68.473733,79.070393 69.185983,82.086713 70.491788,84.982383 C 72.984669,90.049803 76.783345,93.548743 80.938151,97.047673 C 80.938151,97.047673 83.549760,99.098778 83.549760,99.098778 C 83.549760,99.098778 84.499434,100.18466 84.499434,100.18466 C 85.092967,100.54662 87.111022,101.02923 87.823272,101.27054 C 90.672284,102.11510 93.283872,102.47706 96.251590,102.71837 C 96.251590,102.71837 97.438678,102.83902 97.438678,102.83902 C 97.438678,102.83902 99.812860,102.83902 99.812860,102.83902 C 99.812860,102.83902 102.42445,102.59772 102.42445,102.59772 C 108.24119,101.99445 113.93921,99.822698 118.80627,96.323763 C 120.23077,95.237883 121.65528,94.152013 122.84237,92.945483 C 124.26687,91.497643 125.57266,89.929163 127.23460,88.843283 C 126.75975,90.049803 126.75975,89.567203 126.87847,90.894383 C 127.23460,90.411763 127.59072,89.567203 127.59072,88.843283 C 127.59072,88.843283 127.47201,87.998703 127.47201,87.998703 C 127.35331,86.912843 128.77782,84.620423 129.49007,83.775863 C 129.49007,83.775863 130.67716,85.706303 130.67716,85.706303 C 130.91458,85.223693 130.79585,84.137813 131.50811,82.569323 C 132.57649,80.035613 134.11970,77.622553 134.71325,74.847533 C 134.71325,74.847533 134.95067,71.831213 134.95067,71.831213 C 135.06937,71.348603 135.30680,71.227953 135.78162,71.348603 C 135.78162,71.348603 135.90035,68.694243 135.90035,68.694243 C 135.90035,68.694243 136.96872,71.348603 136.96872,71.348603 C 136.96872,71.348603 136.96872,70.142073 136.96872,70.142073 C 136.96872,70.142073 137.32485,67.849663 137.32485,67.849663 C 137.32485,67.849663 138.98677,62.420283 138.98677,62.420283 C 138.74936,62.540943 138.27453,62.661603 138.03711,62.661603 C 137.56227,62.420283 137.32485,61.696363 137.20614,61.334413 C 137.08744,60.731143 136.96872,58.559393 137.20614,57.956133 C 137.44356,57.594173 137.56227,57.594173 137.91840,57.473523 C 137.20614,56.387643 136.96872,56.146333 136.37518,54.819153 C 136.37518,54.819153 135.54421,51.923483 135.54421,51.923483 C 136.61260,51.923483 136.49389,53.371313 137.68098,54.095233 C 137.68098,54.095233 136.61260,49.389773 136.61260,49.389773 C 136.25647,47.338673 136.61260,47.459333 135.42550,45.528873 C 135.42550,45.528873 135.18809,45.528873 135.18809,45.528873 C 134.71325,46.373453 134.35711,46.011493 134.00100,45.287573 C 133.76359,44.684313 133.28875,42.874513 133.40746,42.271243 C 133.76359,41.064723 135.18809,42.271243 135.78162,41.547333 C 136.01905,41.306023 136.01905,41.064723 136.01905,40.823413 C 136.85002,41.547333 138.03711,43.960393 138.39323,45.046263 C 139.46161,47.579973 140.88613,51.199573 141.47966,53.853933 C 141.71707,53.250673 141.24225,52.044133 141.12352,51.440873 C 141.12352,51.440873 139.10548,45.166923 139.10548,45.166923 C 139.46161,44.804963 139.34289,44.322353 139.22419,43.839733 C 139.10548,42.753863 138.98677,42.029943 138.98677,40.944063 C 139.58031,41.426683 139.81773,41.667983 140.17386,42.391903 C 140.17386,41.788643 139.69903,40.582103 139.46161,39.978847 C 138.74936,38.048407 137.91840,36.117947 136.85002,34.308167 C 133.64487,28.637477 129.25264,23.570057 124.14817,19.588497 C 122.72367,18.381967 119.75593,16.210217 118.09402,15.486307 C 118.09402,15.486307 119.99335,17.778707 119.99335,17.778707 C 119.99335,17.778707 119.87465,17.899357 119.87465,17.899357 C 118.92499,17.296097 117.38176,16.330867 116.55080,15.606947 C 115.48242,14.641727 115.60113,14.159127 115.24500,13.797167 C 114.88888,13.314547 112.98954,12.952587 112.39599,12.952587 C 111.32761,13.073247 109.78439,13.797167 108.95344,13.676507 C 108.59732,13.555847 107.88507,13.193887 107.52894,12.952587 C 107.52894,12.952587 104.56122,11.504747 104.56122,11.504747 C 102.06832,10.418878 99.812860,9.8156076 97.201265,8.9710476 C 97.201265,8.9710476 93.640003,7.8851672 93.640003,7.8851672 C 93.640003,7.8851672 93.877426,9.2123476 93.877426,9.2123476 C 92.927752,8.8503876 91.859371,8.6090876 90.790991,8.6090876 C 90.790991,8.6090876 84.618141,9.3330076 84.618141,9.3330076 C 84.618141,9.3330076 83.193629,9.2123476 83.193629,9.2123476 C 83.668456,8.7297376 84.380717,8.4884276 85.092967,8.3677776 C 85.092967,8.3677776 82.956216,8.1264672 82.956216,8.1264672 C 80.938151,7.8851672 79.751074,7.6438572 77.733019,8.2471272 C 78.563986,7.5232072 79.751074,6.9199472 80.819444,6.4373272 C 80.225922,6.1960272 79.157530,6.4373272 78.563986,6.5579872 C 76.902051,6.9199472 75.240138,7.4025572 73.459507,7.4025572 z M 85.567804,7.1612472 C 85.567804,7.1612472 86.636174,7.4025572 86.636174,7.4025572 C 87.229718,7.6438572 87.823272,8.0058172 88.298109,7.4025572 C 88.298109,7.4025572 85.567804,7.1612472 85.567804,7.1612472 z M 26.925632,37.927747 C 26.806926,39.496227 26.688219,39.737547 26.094675,41.064723 C 27.281763,40.582103 28.350143,39.134267 27.994013,37.807087 C 27.994013,37.807087 26.925632,37.927747 26.925632,37.927747 z M 23.957914,49.148473 C 23.364370,49.872393 22.889533,50.837613 22.770826,51.802833 C 22.770826,51.802833 22.889533,53.974583 22.889533,53.974583 C 22.889533,53.974583 23.720501,50.716953 23.720501,50.716953 C 23.720501,50.716953 23.957914,49.148473 23.957914,49.148473 z M 111.92116,69.297503 C 112.39599,68.332283 112.39599,66.643143 111.92116,65.677923 C 111.44632,66.039883 110.97147,66.763793 111.09019,67.367063 C 111.09019,67.608363 111.32761,67.970323 111.32761,68.211623 C 111.56503,68.694243 111.56503,68.935543 111.92116,69.297503 z M 135.78162,73.882313 C 135.78162,73.882313 135.78162,74.606233 135.78162,74.606233 C 135.78162,74.606233 135.78162,73.882313 135.78162,73.882313 z M 138.51195,73.882313 C 138.51195,73.882313 137.44356,79.311693 137.44356,79.311693 C 137.91840,78.587773 138.15581,76.416033 138.39323,75.450813 C 138.51195,74.968193 138.63065,74.364933 138.51195,73.882313 z M 109.90310,76.054073 C 109.90310,76.054073 109.90310,76.174713 109.90310,76.174713 C 109.90310,76.174713 110.02181,76.054073 110.02181,76.054073 C 110.02181,76.054073 109.90310,76.054073 109.90310,76.054073 z M 107.88507,76.416033 C 107.41022,77.019293 106.46056,78.346473 106.10443,79.070393 C 105.98571,79.432353 105.74831,79.914963 105.98571,80.397573 C 106.22314,80.880183 106.69797,80.638883 107.29152,81.362793 C 107.29152,81.362793 107.52894,81.362793 107.52894,81.362793 C 108.35989,80.156273 109.30957,78.467133 109.66569,77.019293 C 108.71603,78.225813 108.83473,79.311693 107.29152,80.156273 C 106.69797,80.397573 106.57926,80.518233 105.98571,80.397573 C 106.34183,79.311693 106.81668,78.708433 107.41022,77.743213 C 107.64765,77.381253 108.00377,76.898633 107.88507,76.416033 z M 109.78439,76.416033 C 109.78439,76.416033 109.78439,76.536673 109.78439,76.536673 C 109.78439,76.536673 109.90310,76.416033 109.90310,76.416033 C 109.90310,76.416033 109.78439,76.416033 109.78439,76.416033 z M 135.30680,76.536673 C 135.30680,76.536673 135.30680,76.657333 135.30680,76.657333 C 135.30680,76.657333 135.42550,76.536673 135.42550,76.536673 C 135.42550,76.536673 135.30680,76.536673 135.30680,76.536673 z M 136.25647,82.931283 C 136.25647,82.931283 136.25647,83.051943 136.25647,83.051943 C 136.25647,83.051943 136.37518,82.931283 136.37518,82.931283 C 136.37518,82.931283 136.25647,82.931283 136.25647,82.931283 z M 136.13775,83.293243 C 136.13775,83.293243 136.13775,83.413903 136.13775,83.413903 C 136.13775,83.413903 136.25647,83.293243 136.25647,83.293243 C 136.25647,83.293243 136.13775,83.293243 136.13775,83.293243 z M 135.90035,83.896513 C 135.90035,83.896513 135.90035,84.017163 135.90035,84.017163 C 135.90035,84.017163 136.01905,83.896513 136.01905,83.896513 C 136.01905,83.896513 135.90035,83.896513 135.90035,83.896513 z M 135.66293,84.499773 C 135.66293,84.499773 135.66293,84.620423 135.66293,84.620423 C 135.66293,84.620423 135.78162,84.499773 135.78162,84.499773 C 135.78162,84.499773 135.66293,84.499773 135.66293,84.499773 z M 93.283872,85.103043 C 93.283872,85.103043 93.283872,85.344343 93.283872,85.344343 C 94.233546,85.947603 95.420623,86.309563 96.489014,86.430223 C 96.963851,86.550883 97.438678,86.792183 97.913527,86.550883 C 98.507057,86.309563 99.456740,85.344343 100.05027,84.861733 C 99.575450,84.741083 99.219310,84.861733 98.744490,84.982383 C 98.744490,84.982383 96.726428,85.103043 96.726428,85.103043 C 96.726428,85.103043 95.420623,85.103043 95.420623,85.103043 C 94.470959,84.982383 94.233546,84.861733 93.283872,85.103043 z M 69.304690,85.465003 C 69.304690,85.465003 69.304690,85.585643 69.304690,85.585643 C 69.304690,85.585643 69.423407,85.465003 69.423407,85.465003 C 69.423407,85.465003 69.304690,85.465003 69.304690,85.465003 z M 69.423407,85.706303 C 69.660820,86.912843 70.966614,88.963923 71.560158,90.049803 C 71.678865,89.084583 70.729191,87.757403 70.254364,87.033483 C 70.254364,87.033483 69.423407,85.706303 69.423407,85.706303 z M 67.167928,88.601983 C 67.167928,88.963923 66.930515,89.808503 67.049222,90.170463 C 67.049222,90.532423 67.880189,91.618303 68.117603,91.980263 C 69.067277,93.428093 70.373081,95.358533 71.678865,96.323763 C 71.322734,95.358533 69.185983,91.980263 68.473733,90.773723 C 68.236320,90.170463 67.642766,88.963923 67.167928,88.601983 z M 70.491788,91.135683 C 71.678865,93.790053 75.002724,97.047673 77.258182,98.736818 C 81.769118,102.23576 86.992305,104.76947 92.452915,105.97600 C 95.776764,106.57926 99.219310,106.69992 102.54317,105.61404 C 101.94963,105.37274 100.52512,105.49338 99.812860,105.49338 C 99.812860,105.49338 94.589687,105.25208 94.589687,105.25208 C 92.809035,105.01078 89.603914,104.40751 88.060685,103.56294 C 87.229718,103.08033 85.923935,102.11510 85.211674,101.51184 C 84.736847,101.02923 84.618141,100.78792 84.024586,100.42596 C 84.024586,100.42596 84.024586,101.02923 84.024586,101.02923 C 83.312336,100.78792 82.600086,100.30532 81.887825,99.943358 C 80.107204,98.978138 78.563986,97.650943 77.020769,96.323763 C 76.308508,95.720493 75.714964,94.996583 75.002724,94.393313 C 75.477551,95.358533 76.902051,97.047673 77.614312,97.771593 C 77.614312,97.771593 79.276237,99.460738 79.276237,99.460738 C 76.902051,98.133553 75.477551,96.444413 73.696920,94.393313 C 72.865963,93.428093 71.560158,91.618303 70.491788,91.135683 z "
     style="fill:#000000;stroke:#000000;stroke-width:0.62500000;fill-opacity:0.49668875;stroke-opacity:1.0000000;stroke-dasharray:none;" />
  <path
     id="selection_to_path"
     fill="none"
     stroke="black"
     stroke-width="1"
     d="M 86.547384,4.5700814 C 86.547384,4.5700814 86.547384,4.6907314 86.547384,4.6907314 C 86.547384,4.6907314 86.666112,4.5700814 86.666112,4.5700814 C 86.666112,4.5700814 86.547384,4.5700814 86.547384,4.5700814 z M 82.748720,4.9320414 C 83.342253,5.1733414 83.698383,5.0526914 84.291927,4.9320414 C 84.291927,4.9320414 82.748720,4.9320414 82.748720,4.9320414 z M 71.590086,6.6211814 C 71.590086,6.6211814 71.708792,6.0179114 71.708792,6.0179114 C 71.708792,6.0179114 68.741063,7.2244414 68.741063,7.2244414 C 68.741063,7.2244414 64.111420,9.2755513 64.111420,9.2755513 C 58.294701,11.929911 53.783764,13.981011 48.797991,18.324511 C 48.797991,18.324511 48.679273,17.117981 48.679273,17.117981 C 47.848317,17.721251 47.017349,18.686471 46.305099,19.410391 C 46.305099,19.410391 44.761881,20.858221 44.761881,20.858221 C 42.387706,23.029981 39.182575,25.925641 37.283226,28.459361 C 36.808389,29.062621 36.570976,29.545241 36.214845,30.269151 C 36.214845,30.269151 35.740008,31.355031 35.740008,31.355031 C 35.502584,31.716991 35.146465,31.596331 34.909041,31.958291 C 34.552921,32.440911 33.721964,34.371351 33.365834,34.974611 C 32.890996,36.301811 31.703909,39.318131 30.991659,40.283347 C 30.516822,41.007267 29.923278,41.731177 28.973615,41.489867 C 27.192973,44.747497 24.700081,51.262757 23.631711,55.002997 C 23.631711,55.002997 22.325917,59.105207 22.325917,59.105207 C 22.207199,59.467167 21.851080,60.311727 21.851080,60.673687 C 21.851080,60.673687 22.325917,64.051967 22.325917,64.051967 C 22.325917,64.051967 22.325917,67.068287 22.325917,67.068287 C 22.325917,67.068287 22.207199,68.998737 22.207199,68.998737 C 22.207199,68.998737 22.207199,71.773757 22.207199,71.773757 C 22.207199,71.773757 22.088493,73.583557 22.088493,73.583557 C 22.088493,73.583557 22.088493,75.393337 22.088493,75.393337 C 22.088493,75.393337 22.207199,76.841177 22.207199,76.841177 C 22.207199,76.841177 22.088493,81.425997 22.088493,81.425997 C 22.088493,81.425997 22.207199,82.994487 22.207199,82.994487 C 22.207199,82.994487 22.207199,84.924927 22.207199,84.924927 C 22.207199,84.924927 22.325917,86.372767 22.325917,86.372767 C 22.563330,90.716267 23.275591,94.939117 24.343972,99.161977 C 29.211028,118.10448 40.963195,134.99589 56.988896,145.85465 C 64.230127,150.80143 73.964250,155.02427 82.748720,155.14493 C 82.748720,155.14493 84.529351,155.26558 84.529351,155.26558 C 84.529351,155.26558 86.784808,155.26558 86.784808,155.26558 C 86.784808,155.26558 89.040276,155.38623 89.040276,155.38623 C 88.328026,155.02427 85.360297,154.42101 84.410633,154.30035 C 81.799035,153.81775 78.712610,153.33513 76.338435,152.24925 C 74.913924,151.64599 72.895879,150.07751 71.827499,148.99163 C 70.759118,147.90575 69.572031,146.33726 68.384943,145.49269 C 68.384943,145.49269 69.334607,147.42314 69.334607,147.42314 C 69.334607,147.42314 66.010768,145.85465 66.010768,145.85465 C 66.010768,145.85465 64.348833,144.64812 64.348833,144.64812 C 63.517887,144.04486 62.093376,143.44160 61.024995,143.20029 C 61.024995,143.20029 62.212082,141.51114 62.212082,141.51114 C 60.431451,140.78722 59.600484,140.18396 58.294701,138.85678 C 57.701146,138.25352 57.463733,138.01222 56.988896,137.40894 C 56.870189,137.16764 56.514059,136.68503 56.276635,136.56438 C 56.039222,136.44372 55.208254,136.44372 54.970841,136.44372 C 53.902471,136.44372 53.665047,135.71980 53.071503,134.87524 C 52.121829,133.54805 51.053448,132.10022 50.578611,130.53173 C 50.578611,130.53173 50.341198,129.44585 50.341198,129.44585 C 50.341198,129.44585 49.628937,130.41107 49.628937,130.41107 C 49.272817,129.68716 48.323154,128.48063 47.848317,127.75671 C 47.848317,127.75671 44.643164,123.17190 44.643164,123.17190 C 44.405750,122.68929 43.812217,121.84472 43.693511,121.36211 C 43.456087,120.51754 43.930924,120.51754 44.524457,120.75884 C 43.812217,119.91427 42.150293,118.82840 41.912869,117.74252 C 41.675456,117.01860 42.625130,116.77730 42.269000,116.05338 C 42.269000,116.05338 40.963195,114.00228 40.963195,114.00228 C 39.894814,112.31314 39.063868,110.74466 38.707737,108.81420 C 39.657401,109.77942 40.013521,110.50334 41.438032,110.86530 C 40.844488,109.05552 39.419977,106.03919 38.114194,104.71200 C 36.808389,103.38482 35.977421,104.10874 34.909041,103.38482 C 33.365834,102.41960 32.060040,98.800017 31.703909,96.990217 C 31.703909,96.990217 32.416170,96.990217 32.416170,96.990217 C 32.416170,96.990217 30.991659,93.853247 30.991659,93.853247 C 30.872941,93.008677 31.347779,90.836927 31.229072,89.992347 C 31.229072,89.992347 30.041985,87.458647 30.041985,87.458647 C 29.567148,86.010807 29.329734,84.201007 29.329734,82.632527 C 29.329734,82.632527 29.211028,81.064037 29.211028,81.064037 C 29.211028,81.064037 29.329734,77.565097 29.329734,77.565097 C 29.329734,77.565097 29.448452,76.358577 29.448452,76.358577 C 29.448452,76.358577 30.279398,67.550907 30.279398,67.550907 C 30.279398,67.550907 30.991659,61.035647 30.991659,61.035647 C 31.466496,59.467167 32.772290,56.933447 33.603257,55.485617 C 34.552921,53.675817 35.502584,51.745377 36.214845,49.814917 C 36.214845,49.814917 34.909041,49.573617 34.909041,49.573617 C 36.333552,47.160557 38.232900,44.868157 40.132238,42.817057 C 42.625130,40.042037 45.474131,37.146371 48.441860,34.974611 C 49.628937,34.130051 51.172155,33.044171 52.596666,32.561561 C 52.952797,32.440911 53.427634,32.199601 53.902471,32.199601 C 54.139873,32.199601 54.733417,32.199601 54.970841,32.078951 C 55.326961,31.837641 55.801798,31.113721 55.920515,30.631111 C 55.208254,30.993071 54.733417,31.355031 53.902471,31.475681 C 55.326961,29.545241 58.294701,27.132181 60.668865,26.528921 C 62.568213,26.046301 65.535931,26.408261 66.841725,24.839781 C 66.841725,24.839781 63.636594,25.443041 63.636594,25.443041 C 63.755290,25.201721 63.755290,25.081081 63.992713,24.960421 C 63.992713,24.960421 66.841725,23.874541 66.841725,23.874541 C 70.046868,22.547361 70.996542,20.978881 74.795217,20.134301 C 74.795217,20.134301 77.881653,19.531041 77.881653,19.531041 C 78.237783,19.531041 79.068730,19.289741 78.831316,19.893001 C 79.306153,20.013661 80.018404,19.772351 80.493241,19.651701 C 80.493241,19.651701 83.817090,19.289741 83.817090,19.289741 C 83.817090,19.289741 85.953851,19.169081 85.953851,19.169081 C 85.953851,19.169081 86.547384,19.169081 86.547384,19.169081 C 86.547384,19.169081 87.734493,19.289741 87.734493,19.289741 C 87.734493,19.289741 88.921570,19.289741 88.921570,19.289741 C 88.921570,19.289741 90.108657,19.410391 90.108657,19.410391 C 93.669919,19.651701 97.824726,20.496261 101.14858,21.702801 C 106.72790,23.753901 111.12012,27.132181 115.03751,31.596331 C 119.31103,36.422451 122.75357,41.851827 124.65293,48.125777 C 125.00905,49.573617 125.36518,51.021457 125.60259,52.469297 C 125.60259,52.469297 125.72130,54.399737 125.72130,54.399737 C 125.95872,55.606267 126.31484,54.761697 126.31484,56.330187 C 126.31484,56.330187 126.31484,61.156307 126.31484,61.156307 C 126.31484,61.156307 126.43356,62.362827 126.43356,62.362827 C 126.43356,62.362827 126.43356,64.051967 126.43356,64.051967 C 126.43356,64.051967 126.31484,66.103067 126.31484,66.103067 C 126.31484,68.033517 125.84002,69.722657 125.48389,71.653107 C 125.48389,71.653107 126.43356,69.722657 126.43356,69.722657 C 126.67097,70.446577 126.55227,71.049837 126.43356,71.773757 C 126.19615,73.583557 125.72130,75.031397 125.00905,76.720527 C 125.00905,76.720527 124.17808,78.892277 124.17808,78.892277 C 123.82196,79.495547 122.87229,79.736857 122.27875,80.098807 C 121.68520,80.581417 121.32908,81.787947 121.32908,82.632527 C 121.32908,83.115137 121.44780,83.356437 121.32908,83.959707 C 121.09167,85.286887 119.54844,86.372767 118.59878,87.217327 C 118.59878,87.217327 114.08783,91.198887 114.08783,91.198887 C 113.13815,91.922797 111.83238,93.129327 110.52657,93.249977 C 110.76399,92.405407 111.47625,91.922797 111.95108,91.319527 C 110.64528,92.043447 109.45819,93.491287 108.15239,94.456507 C 106.96531,95.421737 105.06597,96.145657 103.52275,96.507617 C 103.52275,96.507617 103.40404,96.145657 103.40404,96.145657 C 99.961486,97.593487 98.180846,97.834797 94.500876,97.834797 C 91.533168,97.834797 87.734493,96.507617 85.122884,95.059777 C 76.931989,90.836927 70.877825,81.908607 70.877825,72.497677 C 70.877825,72.497677 70.165574,73.221597 70.165574,73.221597 C 70.165574,73.221597 70.046868,71.653107 70.046868,71.653107 C 70.046868,71.653107 70.165574,70.205267 70.165574,70.205267 C 70.284281,68.274827 70.640411,66.344377 71.233955,64.413927 C 73.608130,56.933447 79.424860,51.504067 86.903525,49.573617 C 89.158983,48.970357 90.583494,48.970357 92.838962,48.970357 C 95.687974,48.970357 99.367946,50.056237 101.86083,51.504067 C 103.40404,52.348637 103.87889,52.831247 105.18467,53.796477 C 104.82855,53.072557 104.23501,52.589937 103.64147,51.986677 C 102.21697,50.538837 100.67375,49.332317 98.893106,48.487737 C 96.400226,47.160557 93.551202,46.074687 90.702211,46.074687 C 89.277700,46.074687 87.853200,46.074687 86.428688,46.195337 C 82.511296,46.798597 78.593892,48.729057 75.626185,51.504067 C 74.913924,52.227977 73.845543,53.434517 73.370717,54.279087 C 73.370717,54.279087 72.421042,55.847567 72.421042,55.847567 C 71.946205,56.450837 71.471368,56.330187 70.402987,58.139977 C 69.097193,60.070427 68.622367,62.242187 67.791399,64.413927 C 67.791399,64.413927 66.604312,66.706337 66.604312,66.706337 C 66.604312,66.706337 66.248182,71.170497 66.248182,71.170497 C 66.248182,71.170497 66.248182,73.704197 66.248182,73.704197 C 66.248182,73.704197 66.366899,75.152037 66.366899,75.152037 C 66.604312,78.289017 67.316562,81.305337 68.622367,84.201007 C 71.115248,89.268427 74.913924,92.767367 79.068730,96.266297 C 79.068730,96.266297 81.680339,98.317397 81.680339,98.317397 C 81.680339,98.317397 82.630013,99.403277 82.630013,99.403277 C 83.223546,99.765237 85.241601,100.24785 85.953851,100.48916 C 88.802863,101.33372 91.414451,101.69568 94.382169,101.93699 C 94.382169,101.93699 95.569257,102.05764 95.569257,102.05764 C 95.569257,102.05764 97.943436,102.05764 97.943436,102.05764 C 97.943436,102.05764 100.55503,101.81634 100.55503,101.81634 C 106.37177,101.21307 112.06979,99.041317 116.93685,95.542387 C 118.36135,94.456507 119.78586,93.370637 120.97295,92.164107 C 122.39745,90.716267 123.70324,89.147787 125.36518,88.061907 C 124.89033,89.268427 124.89033,88.785827 125.00905,90.113007 C 125.36518,89.630387 125.72130,88.785827 125.72130,88.061907 C 125.72130,88.061907 125.60259,87.217327 125.60259,87.217327 C 125.48389,86.131467 126.90840,83.839047 127.62065,82.994487 C 127.62065,82.994487 128.80774,84.924927 128.80774,84.924927 C 129.04516,84.442317 128.92643,83.356437 129.63869,81.787947 C 130.70707,79.254237 132.25028,76.841177 132.84383,74.066157 C 132.84383,74.066157 133.08125,71.049837 133.08125,71.049837 C 133.19995,70.567227 133.43738,70.446577 133.91220,70.567227 C 133.91220,70.567227 134.03093,67.912867 134.03093,67.912867 C 134.03093,67.912867 135.09930,70.567227 135.09930,70.567227 C 135.09930,70.567227 135.09930,69.360697 135.09930,69.360697 C 135.09930,69.360697 135.45543,67.068287 135.45543,67.068287 C 135.45543,67.068287 137.11735,61.638907 137.11735,61.638907 C 136.87994,61.759567 136.40511,61.880227 136.16769,61.880227 C 135.69285,61.638907 135.45543,60.914987 135.33672,60.553037 C 135.21802,59.949767 135.09930,57.778017 135.33672,57.174757 C 135.57414,56.812797 135.69285,56.812797 136.04898,56.692147 C 135.33672,55.606267 135.09930,55.364957 134.50576,54.037777 C 134.50576,54.037777 133.67479,51.142107 133.67479,51.142107 C 134.74318,51.142107 134.62447,52.589937 135.81156,53.313857 C 135.81156,53.313857 134.74318,48.608397 134.74318,48.608397 C 134.38705,46.557297 134.74318,46.677957 133.55608,44.747497 C 133.55608,44.747497 133.31867,44.747497 133.31867,44.747497 C 132.84383,45.592077 132.48769,45.230117 132.13158,44.506197 C 131.89417,43.902937 131.41933,42.093137 131.53804,41.489867 C 131.89417,40.283347 133.31867,41.489867 133.91220,40.765957 C 134.14963,40.524647 134.14963,40.283347 134.14963,40.042037 C 134.98060,40.765957 136.16769,43.179017 136.52381,44.264887 C 137.59219,46.798597 139.01671,50.418197 139.61024,53.072557 C 139.84765,52.469297 139.37283,51.262757 139.25410,50.659497 C 139.25410,50.659497 137.23606,44.385547 137.23606,44.385547 C 137.59219,44.023587 137.47347,43.540977 137.35477,43.058357 C 137.23606,41.972487 137.11735,41.248567 137.11735,40.162687 C 137.71089,40.645307 137.94831,40.886607 138.30444,41.610527 C 138.30444,41.007267 137.82961,39.800727 137.59219,39.197471 C 136.87994,37.267031 136.04898,35.336571 134.98060,33.526791 C 131.77545,27.856101 127.38322,22.788681 122.27875,18.807121 C 120.85425,17.600591 117.88651,15.428841 116.22460,14.704931 C 116.22460,14.704931 118.12393,16.997331 118.12393,16.997331 C 118.12393,16.997331 118.00523,17.117981 118.00523,17.117981 C 117.05557,16.514721 115.51234,15.549491 114.68138,14.825571 C 113.61300,13.860351 113.73171,13.377751 113.37558,13.015791 C 113.01946,12.533171 111.12012,12.171211 110.52657,12.171211 C 109.45819,12.291871 107.91497,13.015791 107.08402,12.895131 C 106.72790,12.774471 106.01565,12.412511 105.65952,12.171211 C 105.65952,12.171211 102.69180,10.723371 102.69180,10.723371 C 100.19890,9.6375013 97.943436,9.0342314 95.331844,8.1896714 C 95.331844,8.1896714 91.770582,7.1037914 91.770582,7.1037914 C 91.770582,7.1037914 92.008005,8.4309714 92.008005,8.4309714 C 91.058331,8.0690114 89.989950,7.8277114 88.921570,7.8277114 C 88.921570,7.8277114 82.748720,8.5516314 82.748720,8.5516314 C 82.748720,8.5516314 81.324208,8.4309714 81.324208,8.4309714 C 81.799035,7.9483614 82.511296,7.7070514 83.223546,7.5864014 C 83.223546,7.5864014 81.086795,7.3450914 81.086795,7.3450914 C 79.068730,7.1037914 77.881653,6.8624814 75.863598,7.4657514 C 76.694565,6.7418314 77.881653,6.1385714 78.950023,5.6559514 C 78.356501,5.4146514 77.288109,5.6559514 76.694565,5.7766114 C 75.032630,6.1385714 73.370717,6.6211814 71.590086,6.6211814 z M 83.698383,6.3798714 C 83.698383,6.3798714 84.766753,6.6211814 84.766753,6.6211814 C 85.360297,6.8624814 85.953851,7.2244414 86.428688,6.6211814 C 86.428688,6.6211814 83.698383,6.3798714 83.698383,6.3798714 z M 25.056211,37.146371 C 24.937505,38.714851 24.818798,38.956171 24.225254,40.283347 C 25.412342,39.800727 26.480722,38.352891 26.124592,37.025711 C 26.124592,37.025711 25.056211,37.146371 25.056211,37.146371 z M 22.088493,48.367097 C 21.494949,49.091017 21.020112,50.056237 20.901405,51.021457 C 20.901405,51.021457 21.020112,53.193207 21.020112,53.193207 C 21.020112,53.193207 21.851080,49.935577 21.851080,49.935577 C 21.851080,49.935577 22.088493,48.367097 22.088493,48.367097 z M 110.05174,68.516127 C 110.52657,67.550907 110.52657,65.861767 110.05174,64.896547 C 109.57690,65.258507 109.10205,65.982417 109.22077,66.585687 C 109.22077,66.826987 109.45819,67.188947 109.45819,67.430247 C 109.69561,67.912867 109.69561,68.154167 110.05174,68.516127 z M 133.91220,73.100937 C 133.91220,73.100937 133.91220,73.824857 133.91220,73.824857 C 133.91220,73.824857 133.91220,73.100937 133.91220,73.100937 z M 136.64253,73.100937 C 136.64253,73.100937 135.57414,78.530317 135.57414,78.530317 C 136.04898,77.806397 136.28639,75.634657 136.52381,74.669437 C 136.64253,74.186817 136.76123,73.583557 136.64253,73.100937 z M 108.03368,75.272697 C 108.03368,75.272697 108.03368,75.393337 108.03368,75.393337 C 108.03368,75.393337 108.15239,75.272697 108.15239,75.272697 C 108.15239,75.272697 108.03368,75.272697 108.03368,75.272697 z M 106.01565,75.634657 C 105.54080,76.237917 104.59114,77.565097 104.23501,78.289017 C 104.11629,78.650977 103.87889,79.133587 104.11629,79.616197 C 104.35372,80.098807 104.82855,79.857507 105.42210,80.581417 C 105.42210,80.581417 105.65952,80.581417 105.65952,80.581417 C 106.49047,79.374897 107.44015,77.685757 107.79627,76.237917 C 106.84661,77.444437 106.96531,78.530317 105.42210,79.374897 C 104.82855,79.616197 104.70984,79.736857 104.11629,79.616197 C 104.47241,78.530317 104.94726,77.927057 105.54080,76.961837 C 105.77823,76.599877 106.13435,76.117257 106.01565,75.634657 z M 107.91497,75.634657 C 107.91497,75.634657 107.91497,75.755297 107.91497,75.755297 C 107.91497,75.755297 108.03368,75.634657 108.03368,75.634657 C 108.03368,75.634657 107.91497,75.634657 107.91497,75.634657 z M 133.43738,75.755297 C 133.43738,75.755297 133.43738,75.875957 133.43738,75.875957 C 133.43738,75.875957 133.55608,75.755297 133.55608,75.755297 C 133.55608,75.755297 133.43738,75.755297 133.43738,75.755297 z M 134.38705,82.149907 C 134.38705,82.149907 134.38705,82.270567 134.38705,82.270567 C 134.38705,82.270567 134.50576,82.149907 134.50576,82.149907 C 134.50576,82.149907 134.38705,82.149907 134.38705,82.149907 z M 134.26833,82.511867 C 134.26833,82.511867 134.26833,82.632527 134.26833,82.632527 C 134.26833,82.632527 134.38705,82.511867 134.38705,82.511867 C 134.38705,82.511867 134.26833,82.511867 134.26833,82.511867 z M 134.03093,83.115137 C 134.03093,83.115137 134.03093,83.235787 134.03093,83.235787 C 134.03093,83.235787 134.14963,83.115137 134.14963,83.115137 C 134.14963,83.115137 134.03093,83.115137 134.03093,83.115137 z M 133.79351,83.718397 C 133.79351,83.718397 133.79351,83.839047 133.79351,83.839047 C 133.79351,83.839047 133.91220,83.718397 133.91220,83.718397 C 133.91220,83.718397 133.79351,83.718397 133.79351,83.718397 z M 91.414451,84.321667 C 91.414451,84.321667 91.414451,84.562967 91.414451,84.562967 C 92.364125,85.166227 93.551202,85.528187 94.619593,85.648847 C 95.094430,85.769507 95.569257,86.010807 96.044106,85.769507 C 96.637636,85.528187 97.587316,84.562967 98.180846,84.080357 C 97.706026,83.959707 97.349886,84.080357 96.875066,84.201007 C 96.875066,84.201007 94.857007,84.321667 94.857007,84.321667 C 94.857007,84.321667 93.551202,84.321667 93.551202,84.321667 C 92.601538,84.201007 92.364125,84.080357 91.414451,84.321667 z M 67.435269,84.683627 C 67.435269,84.683627 67.435269,84.804267 67.435269,84.804267 C 67.435269,84.804267 67.553986,84.683627 67.553986,84.683627 C 67.553986,84.683627 67.435269,84.683627 67.435269,84.683627 z M 67.553986,84.924927 C 67.791399,86.131467 69.097193,88.182547 69.690737,89.268427 C 69.809444,88.303207 68.859770,86.976027 68.384943,86.252107 C 68.384943,86.252107 67.553986,84.924927 67.553986,84.924927 z M 65.298507,87.820607 C 65.298507,88.182547 65.061094,89.027127 65.179801,89.389087 C 65.179801,89.751047 66.010768,90.836927 66.248182,91.198887 C 67.197856,92.646717 68.503660,94.577157 69.809444,95.542387 C 69.453313,94.577157 67.316562,91.198887 66.604312,89.992347 C 66.366899,89.389087 65.773345,88.182547 65.298507,87.820607 z M 68.622367,90.354307 C 69.809444,93.008677 73.133303,96.266297 75.388761,97.955437 C 79.899697,101.45438 85.122884,103.98809 90.583494,105.19462 C 93.907343,105.79788 97.349886,105.91854 100.67375,104.83266 C 100.08021,104.59136 98.655696,104.71200 97.943436,104.71200 C 97.943436,104.71200 92.720266,104.47070 92.720266,104.47070 C 90.939614,104.22940 87.734493,103.62613 86.191264,102.78156 C 85.360297,102.29895 84.054514,101.33372 83.342253,100.73046 C 82.867426,100.24785 82.748720,100.00654 82.155165,99.644577 C 82.155165,99.644577 82.155165,100.24785 82.155165,100.24785 C 81.442915,100.00654 80.730665,99.523937 80.018404,99.161977 C 78.237783,98.196757 76.694565,96.869567 75.151348,95.542387 C 74.439087,94.939117 73.845543,94.215207 73.133303,93.611937 C 73.608130,94.577157 75.032630,96.266297 75.744891,96.990217 C 75.744891,96.990217 77.406816,98.679357 77.406816,98.679357 C 75.032630,97.352177 73.608130,95.663037 71.827499,93.611937 C 70.996542,92.646717 69.690737,90.836927 68.622367,90.354307 z "
     style="fill:#de0551;stroke:#000000;stroke-width:0.62500000;fill-opacity:1.0000000;stroke-dasharray:none;" />
</svg>
