<?xml version="1.0" encoding="UTF-8" standalone="no"?>
<!DOCTYPE svg PUBLIC "-//W3C//DTD SVG 20010904//EN"
"http://www.w3.org/TR/2001/REC-SVG-20010904/DTD/svg10.dtd">
<svg
   width="128.00000pt"
   height="128.00000pt"
   viewBox="0 0 246 225"
   id="svg1"
   sodipodi:version="0.32"
   inkscape:version="0.38.1"
   sodipodi:docname="money2.svg"
   sodipodi:docbase="/home/francois/Documents/work/artwork/new_theme/New_clock/various/scalable"
   xmlns="http://www.w3.org/2000/svg"
   xmlns:inkscape="http://www.inkscape.org/namespaces/inkscape"
   xmlns:sodipodi="http://sodipodi.sourceforge.net/DTD/sodipodi-0.dtd"
   xmlns:xlink="http://www.w3.org/1999/xlink">
  <defs
     id="defs4">
    <linearGradient
       id="linearGradient826">
      <stop
         style="stop-color:#ffb600;stop-opacity:1.0000000;"
         offset="0.0000000"
         id="stop827" />
      <stop
         style="stop-color:#ffff00;stop-opacity:1.0000000;"
         offset="1.0000000"
         id="stop828" />
    </linearGradient>
    <linearGradient
       xlink:href="#linearGradient826"
       id="linearGradient829"
       x1="0.91874999"
       y1="0.69781929"
       x2="0.52812499"
       y2="0.55451715"
       spreadMethod="reflect" />
  </defs>
  <sodipodi:namedview
     id="base"
     pagecolor="#ffffff"
     bordercolor="#666666"
     borderopacity="1.0"
     inkscape:pageopacity="0.0"
     inkscape:pageshadow="2"
     inkscape:zoom="5.5937500"
     inkscape:cx="64.000000"
     inkscape:cy="64.000000"
     inkscape:window-width="776"
     inkscape:window-height="913"
     showgrid="true"
     gridspacingx="1.0000000mm"
     gridspacingy="1.0000000mm"
     inkscape:window-x="110"
     inkscape:window-y="31" />
  <path
     style="stroke:#000000;stroke-width:7.6473985;"
     d="M 137.90625,17.718750 C 108.03805,22.312697 79.440098,39.958766 65.625000,67.437500 C 61.670966,73.531862 59.851519,81.026114 56.437500,87.093750 C 49.585447,88.702914 41.586593,85.494043 35.468750,89.187500 C 31.275206,95.008908 28.914544,101.89268 25.562500,108.21875 C 34.854167,108.21875 44.145833,108.21875 53.437500,108.21875 C 53.820193,114.75595 54.813748,121.91698 46.000000,119.06250 C 40.121997,118.49969 33.543970,120.05264 32.050325,126.56531 C 31.349670,130.39604 24.911150,139.40135 30.406250,139.15625 C 39.108749,139.50182 47.943817,138.43309 56.562500,139.75000 C 64.244328,160.66871 76.106309,181.20823 95.363868,193.44008 C 113.40224,205.70623 135.66435,211.56600 157.39169,208.76803 C 171.42147,207.48356 185.44298,204.38609 197.45923,196.67017 C 203.40025,193.60266 211.27729,189.77073 210.12433,181.75096 C 210.20714,174.86634 210.13005,167.97924 210.15625,161.09375 C 195.04984,176.43623 175.38593,188.76064 153.28696,189.22107 C 120.79344,191.41049 88.566350,169.83106 77.750000,139.15625 C 111.95800,139.23697 146.16870,138.99301 180.37500,139.28125 C 182.57720,133.13924 187.75763,127.61530 187.43750,120.84375 C 182.25998,117.37836 174.86229,120.18898 168.78125,119.28125 C 136.95833,119.28125 105.13542,119.28125 73.312500,119.28125 C 73.206482,113.15440 71.377091,105.30417 80.312500,108.21875 C 116.11040,108.11077 151.94010,108.43229 187.71875,108.06250 C 196.46682,106.97978 197.12781,95.748688 200.37998,89.250278 C 199.78602,85.321689 188.88874,88.552768 184.15625,87.500000 C 148.76042,87.500000 113.36458,87.500000 77.968750,87.500000 C 82.737891,76.479072 88.251640,65.505231 98.053491,57.988453 C 111.84196,44.452487 131.19861,38.396721 150.09202,37.214972 C 167.58091,37.227152 184.43196,44.699419 197.90625,55.468750 C 201.50006,59.311673 205.37768,62.907720 210.12500,65.281250 C 214.90460,60.801420 215.56256,53.623250 218.87500,48.125000 C 199.11854,25.521815 167.59031,14.151922 137.90625,17.718750 z "
     id="path831" />
</svg>
