<?xml version="1.0" encoding="UTF-8" standalone="no"?>
<!DOCTYPE svg PUBLIC "-//W3C//DTD SVG 20010904//EN"
"http://www.w3.org/TR/2001/REC-SVG-20010904/DTD/svg10.dtd">
<!-- Created with Inkscape (http://www.inkscape.org/) -->
<svg
   id="svg1"
   sodipodi:version="0.32"
   inkscape:version="0.38.1"
   width="128.00000pt"
   height="128.00000pt"
   sodipodi:docbase="/home/francois/waiting/new_theme/New_clock/various/scalable"
   sodipodi:docname="news.svg"
   xmlns="http://www.w3.org/2000/svg"
   xmlns:inkscape="http://www.inkscape.org/namespaces/inkscape"
   xmlns:sodipodi="http://sodipodi.sourceforge.net/DTD/sodipodi-0.dtd"
   xmlns:xlink="http://www.w3.org/1999/xlink">
  <defs
     id="defs3">
    <linearGradient
       id="linearGradient866">
      <stop
         style="stop-color:#ffffff;stop-opacity:0.29411766;"
         offset="0.0000000"
         id="stop867" />
      <stop
         style="stop-color:#000000;stop-opacity:0.32156864;"
         offset="1.0000000"
         id="stop868" />
    </linearGradient>
    <linearGradient
       id="linearGradient858">
      <stop
         style="stop-color:#ffab00;stop-opacity:1.0000000;"
         offset="0.0000000"
         id="stop859" />
      <stop
         style="stop-color:#ffe500;stop-opacity:1.0000000;"
         offset="1.0000000"
         id="stop860" />
    </linearGradient>
    <linearGradient
       id="linearGradient827">
      <stop
         style="stop-color:#000000;stop-opacity:0.66949153;"
         offset="0.0000000"
         id="stop828" />
      <stop
         style="stop-color:#ffffff;stop-opacity:0.0000000;"
         offset="1.0000000"
         id="stop829" />
    </linearGradient>
    <linearGradient
       xlink:href="#linearGradient858"
       id="linearGradient830"
       x1="0.45312500"
       y1="0.62536025"
       x2="0.10937500"
       y2="0.10951009" />
    <linearGradient
       xlink:href="#linearGradient866"
       id="linearGradient861" />
    <radialGradient
       xlink:href="#linearGradient858"
       id="radialGradient865"
       cx="0.67187500"
       cy="0.74777448"
       r="0.60056883"
       fx="0.67187500"
       fy="0.74777448" />
    <linearGradient
       xlink:href="#linearGradient858"
       id="linearGradient852"
       x1="0.85937500"
       y1="0.95942026"
       x2="0.45312500"
       y2="0.44927537"
       spreadMethod="reflect" />
    <radialGradient
       xlink:href="#linearGradient866"
       id="radialGradient854" />
  </defs>
  <sodipodi:namedview
     id="base"
     pagecolor="#ffffff"
     bordercolor="#666666"
     borderopacity="1.0"
     inkscape:pageopacity="0.0"
     inkscape:pageshadow="2"
     inkscape:zoom="4.3089319"
     inkscape:cx="63.999999"
     inkscape:cy="64.000006"
     inkscape:window-width="840"
     inkscape:window-height="913"
     showgrid="true"
     snaptogrid="false"
     gridspacingx="1.0000000mm"
     gridspacingy="1.0000000mm"
     inkscape:window-x="0"
     inkscape:window-y="31"
     snaptoguides="false"
     showguides="true">
    <sodipodi:guide
       orientation="vertical"
       position="56.394485"
       id="guide857" />
    <sodipodi:guide
       orientation="vertical"
       position="70.086974"
       id="guide917" />
  </sodipodi:namedview>
  <path
     style="fill:#ffffff;fill-rule:evenodd;stroke:black;stroke-opacity:1;stroke-width:6.2500000;stroke-linejoin:round;stroke-linecap:butt;fill-opacity:1.0000000;stroke-dasharray:none;"
     d="M 79.794871,51.539454 C 72.392140,36.845614 28.260421,17.535442 7.9296113,13.641543 C 9.0025241,59.399712 9.0231408,84.454512 7.9150334,126.75465 C 34.432384,130.88534 60.068405,143.63244 80.375061,156.23523 C 80.375061,162.38907 79.794871,55.231761 79.794871,51.539454 z "
     id="path859"
     sodipodi:nodetypes="ccccc" />
  <path
     style="fill:#ffffff;fill-rule:evenodd;stroke:black;stroke-opacity:1;stroke-width:6.2500000;stroke-linejoin:round;stroke-linecap:butt;fill-opacity:1.0000000;stroke-dasharray:none;"
     d="M 79.794871,51.249359 C 98.801401,30.173427 124.50146,21.596773 154.11532,12.191067 C 151.88203,61.140283 153.31188,86.485178 153.54971,125.88436 C 126.74227,126.24382 98.941146,141.31167 80.375061,156.23523 C 80.375061,156.00697 79.794871,54.941666 79.794871,51.249359 z "
     id="path861"
     sodipodi:nodetypes="ccccc" />
  <path
     style="fill:none;fill-rule:evenodd;stroke:black;stroke-opacity:1;stroke-width:1.2500000;stroke-linejoin:miter;stroke-linecap:butt;fill-opacity:0.75;stroke-dasharray:none;"
     d="M 16.445801,31.349524 C 16.445801,31.349524 46.370403,39.775328 70.158200,60.055546"
     id="path909"
     sodipodi:nodetypes="cc" />
  <path
     style="fill:none;fill-opacity:0.75000000;fill-rule:evenodd;stroke:#000000;stroke-width:1.2500000;stroke-dasharray:none;"
     d="M 18.233341,47.293964 C 18.233341,47.293964 45.769611,52.120097 70.158200,71.511541"
     id="path911"
     sodipodi:nodetypes="cc" />
  <path
     style="fill:none;fill-rule:evenodd;stroke:black;stroke-opacity:1;stroke-width:1.2500000;stroke-linejoin:miter;stroke-linecap:butt;fill-opacity:0.75;stroke-dasharray:none;"
     d="M 19.180940,61.427410 C 19.180940,61.427410 44.856367,66.197411 70.158200,84.005134"
     id="path912"
     sodipodi:nodetypes="cc" />
  <path
     style="fill:none;fill-rule:evenodd;stroke:black;stroke-opacity:1;stroke-width:1.2500000;stroke-linejoin:miter;stroke-linecap:butt;fill-opacity:0.75;stroke-dasharray:none;"
     d="M 19.166240,75.823196 C 19.166240,75.823196 44.046621,78.216093 70.158200,97.159490"
     id="path913"
     sodipodi:nodetypes="cc" />
  <path
     style="fill:none;fill-rule:evenodd;stroke:black;stroke-opacity:1;stroke-width:1.2500000;stroke-linejoin:miter;stroke-linecap:butt;fill-opacity:0.75;stroke-dasharray:none;"
     d="M 19.504181,87.829587 C 19.794276,87.900020 42.065190,92.626273 70.158200,109.87611"
     id="path914"
     sodipodi:nodetypes="cc" />
  <path
     style="fill:none;fill-opacity:0.75000000;fill-rule:evenodd;stroke:#000000;stroke-width:1.2500000;stroke-dasharray:none;"
     d="M 18.245347,99.556605 C 18.535442,99.627035 42.429969,104.74342 70.158200,122.76680"
     id="path915"
     sodipodi:nodetypes="cc" />
  <path
     style="fill:none;fill-opacity:0.75000000;fill-rule:evenodd;stroke:#000000;stroke-width:1.2500000;stroke-dasharray:none;"
     d="M 17.859278,112.07965 C 17.859278,112.07965 44.009483,117.94338 70.158200,135.61305"
     id="path916"
     sodipodi:nodetypes="cc" />
  <path
     style="fill:none;fill-rule:evenodd;stroke:black;stroke-opacity:1;stroke-width:1.2500000;stroke-linejoin:miter;stroke-linecap:butt;fill-opacity:0.75;stroke-dasharray:none;"
     d="M 142.23622,30.485835 C 142.23622,30.485835 112.31161,39.227529 88.523812,59.758852"
     id="path858"
     sodipodi:nodetypes="cc" />
  <path
     style="fill:none;fill-opacity:0.75000000;fill-rule:evenodd;stroke:#000000;stroke-width:1.2500000;stroke-dasharray:none;"
     d="M 140.44868,46.449144 C 140.44868,46.449144 112.91241,51.565955 88.523812,71.214847"
     id="path860"
     sodipodi:nodetypes="cc" />
  <path
     style="fill:none;fill-rule:evenodd;stroke:black;stroke-opacity:1;stroke-width:1.2500000;stroke-linejoin:miter;stroke-linecap:butt;fill-opacity:0.75;stroke-dasharray:none;"
     d="M 139.50108,60.592593 C 139.50108,60.592593 113.82565,65.633629 88.523812,83.708440"
     id="path862"
     sodipodi:nodetypes="cc" />
  <path
     style="fill:none;fill-rule:evenodd;stroke:black;stroke-opacity:1;stroke-width:1.2500000;stroke-linejoin:miter;stroke-linecap:butt;fill-opacity:0.75;stroke-dasharray:none;"
     d="M 139.51578,74.988224 C 139.51578,74.988224 114.63540,77.643762 88.523812,96.862796"
     id="path863"
     sodipodi:nodetypes="cc" />
  <path
     style="fill:none;fill-rule:evenodd;stroke:black;stroke-opacity:1;stroke-width:1.2500000;stroke-linejoin:miter;stroke-linecap:butt;fill-opacity:0.75;stroke-dasharray:none;"
     d="M 139.17784,86.998182 C 138.88774,87.071679 116.61683,92.033025 88.523812,109.57942"
     id="path864"
     sodipodi:nodetypes="cc" />
  <path
     style="fill:none;fill-opacity:0.75000000;fill-rule:evenodd;stroke:#000000;stroke-width:1.2500000;stroke-dasharray:none;"
     d="M 140.43667,98.711914 C 140.14658,98.785404 116.25205,104.15403 88.523812,122.47011"
     id="path865"
     sodipodi:nodetypes="cc" />
  <path
     style="fill:none;fill-opacity:0.75000000;fill-rule:evenodd;stroke:#000000;stroke-width:1.2500000;stroke-dasharray:none;"
     d="M 140.82274,111.23088 C 140.82274,111.23088 114.67253,117.37066 88.523812,135.31636"
     id="path866"
     sodipodi:nodetypes="cc" />
  <path
     style="fill:#ffffff;fill-rule:evenodd;stroke:#000000;stroke-width:5.8671689;stroke-linejoin:round;"
     d="M 80.001415,51.160658 C 96.750846,27.904448 119.39892,16.379688 145.49602,3.5769156 C 143.52794,52.782316 144.78799,77.963191 144.99758,117.33510 C 121.37362,120.76969 96.873995,139.02667 80.512706,156.07998 C 80.512706,155.85172 80.001415,54.852965 80.001415,51.160658 z "
     id="path867"
     sodipodi:nodetypes="ccccc" />
  <path
     style="fill:none;fill-opacity:0.75000000;fill-rule:evenodd;stroke:#000000;stroke-width:1.1734338;"
     d="M 135.02760,23.234360 C 135.02760,23.234360 108.65666,35.408767 87.693760,58.668836"
     id="path868"
     sodipodi:nodetypes="cc" />
  <path
     style="fill:none;fill-opacity:0.75000000;fill-rule:evenodd;stroke:#000000;stroke-width:1.1734338;"
     d="M 133.45235,39.402721 C 133.45235,39.402721 109.18612,47.678273 87.693760,70.124831"
     id="path869"
     sodipodi:nodetypes="cc" />
  <path
     style="fill:none;fill-opacity:0.75000000;fill-rule:evenodd;stroke:#000000;stroke-width:1.1734338;"
     d="M 132.61727,53.654871 C 132.61727,53.654871 109.99090,61.641188 87.693760,82.618424"
     id="path870"
     sodipodi:nodetypes="cc" />
  <path
     style="fill:none;fill-opacity:0.75000000;fill-rule:evenodd;stroke:#000000;stroke-width:1.1734338;"
     d="M 132.63023,68.048815 C 132.63023,68.048815 110.70449,73.558433 87.693760,95.772780"
     id="path871"
     sodipodi:nodetypes="cc" />
  <path
     style="fill:none;fill-opacity:0.75000000;fill-rule:evenodd;stroke:#000000;stroke-width:1.1734338;"
     d="M 132.33242,80.097540 C 132.07678,80.204314 112.45062,87.720402 87.693760,108.48941"
     id="path872"
     sodipodi:nodetypes="cc" />
  <path
     style="fill:none;fill-opacity:0.75000000;fill-rule:evenodd;stroke:#000000;stroke-width:1.1734338;"
     d="M 133.44176,91.666869 C 133.18612,91.773636 112.12916,99.883254 87.693760,121.38010"
     id="path873"
     sodipodi:nodetypes="cc" />
  <path
     style="fill:none;fill-opacity:0.75000000;fill-rule:evenodd;stroke:#000000;stroke-width:1.1734338;"
     d="M 133.78198,104.14155 C 133.78198,104.14155 110.73722,113.28108 87.693760,134.22635"
     id="path874"
     sodipodi:nodetypes="cc" />
  <path
     style="fill:none;fill-opacity:0.75000000;fill-rule:evenodd;stroke:#000000;stroke-width:1.1740097;"
     d="M 25.672438,30.195740 C 25.672438,30.195740 52.069272,38.937434 73.052746,59.468757"
     id="path875"
     sodipodi:nodetypes="cc" />
  <path
     style="fill:none;fill-opacity:0.75000000;fill-rule:evenodd;stroke:#000000;stroke-width:1.1740097;"
     d="M 27.249247,46.159049 C 27.249247,46.159049 51.539300,51.275860 73.052746,70.924752"
     id="path876"
     sodipodi:nodetypes="cc" />
  <path
     style="fill:none;fill-opacity:0.75000000;fill-rule:evenodd;stroke:#000000;stroke-width:1.1740097;"
     d="M 28.085135,60.302498 C 28.085135,60.302498 50.733720,65.343534 73.052746,83.418345"
     id="path877"
     sodipodi:nodetypes="cc" />
  <path
     style="fill:none;fill-opacity:0.75000000;fill-rule:evenodd;stroke:#000000;stroke-width:1.1740097;"
     d="M 28.072168,74.698129 C 28.072168,74.698129 50.019431,77.353667 73.052746,96.572701"
     id="path878"
     sodipodi:nodetypes="cc" />
  <path
     style="fill:none;fill-opacity:0.75000000;fill-rule:evenodd;stroke:#000000;stroke-width:1.1740097;"
     d="M 28.370269,86.708087 C 28.626169,86.781584 48.271590,91.742930 73.052746,109.28932"
     id="path879"
     sodipodi:nodetypes="cc" />
  <path
     style="fill:none;fill-opacity:0.75000000;fill-rule:evenodd;stroke:#000000;stroke-width:1.1740097;"
     d="M 27.259841,98.421819 C 27.515732,98.495309 48.593366,103.86393 73.052746,122.18001"
     id="path880"
     sodipodi:nodetypes="cc" />
  <path
     style="fill:none;fill-opacity:0.75000000;fill-rule:evenodd;stroke:#000000;stroke-width:1.1740097;"
     d="M 26.919284,110.94078 C 26.919284,110.94078 49.986678,117.08056 73.052746,135.02626"
     id="path881"
     sodipodi:nodetypes="cc" />
  <path
     style="fill:#ffffff;fill-rule:evenodd;stroke:#000000;stroke-width:5.5104904;stroke-linejoin:round;"
     d="M 80.570450,50.870563 C 65.795592,27.614353 45.817477,16.089593 22.796932,3.2868205 C 24.532997,52.492221 23.421493,77.673096 23.236611,117.04500 C 44.075572,120.47959 65.686960,138.73657 80.119436,155.78988 C 80.119436,155.56162 80.570450,54.562870 80.570450,50.870563 z "
     id="path882"
     sodipodi:nodetypes="ccccc" />
  <path
     style="fill:none;fill-opacity:0.75000000;fill-rule:evenodd;stroke:#000000;stroke-width:1.1020981;"
     d="M 32.031242,22.944265 C 32.031242,22.944265 55.293344,35.118672 73.784952,58.378741"
     id="path883"
     sodipodi:nodetypes="cc" />
  <path
     style="fill:none;fill-opacity:0.75000000;fill-rule:evenodd;stroke:#000000;stroke-width:1.1020981;"
     d="M 33.420787,39.112626 C 33.420787,39.112626 54.826302,47.388178 73.784952,69.834736"
     id="path884"
     sodipodi:nodetypes="cc" />
  <path
     style="fill:none;fill-opacity:0.75000000;fill-rule:evenodd;stroke:#000000;stroke-width:1.1020981;"
     d="M 34.157421,53.364776 C 34.157421,53.364776 54.116396,61.351093 73.784952,82.328329"
     id="path885"
     sodipodi:nodetypes="cc" />
  <path
     style="fill:none;fill-opacity:0.75000000;fill-rule:evenodd;stroke:#000000;stroke-width:1.1020981;"
     d="M 34.145988,67.758720 C 34.145988,67.758720 53.486930,73.268338 73.784952,95.482685"
     id="path886"
     sodipodi:nodetypes="cc" />
  <path
     style="fill:none;fill-opacity:0.75000000;fill-rule:evenodd;stroke:#000000;stroke-width:1.1020981;"
     d="M 34.408690,79.807445 C 34.634193,79.914219 51.946650,87.430307 73.784952,108.19931"
     id="path887"
     sodipodi:nodetypes="cc" />
  <path
     style="fill:none;fill-opacity:0.75000000;fill-rule:evenodd;stroke:#000000;stroke-width:1.1020981;"
     d="M 33.430129,91.376774 C 33.655632,91.483541 52.230213,99.593159 73.784952,121.09000"
     id="path888"
     sodipodi:nodetypes="cc" />
  <path
     style="fill:none;fill-opacity:0.75000000;fill-rule:evenodd;stroke:#000000;stroke-width:1.1020981;"
     d="M 33.130017,103.85145 C 33.130017,103.85145 53.458059,112.99098 73.784952,133.93625"
     id="path889"
     sodipodi:nodetypes="cc" />
</svg>
