<?xml version="1.0" encoding="UTF-8" standalone="no"?>
<!DOCTYPE svg PUBLIC "-//W3C//DTD SVG 20010904//EN"
"http://www.w3.org/TR/2001/REC-SVG-20010904/DTD/svg10.dtd">
<!-- Created with Inkscape (http://www.inkscape.org/) -->
<svg
   id="svg1"
   sodipodi:version="0.32"
   inkscape:version="0.38.1"
   width="128.00000pt"
   height="128.00000pt"
   sodipodi:docbase="/home/francois/Documents/work/artwork/new_theme/Rodent/scalable/misc"
   sodipodi:docname="xfsettings.svg"
   xmlns="http://www.w3.org/2000/svg"
   xmlns:inkscape="http://www.inkscape.org/namespaces/inkscape"
   xmlns:sodipodi="http://sodipodi.sourceforge.net/DTD/sodipodi-0.dtd"
   xmlns:xlink="http://www.w3.org/1999/xlink">
  <defs
     id="defs3">
    <linearGradient
       id="linearGradient832">
      <stop
         style="stop-color:#ffffff;stop-opacity:1.0000000;"
         offset="0.0000000"
         id="stop833" />
      <stop
         style="stop-color:#bdbcbc;stop-opacity:1.0000000;"
         offset="0.50000000"
         id="stop835" />
      <stop
         style="stop-color:#7b7979;stop-opacity:1.0000000;"
         offset="1.0000000"
         id="stop834" />
    </linearGradient>
    <linearGradient
       id="linearGradient826">
      <stop
         style="stop-color:#eed680;stop-opacity:1.0000000;"
         offset="0.0000000"
         id="stop827" />
      <stop
         style="stop-color:#dfb546;stop-opacity:1.0000000;"
         offset="0.34620437"
         id="stop840" />
      <stop
         style="stop-color:#d1940c;stop-opacity:1.0000000;"
         offset="1.0000000"
         id="stop828" />
    </linearGradient>
    <linearGradient
       xlink:href="#linearGradient826"
       id="linearGradient829"
       x1="0.025641026"
       y1="0.46766168"
       x2="0.43589744"
       y2="0.47761193" />
    <linearGradient
       xlink:href="#linearGradient832"
       id="linearGradient831"
       x1="-9.1886134e-18"
       y1="0.50000000"
       x2="1.0000000"
       y2="0.50000000" />
    <linearGradient
       xlink:href="#linearGradient832"
       id="linearGradient838"
       x1="0.47549018"
       y1="0.34328359"
       x2="1.0392157"
       y2="0.84079599"
       spreadMethod="reflect" />
    <linearGradient
       xlink:href="#linearGradient826"
       id="linearGradient839"
       x1="0.44607842"
       y1="0.46766168"
       x2="0.55882353"
       y2="0.58706468"
       spreadMethod="reflect" />
  </defs>
  <sodipodi:namedview
     id="base"
     pagecolor="#ffffff"
     bordercolor="#666666"
     borderopacity="1.0"
     inkscape:pageopacity="0.0"
     inkscape:pageshadow="2"
     inkscape:zoom="4.3696989"
     inkscape:cx="64.000000"
     inkscape:cy="60.848129"
     inkscape:window-width="851"
     inkscape:window-height="906"
     showgrid="true"
     snaptogrid="false"
     gridspacingx="1.0000000mm"
     gridspacingy="1.0000000mm"
     inkscape:window-x="53"
     inkscape:window-y="34"
     showguides="true"
     snaptoguides="true" />
  <path
     style="fill:url(#linearGradient831);fill-rule:evenodd;stroke:#000000;stroke-width:2.5711403;stroke-opacity:0.47741935;"
     d="M 110.36784,34.695536 L 98.329908,46.796442 L 100.32478,60.925697 L 114.35758,62.954045 L 126.39550,50.853140 C 126.39550,50.853140 138.41625,62.971341 124.37200,77.089064 C 108.32142,93.223612 98.306998,79.088586 92.290893,81.102522 L 44.139164,129.50615 C 40.129383,129.50327 38.123065,131.52009 34.116148,127.48068 C 30.109232,123.44128 32.115550,121.42447 32.118415,117.38794 L 80.270144,68.984318 C 82.279330,62.930982 68.252258,52.829598 84.302834,36.695057 C 98.347098,22.577334 110.36784,34.695536 110.36784,34.695536 z "
     id="path836"
     sodipodi:nodetypes="ccccccccccccc" />
  <path
     style="fill-opacity:0.36774191;fill-rule:evenodd;stroke:#000000;stroke-width:2.5949209;stroke-opacity:0.47096774;"
     d="M 89.831635,88.305234 L 46.591566,130.34073 C 42.742796,128.92635 38.361244,130.33501 34.249020,126.32590 C 30.136796,122.31680 31.003678,117.68591 30.142671,114.30432 L 73.382740,72.268824 C 77.494964,76.277927 85.719411,84.296132 89.831635,88.305234 z "
     id="path837"
     sodipodi:nodetypes="cccccc" />
  <path
     style="fill:url(#linearGradient838);fill-rule:evenodd;stroke:#000000;stroke-width:2.5539663;"
     d="M 109.84726,32.606388 L 97.763398,44.500790 L 99.765879,58.388928 L 113.85222,60.382664 L 125.93608,48.488261 C 125.93608,48.488261 138.00270,60.399664 123.90485,74.276468 C 107.79303,90.135671 97.740398,76.241867 91.701337,78.221434 L 43.365874,125.79905 C 39.340792,125.79622 37.326819,127.77862 33.304612,123.80815 C 29.282407,119.83768 31.296380,117.85528 31.299257,113.88765 L 79.634719,66.310029 C 81.651572,60.359994 67.570977,50.430991 83.682798,34.571787 C 97.780638,20.694983 109.84726,32.606388 109.84726,32.606388 z "
     id="path834"
     sodipodi:nodetypes="ccccccccccccc" />
  <path
     style="fill:url(#linearGradient839);fill-rule:evenodd;stroke:#000000;stroke-width:1.7026442;"
     d="M 87.670507,86.153873 L 45.376977,127.78429 C 43.365874,125.79905 37.326819,127.77862 33.304612,123.80815 C 29.282407,119.83768 31.299257,113.88765 29.288153,111.90242 L 71.581683,70.271996 C 75.603890,74.242465 83.648302,82.183402 87.670507,86.153873 z "
     id="path830"
     sodipodi:nodetypes="cccccc" />
</svg>
