<?xml version="1.0" encoding="UTF-8" standalone="no"?>
<!DOCTYPE svg PUBLIC "-//W3C//DTD SVG 20010904//EN"
"http://www.w3.org/TR/2001/REC-SVG-20010904/DTD/svg10.dtd">
<!-- Created with Sodipodi ("http://www.sodipodi.com/") -->
<svg
   id="svg559"
   sodipodi:version="0.32"
   width="128pt"
   height="128pt"
   sodipodi:docname="gnome-fs-ssh.svg"
   sodipodi:docbase="/home/francois/Documents/work/artwork/new_theme/rodent/scalable/filesystems"
   inkscape:version="0.38.1"
   xmlns="http://www.w3.org/2000/svg"
   xmlns:inkscape="http://www.inkscape.org/namespaces/inkscape"
   xmlns:sodipodi="http://sodipodi.sourceforge.net/DTD/sodipodi-0.dtd"
   xmlns:xlink="http://www.w3.org/1999/xlink">
  <defs
     id="defs561">
    <linearGradient
       id="linearGradient872">
      <stop
         style="stop-color:#ffffff;stop-opacity:1.0000000;"
         offset="0.0000000"
         id="stop873" />
      <stop
         style="stop-color:#9f9f9f;stop-opacity:1.0000000;"
         offset="0.50000000"
         id="stop879" />
      <stop
         style="stop-color:#3f3f3f;stop-opacity:1.0000000;"
         offset="1.0000000"
         id="stop875" />
    </linearGradient>
    <linearGradient
       id="linearGradient866">
      <stop
         style="stop-color:#ffffff;stop-opacity:1.0000000;"
         offset="0.0000000"
         id="stop867" />
      <stop
         style="stop-color:#bfbeb9;stop-opacity:1.0000000;"
         offset="0.21029197"
         id="stop870" />
      <stop
         style="stop-color:#7f7d73;stop-opacity:1.0000000;"
         offset="1.0000000"
         id="stop869" />
    </linearGradient>
    <linearGradient
       id="linearGradient566">
      <stop
         style="stop-color:#ffffff;stop-opacity:1.0000000;"
         offset="0.0000000"
         id="stop567" />
      <stop
         style="stop-color:#bfbfbf;stop-opacity:1.0000000;"
         offset="0.24229629"
         id="stop853" />
      <stop
         style="stop-color:#7f7f7f;stop-opacity:1.0000000;"
         offset="1.0000000"
         id="stop568" />
    </linearGradient>
    <linearGradient
       xlink:href="#linearGradient566"
       id="linearGradient569"
       x1="0.823204"
       y1="0.937499"
       x2="0.265193"
       y2="-7.812555e-3" />
    <linearGradient
       xlink:href="#linearGradient866"
       id="linearGradient589"
       x1="0.44300517"
       y1="0.012698413"
       x2="0.44374999"
       y2="0.57812500"
       spreadMethod="pad" />
    <linearGradient
       xlink:href="#linearGradient872"
       id="linearGradient871"
       x1="0.49481866"
       y1="0.72897196"
       x2="0.49481866"
       y2="0.97196263"
       spreadMethod="reflect" />
  </defs>
  <sodipodi:namedview
     id="base"
     showgrid="true"
     snaptogrid="false"
     gridspacingx="2.000000mm"
     gridspacingy="2.000000mm"
     inkscape:zoom="4.0934854"
     inkscape:cx="63.999999"
     inkscape:cy="51.785462"
     inkscape:window-width="846"
     inkscape:window-height="913"
     inkscape:window-x="0"
     inkscape:window-y="31" />
  <path
     style="fill:url(#linearGradient871);fill-rule:evenodd;stroke:#000000;stroke-width:2.5000000;stroke-dasharray:none;"
     d="M 74.788387,105.69843 C 72.221882,105.69843 70.132137,107.75693 70.132137,110.32343 L 70.132137,136.26093 L -1.6491133,136.26093 C -4.2156177,136.26093 -6.2741133,138.31943 -6.2741133,140.88593 L -6.2741133,147.32343 C -6.2741133,149.88993 -4.2156177,151.94843 -1.6491133,151.94843 L 163.72589,151.94843 C 166.29240,151.94843 168.38214,149.88993 168.38214,147.32343 L 168.38214,140.88593 C 168.38215,138.31943 166.29239,136.26093 163.72589,136.26093 L 85.819637,136.26093 L 85.819637,110.32343 C 85.819637,107.75693 83.761141,105.69843 81.194637,105.69843 L 74.788387,105.69843 z "
     id="path877" />
  <path
     style="font-size:12.000;fill:#000002;fill-rule:evenodd;stroke:none;stroke-width:3.8000;stroke-linecap:round;stroke-linejoin:round;fill-opacity:0.2011;stroke-dasharray:none;"
     d="M 15.861841,69.484931 L 63.213311,16.284581"
     id="path607"
     sodipodi:nodetypes="cc" />
  <path
     style="font-size:12.000;fill:#000002;fill-rule:evenodd;stroke:none;stroke-width:3.8000;stroke-linecap:round;stroke-linejoin:round;fill-opacity:0.2011;stroke-dasharray:none;"
     d="M 110.56467,16.284581 L 157.91617,69.484931"
     id="path608"
     sodipodi:nodetypes="cc" />
  <path
     style="font-size:12.000;fill:#000002;fill-rule:evenodd;stroke:none;stroke-width:3.8000;stroke-linecap:round;stroke-linejoin:round;fill-opacity:0.2011;stroke-dasharray:none;"
     d="M 15.861841,69.484931 L 63.213311,16.284581"
     id="path613"
     sodipodi:nodetypes="cc" />
  <path
     style="font-size:12.000;fill:#000002;fill-rule:evenodd;stroke:none;stroke-width:3.8000;stroke-linecap:round;stroke-linejoin:round;fill-opacity:0.2011;stroke-dasharray:none;"
     d="M 110.56467,16.284581 L 157.91617,69.484931"
     id="path614"
     sodipodi:nodetypes="cc" />
  <path
     style="font-size:12.000;fill:url(#linearGradient569);fill-rule:evenodd;stroke:#000000;stroke-width:3.794185;stroke-linecap:round;stroke-linejoin:round;"
     d="M 9.0973440,11.829861 L 9.0973440,125.83075 L 151.15167,125.83075 L 151.15167,11.829861 L 9.0973440,11.829861 z "
     id="path565"
     sodipodi:nodetypes="ccccc" />
  <path
     style="font-size:12.000;fill:none;fill-rule:evenodd;stroke:#000000;stroke-width:7.588369;stroke-linecap:round;stroke-linejoin:round;"
     d="M 9.0973440,65.030241 L 56.448821,11.829891"
     id="path570"
     sodipodi:nodetypes="cc" />
  <path
     style="font-size:12.000;fill:none;fill-rule:evenodd;stroke:#000000;stroke-width:7.588369;stroke-linecap:round;stroke-linejoin:round;"
     d="M 103.80027,11.829891 L 151.15167,65.030241"
     id="path571"
     sodipodi:nodetypes="cc" />
  <path
     style="font-size:12.000;fill:none;fill-rule:evenodd;stroke:#000000;stroke-width:1.011782;"
     d="M 9.0973440,114.65225 L 151.15167,114.65225"
     id="path589" />
  <path
     style="font-size:12.000;fill:none;fill-rule:evenodd;stroke:#000000;stroke-width:1.011782;"
     d="M 9.0973440,122.25225 L 151.15167,122.25225"
     id="path590" />
  <path
     style="font-size:12.000;fill:none;fill-rule:evenodd;stroke:#000000;stroke-width:1.011782;"
     d="M 9.0973440,107.05225 L 151.15167,107.05225"
     id="path591" />
  <path
     style="font-size:12.000000;fill:url(#linearGradient589);fill-rule:evenodd;stroke:#000000;stroke-width:3.7500000;stroke-linecap:round;stroke-linejoin:round;stroke-dasharray:none;"
     d="M 9.0973440,12.042308 L 9.0973440,125.83423 L 151.15167,125.83423 L 151.15167,12.042308 L 9.0973440,12.042308 z "
     id="path594"
     sodipodi:nodetypes="ccccc" />
  <path
     style="font-size:12.000;fill:none;fill-rule:evenodd;stroke:#000000;stroke-width:7.588369;stroke-linecap:round;stroke-linejoin:round;stroke-opacity:1.0000000;"
     d="M 9.0973440,65.030241 L 56.448821,11.829891"
     id="path595"
     sodipodi:nodetypes="cc" />
  <path
     style="font-size:12.000;fill:none;fill-rule:evenodd;stroke:#000000;stroke-width:7.588369;stroke-linecap:round;stroke-linejoin:round;stroke-opacity:1.0000000;"
     d="M 103.80027,11.829891 L 151.15167,65.030241"
     id="path596"
     sodipodi:nodetypes="cc" />
  <path
     style="font-size:12.000;fill:none;fill-rule:evenodd;stroke:#000000;stroke-width:1.011782;"
     d="M 9.0973440,114.65225 L 151.15167,114.65225"
     id="path597" />
  <path
     style="font-size:12.000;fill:none;fill-rule:evenodd;stroke:#000000;stroke-width:1.011782;"
     d="M 9.0973440,122.25225 L 151.15167,122.25225"
     id="path598" />
  <path
     sodipodi:type="arc"
     style="fill-rule:evenodd;stroke:#000000;stroke-width:11.099028;fill:#ffffff;fill-opacity:0.45033112;stroke-dasharray:none;stroke-opacity:1.0000000;"
     id="path832"
     sodipodi:cx="85.039368"
     sodipodi:cy="80.275589"
     sodipodi:rx="63.779526"
     sodipodi:ry="69.094490"
     d="M 148.81889 80.275589 A 63.779526 69.094490 0 1 0 21.259842,80.275589 A 63.779526 69.094490 0 1 0 148.81889 80.275589 z"
     transform="matrix(0.504005,-0.418847,0.124631,0.299084,26.37917,82.58104)" />
  <path
     sodipodi:type="arc"
     style="fill-rule:evenodd;stroke:#000000;stroke-width:11.099032;fill:#ffffff;fill-opacity:0.45033112;stroke-dasharray:none;"
     id="path862"
     sodipodi:cx="85.039368"
     sodipodi:cy="80.275589"
     sodipodi:rx="63.779526"
     sodipodi:ry="69.094490"
     d="M 148.81889 80.275589 A 63.779526 69.094490 0 1 0 21.259842,80.275589 A 63.779526 69.094490 0 1 0 148.81889 80.275589 z"
     transform="matrix(0.396860,0.521494,-0.304151,0.111697,69.91143,17.65760)" />
  <rect
     style="fill:#ffffff;fill-rule:evenodd;stroke:#000000;stroke-width:4.0429883;"
     id="rect853"
     width="110.80375"
     height="54.665489"
     ry="8.6142493"
     x="24.908659"
     y="87.015452" />
  <path
     style="font-size:40.000000;stroke-width:1.0000000pt;font-family:Trek;"
     d="M 101.29923,129.76903 L 101.29923,98.649028 L 108.01923,98.649028 L 108.01923,111.64903 L 120.69923,111.64903 L 120.69923,98.649028 L 127.33923,98.649028 L 127.33923,129.76903 L 120.69923,129.76903 L 120.69923,116.76903 L 108.01923,116.76903 L 108.01923,129.76903 L 101.29923,129.76903 z M 96.459233,98.649028 L 96.459233,104.00903 L 79.259233,104.00903 C 78.165899,104.00903 77.179233,104.32903 76.299233,104.96903 C 75.552566,105.63569 75.179233,106.55569 75.179233,107.72903 C 75.179233,109.00903 75.592566,109.96903 76.419233,110.60903 C 77.139233,111.16903 78.125899,111.44903 79.379233,111.44903 L 89.059233,111.44903 C 91.219233,111.44903 93.165899,112.06236 94.899233,113.28903 C 97.085899,114.91569 98.179233,117.35569 98.179233,120.60903 C 98.179233,123.70236 97.085899,126.12903 94.899233,127.88903 C 93.192566,129.14236 91.245899,129.76903 89.059233,129.76903 L 68.459233,129.76903 L 68.459233,124.44903 L 86.059233,124.44903 C 87.072566,124.44903 88.005899,124.08903 88.859233,123.36903 C 89.712566,122.64903 90.139233,121.72903 90.139233,120.60903 C 90.139233,119.46236 89.712566,118.54236 88.859233,117.84903 C 88.059233,117.12903 87.085899,116.76903 85.939233,116.76903 L 76.179233,116.76903 C 74.019233,116.76903 72.099233,116.16903 70.419233,114.96903 C 68.232566,113.34236 67.139233,110.92903 67.139233,107.72903 C 67.139233,104.52903 68.232566,102.11569 70.419233,100.48903 C 72.045899,99.262361 73.965899,98.649028 76.179233,98.649028 L 96.459233,98.649028 z M 62.299233,98.649028 L 62.299233,104.00903 L 45.099233,104.00903 C 44.005899,104.00903 43.019233,104.32903 42.139233,104.96903 C 41.392566,105.63569 41.019233,106.55569 41.019233,107.72903 C 41.019233,109.00903 41.432566,109.96903 42.259233,110.60903 C 42.979233,111.16903 43.965899,111.44903 45.219233,111.44903 L 54.899233,111.44903 C 57.059233,111.44903 59.005899,112.06236 60.739233,113.28903 C 62.925899,114.91569 64.019233,117.35569 64.019233,120.60903 C 64.019233,123.70236 62.925899,126.12903 60.739233,127.88903 C 59.032566,129.14236 57.085899,129.76903 54.899233,129.76903 L 34.299233,129.76903 L 34.299233,124.44903 L 51.899233,124.44903 C 52.912566,124.44903 53.845899,124.08903 54.699233,123.36903 C 55.552566,122.64903 55.979233,121.72903 55.979233,120.60903 C 55.979233,119.46236 55.552566,118.54236 54.699233,117.84903 C 53.899233,117.12903 52.925899,116.76903 51.779233,116.76903 L 42.019233,116.76903 C 39.859233,116.76903 37.939233,116.16903 36.259233,114.96903 C 34.072566,113.34236 32.979233,110.92903 32.979233,107.72903 C 32.979233,104.52903 34.072566,102.11569 36.259233,100.48903 C 37.885899,99.262361 39.805899,98.649028 42.019233,98.649028 L 62.299233,98.649028 z "
     id="path870" />
</svg>
