<?xml version="1.0" encoding="UTF-8" standalone="no"?>
<!DOCTYPE svg PUBLIC "-//W3C//DTD SVG 20010904//EN"
"http://www.w3.org/TR/2001/REC-SVG-20010904/DTD/svg10.dtd">
<!-- Created with Sodipodi ("http://www.sodipodi.com/") -->
<svg
   id="svg559"
   sodipodi:version="0.32"
   width="128pt"
   height="128pt"
   sodipodi:docname="gnome-fs-ftp.svg"
   sodipodi:docbase="/home/francois/Domus/images/dessin/Xfce/icones/essais/new_folders_2"
   inkscape:version="0.39"
   xmlns="http://www.w3.org/2000/svg"
   xmlns:inkscape="http://www.inkscape.org/namespaces/inkscape"
   xmlns:sodipodi="http://sodipodi.sourceforge.net/DTD/sodipodi-0.dtd"
   xmlns:xlink="http://www.w3.org/1999/xlink"
   xmlns:rdf="http://www.w3.org/1999/02/22-rdf-syntax-ns#"
   xmlns:cc="http://web.resource.org/cc/"
   xmlns:dc="http://purl.org/dc/elements/1.1/">
  <defs
     id="defs561">
    <linearGradient
       id="linearGradient872">
      <stop
         style="stop-color:#ffffff;stop-opacity:1.0000000;"
         offset="0.0000000"
         id="stop873" />
      <stop
         style="stop-color:#9f9f9f;stop-opacity:1.0000000;"
         offset="0.50000000"
         id="stop879" />
      <stop
         style="stop-color:#3f3f3f;stop-opacity:1.0000000;"
         offset="1.0000000"
         id="stop875" />
    </linearGradient>
    <linearGradient
       id="linearGradient866">
      <stop
         style="stop-color:#ffffff;stop-opacity:1.0000000;"
         offset="0.0000000"
         id="stop867" />
      <stop
         style="stop-color:#bfbeb9;stop-opacity:1.0000000;"
         offset="0.21029197"
         id="stop870" />
      <stop
         style="stop-color:#7f7d73;stop-opacity:1.0000000;"
         offset="1.0000000"
         id="stop869" />
    </linearGradient>
    <linearGradient
       id="linearGradient566">
      <stop
         style="stop-color:#ffffff;stop-opacity:1.0000000;"
         offset="0.0000000"
         id="stop567" />
      <stop
         style="stop-color:#bfbfbf;stop-opacity:1.0000000;"
         offset="0.24229629"
         id="stop853" />
      <stop
         style="stop-color:#7f7f7f;stop-opacity:1.0000000;"
         offset="1.0000000"
         id="stop568" />
    </linearGradient>
    <linearGradient
       xlink:href="#linearGradient566"
       id="linearGradient569"
       x1="0.823204"
       y1="0.937499"
       x2="0.265193"
       y2="-7.812555e-3" />
    <linearGradient
       xlink:href="#linearGradient866"
       id="linearGradient589"
       x1="0.44300517"
       y1="0.012698413"
       x2="0.44374999"
       y2="0.57812500"
       spreadMethod="pad" />
    <linearGradient
       xlink:href="#linearGradient872"
       id="linearGradient871"
       x1="0.49481866"
       y1="0.72897196"
       x2="0.49481866"
       y2="0.97196263"
       spreadMethod="reflect" />
  </defs>
  <sodipodi:namedview
     id="base"
     showgrid="true"
     snaptogrid="false"
     gridspacingx="2.000000mm"
     gridspacingy="2.000000mm"
     inkscape:zoom="4.0934854"
     inkscape:cx="63.999999"
     inkscape:cy="51.785462"
     inkscape:window-width="846"
     inkscape:window-height="913"
     inkscape:window-x="0"
     inkscape:window-y="31" />
  <path
     style="fill:url(#linearGradient871);fill-rule:evenodd;stroke:#000000;stroke-width:2.5000000;stroke-dasharray:none;"
     d="M 74.788387,105.69843 C 72.221882,105.69843 70.132137,107.75693 70.132137,110.32343 L 70.132137,136.26093 L -1.6491133,136.26093 C -4.2156177,136.26093 -6.2741133,138.31943 -6.2741133,140.88593 L -6.2741133,147.32343 C -6.2741133,149.88993 -4.2156177,151.94843 -1.6491133,151.94843 L 163.72589,151.94843 C 166.29240,151.94843 168.38214,149.88993 168.38214,147.32343 L 168.38214,140.88593 C 168.38215,138.31943 166.29239,136.26093 163.72589,136.26093 L 85.819637,136.26093 L 85.819637,110.32343 C 85.819637,107.75693 83.761141,105.69843 81.194637,105.69843 L 74.788387,105.69843 z "
     id="path877" />
  <path
     style="font-size:12.000;fill:#000002;fill-rule:evenodd;stroke:none;stroke-width:3.8000;stroke-linecap:round;stroke-linejoin:round;fill-opacity:0.2011;stroke-dasharray:none;"
     d="M 15.861841,69.484931 L 63.213311,16.284581"
     id="path607"
     sodipodi:nodetypes="cc" />
  <path
     style="font-size:12.000;fill:#000002;fill-rule:evenodd;stroke:none;stroke-width:3.8000;stroke-linecap:round;stroke-linejoin:round;fill-opacity:0.2011;stroke-dasharray:none;"
     d="M 110.56467,16.284581 L 157.91617,69.484931"
     id="path608"
     sodipodi:nodetypes="cc" />
  <path
     style="font-size:12.000;fill:#000002;fill-rule:evenodd;stroke:none;stroke-width:3.8000;stroke-linecap:round;stroke-linejoin:round;fill-opacity:0.2011;stroke-dasharray:none;"
     d="M 15.861841,69.484931 L 63.213311,16.284581"
     id="path613"
     sodipodi:nodetypes="cc" />
  <path
     style="font-size:12.000;fill:#000002;fill-rule:evenodd;stroke:none;stroke-width:3.8000;stroke-linecap:round;stroke-linejoin:round;fill-opacity:0.2011;stroke-dasharray:none;"
     d="M 110.56467,16.284581 L 157.91617,69.484931"
     id="path614"
     sodipodi:nodetypes="cc" />
  <path
     style="font-size:12.000;fill:url(#linearGradient569);fill-rule:evenodd;stroke:#000000;stroke-width:3.794185;stroke-linecap:round;stroke-linejoin:round;"
     d="M 9.0973440,11.829861 L 9.0973440,125.83075 L 151.15167,125.83075 L 151.15167,11.829861 L 9.0973440,11.829861 z "
     id="path565"
     sodipodi:nodetypes="ccccc" />
  <path
     style="font-size:12.000;fill:none;fill-rule:evenodd;stroke:#000000;stroke-width:1.011782;"
     d="M 9.0973440,114.65225 L 151.15167,114.65225"
     id="path589" />
  <path
     style="font-size:12.000;fill:none;fill-rule:evenodd;stroke:#000000;stroke-width:1.011782;"
     d="M 9.0973440,122.25225 L 151.15167,122.25225"
     id="path590" />
  <path
     style="font-size:12.000;fill:none;fill-rule:evenodd;stroke:#000000;stroke-width:1.011782;"
     d="M 9.0973440,107.05225 L 151.15167,107.05225"
     id="path591" />
  <path
     style="font-size:12.000000;fill:url(#linearGradient589);fill-rule:evenodd;stroke:#000000;stroke-width:3.7500000;stroke-linecap:round;stroke-linejoin:round;stroke-dasharray:none;"
     d="M 9.0973440,12.042308 L 9.0973440,125.83423 L 151.15167,125.83423 L 151.15167,12.042308 L 9.0973440,12.042308 z "
     id="path594"
     sodipodi:nodetypes="ccccc" />
  <path
     style="font-size:12.000;fill:none;fill-rule:evenodd;stroke:#000000;stroke-width:1.011782;"
     d="M 9.0973440,114.65225 L 151.15167,114.65225"
     id="path597" />
  <path
     style="font-size:12.000;fill:none;fill-rule:evenodd;stroke:#000000;stroke-width:1.011782;"
     d="M 9.0973440,122.25225 L 151.15167,122.25225"
     id="path598" />
  <path
     sodipodi:type="arc"
     style="fill:#ffffff;fill-opacity:0.45033112;fill-rule:evenodd;stroke:#000000;stroke-width:11.099028;stroke-opacity:1.0000000;"
     id="path832"
     sodipodi:cx="85.039368"
     sodipodi:cy="80.275589"
     sodipodi:rx="63.779526"
     sodipodi:ry="69.094490"
     d="M 148.81889 80.275589 A 63.779526 69.094490 0 1 0 21.259842,80.275589 A 63.779526 69.094490 0 1 0 148.81889 80.275589 z"
     transform="matrix(0.504005,-0.418847,0.124631,0.299084,26.37917,75.08104)" />
  <path
     sodipodi:type="arc"
     style="fill:#ffffff;fill-opacity:0.45033112;fill-rule:evenodd;stroke:#000000;stroke-width:11.099032;"
     id="path862"
     sodipodi:cx="85.039368"
     sodipodi:cy="80.275589"
     sodipodi:rx="63.779526"
     sodipodi:ry="69.094490"
     d="M 148.81889 80.275589 A 63.779526 69.094490 0 1 0 21.259842,80.275589 A 63.779526 69.094490 0 1 0 148.81889 80.275589 z"
     transform="matrix(0.396860,0.521494,-0.304151,0.111697,69.91143,10.15760)" />
  <rect
     style="fill:#ffffff;fill-rule:evenodd;stroke:#000000;stroke-width:4.0429883;"
     id="rect853"
     width="110.80375"
     height="54.665489"
     ry="8.6142493"
     x="24.908659"
     y="87.015452" />
  <path
     style="font-size:40.000000;stroke-width:1.0000000pt;font-family:Trek;"
     d="M 103.33041,118.64904 L 103.33041,129.76904 L 96.610408,129.76904 L 96.610408,98.649043 L 115.29041,98.649043 C 118.17041,98.649043 120.45041,99.502373 122.13041,101.20904 C 123.81041,102.88904 124.65041,105.36904 124.65041,108.64904 C 124.65041,111.90237 123.81041,114.38237 122.13041,116.08904 C 120.45041,117.79570 118.17041,118.64904 115.29041,118.64904 L 103.33041,118.64904 z M 103.33041,104.00904 L 103.33041,113.32904 L 112.25041,113.32904 C 113.71707,113.32904 114.91707,112.95570 115.85041,112.20904 C 116.78374,111.43570 117.25041,110.24904 117.25041,108.64904 C 117.25041,107.07570 116.78374,105.91570 115.85041,105.16904 C 114.94374,104.39570 113.74374,104.00904 112.25041,104.00904 L 103.33041,104.00904 z M 66.250408,98.649043 L 94.250408,98.649043 L 94.250408,104.00904 L 83.570408,104.00904 L 83.570408,129.76904 L 76.930408,129.76904 L 76.930408,104.00904 L 66.250408,104.00904 L 66.250408,98.649043 z M 63.050408,104.00904 L 53.050408,104.00904 C 51.503742,104.00904 50.263742,104.18237 49.330408,104.52904 C 48.877075,104.66237 48.477075,104.82237 48.130408,105.00904 C 47.783742,105.19570 47.450408,105.46237 47.130408,105.80904 C 46.250408,106.60904 45.610408,107.59570 45.210408,108.76904 L 44.970408,109.72904 L 44.890408,110.80904 L 44.890408,111.64904 L 63.050408,111.64904 L 63.050408,116.76904 L 44.890408,116.76904 L 44.890408,129.76904 L 38.170408,129.76904 L 38.170408,114.20904 C 38.170408,112.84904 38.210408,111.66237 38.290408,110.64904 C 38.370408,109.60904 38.503742,108.70237 38.690408,107.92904 C 39.250408,105.36904 40.423742,103.27570 42.210408,101.64904 C 43.330408,100.60904 44.690408,99.849047 46.290408,99.369043 C 47.890408,98.889043 49.917075,98.649043 52.370408,98.649043 L 63.050408,98.649043 L 63.050408,104.00904 z "
     id="path920" />
  <metadata
     id="metadata39">
    <rdf:RDF
       id="RDF40">
      <cc:Work
         rdf:about=""
         id="Work41">
        <dc:format
           id="format42">image/svg+xml</dc:format>
        <dc:type
           id="type44"
           rdf:resource="http://purl.org/dc/dcmitype/StillImage" />
      </cc:Work>
    </rdf:RDF>
  </metadata>
</svg>
