<?xml version="1.0" encoding="UTF-8" standalone="no"?>
<!DOCTYPE svg PUBLIC "-//W3C//DTD SVG 20010904//EN"
"http://www.w3.org/TR/2001/REC-SVG-20010904/DTD/svg10.dtd">
<!-- Created with Inkscape (http://www.inkscape.org/) -->
<svg
   id="svg1"
   sodipodi:version="0.32"
   inkscape:version="0.38.1"
   width="48.000000pt"
   height="48.000000pt"
   sodipodi:docbase="/usr/share/icons/Fuzzy/scalable/emblems"
   sodipodi:docname="emblem-danger.svg"
   xmlns="http://www.w3.org/2000/svg"
   xmlns:inkscape="http://www.inkscape.org/namespaces/inkscape"
   xmlns:sodipodi="http://sodipodi.sourceforge.net/DTD/sodipodi-0.dtd"
   xmlns:xlink="http://www.w3.org/1999/xlink">
  <defs
     id="defs3">
    <linearGradient
       id="linearGradient872">
      <stop
         style="stop-color:#eed680;stop-opacity:1.0000000;"
         offset="0.0000000"
         id="stop873" />
      <stop
         style="stop-color:#dfb546;stop-opacity:1.0000000;"
         offset="0.50000000"
         id="stop876" />
      <stop
         style="stop-color:#d1940c;stop-opacity:1.0000000;"
         offset="1.0000000"
         id="stop875" />
    </linearGradient>
    <linearGradient
       id="linearGradient826">
      <stop
         style="stop-color:#aeadae;stop-opacity:1.0000000;"
         offset="0.0000000"
         id="stop827" />
      <stop
         style="stop-color:#fff;stop-opacity:1;"
         offset="1"
         id="stop828" />
    </linearGradient>
    <linearGradient
       xlink:href="#linearGradient826"
       id="linearGradient829"
       x1="0.45937499"
       y1="1.0684931"
       x2="0.45937499"
       y2="-0.11872146" />
    <linearGradient
       xlink:href="#linearGradient833"
       id="linearGradient839"
       x1="0.32499999"
       y1="0.90035588"
       x2="0.50625002"
       y2="0.51601422"
       spreadMethod="reflect" />
    <linearGradient
       id="linearGradient833">
      <stop
         style="stop-color:#a8a9a8;stop-opacity:1.0000000;"
         offset="0.0000000"
         id="stop834" />
      <stop
         style="stop-color:#fff;stop-opacity:1;"
         offset="1"
         id="stop835" />
    </linearGradient>
    <linearGradient
       xlink:href="#linearGradient833"
       id="linearGradient832"
       x1="0.50000000"
       y1="0.98969072"
       x2="0.48124999"
       y2="0.38144329" />
    <linearGradient
       id="linearGradient853">
      <stop
         style="stop-color:#c5d2c8;stop-opacity:1.0000000;"
         offset="0.0000000"
         id="stop856" />
      <stop
         style="stop-color:#a4bca3;stop-opacity:1.0000000;"
         offset="0.46781021"
         id="stop858" />
      <stop
         style="stop-color:#83a67f;stop-opacity:1.0000000;"
         offset="1.0000000"
         id="stop857" />
    </linearGradient>
    <linearGradient
       id="linearGradient851">
      <stop
         style="stop-color:#ff0000;stop-opacity:1.0000000;"
         offset="0.0000000"
         id="stop852" />
      <stop
         style="stop-color:#c70000;stop-opacity:1.0000000;"
         offset="1.0000000"
         id="stop855" />
    </linearGradient>
    <linearGradient
       id="linearGradient566">
      <stop
         style="stop-color:#ffff00;stop-opacity:1.0000000;"
         offset="0.0000000"
         id="stop567" />
      <stop
         style="stop-color:#ffd800;stop-opacity:1.0000000;"
         offset="0.43829629"
         id="stop854" />
      <stop
         style="stop-color:#ffb200;stop-opacity:1.0000000;"
         offset="1.0000000"
         id="stop568" />
    </linearGradient>
    <linearGradient
       id="linearGradient860">
      <stop
         style="stop-color:#ffffff;stop-opacity:1.0000000;"
         offset="0.0000000"
         id="stop861" />
      <stop
         style="stop-color:#ffea7d;stop-opacity:1.0000000;"
         offset="0.25000000"
         id="stop862" />
      <stop
         style="stop-color:#ffbf00;stop-opacity:1.0000;"
         offset="1"
         id="stop863" />
    </linearGradient>
    <linearGradient
       xlink:href="#linearGradient566"
       id="linearGradient569"
       x1="0.48750001"
       y1="0.48387095"
       x2="0.96249998"
       y2="0.48387095"
       spreadMethod="reflect" />
    <linearGradient
       xlink:href="#linearGradient566"
       id="linearGradient589"
       x1="0.44374999"
       y1="0.046875000"
       x2="0.44374999"
       y2="0.57812500"
       spreadMethod="reflect" />
    <linearGradient
       id="linearGradient849">
      <stop
         style="stop-color:#ffc900;stop-opacity:1.0000000;"
         offset="0.0000000"
         id="stop850" />
      <stop
         style="stop-color:#5d5d5c;stop-opacity:1.0000000;"
         offset="1.0000000"
         id="stop851" />
    </linearGradient>
    <linearGradient
       id="linearGradient843">
      <stop
         style="stop-color:#ffffff;stop-opacity:1.0000000;"
         offset="0.0000000"
         id="stop844" />
      <stop
         style="stop-color:#5c5d5c;stop-opacity:1.0000000;"
         offset="1.0000000"
         id="stop845" />
    </linearGradient>
    <linearGradient
       id="linearGradient838">
      <stop
         style="stop-color:#ffd000;stop-opacity:1.0000000;"
         offset="0.0000000"
         id="stop839" />
      <stop
         style="stop-color:#5c5d5c;stop-opacity:1.0000000;"
         offset="1.0000000"
         id="stop840" />
    </linearGradient>
    <linearGradient
       xlink:href="#linearGradient838"
       id="linearGradient841"
       x1="0.35333332"
       y1="0.35135135"
       x2="0.47999999"
       y2="0.049549550" />
    <linearGradient
       xlink:href="#linearGradient843"
       id="linearGradient842"
       x1="0.80165291"
       y1="0.15765765"
       x2="0.43801653"
       y2="0.72522521" />
    <linearGradient
       xlink:href="#linearGradient849"
       id="linearGradient847"
       x1="0.53358209"
       y1="0.50450450"
       x2="0.33208954"
       y2="0.24324325" />
    <radialGradient
       xlink:href="#linearGradient872"
       id="radialGradient853"
       cx="0.32499999"
       cy="0.33021805"
       r="0.52448440"
       fx="0.32187498"
       fy="0.33021802" />
  </defs>
  <sodipodi:namedview
     id="base"
     pagecolor="#ffffff"
     bordercolor="#666666"
     borderopacity="1.0"
     inkscape:pageopacity="0.0"
     inkscape:pageshadow="2"
     inkscape:zoom="14.187500"
     inkscape:cx="24.000000"
     inkscape:cy="26.053113"
     inkscape:window-width="794"
     inkscape:window-height="814"
     showgrid="true"
     snaptogrid="false"
     gridspacingx="1.0000000mm"
     gridspacingy="1.0000000mm"
     inkscape:window-x="0"
     inkscape:window-y="31" />
  <path
     sodipodi:type="arc"
     style="fill-rule:evenodd;stroke:#000000;stroke-width:8.4172817;stroke-dasharray:none;fill:url(#radialGradient853);fill-opacity:1.0000000;stroke-opacity:0.50000000;"
     id="path878"
     sodipodi:cx="79.724411"
     sodipodi:cy="80.275589"
     sodipodi:rx="72.637794"
     sodipodi:ry="72.637794"
     d="M 152.36221 80.275589 A 72.637794 72.637794 0 1 0 7.0866165,80.275589 A 72.637794 72.637794 0 1 0 152.36221 80.275589 z"
     transform="matrix(0.291066,0.000000,0.000000,0.291066,10.62607,3.577669)" />
  <path
     sodipodi:type="arc"
     style="fill-rule:evenodd;stroke:#000000;stroke-width:8.4172817;stroke-dasharray:none;fill:url(#radialGradient853);fill-opacity:1.0000000;"
     id="path870"
     sodipodi:cx="79.724411"
     sodipodi:cy="80.275589"
     sodipodi:rx="72.637794"
     sodipodi:ry="72.637794"
     d="M 152.36221 80.275589 A 72.637794 72.637794 0 1 0 7.0866165,80.275589 A 72.637794 72.637794 0 1 0 152.36221 80.275589 z"
     transform="matrix(0.275135,0.000000,0.000000,0.275135,11.97780,4.938174)" />
  <path
     style="fill:#ffffff;fill-rule:evenodd;stroke:#000000;stroke-width:0.83800137;stroke-linejoin:round;"
     d="M 25.592473,35.345042 C 25.592473,32.969606 27.967911,28.218732 33.906502,28.218732 C 39.845097,28.218732 42.369288,32.975852 42.220533,35.345042 C 42.369288,37.726724 41.032816,43.659071 33.906502,43.659071 C 26.780191,43.659071 25.592473,37.720480 25.592473,35.345042 z "
     id="path871"
     sodipodi:nodetypes="ccccc" />
  <path
     sodipodi:type="arc"
     style="fill-rule:evenodd;stroke:#000000;stroke-width:2.6546549;stroke-dasharray:none;fill:#ffffff;fill-opacity:1.0000000;"
     id="path872"
     sodipodi:cx="67.322838"
     sodipodi:cy="64.330711"
     sodipodi:rx="14.173228"
     sodipodi:ry="17.716536"
     d="M 81.496066 64.330711 A 14.173228 17.716536 0 1 0 53.149610,64.330711 A 14.173228 17.716536 0 1 0 81.496066 64.330711 z"
     transform="matrix(0.335200,0.000000,0.000000,0.341963,19.45658,-0.305593)" />
  <path
     sodipodi:type="arc"
     style="fill-rule:evenodd;stroke:#000000;stroke-width:2.6546549;stroke-dasharray:none;fill:#ffffff;fill-opacity:1.0000000;"
     id="path873"
     sodipodi:cx="67.322838"
     sodipodi:cy="64.330711"
     sodipodi:rx="14.173228"
     sodipodi:ry="17.716536"
     d="M 81.496066 64.330711 A 14.173228 17.716536 0 1 0 53.149610,64.330711 A 14.173228 17.716536 0 1 0 81.496066 64.330711 z"
     transform="matrix(0.335200,0.000000,0.000000,0.342081,3.223115,-0.310946)" />
  <path
     sodipodi:type="arc"
     style="fill-rule:evenodd;stroke:#000000;stroke-width:1.0000000pt;"
     id="path874"
     sodipodi:cx="21.259842"
     sodipodi:cy="18.267717"
     sodipodi:rx="3.5433071"
     sodipodi:ry="3.5433071"
     d="M 24.803149 18.267717 A 3.5433071 3.5433071 0 1 0 17.716535,18.267717 A 3.5433071 3.5433071 0 1 0 24.803149 18.267717 z"
     transform="matrix(0.670403,0.000000,0.000000,0.670403,11.33983,9.614422)" />
  <path
     sodipodi:type="arc"
     style="fill-rule:evenodd;stroke:#000000;stroke-width:1.0000000pt;"
     id="path875"
     sodipodi:cx="21.259842"
     sodipodi:cy="18.267717"
     sodipodi:rx="3.5433071"
     sodipodi:ry="3.5433071"
     d="M 24.803149 18.267717 A 3.5433071 3.5433071 0 1 0 17.716535,18.267717 A 3.5433071 3.5433071 0 1 0 24.803149 18.267717 z"
     transform="matrix(0.670403,0.000000,0.000000,0.670403,27.54889,9.614422)" />
  <path
     style="fill:#d1940c;fill-rule:evenodd;stroke:#000000;stroke-width:2.5000000;stroke-dasharray:none;stroke-opacity:0.50000000;"
     d="M 17.640143,27.578331 C 12.522526,28.747245 18.577643,41.203331 18.577643,41.203331 C 18.577643,41.203330 13.334985,28.421951 9.6713932,30.859581 C 6.0078018,33.297210 14.921393,43.640831 14.921393,43.640831 C 14.921393,43.640828 8.9145262,35.844084 4.4526432,38.609581 C -0.0092399282,41.375078 18.081002,58.204749 25.077643,50.734581 C 25.077643,50.734580 27.585788,48.343596 29.546393,45.578331 C 31.353798,49.266051 35.452643,53.109581 35.452643,53.109581 C 42.449283,60.579750 60.570772,43.750074 56.108893,40.984581 C 51.647009,38.219083 45.640143,46.015833 45.640143,46.015831 C 45.640143,46.015831 54.553740,35.672209 50.890143,33.234581 C 47.226552,30.796951 41.983892,43.578334 41.983893,43.578331 C 41.983893,43.578331 48.007761,31.122245 42.890143,29.953331 C 37.772523,28.784417 37.608894,47.390830 37.608893,47.390831 C 37.608893,47.390831 36.545166,38.275020 31.640143,39.453331 C 31.441720,38.652910 31.038226,37.929953 30.077643,37.422081 C 24.118981,34.271671 22.952643,45.015831 22.952643,45.015831 C 22.952643,45.015833 22.757761,26.409418 17.640143,27.578331 z "
     id="path882" />
  <path
     style="fill:#d1940c;fill-rule:evenodd;stroke:#000000;stroke-width:1.2570020;"
     d="M 25.004094,50.635861 C 25.004094,50.635861 35.954788,40.472396 29.996124,37.321980 C 24.037461,34.171573 22.854253,44.919984 22.854253,44.919984 C 22.854253,44.919984 22.683236,26.331212 17.565618,27.500125 C 12.448001,28.669039 18.492173,41.113836 18.492173,41.113836 C 18.492173,41.113836 13.246292,28.341170 9.5827002,30.778800 C 5.9191090,33.216429 14.828581,43.551464 14.828581,43.551464 C 14.828581,43.551464 8.8271625,35.753860 4.3652795,38.519357 C -0.096603474,41.284852 18.007453,58.106029 25.004094,50.635861 z "
     id="path876"
     sodipodi:nodetypes="ccccccccc" />
  <path
     style="fill:#d1940c;fill-rule:evenodd;stroke:#000000;stroke-width:1.2570020;"
     d="M 35.376298,53.011299 C 35.376298,53.011299 24.425603,42.847835 30.384268,39.697419 C 36.342932,36.547012 37.526140,47.295424 37.526140,47.295424 C 37.526140,47.295424 37.697156,28.706651 42.814776,29.875565 C 47.932392,31.044478 41.888221,43.489275 41.888221,43.489275 C 41.888221,43.489275 47.134099,30.716610 50.797690,33.154240 C 54.461285,35.591867 45.551812,45.926904 45.551812,45.926904 C 45.551812,45.926904 51.553229,38.129297 56.015113,40.894795 C 60.476994,43.660291 42.372938,60.481468 35.376298,53.011299 z "
     id="path877"
     sodipodi:nodetypes="ccccccccc" />
</svg>
