<?xml version="1.0" encoding="UTF-8" standalone="no"?>
<!DOCTYPE svg PUBLIC "-//W3C//DTD SVG 20010904//EN"
"http://www.w3.org/TR/2001/REC-SVG-20010904/DTD/svg10.dtd">
<!-- Created with Inkscape (http://www.inkscape.org/) -->
<svg
   id="svg1"
   sodipodi:version="0.32"
   inkscape:version="0.38.1"
   width="48.000000pt"
   height="48.000000pt"
   sodipodi:docbase="/usr/share/icons/Fuzzy/scalable/emblems"
   sodipodi:docname="emblem-noread.svg"
   xmlns="http://www.w3.org/2000/svg"
   xmlns:inkscape="http://www.inkscape.org/namespaces/inkscape"
   xmlns:sodipodi="http://sodipodi.sourceforge.net/DTD/sodipodi-0.dtd"
   xmlns:xlink="http://www.w3.org/1999/xlink">
  <defs
     id="defs3">
    <linearGradient
       id="linearGradient861">
      <stop
         style="stop-color:#eed680;stop-opacity:1.0000000;"
         offset="0.0000000"
         id="stop864" />
      <stop
         style="stop-color:#dfb546;stop-opacity:1.0000000;"
         offset="0.50000000"
         id="stop867" />
      <stop
         style="stop-color:#d1940c;stop-opacity:1.0000000;"
         offset="1.0000000"
         id="stop866" />
    </linearGradient>
    <linearGradient
       id="linearGradient853">
      <stop
         style="stop-color:#c5d2c8;stop-opacity:1.0000000;"
         offset="0.0000000"
         id="stop856" />
      <stop
         style="stop-color:#a4bca3;stop-opacity:1.0000000;"
         offset="0.46781021"
         id="stop858" />
      <stop
         style="stop-color:#83a67f;stop-opacity:1.0000000;"
         offset="1.0000000"
         id="stop857" />
    </linearGradient>
    <linearGradient
       id="linearGradient851">
      <stop
         style="stop-color:#ff0000;stop-opacity:1.0000000;"
         offset="0.0000000"
         id="stop852" />
      <stop
         style="stop-color:#c70000;stop-opacity:1.0000000;"
         offset="1.0000000"
         id="stop855" />
    </linearGradient>
    <linearGradient
       id="linearGradient566">
      <stop
         style="stop-color:#ffff00;stop-opacity:1.0000000;"
         offset="0.0000000"
         id="stop567" />
      <stop
         style="stop-color:#ffd800;stop-opacity:1.0000000;"
         offset="0.43829629"
         id="stop854" />
      <stop
         style="stop-color:#ffb200;stop-opacity:1.0000000;"
         offset="1.0000000"
         id="stop568" />
    </linearGradient>
    <linearGradient
       id="linearGradient860">
      <stop
         style="stop-color:#ffffff;stop-opacity:1.0000000;"
         offset="0.0000000"
         id="stop861" />
      <stop
         style="stop-color:#ffea7d;stop-opacity:1.0000000;"
         offset="0.25000000"
         id="stop862" />
      <stop
         style="stop-color:#ffbf00;stop-opacity:1.0000;"
         offset="1"
         id="stop863" />
    </linearGradient>
    <linearGradient
       xlink:href="#linearGradient566"
       id="linearGradient569"
       x1="0.48750001"
       y1="0.48387095"
       x2="0.96249998"
       y2="0.48387095"
       spreadMethod="reflect" />
    <linearGradient
       xlink:href="#linearGradient566"
       id="linearGradient589"
       x1="0.44374999"
       y1="0.046875000"
       x2="0.44374999"
       y2="0.57812500"
       spreadMethod="reflect" />
    <linearGradient
       id="linearGradient849">
      <stop
         style="stop-color:#ffc900;stop-opacity:1.0000000;"
         offset="0.0000000"
         id="stop850" />
      <stop
         style="stop-color:#5d5d5c;stop-opacity:1.0000000;"
         offset="1.0000000"
         id="stop851" />
    </linearGradient>
    <linearGradient
       id="linearGradient843">
      <stop
         style="stop-color:#ffffff;stop-opacity:1.0000000;"
         offset="0.0000000"
         id="stop844" />
      <stop
         style="stop-color:#5c5d5c;stop-opacity:1.0000000;"
         offset="1.0000000"
         id="stop845" />
    </linearGradient>
    <linearGradient
       id="linearGradient838">
      <stop
         style="stop-color:#ffd000;stop-opacity:1.0000000;"
         offset="0.0000000"
         id="stop839" />
      <stop
         style="stop-color:#5c5d5c;stop-opacity:1.0000000;"
         offset="1.0000000"
         id="stop840" />
    </linearGradient>
    <linearGradient
       xlink:href="#linearGradient838"
       id="linearGradient841"
       x1="0.35333332"
       y1="0.35135135"
       x2="0.47999999"
       y2="0.049549550" />
    <linearGradient
       xlink:href="#linearGradient843"
       id="linearGradient842"
       x1="0.80165291"
       y1="0.15765765"
       x2="0.43801653"
       y2="0.72522521" />
    <linearGradient
       xlink:href="#linearGradient849"
       id="linearGradient847"
       x1="0.53358209"
       y1="0.50450450"
       x2="0.33208954"
       y2="0.24324325" />
    <radialGradient
       xlink:href="#linearGradient861"
       id="radialGradient853"
       cx="0.32499999"
       cy="0.33021805"
       r="0.52448440"
       fx="0.32187498"
       fy="0.33021802" />
  </defs>
  <sodipodi:namedview
     id="base"
     pagecolor="#ffffff"
     bordercolor="#666666"
     borderopacity="1.0"
     inkscape:pageopacity="0.0"
     inkscape:pageshadow="2"
     inkscape:zoom="10.194123"
     inkscape:cx="24.000000"
     inkscape:cy="23.999998"
     inkscape:window-width="752"
     inkscape:window-height="816"
     showgrid="true"
     snaptogrid="false"
     gridspacingx="1.0000000mm"
     gridspacingy="1.0000000mm"
     inkscape:window-x="0"
     inkscape:window-y="31" />
  <path
     style="fill:#d1940c;fill-rule:evenodd;stroke:#000000;stroke-width:3.1250000;stroke-dasharray:none;stroke-opacity:0.50000000;"
     d="M 2.7053903,24.936885 C 2.7053903,24.936885 0.70314761,38.032798 7.7334876,36.213961 C 14.763820,34.395118 8.5667631,27.925572 8.5667631,27.925572 C 8.5667631,27.925572 17.555157,40.567476 20.779878,35.921270 C 24.004601,31.275063 14.802392,27.787919 14.802392,27.787919 C 14.802392,27.787919 28.251890,34.145593 29.398071,29.545269 C 30.544251,24.944946 15.948573,23.187596 15.948573,23.187596 C 15.948573,23.187596 26.387165,25.036717 27.930702,19.595799 C 29.829713,14.130655 2.8505471,13.910782 2.7053903,24.936885 z "
     id="path866"
     sodipodi:nodetypes="ccccccccc" />
  <path
     style="fill:#d1940c;fill-rule:evenodd;stroke:#000000;stroke-width:3.1250000;stroke-dasharray:none;stroke-opacity:0.50000000;"
     d="M 57.127291,24.936885 C 57.127291,24.936885 59.129536,38.032798 52.099196,36.213961 C 45.068862,34.395118 51.265919,27.925572 51.265919,27.925572 C 51.265919,27.925572 42.277527,40.567476 39.052802,35.921270 C 35.828082,31.275063 45.030289,27.787919 45.030289,27.787919 C 45.030289,27.787919 31.580793,34.145593 30.434612,29.545269 C 29.288431,24.944946 43.884111,23.187596 43.884111,23.187596 C 43.884111,23.187596 33.445517,25.036717 31.901980,19.595799 C 30.002969,14.130655 56.982136,13.910782 57.127291,24.936885 z "
     id="path865"
     sodipodi:nodetypes="ccccccccc" />
  <path
     sodipodi:type="arc"
     style="fill-rule:evenodd;stroke:#000000;stroke-width:16.294660;stroke-dasharray:none;fill:url(#radialGradient853);fill-opacity:1.0000000;stroke-opacity:0.50000000;"
     id="path868"
     sodipodi:cx="79.724411"
     sodipodi:cy="80.275589"
     sodipodi:rx="72.637794"
     sodipodi:ry="72.637794"
     d="M 152.36221 80.275589 A 72.637794 72.637794 0 1 0 7.0866165,80.275589 A 72.637794 72.637794 0 1 0 152.36221 80.275589 z"
     transform="matrix(0.302127,0.000000,0.000000,0.302127,6.038287,5.651220)" />
  <path
     sodipodi:type="arc"
     style="fill-rule:evenodd;stroke:#000000;stroke-width:8.1473298;stroke-dasharray:none;fill:url(#radialGradient853);fill-opacity:1.0000000;"
     id="path852"
     sodipodi:cx="79.724411"
     sodipodi:cy="80.275589"
     sodipodi:rx="72.637794"
     sodipodi:ry="72.637794"
     d="M 152.36221 80.275589 A 72.637794 72.637794 0 1 0 7.0866165,80.275589 A 72.637794 72.637794 0 1 0 152.36221 80.275589 z"
     transform="matrix(0.296425,0.000000,0.000000,0.296425,6.451036,6.150873)" />
  <path
     style="fill-rule:evenodd;stroke:#000000;stroke-width:0.36113884pt;"
     d="M 8.1627028,18.429923 C 8.1627028,18.429923 23.987820,18.429923 29.916341,18.429923 C 35.844862,18.429923 51.669978,18.429923 51.669978,18.429923 C 51.669978,18.429923 54.229233,26.107678 54.229233,26.107678 C 49.110728,29.946555 46.551479,29.946555 41.432974,31.226180 C 32.475592,32.505806 31.195967,32.505806 29.916341,32.505806 C 28.636715,32.505806 27.357090,32.505806 18.399709,31.226180 C 12.853020,30.435393 10.721955,29.946555 5.6034510,26.107678 C 6.0299932,24.828051 7.7361608,19.709548 8.1627028,18.429923 z "
     id="path859"
     sodipodi:nodetypes="ccccccccc" />
  <path
     style="fill:#ffffff;fill-rule:evenodd;stroke:#000000;stroke-width:0.65908235;stroke-linejoin:round;"
     d="M 20.008875,41.024663 C 20.008875,41.024663 25.433126,39.939814 30.198745,40.506357 C 35.196777,39.939814 40.621030,41.024663 40.621030,41.024663 C 40.621030,41.024663 35.196777,43.194364 29.772526,42.109514 C 24.348275,43.194364 20.008875,41.024663 20.008875,41.024663 z "
     id="path871"
     sodipodi:nodetypes="ccccc" />
  <path
     style="fill:#d1940c;fill-rule:evenodd;stroke:#000000;stroke-width:1.3542707;"
     d="M 2.7053903,24.936885 C 2.7053903,24.936885 0.70314761,38.032798 7.7334876,36.213961 C 14.763820,34.395118 8.5667631,27.925572 8.5667631,27.925572 C 8.5667631,27.925572 17.555157,40.567476 20.779878,35.921270 C 24.004601,31.275063 14.802392,27.787919 14.802392,27.787919 C 14.802392,27.787919 28.251890,34.145593 29.398071,29.545269 C 30.544251,24.944946 15.948573,23.187596 15.948573,23.187596 C 15.948573,23.187596 26.387165,25.036717 27.930702,19.595799 C 29.829713,14.130655 2.8505471,13.910782 2.7053903,24.936885 z "
     id="path876"
     sodipodi:nodetypes="ccccccccc" />
  <path
     style="fill:#d1940c;fill-rule:evenodd;stroke:#000000;stroke-width:1.3542707;"
     d="M 57.127291,24.936885 C 57.127291,24.936885 59.129536,38.032798 52.099196,36.213961 C 45.068862,34.395118 51.265919,27.925572 51.265919,27.925572 C 51.265919,27.925572 42.277527,40.567476 39.052802,35.921270 C 35.828082,31.275063 45.030289,27.787919 45.030289,27.787919 C 45.030289,27.787919 31.580793,34.145593 30.434612,29.545269 C 29.288431,24.944946 43.884111,23.187596 43.884111,23.187596 C 43.884111,23.187596 33.445517,25.036717 31.901980,19.595799 C 30.002969,14.130655 56.982136,13.910782 57.127291,24.936885 z "
     id="path861"
     sodipodi:nodetypes="ccccccccc" />
</svg>
