<?xml version="1.0" encoding="UTF-8" standalone="no"?>
<!DOCTYPE svg PUBLIC "-//W3C//DTD SVG 20010904//EN"
"http://www.w3.org/TR/2001/REC-SVG-20010904/DTD/svg10.dtd">
<!-- Created with Inkscape (http://www.inkscape.org/) -->
<svg
   id="svg1"
   sodipodi:version="0.32"
   inkscape:version="0.38.1"
   width="48.000000pt"
   height="48.000000pt"
   sodipodi:docbase="/usr/share/icons/Fuzzy/scalable/emblems"
   sodipodi:docname="emblem-sound.svg"
   xmlns="http://www.w3.org/2000/svg"
   xmlns:inkscape="http://www.inkscape.org/namespaces/inkscape"
   xmlns:sodipodi="http://sodipodi.sourceforge.net/DTD/sodipodi-0.dtd"
   xmlns:xlink="http://www.w3.org/1999/xlink">
  <defs
     id="defs3">
    <linearGradient
       id="linearGradient833">
      <stop
         style="stop-color:#a8a9a8;stop-opacity:1.0000000;"
         offset="0.0000000"
         id="stop834" />
      <stop
         style="stop-color:#fff;stop-opacity:1;"
         offset="1"
         id="stop835" />
    </linearGradient>
    <linearGradient
       id="linearGradient873">
      <stop
         style="stop-color:#eed680;stop-opacity:1.0000000;"
         offset="0.0000000"
         id="stop874" />
      <stop
         style="stop-color:#dfb546;stop-opacity:1.0000000;"
         offset="0.50000000"
         id="stop877" />
      <stop
         style="stop-color:#d1940c;stop-opacity:1.0000000;"
         offset="1.0000000"
         id="stop876" />
    </linearGradient>
    <linearGradient
       id="linearGradient826">
      <stop
         style="stop-color:#aeadae;stop-opacity:1.0000000;"
         offset="0.0000000"
         id="stop827" />
      <stop
         style="stop-color:#fff;stop-opacity:1;"
         offset="1"
         id="stop828" />
    </linearGradient>
    <linearGradient
       xlink:href="#linearGradient851"
       id="linearGradient829"
       x1="1.4896938e-16"
       y1="0.50000000"
       x2="1.0000000"
       y2="0.50000000" />
    <linearGradient
       id="linearGradient853">
      <stop
         style="stop-color:#c5d2c8;stop-opacity:1.0000000;"
         offset="0.0000000"
         id="stop856" />
      <stop
         style="stop-color:#a4bca3;stop-opacity:1.0000000;"
         offset="0.46781021"
         id="stop858" />
      <stop
         style="stop-color:#83a67f;stop-opacity:1.0000000;"
         offset="1.0000000"
         id="stop857" />
    </linearGradient>
    <linearGradient
       id="linearGradient851">
      <stop
         style="stop-color:#ff0000;stop-opacity:1.0000000;"
         offset="0.0000000"
         id="stop852" />
      <stop
         style="stop-color:#c70000;stop-opacity:1.0000000;"
         offset="1.0000000"
         id="stop855" />
    </linearGradient>
    <linearGradient
       id="linearGradient566">
      <stop
         style="stop-color:#ffff00;stop-opacity:1.0000000;"
         offset="0.0000000"
         id="stop567" />
      <stop
         style="stop-color:#ffd800;stop-opacity:1.0000000;"
         offset="0.43829629"
         id="stop854" />
      <stop
         style="stop-color:#ffb200;stop-opacity:1.0000000;"
         offset="1.0000000"
         id="stop568" />
    </linearGradient>
    <linearGradient
       id="linearGradient860">
      <stop
         style="stop-color:#ffffff;stop-opacity:1.0000000;"
         offset="0.0000000"
         id="stop861" />
      <stop
         style="stop-color:#ffea7d;stop-opacity:1.0000000;"
         offset="0.25000000"
         id="stop862" />
      <stop
         style="stop-color:#ffbf00;stop-opacity:1.0000;"
         offset="1"
         id="stop863" />
    </linearGradient>
    <linearGradient
       xlink:href="#linearGradient566"
       id="linearGradient569"
       x1="0.48750001"
       y1="0.48387095"
       x2="0.96249998"
       y2="0.48387095"
       spreadMethod="reflect" />
    <linearGradient
       xlink:href="#linearGradient566"
       id="linearGradient589"
       x1="0.44374999"
       y1="0.046875000"
       x2="0.44374999"
       y2="0.57812500"
       spreadMethod="reflect" />
    <linearGradient
       id="linearGradient849">
      <stop
         style="stop-color:#ffc900;stop-opacity:1.0000000;"
         offset="0.0000000"
         id="stop850" />
      <stop
         style="stop-color:#5d5d5c;stop-opacity:1.0000000;"
         offset="1.0000000"
         id="stop851" />
    </linearGradient>
    <linearGradient
       id="linearGradient843">
      <stop
         style="stop-color:#ffffff;stop-opacity:1.0000000;"
         offset="0.0000000"
         id="stop844" />
      <stop
         style="stop-color:#5c5d5c;stop-opacity:1.0000000;"
         offset="1.0000000"
         id="stop845" />
    </linearGradient>
    <linearGradient
       id="linearGradient838">
      <stop
         style="stop-color:#ffd000;stop-opacity:1.0000000;"
         offset="0.0000000"
         id="stop839" />
      <stop
         style="stop-color:#5c5d5c;stop-opacity:1.0000000;"
         offset="1.0000000"
         id="stop840" />
    </linearGradient>
    <linearGradient
       xlink:href="#linearGradient838"
       id="linearGradient841"
       x1="0.35333332"
       y1="0.35135135"
       x2="0.47999999"
       y2="0.049549550" />
    <linearGradient
       xlink:href="#linearGradient843"
       id="linearGradient842"
       x1="0.80165291"
       y1="0.15765765"
       x2="0.43801653"
       y2="0.72522521" />
    <linearGradient
       xlink:href="#linearGradient849"
       id="linearGradient847"
       x1="0.53358209"
       y1="0.50450450"
       x2="0.33208954"
       y2="0.24324325" />
    <radialGradient
       xlink:href="#linearGradient873"
       id="radialGradient853"
       cx="0.32499999"
       cy="0.33021805"
       r="0.52448440"
       fx="0.32187498"
       fy="0.33021802" />
    <linearGradient
       xlink:href="#linearGradient851"
       id="linearGradient839"
       x1="4.9365080e-18"
       y1="0.50000000"
       x2="1.0000000"
       y2="0.50000000" />
    <linearGradient
       xlink:href="#linearGradient851"
       id="linearGradient832"
       x1="9.8662398e-17"
       y1="0.50000000"
       x2="1.0000000"
       y2="0.50000000" />
  </defs>
  <sodipodi:namedview
     id="base"
     pagecolor="#ffffff"
     bordercolor="#666666"
     borderopacity="1.0"
     inkscape:pageopacity="0.0"
     inkscape:pageshadow="2"
     inkscape:zoom="10.444556"
     inkscape:cx="24.253134"
     inkscape:cy="23.729198"
     inkscape:window-width="769"
     inkscape:window-height="810"
     showgrid="true"
     snaptogrid="false"
     gridspacingx="1.0000000mm"
     gridspacingy="1.0000000mm"
     inkscape:window-x="21"
     inkscape:window-y="31" />
  <path
     style="fill:none;fill-rule:evenodd;stroke:#000000;stroke-width:3.7500000;stroke-dasharray:none;stroke-opacity:0.50000000;"
     d="M 53.261725,31.452422 C 53.261725,44.289662 6.7499771,44.289662 6.7499771,31.452422 C 6.7499771,18.615178 17.168608,8.1965475 30.005850,8.1965475 C 42.843094,8.1965475 53.261725,18.615178 53.261725,31.452422 z "
     id="path882"
     sodipodi:nodetypes="cccc" />
  <path
     sodipodi:type="arc"
     style="fill-rule:evenodd;stroke:#000000;stroke-width:9.8047931;stroke-dasharray:none;fill:none;fill-opacity:1.0000000;stroke-opacity:0.50000000;"
     id="path880"
     sodipodi:cx="30.118111"
     sodipodi:cy="46.614174"
     sodipodi:rx="23.031496"
     sodipodi:ry="28.346457"
     d="M 53.149607 46.614174 A 23.031496 28.346457 0 1 0 7.0866146,46.614174 A 23.031496 28.346457 0 1 0 53.149607 46.614174 z"
     transform="matrix(0.342473,0.000000,0.000000,0.342473,38.34601,15.57100)" />
  <path
     sodipodi:type="arc"
     style="fill-rule:evenodd;stroke:#000000;stroke-width:9.8047931;stroke-dasharray:none;fill:url(#linearGradient829);fill-opacity:1.0000000;stroke-opacity:0.50000000;"
     id="path881"
     sodipodi:cx="30.118111"
     sodipodi:cy="46.614174"
     sodipodi:rx="23.031496"
     sodipodi:ry="28.346457"
     d="M 53.149607 46.614174 A 23.031496 28.346457 0 1 0 7.0866146,46.614174 A 23.031496 28.346457 0 1 0 53.149607 46.614174 z"
     transform="matrix(0.342473,0.000000,0.000000,0.342473,1.197255,15.68189)" />
  <path
     sodipodi:type="arc"
     style="fill-rule:evenodd;stroke:#000000;stroke-width:18.120406;stroke-dasharray:none;fill:url(#radialGradient853);fill-opacity:1.0000000;stroke-opacity:0.50000000;"
     id="path878"
     sodipodi:cx="79.724411"
     sodipodi:cy="80.275589"
     sodipodi:rx="72.637794"
     sodipodi:ry="72.637794"
     d="M 152.36221 80.275589 A 72.637794 72.637794 0 1 0 7.0866165,80.275589 A 72.637794 72.637794 0 1 0 152.36221 80.275589 z"
     transform="matrix(0.258551,0.000000,0.000000,0.258551,9.314645,10.77557)" />
  <path
     style="fill:none;fill-rule:evenodd;stroke:#000000;stroke-width:1.6985279;"
     d="M 53.261725,31.452422 C 53.261725,44.289662 6.7499771,44.289662 6.7499771,31.452422 C 6.7499771,18.615178 17.168608,8.1965475 30.005850,8.1965475 C 42.843094,8.1965475 53.261725,18.615178 53.261725,31.452422 z "
     id="path879"
     sodipodi:nodetypes="cccc" />
  <path
     sodipodi:type="arc"
     style="fill-rule:evenodd;stroke:#000000;stroke-width:3.7500000;stroke-dasharray:none;fill:url(#linearGradient832);fill-opacity:1.0000000;"
     id="path877"
     sodipodi:cx="30.118111"
     sodipodi:cy="46.614174"
     sodipodi:rx="23.031496"
     sodipodi:ry="28.346457"
     d="M 53.149607 46.614174 A 23.031496 28.346457 0 1 0 7.0866146,46.614174 A 23.031496 28.346457 0 1 0 53.149607 46.614174 z"
     transform="matrix(0.339706,0.000000,0.000000,0.339706,38.51617,15.77211)" />
  <path
     sodipodi:type="arc"
     style="fill-rule:evenodd;stroke:#000000;stroke-width:3.7500000;stroke-dasharray:none;fill:url(#linearGradient839);fill-opacity:1.0000000;"
     id="path876"
     sodipodi:cx="30.118111"
     sodipodi:cy="46.614174"
     sodipodi:rx="23.031496"
     sodipodi:ry="28.346457"
     d="M 53.149607 46.614174 A 23.031496 28.346457 0 1 0 7.0866146,46.614174 A 23.031496 28.346457 0 1 0 53.149607 46.614174 z"
     transform="matrix(0.339706,0.000000,0.000000,0.339706,1.152598,15.65243)" />
  <path
     sodipodi:type="arc"
     style="fill-rule:evenodd;stroke:#000000;stroke-width:9.0602032;stroke-dasharray:none;fill:url(#radialGradient853);fill-opacity:1.0000000;"
     id="path870"
     sodipodi:cx="79.724411"
     sodipodi:cy="80.275589"
     sodipodi:rx="72.637794"
     sodipodi:ry="72.637794"
     d="M 152.36221 80.275589 A 72.637794 72.637794 0 1 0 7.0866165,80.275589 A 72.637794 72.637794 0 1 0 152.36221 80.275589 z"
     transform="matrix(0.255671,0.000000,0.000000,0.255671,9.622612,10.92829)" />
  <path
     style="fill:#ffffff;fill-rule:evenodd;stroke:#000000;stroke-width:0.77871954;stroke-linejoin:round;"
     d="M 17.721136,38.074623 C 17.721136,38.074623 24.343317,39.178317 29.861803,39.178317 C 35.380289,39.178317 42.002469,38.074623 42.002469,38.074623 C 42.002469,38.074623 36.483987,43.593108 29.861803,43.593108 C 23.239620,43.593108 17.721136,38.074623 17.721136,38.074623 z "
     id="path871"
     sodipodi:nodetypes="ccccc" />
  <path
     sodipodi:type="arc"
     style="fill-rule:evenodd;stroke:#000000;stroke-width:2.6546549;stroke-dasharray:none;fill:#ffffff;fill-opacity:1.0000000;"
     id="path872"
     sodipodi:cx="67.322838"
     sodipodi:cy="64.330711"
     sodipodi:rx="14.173228"
     sodipodi:ry="17.716536"
     d="M 81.496066 64.330711 A 14.173228 17.716536 0 1 0 53.149610,64.330711 A 14.173228 17.716536 0 1 0 81.496066 64.330711 z"
     transform="matrix(0.311489,0.000000,0.000000,0.276252,16.57232,8.609213)" />
  <path
     sodipodi:type="arc"
     style="fill-rule:evenodd;stroke:#000000;stroke-width:2.6546549;stroke-dasharray:none;fill:#ffffff;fill-opacity:1.0000000;"
     id="path873"
     sodipodi:cx="67.322838"
     sodipodi:cy="64.330711"
     sodipodi:rx="14.173228"
     sodipodi:ry="17.716536"
     d="M 81.496066 64.330711 A 14.173228 17.716536 0 1 0 53.149610,64.330711 A 14.173228 17.716536 0 1 0 81.496066 64.330711 z"
     transform="matrix(0.311489,0.000000,0.000000,0.276252,1.487245,8.831065)" />
  <path
     sodipodi:type="arc"
     style="fill-rule:evenodd;stroke:#000000;stroke-width:1.0000000pt;"
     id="path874"
     sodipodi:cx="21.259842"
     sodipodi:cy="18.267717"
     sodipodi:rx="3.5433071"
     sodipodi:ry="3.5433071"
     d="M 24.803149 18.267717 A 3.5433071 3.5433071 0 1 0 17.716535,18.267717 A 3.5433071 3.5433071 0 1 0 24.803149 18.267717 z"
     transform="matrix(0.622977,0.000000,0.000000,0.622977,9.419132,16.76679)" />
  <path
     sodipodi:type="arc"
     style="fill-rule:evenodd;stroke:#000000;stroke-width:1.0000000pt;"
     id="path875"
     sodipodi:cx="21.259842"
     sodipodi:cy="18.267717"
     sodipodi:rx="3.5433071"
     sodipodi:ry="3.5433071"
     d="M 24.803149 18.267717 A 3.5433071 3.5433071 0 1 0 17.716535,18.267717 A 3.5433071 3.5433071 0 1 0 24.803149 18.267717 z"
     transform="matrix(0.622977,0.000000,0.000000,0.622977,24.48153,16.37743)" />
</svg>
