<?xml version="1.0" encoding="UTF-8" standalone="no"?>
<!DOCTYPE svg PUBLIC "-//W3C//DTD SVG 20010904//EN"
"http://www.w3.org/TR/2001/REC-SVG-20010904/DTD/svg10.dtd">
<!-- Created with Inkscape (http://www.inkscape.org/) -->
<svg
   id="svg1"
   sodipodi:version="0.32"
   inkscape:version="0.38.1"
   width="128.00000pt"
   height="128.00000pt"
   sodipodi:docbase="/usr/share/icons/Fuzzy/scalable/mimetypes"
   sodipodi:docname="gnome-mime-application-ogg.svg"
   xmlns="http://www.w3.org/2000/svg"
   xmlns:inkscape="http://www.inkscape.org/namespaces/inkscape"
   xmlns:sodipodi="http://sodipodi.sourceforge.net/DTD/sodipodi-0.dtd"
   xmlns:xlink="http://www.w3.org/1999/xlink">
  <defs
     id="defs3">
    <linearGradient
       id="linearGradient839">
      <stop
         style="stop-color:#46a046;stop-opacity:1.0000000;"
         offset="0.0000000"
         id="stop840" />
      <stop
         style="stop-color:#df421e;stop-opacity:1.0000000;"
         offset="0.39364964"
         id="stop841" />
      <stop
         style="stop-color:#ada7c8;stop-opacity:1.0000000;"
         offset="0.72036445"
         id="stop842" />
      <stop
         style="stop-color:#eed680;stop-opacity:1.0000000;"
         offset="1.0000000"
         id="stop843" />
    </linearGradient>
    <linearGradient
       xlink:href="#linearGradient839"
       id="linearGradient836"
       x1="1.3267924e-17"
       y1="0.50000000"
       x2="1.0000000"
       y2="0.50000000" />
  </defs>
  <sodipodi:namedview
     id="base"
     pagecolor="#ffffff"
     bordercolor="#666666"
     borderopacity="1.0"
     inkscape:pageopacity="0.0"
     inkscape:pageshadow="2"
     inkscape:zoom="5.0234375"
     inkscape:cx="64.000000"
     inkscape:cy="64.000000"
     inkscape:window-width="751"
     inkscape:window-height="909"
     showgrid="true"
     snaptogrid="false"
     gridspacingx="1.0000000mm"
     gridspacingy="1.0000000mm"
     inkscape:window-x="0"
     inkscape:window-y="31" />
  <rect
     style="fill:none;fill-rule:evenodd;stroke:#000000;stroke-width:11.250000;stroke-dasharray:none;stroke-opacity:0.50000000;stroke-linejoin:round;"
     id="rect834"
     width="128.25159"
     height="145.27559"
     x="16.993958"
     y="7.7354569"
     ry="22.892691" />
  <rect
     style="fill:#ffffff;fill-rule:evenodd;stroke:#000000;stroke-width:6.2500000;stroke-dasharray:none;"
     id="rect828"
     width="128.25158"
     height="145.27559"
     x="17.091653"
     y="7.6377954"
     ry="22.892691" />
  <path
     style="fill:#4b6983;fill-rule:evenodd;stroke:#000000;stroke-width:1.5059674;stroke-linejoin:round;"
     d="M 89.725711,30.433362 L 74.778985,94.455805 L 104.65881,79.520341 C 107.41966,77.077142 110.92444,76.441725 112.63525,70.717991 C 114.25030,65.314633 113.28001,62.195194 111.06214,58.175920 L 111.06214,58.175920 L 89.725711,30.433362 z "
     id="path831"
     sodipodi:nodetypes="ccccccc" />
  <path
     sodipodi:type="arc"
     style="fill-rule:evenodd;stroke:#000000;stroke-width:5.0000000;fill:#9db8d2;fill-opacity:1.0000000;stroke-dasharray:none;"
     id="path825"
     sodipodi:cx="100.98425"
     sodipodi:cy="78.503937"
     sodipodi:rx="44.291340"
     sodipodi:ry="70.866142"
     d="M 145.27559 78.503937 A 44.291340 70.866142 0 1 0 56.692913,78.503937 A 44.291340 70.866142 0 1 0 145.27559 78.503937 z"
     transform="matrix(0.477735,0.122682,-0.122682,0.477735,35.52938,11.17656)" />
  <path
     sodipodi:type="arc"
     style="fill-rule:evenodd;stroke:#000000;stroke-width:2.2747321;stroke-dasharray:none;fill:#7590ae;fill-opacity:1.0000000;"
     id="path826"
     sodipodi:cx="102.75591"
     sodipodi:cy="85.590553"
     sodipodi:rx="28.346457"
     sodipodi:ry="56.692913"
     d="M 131.10237 85.590553 A 28.346457 56.692913 0 1 0 74.409456,85.590553 A 28.346457 56.692913 0 1 0 131.10237 85.590553 z"
     transform="matrix(0.575251,0.147724,-0.135083,0.526023,24.05911,0.197551)" />
  <path
     sodipodi:type="arc"
     style="fill-rule:evenodd;stroke:#000000;stroke-width:1.0000000pt;fill:#314e6c;fill-opacity:1.0000000;"
     id="path827"
     sodipodi:cx="33.661419"
     sodipodi:cy="51.929134"
     sodipodi:rx="12.401575"
     sodipodi:ry="19.488190"
     d="M 46.062994 51.929134 A 12.401575 19.488190 0 1 0 21.259844,51.929134 A 12.401575 19.488190 0 1 0 46.062994 51.929134 z"
     transform="matrix(0.477735,0.122682,-0.140577,0.547423,70.71934,29.45280)" />
  <path
     style="font-size:40.000000;stroke-width:1.0000000pt;font-family:Trek;"
     d="M 113.47720,138.35149 C 109.26387,138.35149 106.02387,137.01815 103.75720,134.35149 C 101.51720,131.65815 100.39720,127.80482 100.39720,122.79149 C 100.39720,117.72482 101.51720,113.87149 103.75720,111.23149 C 105.99720,108.56482 109.23720,107.23149 113.47720,107.23149 L 130.23720,107.23149 L 130.23720,112.59149 L 115.47720,112.59149 C 112.91720,112.59149 110.99720,113.44482 109.71720,115.15149 C 108.43720,116.85815 107.79720,119.40482 107.79720,122.79149 C 107.79720,126.20482 108.39720,128.76482 109.59720,130.47149 C 110.79720,132.17815 112.75720,133.03149 115.47720,133.03149 L 123.59720,133.03149 L 123.59720,125.35149 L 114.83720,125.35149 L 114.83720,120.23149 L 130.23720,120.23149 L 130.23720,138.35149 L 113.47720,138.35149 z M 80.477202,138.35149 C 76.263869,138.35149 73.023869,137.01815 70.757202,134.35149 C 68.517202,131.65815 67.397202,127.80482 67.397202,122.79149 C 67.397202,117.72482 68.517202,113.87149 70.757202,111.23149 C 72.997202,108.56482 76.237202,107.23149 80.477202,107.23149 L 97.237202,107.23149 L 97.237202,112.59149 L 82.477202,112.59149 C 79.917202,112.59149 77.997202,113.44482 76.717202,115.15149 C 75.437202,116.85815 74.797202,119.40482 74.797202,122.79149 C 74.797202,126.20482 75.397202,128.76482 76.597202,130.47149 C 77.797202,132.17815 79.757202,133.03149 82.477202,133.03149 L 90.597202,133.03149 L 90.597202,125.35149 L 81.837202,125.35149 L 81.837202,120.23149 L 97.237202,120.23149 L 97.237202,138.35149 L 80.477202,138.35149 z M 32.597202,122.79149 C 32.597202,120.20482 32.850536,118.01815 33.357202,116.23149 C 33.890536,114.41815 34.717202,112.83149 35.837202,111.47149 C 38.370536,108.35149 42.557202,106.79149 48.397202,106.79149 C 54.077202,106.79149 58.263869,108.33815 60.957202,111.43149 C 61.410536,111.99149 61.863869,112.71149 62.317202,113.59149 C 62.370536,113.69815 62.503869,114.00482 62.717202,114.51149 C 62.930536,115.01815 63.143869,115.59149 63.357202,116.23149 C 63.917202,118.12482 64.197202,120.31149 64.197202,122.79149 C 64.197202,127.69815 63.130536,131.47149 60.997202,134.11149 C 58.383869,137.23149 54.183869,138.79149 48.397202,138.79149 C 42.557202,138.79149 38.370536,137.24482 35.837202,134.15149 C 33.677202,131.59149 32.597202,127.80482 32.597202,122.79149 z M 48.397202,111.91149 C 45.677202,111.91149 43.583869,112.56482 42.117202,113.87149 C 40.437202,115.47149 39.597202,118.44482 39.597202,122.79149 C 39.597202,126.20482 40.063869,128.71149 40.997202,130.31149 C 42.277202,132.55149 44.743869,133.67149 48.397202,133.67149 C 51.890536,133.67149 54.357202,132.55149 55.797202,130.31149 C 56.757202,128.71149 57.237202,126.20482 57.237202,122.79149 C 57.237202,119.32482 56.770536,116.81815 55.837202,115.27149 C 54.477202,113.03149 51.997202,111.91149 48.397202,111.91149 z "
     id="path840" />
</svg>
