<?xml version="1.0" encoding="UTF-8" standalone="no"?>
<!DOCTYPE svg PUBLIC "-//W3C//DTD SVG 20010904//EN"
"http://www.w3.org/TR/2001/REC-SVG-20010904/DTD/svg10.dtd">
<!-- Created with Inkscape (http://www.inkscape.org/) -->
<svg
   id="svg1"
   sodipodi:version="0.32"
   inkscape:version="0.39"
   width="128.00000pt"
   height="128.00000pt"
   sodipodi:docbase="/home/francois/Xfce/code_source/clean_cvs/xfce4/xfce4-icon-theme/Rodent/scalable/mimetypes"
   sodipodi:docname="gnome-mime-application-x-deb.svg"
   xmlns="http://www.w3.org/2000/svg"
   xmlns:inkscape="http://www.inkscape.org/namespaces/inkscape"
   xmlns:sodipodi="http://sodipodi.sourceforge.net/DTD/sodipodi-0.dtd"
   xmlns:xlink="http://www.w3.org/1999/xlink"
   xmlns:rdf="http://www.w3.org/1999/02/22-rdf-syntax-ns#"
   xmlns:cc="http://web.resource.org/cc/"
   xmlns:dc="http://purl.org/dc/elements/1.1/">
  <defs
     id="defs3">
    <linearGradient
       id="linearGradient850">
      <stop
         style="stop-color:#fbffff;stop-opacity:0.0000000;"
         offset="0.0000000"
         id="stop851" />
      <stop
         style="stop-color:#ffffff;stop-opacity:1.0000000;"
         offset="1.0000000"
         id="stop852" />
    </linearGradient>
    <linearGradient
       xlink:href="#linearGradient850"
       id="linearGradient859"
       x1="0.57772022"
       y1="0.56882256"
       x2="0.077720210"
       y2="0.0097879283" />
    <linearGradient
       id="linearGradient839">
      <stop
         style="stop-color:#46a046;stop-opacity:1.0000000;"
         offset="0.0000000"
         id="stop840" />
      <stop
         style="stop-color:#df421e;stop-opacity:1.0000000;"
         offset="0.39364964"
         id="stop841" />
      <stop
         style="stop-color:#ada7c8;stop-opacity:1.0000000;"
         offset="0.72036445"
         id="stop842" />
      <stop
         style="stop-color:#eed680;stop-opacity:1.0000000;"
         offset="1.0000000"
         id="stop843" />
    </linearGradient>
    <linearGradient
       id="linearGradient833">
      <stop
         style="stop-color:#00ff00;stop-opacity:1.0000000;"
         offset="0.0000000"
         id="stop834" />
      <stop
         style="stop-color:#ff0000;stop-opacity:1.0000000;"
         offset="0.30839416"
         id="stop837" />
      <stop
         style="stop-color:#7f8cff;stop-opacity:1.0000000;"
         offset="0.75000000"
         id="stop838" />
      <stop
         style="stop-color:#ffff00;stop-opacity:1.0000000;"
         offset="1.0000000"
         id="stop835" />
    </linearGradient>
    <linearGradient
       xlink:href="#linearGradient850"
       id="linearGradient836"
       x1="0.47213113"
       y1="0.66958040"
       x2="-0.088524587"
       y2="-0.078671329" />
    <linearGradient
       xlink:href="#linearGradient850"
       id="linearGradient855"
       x1="0.61967212"
       y1="0.66881722"
       x2="0.029508196"
       y2="0.019354839" />
    <linearGradient
       xlink:href="#linearGradient850"
       id="linearGradient853"
       x1="0.39344263"
       y1="0.92035401"
       x2="0.67540985"
       y2="0.29203540" />
  </defs>
  <sodipodi:namedview
     id="base"
     pagecolor="#ffffff"
     bordercolor="#666666"
     borderopacity="1.0"
     inkscape:pageopacity="0.0"
     inkscape:pageshadow="2"
     inkscape:zoom="2.5117188"
     inkscape:cx="64.165946"
     inkscape:cy="63.499684"
     inkscape:window-width="751"
     inkscape:window-height="909"
     showgrid="true"
     snaptogrid="false"
     gridspacingx="1.0000000mm"
     gridspacingy="1.0000000mm"
     inkscape:window-x="469"
     inkscape:window-y="0" />
  <path
     style="font-size:40.000000;stroke-width:12.500000;font-family:Trek;stroke:#000000;stroke-opacity:0.50000000;fill:none;stroke-dasharray:none;stroke-linejoin:round;"
     d="M 82.283004,8.1376963 L 7.7830037,27.012695 L 7.9392537,125.57524 L 7.9705037,125.57524 L 7.9705037,125.76274 L 8.2517537,125.70024 L 82.095504,153.10649 L 151.47048,124.45024 L 151.47048,118.73149 L 151.47048,27.012695 L 82.283004,8.1376963 z "
     id="path874" />
  <path
     style="font-size:12.000000;fill:#515151;fill-rule:evenodd;stroke:#000000;stroke-width:7.5206294;stroke-linecap:round;stroke-linejoin:round;"
     d="M 151.38159,27.032982 L 151.38159,118.74314 L 84.429019,104.01428 L 82.186208,8.1726167 L 151.38159,27.032982 z "
     id="path633"
     sodipodi:nodetypes="ccccc" />
  <path
     style="font-size:12.000000;fill:#4a494d;fill-rule:evenodd;stroke:#000000;stroke-width:7.5206294;stroke-linecap:round;stroke-linejoin:round;"
     d="M 7.6717290,27.032982 L 82.186208,8.1726167 L 86.959934,107.27938 L 7.8671494,125.77363 L 7.6717290,27.032982 z "
     id="path631"
     sodipodi:nodetypes="ccccc" />
  <path
     style="font-size:12.000000;fill:#9db8d2;fill-rule:evenodd;stroke:#000000;stroke-width:7.5206294;stroke-linecap:round;stroke-linejoin:round;"
     d="M 82.004422,49.960515 L 151.38159,27.032982 L 82.186208,8.1726167 L 7.6717290,27.032982 L 82.004422,49.960515 z "
     id="path640"
     sodipodi:nodetypes="ccccc" />
  <path
     style="font-size:12.000000;fill:#4b6983;fill-rule:evenodd;stroke:#000000;stroke-width:7.5206294;stroke-linecap:round;stroke-linejoin:round;"
     d="M 151.38159,27.032982 L 151.38159,124.47503 L 82.004422,153.13443 L 82.004422,49.960515 L 151.38159,27.032982 z "
     id="path627"
     sodipodi:nodetypes="ccccc" />
  <path
     style="font-size:12.000000;fill:#7590ae;fill-rule:evenodd;stroke:#000000;stroke-width:7.5206294;stroke-linecap:round;stroke-linejoin:round;"
     d="M 82.004422,49.960515 L 82.004422,153.13443 L 7.8251535,125.58483 L 7.6717290,27.032982 L 82.004422,49.960515 z "
     id="path629"
     sodipodi:nodetypes="ccccc" />
  <path
     style="fill:url(#linearGradient859);fill-rule:evenodd;stroke:none;stroke-opacity:1;stroke-width:1pt;stroke-linejoin:miter;stroke-linecap:butt;fill-opacity:1.0000000;"
     d="M 81.911361,12.086354 L 11.738893,30.005965 L 11.738893,121.67109 C 84.777144,150.32538 96.941441,169.12448 78.272468,47.310010 C 144.42448,22.937158 81.911361,12.086354 81.911361,12.086354 z "
     id="path892"
     sodipodi:nodetypes="ccccc" />
  <path
     style="fill:url(#linearGradient836);fill-rule:evenodd;stroke:none;stroke-opacity:1;stroke-width:1pt;stroke-linejoin:miter;stroke-linecap:butt;fill-opacity:0.75;"
     d="M 85.893270,52.859176 L 85.893270,146.58228 C 86.168119,146.58228 115.30197,135.58837 128.76951,121.84598 C 142.51189,110.57722 147.18431,87.764837 147.18431,87.764837 L 147.18431,31.695900 L 85.893270,52.859176 z "
     id="path849"
     sodipodi:nodetypes="cccccc" />
  <path
     style="font-size:12.000000;fill:none;fill-rule:evenodd;stroke:#000000;stroke-width:7.5206294;stroke-linecap:round;stroke-linejoin:round;"
     d="M 82.004422,49.960515 L 82.004422,153.13443 L 7.8251535,125.58483 L 7.6717290,27.032982 L 82.004422,49.960515 z "
     id="path852"
     sodipodi:nodetypes="ccccc" />
  <path
     style="fill:#de0551;fill-opacity:1.0000000;stroke:none;stroke-width:0.54859185;stroke-miterlimit:4.0000000;"
     d="M 83.130049,13.772482 C 83.130049,13.772482 83.065311,13.838315 83.065311,13.838315 C 83.065311,13.838315 83.065311,13.772482 83.065311,13.772482 C 83.065311,13.772482 83.130049,13.772482 83.130049,13.772482 z M 81.827688,13.971077 C 81.501828,14.036903 81.306527,14.103832 80.980668,13.971077 C 80.980668,13.971077 81.827688,13.971077 81.827688,13.971077 z M 77.659490,14.434085 C 77.985356,14.368253 78.571248,14.235498 78.897113,14.368253 C 78.311215,14.632674 77.659490,14.964024 77.204156,15.361207 C 78.311215,15.029857 78.961844,15.162618 80.068904,15.295373 C 80.068904,15.295373 81.241796,15.427040 81.241796,15.427040 C 80.851199,15.493969 80.460603,15.625628 80.199467,15.890049 C 80.199467,15.890049 80.980668,15.956978 80.980668,15.956978 C 80.980668,15.956978 84.367672,15.559795 84.367672,15.559795 C 84.953571,15.559795 85.539460,15.692557 86.060619,15.890049 C 86.060619,15.890049 85.930054,15.162618 85.930054,15.162618 C 85.930054,15.162618 87.884130,15.758390 87.884130,15.758390 C 89.317047,16.221399 90.553564,16.552748 91.921756,17.148520 C 91.921756,17.148520 93.549982,17.942886 93.549982,17.942886 C 93.745273,18.074545 94.135861,18.273133 94.331170,18.340061 C 94.786496,18.405894 95.633528,18.008711 96.219430,17.942886 C 96.545292,17.942886 97.587614,18.141473 97.782911,18.405894 C 97.978203,18.604482 97.913482,18.868903 98.499378,19.398848 C 98.954705,19.796023 99.801736,20.324866 100.32289,20.656216 C 100.32289,20.656216 100.38763,20.590389 100.38763,20.590389 C 100.38763,20.590389 99.345296,19.331919 99.345296,19.331919 C 100.25706,19.729094 101.88529,20.920637 102.66648,21.583336 C 105.46760,23.766735 107.87701,26.547002 109.63470,29.657515 C 110.22060,30.650469 110.67702,31.710344 111.06762,32.769130 C 111.19819,33.099377 111.45822,33.762077 111.45822,34.092331 C 111.26292,33.695149 111.13236,33.563489 110.80758,33.297973 C 110.80758,33.893743 110.87232,34.290919 110.93705,34.886690 C 111.00289,35.151118 111.06762,35.416635 110.87232,35.615222 C 110.87232,35.615222 111.97938,39.057092 111.97938,39.057092 C 112.04411,39.387339 112.30524,40.050039 112.17467,40.380293 C 111.84882,38.924330 111.06762,36.938431 110.48173,35.548294 C 110.28642,34.953619 109.63470,33.629322 109.17936,33.232140 C 109.17936,33.364901 109.17936,33.496561 109.04881,33.629322 C 108.72294,34.026498 107.94174,33.364901 107.74645,34.026498 C 107.68171,34.357848 107.94174,35.349706 108.07230,35.681055 C 108.26761,36.078238 108.46291,36.276826 108.72294,35.813810 C 108.72294,35.813810 108.85350,35.813810 108.85350,35.813810 C 109.50523,36.872597 109.30993,36.806765 109.50523,37.931377 C 109.50523,37.931377 110.09113,40.513055 110.09113,40.513055 C 109.43939,40.115872 109.50523,39.321514 108.91824,39.321514 C 108.91824,39.321514 109.37467,40.910231 109.37467,40.910231 C 109.70053,41.637668 109.82999,41.770423 110.22060,42.366193 C 110.02530,42.432027 109.96056,42.432027 109.82999,42.630615 C 109.70053,42.961964 109.76526,44.153506 109.82999,44.484855 C 109.89583,44.682347 110.02530,45.079530 110.28642,45.212293 C 110.41698,45.212293 110.67702,45.146459 110.80758,45.079530 C 110.80758,45.079530 109.89583,48.058385 109.89583,48.058385 C 109.89583,48.058385 109.70053,49.315759 109.70053,49.315759 C 109.70053,49.315759 109.70053,49.978458 109.70053,49.978458 C 109.70053,49.978458 109.11354,48.521401 109.11354,48.521401 C 109.11354,48.521401 109.04881,49.978458 109.04881,49.978458 C 108.78877,49.911530 108.65821,49.978458 108.59347,50.242880 C 108.59347,50.242880 108.46291,51.897430 108.46291,51.897430 C 108.13704,53.420321 107.29112,54.743530 106.70411,56.133659 C 106.31353,56.993851 106.37935,57.589621 106.24879,57.854042 C 106.24879,57.854042 105.59706,56.795263 105.59706,56.795263 C 105.20646,57.259367 104.42527,58.516741 104.49001,59.112513 C 104.49001,59.112513 104.55583,59.575529 104.55583,59.575529 C 104.55583,59.972704 104.36054,60.435721 104.16524,60.701237 C 104.09940,59.972704 104.09940,60.237125 104.36054,59.575529 C 103.44877,60.171299 102.73232,61.031491 101.95002,61.825850 C 101.29940,62.487454 100.51820,63.083225 99.735896,63.678995 C 97.066450,65.599063 93.940576,66.790603 90.749962,67.120855 C 90.749962,67.120855 89.317047,67.253618 89.317047,67.253618 C 89.317047,67.253618 88.014696,67.253618 88.014696,67.253618 C 88.014696,67.253618 87.362971,67.186693 87.362971,67.186693 C 85.734759,67.055029 84.301839,66.856441 82.739452,66.393427 C 82.348855,66.260668 81.241796,65.996245 80.915930,65.797658 C 80.915930,65.797658 80.394770,65.201886 80.394770,65.201886 C 80.394770,65.201886 78.961844,64.076171 78.961844,64.076171 C 76.682994,62.157200 74.599440,60.237125 73.231253,57.457962 C 72.514790,55.869238 72.124194,54.214687 71.993629,52.493201 C 71.993629,52.493201 71.928899,51.698842 71.928899,51.698842 C 71.928899,51.698842 71.928899,50.308713 71.928899,50.308713 C 71.928899,50.308713 72.124194,47.859796 72.124194,47.859796 C 72.124194,47.859796 72.775925,46.602422 72.775925,46.602422 C 73.231253,45.410881 73.492388,44.219339 74.207748,43.160559 C 74.794742,42.167606 75.054775,42.233439 75.315903,41.903184 C 75.315903,41.903184 75.835969,41.042992 75.835969,41.042992 C 76.097096,40.578881 76.682994,39.917284 77.073592,39.520102 C 78.701812,37.998306 80.851199,36.938431 82.999485,36.608175 C 83.781774,36.541248 84.562967,36.541248 85.344166,36.541248 C 86.907643,36.541248 88.470023,37.137018 89.838201,37.865550 C 90.814697,38.328560 91.660624,38.990164 92.442921,39.784522 C 92.768776,40.115872 93.093550,40.380293 93.288853,40.777476 C 92.572386,40.248634 92.312350,39.983111 91.465328,39.520102 C 90.098235,38.725743 88.079431,38.129972 86.515952,38.129972 C 85.279431,38.129972 84.497141,38.129972 83.260613,38.461321 C 79.157146,39.520102 75.966532,42.498955 74.664178,46.602422 C 74.338312,47.661208 74.143017,48.719989 74.078279,49.779871 C 74.078279,49.779871 74.012446,50.574229 74.012446,50.574229 C 74.012446,50.574229 74.078279,51.434421 74.078279,51.434421 C 74.078279,51.434421 74.468876,51.037238 74.468876,51.037238 C 74.468876,56.199492 77.790055,61.097317 82.283022,63.414574 C 83.715948,64.208933 85.800585,64.936363 87.427700,64.936363 C 89.446515,64.936363 90.424095,64.804704 92.312350,64.010346 C 92.312350,64.010346 92.377089,64.208933 92.377089,64.208933 C 93.224114,64.010346 94.266431,63.613162 94.917067,63.083225 C 95.633528,62.554383 96.285256,61.760017 97.001718,61.362841 C 96.740583,61.693088 96.349989,61.958611 96.219430,62.421620 C 96.935886,62.355787 97.652347,61.693088 98.173511,61.295912 C 98.173511,61.295912 100.64767,59.112513 100.64767,59.112513 C 101.16883,58.648408 102.01585,58.052637 102.14642,57.325201 C 102.21115,56.993851 102.14642,56.862192 102.14642,56.596675 C 102.14642,56.133659 102.34171,55.472055 102.66648,55.206538 C 102.99235,55.007950 103.51351,54.876284 103.70880,54.544934 C 103.70880,54.544934 104.16524,53.353393 104.16524,53.353393 C 104.55583,52.427375 104.81586,51.633009 104.94643,50.640063 C 105.01117,50.242880 105.07590,49.911530 104.94643,49.514347 C 104.94643,49.514347 104.42527,50.574229 104.42527,50.574229 C 104.62057,49.514347 104.88060,48.588329 104.88060,47.529543 C 104.88060,47.529543 104.94643,46.403834 104.94643,46.403834 C 104.94643,46.403834 104.94643,45.476713 104.94643,45.476713 C 104.94643,45.476713 104.88060,44.815110 104.88060,44.815110 C 104.88060,44.815110 104.88060,42.167606 104.88060,42.167606 C 104.88060,41.307414 104.68531,41.770423 104.55583,41.108826 C 104.55583,41.108826 104.49001,40.050039 104.49001,40.050039 C 104.36054,39.255680 104.16524,38.461321 103.96884,37.666956 C 102.92762,34.225094 101.03936,31.246239 98.694670,28.598735 C 96.545292,26.149819 94.135861,24.296673 91.074732,23.170966 C 89.251211,22.509361 86.972378,22.046352 85.018302,21.913590 C 85.018302,21.913590 84.367672,21.847757 84.367672,21.847757 C 84.367672,21.847757 83.715948,21.847757 83.715948,21.847757 C 83.715948,21.847757 83.065311,21.781931 83.065311,21.781931 C 83.065311,21.781931 82.739452,21.781931 82.739452,21.781931 C 82.739452,21.781931 81.567655,21.847757 81.567655,21.847757 C 81.567655,21.847757 79.744141,22.046352 79.744141,22.046352 C 79.483012,22.112178 79.092409,22.244940 78.832375,22.179107 C 78.961844,21.847757 78.506517,21.980519 78.311215,21.980519 C 78.311215,21.980519 76.618264,22.310773 76.618264,22.310773 C 74.533613,22.773782 74.012446,23.635069 72.254765,24.362506 C 72.254765,24.362506 70.691275,24.958277 70.691275,24.958277 C 70.561806,25.025206 70.561806,25.091031 70.495973,25.223794 C 70.495973,25.223794 72.254765,24.892444 72.254765,24.892444 C 71.538302,25.752636 69.910082,25.554048 68.867754,25.818469 C 67.565399,26.149819 65.937179,27.474122 65.155978,28.532901 C 65.612409,28.467069 65.872441,28.268481 66.263038,28.069893 C 66.198307,28.334314 65.937179,28.731490 65.741877,28.863156 C 65.612409,28.930085 65.286543,28.930085 65.155978,28.930085 C 64.895946,28.930085 64.634818,29.061744 64.439523,29.128673 C 63.658323,29.393094 62.811296,29.988864 62.160666,30.451873 C 60.532446,31.643415 58.970059,33.232140 57.601872,34.755031 C 56.559543,35.879643 55.518318,37.137018 54.737124,38.461321 C 54.737124,38.461321 55.452484,38.592981 55.452484,38.592981 C 55.061888,39.652863 54.540727,40.711643 54.020661,41.704596 C 53.564232,42.498955 52.847769,43.889085 52.587736,44.749277 C 52.587736,44.749277 52.197139,48.322805 52.197139,48.322805 C 52.197139,48.322805 51.740716,53.154805 51.740716,53.154805 C 51.740716,53.154805 51.675979,53.817504 51.675979,53.817504 C 51.675979,53.817504 51.611248,55.736476 51.611248,55.736476 C 51.611248,55.736476 51.675979,56.596675 51.675979,56.596675 C 51.675979,57.457962 51.806543,58.449813 52.066575,59.244179 C 52.066575,59.244179 52.718307,60.634308 52.718307,60.634308 C 52.783038,61.097317 52.521910,62.288859 52.587736,62.752970 C 52.587736,62.752970 53.368936,64.473354 53.368936,64.473354 C 53.368936,64.473354 52.978340,64.473354 52.978340,64.473354 C 53.173635,65.466308 53.890097,67.452212 54.737124,67.981047 C 55.323015,68.378236 55.778350,67.981047 56.494813,68.709587 C 57.211276,69.438116 57.992469,71.092668 58.318327,72.085622 C 57.537134,71.887028 57.341840,71.489851 56.820672,70.959905 C 57.015973,72.018697 57.471308,72.879983 58.058295,73.806006 C 58.058295,73.806006 58.774758,74.931718 58.774758,74.931718 C 58.970059,75.328895 58.448899,75.460553 58.578360,75.857741 C 58.708931,76.453513 59.620689,77.049285 60.011285,77.512294 C 59.685420,77.380630 59.425387,77.380630 59.555951,77.843645 C 59.620689,78.108065 59.946555,78.572173 60.077119,78.836599 C 60.077119,78.836599 61.834807,81.351338 61.834807,81.351338 C 62.095936,81.748521 62.616001,82.411223 62.811296,82.808406 C 62.811296,82.808406 63.202994,82.278455 63.202994,82.278455 C 63.202994,82.278455 63.332464,82.874232 63.332464,82.874232 C 63.593592,83.734424 64.179490,84.528790 64.700652,85.257319 C 65.026510,85.720328 65.155978,86.117511 65.741877,86.117511 C 65.872441,86.117511 66.328871,86.117511 66.458339,86.183342 C 66.588904,86.250262 66.784198,86.514688 66.848936,86.646357 C 67.110064,86.977708 67.240628,87.110465 67.565399,87.440711 C 68.281855,88.169240 68.738284,88.500603 69.714780,88.897768 C 69.714780,88.897768 69.063055,89.823804 69.063055,89.823804 C 69.650049,89.956560 70.431243,90.286801 70.886570,90.618152 C 70.886570,90.618152 71.798335,91.279761 71.798335,91.279761 C 71.798335,91.279761 73.621849,92.141047 73.621849,92.141047 C 73.621849,92.141047 73.100689,91.081167 73.100689,91.081167 C 73.752421,91.545275 74.404145,92.405467 74.990044,93.001239 C 75.575935,93.597010 76.682994,94.457202 77.464188,94.788548 C 78.766550,95.384319 80.460603,95.648745 81.892425,95.913172 C 82.413587,95.980097 84.041806,96.310349 84.432404,96.508943 C 84.432404,96.508943 83.194780,96.443111 83.194780,96.443111 C 83.194780,96.443111 81.958259,96.443111 81.958259,96.443111 C 81.958259,96.443111 80.980668,96.376180 80.980668,96.376180 C 76.161834,96.310349 70.821840,93.994193 66.848936,91.279761 C 58.058295,85.323145 51.611248,76.056324 48.940700,65.664896 C 48.354801,63.348741 47.964204,61.031491 47.833640,58.648408 C 47.833640,58.648408 47.768909,57.854042 47.768909,57.854042 C 47.768909,57.854042 47.768909,56.795263 47.768909,56.795263 C 47.768909,56.795263 47.703076,55.935071 47.703076,55.935071 C 47.703076,55.935071 47.768909,53.420321 47.768909,53.420321 C 47.768909,53.420321 47.703076,52.625963 47.703076,52.625963 C 47.703076,52.625963 47.703076,51.633009 47.703076,51.633009 C 47.703076,51.633009 47.768909,50.640063 47.768909,50.640063 C 47.768909,50.640063 47.768909,49.117171 47.768909,49.117171 C 47.768909,49.117171 47.833640,48.058385 47.833640,48.058385 C 47.833640,48.058385 47.833640,46.403834 47.833640,46.403834 C 47.833640,46.403834 47.573607,44.550688 47.573607,44.550688 C 47.573607,44.352101 47.768909,43.889085 47.833640,43.690497 C 47.833640,43.690497 48.550103,41.439073 48.550103,41.439073 C 49.136001,39.387339 50.503086,35.813810 51.480684,34.026498 C 52.001844,34.159260 52.326608,33.762077 52.587736,33.364901 C 52.978340,32.834957 53.628969,31.180406 53.890097,30.451873 C 54.085392,30.121627 54.540727,29.061744 54.737124,28.797323 C 54.866593,28.598735 55.061888,28.664561 55.192452,28.467069 C 55.192452,28.467069 55.452484,27.871298 55.452484,27.871298 C 55.647786,27.474122 55.778350,27.208599 56.039478,26.878351 C 57.080705,25.488215 58.839496,23.899491 60.141850,22.707950 C 60.141850,22.707950 60.988876,21.913590 60.988876,21.913590 C 61.379473,21.516408 61.834807,20.987565 62.291230,20.656216 C 62.291230,20.656216 62.355969,21.317820 62.355969,21.317820 C 65.091247,18.935832 67.565399,17.810124 70.757108,16.354161 C 70.757108,16.354161 73.297086,15.228445 73.297086,15.228445 C 73.297086,15.228445 74.924210,14.566848 74.924210,14.566848 C 74.924210,14.566848 74.859473,14.898198 74.859473,14.898198 C 75.835969,14.898198 76.747733,14.632674 77.659490,14.434085 z M 82.999485,14.898198 C 82.739452,15.228445 82.413587,15.029857 82.087720,14.898198 C 82.087720,14.898198 81.501828,14.765436 81.501828,14.765436 C 81.501828,14.765436 82.999485,14.898198 82.999485,14.898198 z M 49.917195,31.577589 C 50.112489,32.305019 49.526598,33.099377 48.875968,33.364901 C 49.200732,32.636369 49.266565,32.503607 49.331296,31.643415 C 49.331296,31.643415 49.917195,31.577589 49.917195,31.577589 z M 47.573607,38.659910 C 47.573607,38.659910 47.117177,40.447222 47.117177,40.447222 C 47.117177,40.447222 47.052447,39.255680 47.052447,39.255680 C 47.117177,38.725743 47.377210,38.196901 47.703076,37.799717 C 47.703076,37.799717 47.573607,38.659910 47.573607,38.659910 z M 95.633528,48.256979 C 95.633528,48.124218 95.502958,47.925630 95.502958,47.793963 C 95.438231,47.462614 95.698266,47.065438 95.959395,46.866843 C 96.219430,47.396788 96.219430,48.322805 95.959395,48.852750 C 95.764086,48.654155 95.764086,48.521401 95.633528,48.256979 z M 109.04881,51.764675 C 109.04881,51.764675 109.04881,51.367492 109.04881,51.367492 C 109.04881,51.367492 109.04881,51.764675 109.04881,51.764675 z M 110.48173,52.228780 C 110.35116,52.757622 110.22060,53.949163 109.96056,54.346347 C 109.96056,54.346347 110.54646,51.367492 110.54646,51.367492 C 110.61229,51.633009 110.54646,51.963264 110.48173,52.228780 z M 94.917067,52.559034 C 94.917067,52.559034 94.852334,52.625963 94.852334,52.625963 C 94.852334,52.625963 94.852334,52.559034 94.852334,52.559034 C 94.852334,52.559034 94.917067,52.559034 94.917067,52.559034 z M 93.484144,53.486154 C 93.159388,54.016092 92.898247,54.346347 92.702956,54.942117 C 93.028817,55.007950 93.093550,54.942117 93.419423,54.809356 C 94.266431,54.346347 94.200605,53.750576 94.721770,53.088972 C 94.526467,53.883337 94.005308,54.809356 93.549982,55.472055 C 93.549982,55.472055 93.419423,55.472055 93.419423,55.472055 C 93.093550,55.074879 92.833515,55.206538 92.702956,54.942117 C 92.572386,54.677696 92.702956,54.412180 92.768776,54.214687 C 92.964079,53.817504 93.484144,53.088972 93.745273,52.757622 C 93.810005,53.023145 93.614714,53.287567 93.484144,53.486154 z M 94.852334,52.757622 C 94.852334,52.757622 94.786496,52.824551 94.786496,52.824551 C 94.786496,52.824551 94.786496,52.757622 94.786496,52.757622 C 94.786496,52.757622 94.852334,52.757622 94.852334,52.757622 z M 108.85350,52.824551 C 108.85350,52.824551 108.78877,52.890384 108.78877,52.890384 C 108.78877,52.890384 108.78877,52.824551 108.78877,52.824551 C 108.78877,52.824551 108.85350,52.824551 108.85350,52.824551 z M 109.37467,56.332247 C 109.37467,56.332247 109.30993,56.398080 109.30993,56.398080 C 109.30993,56.398080 109.30993,56.332247 109.30993,56.332247 C 109.30993,56.332247 109.37467,56.332247 109.37467,56.332247 z M 109.30993,56.530842 C 109.30993,56.530842 109.24410,56.596675 109.24410,56.596675 C 109.24410,56.596675 109.24410,56.530842 109.24410,56.530842 C 109.24410,56.530842 109.30993,56.530842 109.30993,56.530842 z M 109.17936,56.862192 C 109.17936,56.862192 109.11354,56.928018 109.11354,56.928018 C 109.11354,56.928018 109.11354,56.862192 109.11354,56.862192 C 109.11354,56.862192 109.17936,56.862192 109.17936,56.862192 z M 109.04881,57.192446 C 109.04881,57.192446 108.98407,57.259367 108.98407,57.259367 C 108.98407,57.259367 108.98407,57.192446 108.98407,57.192446 C 108.98407,57.192446 109.04881,57.192446 109.04881,57.192446 z M 86.907643,57.523796 C 86.907643,57.523796 87.624101,57.523796 87.624101,57.523796 C 87.624101,57.523796 88.731154,57.457962 88.731154,57.457962 C 88.991182,57.391034 89.186481,57.325201 89.446515,57.391034 C 89.121749,57.655454 88.600590,58.185393 88.274724,58.318153 C 88.014696,58.449813 87.753565,58.318153 87.493537,58.251225 C 86.907643,58.185393 86.255918,57.986805 85.734759,57.655454 C 85.734759,57.655454 85.734759,57.523796 85.734759,57.523796 C 86.255918,57.391034 86.386484,57.457962 86.907643,57.523796 z M 72.645361,57.722384 C 72.645361,57.722384 72.580624,57.788217 72.580624,57.788217 C 72.580624,57.788217 72.580624,57.722384 72.580624,57.722384 C 72.580624,57.722384 72.645361,57.722384 72.645361,57.722384 z M 73.100689,58.582575 C 73.361817,58.979758 73.882985,59.708283 73.817151,60.237125 C 73.492388,59.641355 72.775925,58.516741 72.645361,57.854042 C 72.645361,57.854042 73.100689,58.582575 73.100689,58.582575 z M 72.124194,60.634308 C 72.514790,61.295912 73.687683,63.150153 73.882985,63.678995 C 73.166522,63.150153 72.450059,62.090271 71.928899,61.295912 C 71.798335,61.097317 71.343000,60.502649 71.343000,60.304055 C 71.278268,60.105467 71.407738,59.641355 71.407738,59.442767 C 71.668867,59.641355 71.993629,60.304055 72.124194,60.634308 z M 74.990044,62.620208 C 75.966532,63.745924 76.747733,64.671942 78.050087,65.400475 C 78.050087,65.400475 77.138330,64.473354 77.138330,64.473354 C 76.747733,64.076171 75.966532,63.150153 75.706500,62.620208 C 76.097096,62.951558 76.422962,63.348741 76.813559,63.678995 C 77.659490,64.407521 78.506517,65.134958 79.483012,65.664896 C 79.873609,65.863484 80.264206,66.127912 80.655898,66.260668 C 80.655898,66.260668 80.655898,65.929317 80.655898,65.929317 C 80.980668,66.127912 81.046495,66.260668 81.306527,66.525090 C 81.697124,66.856441 82.413587,67.385276 82.870016,67.650801 C 83.715948,68.113816 85.474730,68.445161 86.451219,68.576825 C 86.451219,68.576825 89.317047,68.709587 89.317047,68.709587 C 89.707640,68.709587 90.488829,68.643755 90.814697,68.775419 C 88.991182,69.371191 87.102942,69.305353 85.279431,68.974008 C 82.283022,68.312404 79.418274,66.922272 76.943028,65.003291 C 75.706500,64.076171 73.882985,62.288859 73.231253,60.832896 C 73.817151,61.097317 74.533613,62.090271 74.990044,62.620208 z "
     id="selection_to_path" />
  <rect
     style="fill:#ffffff;fill-rule:evenodd;stroke:#000000;stroke-width:3.7500000;stroke-dasharray:none;"
     id="rect853"
     width="110.80375"
     height="47.029549"
     ry="7.4109693"
     x="24.971378"
     y="73.654748" />
  <path
     style="font-size:40.000000;stroke-width:1.0000000pt;font-family:Trek;"
     d="M 96.765537,113.21930 L 96.765537,82.099276 L 116.04554,82.099276 C 118.60554,82.099276 120.75220,82.752610 122.48554,84.059276 C 124.45887,85.499276 125.44554,87.419276 125.44554,89.819276 C 125.44554,91.579276 125.03220,93.165943 124.20554,94.579276 C 123.80554,95.219276 123.32554,95.779276 122.76554,96.259276 C 122.20554,96.712610 121.45887,97.179276 120.52554,97.659276 C 122.12554,98.245943 123.40554,99.192614 124.36554,100.49930 C 125.32554,101.80597 125.80554,103.31263 125.80554,105.01930 C 125.80554,107.97930 124.80554,110.13930 122.80554,111.49930 C 121.17887,112.64597 118.92554,113.21930 116.04554,113.21930 L 96.765537,113.21930 z M 113.96554,95.099276 C 115.43220,95.099276 116.55220,94.752610 117.32554,94.059276 C 118.09887,93.365943 118.48554,92.405943 118.48554,91.179276 C 118.48554,88.539276 116.97887,87.219276 113.96554,87.219276 L 103.48554,87.219276 L 103.48554,95.099276 L 113.96554,95.099276 z M 113.96554,108.09930 C 115.43220,108.09930 116.55220,107.75263 117.32554,107.05930 C 118.09887,106.36597 118.48554,105.40597 118.48554,104.17930 C 118.48554,101.53930 116.97887,100.21930 113.96554,100.21930 L 103.48554,100.21930 L 103.48554,108.09930 L 113.96554,108.09930 z M 93.565537,100.21930 L 75.285537,100.21930 L 75.285537,100.41930 L 75.765537,102.85930 C 76.165537,104.13930 76.845537,105.28597 77.805537,106.29930 C 78.018870,106.45930 78.218870,106.59263 78.405537,106.69930 C 78.752204,106.91263 79.232204,107.16597 79.845537,107.45930 L 81.125537,107.77930 L 82.845537,107.89930 L 93.565537,107.89930 L 93.565537,113.21930 L 80.965537,113.21930 C 76.752204,113.21930 73.512204,111.88597 71.245537,109.21930 C 69.005537,106.52597 67.885537,102.67263 67.885537,97.659276 C 67.885537,92.592610 69.005537,88.739276 71.245537,86.099276 C 73.485537,83.432610 76.725537,82.099276 80.965537,82.099276 L 93.565537,82.099276 L 93.565537,87.459276 L 82.845537,87.459276 L 82.085537,87.459276 L 81.325537,87.539276 C 80.792204,87.539276 80.232204,87.672610 79.645537,87.939276 C 79.085537,88.205943 78.472204,88.579276 77.805537,89.059276 C 77.165537,89.699276 76.605537,90.539276 76.125537,91.579276 C 75.832204,92.272610 75.552204,93.379276 75.285537,94.899276 L 75.285537,95.099276 L 93.565537,95.099276 L 93.565537,100.21930 z M 35.325537,82.099276 L 51.845537,82.099276 C 56.032204,82.099276 59.218870,83.432610 61.405537,86.099276 C 63.592204,88.765943 64.685537,92.619276 64.685537,97.659276 C 64.685537,102.64597 63.592204,106.48597 61.405537,109.17930 C 59.245537,111.87263 56.058870,113.21930 51.845537,113.21930 L 35.325537,113.21930 L 35.325537,82.099276 z M 41.805537,107.89930 L 49.685537,107.89930 C 52.298870,107.89930 54.232204,107.05930 55.485537,105.37930 C 56.738870,103.67263 57.365537,101.09930 57.365537,97.659276 C 57.365537,94.219276 56.765537,91.659276 55.565537,89.979276 C 54.392204,88.299276 52.432204,87.459276 49.685537,87.459276 L 41.805537,87.459276 L 41.805537,107.89930 z "
     id="path889" />
  <metadata
     id="metadata33">
    <rdf:RDF
       id="RDF34">
      <cc:Work
         rdf:about=""
         id="Work35">
        <dc:format
           id="format36">image/svg+xml</dc:format>
        <dc:type
           id="type38"
           rdf:resource="http://purl.org/dc/dcmitype/StillImage" />
      </cc:Work>
    </rdf:RDF>
  </metadata>
</svg>
