<?xml version="1.0" encoding="UTF-8" standalone="no"?>
<!DOCTYPE svg PUBLIC "-//W3C//DTD SVG 20010904//EN"
"http://www.w3.org/TR/2001/REC-SVG-20010904/DTD/svg10.dtd">
<!-- Created with Inkscape (http://www.inkscape.org/) -->
<svg
   id="svg1"
   sodipodi:version="0.32"
   inkscape:version="0.38.1"
   width="128.00000pt"
   height="128.00000pt"
   sodipodi:docbase="/usr/share/icons/Fuzzy/scalable/mimetypes"
   sodipodi:docname="gnome-mime-application-x-trash.svg"
   xmlns="http://www.w3.org/2000/svg"
   xmlns:inkscape="http://www.inkscape.org/namespaces/inkscape"
   xmlns:sodipodi="http://sodipodi.sourceforge.net/DTD/sodipodi-0.dtd"
   xmlns:xlink="http://www.w3.org/1999/xlink">
  <defs
     id="defs3">
    <linearGradient
       id="linearGradient839">
      <stop
         style="stop-color:#46a046;stop-opacity:1.0000000;"
         offset="0.0000000"
         id="stop840" />
      <stop
         style="stop-color:#df421e;stop-opacity:1.0000000;"
         offset="0.39364964"
         id="stop841" />
      <stop
         style="stop-color:#ada7c8;stop-opacity:1.0000000;"
         offset="0.72036445"
         id="stop842" />
      <stop
         style="stop-color:#eed680;stop-opacity:1.0000000;"
         offset="1.0000000"
         id="stop843" />
    </linearGradient>
    <linearGradient
       id="linearGradient833">
      <stop
         style="stop-color:#00ff00;stop-opacity:1.0000000;"
         offset="0.0000000"
         id="stop834" />
      <stop
         style="stop-color:#ff0000;stop-opacity:1.0000000;"
         offset="0.30839416"
         id="stop837" />
      <stop
         style="stop-color:#7f8cff;stop-opacity:1.0000000;"
         offset="0.75000000"
         id="stop838" />
      <stop
         style="stop-color:#ffff00;stop-opacity:1.0000000;"
         offset="1.0000000"
         id="stop835" />
    </linearGradient>
    <linearGradient
       xlink:href="#linearGradient839"
       id="linearGradient836"
       x1="1.3267924e-17"
       y1="0.50000000"
       x2="1.0000000"
       y2="0.50000000" />
  </defs>
  <sodipodi:namedview
     id="base"
     pagecolor="#ffffff"
     bordercolor="#666666"
     borderopacity="1.0"
     inkscape:pageopacity="0.0"
     inkscape:pageshadow="2"
     inkscape:zoom="5.0234375"
     inkscape:cx="64.000000"
     inkscape:cy="54.864843"
     inkscape:window-width="751"
     inkscape:window-height="909"
     showgrid="true"
     snaptogrid="true"
     gridspacingx="1.0000000mm"
     gridspacingy="1.0000000mm"
     inkscape:window-x="0"
     inkscape:window-y="31" />
  <rect
     style="fill:none;fill-rule:evenodd;stroke:#000000;stroke-width:11.250000;stroke-dasharray:none;stroke-opacity:0.50000000;stroke-linejoin:round;"
     id="rect834"
     width="128.25159"
     height="145.27559"
     x="17.024004"
     y="7.6377968"
     ry="22.892691" />
  <rect
     style="fill:#ffffff;fill-rule:evenodd;stroke:#000000;stroke-width:6.2500000;stroke-dasharray:none;"
     id="rect828"
     width="128.25158"
     height="145.27559"
     x="17.091653"
     y="7.6377954"
     ry="22.892691" />
  <path
     style="fill:none;fill-opacity:0.75000000;fill-rule:evenodd;stroke:#404040;stroke-width:6.1623602;stroke-linecap:round;stroke-linejoin:round;"
     d="M 56.129050,69.089899 L 82.676355,44.760912 L 98.930811,44.680060 L 97.422381,60.864570 L 63.672907,91.768759 L 43.028473,69.223642 L 90.988251,25.307156 L 120.24626,25.161622 L 117.53109,54.293742 L 74.900184,93.330619"
     id="path862"
     sodipodi:nodetypes="cccccccccc" />
  <path
     style="font-size:40.000000;stroke-width:1.0000000pt;font-family:Trek;"
     d="M 108.13020,123.44914 L 108.13020,138.84914 L 101.41020,138.84914 L 101.41020,107.72914 L 108.13020,107.72914 L 108.13020,121.96914 L 108.73020,121.96914 L 120.73020,107.72914 L 128.93020,107.72914 L 115.33020,122.76914 L 128.93020,138.84914 L 120.49020,138.84914 L 108.73020,123.44914 L 108.13020,123.44914 z M 66.290202,138.84914 L 79.610202,107.72914 L 86.450202,107.72914 L 99.770202,138.84914 L 92.650202,138.84914 L 89.570202,131.28914 L 76.570202,131.28914 L 73.450202,138.84914 L 66.290202,138.84914 z M 83.050202,115.32914 L 78.490202,126.40914 L 87.570202,126.40914 L 83.050202,115.32914 z M 34.090202,138.84914 L 34.090202,107.72914 L 53.370202,107.72914 C 55.930202,107.72914 58.076869,108.38247 59.810202,109.68914 C 61.783536,111.12914 62.770202,113.04914 62.770202,115.44914 C 62.770202,117.20914 62.356869,118.79580 61.530202,120.20914 C 61.130202,120.84914 60.650202,121.40914 60.090202,121.88914 C 59.530202,122.34247 58.783536,122.80914 57.850202,123.28914 C 59.450202,123.87580 60.730202,124.82247 61.690202,126.12914 C 62.650202,127.43580 63.130202,128.94247 63.130202,130.64914 C 63.130202,133.60914 62.130202,135.76914 60.130202,137.12914 C 58.503536,138.27580 56.250202,138.84914 53.370202,138.84914 L 34.090202,138.84914 z M 51.290202,120.72914 C 52.756869,120.72914 53.876869,120.38247 54.650202,119.68914 C 55.423536,118.99580 55.810202,118.03580 55.810202,116.80914 C 55.810202,114.16914 54.303536,112.84914 51.290202,112.84914 L 40.810202,112.84914 L 40.810202,120.72914 L 51.290202,120.72914 z M 51.290202,133.72914 C 52.756869,133.72914 53.876869,133.38247 54.650202,132.68914 C 55.423536,131.99580 55.810202,131.03580 55.810202,129.80914 C 55.810202,127.16914 54.303536,125.84914 51.290202,125.84914 L 40.810202,125.84914 L 40.810202,133.72914 L 51.290202,133.72914 z "
     id="path870" />
</svg>
