<?xml version="1.0" encoding="UTF-8" standalone="no"?>
<!DOCTYPE svg PUBLIC "-//W3C//DTD SVG 20010904//EN"
"http://www.w3.org/TR/2001/REC-SVG-20010904/DTD/svg10.dtd">
<!-- Created with Inkscape (http://www.inkscape.org/) -->
<svg
   id="svg1"
   sodipodi:version="0.32"
   inkscape:version="0.38.1"
   width="128.00000pt"
   height="128.00000pt"
   sodipodi:docbase="/usr/share/icons/Fuzzy/scalable/mimetypes"
   sodipodi:docname="gnome-mime-image-jpeg.svg"
   xmlns="http://www.w3.org/2000/svg"
   xmlns:inkscape="http://www.inkscape.org/namespaces/inkscape"
   xmlns:sodipodi="http://sodipodi.sourceforge.net/DTD/sodipodi-0.dtd"
   xmlns:xlink="http://www.w3.org/1999/xlink">
  <defs
     id="defs3">
    <linearGradient
       id="linearGradient839">
      <stop
         style="stop-color:#46a046;stop-opacity:1.0000000;"
         offset="0.0000000"
         id="stop840" />
      <stop
         style="stop-color:#df421e;stop-opacity:1.0000000;"
         offset="0.39364964"
         id="stop841" />
      <stop
         style="stop-color:#ada7c8;stop-opacity:1.0000000;"
         offset="0.72036445"
         id="stop842" />
      <stop
         style="stop-color:#eed680;stop-opacity:1.0000000;"
         offset="1.0000000"
         id="stop843" />
    </linearGradient>
    <linearGradient
       id="linearGradient833">
      <stop
         style="stop-color:#00ff00;stop-opacity:1.0000000;"
         offset="0.0000000"
         id="stop834" />
      <stop
         style="stop-color:#ff0000;stop-opacity:1.0000000;"
         offset="0.30839416"
         id="stop837" />
      <stop
         style="stop-color:#7f8cff;stop-opacity:1.0000000;"
         offset="0.75000000"
         id="stop838" />
      <stop
         style="stop-color:#ffff00;stop-opacity:1.0000000;"
         offset="1.0000000"
         id="stop835" />
    </linearGradient>
    <linearGradient
       xlink:href="#linearGradient839"
       id="linearGradient836"
       x1="1.3267924e-17"
       y1="0.50000000"
       x2="1.0000000"
       y2="0.50000000" />
  </defs>
  <sodipodi:namedview
     id="base"
     pagecolor="#ffffff"
     bordercolor="#666666"
     borderopacity="1.0"
     inkscape:pageopacity="0.0"
     inkscape:pageshadow="2"
     inkscape:zoom="5.0234375"
     inkscape:cx="70.541588"
     inkscape:cy="64.000000"
     inkscape:window-width="751"
     inkscape:window-height="909"
     showgrid="true"
     snaptogrid="true"
     gridspacingx="1.0000000mm"
     gridspacingy="1.0000000mm"
     inkscape:window-x="0"
     inkscape:window-y="31" />
  <rect
     style="fill:none;fill-rule:evenodd;stroke:#000000;stroke-width:11.250000;stroke-dasharray:none;stroke-opacity:0.50000000;stroke-linejoin:round;"
     id="rect834"
     width="128.25159"
     height="145.27559"
     x="17.024004"
     y="7.6377953"
     ry="22.892691" />
  <rect
     style="fill:#ffffff;fill-rule:evenodd;stroke:#000000;stroke-width:6.2500000;stroke-dasharray:none;"
     id="rect828"
     width="128.25158"
     height="145.27559"
     x="17.091653"
     y="7.6377954"
     ry="22.892691" />
  <rect
     style="fill:url(#linearGradient836);fill-rule:evenodd;stroke:#000000;stroke-width:3.4436574;"
     id="rect832"
     width="125.93480"
     height="67.172065"
     ry="1.2896985"
     x="18.276772"
     y="28.497944" />
  <path
     style="font-size:40.000000;stroke-width:1.0000000pt;font-family:Trek;"
     d="M 108.61387,139.09798 C 104.40054,139.09798 101.16054,137.76464 98.893872,135.09798 C 96.653872,132.40464 95.533872,128.55131 95.533872,123.53798 C 95.533872,118.47131 96.653872,114.61798 98.893872,111.97798 C 101.13387,109.31131 104.37387,107.97798 108.61387,107.97798 L 125.37387,107.97798 L 125.37387,113.33798 L 110.61387,113.33798 C 108.05387,113.33798 106.13387,114.19131 104.85387,115.89798 C 103.57387,117.60464 102.93387,120.15131 102.93387,123.53798 C 102.93387,126.95131 103.53387,129.51131 104.73387,131.21798 C 105.93387,132.92464 107.89387,133.77798 110.61387,133.77798 L 118.73387,133.77798 L 118.73387,126.09798 L 109.97387,126.09798 L 109.97387,120.97798 L 125.37387,120.97798 L 125.37387,139.09798 L 108.61387,139.09798 z M 71.013872,127.97798 L 71.013872,139.09798 L 64.293872,139.09798 L 64.293872,107.97798 L 82.973872,107.97798 C 85.853872,107.97798 88.133872,108.83131 89.813872,110.53798 C 91.493872,112.21798 92.333872,114.69798 92.333872,117.97798 C 92.333872,121.23131 91.493872,123.71131 89.813872,125.41798 C 88.133872,127.12464 85.853872,127.97798 82.973872,127.97798 L 71.013872,127.97798 z M 71.013872,113.33798 L 71.013872,122.65798 L 79.933872,122.65798 C 81.400538,122.65798 82.600538,122.28464 83.533872,121.53798 C 84.467205,120.76464 84.933872,119.57798 84.933872,117.97798 C 84.933872,116.40464 84.467205,115.24464 83.533872,114.49798 C 82.627205,113.72464 81.427205,113.33798 79.933872,113.33798 L 71.013872,113.33798 z M 37.573872,139.09798 L 37.573872,133.77798 L 46.293872,133.77798 C 47.333872,133.77798 48.200538,133.64464 48.893872,133.37798 C 49.240538,133.27131 49.587205,133.11131 49.933872,132.89798 L 50.493872,132.49798 L 51.053872,131.97798 L 51.853872,131.05798 L 52.413872,129.97798 C 52.520538,129.57798 52.613872,129.15131 52.693872,128.69798 C 52.773872,128.24464 52.813872,127.80464 52.813872,127.37798 L 52.813872,107.97798 L 59.453872,107.97798 L 59.453872,127.81798 C 59.453872,129.71131 59.200538,131.40464 58.693872,132.89798 C 58.187205,134.36464 57.400538,135.55131 56.333872,136.45798 C 55.400538,137.28464 54.280538,137.95131 52.973872,138.45798 L 50.933872,138.93798 L 48.613872,139.09798 L 37.573872,139.09798 z "
     id="path853" />
</svg>
