<?xml version="1.0" encoding="UTF-8" standalone="no"?>
<!DOCTYPE svg PUBLIC "-//W3C//DTD SVG 20010904//EN"
"http://www.w3.org/TR/2001/REC-SVG-20010904/DTD/svg10.dtd">
<!-- Created with Inkscape (http://www.inkscape.org/) -->
<svg
   id="svg1"
   sodipodi:version="0.32"
   inkscape:version="0.38.1"
   width="128.00000pt"
   height="128.00000pt"
   sodipodi:docbase="/usr/share/icons/Fuzzy/scalable/mimetypes"
   sodipodi:docname="gnome-mime-application-x-font-linux-psf.svg"
   xmlns="http://www.w3.org/2000/svg"
   xmlns:inkscape="http://www.inkscape.org/namespaces/inkscape"
   xmlns:sodipodi="http://sodipodi.sourceforge.net/DTD/sodipodi-0.dtd"
   xmlns:xlink="http://www.w3.org/1999/xlink">
  <defs
     id="defs3">
    <linearGradient
       id="linearGradient839">
      <stop
         style="stop-color:#46a046;stop-opacity:1.0000000;"
         offset="0.0000000"
         id="stop840" />
      <stop
         style="stop-color:#df421e;stop-opacity:1.0000000;"
         offset="0.39364964"
         id="stop841" />
      <stop
         style="stop-color:#ada7c8;stop-opacity:1.0000000;"
         offset="0.72036445"
         id="stop842" />
      <stop
         style="stop-color:#eed680;stop-opacity:1.0000000;"
         offset="1.0000000"
         id="stop843" />
    </linearGradient>
    <linearGradient
       xlink:href="#linearGradient839"
       id="linearGradient836"
       x1="1.3267924e-17"
       y1="0.50000000"
       x2="1.0000000"
       y2="0.50000000" />
  </defs>
  <sodipodi:namedview
     id="base"
     pagecolor="#ffffff"
     bordercolor="#666666"
     borderopacity="1.0"
     inkscape:pageopacity="0.0"
     inkscape:pageshadow="2"
     inkscape:zoom="5.0234375"
     inkscape:cx="72.028518"
     inkscape:cy="71.340591"
     inkscape:window-width="751"
     inkscape:window-height="909"
     showgrid="true"
     snaptogrid="true"
     gridspacingx="1.0000000mm"
     gridspacingy="1.0000000mm"
     inkscape:window-x="0"
     inkscape:window-y="31" />
  <rect
     style="fill:none;fill-rule:evenodd;stroke:#000000;stroke-width:11.250000;stroke-dasharray:none;stroke-opacity:0.50000000;stroke-linejoin:round;"
     id="rect834"
     width="128.25159"
     height="145.27559"
     x="17.024004"
     y="7.6377953"
     ry="22.892691" />
  <rect
     style="fill:#ffffff;fill-rule:evenodd;stroke:#000000;stroke-width:6.2500000;stroke-dasharray:none;"
     id="rect828"
     width="128.25158"
     height="145.27559"
     x="17.091653"
     y="7.6377954"
     ry="22.892691" />
  <rect
     style="fill:#ffffff;fill-rule:evenodd;stroke:#000000;stroke-width:5.5853095;"
     id="rect849"
     width="92.758515"
     height="69.498535"
     ry="11.146752"
     x="35.344905"
     y="24.536432" />
  <path
     style="font-size:40.000000;stroke-width:1.0000000pt;font-family:Trek;"
     d="M 47.029549,63.307622 L 59.231391,34.800015 L 65.497202,34.800015 L 77.699044,63.307622 L 71.176738,63.307622 L 68.355291,56.382252 L 56.446586,56.382252 L 53.588497,63.307622 L 47.029549,63.307622 z M 62.382618,41.762027 L 58.205410,51.911908 L 66.523183,51.911908 L 62.382618,41.762027 z "
     id="path896" />
  <path
     style="font-size:40.000000;stroke-width:1.0000000pt;font-family:Trek;"
     d="M 79.625684,84.734454 L 79.625684,56.226847 L 84.975440,56.226847 L 84.975440,64.361409 L 91.461102,64.361409 C 94.539054,64.361409 96.981860,65.240821 98.789546,66.999645 C 99.595674,67.830201 100.23080,68.905037 100.69494,70.224156 C 101.18350,71.518846 101.42778,72.960104 101.42778,74.547931 C 101.42778,77.870155 100.57279,80.398465 98.862830,82.132860 C 97.177291,83.867257 94.710044,84.734454 91.461102,84.734454 L 79.625684,84.734454 z M 84.975440,80.447320 L 90.618332,80.447320 C 92.132881,80.447320 93.354284,79.922116 94.282558,78.871707 C 95.235255,77.821299 95.711603,76.380040 95.711603,74.547931 C 95.711603,72.740251 95.259677,71.311207 94.355843,70.260798 C 93.476431,69.185961 92.230588,68.648542 90.618332,68.648542 L 84.975440,68.648542 L 84.975440,80.447320 z "
     id="path897" />
  <path
     style="font-size:40.000000;stroke-width:1.0000000pt;font-family:Trek;"
     d="M 112.19876,34.572070 L 112.19876,39.482121 L 101.64582,39.482121 C 99.300723,39.482121 97.541898,40.263820 96.369345,41.827220 C 95.196796,43.390618 94.610521,45.723503 94.610521,48.825874 C 94.610521,51.952672 95.160154,54.297771 96.259419,55.861170 C 97.358688,57.424569 99.154154,58.206269 101.64582,58.206269 L 112.19876,58.206269 L 112.19876,63.079677 L 99.813713,63.079677 C 95.954068,63.079677 92.986052,61.858271 90.909662,59.415461 C 88.857701,56.948221 87.831720,53.418359 87.831720,48.825874 C 87.831720,44.184532 88.857701,40.654670 90.909662,38.236287 C 92.961624,35.793476 95.929639,34.572070 99.813713,34.572070 L 112.19876,34.572070 z "
     id="path843" />
  <path
     style="font-size:40.000000;stroke-width:1.0000000pt;font-family:Trek;"
     d="M 126.85854,113.08914 L 116.85854,113.08914 C 115.31187,113.08914 114.07187,113.26247 113.13854,113.60914 C 112.68520,113.74247 112.28520,113.90247 111.93854,114.08914 C 111.59187,114.27580 111.25854,114.54247 110.93854,114.88914 C 110.05854,115.68914 109.41854,116.67580 109.01854,117.84914 L 108.77854,118.80914 L 108.69854,119.88914 L 108.69854,120.72914 L 126.85854,120.72914 L 126.85854,125.84914 L 108.69854,125.84914 L 108.69854,138.84914 L 101.97854,138.84914 L 101.97854,123.28914 C 101.97854,121.92914 102.01854,120.74247 102.09854,119.72914 C 102.17854,118.68914 102.31187,117.78247 102.49854,117.00914 C 103.05854,114.44914 104.23187,112.35580 106.01854,110.72914 C 107.13854,109.68914 108.49854,108.92914 110.09854,108.44914 C 111.69854,107.96914 113.72520,107.72914 116.17854,107.72914 L 126.85854,107.72914 L 126.85854,113.08914 z M 97.138537,107.72914 L 97.138537,113.08914 L 79.938537,113.08914 C 78.845204,113.08914 77.858537,113.40914 76.978537,114.04914 C 76.231870,114.71580 75.858537,115.63580 75.858537,116.80914 C 75.858537,118.08914 76.271870,119.04914 77.098537,119.68914 C 77.818537,120.24914 78.805204,120.52914 80.058537,120.52914 L 89.738537,120.52914 C 91.898537,120.52914 93.845204,121.14247 95.578537,122.36914 C 97.765204,123.99580 98.858537,126.43580 98.858537,129.68914 C 98.858537,132.78247 97.765204,135.20914 95.578537,136.96914 C 93.871870,138.22247 91.925204,138.84914 89.738537,138.84914 L 69.138537,138.84914 L 69.138537,133.52914 L 86.738537,133.52914 C 87.751870,133.52914 88.685204,133.16914 89.538537,132.44914 C 90.391870,131.72914 90.818537,130.80914 90.818537,129.68914 C 90.818537,128.54247 90.391870,127.62247 89.538537,126.92914 C 88.738537,126.20914 87.765204,125.84914 86.618537,125.84914 L 76.858537,125.84914 C 74.698537,125.84914 72.778537,125.24914 71.098537,124.04914 C 68.911870,122.42247 67.818537,120.00914 67.818537,116.80914 C 67.818537,113.60914 68.911870,111.19580 71.098537,109.56914 C 72.725204,108.34247 74.645204,107.72914 76.858537,107.72914 L 97.138537,107.72914 z M 43.298537,127.72914 L 43.298537,138.84914 L 36.578537,138.84914 L 36.578537,107.72914 L 55.258537,107.72914 C 58.138537,107.72914 60.418537,108.58247 62.098537,110.28914 C 63.778537,111.96914 64.618537,114.44914 64.618537,117.72914 C 64.618537,120.98247 63.778537,123.46247 62.098537,125.16914 C 60.418537,126.87580 58.138537,127.72914 55.258537,127.72914 L 43.298537,127.72914 z M 43.298537,113.08914 L 43.298537,122.40914 L 52.218537,122.40914 C 53.685204,122.40914 54.885204,122.03580 55.818537,121.28914 C 56.751870,120.51580 57.218537,119.32914 57.218537,117.72914 C 57.218537,116.15580 56.751870,114.99580 55.818537,114.24914 C 54.911870,113.47580 53.711870,113.08914 52.218537,113.08914 L 43.298537,113.08914 z "
     id="path851" />
</svg>
