<?xml version="1.0" encoding="UTF-8" standalone="no"?>
<!DOCTYPE svg PUBLIC "-//W3C//DTD SVG 20010904//EN"
"http://www.w3.org/TR/2001/REC-SVG-20010904/DTD/svg10.dtd">
<!-- Created with Inkscape (http://www.inkscape.org/) -->
<svg
   id="svg1"
   sodipodi:version="0.32"
   inkscape:version="0.38.1"
   width="128.00000pt"
   height="128.00000pt"
   sodipodi:docbase="/usr/share/icons/Fuzzy/scalable/mimetypes"
   sodipodi:docname="gnome-mime-application-x-font-asm.svg"
   xmlns="http://www.w3.org/2000/svg"
   xmlns:inkscape="http://www.inkscape.org/namespaces/inkscape"
   xmlns:sodipodi="http://sodipodi.sourceforge.net/DTD/sodipodi-0.dtd"
   xmlns:xlink="http://www.w3.org/1999/xlink">
  <defs
     id="defs3">
    <linearGradient
       id="linearGradient839">
      <stop
         style="stop-color:#46a046;stop-opacity:1.0000000;"
         offset="0.0000000"
         id="stop840" />
      <stop
         style="stop-color:#df421e;stop-opacity:1.0000000;"
         offset="0.39364964"
         id="stop841" />
      <stop
         style="stop-color:#ada7c8;stop-opacity:1.0000000;"
         offset="0.72036445"
         id="stop842" />
      <stop
         style="stop-color:#eed680;stop-opacity:1.0000000;"
         offset="1.0000000"
         id="stop843" />
    </linearGradient>
    <linearGradient
       xlink:href="#linearGradient839"
       id="linearGradient836"
       x1="1.3267924e-17"
       y1="0.50000000"
       x2="1.0000000"
       y2="0.50000000" />
  </defs>
  <sodipodi:namedview
     id="base"
     pagecolor="#ffffff"
     bordercolor="#666666"
     borderopacity="1.0"
     inkscape:pageopacity="0.0"
     inkscape:pageshadow="2"
     inkscape:zoom="5.0234375"
     inkscape:cx="72.028518"
     inkscape:cy="71.340591"
     inkscape:window-width="751"
     inkscape:window-height="909"
     showgrid="true"
     snaptogrid="true"
     gridspacingx="1.0000000mm"
     gridspacingy="1.0000000mm"
     inkscape:window-x="0"
     inkscape:window-y="31" />
  <rect
     style="fill:none;fill-rule:evenodd;stroke:#000000;stroke-width:11.250000;stroke-dasharray:none;stroke-opacity:0.50000000;stroke-linejoin:round;"
     id="rect834"
     width="128.25159"
     height="145.27559"
     x="17.024004"
     y="7.6377968"
     ry="22.892691" />
  <rect
     style="fill:#ffffff;fill-rule:evenodd;stroke:#000000;stroke-width:6.2500000;stroke-dasharray:none;"
     id="rect828"
     width="128.25158"
     height="145.27559"
     x="17.091653"
     y="7.6377954"
     ry="22.892691" />
  <rect
     style="fill:#ffffff;fill-rule:evenodd;stroke:#000000;stroke-width:5.5853095;"
     id="rect849"
     width="92.758515"
     height="69.498535"
     ry="11.146752"
     x="35.344905"
     y="24.536432" />
  <path
     style="font-size:40.000000;stroke-width:1.0000000pt;font-family:Trek;"
     d="M 47.029549,63.307622 L 59.231391,34.800015 L 65.497202,34.800015 L 77.699044,63.307622 L 71.176738,63.307622 L 68.355291,56.382252 L 56.446586,56.382252 L 53.588497,63.307622 L 47.029549,63.307622 z M 62.382618,41.762027 L 58.205410,51.911908 L 66.523183,51.911908 L 62.382618,41.762027 z "
     id="path896" />
  <path
     style="font-size:40.000000;stroke-width:1.0000000pt;font-family:Trek;"
     d="M 79.625684,84.734454 L 79.625684,56.226847 L 84.975440,56.226847 L 84.975440,64.361409 L 91.461102,64.361409 C 94.539054,64.361409 96.981860,65.240821 98.789546,66.999645 C 99.595674,67.830201 100.23080,68.905037 100.69494,70.224156 C 101.18350,71.518846 101.42778,72.960104 101.42778,74.547931 C 101.42778,77.870155 100.57279,80.398465 98.862830,82.132860 C 97.177291,83.867257 94.710044,84.734454 91.461102,84.734454 L 79.625684,84.734454 z M 84.975440,80.447320 L 90.618332,80.447320 C 92.132881,80.447320 93.354284,79.922116 94.282558,78.871707 C 95.235255,77.821299 95.711603,76.380040 95.711603,74.547931 C 95.711603,72.740251 95.259677,71.311207 94.355843,70.260798 C 93.476431,69.185961 92.230588,68.648542 90.618332,68.648542 L 84.975440,68.648542 L 84.975440,80.447320 z "
     id="path897" />
  <path
     style="font-size:40.000000;stroke-width:1.0000000pt;font-family:Trek;"
     d="M 103.62053,138.60031 L 96.900529,138.60031 L 96.900529,107.48031 L 106.90053,107.48031 L 115.06053,131.52031 L 123.30053,107.48031 L 133.34053,107.48031 L 133.34053,138.60031 L 126.62053,138.60031 L 126.62053,115.36031 L 126.46053,115.36031 L 118.38053,138.60031 L 111.86053,138.60031 L 103.78053,115.36031 L 103.62053,115.36031 L 103.62053,138.60031 z M 92.060529,107.48031 L 92.060529,112.84031 L 74.860529,112.84031 C 73.767196,112.84031 72.780529,113.16031 71.900529,113.80031 C 71.153863,114.46698 70.780529,115.38698 70.780529,116.56031 C 70.780529,117.84031 71.193863,118.80031 72.020529,119.44031 C 72.740529,120.00031 73.727196,120.28031 74.980529,120.28031 L 84.660529,120.28031 C 86.820529,120.28031 88.767196,120.89364 90.500529,122.12031 C 92.687196,123.74698 93.780529,126.18698 93.780529,129.44031 C 93.780529,132.53364 92.687196,134.96031 90.500529,136.72031 C 88.793863,137.97364 86.847196,138.60031 84.660529,138.60031 L 64.060529,138.60031 L 64.060529,133.28031 L 81.660529,133.28031 C 82.673863,133.28031 83.607196,132.92031 84.460529,132.20031 C 85.313863,131.48031 85.740529,130.56031 85.740529,129.44031 C 85.740529,128.29364 85.313863,127.37364 84.460529,126.68031 C 83.660529,125.96031 82.687196,125.60031 81.540529,125.60031 L 71.780529,125.60031 C 69.620529,125.60031 67.700529,125.00031 66.020529,123.80031 C 63.833863,122.17364 62.740529,119.76031 62.740529,116.56031 C 62.740529,113.36031 63.833863,110.94698 66.020529,109.32031 C 67.647196,108.09364 69.567196,107.48031 71.780529,107.48031 L 92.060529,107.48031 z M 27.620529,138.60031 L 40.940529,107.48031 L 47.780529,107.48031 L 61.100529,138.60031 L 53.980529,138.60031 L 50.900529,131.04031 L 37.900529,131.04031 L 34.780529,138.60031 L 27.620529,138.60031 z M 44.380529,115.08031 L 39.820529,126.16031 L 48.900529,126.16031 L 44.380529,115.08031 z "
     id="path839" />
  <path
     style="font-size:40.000000;stroke-width:1.0000000pt;font-family:Trek;"
     d="M 112.19876,34.572070 L 112.19876,39.482121 L 101.64582,39.482121 C 99.300723,39.482121 97.541898,40.263820 96.369345,41.827220 C 95.196796,43.390618 94.610521,45.723503 94.610521,48.825874 C 94.610521,51.952672 95.160154,54.297771 96.259419,55.861170 C 97.358688,57.424569 99.154154,58.206269 101.64582,58.206269 L 112.19876,58.206269 L 112.19876,63.079677 L 99.813713,63.079677 C 95.954068,63.079677 92.986052,61.858271 90.909662,59.415461 C 88.857701,56.948221 87.831720,53.418359 87.831720,48.825874 C 87.831720,44.184532 88.857701,40.654670 90.909662,38.236287 C 92.961624,35.793476 95.929639,34.572070 99.813713,34.572070 L 112.19876,34.572070 z "
     id="path843" />
</svg>
