<?xml version="1.0" encoding="UTF-8" standalone="no"?>
<!DOCTYPE svg PUBLIC "-//W3C//DTD SVG 20010904//EN"
"http://www.w3.org/TR/2001/REC-SVG-20010904/DTD/svg10.dtd">
<!-- Created with Inkscape (http://www.inkscape.org/) -->
<svg
   id="svg1"
   sodipodi:version="0.32"
   inkscape:version="0.38.1"
   width="128.00000pt"
   height="128.00000pt"
   sodipodi:docbase="/usr/share/icons/Fuzzy/scalable/mimetypes"
   sodipodi:docname="gnome-mime-image-x-tga.svg"
   xmlns="http://www.w3.org/2000/svg"
   xmlns:inkscape="http://www.inkscape.org/namespaces/inkscape"
   xmlns:sodipodi="http://sodipodi.sourceforge.net/DTD/sodipodi-0.dtd"
   xmlns:xlink="http://www.w3.org/1999/xlink">
  <defs
     id="defs3">
    <linearGradient
       id="linearGradient839">
      <stop
         style="stop-color:#46a046;stop-opacity:1.0000000;"
         offset="0.0000000"
         id="stop840" />
      <stop
         style="stop-color:#df421e;stop-opacity:1.0000000;"
         offset="0.39364964"
         id="stop841" />
      <stop
         style="stop-color:#ada7c8;stop-opacity:1.0000000;"
         offset="0.72036445"
         id="stop842" />
      <stop
         style="stop-color:#eed680;stop-opacity:1.0000000;"
         offset="1.0000000"
         id="stop843" />
    </linearGradient>
    <linearGradient
       id="linearGradient833">
      <stop
         style="stop-color:#00ff00;stop-opacity:1.0000000;"
         offset="0.0000000"
         id="stop834" />
      <stop
         style="stop-color:#ff0000;stop-opacity:1.0000000;"
         offset="0.30839416"
         id="stop837" />
      <stop
         style="stop-color:#7f8cff;stop-opacity:1.0000000;"
         offset="0.75000000"
         id="stop838" />
      <stop
         style="stop-color:#ffff00;stop-opacity:1.0000000;"
         offset="1.0000000"
         id="stop835" />
    </linearGradient>
    <linearGradient
       xlink:href="#linearGradient839"
       id="linearGradient836"
       x1="1.3267924e-17"
       y1="0.50000000"
       x2="1.0000000"
       y2="0.50000000" />
  </defs>
  <sodipodi:namedview
     id="base"
     pagecolor="#ffffff"
     bordercolor="#666666"
     borderopacity="1.0"
     inkscape:pageopacity="0.0"
     inkscape:pageshadow="2"
     inkscape:zoom="5.0234375"
     inkscape:cx="70.541588"
     inkscape:cy="64.000000"
     inkscape:window-width="751"
     inkscape:window-height="909"
     showgrid="true"
     snaptogrid="true"
     gridspacingx="1.0000000mm"
     gridspacingy="1.0000000mm"
     inkscape:window-x="0"
     inkscape:window-y="31" />
  <rect
     style="fill:none;fill-rule:evenodd;stroke:#000000;stroke-width:11.250000;stroke-dasharray:none;stroke-opacity:0.50000000;stroke-linejoin:round;"
     id="rect834"
     width="128.25159"
     height="145.27559"
     x="17.024004"
     y="7.6377968"
     ry="22.892691" />
  <rect
     style="fill:#ffffff;fill-rule:evenodd;stroke:#000000;stroke-width:6.2500000;stroke-dasharray:none;"
     id="rect828"
     width="128.25158"
     height="145.27559"
     x="17.091653"
     y="7.6377954"
     ry="22.892691" />
  <rect
     style="fill:url(#linearGradient836);fill-rule:evenodd;stroke:#000000;stroke-width:3.4436574;"
     id="rect832"
     width="125.93480"
     height="67.172065"
     ry="1.2896985"
     x="18.276772"
     y="28.497944" />
  <path
     style="font-size:40.000000;stroke-width:1.0000000pt;font-family:Trek;"
     d="M 96.454868,138.84914 L 109.77487,107.72914 L 116.61487,107.72914 L 129.93487,138.84914 L 122.81487,138.84914 L 119.73487,131.28914 L 106.73487,131.28914 L 103.61487,138.84914 L 96.454868,138.84914 z M 113.21487,115.32914 L 108.65487,126.40914 L 117.73487,126.40914 L 113.21487,115.32914 z M 76.534868,138.84914 C 72.321534,138.84914 69.081534,137.51580 66.814868,134.84914 C 64.574868,132.15580 63.454868,128.30247 63.454868,123.28914 C 63.454868,118.22247 64.574868,114.36914 66.814868,111.72914 C 69.054868,109.06247 72.294868,107.72914 76.534868,107.72914 L 93.294868,107.72914 L 93.294868,113.08914 L 78.534868,113.08914 C 75.974868,113.08914 74.054868,113.94247 72.774868,115.64914 C 71.494868,117.35580 70.854868,119.90247 70.854868,123.28914 C 70.854868,126.70247 71.454868,129.26247 72.654868,130.96914 C 73.854868,132.67580 75.814868,133.52914 78.534868,133.52914 L 86.654868,133.52914 L 86.654868,125.84914 L 77.894868,125.84914 L 77.894868,120.72914 L 93.294868,120.72914 L 93.294868,138.84914 L 76.534868,138.84914 z M 33.094868,107.72914 L 61.094868,107.72914 L 61.094868,113.08914 L 50.414868,113.08914 L 50.414868,138.84914 L 43.774868,138.84914 L 43.774868,113.08914 L 33.094868,113.08914 L 33.094868,107.72914 z "
     id="path901" />
</svg>
