<?xml version="1.0" encoding="UTF-8" standalone="no"?>
<!DOCTYPE svg PUBLIC "-//W3C//DTD SVG 20010904//EN"
"http://www.w3.org/TR/2001/REC-SVG-20010904/DTD/svg10.dtd">
<!-- Created with Inkscape (http://www.inkscape.org/) -->
<svg
   id="svg1"
   sodipodi:version="0.32"
   inkscape:version="0.38.1"
   width="128.00000pt"
   height="128.00000pt"
   sodipodi:docbase="/usr/share/icons/Fuzzy/scalable/mimetypes"
   sodipodi:docname="gnome-mime-application-pgp-encrypted.svg"
   xmlns="http://www.w3.org/2000/svg"
   xmlns:inkscape="http://www.inkscape.org/namespaces/inkscape"
   xmlns:sodipodi="http://sodipodi.sourceforge.net/DTD/sodipodi-0.dtd"
   xmlns:xlink="http://www.w3.org/1999/xlink">
  <defs
     id="defs3">
    <linearGradient
       id="linearGradient839">
      <stop
         style="stop-color:#46a046;stop-opacity:1.0000000;"
         offset="0.0000000"
         id="stop840" />
      <stop
         style="stop-color:#df421e;stop-opacity:1.0000000;"
         offset="0.39364964"
         id="stop841" />
      <stop
         style="stop-color:#ada7c8;stop-opacity:1.0000000;"
         offset="0.72036445"
         id="stop842" />
      <stop
         style="stop-color:#eed680;stop-opacity:1.0000000;"
         offset="1.0000000"
         id="stop843" />
    </linearGradient>
    <linearGradient
       xlink:href="#linearGradient839"
       id="linearGradient836"
       x1="1.3267924e-17"
       y1="0.50000000"
       x2="1.0000000"
       y2="0.50000000" />
  </defs>
  <sodipodi:namedview
     id="base"
     pagecolor="#ffffff"
     bordercolor="#666666"
     borderopacity="1.0"
     inkscape:pageopacity="0.0"
     inkscape:pageshadow="2"
     inkscape:zoom="5.0234375"
     inkscape:cx="64.634902"
     inkscape:cy="70.370140"
     inkscape:window-width="751"
     inkscape:window-height="909"
     showgrid="true"
     snaptogrid="false"
     gridspacingx="1.0000000mm"
     gridspacingy="1.0000000mm"
     inkscape:window-x="0"
     inkscape:window-y="31" />
  <rect
     style="fill:none;fill-rule:evenodd;stroke:#000000;stroke-width:11.250000;stroke-dasharray:none;stroke-opacity:0.50000000;stroke-linejoin:round;"
     id="rect834"
     width="128.25159"
     height="145.27559"
     x="17.242791"
     y="7.4866209"
     ry="22.892691" />
  <rect
     style="fill:#ffffff;fill-rule:evenodd;stroke:#000000;stroke-width:6.2500000;stroke-dasharray:none;"
     id="rect828"
     width="128.25158"
     height="145.27559"
     x="17.091653"
     y="7.6377954"
     ry="22.892691" />
  <path
     style="fill:#ffffff;fill-rule:evenodd;stroke:#000000;stroke-width:4.6725211;stroke-linejoin:round;"
     d="M 62.925106,93.664360 L 72.064865,53.479486 C 72.064865,53.479486 65.170600,50.599919 65.170600,41.030045 C 65.170600,29.067701 74.152584,24.282763 80.889068,24.282763 C 87.625556,24.282763 96.607538,29.067701 96.607538,41.030045 C 96.607538,50.599919 90.276658,53.479486 90.276658,53.479486 L 101.09854,93.664360 L 62.925106,93.664360 z "
     id="path850"
     sodipodi:nodetypes="cccccccc" />
  <path
     style="font-size:40.000000;stroke-width:1.0000000pt;font-family:Trek;"
     d="M 106.54321,127.72915 L 106.54321,138.84915 L 99.823206,138.84915 L 99.823206,107.72915 L 118.50321,107.72915 C 121.38321,107.72915 123.66321,108.58248 125.34321,110.28915 C 127.02321,111.96915 127.86321,114.44915 127.86321,117.72915 C 127.86321,120.98248 127.02321,123.46248 125.34321,125.16915 C 123.66321,126.87582 121.38321,127.72915 118.50321,127.72915 L 106.54321,127.72915 z M 106.54321,113.08915 L 106.54321,122.40915 L 115.46321,122.40915 C 116.92987,122.40915 118.12987,122.03582 119.06321,121.28915 C 119.99654,120.51582 120.46321,119.32915 120.46321,117.72915 C 120.46321,116.15582 119.99654,114.99582 119.06321,114.24915 C 118.15654,113.47582 116.95654,113.08915 115.46321,113.08915 L 106.54321,113.08915 z M 79.903206,138.84915 C 75.689873,138.84915 72.449873,137.51582 70.183206,134.84915 C 67.943206,132.15582 66.823206,128.30248 66.823206,123.28915 C 66.823206,118.22248 67.943206,114.36915 70.183206,111.72915 C 72.423206,109.06248 75.663206,107.72915 79.903206,107.72915 L 96.663206,107.72915 L 96.663206,113.08915 L 81.903206,113.08915 C 79.343206,113.08915 77.423206,113.94248 76.143206,115.64915 C 74.863206,117.35582 74.223206,119.90248 74.223206,123.28915 C 74.223206,126.70248 74.823206,129.26248 76.023206,130.96915 C 77.223206,132.67582 79.183206,133.52915 81.903206,133.52915 L 90.023206,133.52915 L 90.023206,125.84915 L 81.263206,125.84915 L 81.263206,120.72915 L 96.663206,120.72915 L 96.663206,138.84915 L 79.903206,138.84915 z M 42.303206,127.72915 L 42.303206,138.84915 L 35.583206,138.84915 L 35.583206,107.72915 L 54.263206,107.72915 C 57.143206,107.72915 59.423206,108.58248 61.103206,110.28915 C 62.783206,111.96915 63.623206,114.44915 63.623206,117.72915 C 63.623206,120.98248 62.783206,123.46248 61.103206,125.16915 C 59.423206,126.87582 57.143206,127.72915 54.263206,127.72915 L 42.303206,127.72915 z M 42.303206,113.08915 L 42.303206,122.40915 L 51.223206,122.40915 C 52.689873,122.40915 53.889873,122.03582 54.823206,121.28915 C 55.756540,120.51582 56.223206,119.32915 56.223206,117.72915 C 56.223206,116.15582 55.756540,114.99582 54.823206,114.24915 C 53.916540,113.47582 52.716540,113.08915 51.223206,113.08915 L 42.303206,113.08915 z "
     id="path853" />
</svg>
