<?xml version="1.0" encoding="UTF-8" standalone="no"?>
<!DOCTYPE svg PUBLIC "-//W3C//DTD SVG 20010904//EN"
"http://www.w3.org/TR/2001/REC-SVG-20010904/DTD/svg10.dtd">
<!-- Created with Inkscape (http://www.inkscape.org/) -->
<svg
   id="svg1"
   sodipodi:version="0.32"
   inkscape:version="0.38.1"
   width="128.00000pt"
   height="128.00000pt"
   sodipodi:docbase="/usr/share/icons/Fuzzy/scalable/mimetypes"
   sodipodi:docname="gnome-mime-text-x-makefile.svg"
   xmlns="http://www.w3.org/2000/svg"
   xmlns:inkscape="http://www.inkscape.org/namespaces/inkscape"
   xmlns:sodipodi="http://sodipodi.sourceforge.net/DTD/sodipodi-0.dtd"
   xmlns:xlink="http://www.w3.org/1999/xlink">
  <defs
     id="defs3">
    <linearGradient
       id="linearGradient907">
      <stop
         style="stop-color:#eed680;stop-opacity:1.0000000;"
         offset="0.0000000"
         id="stop908" />
      <stop
         style="stop-color:#dfb546;stop-opacity:1.0000000;"
         offset="0.29427481"
         id="stop911" />
      <stop
         style="stop-color:#d1940c;stop-opacity:1.0000000;"
         offset="1.0000000"
         id="stop910" />
    </linearGradient>
    <linearGradient
       id="linearGradient869">
      <stop
         style="stop-color:#7590ae;stop-opacity:1.0000000;"
         offset="0.0000000"
         id="stop870" />
      <stop
         style="stop-color:#89a4c0;stop-opacity:1.0000000;"
         offset="0.87030536"
         id="stop912" />
      <stop
         style="stop-color:#9db8d2;stop-opacity:1.0000000;"
         offset="1.0000000"
         id="stop871" />
    </linearGradient>
    <linearGradient
       id="linearGradient866">
      <stop
         style="stop-color:#ffff00;stop-opacity:1.0000000;"
         offset="0.0000000"
         id="stop867" />
      <stop
         style="stop-color:#ffea00;stop-opacity:1.0000000;"
         offset="0.36908397"
         id="stop901" />
      <stop
         style="stop-color:#ffd600;stop-opacity:1.0000000;"
         offset="1.0000000"
         id="stop868" />
    </linearGradient>
    <linearGradient
       xlink:href="#linearGradient907"
       id="linearGradient904"
       x1="0.35737705"
       y1="0.49346405"
       x2="0.17377049"
       y2="0.29411766"
       spreadMethod="reflect" />
    <linearGradient
       id="linearGradient839">
      <stop
         style="stop-color:#46a046;stop-opacity:1.0000000;"
         offset="0.0000000"
         id="stop840" />
      <stop
         style="stop-color:#df421e;stop-opacity:1.0000000;"
         offset="0.39364964"
         id="stop841" />
      <stop
         style="stop-color:#ada7c8;stop-opacity:1.0000000;"
         offset="0.72036445"
         id="stop842" />
      <stop
         style="stop-color:#eed680;stop-opacity:1.0000000;"
         offset="1.0000000"
         id="stop843" />
    </linearGradient>
    <linearGradient
       xlink:href="#linearGradient839"
       id="linearGradient836"
       x1="1.3267924e-17"
       y1="0.50000000"
       x2="1.0000000"
       y2="0.50000000" />
    <linearGradient
       xlink:href="#linearGradient869"
       id="linearGradient674"
       x1="0.68852460"
       y1="0.78625953"
       x2="0.37377051"
       y2="0.47328246"
       spreadMethod="reflect" />
  </defs>
  <sodipodi:namedview
     id="base"
     pagecolor="#ffffff"
     bordercolor="#666666"
     borderopacity="1.0"
     inkscape:pageopacity="0.0"
     inkscape:pageshadow="2"
     inkscape:zoom="5.0234375"
     inkscape:cx="70.138127"
     inkscape:cy="65.393468"
     inkscape:window-width="751"
     inkscape:window-height="909"
     showgrid="true"
     snaptogrid="true"
     gridspacingx="1.0000000mm"
     gridspacingy="1.0000000mm"
     inkscape:window-x="0"
     inkscape:window-y="31" />
  <rect
     style="fill:none;fill-rule:evenodd;stroke:#000000;stroke-width:11.250000;stroke-dasharray:none;stroke-opacity:0.50000000;stroke-linejoin:round;"
     id="rect834"
     width="128.25159"
     height="145.27559"
     x="17.024004"
     y="7.6377953"
     ry="22.892691" />
  <rect
     style="fill:#ffffff;fill-rule:evenodd;stroke:#000000;stroke-width:6.2500000;stroke-dasharray:none;"
     id="rect828"
     width="128.25158"
     height="145.27559"
     x="17.091653"
     y="7.6377954"
     ry="22.892691" />
  <g
     id="g900"
     transform="matrix(1.026185,0.000000,0.000000,1.026185,27.33744,36.41728)">
    <path
       style="font-size:12.000000;fill:#efe0cd;fill-rule:evenodd;stroke:#000000;stroke-width:6.2500000;stroke-linecap:square;stroke-linejoin:bevel;"
       d="M 65.284900,7.3370508 L 62.813816,24.464219 L 37.037854,10.915862 L 42.022627,39.759376 L 13.136508,34.859813 L 26.727470,60.635775 L 9.6429068,63.106859 L 21.827907,74.951019 L 13.136508,79.254114 L 21.785302,83.514603 L 9.6429068,95.401369 L 26.770075,97.872453 L 13.221718,123.64841 L 42.107837,118.66364 L 37.165669,147.54976 L 62.899026,133.95880 L 65.412714,151.04336 L 77.214270,138.90097 L 81.517362,147.54976 L 85.820456,138.85836 L 97.664617,151.04336 L 100.13570,133.91619 L 125.95427,147.46455 L 120.96949,118.62104 L 149.81301,123.52060 L 136.26465,97.787243 L 153.34921,95.273554 L 141.16421,83.429394 L 149.81301,79.168904 L 141.16421,74.908415 L 153.34921,63.021649 L 136.22205,60.550565 L 149.77040,34.731999 L 120.88428,39.716771 L 125.82645,10.873257 L 100.09310,24.421614 L 97.579407,7.3370508 L 85.735247,19.522051 L 81.474757,10.873257 L 77.214270,19.522051 L 65.284900,7.3370508 z "
       id="path829"
       transform="matrix(0.697092,0.000000,0.000000,0.697092,-4.036554,-12.24725)" />
    <path
       sodipodi:type="arc"
       style="fill:#ffffff;fill-rule:evenodd;stroke:#000000;stroke-width:3.7500000;"
       id="path830"
       sodipodi:cx="83.267715"
       sodipodi:cy="74.960632"
       sodipodi:rx="26.574802"
       sodipodi:ry="28.346457"
       d="M 109.84252 74.960632 A 26.574802 28.346457 0 1 0 56.692913,74.960632 A 26.574802 28.346457 0 1 0 109.84252 74.960632 z"
       transform="matrix(0.950385,0.000000,0.000000,0.950385,-27.02555,-28.37928)" />
  </g>
  <path
     style="fill-rule:evenodd;stroke:#000000;stroke-width:0.72004113pt;"
     d="M 82.244183,73.424374 L 87.232895,74.496675 L 85.274691,71.466167 L 82.244183,73.424374 z "
     id="path873"
     sodipodi:nodetypes="cccc" />
  <path
     id="path900"
     fill="none"
     stroke="black"
     stroke-width="1"
     d="M 101.31518,61.342610 C 101.31518,61.342610 102.98880,61.045159 102.98880,61.045159 C 102.98880,61.045159 104.35863,62.161082 104.35863,62.161082 C 104.32269,61.496170 104.01454,61.265637 103.36447,60.961612 C 103.36447,60.961612 103.43198,60.647525 103.43198,60.647525 C 104.18331,60.480430 104.35427,60.517177 104.83120,59.962502 C 104.83120,59.962502 102.98663,60.223206 102.98663,60.223206 C 102.98663,60.223206 101.75400,59.301069 101.75400,59.301069 C 101.78993,59.965982 101.96089,60.002729 102.57720,60.463794 C 102.57720,60.463794 101.31518,61.342610 101.31518,61.342610 z M 102.05998,58.709649 C 102.05998,58.709649 102.84725,59.207460 102.84725,59.207460 C 104.34991,58.873263 104.72776,59.611669 105.20251,58.235044 C 105.20251,58.235044 104.86060,58.161552 104.86060,58.161552 C 104.34991,58.873263 104.00800,58.799771 103.15323,58.616039 C 103.15323,58.616039 103.32200,57.830836 103.32200,57.830836 C 103.32200,57.830836 102.98009,57.757343 102.98009,57.757343 C 102.98009,57.757343 102.81131,58.542547 102.81131,58.542547 C 102.81131,58.542547 102.12749,58.395562 102.12749,58.395562 C 102.12749,58.395562 102.05998,58.709649 102.05998,58.709649 z M 105.12847,56.083258 C 105.13065,56.905211 105.09689,57.062258 104.27804,57.543440 C 104.27804,57.543440 104.61560,55.973019 104.61560,55.973019 C 102.83853,55.919636 103.08136,57.286216 103.86862,57.784027 C 105.03156,58.198298 106.01918,56.931902 105.12847,56.083258 z M 103.55393,55.087628 C 103.55393,55.087628 105.77636,55.565329 105.77636,55.565329 C 105.77636,55.565329 105.84387,55.251242 105.84387,55.251242 C 104.81813,55.030765 104.30526,54.920526 104.16589,53.904780 C 104.16589,53.904780 103.82397,53.831287 103.82397,53.831287 C 103.82397,53.831287 103.99711,54.689994 103.99711,54.689994 C 103.99711,54.689994 103.55393,55.087628 103.55393,55.087628 z M 103.89148,53.517207 C 103.89148,53.517207 106.11391,53.994909 106.11391,53.994909 C 106.11391,53.994909 106.18142,53.680822 106.18142,53.680822 C 105.83951,53.607329 103.95900,53.203120 104.81160,52.564898 C 105.05007,52.287558 106.07580,52.508035 106.41771,52.581528 C 106.41771,52.581528 106.48522,52.267448 106.48522,52.267448 C 106.14331,52.193955 104.43375,51.826492 105.08164,51.308564 C 105.32011,51.031224 106.34584,51.251701 106.68776,51.325193 C 106.68776,51.325193 106.78902,50.854067 106.78902,50.854067 C 106.27615,50.743828 105.42138,50.560096 104.87475,50.606898 C 104.46533,50.847492 104.16153,52.260873 104.23122,52.768739 C 104.19746,52.925786 104.36842,52.962533 104.33466,53.119573 C 104.33466,53.119573 103.89148,53.517207 103.89148,53.517207 z M 104.20618,56.213607 C 104.20618,56.213607 103.93613,57.469947 103.93613,57.469947 C 103.52454,56.888582 103.42109,56.537748 104.20618,56.213607 z "
     style="fill:none;stroke:#000000;stroke-width:0.16759372;" />
  <path
     style="fill:url(#linearGradient674);fill-rule:evenodd;stroke:#000000;stroke-width:3.6002057;"
     d="M 73.148447,76.014637 C 88.456761,59.711830 119.93418,27.669332 131.54384,39.465748 C 141.81273,51.697915 101.98892,77.107727 85.161002,87.886347 L 73.148447,76.014637 z "
     id="path879"
     sodipodi:nodetypes="cccc" />
  <path
     style="fill:url(#linearGradient904);fill-opacity:0.75000000;fill-rule:evenodd;stroke:#000000;stroke-width:2.7001543;"
     d="M 83.295202,86.633806 C 83.295202,86.633806 79.674426,93.610544 81.429391,95.641536 C 83.257745,97.243296 65.724821,102.54550 62.873395,102.22464 C 62.873397,102.22465 60.404638,107.63445 56.821316,104.00169 C 53.238000,100.36894 58.879887,97.744697 58.879887,97.744697 C 58.885038,93.548369 63.512795,77.477763 65.304455,79.294140 C 67.096115,81.110515 74.336905,77.551918 74.336905,77.551918 C 74.336905,77.551918 83.295202,86.633806 83.295202,86.633806 z "
     id="path868"
     sodipodi:nodetypes="cccccccc" />
  <path
     style="fill:none;fill-opacity:0.75000000;fill-rule:evenodd;stroke:#000000;stroke-width:0.72004113pt;stroke-linecap:round;stroke-linejoin:round;"
     d="M 58.038971,102.81514 C 58.038971,102.81514 72.569987,88.481862 72.569987,88.481862"
     id="path876"
     sodipodi:nodetypes="cc" />
</svg>
