<?xml version="1.0" encoding="UTF-8" standalone="no"?>
<!DOCTYPE svg PUBLIC "-//W3C//DTD SVG 20010904//EN"
"http://www.w3.org/TR/2001/REC-SVG-20010904/DTD/svg10.dtd">
<!-- Created with Inkscape (http://www.inkscape.org/) -->
<svg
   id="svg1"
   sodipodi:version="0.32"
   inkscape:version="0.38.1"
   width="128.00000pt"
   height="128.00000pt"
   sodipodi:docbase="/usr/share/icons/Fuzzy/scalable/mimetypes"
   sodipodi:docname="gnome-mime-image-x-rgb.svg"
   xmlns="http://www.w3.org/2000/svg"
   xmlns:inkscape="http://www.inkscape.org/namespaces/inkscape"
   xmlns:sodipodi="http://sodipodi.sourceforge.net/DTD/sodipodi-0.dtd"
   xmlns:xlink="http://www.w3.org/1999/xlink">
  <defs
     id="defs3">
    <linearGradient
       id="linearGradient839">
      <stop
         style="stop-color:#46a046;stop-opacity:1.0000000;"
         offset="0.0000000"
         id="stop840" />
      <stop
         style="stop-color:#df421e;stop-opacity:1.0000000;"
         offset="0.39364964"
         id="stop841" />
      <stop
         style="stop-color:#ada7c8;stop-opacity:1.0000000;"
         offset="0.72036445"
         id="stop842" />
      <stop
         style="stop-color:#eed680;stop-opacity:1.0000000;"
         offset="1.0000000"
         id="stop843" />
    </linearGradient>
    <linearGradient
       id="linearGradient833">
      <stop
         style="stop-color:#00ff00;stop-opacity:1.0000000;"
         offset="0.0000000"
         id="stop834" />
      <stop
         style="stop-color:#ff0000;stop-opacity:1.0000000;"
         offset="0.30839416"
         id="stop837" />
      <stop
         style="stop-color:#7f8cff;stop-opacity:1.0000000;"
         offset="0.75000000"
         id="stop838" />
      <stop
         style="stop-color:#ffff00;stop-opacity:1.0000000;"
         offset="1.0000000"
         id="stop835" />
    </linearGradient>
    <linearGradient
       xlink:href="#linearGradient839"
       id="linearGradient836"
       x1="1.3267924e-17"
       y1="0.50000000"
       x2="1.0000000"
       y2="0.50000000" />
  </defs>
  <sodipodi:namedview
     id="base"
     pagecolor="#ffffff"
     bordercolor="#666666"
     borderopacity="1.0"
     inkscape:pageopacity="0.0"
     inkscape:pageshadow="2"
     inkscape:zoom="5.0234375"
     inkscape:cx="70.541588"
     inkscape:cy="64.000000"
     inkscape:window-width="751"
     inkscape:window-height="909"
     showgrid="true"
     snaptogrid="true"
     gridspacingx="1.0000000mm"
     gridspacingy="1.0000000mm"
     inkscape:window-x="0"
     inkscape:window-y="31" />
  <rect
     style="fill:none;fill-rule:evenodd;stroke:#000000;stroke-width:11.250000;stroke-dasharray:none;stroke-opacity:0.50000000;stroke-linejoin:round;"
     id="rect834"
     width="128.25159"
     height="145.27559"
     x="17.024004"
     y="7.6377968"
     ry="22.892691" />
  <rect
     style="fill:#ffffff;fill-rule:evenodd;stroke:#000000;stroke-width:6.2500000;stroke-dasharray:none;"
     id="rect828"
     width="128.25158"
     height="145.27559"
     x="17.091653"
     y="7.6377954"
     ry="22.892691" />
  <rect
     style="fill:url(#linearGradient836);fill-rule:evenodd;stroke:#000000;stroke-width:3.4436574;"
     id="rect832"
     width="125.93480"
     height="67.172065"
     ry="1.2896985"
     x="18.276772"
     y="28.497944" />
  <path
     style="font-size:40.000000;stroke-width:1.0000000pt;font-family:Trek;"
     d="M 99.356704,138.84914 L 99.356704,107.72914 L 118.63670,107.72914 C 121.19670,107.72914 123.34337,108.38247 125.07670,109.68914 C 127.05004,111.12914 128.03670,113.04914 128.03670,115.44914 C 128.03670,117.20914 127.62337,118.79580 126.79670,120.20914 C 126.39670,120.84914 125.91670,121.40914 125.35670,121.88914 C 124.79670,122.34247 124.05004,122.80914 123.11670,123.28914 C 124.71670,123.87580 125.99670,124.82247 126.95670,126.12914 C 127.91670,127.43580 128.39670,128.94247 128.39670,130.64914 C 128.39670,133.60914 127.39670,135.76914 125.39670,137.12914 C 123.77004,138.27580 121.51670,138.84914 118.63670,138.84914 L 99.356704,138.84914 z M 116.55670,120.72914 C 118.02337,120.72914 119.14337,120.38247 119.91670,119.68914 C 120.69004,118.99580 121.07670,118.03580 121.07670,116.80914 C 121.07670,114.16914 119.57004,112.84914 116.55670,112.84914 L 106.07670,112.84914 L 106.07670,120.72914 L 116.55670,120.72914 z M 116.55670,133.72914 C 118.02337,133.72914 119.14337,133.38247 119.91670,132.68914 C 120.69004,131.99580 121.07670,131.03580 121.07670,129.80914 C 121.07670,127.16914 119.57004,125.84914 116.55670,125.84914 L 106.07670,125.84914 L 106.07670,133.72914 L 116.55670,133.72914 z M 79.436704,138.84914 C 75.223371,138.84914 71.983371,137.51580 69.716704,134.84914 C 67.476704,132.15580 66.356704,128.30247 66.356704,123.28914 C 66.356704,118.22247 67.476704,114.36914 69.716704,111.72914 C 71.956704,109.06247 75.196704,107.72914 79.436704,107.72914 L 96.196704,107.72914 L 96.196704,113.08914 L 81.436704,113.08914 C 78.876704,113.08914 76.956704,113.94247 75.676704,115.64914 C 74.396704,117.35580 73.756704,119.90247 73.756704,123.28914 C 73.756704,126.70247 74.356704,129.26247 75.556704,130.96914 C 76.756704,132.67580 78.716704,133.52914 81.436704,133.52914 L 89.556704,133.52914 L 89.556704,125.84914 L 80.796704,125.84914 L 80.796704,120.72914 L 96.196704,120.72914 L 96.196704,138.84914 L 79.436704,138.84914 z M 48.716704,126.60914 L 41.556704,126.60914 L 41.556704,138.84914 L 34.836704,138.84914 L 34.836704,107.72914 L 52.876704,107.72914 C 55.863371,107.72914 58.143371,108.46247 59.716704,109.92914 C 61.450038,111.52914 62.316704,113.94247 62.316704,117.16914 C 62.316704,118.42247 62.210038,119.51580 61.996704,120.44914 C 61.783371,121.35580 61.423371,122.19580 60.916704,122.96914 C 60.010038,124.38247 58.543371,125.44914 56.516704,126.16914 L 56.356704,126.20914 L 63.156704,138.84914 L 55.236704,138.84914 L 48.716704,126.60914 z M 41.556704,113.08914 L 41.556704,121.72914 L 49.396704,121.72914 C 50.943371,121.72914 52.103371,121.43580 52.876704,120.84914 C 53.863371,120.18247 54.356704,119.03580 54.356704,117.40914 C 54.356704,115.88914 53.890038,114.79580 52.956704,114.12914 C 52.050038,113.43580 50.863371,113.08914 49.396704,113.08914 L 41.556704,113.08914 z "
     id="path897" />
</svg>
