<?xml version="1.0" encoding="UTF-8" standalone="no"?>
<!DOCTYPE svg PUBLIC "-//W3C//DTD SVG 20010904//EN"
"http://www.w3.org/TR/2001/REC-SVG-20010904/DTD/svg10.dtd">
<!-- Created with Inkscape (http://www.inkscape.org/) -->
<svg
   id="svg1"
   sodipodi:version="0.32"
   inkscape:version="0.38.1"
   width="128.00000pt"
   height="128.00000pt"
   sodipodi:docbase="/usr/share/icons/Fuzzy/scalable/mimetypes"
   sodipodi:docname="gnome-mime-application-zip.svg"
   xmlns="http://www.w3.org/2000/svg"
   xmlns:inkscape="http://www.inkscape.org/namespaces/inkscape"
   xmlns:sodipodi="http://sodipodi.sourceforge.net/DTD/sodipodi-0.dtd"
   xmlns:xlink="http://www.w3.org/1999/xlink">
  <defs
     id="defs3">
    <linearGradient
       id="linearGradient850">
      <stop
         style="stop-color:#fbffff;stop-opacity:0.0000000;"
         offset="0.0000000"
         id="stop851" />
      <stop
         style="stop-color:#ffffff;stop-opacity:1.0000000;"
         offset="1.0000000"
         id="stop852" />
    </linearGradient>
    <linearGradient
       xlink:href="#linearGradient850"
       id="linearGradient859"
       x1="0.57772022"
       y1="0.56882256"
       x2="0.077720210"
       y2="0.0097879283" />
    <linearGradient
       id="linearGradient839">
      <stop
         style="stop-color:#46a046;stop-opacity:1.0000000;"
         offset="0.0000000"
         id="stop840" />
      <stop
         style="stop-color:#df421e;stop-opacity:1.0000000;"
         offset="0.39364964"
         id="stop841" />
      <stop
         style="stop-color:#ada7c8;stop-opacity:1.0000000;"
         offset="0.72036445"
         id="stop842" />
      <stop
         style="stop-color:#eed680;stop-opacity:1.0000000;"
         offset="1.0000000"
         id="stop843" />
    </linearGradient>
    <linearGradient
       id="linearGradient833">
      <stop
         style="stop-color:#00ff00;stop-opacity:1.0000000;"
         offset="0.0000000"
         id="stop834" />
      <stop
         style="stop-color:#ff0000;stop-opacity:1.0000000;"
         offset="0.30839416"
         id="stop837" />
      <stop
         style="stop-color:#7f8cff;stop-opacity:1.0000000;"
         offset="0.75000000"
         id="stop838" />
      <stop
         style="stop-color:#ffff00;stop-opacity:1.0000000;"
         offset="1.0000000"
         id="stop835" />
    </linearGradient>
    <linearGradient
       xlink:href="#linearGradient850"
       id="linearGradient836"
       x1="0.47213113"
       y1="0.66958040"
       x2="-0.088524587"
       y2="-0.078671329" />
    <linearGradient
       xlink:href="#linearGradient850"
       id="linearGradient855"
       x1="0.61967212"
       y1="0.66881722"
       x2="0.029508196"
       y2="0.019354839" />
    <linearGradient
       xlink:href="#linearGradient850"
       id="linearGradient853"
       x1="0.39344263"
       y1="0.92035401"
       x2="0.67540985"
       y2="0.29203540" />
  </defs>
  <sodipodi:namedview
     id="base"
     pagecolor="#ffffff"
     bordercolor="#666666"
     borderopacity="1.0"
     inkscape:pageopacity="0.0"
     inkscape:pageshadow="2"
     inkscape:zoom="5.0234375"
     inkscape:cx="64.165964"
     inkscape:cy="63.499648"
     inkscape:window-width="751"
     inkscape:window-height="909"
     showgrid="true"
     snaptogrid="false"
     gridspacingx="1.0000000mm"
     gridspacingy="1.0000000mm"
     inkscape:window-x="0"
     inkscape:window-y="31" />
  <path
     style="font-size:40.000000;stroke-width:12.500000;font-family:Trek;stroke:#000000;stroke-opacity:0.50000000;fill:none;stroke-dasharray:none;stroke-linejoin:round;"
     d="M 82.283006,8.1376812 L 7.7830024,27.012676 L 7.9392524,125.57528 L 7.9705024,125.57528 L 7.9705024,125.76278 L 8.2517524,125.70028 L 82.095506,153.10653 L 151.47050,124.45028 L 151.47050,118.73153 L 151.47050,27.012676 L 82.283006,8.1376812 z "
     id="path874" />
  <path
     style="font-size:12.000000;fill:#515151;fill-rule:evenodd;stroke:#000000;stroke-width:7.5206294;stroke-linecap:round;stroke-linejoin:round;"
     d="M 151.38159,27.032982 L 151.38159,118.74314 L 84.429019,104.01428 L 82.186208,8.1726167 L 151.38159,27.032982 z "
     id="path633"
     sodipodi:nodetypes="ccccc" />
  <path
     style="font-size:12.000000;fill:#4a494d;fill-rule:evenodd;stroke:#000000;stroke-width:7.5206294;stroke-linecap:round;stroke-linejoin:round;"
     d="M 7.6717290,27.032982 L 82.186208,8.1726167 L 86.959934,107.27938 L 7.8671494,125.77363 L 7.6717290,27.032982 z "
     id="path631"
     sodipodi:nodetypes="ccccc" />
  <path
     style="font-size:12.000000;fill:#9db8d2;fill-rule:evenodd;stroke:#000000;stroke-width:7.5206294;stroke-linecap:round;stroke-linejoin:round;"
     d="M 82.004422,49.960515 L 151.38159,27.032982 L 82.186208,8.1726167 L 7.6717290,27.032982 L 82.004422,49.960515 z "
     id="path640"
     sodipodi:nodetypes="ccccc" />
  <path
     style="font-size:12.000000;fill:#4b6983;fill-rule:evenodd;stroke:#000000;stroke-width:7.5206294;stroke-linecap:round;stroke-linejoin:round;"
     d="M 151.38159,27.032982 L 151.38159,124.47503 L 82.004422,153.13443 L 82.004422,49.960515 L 151.38159,27.032982 z "
     id="path627"
     sodipodi:nodetypes="ccccc" />
  <path
     style="font-size:12.000000;fill:#7590ae;fill-rule:evenodd;stroke:#000000;stroke-width:7.5206294;stroke-linecap:round;stroke-linejoin:round;"
     d="M 82.004422,49.960515 L 82.004422,153.13443 L 7.8251535,125.58483 L 7.6717290,27.032982 L 82.004422,49.960515 z "
     id="path629"
     sodipodi:nodetypes="ccccc" />
  <path
     style="fill:url(#linearGradient859);fill-rule:evenodd;stroke:none;stroke-opacity:1;stroke-width:1pt;stroke-linejoin:miter;stroke-linecap:butt;fill-opacity:1.0000000;"
     d="M 81.911361,12.086354 L 11.738893,30.005965 L 11.738893,121.67109 C 84.777144,150.32538 96.941441,169.12448 78.272468,47.310010 C 144.42448,22.937158 81.911361,12.086354 81.911361,12.086354 z "
     id="path892"
     sodipodi:nodetypes="ccccc" />
  <path
     style="fill:url(#linearGradient836);fill-rule:evenodd;stroke:none;stroke-opacity:1;stroke-width:1pt;stroke-linejoin:miter;stroke-linecap:butt;fill-opacity:0.75;"
     d="M 85.893270,52.859176 L 85.893270,146.58228 C 86.168119,146.58228 115.30197,135.58837 128.76951,121.84598 C 142.51189,110.57722 147.18431,87.764837 147.18431,87.764837 L 147.18431,31.695900 L 85.893270,52.859176 z "
     id="path849"
     sodipodi:nodetypes="cccccc" />
  <path
     style="font-size:12.000000;fill:none;fill-rule:evenodd;stroke:#000000;stroke-width:7.5206294;stroke-linecap:round;stroke-linejoin:round;"
     d="M 82.004422,49.960515 L 82.004422,153.13443 L 7.8251535,125.58483 L 7.6717290,27.032982 L 82.004422,49.960515 z "
     id="path852"
     sodipodi:nodetypes="ccccc" />
  <rect
     style="fill:#ffffff;fill-rule:evenodd;stroke:#000000;stroke-width:3.7500000;stroke-dasharray:none;"
     id="rect853"
     width="110.80375"
     height="47.029549"
     ry="7.4109693"
     x="24.971378"
     y="73.654746" />
  <path
     style="font-size:40.000000;stroke-width:1.0000000pt;font-family:Trek;"
     d="M 95.256549,101.85047 L 95.256549,112.97047 L 88.536549,112.97047 L 88.536549,81.850444 L 107.21655,81.850444 C 110.09655,81.850444 112.37655,82.703777 114.05655,84.410444 C 115.73655,86.090444 116.57655,88.570444 116.57655,91.850444 C 116.57655,95.103777 115.73655,97.583777 114.05655,99.290458 C 112.37655,100.99713 110.09655,101.85047 107.21655,101.85047 L 95.256549,101.85047 z M 95.256549,87.210444 L 95.256549,96.530444 L 104.17655,96.530444 C 105.64322,96.530444 106.84322,96.157110 107.77655,95.410444 C 108.70988,94.637110 109.17655,93.450444 109.17655,91.850444 C 109.17655,90.277110 108.70988,89.117110 107.77655,88.370444 C 106.86988,87.597110 105.66988,87.210444 104.17655,87.210444 L 95.256549,87.210444 z M 83.856549,112.97047 L 77.136549,112.97047 L 77.136549,81.850444 L 83.856549,81.850444 L 83.856549,112.97047 z M 73.976549,107.65047 L 73.976549,112.97047 L 45.536549,112.97047 L 45.536549,107.65047 L 64.536549,87.370444 L 64.536549,87.210444 L 45.536549,87.210444 L 45.536549,81.850444 L 73.976549,81.850444 L 73.976549,87.210444 L 54.976549,107.41047 L 54.976549,107.65047 L 73.976549,107.65047 z "
     id="path913" />
</svg>
