<?xml version="1.0" encoding="UTF-8" standalone="no"?>
<!DOCTYPE svg PUBLIC "-//W3C//DTD SVG 20010904//EN"
"http://www.w3.org/TR/2001/REC-SVG-20010904/DTD/svg10.dtd">
<!-- Created with Inkscape (http://www.inkscape.org/) -->
<svg
   id="svg1"
   sodipodi:version="0.32"
   inkscape:version="0.38.1"
   width="128.00000pt"
   height="128.00000pt"
   sodipodi:docbase="/usr/share/icons/Fuzzy/scalable/mimetypes"
   sodipodi:docname="gnome-mime-application-x-kde-app-info.svg"
   xmlns="http://www.w3.org/2000/svg"
   xmlns:inkscape="http://www.inkscape.org/namespaces/inkscape"
   xmlns:sodipodi="http://sodipodi.sourceforge.net/DTD/sodipodi-0.dtd"
   xmlns:xlink="http://www.w3.org/1999/xlink">
  <defs
     id="defs3">
    <linearGradient
       id="linearGradient837">
      <stop
         style="stop-color:#eed680;stop-opacity:1.0000000;"
         offset="0.0000000"
         id="stop838" />
      <stop
         style="stop-color:#dfb546;stop-opacity:1.0000000;"
         offset="0.72068703"
         id="stop846" />
      <stop
         style="stop-color:#d1940c;stop-opacity:1.0000000;"
         offset="1.0000000"
         id="stop845" />
    </linearGradient>
    <linearGradient
       id="linearGradient839">
      <stop
         style="stop-color:#46a046;stop-opacity:1.0000000;"
         offset="0.0000000"
         id="stop840" />
      <stop
         style="stop-color:#df421e;stop-opacity:1.0000000;"
         offset="0.39364964"
         id="stop841" />
      <stop
         style="stop-color:#ada7c8;stop-opacity:1.0000000;"
         offset="0.72036445"
         id="stop842" />
      <stop
         style="stop-color:#eed680;stop-opacity:1.0000000;"
         offset="1.0000000"
         id="stop843" />
    </linearGradient>
    <linearGradient
       xlink:href="#linearGradient837"
       id="linearGradient836" />
    <radialGradient
       xlink:href="#linearGradient837"
       id="radialGradient835" />
    <linearGradient
       xlink:href="#linearGradient837"
       id="linearGradient842"
       x1="0.67540985"
       y1="0.81502891"
       x2="0.036065590"
       y2="0.11849711" />
    <radialGradient
       xlink:href="#linearGradient837"
       id="radialGradient843"
       cx="0.17704920"
       cy="0.26300579"
       r="0.80718368"
       fx="0.16557382"
       fy="0.26300579" />
  </defs>
  <sodipodi:namedview
     id="base"
     pagecolor="#ffffff"
     bordercolor="#666666"
     borderopacity="1.0"
     inkscape:pageopacity="0.0"
     inkscape:pageshadow="2"
     inkscape:zoom="5.0234375"
     inkscape:cx="64.120182"
     inkscape:cy="69.374806"
     inkscape:window-width="751"
     inkscape:window-height="909"
     showgrid="true"
     snaptogrid="true"
     gridspacingx="1.0000000mm"
     gridspacingy="1.0000000mm"
     inkscape:window-x="0"
     inkscape:window-y="31" />
  <rect
     style="fill:none;fill-rule:evenodd;stroke:#000000;stroke-width:11.250000;stroke-dasharray:none;stroke-opacity:0.50000000;stroke-linejoin:round;"
     id="rect834"
     width="128.25159"
     height="145.27559"
     x="17.024004"
     y="7.6377968"
     ry="22.892691" />
  <rect
     style="fill:#ffffff;fill-rule:evenodd;stroke:#000000;stroke-width:6.2500000;stroke-dasharray:none;"
     id="rect828"
     width="128.25158"
     height="145.27559"
     x="17.091653"
     y="7.6377954"
     ry="22.892691" />
  <path
     transform="scale(2.495240,2.495240)"
     style="font-size:40.000000;fill:url(#radialGradient843);stroke:#000000;stroke-width:1.0019076;stroke-linecap:round;stroke-linejoin:round;font-family:Trek;"
     d="M 25.966595,24.589044 L 25.966595,39.989044 L 19.246595,39.989044 L 19.246595,8.8690442 L 25.966595,8.8690442 L 25.966595,23.109044 L 26.566595,23.109044 L 38.566595,8.8690442 L 46.766595,8.8690442 L 33.166595,23.909044 L 46.766595,39.989044 L 38.326595,39.989044 L 26.566595,24.589044 L 25.966595,24.589044 z "
     id="path848" />
  <path
     transform="scale(0.624191,0.624191)"
     style="font-size:40.000000;stroke-width:1.0000000pt;font-family:Trek;"
     d="M 197.33287,206.64796 L 197.33287,222.04796 L 190.61287,222.04796 L 190.61287,190.92796 L 197.33287,190.92796 L 197.33287,205.16796 L 197.93287,205.16796 L 209.93287,190.92796 L 218.13287,190.92796 L 204.53287,205.96796 L 218.13287,222.04796 L 209.69287,222.04796 L 197.93287,206.64796 L 197.33287,206.64796 z M 164.45287,222.04796 L 157.73287,222.04796 L 157.73287,190.92796 L 166.21287,190.92796 L 178.97287,213.72796 L 179.13287,213.72796 L 179.13287,190.92796 L 185.85287,190.92796 L 185.85287,222.04796 L 177.37287,222.04796 L 164.61287,199.28796 L 164.45287,199.28796 L 164.45287,222.04796 z M 145.13287,222.04796 C 143.55954,222.04796 142.11954,221.83463 140.81287,221.40796 C 139.50620,220.95463 138.38620,220.31463 137.45287,219.48796 C 136.97287,219.06129 136.50620,218.52796 136.05287,217.88796 C 135.83954,217.59463 135.66620,217.32796 135.53287,217.08796 C 135.39954,216.82129 135.22620,216.40796 135.01287,215.84796 C 134.47954,214.38129 134.21287,212.68796 134.21287,210.76796 L 134.21287,190.92796 L 140.93287,190.92796 L 140.93287,210.32796 C 140.93287,211.36796 141.05287,212.24796 141.29287,212.96796 C 141.55954,213.68796 142.01287,214.38129 142.65287,215.04796 C 143.26620,215.60796 143.97287,216.03463 144.77287,216.32796 C 145.57287,216.59463 146.43954,216.72796 147.37287,216.72796 L 156.09287,216.72796 L 156.09287,222.04796 L 145.13287,222.04796 z M 130.97287,209.04796 L 112.69287,209.04796 L 112.69287,209.24796 L 113.17287,211.68796 C 113.57287,212.96796 114.25287,214.11463 115.21287,215.12796 C 115.42620,215.28796 115.62620,215.42129 115.81287,215.52796 C 116.15954,215.74129 116.63954,215.99463 117.25287,216.28796 L 118.53287,216.60796 L 120.25287,216.72796 L 130.97287,216.72796 L 130.97287,222.04796 L 118.37287,222.04796 C 114.15954,222.04796 110.91954,220.71463 108.65287,218.04796 C 106.41287,215.35463 105.29287,211.50129 105.29287,206.48796 C 105.29287,201.42129 106.41287,197.56796 108.65287,194.92796 C 110.89287,192.26129 114.13287,190.92796 118.37287,190.92796 L 130.97287,190.92796 L 130.97287,196.28796 L 120.25287,196.28796 L 119.49287,196.28796 L 118.73287,196.36796 C 118.19954,196.36796 117.63954,196.50129 117.05287,196.76796 C 116.49287,197.03463 115.87954,197.40796 115.21287,197.88796 C 114.57287,198.52796 114.01287,199.36796 113.53287,200.40796 C 113.23954,201.10129 112.95954,202.20796 112.69287,203.72796 L 112.69287,203.92796 L 130.97287,203.92796 L 130.97287,209.04796 z M 72.732869,190.92796 L 89.252869,190.92796 C 93.439536,190.92796 96.626203,192.26129 98.812869,194.92796 C 100.99954,197.59463 102.09287,201.44796 102.09287,206.48796 C 102.09287,211.47463 100.99954,215.31463 98.812869,218.00796 C 96.652869,220.70129 93.466203,222.04796 89.252869,222.04796 L 72.732869,222.04796 L 72.732869,190.92796 z M 79.212869,216.72796 L 87.092869,216.72796 C 89.706203,216.72796 91.639536,215.88796 92.892869,214.20796 C 94.146203,212.50129 94.772869,209.92796 94.772869,206.48796 C 94.772869,203.04796 94.172869,200.48796 92.972869,198.80796 C 91.799536,197.12796 89.839536,196.28796 87.092869,196.28796 L 79.212869,196.28796 L 79.212869,216.72796 z M 50.172869,206.64796 L 50.172869,222.04796 L 43.452869,222.04796 L 43.452869,190.92796 L 50.172869,190.92796 L 50.172869,205.16796 L 50.772869,205.16796 L 62.772869,190.92796 L 70.972869,190.92796 L 57.372869,205.96796 L 70.972869,222.04796 L 62.532869,222.04796 L 50.772869,206.64796 L 50.172869,206.64796 z "
     id="path847" />
</svg>
