<?xml version="1.0" encoding="UTF-8" standalone="no"?>
<!DOCTYPE svg PUBLIC "-//W3C//DTD SVG 20010904//EN"
"http://www.w3.org/TR/2001/REC-SVG-20010904/DTD/svg10.dtd">
<!-- Created with Inkscape (http://www.inkscape.org/) -->
<svg
   id="svg1"
   sodipodi:version="0.32"
   inkscape:version="0.38.1"
   width="128.00000pt"
   height="128.00000pt"
   sodipodi:docbase="/usr/share/icons/Fuzzy/scalable/mimetypes"
   sodipodi:docname="gnome-mime-application-x-qw.svg"
   xmlns="http://www.w3.org/2000/svg"
   xmlns:inkscape="http://www.inkscape.org/namespaces/inkscape"
   xmlns:sodipodi="http://sodipodi.sourceforge.net/DTD/sodipodi-0.dtd"
   xmlns:xlink="http://www.w3.org/1999/xlink">
  <defs
     id="defs3">
    <linearGradient
       id="linearGradient839">
      <stop
         style="stop-color:#46a046;stop-opacity:1.0000000;"
         offset="0.0000000"
         id="stop840" />
      <stop
         style="stop-color:#df421e;stop-opacity:1.0000000;"
         offset="0.39364964"
         id="stop841" />
      <stop
         style="stop-color:#ada7c8;stop-opacity:1.0000000;"
         offset="0.72036445"
         id="stop842" />
      <stop
         style="stop-color:#eed680;stop-opacity:1.0000000;"
         offset="1.0000000"
         id="stop843" />
    </linearGradient>
    <linearGradient
       id="linearGradient833">
      <stop
         style="stop-color:#00ff00;stop-opacity:1.0000000;"
         offset="0.0000000"
         id="stop834" />
      <stop
         style="stop-color:#ff0000;stop-opacity:1.0000000;"
         offset="0.30839416"
         id="stop837" />
      <stop
         style="stop-color:#7f8cff;stop-opacity:1.0000000;"
         offset="0.75000000"
         id="stop838" />
      <stop
         style="stop-color:#ffff00;stop-opacity:1.0000000;"
         offset="1.0000000"
         id="stop835" />
    </linearGradient>
    <linearGradient
       xlink:href="#linearGradient839"
       id="linearGradient836"
       x1="1.3267924e-17"
       y1="0.50000000"
       x2="1.0000000"
       y2="0.50000000" />
  </defs>
  <sodipodi:namedview
     id="base"
     pagecolor="#ffffff"
     bordercolor="#666666"
     borderopacity="1.0"
     inkscape:pageopacity="0.0"
     inkscape:pageshadow="2"
     inkscape:zoom="5.0234375"
     inkscape:cx="64.000000"
     inkscape:cy="64.000000"
     inkscape:window-width="751"
     inkscape:window-height="909"
     showgrid="true"
     snaptogrid="true"
     gridspacingx="1.0000000mm"
     gridspacingy="1.0000000mm"
     inkscape:window-x="0"
     inkscape:window-y="31" />
  <rect
     style="fill:none;fill-rule:evenodd;stroke:#000000;stroke-width:11.250000;stroke-dasharray:none;stroke-opacity:0.50000000;stroke-linejoin:round;"
     id="rect834"
     width="128.25159"
     height="145.27559"
     x="17.024004"
     y="7.6377968"
     ry="22.892691" />
  <rect
     style="fill:#ffffff;fill-rule:evenodd;stroke:#000000;stroke-width:6.2500000;stroke-dasharray:none;"
     id="rect828"
     width="128.25158"
     height="145.27559"
     x="17.091653"
     y="7.6377954"
     ry="22.892691" />
  <path
     style="stroke:#000000;stroke-width:2.8465135;"
     d="M 85.839197,23.576930 C 74.721659,25.286889 64.076932,31.855105 58.934677,42.083237 C 57.462908,44.351679 56.785673,47.141189 55.514907,49.399683 C 52.964437,49.998646 49.987105,48.804240 47.709922,50.179019 C 46.149002,52.345863 45.270316,54.908139 44.022619,57.262828 C 47.481162,57.262828 50.939705,57.262828 54.398248,57.262828 C 54.540693,59.696104 54.910515,62.361582 51.629863,61.299088 C 49.441953,61.089599 46.993481,61.667638 46.437516,64.091783 C 46.176718,65.517657 43.780174,68.869612 45.825558,68.778380 C 49.064802,68.907008 52.353390,68.509206 55.561435,68.999386 C 58.420764,76.785745 62.836029,84.430961 70.004074,88.983900 C 76.718317,93.549612 85.004718,95.730726 93.092064,94.689267 C 98.314227,94.211165 103.53332,93.058228 108.00601,90.186205 C 110.21736,89.044417 113.14936,87.618098 112.72020,84.632976 C 112.75103,82.070386 112.72233,79.506870 112.73209,76.943954 C 107.10919,82.654731 99.789880,87.242123 91.564203,87.413500 C 79.469469,88.228449 67.473905,80.196155 63.447844,68.778380 C 76.180742,68.808426 88.914645,68.717619 101.64691,68.824908 C 102.46662,66.538730 104.39487,64.482610 104.27572,61.962104 C 102.34854,60.672218 99.594969,61.718386 97.331488,61.380511 C 85.486363,61.380511 73.641242,61.380511 61.796118,61.380511 C 61.756655,59.099975 61.075720,56.177963 64.401657,57.262828 C 77.726348,57.222636 91.062875,57.342311 104.38040,57.204669 C 107.63661,56.801658 107.88264,52.621223 109.09317,50.202386 C 108.87208,48.740087 104.81590,49.942758 103.05437,49.550898 C 89.879335,49.550898 76.704299,49.550898 63.529266,49.550898 C 65.304435,45.448690 67.356764,41.364008 71.005208,38.566113 C 76.137550,33.527758 83.342480,31.273682 90.374983,30.833811 C 96.884696,30.838345 103.15699,33.619671 108.17239,37.628230 C 109.51008,39.058642 110.95341,40.397162 112.72045,41.280638 C 114.49952,39.613155 114.74442,36.941298 115.97738,34.894740 C 108.62363,26.481387 96.888197,22.249285 85.839197,23.576930 z "
     id="path831" />
  <path
     style="font-size:40.000000;stroke-width:1.0000000pt;font-family:Trek;"
     d="M 116.47888,113.08915 L 106.47888,113.08915 C 104.93221,113.08915 103.69221,113.26248 102.75888,113.60915 C 102.30555,113.74248 101.90555,113.90248 101.55888,114.08915 C 101.21221,114.27582 100.87888,114.54248 100.55888,114.88915 C 99.678879,115.68915 99.038879,116.67582 98.638879,117.84915 L 98.398879,118.80915 L 98.318879,119.88915 L 98.318879,120.72915 L 116.47888,120.72915 L 116.47888,125.84915 L 98.318879,125.84915 L 98.318879,138.84915 L 91.598879,138.84915 L 91.598879,123.28915 C 91.598879,121.92915 91.638879,120.74248 91.718879,119.72915 C 91.798879,118.68915 91.932213,117.78248 92.118879,117.00915 C 92.678879,114.44915 93.852213,112.35582 95.638879,110.72915 C 96.758879,109.68915 98.118879,108.92915 99.718879,108.44915 C 101.31888,107.96915 103.34555,107.72915 105.79888,107.72915 L 116.47888,107.72915 L 116.47888,113.08915 z M 86.918879,138.84915 L 80.198879,138.84915 L 80.198879,107.72915 L 86.918879,107.72915 L 86.918879,138.84915 z M 45.038879,123.28915 C 45.038879,120.70248 45.292213,118.51582 45.798879,116.72915 C 46.332213,114.91582 47.158879,113.32915 48.278879,111.96915 C 50.812213,108.84915 54.998879,107.28915 60.838879,107.28915 C 66.518879,107.28915 70.705546,108.83582 73.398879,111.92915 C 73.852213,112.48915 74.305546,113.20915 74.758879,114.08915 C 74.812213,114.19582 74.945546,114.50248 75.158879,115.00915 C 75.372213,115.51582 75.585546,116.08915 75.798879,116.72915 C 76.358879,118.62248 76.638879,120.80915 76.638879,123.28915 C 76.638879,125.76915 76.372213,127.87582 75.838879,129.60915 C 75.332213,131.34248 74.572213,132.76915 73.558879,133.88915 L 73.478879,133.96915 L 77.038879,133.96915 L 77.038879,138.84915 L 60.838879,138.84915 C 55.105546,138.84915 50.918879,137.36915 48.278879,134.40915 C 46.118879,131.92915 45.038879,128.22248 45.038879,123.28915 z M 60.838879,112.40915 C 58.118879,112.40915 56.025546,113.06248 54.558879,114.36915 C 52.878879,115.96915 52.038879,118.94248 52.038879,123.28915 C 52.038879,126.75582 52.505546,129.19582 53.438879,130.60915 C 54.718879,132.68915 57.185546,133.72915 60.838879,133.72915 C 64.332213,133.72915 66.798879,132.68915 68.238879,130.60915 C 69.198879,129.08915 69.678879,126.64915 69.678879,123.28915 C 69.678879,119.82248 69.212213,117.31582 68.278879,115.76915 C 66.918879,113.52915 64.438879,112.40915 60.838879,112.40915 z "
     id="path842" />
</svg>
