<?xml version="1.0" encoding="UTF-8" standalone="no"?>
<!DOCTYPE svg PUBLIC "-//W3C//DTD SVG 20010904//EN"
"http://www.w3.org/TR/2001/REC-SVG-20010904/DTD/svg10.dtd">
<!-- Created with Inkscape (http://www.inkscape.org/) -->
<svg
   id="svg1"
   sodipodi:version="0.32"
   inkscape:version="0.38.1"
   width="128.00000pt"
   height="128.00000pt"
   sodipodi:docbase="/usr/share/icons/Fuzzy/scalable/mimetypes"
   sodipodi:docname="gnome-mime-audio-x-aiff.svg"
   xmlns="http://www.w3.org/2000/svg"
   xmlns:inkscape="http://www.inkscape.org/namespaces/inkscape"
   xmlns:sodipodi="http://sodipodi.sourceforge.net/DTD/sodipodi-0.dtd"
   xmlns:xlink="http://www.w3.org/1999/xlink">
  <defs
     id="defs3">
    <linearGradient
       id="linearGradient839">
      <stop
         style="stop-color:#46a046;stop-opacity:1.0000000;"
         offset="0.0000000"
         id="stop840" />
      <stop
         style="stop-color:#df421e;stop-opacity:1.0000000;"
         offset="0.39364964"
         id="stop841" />
      <stop
         style="stop-color:#ada7c8;stop-opacity:1.0000000;"
         offset="0.72036445"
         id="stop842" />
      <stop
         style="stop-color:#eed680;stop-opacity:1.0000000;"
         offset="1.0000000"
         id="stop843" />
    </linearGradient>
    <linearGradient
       xlink:href="#linearGradient839"
       id="linearGradient836"
       x1="1.3267924e-17"
       y1="0.50000000"
       x2="1.0000000"
       y2="0.50000000" />
  </defs>
  <sodipodi:namedview
     id="base"
     pagecolor="#ffffff"
     bordercolor="#666666"
     borderopacity="1.0"
     inkscape:pageopacity="0.0"
     inkscape:pageshadow="2"
     inkscape:zoom="5.0234375"
     inkscape:cx="66.459321"
     inkscape:cy="64.000000"
     inkscape:window-width="751"
     inkscape:window-height="909"
     showgrid="true"
     snaptogrid="true"
     gridspacingx="1.0000000mm"
     gridspacingy="1.0000000mm"
     inkscape:window-x="0"
     inkscape:window-y="31" />
  <rect
     style="fill:none;fill-rule:evenodd;stroke:#000000;stroke-width:11.250000;stroke-dasharray:none;stroke-opacity:0.50000000;stroke-linejoin:round;"
     id="rect834"
     width="128.25159"
     height="145.27559"
     x="17.024004"
     y="7.6377953"
     ry="22.892691" />
  <rect
     style="fill:#ffffff;fill-rule:evenodd;stroke:#000000;stroke-width:6.2500000;stroke-dasharray:none;"
     id="rect828"
     width="128.25158"
     height="145.27559"
     x="17.091653"
     y="7.6377954"
     ry="22.892691" />
  <path
     style="fill:#4b6983;fill-rule:evenodd;stroke:#000000;stroke-width:1.5059674;stroke-linejoin:round;"
     d="M 89.725711,30.433362 L 74.778985,94.455805 L 104.65881,79.520341 C 107.41966,77.077142 110.92444,76.441725 112.63525,70.717991 C 114.25030,65.314633 113.28001,62.195194 111.06214,58.175920 L 111.06214,58.175920 L 89.725711,30.433362 z "
     id="path831"
     sodipodi:nodetypes="ccccccc" />
  <path
     sodipodi:type="arc"
     style="fill-rule:evenodd;stroke:#000000;stroke-width:5.0000000;fill:#9db8d2;fill-opacity:1.0000000;stroke-dasharray:none;"
     id="path825"
     sodipodi:cx="100.98425"
     sodipodi:cy="78.503937"
     sodipodi:rx="44.291340"
     sodipodi:ry="70.866142"
     d="M 145.27559 78.503937 A 44.291340 70.866142 0 1 0 56.692913,78.503937 A 44.291340 70.866142 0 1 0 145.27559 78.503937 z"
     transform="matrix(0.477735,0.122682,-0.122682,0.477735,35.52938,11.17656)" />
  <path
     sodipodi:type="arc"
     style="fill-rule:evenodd;stroke:#000000;stroke-width:2.2747321;stroke-dasharray:none;fill:#7590ae;fill-opacity:1.0000000;"
     id="path826"
     sodipodi:cx="102.75591"
     sodipodi:cy="85.590553"
     sodipodi:rx="28.346457"
     sodipodi:ry="56.692913"
     d="M 131.10237 85.590553 A 28.346457 56.692913 0 1 0 74.409456,85.590553 A 28.346457 56.692913 0 1 0 131.10237 85.590553 z"
     transform="matrix(0.575251,0.147724,-0.135083,0.526023,24.05911,0.197551)" />
  <path
     sodipodi:type="arc"
     style="fill-rule:evenodd;stroke:#000000;stroke-width:1.0000000pt;fill:#314e6c;fill-opacity:1.0000000;"
     id="path827"
     sodipodi:cx="33.661419"
     sodipodi:cy="51.929134"
     sodipodi:rx="12.401575"
     sodipodi:ry="19.488190"
     d="M 46.062994 51.929134 A 12.401575 19.488190 0 1 0 21.259844,51.929134 A 12.401575 19.488190 0 1 0 46.062994 51.929134 z"
     transform="matrix(0.477735,0.122682,-0.140577,0.547423,70.71934,29.45280)" />
  <path
     style="font-size:40.000000;stroke-width:1.0000000pt;font-family:Trek;"
     d="M 131.08187,113.33798 L 121.08187,113.33798 C 119.53520,113.33798 118.29520,113.51131 117.36187,113.85798 C 116.90853,113.99131 116.50853,114.15131 116.16187,114.33798 C 115.81520,114.52464 115.48187,114.79131 115.16187,115.13798 C 114.28187,115.93798 113.64187,116.92464 113.24187,118.09798 L 113.00187,119.05798 L 112.92187,120.13798 L 112.92187,120.97798 L 131.08187,120.97798 L 131.08187,126.09798 L 112.92187,126.09798 L 112.92187,139.09798 L 106.20187,139.09798 L 106.20187,123.53798 C 106.20187,122.17798 106.24187,120.99131 106.32187,119.97798 C 106.40187,118.93798 106.53520,118.03131 106.72187,117.25798 C 107.28187,114.69798 108.45520,112.60464 110.24187,110.97798 C 111.36187,109.93798 112.72187,109.17798 114.32187,108.69798 C 115.92187,108.21798 117.94853,107.97798 120.40187,107.97798 L 131.08187,107.97798 L 131.08187,113.33798 z M 103.00187,113.33798 L 93.001868,113.33798 C 91.455201,113.33798 90.215201,113.51131 89.281868,113.85798 C 88.828534,113.99131 88.428534,114.15131 88.081868,114.33798 C 87.735201,114.52464 87.401868,114.79131 87.081868,115.13798 C 86.201868,115.93798 85.561868,116.92464 85.161868,118.09798 L 84.921868,119.05798 L 84.841868,120.13798 L 84.841868,120.97798 L 103.00187,120.97798 L 103.00187,126.09798 L 84.841868,126.09798 L 84.841868,139.09798 L 78.121868,139.09798 L 78.121868,123.53798 C 78.121868,122.17798 78.161868,120.99131 78.241868,119.97798 C 78.321868,118.93798 78.455201,118.03131 78.641868,117.25798 C 79.201868,114.69798 80.375201,112.60464 82.161868,110.97798 C 83.281868,109.93798 84.641868,109.17798 86.241868,108.69798 C 87.841868,108.21798 89.868534,107.97798 92.321868,107.97798 L 103.00187,107.97798 L 103.00187,113.33798 z M 73.441868,139.09798 L 66.721868,139.09798 L 66.721868,107.97798 L 73.441868,107.97798 L 73.441868,139.09798 z M 31.601868,139.09798 L 44.921868,107.97798 L 51.761868,107.97798 L 65.081868,139.09798 L 57.961868,139.09798 L 54.881868,131.53798 L 41.881868,131.53798 L 38.761868,139.09798 L 31.601868,139.09798 z M 48.361868,115.57798 L 43.801868,126.65798 L 52.881868,126.65798 L 48.361868,115.57798 z "
     id="path839" />
</svg>
