<?xml version="1.0" encoding="UTF-8" standalone="no"?>
<!DOCTYPE svg PUBLIC "-//W3C//DTD SVG 20010904//EN"
"http://www.w3.org/TR/2001/REC-SVG-20010904/DTD/svg10.dtd">
<!-- Created with Inkscape (http://www.inkscape.org/) -->
<svg
   id="svg1"
   sodipodi:version="0.32"
   inkscape:version="0.38.1"
   width="128.00000pt"
   height="128.00000pt"
   sodipodi:docbase="/usr/share/icons/Fuzzy/scalable/mimetypes"
   sodipodi:docname="gnome-mime-audio-x-mpegurl.svg"
   xmlns="http://www.w3.org/2000/svg"
   xmlns:inkscape="http://www.inkscape.org/namespaces/inkscape"
   xmlns:sodipodi="http://sodipodi.sourceforge.net/DTD/sodipodi-0.dtd"
   xmlns:xlink="http://www.w3.org/1999/xlink">
  <defs
     id="defs3">
    <linearGradient
       id="linearGradient839">
      <stop
         style="stop-color:#46a046;stop-opacity:1.0000000;"
         offset="0.0000000"
         id="stop840" />
      <stop
         style="stop-color:#df421e;stop-opacity:1.0000000;"
         offset="0.39364964"
         id="stop841" />
      <stop
         style="stop-color:#ada7c8;stop-opacity:1.0000000;"
         offset="0.72036445"
         id="stop842" />
      <stop
         style="stop-color:#eed680;stop-opacity:1.0000000;"
         offset="1.0000000"
         id="stop843" />
    </linearGradient>
    <linearGradient
       xlink:href="#linearGradient839"
       id="linearGradient836"
       x1="1.3267924e-17"
       y1="0.50000000"
       x2="1.0000000"
       y2="0.50000000" />
  </defs>
  <sodipodi:namedview
     id="base"
     pagecolor="#ffffff"
     bordercolor="#666666"
     borderopacity="1.0"
     inkscape:pageopacity="0.0"
     inkscape:pageshadow="2"
     inkscape:zoom="5.0234375"
     inkscape:cx="69.609852"
     inkscape:cy="64.000000"
     inkscape:window-width="751"
     inkscape:window-height="909"
     showgrid="true"
     snaptogrid="true"
     gridspacingx="1.0000000mm"
     gridspacingy="1.0000000mm"
     inkscape:window-x="0"
     inkscape:window-y="31" />
  <rect
     style="fill:none;fill-rule:evenodd;stroke:#000000;stroke-width:11.250000;stroke-dasharray:none;stroke-opacity:0.50000000;stroke-linejoin:round;"
     id="rect834"
     width="128.25159"
     height="145.27559"
     x="17.024004"
     y="7.6377953"
     ry="22.892691" />
  <rect
     style="fill:#ffffff;fill-rule:evenodd;stroke:#000000;stroke-width:6.2500000;stroke-dasharray:none;"
     id="rect828"
     width="128.25158"
     height="145.27559"
     x="17.091653"
     y="7.6377954"
     ry="22.892691" />
  <path
     style="fill:#4b6983;fill-rule:evenodd;stroke:#000000;stroke-width:1.5059674;stroke-linejoin:round;"
     d="M 89.725711,30.433362 L 74.778985,94.455805 L 104.65881,79.520341 C 107.41966,77.077142 110.92444,76.441725 112.63525,70.717991 C 114.25030,65.314633 113.28001,62.195194 111.06214,58.175920 L 111.06214,58.175920 L 89.725711,30.433362 z "
     id="path831"
     sodipodi:nodetypes="ccccccc" />
  <path
     sodipodi:type="arc"
     style="fill-rule:evenodd;stroke:#000000;stroke-width:5.0000000;fill:#9db8d2;fill-opacity:1.0000000;stroke-dasharray:none;"
     id="path825"
     sodipodi:cx="100.98425"
     sodipodi:cy="78.503937"
     sodipodi:rx="44.291340"
     sodipodi:ry="70.866142"
     d="M 145.27559 78.503937 A 44.291340 70.866142 0 1 0 56.692913,78.503937 A 44.291340 70.866142 0 1 0 145.27559 78.503937 z"
     transform="matrix(0.477735,0.122682,-0.122682,0.477735,35.52938,11.17656)" />
  <path
     sodipodi:type="arc"
     style="fill-rule:evenodd;stroke:#000000;stroke-width:2.2747321;stroke-dasharray:none;fill:#7590ae;fill-opacity:1.0000000;"
     id="path826"
     sodipodi:cx="102.75591"
     sodipodi:cy="85.590553"
     sodipodi:rx="28.346457"
     sodipodi:ry="56.692913"
     d="M 131.10237 85.590553 A 28.346457 56.692913 0 1 0 74.409456,85.590553 A 28.346457 56.692913 0 1 0 131.10237 85.590553 z"
     transform="matrix(0.575251,0.147724,-0.135083,0.526023,24.05911,0.197551)" />
  <path
     sodipodi:type="arc"
     style="fill-rule:evenodd;stroke:#000000;stroke-width:1.0000000pt;fill:#314e6c;fill-opacity:1.0000000;"
     id="path827"
     sodipodi:cx="33.661419"
     sodipodi:cy="51.929134"
     sodipodi:rx="12.401575"
     sodipodi:ry="19.488190"
     d="M 46.062994 51.929134 A 12.401575 19.488190 0 1 0 21.259844,51.929134 A 12.401575 19.488190 0 1 0 46.062994 51.929134 z"
     transform="matrix(0.477735,0.122682,-0.140577,0.547423,70.71934,29.45280)" />
  <path
     style="font-size:40.000000;stroke-width:1.0000000pt;font-family:Trek;"
     d="M 103.06837,107.72914 L 109.78837,107.72914 L 109.78837,128.56914 C 109.78837,130.32914 110.42837,131.70247 111.70837,132.68914 C 112.98837,133.67580 114.72170,134.16914 116.90837,134.16914 C 119.04170,134.16914 120.77503,133.68914 122.10837,132.72914 C 123.46837,131.76914 124.14837,130.38247 124.14837,128.56914 L 124.14837,107.72914 L 130.86837,107.72914 L 130.86837,128.80914 C 130.86837,132.03580 129.54837,134.59580 126.90837,136.48914 C 124.26837,138.35580 120.93503,139.28914 116.90837,139.28914 C 112.85503,139.28914 109.56170,138.38247 107.02837,136.56914 C 104.38837,134.67580 103.06837,132.08914 103.06837,128.80914 L 103.06837,107.72914 z M 95.628366,123.56914 C 96.881699,124.18247 97.815032,124.88914 98.428366,125.68914 C 99.575032,127.07580 100.14837,128.70247 100.14837,130.56914 C 100.14837,133.31580 99.055032,135.48914 96.868366,137.08914 C 96.041699,137.67580 95.121699,138.11580 94.108366,138.40914 C 93.121699,138.70247 92.095032,138.84914 91.028366,138.84914 L 73.508366,138.84914 L 73.508366,133.52914 L 88.788366,133.52914 C 90.015032,133.52914 90.975032,133.23580 91.668366,132.64914 C 92.548366,132.00914 92.988366,131.02247 92.988366,129.68914 C 92.988366,128.40914 92.588366,127.44914 91.788366,126.80914 C 90.988366,126.16914 89.988366,125.84914 88.788366,125.84914 L 77.028366,125.84914 L 77.028366,120.72914 L 88.788366,120.72914 C 89.988366,120.72914 90.948366,120.44914 91.668366,119.88914 C 92.548366,119.24914 92.988366,118.24914 92.988366,116.88914 C 92.988366,115.68914 92.588366,114.75580 91.788366,114.08914 C 90.988366,113.42247 89.988366,113.08914 88.788366,113.08914 L 73.508366,113.08914 L 73.508366,107.72914 L 91.028366,107.72914 C 93.188366,107.72914 95.135032,108.30247 96.868366,109.44914 C 99.055032,110.99580 100.14837,113.18247 100.14837,116.00914 C 100.14837,117.84914 99.575032,119.46247 98.428366,120.84914 C 97.788366,121.64914 96.855032,122.36914 95.628366,123.00914 L 95.108366,123.28914 L 95.628366,123.56914 z M 39.068366,138.84914 L 32.348366,138.84914 L 32.348366,107.72914 L 42.348366,107.72914 L 50.508366,131.76914 L 58.748366,107.72914 L 68.788366,107.72914 L 68.788366,138.84914 L 62.068366,138.84914 L 62.068366,115.60914 L 61.908366,115.60914 L 53.828366,138.84914 L 47.308366,138.84914 L 39.228366,115.60914 L 39.068366,115.60914 L 39.068366,138.84914 z "
     id="path840" />
</svg>
