<?xml version="1.0" encoding="UTF-8" standalone="no"?>
<!DOCTYPE svg PUBLIC "-//W3C//DTD SVG 20010904//EN"
"http://www.w3.org/TR/2001/REC-SVG-20010904/DTD/svg10.dtd">
<!-- Created with Inkscape (http://www.inkscape.org/) -->
<svg
   id="svg1"
   sodipodi:version="0.32"
   inkscape:version="0.38.1"
   width="128.00000pt"
   height="128.00000pt"
   sodipodi:docbase="/usr/share/icons/Fuzzy/scalable/mimetypes"
   sodipodi:docname="gnome-mime-application-x-font-pcf.svg"
   xmlns="http://www.w3.org/2000/svg"
   xmlns:inkscape="http://www.inkscape.org/namespaces/inkscape"
   xmlns:sodipodi="http://sodipodi.sourceforge.net/DTD/sodipodi-0.dtd"
   xmlns:xlink="http://www.w3.org/1999/xlink">
  <defs
     id="defs3">
    <linearGradient
       id="linearGradient839">
      <stop
         style="stop-color:#46a046;stop-opacity:1.0000000;"
         offset="0.0000000"
         id="stop840" />
      <stop
         style="stop-color:#df421e;stop-opacity:1.0000000;"
         offset="0.39364964"
         id="stop841" />
      <stop
         style="stop-color:#ada7c8;stop-opacity:1.0000000;"
         offset="0.72036445"
         id="stop842" />
      <stop
         style="stop-color:#eed680;stop-opacity:1.0000000;"
         offset="1.0000000"
         id="stop843" />
    </linearGradient>
    <linearGradient
       xlink:href="#linearGradient839"
       id="linearGradient836"
       x1="1.3267924e-17"
       y1="0.50000000"
       x2="1.0000000"
       y2="0.50000000" />
  </defs>
  <sodipodi:namedview
     id="base"
     pagecolor="#ffffff"
     bordercolor="#666666"
     borderopacity="1.0"
     inkscape:pageopacity="0.0"
     inkscape:pageshadow="2"
     inkscape:zoom="5.0234375"
     inkscape:cx="72.028518"
     inkscape:cy="71.340591"
     inkscape:window-width="751"
     inkscape:window-height="909"
     showgrid="true"
     snaptogrid="true"
     gridspacingx="1.0000000mm"
     gridspacingy="1.0000000mm"
     inkscape:window-x="0"
     inkscape:window-y="31" />
  <rect
     style="fill:none;fill-rule:evenodd;stroke:#000000;stroke-width:11.250000;stroke-dasharray:none;stroke-opacity:0.50000000;stroke-linejoin:round;"
     id="rect834"
     width="128.25159"
     height="145.27559"
     x="17.024004"
     y="7.6377968"
     ry="22.892691" />
  <rect
     style="fill:#ffffff;fill-rule:evenodd;stroke:#000000;stroke-width:6.2500000;stroke-dasharray:none;"
     id="rect828"
     width="128.25158"
     height="145.27559"
     x="17.091653"
     y="7.6377954"
     ry="22.892691" />
  <rect
     style="fill:#ffffff;fill-rule:evenodd;stroke:#000000;stroke-width:5.5853095;"
     id="rect849"
     width="92.758515"
     height="69.498535"
     ry="11.146752"
     x="35.344905"
     y="24.536432" />
  <path
     style="font-size:40.000000;stroke-width:1.0000000pt;font-family:Trek;"
     d="M 47.029549,63.307622 L 59.231391,34.800015 L 65.497202,34.800015 L 77.699044,63.307622 L 71.176738,63.307622 L 68.355291,56.382252 L 56.446586,56.382252 L 53.588497,63.307622 L 47.029549,63.307622 z M 62.382618,41.762027 L 58.205410,51.911908 L 66.523183,51.911908 L 62.382618,41.762027 z "
     id="path896" />
  <path
     style="font-size:40.000000;stroke-width:1.0000000pt;font-family:Trek;"
     d="M 79.625684,84.734454 L 79.625684,56.226847 L 84.975440,56.226847 L 84.975440,64.361409 L 91.461102,64.361409 C 94.539054,64.361409 96.981860,65.240821 98.789546,66.999645 C 99.595674,67.830201 100.23080,68.905037 100.69494,70.224156 C 101.18350,71.518846 101.42778,72.960104 101.42778,74.547931 C 101.42778,77.870155 100.57279,80.398465 98.862830,82.132860 C 97.177291,83.867257 94.710044,84.734454 91.461102,84.734454 L 79.625684,84.734454 z M 84.975440,80.447320 L 90.618332,80.447320 C 92.132881,80.447320 93.354284,79.922116 94.282558,78.871707 C 95.235255,77.821299 95.711603,76.380040 95.711603,74.547931 C 95.711603,72.740251 95.259677,71.311207 94.355843,70.260798 C 93.476431,69.185961 92.230588,68.648542 90.618332,68.648542 L 84.975440,68.648542 L 84.975440,80.447320 z "
     id="path897" />
  <path
     style="font-size:40.000000;stroke-width:1.0000000pt;font-family:Trek;"
     d="M 112.19876,34.572070 L 112.19876,39.482121 L 101.64582,39.482121 C 99.300723,39.482121 97.541898,40.263820 96.369345,41.827220 C 95.196796,43.390618 94.610521,45.723503 94.610521,48.825874 C 94.610521,51.952672 95.160154,54.297771 96.259419,55.861170 C 97.358688,57.424569 99.154154,58.206269 101.64582,58.206269 L 112.19876,58.206269 L 112.19876,63.079677 L 99.813713,63.079677 C 95.954068,63.079677 92.986052,61.858271 90.909662,59.415461 C 88.857701,56.948221 87.831720,53.418359 87.831720,48.825874 C 87.831720,44.184532 88.857701,40.654670 90.909662,38.236287 C 92.961624,35.793476 95.929639,34.572070 99.813713,34.572070 L 112.19876,34.572070 z "
     id="path843" />
  <path
     style="font-size:40.000000;stroke-width:1.0000000pt;font-family:Trek;"
     d="M 124.36921,112.84031 L 114.36921,112.84031 C 112.82254,112.84031 111.58254,113.01364 110.64921,113.36031 C 110.19587,113.49364 109.79587,113.65364 109.44921,113.84031 C 109.10254,114.02698 108.76921,114.29364 108.44921,114.64031 C 107.56921,115.44031 106.92921,116.42698 106.52921,117.60031 L 106.28921,118.56031 L 106.20921,119.64031 L 106.20921,120.48031 L 124.36921,120.48031 L 124.36921,125.60031 L 106.20921,125.60031 L 106.20921,138.60031 L 99.489206,138.60031 L 99.489206,123.04031 C 99.489206,121.68031 99.529206,120.49364 99.609206,119.48031 C 99.689206,118.44031 99.822540,117.53364 100.00921,116.76031 C 100.56921,114.20031 101.74254,112.10698 103.52921,110.48031 C 104.64921,109.44031 106.00921,108.68031 107.60921,108.20031 C 109.20921,107.72031 111.23587,107.48031 113.68921,107.48031 L 124.36921,107.48031 L 124.36921,112.84031 z M 96.409206,107.48031 L 96.409206,112.84031 L 84.889206,112.84031 C 82.329206,112.84031 80.409206,113.69364 79.129206,115.40031 C 77.849206,117.10698 77.209206,119.65364 77.209206,123.04031 C 77.209206,126.45364 77.809206,129.01364 79.009206,130.72031 C 80.209206,132.42698 82.169206,133.28031 84.889206,133.28031 L 96.409206,133.28031 L 96.409206,138.60031 L 82.889206,138.60031 C 78.675873,138.60031 75.435873,137.26698 73.169206,134.60031 C 70.929206,131.90698 69.809206,128.05364 69.809206,123.04031 C 69.809206,117.97364 70.929206,114.12031 73.169206,111.48031 C 75.409206,108.81364 78.649206,107.48031 82.889206,107.48031 L 96.409206,107.48031 z M 45.289206,127.48031 L 45.289206,138.60031 L 38.569206,138.60031 L 38.569206,107.48031 L 57.249206,107.48031 C 60.129206,107.48031 62.409206,108.33364 64.089206,110.04031 C 65.769206,111.72031 66.609206,114.20031 66.609206,117.48031 C 66.609206,120.73364 65.769206,123.21364 64.089206,124.92031 C 62.409206,126.62698 60.129206,127.48031 57.249206,127.48031 L 45.289206,127.48031 z M 45.289206,112.84031 L 45.289206,122.16031 L 54.209206,122.16031 C 55.675873,122.16031 56.875873,121.78698 57.809206,121.04031 C 58.742540,120.26698 59.209206,119.08031 59.209206,117.48031 C 59.209206,115.90698 58.742540,114.74698 57.809206,114.00031 C 56.902540,113.22698 55.702540,112.84031 54.209206,112.84031 L 45.289206,112.84031 z "
     id="path855" />
</svg>
