<?xml version="1.0" encoding="UTF-8" standalone="no"?>
<!DOCTYPE svg PUBLIC "-//W3C//DTD SVG 20010904//EN"
"http://www.w3.org/TR/2001/REC-SVG-20010904/DTD/svg10.dtd">
<!-- Created with Inkscape (http://www.inkscape.org/) -->
<svg
   id="svg1"
   sodipodi:version="0.32"
   inkscape:version="0.38.1"
   width="128.00000pt"
   height="128.00000pt"
   sodipodi:docbase="/usr/share/icons/Fuzzy/scalable/mimetypes"
   sodipodi:docname="gnome-mime-application-x-cd-image.svg"
   xmlns="http://www.w3.org/2000/svg"
   xmlns:inkscape="http://www.inkscape.org/namespaces/inkscape"
   xmlns:sodipodi="http://sodipodi.sourceforge.net/DTD/sodipodi-0.dtd"
   xmlns:xlink="http://www.w3.org/1999/xlink">
  <defs
     id="defs3">
    <linearGradient
       id="linearGradient839">
      <stop
         style="stop-color:#46a046;stop-opacity:1.0000000;"
         offset="0.0000000"
         id="stop840" />
      <stop
         style="stop-color:#df421e;stop-opacity:1.0000000;"
         offset="0.39364964"
         id="stop841" />
      <stop
         style="stop-color:#ada7c8;stop-opacity:1.0000000;"
         offset="0.72036445"
         id="stop842" />
      <stop
         style="stop-color:#eed680;stop-opacity:1.0000000;"
         offset="1.0000000"
         id="stop843" />
    </linearGradient>
    <linearGradient
       id="linearGradient837">
      <stop
         style="stop-color:#eed680;stop-opacity:1.0000000;"
         offset="0.0000000"
         id="stop838" />
      <stop
         style="stop-color:#dfb546;stop-opacity:1.0000000;"
         offset="0.72068703"
         id="stop846" />
      <stop
         style="stop-color:#d1940c;stop-opacity:1.0000000;"
         offset="1.0000000"
         id="stop845" />
    </linearGradient>
    <linearGradient
       id="linearGradient828">
      <stop
         style="stop-color:#000000;stop-opacity:1.0000000;"
         offset="0.0000000"
         id="stop829" />
      <stop
         style="stop-color:#ffffff;stop-opacity:1.0000000;"
         offset="1.0000000"
         id="stop830" />
    </linearGradient>
    <linearGradient
       xlink:href="#linearGradient828"
       id="linearGradient831"
       x1="0.024752475"
       y1="0.049751244"
       x2="0.48514852"
       y2="0.50248754"
       spreadMethod="reflect" />
    <linearGradient
       xlink:href="#linearGradient839"
       id="linearGradient836"
       x1="1.3267924e-17"
       y1="0.50000000"
       x2="1.0000000"
       y2="0.50000000" />
    <radialGradient
       xlink:href="#linearGradient837"
       id="radialGradient835"
       cx="0.26557374"
       cy="0.32026142"
       r="0.45951825"
       fx="0.26557377"
       fy="0.31045750" />
    <radialGradient
       xlink:href="#linearGradient828"
       id="radialGradient839"
       cx="0.50000000"
       cy="0.50000000"
       r="0.50000000"
       fx="0.50000000"
       fy="0.50000000"
       spreadMethod="reflect" />
  </defs>
  <sodipodi:namedview
     id="base"
     pagecolor="#ffffff"
     bordercolor="#666666"
     borderopacity="1.0"
     inkscape:pageopacity="0.0"
     inkscape:pageshadow="2"
     inkscape:zoom="5.0234375"
     inkscape:cx="72.280884"
     inkscape:cy="69.175739"
     inkscape:window-width="751"
     inkscape:window-height="909"
     showgrid="true"
     snaptogrid="false"
     gridspacingx="1.0000000mm"
     gridspacingy="1.0000000mm"
     inkscape:window-x="0"
     inkscape:window-y="31" />
  <rect
     style="fill:none;fill-rule:evenodd;stroke:#000000;stroke-width:11.250000;stroke-dasharray:none;stroke-opacity:0.50000000;stroke-linejoin:round;"
     id="rect834"
     width="128.25159"
     height="145.27559"
     x="17.242791"
     y="7.7354550"
     ry="22.892691" />
  <path
     sodipodi:type="arc"
     style="fill-rule:evenodd;stroke:#000000;stroke-width:6.2500000;fill:url(#radialGradient839);stroke-dasharray:none;"
     id="path832"
     sodipodi:cx="79.724411"
     sodipodi:cy="80.275589"
     sodipodi:rx="76.181099"
     sodipodi:ry="76.181099"
     d="M 155.90551 80.275589 A 76.181099 76.181099 0 1 0 3.5433121,80.275589 A 76.181099 76.181099 0 1 0 155.90551 80.275589 z"
     transform="matrix(0.511516,0.000000,0.000000,0.510171,40.95711,21.97021)" />
  <rect
     style="fill:#ffffff;fill-rule:evenodd;stroke:#000000;stroke-width:6.2500000;stroke-dasharray:none;"
     id="rect828"
     width="128.25158"
     height="145.27559"
     x="17.091653"
     y="7.6377954"
     ry="22.892691" />
  <path
     sodipodi:type="arc"
     style="fill-rule:evenodd;stroke:#000000;stroke-width:6.2500000;fill:url(#linearGradient831);stroke-dasharray:none;"
     id="path827"
     sodipodi:cx="79.724411"
     sodipodi:cy="80.275589"
     sodipodi:rx="76.181099"
     sodipodi:ry="76.181099"
     d="M 155.90551 80.275589 A 76.181099 76.181099 0 1 0 3.5433121,80.275589 A 76.181099 76.181099 0 1 0 155.90551 80.275589 z"
     transform="matrix(0.511516,0.000000,0.000000,0.510171,40.95711,21.97021)" />
  <path
     sodipodi:type="arc"
     style="fill-rule:evenodd;stroke:#000000;stroke-width:6.2500000;fill:#000000;stroke-dasharray:none;fill-opacity:0.0000000;"
     id="path840"
     sodipodi:cx="79.724411"
     sodipodi:cy="80.275589"
     sodipodi:rx="76.181099"
     sodipodi:ry="76.181099"
     d="M 155.90551 80.275589 A 76.181099 76.181099 0 1 0 3.5433121,80.275589 A 76.181099 76.181099 0 1 0 155.90551 80.275589 z"
     transform="matrix(0.146815,0.000000,0.000000,0.156866,70.23072,51.00642)" />
  <path
     sodipodi:type="arc"
     style="fill-rule:evenodd;stroke:#000000;stroke-width:6.2500000;fill:#ffffff;stroke-dasharray:none;fill-opacity:1.0000000;"
     id="path842"
     sodipodi:cx="79.724411"
     sodipodi:cy="80.275589"
     sodipodi:rx="76.181099"
     sodipodi:ry="76.181099"
     d="M 155.90551 80.275589 A 76.181099 76.181099 0 1 0 3.5433121,80.275589 A 76.181099 76.181099 0 1 0 155.90551 80.275589 z"
     transform="matrix(5.690903e-2,0.000000,0.000000,6.080520e-2,77.30711,58.94714)" />
  <path
     style="font-size:40.000000;stroke-width:1.0000000pt;font-family:Trek;"
     d="M 88.608210,126.52398 C 88.608210,123.93732 88.861543,121.75065 89.368210,119.96398 C 89.901543,118.15065 90.728210,116.56398 91.848210,115.20398 C 94.381543,112.08398 98.568210,110.52398 104.40821,110.52398 C 110.08821,110.52398 114.27488,112.07065 116.96821,115.16398 C 117.42154,115.72398 117.87488,116.44398 118.32821,117.32398 C 118.38154,117.43065 118.51488,117.73732 118.72821,118.24398 C 118.94154,118.75065 119.15488,119.32398 119.36821,119.96398 C 119.92821,121.85732 120.20821,124.04398 120.20821,126.52398 C 120.20821,131.43065 119.14154,135.20398 117.00821,137.84398 C 114.39488,140.96398 110.19488,142.52398 104.40821,142.52398 C 98.568210,142.52398 94.381543,140.97732 91.848210,137.88398 C 89.688210,135.32398 88.608210,131.53732 88.608210,126.52398 z M 104.40821,115.64398 C 101.68821,115.64398 99.594877,116.29732 98.128210,117.60398 C 96.448210,119.20398 95.608210,122.17732 95.608210,126.52398 C 95.608210,129.93732 96.074877,132.44398 97.008210,134.04398 C 98.288210,136.28398 100.75488,137.40398 104.40821,137.40398 C 107.90154,137.40398 110.36821,136.28398 111.80821,134.04398 C 112.76821,132.44398 113.24821,129.93732 113.24821,126.52398 C 113.24821,123.05732 112.78154,120.55065 111.84821,119.00398 C 110.48821,116.76398 108.00821,115.64398 104.40821,115.64398 z M 83.768210,110.96398 L 83.768210,116.32398 L 66.568210,116.32398 C 65.474877,116.32398 64.488210,116.64398 63.608210,117.28398 C 62.861543,117.95065 62.488210,118.87065 62.488210,120.04398 C 62.488210,121.32398 62.901543,122.28398 63.728210,122.92398 C 64.448210,123.48398 65.434877,123.76398 66.688210,123.76398 L 76.368210,123.76398 C 78.528210,123.76398 80.474877,124.37732 82.208210,125.60398 C 84.394877,127.23065 85.488210,129.67065 85.488210,132.92398 C 85.488210,136.01732 84.394877,138.44398 82.208210,140.20398 C 80.501543,141.45732 78.554877,142.08398 76.368210,142.08398 L 55.768210,142.08398 L 55.768210,136.76398 L 73.368210,136.76398 C 74.381543,136.76398 75.314877,136.40398 76.168210,135.68398 C 77.021543,134.96398 77.448210,134.04398 77.448210,132.92398 C 77.448210,131.77732 77.021543,130.85732 76.168210,130.16398 C 75.368210,129.44398 74.394877,129.08398 73.248210,129.08398 L 63.488210,129.08398 C 61.328210,129.08398 59.408210,128.48398 57.728210,127.28398 C 55.541543,125.65732 54.448210,123.24398 54.448210,120.04398 C 54.448210,116.84398 55.541543,114.43065 57.728210,112.80398 C 59.354877,111.57732 61.274877,110.96398 63.488210,110.96398 L 83.768210,110.96398 z M 49.768210,142.08398 L 43.048210,142.08398 L 43.048210,110.96398 L 49.768210,110.96398 L 49.768210,142.08398 z "
     id="path871" />
</svg>
