<?xml version="1.0" encoding="UTF-8" standalone="no"?>
<!DOCTYPE svg PUBLIC "-//W3C//DTD SVG 20010904//EN"
"http://www.w3.org/TR/2001/REC-SVG-20010904/DTD/svg10.dtd">
<!-- Created with Inkscape (http://www.inkscape.org/) -->
<svg
   id="svg1"
   sodipodi:version="0.32"
   inkscape:version="0.38.1"
   width="128.00000pt"
   height="128.00000pt"
   sodipodi:docbase="/usr/share/icons/Fuzzy/scalable/mimetypes"
   sodipodi:docname="gnome-mime-application-x-bzip.svg"
   xmlns="http://www.w3.org/2000/svg"
   xmlns:inkscape="http://www.inkscape.org/namespaces/inkscape"
   xmlns:sodipodi="http://sodipodi.sourceforge.net/DTD/sodipodi-0.dtd"
   xmlns:xlink="http://www.w3.org/1999/xlink">
  <defs
     id="defs3">
    <linearGradient
       id="linearGradient850">
      <stop
         style="stop-color:#fbffff;stop-opacity:0.0000000;"
         offset="0.0000000"
         id="stop851" />
      <stop
         style="stop-color:#ffffff;stop-opacity:1.0000000;"
         offset="1.0000000"
         id="stop852" />
    </linearGradient>
    <linearGradient
       xlink:href="#linearGradient850"
       id="linearGradient859"
       x1="0.57772022"
       y1="0.56882256"
       x2="0.077720210"
       y2="0.0097879283" />
    <linearGradient
       id="linearGradient839">
      <stop
         style="stop-color:#46a046;stop-opacity:1.0000000;"
         offset="0.0000000"
         id="stop840" />
      <stop
         style="stop-color:#df421e;stop-opacity:1.0000000;"
         offset="0.39364964"
         id="stop841" />
      <stop
         style="stop-color:#ada7c8;stop-opacity:1.0000000;"
         offset="0.72036445"
         id="stop842" />
      <stop
         style="stop-color:#eed680;stop-opacity:1.0000000;"
         offset="1.0000000"
         id="stop843" />
    </linearGradient>
    <linearGradient
       id="linearGradient833">
      <stop
         style="stop-color:#00ff00;stop-opacity:1.0000000;"
         offset="0.0000000"
         id="stop834" />
      <stop
         style="stop-color:#ff0000;stop-opacity:1.0000000;"
         offset="0.30839416"
         id="stop837" />
      <stop
         style="stop-color:#7f8cff;stop-opacity:1.0000000;"
         offset="0.75000000"
         id="stop838" />
      <stop
         style="stop-color:#ffff00;stop-opacity:1.0000000;"
         offset="1.0000000"
         id="stop835" />
    </linearGradient>
    <linearGradient
       xlink:href="#linearGradient850"
       id="linearGradient836"
       x1="0.47213113"
       y1="0.66958040"
       x2="-0.088524587"
       y2="-0.078671329" />
    <linearGradient
       xlink:href="#linearGradient850"
       id="linearGradient855"
       x1="0.61967212"
       y1="0.66881722"
       x2="0.029508196"
       y2="0.019354839" />
    <linearGradient
       xlink:href="#linearGradient850"
       id="linearGradient853"
       x1="0.39344263"
       y1="0.92035401"
       x2="0.67540985"
       y2="0.29203540" />
  </defs>
  <sodipodi:namedview
     id="base"
     pagecolor="#ffffff"
     bordercolor="#666666"
     borderopacity="1.0"
     inkscape:pageopacity="0.0"
     inkscape:pageshadow="2"
     inkscape:zoom="5.0234375"
     inkscape:cx="64.165964"
     inkscape:cy="63.499648"
     inkscape:window-width="751"
     inkscape:window-height="909"
     showgrid="true"
     snaptogrid="false"
     gridspacingx="1.0000000mm"
     gridspacingy="1.0000000mm"
     inkscape:window-x="0"
     inkscape:window-y="31" />
  <path
     style="font-size:40.000000;stroke-width:12.500000;font-family:Trek;stroke:#000000;stroke-opacity:0.50000000;fill:none;stroke-dasharray:none;stroke-linejoin:round;"
     d="M 82.283003,8.1376952 L 7.7830038,27.012693 L 7.9392538,125.57526 L 7.9705038,125.57526 L 7.9705038,125.76276 L 8.2517538,125.70026 L 82.095503,153.10651 L 151.47051,124.45026 L 151.47051,118.73151 L 151.47051,27.012693 L 82.283003,8.1376952 z "
     id="path874" />
  <path
     style="font-size:12.000000;fill:#515151;fill-rule:evenodd;stroke:#000000;stroke-width:7.5206294;stroke-linecap:round;stroke-linejoin:round;"
     d="M 151.38159,27.032982 L 151.38159,118.74314 L 84.429019,104.01428 L 82.186208,8.1726167 L 151.38159,27.032982 z "
     id="path633"
     sodipodi:nodetypes="ccccc" />
  <path
     style="font-size:12.000000;fill:#4a494d;fill-rule:evenodd;stroke:#000000;stroke-width:7.5206294;stroke-linecap:round;stroke-linejoin:round;"
     d="M 7.6717290,27.032982 L 82.186208,8.1726167 L 86.959934,107.27938 L 7.8671494,125.77363 L 7.6717290,27.032982 z "
     id="path631"
     sodipodi:nodetypes="ccccc" />
  <path
     style="font-size:12.000000;fill:#9db8d2;fill-rule:evenodd;stroke:#000000;stroke-width:7.5206294;stroke-linecap:round;stroke-linejoin:round;"
     d="M 82.004422,49.960515 L 151.38159,27.032982 L 82.186208,8.1726167 L 7.6717290,27.032982 L 82.004422,49.960515 z "
     id="path640"
     sodipodi:nodetypes="ccccc" />
  <path
     style="font-size:12.000000;fill:#4b6983;fill-rule:evenodd;stroke:#000000;stroke-width:7.5206294;stroke-linecap:round;stroke-linejoin:round;"
     d="M 151.38159,27.032982 L 151.38159,124.47503 L 82.004422,153.13443 L 82.004422,49.960515 L 151.38159,27.032982 z "
     id="path627"
     sodipodi:nodetypes="ccccc" />
  <path
     style="font-size:12.000000;fill:#7590ae;fill-rule:evenodd;stroke:#000000;stroke-width:7.5206294;stroke-linecap:round;stroke-linejoin:round;"
     d="M 82.004422,49.960515 L 82.004422,153.13443 L 7.8251535,125.58483 L 7.6717290,27.032982 L 82.004422,49.960515 z "
     id="path629"
     sodipodi:nodetypes="ccccc" />
  <path
     style="fill:url(#linearGradient859);fill-rule:evenodd;stroke:none;stroke-opacity:1;stroke-width:1pt;stroke-linejoin:miter;stroke-linecap:butt;fill-opacity:1.0000000;"
     d="M 81.911361,12.086354 L 11.738893,30.005965 L 11.738893,121.67109 C 84.777144,150.32538 96.941441,169.12448 78.272468,47.310010 C 144.42448,22.937158 81.911361,12.086354 81.911361,12.086354 z "
     id="path892"
     sodipodi:nodetypes="ccccc" />
  <path
     style="fill:url(#linearGradient836);fill-rule:evenodd;stroke:none;stroke-opacity:1;stroke-width:1pt;stroke-linejoin:miter;stroke-linecap:butt;fill-opacity:0.75;"
     d="M 85.893270,52.859176 L 85.893270,146.58228 C 86.168119,146.58228 115.30197,135.58837 128.76951,121.84598 C 142.51189,110.57722 147.18431,87.764837 147.18431,87.764837 L 147.18431,31.695900 L 85.893270,52.859176 z "
     id="path849"
     sodipodi:nodetypes="cccccc" />
  <path
     style="font-size:12.000000;fill:none;fill-rule:evenodd;stroke:#000000;stroke-width:7.5206294;stroke-linecap:round;stroke-linejoin:round;"
     d="M 82.004422,49.960515 L 82.004422,153.13443 L 7.8251535,125.58483 L 7.6717290,27.032982 L 82.004422,49.960515 z "
     id="path852"
     sodipodi:nodetypes="ccccc" />
  <rect
     style="fill:#ffffff;fill-rule:evenodd;stroke:#000000;stroke-width:3.7500000;stroke-dasharray:none;"
     id="rect853"
     width="110.80375"
     height="47.029549"
     ry="7.4109693"
     x="24.971378"
     y="73.654746" />
  <path
     style="font-size:40.000000;stroke-width:1.0000000pt;font-family:Trek;"
     d="M 118.13020,81.601618 C 120.26354,81.601618 122.19687,82.201618 123.93020,83.401618 C 126.11687,85.028285 127.21020,87.454952 127.21020,90.681618 C 127.21020,93.881618 126.11687,96.281618 123.93020,97.881618 C 122.30354,99.108294 120.37020,99.721632 118.13020,99.721632 L 108.81020,99.721632 L 107.85020,99.761636 C 107.69020,99.761636 107.42354,99.854976 107.05020,100.04164 C 106.51687,100.20164 106.03687,100.53498 105.61020,101.04164 L 104.89020,102.24164 C 104.75687,102.66831 104.66354,103.10831 104.61020,103.56164 L 104.61020,107.40164 L 126.65020,107.40164 L 126.65020,112.72164 L 97.890202,112.72164 L 97.890202,103.56164 C 97.890202,102.20164 98.090202,100.94831 98.490202,99.801636 C 98.890202,98.628286 99.636869,97.574952 100.73020,96.641618 C 101.50354,95.948285 102.46354,95.374952 103.61020,94.921618 C 104.99687,94.574952 106.10354,94.401618 106.93020,94.401618 L 114.97020,94.401618 C 116.22354,94.401618 117.19687,94.134952 117.89020,93.601618 C 118.71687,92.934952 119.13020,91.961618 119.13020,90.681618 C 119.13020,89.454952 118.75687,88.521618 118.01020,87.881618 C 117.66354,87.588285 117.23687,87.361618 116.73020,87.201618 C 116.22354,87.041618 115.63687,86.961618 114.97020,86.961618 L 98.450202,86.961618 L 98.450202,81.601618 L 118.13020,81.601618 z M 94.730202,107.40164 L 94.730202,112.72164 L 66.290202,112.72164 L 66.290202,107.40164 L 85.290202,87.121618 L 85.290202,86.961618 L 66.290202,86.961618 L 66.290202,81.601618 L 94.730202,81.601618 L 94.730202,86.961618 L 75.730202,107.16164 L 75.730202,107.40164 L 94.730202,107.40164 z M 34.090202,112.72164 L 34.090202,81.601618 L 53.370202,81.601618 C 55.930202,81.601618 58.076869,82.254952 59.810202,83.561618 C 61.783536,85.001618 62.770202,86.921618 62.770202,89.321618 C 62.770202,91.081618 62.356869,92.668285 61.530202,94.081618 C 61.130202,94.721618 60.650202,95.281618 60.090202,95.761618 C 59.530202,96.214952 58.783536,96.681618 57.850202,97.161618 C 59.450202,97.748285 60.730202,98.694956 61.690202,100.00164 C 62.650202,101.30831 63.130202,102.81498 63.130202,104.52164 C 63.130202,107.48164 62.130202,109.64164 60.130202,111.00164 C 58.503536,112.14831 56.250202,112.72164 53.370202,112.72164 L 34.090202,112.72164 z M 51.290202,94.601618 C 52.756869,94.601618 53.876869,94.254952 54.650202,93.561618 C 55.423536,92.868285 55.810202,91.908285 55.810202,90.681618 C 55.810202,88.041618 54.303536,86.721618 51.290202,86.721618 L 40.810202,86.721618 L 40.810202,94.601618 L 51.290202,94.601618 z M 51.290202,107.60164 C 52.756869,107.60164 53.876869,107.25498 54.650202,106.56164 C 55.423536,105.86831 55.810202,104.90831 55.810202,103.68164 C 55.810202,101.04164 54.303536,99.721632 51.290202,99.721632 L 40.810202,99.721632 L 40.810202,107.60164 L 51.290202,107.60164 z "
     id="path866" />
</svg>
