<?xml version="1.0" encoding="UTF-8" standalone="no"?>
<!DOCTYPE svg PUBLIC "-//W3C//DTD SVG 20010904//EN"
"http://www.w3.org/TR/2001/REC-SVG-20010904/DTD/svg10.dtd">
<!-- Created with Inkscape (http://www.inkscape.org/) -->
<svg
   id="svg1"
   sodipodi:version="0.32"
   inkscape:version="0.38.1"
   width="128.00000pt"
   height="128.00000pt"
   sodipodi:docbase="/usr/share/icons/Fuzzy/scalable/mimetypes"
   sodipodi:docname="gnome-mime-image-x-3ds.svg"
   xmlns="http://www.w3.org/2000/svg"
   xmlns:inkscape="http://www.inkscape.org/namespaces/inkscape"
   xmlns:sodipodi="http://sodipodi.sourceforge.net/DTD/sodipodi-0.dtd"
   xmlns:xlink="http://www.w3.org/1999/xlink">
  <defs
     id="defs3">
    <linearGradient
       id="linearGradient837">
      <stop
         style="stop-color:#eed680;stop-opacity:1.0000000;"
         offset="0.0000000"
         id="stop838" />
      <stop
         style="stop-color:#dfb546;stop-opacity:1.0000000;"
         offset="0.72068703"
         id="stop846" />
      <stop
         style="stop-color:#d1940c;stop-opacity:1.0000000;"
         offset="1.0000000"
         id="stop845" />
    </linearGradient>
    <linearGradient
       id="linearGradient839">
      <stop
         style="stop-color:#46a046;stop-opacity:1.0000000;"
         offset="0.0000000"
         id="stop840" />
      <stop
         style="stop-color:#df421e;stop-opacity:1.0000000;"
         offset="0.39364964"
         id="stop841" />
      <stop
         style="stop-color:#ada7c8;stop-opacity:1.0000000;"
         offset="0.72036445"
         id="stop842" />
      <stop
         style="stop-color:#eed680;stop-opacity:1.0000000;"
         offset="1.0000000"
         id="stop843" />
    </linearGradient>
    <linearGradient
       xlink:href="#linearGradient839"
       id="linearGradient836"
       x1="1.3267924e-17"
       y1="0.50000000"
       x2="1.0000000"
       y2="0.50000000" />
    <radialGradient
       xlink:href="#linearGradient839"
       id="radialGradient835"
       cx="0.26557374"
       cy="0.32026142"
       r="0.73238075"
       fx="0.26557377"
       fy="0.31045750" />
  </defs>
  <sodipodi:namedview
     id="base"
     pagecolor="#ffffff"
     bordercolor="#666666"
     borderopacity="1.0"
     inkscape:pageopacity="0.0"
     inkscape:pageshadow="2"
     inkscape:zoom="5.0234375"
     inkscape:cx="72.280884"
     inkscape:cy="69.175739"
     inkscape:window-width="751"
     inkscape:window-height="909"
     showgrid="true"
     snaptogrid="true"
     gridspacingx="1.0000000mm"
     gridspacingy="1.0000000mm"
     inkscape:window-x="0"
     inkscape:window-y="31" />
  <rect
     style="fill:none;fill-rule:evenodd;stroke:#000000;stroke-width:11.250000;stroke-dasharray:none;stroke-opacity:0.50000000;stroke-linejoin:round;"
     id="rect834"
     width="128.25159"
     height="145.27559"
     x="17.024004"
     y="7.6377968"
     ry="22.892691" />
  <rect
     style="fill:#ffffff;fill-rule:evenodd;stroke:#000000;stroke-width:6.2500000;stroke-dasharray:none;"
     id="rect828"
     width="128.25158"
     height="145.27559"
     x="17.091653"
     y="7.6377954"
     ry="22.892691" />
  <path
     sodipodi:type="arc"
     style="fill:url(#radialGradient835);fill-opacity:0.75000000;fill-rule:evenodd;stroke:#000000;stroke-width:4.0029163;stroke-dasharray:none;"
     id="path834"
     sodipodi:cx="76.516327"
     sodipodi:cy="66.562988"
     sodipodi:rx="44.665630"
     sodipodi:ry="44.665630"
     d="M 121.18196 66.562988 A 44.665630 44.665630 0 1 0 31.850697,66.562988 A 44.665630 44.665630 0 1 0 121.18196 66.562988 z"
     transform="matrix(0.808847,0.000000,0.000000,0.808847,19.97626,5.880801)" />
  <path
     style="font-size:40.000000;stroke-width:1.0000000pt;font-family:Trek;"
     d="M 127.01437,107.97798 L 127.01437,113.33798 L 109.81437,113.33798 C 108.72104,113.33798 107.73437,113.65798 106.85437,114.29798 C 106.10770,114.96464 105.73437,115.88464 105.73437,117.05798 C 105.73437,118.33798 106.14770,119.29798 106.97437,119.93798 C 107.69437,120.49798 108.68104,120.77798 109.93437,120.77798 L 119.61437,120.77798 C 121.77437,120.77798 123.72104,121.39131 125.45437,122.61798 C 127.64104,124.24464 128.73437,126.68464 128.73437,129.93798 C 128.73437,133.03131 127.64104,135.45798 125.45437,137.21798 C 123.74770,138.47131 121.80104,139.09798 119.61437,139.09798 L 99.014370,139.09798 L 99.014370,133.77798 L 116.61437,133.77798 C 117.62770,133.77798 118.56104,133.41798 119.41437,132.69798 C 120.26770,131.97798 120.69437,131.05798 120.69437,129.93798 C 120.69437,128.79131 120.26770,127.87131 119.41437,127.17798 C 118.61437,126.45798 117.64104,126.09798 116.49437,126.09798 L 106.73437,126.09798 C 104.57437,126.09798 102.65437,125.49798 100.97437,124.29798 C 98.787703,122.67131 97.694370,120.25798 97.694370,117.05798 C 97.694370,113.85798 98.787703,111.44464 100.97437,109.81798 C 102.60104,108.59131 104.52104,107.97798 106.73437,107.97798 L 127.01437,107.97798 z M 65.134370,107.97798 L 81.654370,107.97798 C 85.841036,107.97798 89.027703,109.31131 91.214370,111.97798 C 93.401036,114.64464 94.494370,118.49798 94.494370,123.53798 C 94.494370,128.52464 93.401036,132.36464 91.214370,135.05798 C 89.054370,137.75131 85.867703,139.09798 81.654370,139.09798 L 65.134370,139.09798 L 65.134370,107.97798 z M 71.614370,133.77798 L 79.494370,133.77798 C 82.107703,133.77798 84.041036,132.93798 85.294370,131.25798 C 86.547703,129.55131 87.174370,126.97798 87.174370,123.53798 C 87.174370,120.09798 86.574370,117.53798 85.374370,115.85798 C 84.201036,114.17798 82.241036,113.33798 79.494370,113.33798 L 71.614370,113.33798 L 71.614370,133.77798 z M 57.454370,123.81798 C 58.707703,124.43131 59.641036,125.13798 60.254370,125.93798 C 61.401036,127.32464 61.974370,128.95131 61.974370,130.81798 C 61.974370,133.56464 60.881036,135.73798 58.694370,137.33798 C 57.867703,137.92464 56.947703,138.36464 55.934370,138.65798 C 54.947703,138.95131 53.921036,139.09798 52.854370,139.09798 L 35.334370,139.09798 L 35.334370,133.77798 L 50.614370,133.77798 C 51.841036,133.77798 52.801036,133.48464 53.494370,132.89798 C 54.374370,132.25798 54.814370,131.27131 54.814370,129.93798 C 54.814370,128.65798 54.414370,127.69798 53.614370,127.05798 C 52.814370,126.41798 51.814370,126.09798 50.614370,126.09798 L 38.854370,126.09798 L 38.854370,120.97798 L 50.614370,120.97798 C 51.814370,120.97798 52.774370,120.69798 53.494370,120.13798 C 54.374370,119.49798 54.814370,118.49798 54.814370,117.13798 C 54.814370,115.93798 54.414370,115.00464 53.614370,114.33798 C 52.814370,113.67131 51.814370,113.33798 50.614370,113.33798 L 35.334370,113.33798 L 35.334370,107.97798 L 52.854370,107.97798 C 55.014370,107.97798 56.961036,108.55131 58.694370,109.69798 C 60.881036,111.24464 61.974370,113.43131 61.974370,116.25798 C 61.974370,118.09798 61.401036,119.71131 60.254370,121.09798 C 59.614370,121.89798 58.681036,122.61798 57.454370,123.25798 L 56.934370,123.53798 L 57.454370,123.81798 z "
     id="path842" />
</svg>
