<?xml version="1.0" encoding="UTF-8" standalone="no"?>
<!DOCTYPE svg PUBLIC "-//W3C//DTD SVG 20010904//EN"
"http://www.w3.org/TR/2001/REC-SVG-20010904/DTD/svg10.dtd">
<!-- Created with Inkscape (http://www.inkscape.org/) -->
<svg
   id="svg1"
   sodipodi:version="0.32"
   inkscape:version="0.38.1"
   width="128.00000pt"
   height="128.00000pt"
   sodipodi:docbase="/usr/share/icons/Fuzzy/scalable/mimetypes"
   sodipodi:docname="gnome-mime-image-x-portable-anymap.svg"
   xmlns="http://www.w3.org/2000/svg"
   xmlns:inkscape="http://www.inkscape.org/namespaces/inkscape"
   xmlns:sodipodi="http://sodipodi.sourceforge.net/DTD/sodipodi-0.dtd"
   xmlns:xlink="http://www.w3.org/1999/xlink">
  <defs
     id="defs3">
    <linearGradient
       id="linearGradient839">
      <stop
         style="stop-color:#46a046;stop-opacity:1.0000000;"
         offset="0.0000000"
         id="stop840" />
      <stop
         style="stop-color:#df421e;stop-opacity:1.0000000;"
         offset="0.39364964"
         id="stop841" />
      <stop
         style="stop-color:#ada7c8;stop-opacity:1.0000000;"
         offset="0.72036445"
         id="stop842" />
      <stop
         style="stop-color:#eed680;stop-opacity:1.0000000;"
         offset="1.0000000"
         id="stop843" />
    </linearGradient>
    <linearGradient
       id="linearGradient833">
      <stop
         style="stop-color:#00ff00;stop-opacity:1.0000000;"
         offset="0.0000000"
         id="stop834" />
      <stop
         style="stop-color:#ff0000;stop-opacity:1.0000000;"
         offset="0.30839416"
         id="stop837" />
      <stop
         style="stop-color:#7f8cff;stop-opacity:1.0000000;"
         offset="0.75000000"
         id="stop838" />
      <stop
         style="stop-color:#ffff00;stop-opacity:1.0000000;"
         offset="1.0000000"
         id="stop835" />
    </linearGradient>
    <linearGradient
       xlink:href="#linearGradient839"
       id="linearGradient836"
       x1="1.3267924e-17"
       y1="0.50000000"
       x2="1.0000000"
       y2="0.50000000" />
  </defs>
  <sodipodi:namedview
     id="base"
     pagecolor="#ffffff"
     bordercolor="#666666"
     borderopacity="1.0"
     inkscape:pageopacity="0.0"
     inkscape:pageshadow="2"
     inkscape:zoom="5.0234375"
     inkscape:cx="70.541588"
     inkscape:cy="64.000000"
     inkscape:window-width="751"
     inkscape:window-height="909"
     showgrid="true"
     snaptogrid="true"
     gridspacingx="1.0000000mm"
     gridspacingy="1.0000000mm"
     inkscape:window-x="0"
     inkscape:window-y="31" />
  <rect
     style="fill:none;fill-rule:evenodd;stroke:#000000;stroke-width:11.250000;stroke-dasharray:none;stroke-opacity:0.50000000;stroke-linejoin:round;"
     id="rect834"
     width="128.25159"
     height="145.27559"
     x="17.024004"
     y="7.6377968"
     ry="22.892691" />
  <rect
     style="fill:#ffffff;fill-rule:evenodd;stroke:#000000;stroke-width:6.2500000;stroke-dasharray:none;"
     id="rect828"
     width="128.25158"
     height="145.27559"
     x="17.091653"
     y="7.6377954"
     ry="22.892691" />
  <rect
     style="fill:url(#linearGradient836);fill-rule:evenodd;stroke:#000000;stroke-width:3.4436574;"
     id="rect832"
     width="125.93480"
     height="67.172065"
     ry="1.2896985"
     x="18.276772"
     y="28.497944" />
  <path
     style="font-size:40.000000;stroke-width:1.0000000pt;font-family:Trek;"
     d="M 102.19303,139.09798 L 95.473031,139.09798 L 95.473031,107.97798 L 105.47303,107.97798 L 113.63303,132.01798 L 121.87303,107.97798 L 131.91303,107.97798 L 131.91303,139.09798 L 125.19303,139.09798 L 125.19303,115.85798 L 125.03303,115.85798 L 116.95303,139.09798 L 110.43303,139.09798 L 102.35303,115.85798 L 102.19303,115.85798 L 102.19303,139.09798 z M 69.313031,139.09798 L 62.593031,139.09798 L 62.593031,107.97798 L 71.073031,107.97798 L 83.833031,130.77798 L 83.993031,130.77798 L 83.993031,107.97798 L 90.713031,107.97798 L 90.713031,139.09798 L 82.233031,139.09798 L 69.473031,116.33798 L 69.313031,116.33798 L 69.313031,139.09798 z M 38.073031,127.97798 L 38.073031,139.09798 L 31.353031,139.09798 L 31.353031,107.97798 L 50.033031,107.97798 C 52.913031,107.97798 55.193031,108.83131 56.873031,110.53798 C 58.553031,112.21798 59.393031,114.69798 59.393031,117.97798 C 59.393031,121.23131 58.553031,123.71131 56.873031,125.41798 C 55.193031,127.12464 52.913031,127.97798 50.033031,127.97798 L 38.073031,127.97798 z M 38.073031,113.33798 L 38.073031,122.65798 L 46.993031,122.65798 C 48.459698,122.65798 49.659698,122.28464 50.593031,121.53798 C 51.526364,120.76464 51.993031,119.57798 51.993031,117.97798 C 51.993031,116.40464 51.526364,115.24464 50.593031,114.49798 C 49.686364,113.72464 48.486364,113.33798 46.993031,113.33798 L 38.073031,113.33798 z "
     id="path877" />
</svg>
