<?xml version="1.0" encoding="UTF-8" standalone="no"?>
<!DOCTYPE svg PUBLIC "-//W3C//DTD SVG 20010904//EN"
"http://www.w3.org/TR/2001/REC-SVG-20010904/DTD/svg10.dtd">
<!-- Created with Inkscape (http://www.inkscape.org/) -->
<svg
   id="svg1"
   sodipodi:version="0.32"
   inkscape:version="0.38.1"
   width="128.00000pt"
   height="128.00000pt"
   sodipodi:docbase="/usr/share/icons/Fuzzy/scalable/mimetypes"
   sodipodi:docname="gnome-mime-audio-x-mp3.svg"
   xmlns="http://www.w3.org/2000/svg"
   xmlns:inkscape="http://www.inkscape.org/namespaces/inkscape"
   xmlns:sodipodi="http://sodipodi.sourceforge.net/DTD/sodipodi-0.dtd"
   xmlns:xlink="http://www.w3.org/1999/xlink">
  <defs
     id="defs3">
    <linearGradient
       id="linearGradient839">
      <stop
         style="stop-color:#46a046;stop-opacity:1.0000000;"
         offset="0.0000000"
         id="stop840" />
      <stop
         style="stop-color:#df421e;stop-opacity:1.0000000;"
         offset="0.39364964"
         id="stop841" />
      <stop
         style="stop-color:#ada7c8;stop-opacity:1.0000000;"
         offset="0.72036445"
         id="stop842" />
      <stop
         style="stop-color:#eed680;stop-opacity:1.0000000;"
         offset="1.0000000"
         id="stop843" />
    </linearGradient>
    <linearGradient
       xlink:href="#linearGradient839"
       id="linearGradient836"
       x1="1.3267924e-17"
       y1="0.50000000"
       x2="1.0000000"
       y2="0.50000000" />
  </defs>
  <sodipodi:namedview
     id="base"
     pagecolor="#ffffff"
     bordercolor="#666666"
     borderopacity="1.0"
     inkscape:pageopacity="0.0"
     inkscape:pageshadow="2"
     inkscape:zoom="5.0234375"
     inkscape:cx="64.000000"
     inkscape:cy="64.000000"
     inkscape:window-width="751"
     inkscape:window-height="909"
     showgrid="true"
     snaptogrid="true"
     gridspacingx="1.0000000mm"
     gridspacingy="1.0000000mm"
     inkscape:window-x="0"
     inkscape:window-y="31" />
  <rect
     style="fill:none;fill-rule:evenodd;stroke:#000000;stroke-width:11.250000;stroke-dasharray:none;stroke-opacity:0.50000000;stroke-linejoin:round;"
     id="rect834"
     width="128.25159"
     height="145.27559"
     x="17.024004"
     y="7.6377968"
     ry="22.892691" />
  <path
     style="fill:#ffffff;fill-rule:evenodd;stroke:#000000;stroke-width:6.2500000;"
     d="M 39.984344,7.6377954 C 27.301794,7.6377954 17.091654,17.847935 17.091654,30.530486 L 17.091654,130.02069 C 17.091654,142.70324 27.301794,152.91338 39.984344,152.91338 L 122.45055,152.91338 C 135.13310,152.91338 145.34324,142.70324 145.34324,130.02069 L 145.34324,30.530486 C 145.34324,17.847935 135.13310,7.6377954 122.45055,7.6377954 L 39.984344,7.6377954 z "
     id="path860" />
  <path
     style="fill:#4b6983;fill-rule:evenodd;stroke:#000000;stroke-width:1.5023922;stroke-linejoin:round;"
     d="M 89.133800,30.172922 L 74.222558,94.043376 L 104.03145,79.143369 C 106.78574,76.705970 110.28221,76.072061 111.98895,70.361915 C 113.60016,64.971385 112.63218,61.859352 110.41957,57.849619 L 110.41957,57.849619 L 89.133800,30.172922 z "
     id="path831"
     sodipodi:nodetypes="ccccccc" />
  <path
     sodipodi:type="arc"
     style="fill-rule:evenodd;stroke:#000000;stroke-width:5.0000000;fill:#9db8d2;fill-opacity:1.0000000;stroke-dasharray:none;"
     id="path825"
     sodipodi:cx="100.98425"
     sodipodi:cy="78.503937"
     sodipodi:rx="44.291340"
     sodipodi:ry="70.866142"
     d="M 145.27559 78.503937 A 44.291340 70.866142 0 1 0 56.692913,78.503937 A 44.291340 70.866142 0 1 0 145.27559 78.503937 z"
     transform="matrix(0.476601,0.122390,-0.122390,0.476601,35.06613,10.96185)" />
  <path
     sodipodi:type="arc"
     style="fill-rule:evenodd;stroke:#000000;stroke-width:2.2747321;stroke-dasharray:none;fill:#7590ae;fill-opacity:1.0000000;"
     id="path826"
     sodipodi:cx="102.75591"
     sodipodi:cy="85.590553"
     sodipodi:rx="28.346457"
     sodipodi:ry="56.692913"
     d="M 131.10237 85.590553 A 28.346457 56.692913 0 1 0 74.409456,85.590553 A 28.346457 56.692913 0 1 0 131.10237 85.590553 z"
     transform="matrix(0.573885,0.147373,-0.134763,0.524774,23.62308,8.892115e-3)" />
  <path
     sodipodi:type="arc"
     style="fill-rule:evenodd;stroke:#000000;stroke-width:1.0000000pt;fill:#314e6c;fill-opacity:1.0000000;"
     id="path827"
     sodipodi:cx="33.661419"
     sodipodi:cy="51.929134"
     sodipodi:rx="12.401575"
     sodipodi:ry="19.488190"
     d="M 46.062994 51.929134 A 12.401575 19.488190 0 1 0 21.259844,51.929134 A 12.401575 19.488190 0 1 0 46.062994 51.929134 z"
     transform="matrix(0.476601,0.122390,-0.140244,0.546124,70.17255,29.19469)" />
  <path
     style="font-size:40.000000;stroke-width:1.0000000pt;font-family:Trek;"
     d="M 126.12187,122.82265 C 127.37520,123.43598 128.30853,124.14265 128.92187,124.94265 C 130.06853,126.32931 130.64187,127.95598 130.64187,129.82265 C 130.64187,132.56931 129.54853,134.74265 127.36187,136.34265 C 126.53520,136.92931 125.61520,137.36931 124.60187,137.66265 C 123.61520,137.95598 122.58853,138.10265 121.52187,138.10265 L 104.00187,138.10265 L 104.00187,132.78265 L 119.28187,132.78265 C 120.50853,132.78265 121.46853,132.48931 122.16187,131.90265 C 123.04187,131.26265 123.48187,130.27598 123.48187,128.94265 C 123.48187,127.66265 123.08187,126.70265 122.28187,126.06265 C 121.48187,125.42265 120.48187,125.10265 119.28187,125.10265 L 107.52187,125.10265 L 107.52187,119.98265 L 119.28187,119.98265 C 120.48187,119.98265 121.44187,119.70265 122.16187,119.14265 C 123.04187,118.50265 123.48187,117.50265 123.48187,116.14265 C 123.48187,114.94265 123.08187,114.00931 122.28187,113.34265 C 121.48187,112.67598 120.48187,112.34265 119.28187,112.34265 L 104.00187,112.34265 L 104.00187,106.98265 L 121.52187,106.98265 C 123.68187,106.98265 125.62853,107.55598 127.36187,108.70265 C 129.54853,110.24931 130.64187,112.43598 130.64187,115.26265 C 130.64187,117.10265 130.06853,118.71598 128.92187,120.10265 C 128.28187,120.90265 127.34853,121.62265 126.12187,122.26265 L 125.60187,122.54265 L 126.12187,122.82265 z M 79.481866,126.98265 L 79.481866,138.10265 L 72.761866,138.10265 L 72.761866,106.98265 L 91.441866,106.98265 C 94.321866,106.98265 96.601866,107.83598 98.281866,109.54265 C 99.961866,111.22265 100.80187,113.70265 100.80187,116.98265 C 100.80187,120.23598 99.961866,122.71598 98.281866,124.42265 C 96.601866,126.12931 94.321866,126.98265 91.441866,126.98265 L 79.481866,126.98265 z M 79.481866,112.34265 L 79.481866,121.66265 L 88.401866,121.66265 C 89.868532,121.66265 91.068532,121.28931 92.001866,120.54265 C 92.935199,119.76931 93.401866,118.58265 93.401866,116.98265 C 93.401866,115.40931 92.935199,114.24931 92.001866,113.50265 C 91.095199,112.72931 89.895199,112.34265 88.401866,112.34265 L 79.481866,112.34265 z M 38.321866,138.10265 L 31.601866,138.10265 L 31.601866,106.98265 L 41.601866,106.98265 L 49.761866,131.02265 L 58.001866,106.98265 L 68.041866,106.98265 L 68.041866,138.10265 L 61.321866,138.10265 L 61.321866,114.86265 L 61.161866,114.86265 L 53.081866,138.10265 L 46.561866,138.10265 L 38.481866,114.86265 L 38.321866,114.86265 L 38.321866,138.10265 z "
     id="path861" />
</svg>
