<?xml version="1.0" encoding="UTF-8" standalone="no"?>
<!DOCTYPE svg PUBLIC "-//W3C//DTD SVG 20010904//EN"
"http://www.w3.org/TR/2001/REC-SVG-20010904/DTD/svg10.dtd">
<!-- Created with Inkscape (http://www.inkscape.org/) -->
<svg
   id="svg1"
   sodipodi:version="0.32"
   inkscape:version="0.38.1"
   width="128.00000pt"
   height="128.00000pt"
   sodipodi:docbase="/usr/share/icons/Fuzzy/scalable/mimetypes"
   sodipodi:docname="gnome-mime-application-x-perl.svg"
   xmlns="http://www.w3.org/2000/svg"
   xmlns:inkscape="http://www.inkscape.org/namespaces/inkscape"
   xmlns:sodipodi="http://sodipodi.sourceforge.net/DTD/sodipodi-0.dtd"
   xmlns:xlink="http://www.w3.org/1999/xlink">
  <defs
     id="defs3">
    <linearGradient
       id="linearGradient907">
      <stop
         style="stop-color:#eed680;stop-opacity:1.0000000;"
         offset="0.0000000"
         id="stop908" />
      <stop
         style="stop-color:#dfb546;stop-opacity:1.0000000;"
         offset="0.29427481"
         id="stop911" />
      <stop
         style="stop-color:#d1940c;stop-opacity:1.0000000;"
         offset="1.0000000"
         id="stop910" />
    </linearGradient>
    <linearGradient
       id="linearGradient869">
      <stop
         style="stop-color:#7590ae;stop-opacity:1.0000000;"
         offset="0.0000000"
         id="stop870" />
      <stop
         style="stop-color:#89a4c0;stop-opacity:1.0000000;"
         offset="0.87030536"
         id="stop912" />
      <stop
         style="stop-color:#9db8d2;stop-opacity:1.0000000;"
         offset="1.0000000"
         id="stop871" />
    </linearGradient>
    <linearGradient
       id="linearGradient866">
      <stop
         style="stop-color:#ffff00;stop-opacity:1.0000000;"
         offset="0.0000000"
         id="stop867" />
      <stop
         style="stop-color:#ffea00;stop-opacity:1.0000000;"
         offset="0.36908397"
         id="stop901" />
      <stop
         style="stop-color:#ffd600;stop-opacity:1.0000000;"
         offset="1.0000000"
         id="stop868" />
    </linearGradient>
    <linearGradient
       xlink:href="#linearGradient907"
       id="linearGradient904"
       x1="0.35737705"
       y1="0.49346405"
       x2="0.17377049"
       y2="0.29411766"
       spreadMethod="reflect" />
    <linearGradient
       id="linearGradient839">
      <stop
         style="stop-color:#46a046;stop-opacity:1.0000000;"
         offset="0.0000000"
         id="stop840" />
      <stop
         style="stop-color:#df421e;stop-opacity:1.0000000;"
         offset="0.39364964"
         id="stop841" />
      <stop
         style="stop-color:#ada7c8;stop-opacity:1.0000000;"
         offset="0.72036445"
         id="stop842" />
      <stop
         style="stop-color:#eed680;stop-opacity:1.0000000;"
         offset="1.0000000"
         id="stop843" />
    </linearGradient>
    <linearGradient
       xlink:href="#linearGradient839"
       id="linearGradient836"
       x1="1.3267924e-17"
       y1="0.50000000"
       x2="1.0000000"
       y2="0.50000000" />
    <linearGradient
       xlink:href="#linearGradient869"
       id="linearGradient674"
       x1="0.68852460"
       y1="0.78625953"
       x2="0.37377051"
       y2="0.47328246"
       spreadMethod="reflect" />
  </defs>
  <sodipodi:namedview
     id="base"
     pagecolor="#ffffff"
     bordercolor="#666666"
     borderopacity="1.0"
     inkscape:pageopacity="0.0"
     inkscape:pageshadow="2"
     inkscape:zoom="5.0234375"
     inkscape:cx="70.930611"
     inkscape:cy="66.696455"
     inkscape:window-width="751"
     inkscape:window-height="909"
     showgrid="true"
     snaptogrid="true"
     gridspacingx="1.0000000mm"
     gridspacingy="1.0000000mm"
     inkscape:window-x="0"
     inkscape:window-y="31" />
  <rect
     style="fill:none;fill-rule:evenodd;stroke:#000000;stroke-width:11.250000;stroke-dasharray:none;stroke-opacity:0.50000000;stroke-linejoin:round;"
     id="rect834"
     width="128.25159"
     height="145.27559"
     x="17.024004"
     y="7.6377953"
     ry="22.892691" />
  <rect
     style="fill:#ffffff;fill-rule:evenodd;stroke:#000000;stroke-width:6.2500000;stroke-dasharray:none;"
     id="rect828"
     width="128.25158"
     height="145.27559"
     x="17.091653"
     y="7.6377954"
     ry="22.892691" />
  <g
     id="g891"
     transform="matrix(0.425321,0.000000,0.000000,0.425321,29.11753,92.89133)">
    <path
       style="font-size:12.000000;fill:#efe0cd;fill-rule:evenodd;stroke:#000000;stroke-width:6.2500000;stroke-linecap:square;stroke-linejoin:bevel;"
       d="M 65.284900,7.3370508 L 62.813816,24.464219 L 37.037854,10.915862 L 42.022627,39.759376 L 13.136508,34.859813 L 26.727470,60.635775 L 9.6429068,63.106859 L 21.827907,74.951019 L 13.136508,79.254114 L 21.785302,83.514603 L 9.6429068,95.401369 L 26.770075,97.872453 L 13.221718,123.64841 L 42.107837,118.66364 L 37.165669,147.54976 L 62.899026,133.95880 L 65.412714,151.04336 L 77.214270,138.90097 L 81.517362,147.54976 L 85.820456,138.85836 L 97.664617,151.04336 L 100.13570,133.91619 L 125.95427,147.46455 L 120.96949,118.62104 L 149.81301,123.52060 L 136.26465,97.787243 L 153.34921,95.273554 L 141.16421,83.429394 L 149.81301,79.168904 L 141.16421,74.908415 L 153.34921,63.021649 L 136.22205,60.550565 L 149.77040,34.731999 L 120.88428,39.716771 L 125.82645,10.873257 L 100.09310,24.421614 L 97.579407,7.3370508 L 85.735247,19.522051 L 81.474757,10.873257 L 77.214270,19.522051 L 65.284900,7.3370508 z "
       id="path829"
       transform="translate(-8.177647e-6,-171.3337)" />
    <path
       sodipodi:type="arc"
       style="fill:#ffffff;fill-rule:evenodd;stroke:#000000;stroke-width:3.7500000;"
       id="path830"
       sodipodi:cx="83.267715"
       sodipodi:cy="74.960632"
       sodipodi:rx="26.574802"
       sodipodi:ry="28.346457"
       d="M 109.84252 74.960632 A 26.574802 28.346457 0 1 0 56.692913,74.960632 A 26.574802 28.346457 0 1 0 109.84252 74.960632 z"
       transform="matrix(1.363357,0.000000,0.000000,1.363357,-32.97844,-194.4756)" />
  </g>
  <g
     id="g855"
     transform="matrix(0.425321,0.000000,0.000000,0.425321,64.94957,104.3377)">
    <path
       style="font-size:12.000000;fill:#efe0cd;fill-rule:evenodd;stroke:#000000;stroke-width:6.2500000;stroke-linecap:square;stroke-linejoin:bevel;"
       d="M 65.284900,7.3370508 L 62.813816,24.464219 L 37.037854,10.915862 L 42.022627,39.759376 L 13.136508,34.859813 L 26.727470,60.635775 L 9.6429068,63.106859 L 21.827907,74.951019 L 13.136508,79.254114 L 21.785302,83.514603 L 9.6429068,95.401369 L 26.770075,97.872453 L 13.221718,123.64841 L 42.107837,118.66364 L 37.165669,147.54976 L 62.899026,133.95880 L 65.412714,151.04336 L 77.214270,138.90097 L 81.517362,147.54976 L 85.820456,138.85836 L 97.664617,151.04336 L 100.13570,133.91619 L 125.95427,147.46455 L 120.96949,118.62104 L 149.81301,123.52060 L 136.26465,97.787243 L 153.34921,95.273554 L 141.16421,83.429394 L 149.81301,79.168904 L 141.16421,74.908415 L 153.34921,63.021649 L 136.22205,60.550565 L 149.77040,34.731999 L 120.88428,39.716771 L 125.82645,10.873257 L 100.09310,24.421614 L 97.579407,7.3370508 L 85.735247,19.522051 L 81.474757,10.873257 L 77.214270,19.522051 L 65.284900,7.3370508 z "
       id="path856"
       transform="translate(-8.177647e-6,-171.3337)" />
    <path
       sodipodi:type="arc"
       style="fill:#ffffff;fill-rule:evenodd;stroke:#000000;stroke-width:3.7500000;"
       id="path857"
       sodipodi:cx="83.267715"
       sodipodi:cy="74.960632"
       sodipodi:rx="26.574802"
       sodipodi:ry="28.346457"
       d="M 109.84252 74.960632 A 26.574802 28.346457 0 1 0 56.692913,74.960632 A 26.574802 28.346457 0 1 0 109.84252 74.960632 z"
       transform="matrix(1.363357,0.000000,0.000000,1.363357,-32.97844,-194.4756)" />
  </g>
  <path
     transform="scale(0.880061,0.880061)"
     style="font-size:40.000000;stroke-width:1.0000000pt;font-family:Trek;"
     d="M 137.94323,157.48946 C 136.36990,157.48946 134.92990,157.27612 133.62323,156.84946 C 132.31656,156.39612 131.19656,155.75612 130.26323,154.92946 C 129.78323,154.50279 129.31656,153.96946 128.86323,153.32946 C 128.64990,153.03612 128.47656,152.76946 128.34323,152.52946 C 128.20990,152.26279 128.03656,151.84946 127.82323,151.28946 C 127.28990,149.82279 127.02323,148.12946 127.02323,146.20946 L 127.02323,126.36946 L 133.74323,126.36946 L 133.74323,145.76946 C 133.74323,146.80946 133.86323,147.68946 134.10323,148.40946 C 134.36990,149.12946 134.82323,149.82279 135.46323,150.48946 C 136.07656,151.04946 136.78323,151.47612 137.58323,151.76946 C 138.38323,152.03612 139.24990,152.16946 140.18323,152.16946 L 148.90323,152.16946 L 148.90323,157.48946 L 137.94323,157.48946 z M 109.34323,145.24946 L 102.18323,145.24946 L 102.18323,157.48946 L 95.463231,157.48946 L 95.463231,126.36946 L 113.50323,126.36946 C 116.48990,126.36946 118.76990,127.10279 120.34323,128.56946 C 122.07656,130.16946 122.94323,132.58279 122.94323,135.80946 C 122.94323,137.06279 122.83656,138.15612 122.62323,139.08946 C 122.40990,139.99612 122.04990,140.83612 121.54323,141.60946 C 120.63656,143.02279 119.16990,144.08946 117.14323,144.80946 L 116.98323,144.84946 L 123.78323,157.48946 L 115.86323,157.48946 L 109.34323,145.24946 z M 102.18323,131.72946 L 102.18323,140.36946 L 110.02323,140.36946 C 111.56990,140.36946 112.72990,140.07612 113.50323,139.48946 C 114.48990,138.82279 114.98323,137.67612 114.98323,136.04946 C 114.98323,134.52946 114.51656,133.43612 113.58323,132.76946 C 112.67656,132.07612 111.48990,131.72946 110.02323,131.72946 L 102.18323,131.72946 z M 92.263231,144.48946 L 73.983231,144.48946 L 73.983231,144.68946 L 74.463231,147.12946 C 74.863231,148.40946 75.543231,149.55612 76.503231,150.56946 C 76.716565,150.72946 76.916565,150.86279 77.103231,150.96946 C 77.449898,151.18279 77.929898,151.43612 78.543231,151.72946 L 79.823231,152.04946 L 81.543231,152.16946 L 92.263231,152.16946 L 92.263231,157.48946 L 79.663231,157.48946 C 75.449898,157.48946 72.209898,156.15612 69.943231,153.48946 C 67.703231,150.79612 66.583231,146.94279 66.583231,141.92946 C 66.583231,136.86279 67.703231,133.00946 69.943231,130.36946 C 72.183231,127.70279 75.423231,126.36946 79.663231,126.36946 L 92.263231,126.36946 L 92.263231,131.72946 L 81.543231,131.72946 L 80.783231,131.72946 L 80.023231,131.80946 C 79.489898,131.80946 78.929898,131.94279 78.343231,132.20946 C 77.783231,132.47612 77.169898,132.84946 76.503231,133.32946 C 75.863231,133.96946 75.303231,134.80946 74.823231,135.84946 C 74.529898,136.54279 74.249898,137.64946 73.983231,139.16946 L 73.983231,139.36946 L 92.263231,139.36946 L 92.263231,144.48946 z M 42.063231,146.36946 L 42.063231,157.48946 L 35.343231,157.48946 L 35.343231,126.36946 L 54.023231,126.36946 C 56.903231,126.36946 59.183231,127.22279 60.863231,128.92946 C 62.543231,130.60946 63.383231,133.08946 63.383231,136.36946 C 63.383231,139.62279 62.543231,142.10279 60.863231,143.80946 C 59.183231,145.51612 56.903231,146.36946 54.023231,146.36946 L 42.063231,146.36946 z M 42.063231,131.72946 L 42.063231,141.04946 L 50.983231,141.04946 C 52.449898,141.04946 53.649898,140.67612 54.583231,139.92946 C 55.516565,139.15612 55.983231,137.96946 55.983231,136.36946 C 55.983231,134.79612 55.516565,133.63612 54.583231,132.88946 C 53.676565,132.11612 52.476565,131.72946 50.983231,131.72946 L 42.063231,131.72946 z "
     id="path861" />
</svg>
