<?xml version="1.0" encoding="UTF-8" standalone="no"?>
<!DOCTYPE svg PUBLIC "-//W3C//DTD SVG 20010904//EN"
"http://www.w3.org/TR/2001/REC-SVG-20010904/DTD/svg10.dtd">
<!-- Created with Inkscape (http://www.inkscape.org/) -->
<svg
   id="svg1"
   sodipodi:version="0.32"
   inkscape:version="0.38.1"
   width="128.00000pt"
   height="128.00000pt"
   sodipodi:docbase="/usr/share/icons/Fuzzy/scalable/mimetypes"
   sodipodi:docname="gnome-mime-text-x-c++src.svg"
   xmlns="http://www.w3.org/2000/svg"
   xmlns:inkscape="http://www.inkscape.org/namespaces/inkscape"
   xmlns:sodipodi="http://sodipodi.sourceforge.net/DTD/sodipodi-0.dtd"
   xmlns:xlink="http://www.w3.org/1999/xlink">
  <defs
     id="defs3">
    <linearGradient
       id="linearGradient907">
      <stop
         style="stop-color:#eed680;stop-opacity:1.0000000;"
         offset="0.0000000"
         id="stop908" />
      <stop
         style="stop-color:#dfb546;stop-opacity:1.0000000;"
         offset="0.29427481"
         id="stop911" />
      <stop
         style="stop-color:#d1940c;stop-opacity:1.0000000;"
         offset="1.0000000"
         id="stop910" />
    </linearGradient>
    <linearGradient
       id="linearGradient869">
      <stop
         style="stop-color:#7590ae;stop-opacity:1.0000000;"
         offset="0.0000000"
         id="stop870" />
      <stop
         style="stop-color:#89a4c0;stop-opacity:1.0000000;"
         offset="0.87030536"
         id="stop912" />
      <stop
         style="stop-color:#9db8d2;stop-opacity:1.0000000;"
         offset="1.0000000"
         id="stop871" />
    </linearGradient>
    <linearGradient
       id="linearGradient866">
      <stop
         style="stop-color:#ffff00;stop-opacity:1.0000000;"
         offset="0.0000000"
         id="stop867" />
      <stop
         style="stop-color:#ffea00;stop-opacity:1.0000000;"
         offset="0.36908397"
         id="stop901" />
      <stop
         style="stop-color:#ffd600;stop-opacity:1.0000000;"
         offset="1.0000000"
         id="stop868" />
    </linearGradient>
    <linearGradient
       xlink:href="#linearGradient907"
       id="linearGradient904"
       x1="0.35737705"
       y1="0.49346405"
       x2="0.17377049"
       y2="0.29411766"
       spreadMethod="reflect" />
    <linearGradient
       id="linearGradient839">
      <stop
         style="stop-color:#46a046;stop-opacity:1.0000000;"
         offset="0.0000000"
         id="stop840" />
      <stop
         style="stop-color:#df421e;stop-opacity:1.0000000;"
         offset="0.39364964"
         id="stop841" />
      <stop
         style="stop-color:#ada7c8;stop-opacity:1.0000000;"
         offset="0.72036445"
         id="stop842" />
      <stop
         style="stop-color:#eed680;stop-opacity:1.0000000;"
         offset="1.0000000"
         id="stop843" />
    </linearGradient>
    <linearGradient
       xlink:href="#linearGradient839"
       id="linearGradient836"
       x1="1.3267924e-17"
       y1="0.50000000"
       x2="1.0000000"
       y2="0.50000000" />
    <linearGradient
       xlink:href="#linearGradient869"
       id="linearGradient674"
       x1="0.68852460"
       y1="0.78625953"
       x2="0.37377051"
       y2="0.47328246"
       spreadMethod="reflect" />
  </defs>
  <sodipodi:namedview
     id="base"
     pagecolor="#ffffff"
     bordercolor="#666666"
     borderopacity="1.0"
     inkscape:pageopacity="0.0"
     inkscape:pageshadow="2"
     inkscape:zoom="5.0234375"
     inkscape:cx="70.138127"
     inkscape:cy="65.393468"
     inkscape:window-width="751"
     inkscape:window-height="909"
     showgrid="true"
     snaptogrid="true"
     gridspacingx="1.0000000mm"
     gridspacingy="1.0000000mm"
     inkscape:window-x="0"
     inkscape:window-y="31" />
  <rect
     style="fill:none;fill-rule:evenodd;stroke:#000000;stroke-width:11.250000;stroke-dasharray:none;stroke-opacity:0.50000000;stroke-linejoin:round;"
     id="rect834"
     width="128.25159"
     height="145.27559"
     x="17.024004"
     y="7.6377953"
     ry="22.892691" />
  <rect
     style="fill:#ffffff;fill-rule:evenodd;stroke:#000000;stroke-width:6.2500000;stroke-dasharray:none;"
     id="rect828"
     width="128.25158"
     height="145.27559"
     x="17.091653"
     y="7.6377954"
     ry="22.892691" />
  <path
     style="fill-rule:evenodd;stroke:#000000;stroke-width:0.72004113pt;"
     d="M 69.802503,63.471030 L 74.791215,64.543331 L 72.833011,61.512823 L 69.802503,63.471030 z "
     id="path873"
     sodipodi:nodetypes="cccc" />
  <path
     id="path900"
     fill="none"
     stroke="black"
     stroke-width="1"
     d="M 88.873500,51.389266 C 88.873500,51.389266 90.547125,51.091815 90.547125,51.091815 C 90.547125,51.091815 91.916952,52.207738 91.916952,52.207738 C 91.881018,51.542826 91.572862,51.312293 90.922792,51.008268 C 90.922792,51.008268 90.990304,50.694181 90.990304,50.694181 C 91.741638,50.527086 91.912594,50.563833 92.389528,50.009158 C 92.389528,50.009158 90.544947,50.269862 90.544947,50.269862 C 90.544947,50.269862 89.312321,49.347725 89.312321,49.347725 C 89.348255,50.012638 89.519211,50.049385 90.135524,50.510450 C 90.135524,50.510450 88.873500,51.389266 88.873500,51.389266 z M 89.618299,48.756305 C 89.618299,48.756305 90.405568,49.254116 90.405568,49.254116 C 91.908237,48.919919 92.286083,49.658325 92.760837,48.281700 C 92.760837,48.281700 92.418926,48.208208 92.418926,48.208208 C 91.908237,48.919919 91.566325,48.846427 90.711546,48.662695 C 90.711546,48.662695 90.880323,47.877492 90.880323,47.877492 C 90.880323,47.877492 90.538410,47.803999 90.538410,47.803999 C 90.538410,47.803999 90.369633,48.589203 90.369633,48.589203 C 90.369633,48.589203 89.685810,48.442218 89.685810,48.442218 C 89.685810,48.442218 89.618299,48.756305 89.618299,48.756305 z M 92.686792,46.129914 C 92.688971,46.951867 92.655214,47.108914 91.836368,47.590096 C 91.836368,47.590096 92.173923,46.019675 92.173923,46.019675 C 90.396854,45.966292 90.639677,47.332872 91.426947,47.830683 C 92.589882,48.244954 93.577505,46.978558 92.686792,46.129914 z M 91.112254,45.134284 C 91.112254,45.134284 93.334681,45.611985 93.334681,45.611985 C 93.334681,45.611985 93.402193,45.297898 93.402193,45.297898 C 92.376456,45.077421 91.863589,44.967182 91.724212,43.951436 C 91.724212,43.951436 91.382299,43.877943 91.382299,43.877943 C 91.382299,43.877943 91.555433,44.736650 91.555433,44.736650 C 91.555433,44.736650 91.112254,45.134284 91.112254,45.134284 z M 91.449809,43.563863 C 91.449809,43.563863 93.672237,44.041565 93.672237,44.041565 C 93.672237,44.041565 93.739749,43.727478 93.739749,43.727478 C 93.397836,43.653985 91.517321,43.249776 92.369921,42.611554 C 92.608390,42.334214 93.634125,42.554691 93.976037,42.628184 C 93.976037,42.628184 94.043547,42.314104 94.043547,42.314104 C 93.701635,42.240611 91.992075,41.873148 92.639965,41.355220 C 92.878433,41.077880 93.904169,41.298357 94.246081,41.371849 C 94.246081,41.371849 94.347347,40.900723 94.347347,40.900723 C 93.834479,40.790484 92.979700,40.606752 92.433077,40.653554 C 92.023653,40.894148 91.719852,42.307529 91.789543,42.815395 C 91.755787,42.972442 91.926743,43.009189 91.892988,43.166229 C 91.892988,43.166229 91.449809,43.563863 91.449809,43.563863 z M 91.764502,46.260263 C 91.764502,46.260263 91.494457,47.516603 91.494457,47.516603 C 91.082856,46.935238 90.979411,46.584404 91.764502,46.260263 z "
     style="fill:none;stroke:#000000;stroke-width:0.16759372;" />
  <path
     style="fill:url(#linearGradient674);fill-rule:evenodd;stroke:#000000;stroke-width:3.6002057;"
     d="M 60.706767,66.061293 C 76.015081,49.758486 107.49250,17.715988 119.10216,29.512404 C 129.37105,41.744571 89.547236,67.154383 72.719322,77.933003 L 60.706767,66.061293 z "
     id="path879"
     sodipodi:nodetypes="cccc" />
  <path
     style="fill:url(#linearGradient904);fill-opacity:0.75000000;fill-rule:evenodd;stroke:#000000;stroke-width:2.7001543;"
     d="M 70.853522,76.680462 C 70.853522,76.680462 67.232746,83.657200 68.987711,85.688192 C 70.816065,87.289952 53.283141,92.592155 50.431715,92.271297 C 50.431717,92.271305 47.962958,97.681103 44.379636,94.048344 C 40.796320,90.415593 46.438207,87.791353 46.438207,87.791353 C 46.443358,83.595025 51.071115,67.524419 52.862775,69.340796 C 54.654435,71.157171 61.895225,67.598574 61.895225,67.598574 C 61.895225,67.598574 70.853522,76.680462 70.853522,76.680462 z "
     id="path868"
     sodipodi:nodetypes="cccccccc" />
  <path
     style="fill:none;fill-opacity:0.75000000;fill-rule:evenodd;stroke:#000000;stroke-width:0.72004113pt;stroke-linecap:round;stroke-linejoin:round;"
     d="M 45.597291,92.861796 C 45.597291,92.861796 60.128307,78.528518 60.128307,78.528518"
     id="path876"
     sodipodi:nodetypes="cc" />
  <path
     style="font-size:40.000000;stroke-width:1.0000000pt;font-family:Trek;"
     d="M 109.69288,127.72915 L 109.69288,138.84915 L 102.97288,138.84915 L 102.97288,107.72915 L 121.65288,107.72915 C 124.53288,107.72915 126.81288,108.58248 128.49288,110.28915 C 130.17288,111.96915 131.01288,114.44915 131.01288,117.72915 C 131.01288,120.98248 130.17288,123.46248 128.49288,125.16915 C 126.81288,126.87582 124.53288,127.72915 121.65288,127.72915 L 109.69288,127.72915 z M 109.69288,113.08915 L 109.69288,122.40915 L 118.61288,122.40915 C 120.07954,122.40915 121.27954,122.03582 122.21288,121.28915 C 123.14621,120.51582 123.61288,119.32915 123.61288,117.72915 C 123.61288,116.15582 123.14621,114.99582 122.21288,114.24915 C 121.30621,113.47582 120.10621,113.08915 118.61288,113.08915 L 109.69288,113.08915 z M 78.452876,127.72915 L 78.452876,138.84915 L 71.732876,138.84915 L 71.732876,107.72915 L 90.412876,107.72915 C 93.292876,107.72915 95.572876,108.58248 97.252876,110.28915 C 98.932876,111.96915 99.772876,114.44915 99.772876,117.72915 C 99.772876,120.98248 98.932876,123.46248 97.252876,125.16915 C 95.572876,126.87582 93.292876,127.72915 90.412876,127.72915 L 78.452876,127.72915 z M 78.452876,113.08915 L 78.452876,122.40915 L 87.372876,122.40915 C 88.839542,122.40915 90.039542,122.03582 90.972876,121.28915 C 91.906209,120.51582 92.372876,119.32915 92.372876,117.72915 C 92.372876,116.15582 91.906209,114.99582 90.972876,114.24915 C 90.066209,113.47582 88.866209,113.08915 87.372876,113.08915 L 78.452876,113.08915 z M 68.652876,107.72915 L 68.652876,113.08915 L 57.132876,113.08915 C 54.572876,113.08915 52.652876,113.94248 51.372876,115.64915 C 50.092876,117.35582 49.452876,119.90248 49.452876,123.28915 C 49.452876,126.70248 50.052876,129.26248 51.252876,130.96915 C 52.452876,132.67582 54.412876,133.52915 57.132876,133.52915 L 68.652876,133.52915 L 68.652876,138.84915 L 55.132876,138.84915 C 50.919542,138.84915 47.679542,137.51582 45.412876,134.84915 C 43.172876,132.15582 42.052876,128.30248 42.052876,123.28915 C 42.052876,118.22248 43.172876,114.36915 45.412876,111.72915 C 47.652876,109.06248 50.892876,107.72915 55.132876,107.72915 L 68.652876,107.72915 z "
     id="path855" />
</svg>
