<?xml version="1.0" encoding="UTF-8" standalone="no"?>
<!DOCTYPE svg PUBLIC "-//W3C//DTD SVG 20010904//EN"
"http://www.w3.org/TR/2001/REC-SVG-20010904/DTD/svg10.dtd">
<!-- Created with Inkscape (http://www.inkscape.org/) -->
<svg
   id="svg1"
   sodipodi:version="0.32"
   inkscape:version="0.39"
   width="128.00000pt"
   height="128.00000pt"
   sodipodi:docbase="/home/francois"
   sodipodi:docname="gnome-mime-image-x-xcf.svg"
   xmlns="http://www.w3.org/2000/svg"
   xmlns:inkscape="http://www.inkscape.org/namespaces/inkscape"
   xmlns:sodipodi="http://sodipodi.sourceforge.net/DTD/sodipodi-0.dtd"
   xmlns:xlink="http://www.w3.org/1999/xlink"
   xmlns:rdf="http://www.w3.org/1999/02/22-rdf-syntax-ns#"
   xmlns:cc="http://web.resource.org/cc/"
   xmlns:dc="http://purl.org/dc/elements/1.1/">
  <defs
     id="defs3">
    <linearGradient
       id="linearGradient858">
      <stop
         style="stop-color:#cccaa7;stop-opacity:1.0000000;"
         offset="0.0000000"
         id="stop859" />
      <stop
         style="stop-color:#6d5400;stop-opacity:1.0000000;"
         offset="1.0000000"
         id="stop861" />
    </linearGradient>
    <linearGradient
       xlink:href="#linearGradient858"
       id="linearGradient829"
       x1="1.0164395e-19"
       y1="0.50000000"
       x2="1.0000000"
       y2="0.50000000" />
    <linearGradient
       id="linearGradient850">
      <stop
         style="stop-color:#ffffff;stop-opacity:1.0000000;"
         offset="0.0000000"
         id="stop851" />
      <stop
         style="stop-color:#bdbcbc;stop-opacity:1.0000000;"
         offset="0.72068703"
         id="stop852" />
      <stop
         style="stop-color:#000000;stop-opacity:1.0000000;"
         offset="1.0000000"
         id="stop853" />
    </linearGradient>
    <radialGradient
       xlink:href="#linearGradient850"
       id="radialGradient841"
       cx="0.35326013"
       cy="0.33018410"
       r="0.26851958"
       fx="0.34701589"
       fy="0.33018413" />
    <linearGradient
       id="linearGradient839">
      <stop
         style="stop-color:#46a046;stop-opacity:1.0000000;"
         offset="0.0000000"
         id="stop840" />
      <stop
         style="stop-color:#df421e;stop-opacity:1.0000000;"
         offset="0.39364964"
         id="stop841" />
      <stop
         style="stop-color:#ada7c8;stop-opacity:1.0000000;"
         offset="0.72036445"
         id="stop842" />
      <stop
         style="stop-color:#eed680;stop-opacity:1.0000000;"
         offset="1.0000000"
         id="stop843" />
    </linearGradient>
    <linearGradient
       id="linearGradient833">
      <stop
         style="stop-color:#00ff00;stop-opacity:1.0000000;"
         offset="0.0000000"
         id="stop834" />
      <stop
         style="stop-color:#ff0000;stop-opacity:1.0000000;"
         offset="0.30839416"
         id="stop837" />
      <stop
         style="stop-color:#7f8cff;stop-opacity:1.0000000;"
         offset="0.75000000"
         id="stop838" />
      <stop
         style="stop-color:#ffff00;stop-opacity:1.0000000;"
         offset="1.0000000"
         id="stop835" />
    </linearGradient>
    <linearGradient
       xlink:href="#linearGradient839"
       id="linearGradient836"
       x1="1.3267924e-17"
       y1="0.50000000"
       x2="1.0000000"
       y2="0.50000000" />
  </defs>
  <sodipodi:namedview
     id="base"
     pagecolor="#ffffff"
     bordercolor="#666666"
     borderopacity="1.0"
     inkscape:pageopacity="0.0"
     inkscape:pageshadow="2"
     inkscape:zoom="2.5117188"
     inkscape:cx="54.417173"
     inkscape:cy="51.259720"
     inkscape:window-width="751"
     inkscape:window-height="909"
     showgrid="true"
     snaptogrid="true"
     gridspacingx="1.0000000mm"
     gridspacingy="1.0000000mm"
     inkscape:window-x="0"
     inkscape:window-y="40" />
  <rect
     style="fill:none;fill-rule:evenodd;stroke:#000000;stroke-width:11.250000;stroke-dasharray:none;stroke-opacity:0.50000000;stroke-linejoin:round;"
     id="rect834"
     width="128.25159"
     height="145.27559"
     x="17.024004"
     y="7.6377953"
     ry="22.892691" />
  <rect
     style="fill:#ffffff;fill-rule:evenodd;stroke:#000000;stroke-width:6.2500000;stroke-dasharray:none;"
     id="rect828"
     width="128.25158"
     height="145.27559"
     x="17.091653"
     y="7.6377954"
     ry="22.892691" />
  <path
     style="font-size:40.000000;stroke-width:1.0000000pt;font-family:Trek;"
     d="M 124.57804,113.33798 L 114.57804,113.33798 C 113.03137,113.33798 111.79137,113.51131 110.85804,113.85798 C 110.40471,113.99131 110.00471,114.15131 109.65804,114.33798 C 109.31137,114.52464 108.97804,114.79131 108.65804,115.13798 C 107.77804,115.93798 107.13804,116.92464 106.73804,118.09798 L 106.49804,119.05798 L 106.41804,120.13798 L 106.41804,120.97798 L 124.57804,120.97798 L 124.57804,126.09798 L 106.41804,126.09798 L 106.41804,139.09798 L 99.698039,139.09798 L 99.698039,123.53798 C 99.698039,122.17798 99.738039,120.99131 99.818039,119.97798 C 99.898039,118.93798 100.03137,118.03131 100.21804,117.25798 C 100.77804,114.69798 101.95137,112.60464 103.73804,110.97798 C 104.85804,109.93798 106.21804,109.17798 107.81804,108.69798 C 109.41804,108.21798 111.44471,107.97798 113.89804,107.97798 L 124.57804,107.97798 L 124.57804,113.33798 z M 96.618039,107.97798 L 96.618039,113.33798 L 85.098039,113.33798 C 82.538039,113.33798 80.618039,114.19131 79.338039,115.89798 C 78.058039,117.60464 77.418039,120.15131 77.418039,123.53798 C 77.418039,126.95131 78.018039,129.51131 79.218039,131.21798 C 80.418039,132.92464 82.378039,133.77798 85.098039,133.77798 L 96.618039,133.77798 L 96.618039,139.09798 L 83.098039,139.09798 C 78.884706,139.09798 75.644706,137.76464 73.378039,135.09798 C 71.138039,132.40464 70.018039,128.55131 70.018039,123.53798 C 70.018039,118.47131 71.138039,114.61798 73.378039,111.97798 C 75.618039,109.31131 78.858039,107.97798 83.098039,107.97798 L 96.618039,107.97798 z M 38.818039,107.97798 L 46.738039,107.97798 L 53.658039,118.69798 L 60.458039,107.97798 L 68.378039,107.97798 L 56.978039,123.53798 L 68.378039,139.09798 L 60.458039,139.09798 L 53.658039,128.37798 L 46.738039,139.09798 L 38.818039,139.09798 L 50.218039,123.53798 L 38.818039,107.97798 z "
     id="path968" />
  <metadata
     id="metadata37">
    <rdf:RDF
       id="RDF38">
      <cc:Work
         rdf:about=""
         id="Work39">
        <dc:format
           id="format40">image/svg+xml</dc:format>
        <dc:type
           id="type42"
           rdf:resource="http://purl.org/dc/dcmitype/StillImage" />
      </cc:Work>
    </rdf:RDF>
  </metadata>
  <path
     style="fill:url(#linearGradient829);fill-opacity:0.75000000;fill-rule:evenodd;stroke:#000000;stroke-width:4.8086567;stroke-linecap:butt;stroke-linejoin:miter;stroke-miterlimit:4.0000000;stroke-opacity:1.0000000;"
     d="M 54.050002,28.614908 C 57.167954,31.182637 92.932737,78.318788 126.68002,26.780817 C 129.43115,59.427646 112.92433,64.563102 112.92433,64.563102 C 115.49206,84.187881 92.015688,107.48085 66.521823,91.157433 C 48.914541,87.489248 41.211362,79.969471 40.294312,73.916978 C 42.678630,66.030377 49.281358,62.545602 63.954090,55.392644 C 58.818637,48.423097 55.517270,34.300592 54.050002,28.614908 z "
     id="path1567"
     sodipodi:nodetypes="ccscccc" />
  <path
     sodipodi:type="arc"
     style="fill:url(#radialGradient841);fill-rule:evenodd;stroke:#000000;stroke-width:5.8987088;stroke-opacity:0.49999997;"
     id="path862"
     sodipodi:cx="0.0000000"
     sodipodi:cy="34.212597"
     sodipodi:rx="17.716536"
     sodipodi:ry="19.488190"
     d="M 17.716536 34.212597 A 17.716536 19.488190 0 1 0 -17.716536,34.212597 A 17.716536 19.488190 0 1 0 17.716536 34.212597 z"
     transform="matrix(0.674674,0.000000,0.000000,0.650284,42.81227,47.64522)" />
  <path
     sodipodi:type="arc"
     style="fill:url(#radialGradient841);fill-rule:evenodd;stroke:#000000;stroke-width:1.0000000pt;stroke-opacity:1.0000000;"
     id="path850"
     sodipodi:cx="0.0000000"
     sodipodi:cy="34.212597"
     sodipodi:rx="17.716536"
     sodipodi:ry="19.488190"
     d="M 17.716536 34.212597 A 17.716536 19.488190 0 1 0 -17.716536,34.212597 A 17.716536 19.488190 0 1 0 17.716536 34.212597 z"
     transform="matrix(0.674674,0.000000,0.000000,0.650284,42.81227,47.64522)" />
  <path
     sodipodi:type="arc"
     style="fill:#ffffff;fill-opacity:1.0000000;fill-rule:evenodd;stroke:#000000;stroke-width:2.0826678;"
     id="path851"
     sodipodi:cx="49.606300"
     sodipodi:cy="-13.622047"
     sodipodi:rx="10.629921"
     sodipodi:ry="10.629921"
     d="M 60.236221 -13.622047 A 10.629921 10.629921 0 1 0 38.976379,-13.622047 A 10.629921 10.629921 0 1 0 60.236221 -13.622047 z"
     transform="matrix(0.752105,0.000000,0.000000,0.748708,24.75701,65.10146)" />
  <path
     sodipodi:type="arc"
     style="fill:#ffffff;fill-opacity:1.0000000;fill-rule:evenodd;stroke:#000000;stroke-width:1.6544446;"
     id="path852"
     sodipodi:cx="49.606300"
     sodipodi:cy="-13.622047"
     sodipodi:rx="10.629921"
     sodipodi:ry="10.629921"
     d="M 60.236221 -13.622047 A 10.629921 10.629921 0 1 0 38.976379,-13.622047 A 10.629921 10.629921 0 1 0 60.236221 -13.622047 z"
     transform="matrix(0.936877,0.000000,0.000000,0.952453,32.06040,68.68327)" />
  <path
     sodipodi:type="arc"
     style="fill-rule:evenodd;stroke:#000000;stroke-width:1.0000000pt;"
     id="path853"
     sodipodi:cx="-17.716536"
     sodipodi:cy="0.55118108"
     sodipodi:rx="7.0866141"
     sodipodi:ry="7.0866141"
     d="M -10.629921 0.55118108 A 7.0866141 7.0866141 0 1 0 -24.803150,0.55118108 A 7.0866141 7.0866141 0 1 0 -10.629921 0.55118108 z"
     transform="matrix(0.541449,0.000000,0.000000,0.575452,74.13453,57.09909)" />
  <path
     sodipodi:type="arc"
     style="fill-rule:evenodd;stroke:#000000;stroke-width:1.0000000pt;"
     id="path854"
     sodipodi:cx="-17.716536"
     sodipodi:cy="0.55118108"
     sodipodi:rx="7.0866141"
     sodipodi:ry="7.0866141"
     d="M -10.629921 0.55118108 A 7.0866141 7.0866141 0 1 0 -24.803150,0.55118108 A 7.0866141 7.0866141 0 1 0 -10.629921 0.55118108 z"
     transform="matrix(0.680088,0.000000,0.000000,0.693386,93.79183,59.12663)" />
  <path
     style="fill:none;fill-opacity:0.75000000;fill-rule:evenodd;stroke:#ffffff;stroke-width:2.7920761;stroke-linecap:round;stroke-opacity:0.19867547;"
     d="M 63.888744,88.331539 C 63.888744,88.331539 80.156137,92.066513 95.832704,74.085538"
     id="path859"
     sodipodi:nodetypes="cc" />
  <path
     style="fill:none;fill-opacity:0.75000000;fill-rule:evenodd;stroke:#000000;stroke-width:2.7920761;stroke-linecap:round;"
     d="M 60.491031,88.331539 C 60.491031,88.331539 78.546686,90.278237 94.223253,72.297262"
     id="path855"
     sodipodi:nodetypes="cc" />
</svg>
