<?xml version="1.0" encoding="UTF-8" standalone="no"?>
<!DOCTYPE svg PUBLIC "-//W3C//DTD SVG 20010904//EN"
"http://www.w3.org/TR/2001/REC-SVG-20010904/DTD/svg10.dtd">
<!-- Created with Inkscape (http://www.inkscape.org/) -->
<svg
   id="svg1"
   sodipodi:version="0.32"
   inkscape:version="0.38.1"
   width="128.00000pt"
   height="128.00000pt"
   sodipodi:docbase="/usr/share/icons/Fuzzy/scalable/mimetypes"
   sodipodi:docname="gnome-mime-application-x-blender.svg"
   xmlns="http://www.w3.org/2000/svg"
   xmlns:inkscape="http://www.inkscape.org/namespaces/inkscape"
   xmlns:sodipodi="http://sodipodi.sourceforge.net/DTD/sodipodi-0.dtd"
   xmlns:xlink="http://www.w3.org/1999/xlink">
  <defs
     id="defs3">
    <linearGradient
       id="linearGradient837">
      <stop
         style="stop-color:#eed680;stop-opacity:1.0000000;"
         offset="0.0000000"
         id="stop838" />
      <stop
         style="stop-color:#dfb546;stop-opacity:1.0000000;"
         offset="0.72068703"
         id="stop846" />
      <stop
         style="stop-color:#d1940c;stop-opacity:1.0000000;"
         offset="1.0000000"
         id="stop845" />
    </linearGradient>
    <linearGradient
       id="linearGradient839">
      <stop
         style="stop-color:#46a046;stop-opacity:1.0000000;"
         offset="0.0000000"
         id="stop840" />
      <stop
         style="stop-color:#df421e;stop-opacity:1.0000000;"
         offset="0.39364964"
         id="stop841" />
      <stop
         style="stop-color:#ada7c8;stop-opacity:1.0000000;"
         offset="0.72036445"
         id="stop842" />
      <stop
         style="stop-color:#eed680;stop-opacity:1.0000000;"
         offset="1.0000000"
         id="stop843" />
    </linearGradient>
    <linearGradient
       xlink:href="#linearGradient839"
       id="linearGradient836"
       x1="1.3267924e-17"
       y1="0.50000000"
       x2="1.0000000"
       y2="0.50000000" />
    <radialGradient
       xlink:href="#linearGradient837"
       id="radialGradient835"
       cx="0.26557374"
       cy="0.32026142"
       r="0.45951825"
       fx="0.26557377"
       fy="0.31045750" />
  </defs>
  <sodipodi:namedview
     id="base"
     pagecolor="#ffffff"
     bordercolor="#666666"
     borderopacity="1.0"
     inkscape:pageopacity="0.0"
     inkscape:pageshadow="2"
     inkscape:zoom="5.0234375"
     inkscape:cx="72.280884"
     inkscape:cy="69.175739"
     inkscape:window-width="751"
     inkscape:window-height="909"
     showgrid="true"
     snaptogrid="false"
     gridspacingx="1.0000000mm"
     gridspacingy="1.0000000mm"
     inkscape:window-x="0"
     inkscape:window-y="31" />
  <rect
     style="fill:none;fill-rule:evenodd;stroke:#000000;stroke-width:11.250000;stroke-dasharray:none;stroke-opacity:0.50000000;stroke-linejoin:round;"
     id="rect834"
     width="128.25159"
     height="145.27559"
     x="17.242793"
     y="7.4866209"
     ry="22.892691" />
  <rect
     style="fill:#ffffff;fill-rule:evenodd;stroke:#000000;stroke-width:6.2500000;stroke-dasharray:none;"
     id="rect828"
     width="128.25158"
     height="145.27559"
     x="17.091653"
     y="7.6377954"
     ry="22.892691" />
  <path
     sodipodi:type="arc"
     style="fill:url(#radialGradient835);fill-opacity:0.75000000;fill-rule:evenodd;stroke:#000000;stroke-width:4.0029163;stroke-dasharray:none;"
     id="path834"
     sodipodi:cx="76.516327"
     sodipodi:cy="66.562988"
     sodipodi:rx="44.665630"
     sodipodi:ry="44.665630"
     d="M 121.18196 66.562988 A 44.665630 44.665630 0 1 0 31.850697,66.562988 A 44.665630 44.665630 0 1 0 121.18196 66.562988 z"
     transform="matrix(0.936817,0.000000,0.000000,0.936817,9.935600,2.090547)" />
  <path
     transform="scale(0.752126,0.752126)"
     style="font-size:40.000000;stroke-width:1.0000000pt;font-family:Trek;"
     d="M 153.15993,153.48892 L 169.67993,153.48892 C 173.86659,153.48892 177.05326,154.82225 179.23993,157.48892 C 181.42659,160.15558 182.51993,164.00892 182.51993,169.04892 C 182.51993,174.03558 181.42659,177.87558 179.23993,180.56892 C 177.07993,183.26225 173.89326,184.60892 169.67993,184.60892 L 153.15993,184.60892 L 153.15993,153.48892 z M 159.63993,179.28892 L 167.51993,179.28892 C 170.13326,179.28892 172.06659,178.44892 173.31993,176.76892 C 174.57326,175.06225 175.19993,172.48892 175.19993,169.04892 C 175.19993,165.60892 174.59993,163.04892 173.39993,161.36892 C 172.22659,159.68892 170.26659,158.84892 167.51993,158.84892 L 159.63993,158.84892 L 159.63993,179.28892 z M 126.75993,184.60892 L 120.03993,184.60892 L 120.03993,153.48892 L 128.51993,153.48892 L 141.27993,176.28892 L 141.43993,176.28892 L 141.43993,153.48892 L 148.15993,153.48892 L 148.15993,184.60892 L 139.67993,184.60892 L 126.91993,161.84892 L 126.75993,161.84892 L 126.75993,184.60892 z M 116.83993,171.60892 L 98.559925,171.60892 L 98.559925,171.80892 L 99.039925,174.24892 C 99.439925,175.52892 100.11993,176.67558 101.07993,177.68892 C 101.29326,177.84892 101.49326,177.98225 101.67993,178.08892 C 102.02659,178.30225 102.50659,178.55558 103.11993,178.84892 L 104.39993,179.16892 L 106.11993,179.28892 L 116.83993,179.28892 L 116.83993,184.60892 L 104.23993,184.60892 C 100.02659,184.60892 96.786592,183.27558 94.519925,180.60892 C 92.279925,177.91558 91.159925,174.06225 91.159925,169.04892 C 91.159925,163.98225 92.279925,160.12892 94.519925,157.48892 C 96.759925,154.82225 99.999925,153.48892 104.23993,153.48892 L 116.83993,153.48892 L 116.83993,158.84892 L 106.11993,158.84892 L 105.35993,158.84892 L 104.59993,158.92892 C 104.06659,158.92892 103.50659,159.06225 102.91993,159.32892 C 102.35993,159.59558 101.74659,159.96892 101.07993,160.44892 C 100.43993,161.08892 99.879925,161.92892 99.399925,162.96892 C 99.106592,163.66225 98.826592,164.76892 98.559925,166.28892 L 98.559925,166.48892 L 116.83993,166.48892 L 116.83993,171.60892 z M 78.559925,184.60892 C 76.986592,184.60892 75.546592,184.39558 74.239925,183.96892 C 72.933259,183.51558 71.813259,182.87558 70.879925,182.04892 C 70.399925,181.62225 69.933259,181.08892 69.479925,180.44892 C 69.266592,180.15558 69.093259,179.88892 68.959925,179.64892 C 68.826592,179.38225 68.653259,178.96892 68.439925,178.40892 C 67.906592,176.94225 67.639925,175.24892 67.639925,173.32892 L 67.639925,153.48892 L 74.359925,153.48892 L 74.359925,172.88892 C 74.359925,173.92892 74.479925,174.80892 74.719925,175.52892 C 74.986592,176.24892 75.439925,176.94225 76.079925,177.60892 C 76.693259,178.16892 77.399925,178.59558 78.199925,178.88892 C 78.999925,179.15558 79.866592,179.28892 80.799925,179.28892 L 89.519925,179.28892 L 89.519925,184.60892 L 78.559925,184.60892 z M 35.399925,184.60892 L 35.399925,153.48892 L 54.679925,153.48892 C 57.239925,153.48892 59.386592,154.14225 61.119925,155.44892 C 63.093259,156.88892 64.079925,158.80892 64.079925,161.20892 C 64.079925,162.96892 63.666592,164.55558 62.839925,165.96892 C 62.439925,166.60892 61.959925,167.16892 61.399925,167.64892 C 60.839925,168.10225 60.093259,168.56892 59.159925,169.04892 C 60.759925,169.63558 62.039925,170.58225 62.999925,171.88892 C 63.959925,173.19558 64.439925,174.70225 64.439925,176.40892 C 64.439925,179.36892 63.439925,181.52892 61.439925,182.88892 C 59.813259,184.03558 57.559925,184.60892 54.679925,184.60892 L 35.399925,184.60892 z M 52.599925,166.48892 C 54.066592,166.48892 55.186592,166.14225 55.959925,165.44892 C 56.733259,164.75558 57.119925,163.79558 57.119925,162.56892 C 57.119925,159.92892 55.613259,158.60892 52.599925,158.60892 L 42.119925,158.60892 L 42.119925,166.48892 L 52.599925,166.48892 z M 52.599925,179.48892 C 54.066592,179.48892 55.186592,179.14225 55.959925,178.44892 C 56.733259,177.75558 57.119925,176.79558 57.119925,175.56892 C 57.119925,172.92892 55.613259,171.60892 52.599925,171.60892 L 42.119925,171.60892 L 42.119925,179.48892 L 52.599925,179.48892 z "
     id="path850" />
</svg>
