<?xml version="1.0" encoding="UTF-8" standalone="no"?>
<!DOCTYPE svg PUBLIC "-//W3C//DTD SVG 20010904//EN"
"http://www.w3.org/TR/2001/REC-SVG-20010904/DTD/svg10.dtd">
<!-- Created with Inkscape (http://www.inkscape.org/) -->
<svg
   id="svg1"
   sodipodi:version="0.32"
   inkscape:version="0.38.1"
   width="128.00000pt"
   height="128.00000pt"
   sodipodi:docbase="/usr/share/icons/Fuzzy/scalable/mimetypes"
   sodipodi:docname="gnome-mime-application-msword.svg"
   xmlns="http://www.w3.org/2000/svg"
   xmlns:inkscape="http://www.inkscape.org/namespaces/inkscape"
   xmlns:sodipodi="http://sodipodi.sourceforge.net/DTD/sodipodi-0.dtd"
   xmlns:xlink="http://www.w3.org/1999/xlink">
  <defs
     id="defs3">
    <linearGradient
       id="linearGradient907">
      <stop
         style="stop-color:#eed680;stop-opacity:1.0000000;"
         offset="0.0000000"
         id="stop908" />
      <stop
         style="stop-color:#dfb546;stop-opacity:1.0000000;"
         offset="0.29427481"
         id="stop911" />
      <stop
         style="stop-color:#d1940c;stop-opacity:1.0000000;"
         offset="1.0000000"
         id="stop910" />
    </linearGradient>
    <linearGradient
       id="linearGradient869">
      <stop
         style="stop-color:#7590ae;stop-opacity:1.0000000;"
         offset="0.0000000"
         id="stop870" />
      <stop
         style="stop-color:#89a4c0;stop-opacity:1.0000000;"
         offset="0.87030536"
         id="stop912" />
      <stop
         style="stop-color:#9db8d2;stop-opacity:1.0000000;"
         offset="1.0000000"
         id="stop871" />
    </linearGradient>
    <linearGradient
       id="linearGradient866">
      <stop
         style="stop-color:#ffff00;stop-opacity:1.0000000;"
         offset="0.0000000"
         id="stop867" />
      <stop
         style="stop-color:#ffea00;stop-opacity:1.0000000;"
         offset="0.36908397"
         id="stop901" />
      <stop
         style="stop-color:#ffd600;stop-opacity:1.0000000;"
         offset="1.0000000"
         id="stop868" />
    </linearGradient>
    <linearGradient
       xlink:href="#linearGradient907"
       id="linearGradient904"
       x1="0.35737705"
       y1="0.49346405"
       x2="0.17377049"
       y2="0.29411766"
       spreadMethod="reflect" />
    <linearGradient
       id="linearGradient839">
      <stop
         style="stop-color:#46a046;stop-opacity:1.0000000;"
         offset="0.0000000"
         id="stop840" />
      <stop
         style="stop-color:#df421e;stop-opacity:1.0000000;"
         offset="0.39364964"
         id="stop841" />
      <stop
         style="stop-color:#ada7c8;stop-opacity:1.0000000;"
         offset="0.72036445"
         id="stop842" />
      <stop
         style="stop-color:#eed680;stop-opacity:1.0000000;"
         offset="1.0000000"
         id="stop843" />
    </linearGradient>
    <linearGradient
       xlink:href="#linearGradient839"
       id="linearGradient836"
       x1="1.3267924e-17"
       y1="0.50000000"
       x2="1.0000000"
       y2="0.50000000" />
    <linearGradient
       xlink:href="#linearGradient869"
       id="linearGradient674"
       x1="0.68852460"
       y1="0.78625953"
       x2="0.37377051"
       y2="0.47328246"
       spreadMethod="reflect" />
  </defs>
  <sodipodi:namedview
     id="base"
     pagecolor="#ffffff"
     bordercolor="#666666"
     borderopacity="1.0"
     inkscape:pageopacity="0.0"
     inkscape:pageshadow="2"
     inkscape:zoom="5.0234375"
     inkscape:cx="63.093052"
     inkscape:cy="65.393468"
     inkscape:window-width="751"
     inkscape:window-height="909"
     showgrid="true"
     snaptogrid="false"
     gridspacingx="1.0000000mm"
     gridspacingy="1.0000000mm"
     inkscape:window-x="0"
     inkscape:window-y="31" />
  <rect
     style="fill:none;fill-rule:evenodd;stroke:#000000;stroke-width:11.250000;stroke-dasharray:none;stroke-opacity:0.50000000;stroke-linejoin:round;"
     id="rect834"
     width="128.25159"
     height="145.27559"
     x="16.993961"
     y="7.7354555"
     ry="22.892691" />
  <rect
     style="fill:#ffffff;fill-rule:evenodd;stroke:#000000;stroke-width:6.2500000;stroke-dasharray:none;"
     id="rect828"
     width="128.25158"
     height="145.27559"
     x="17.091653"
     y="7.6377954"
     ry="22.892691" />
  <path
     style="fill-rule:evenodd;stroke:#000000;stroke-width:0.72004113pt;"
     d="M 69.802503,63.471030 L 74.791215,64.543331 L 72.833011,61.512823 L 69.802503,63.471030 z "
     id="path873"
     sodipodi:nodetypes="cccc" />
  <path
     id="path900"
     fill="none"
     stroke="black"
     stroke-width="1"
     d="M 88.873500,51.389266 C 88.873500,51.389266 90.547125,51.091815 90.547125,51.091815 C 90.547125,51.091815 91.916952,52.207738 91.916952,52.207738 C 91.881018,51.542826 91.572862,51.312293 90.922792,51.008268 C 90.922792,51.008268 90.990304,50.694181 90.990304,50.694181 C 91.741638,50.527086 91.912594,50.563833 92.389528,50.009158 C 92.389528,50.009158 90.544947,50.269862 90.544947,50.269862 C 90.544947,50.269862 89.312321,49.347725 89.312321,49.347725 C 89.348255,50.012638 89.519211,50.049385 90.135524,50.510450 C 90.135524,50.510450 88.873500,51.389266 88.873500,51.389266 z M 89.618299,48.756305 C 89.618299,48.756305 90.405568,49.254116 90.405568,49.254116 C 91.908237,48.919919 92.286083,49.658325 92.760837,48.281700 C 92.760837,48.281700 92.418926,48.208208 92.418926,48.208208 C 91.908237,48.919919 91.566325,48.846427 90.711546,48.662695 C 90.711546,48.662695 90.880323,47.877492 90.880323,47.877492 C 90.880323,47.877492 90.538410,47.803999 90.538410,47.803999 C 90.538410,47.803999 90.369633,48.589203 90.369633,48.589203 C 90.369633,48.589203 89.685810,48.442218 89.685810,48.442218 C 89.685810,48.442218 89.618299,48.756305 89.618299,48.756305 z M 92.686792,46.129914 C 92.688971,46.951867 92.655214,47.108914 91.836368,47.590096 C 91.836368,47.590096 92.173923,46.019675 92.173923,46.019675 C 90.396854,45.966292 90.639677,47.332872 91.426947,47.830683 C 92.589882,48.244954 93.577505,46.978558 92.686792,46.129914 z M 91.112254,45.134284 C 91.112254,45.134284 93.334681,45.611985 93.334681,45.611985 C 93.334681,45.611985 93.402193,45.297898 93.402193,45.297898 C 92.376456,45.077421 91.863589,44.967182 91.724212,43.951436 C 91.724212,43.951436 91.382299,43.877943 91.382299,43.877943 C 91.382299,43.877943 91.555433,44.736650 91.555433,44.736650 C 91.555433,44.736650 91.112254,45.134284 91.112254,45.134284 z M 91.449809,43.563863 C 91.449809,43.563863 93.672237,44.041565 93.672237,44.041565 C 93.672237,44.041565 93.739749,43.727478 93.739749,43.727478 C 93.397836,43.653985 91.517321,43.249776 92.369921,42.611554 C 92.608390,42.334214 93.634125,42.554691 93.976037,42.628184 C 93.976037,42.628184 94.043547,42.314104 94.043547,42.314104 C 93.701635,42.240611 91.992075,41.873148 92.639965,41.355220 C 92.878433,41.077880 93.904169,41.298357 94.246081,41.371849 C 94.246081,41.371849 94.347347,40.900723 94.347347,40.900723 C 93.834479,40.790484 92.979700,40.606752 92.433077,40.653554 C 92.023653,40.894148 91.719852,42.307529 91.789543,42.815395 C 91.755787,42.972442 91.926743,43.009189 91.892988,43.166229 C 91.892988,43.166229 91.449809,43.563863 91.449809,43.563863 z M 91.764502,46.260263 C 91.764502,46.260263 91.494457,47.516603 91.494457,47.516603 C 91.082856,46.935238 90.979411,46.584404 91.764502,46.260263 z "
     style="fill:none;stroke:#000000;stroke-width:0.16759372;" />
  <path
     style="fill:url(#linearGradient674);fill-rule:evenodd;stroke:#000000;stroke-width:3.6002057;"
     d="M 60.706767,66.061293 C 76.015081,49.758486 107.49250,17.715988 119.10216,29.512404 C 129.37105,41.744571 89.547236,67.154383 72.719322,77.933003 L 60.706767,66.061293 z "
     id="path879"
     sodipodi:nodetypes="cccc" />
  <path
     style="fill:url(#linearGradient904);fill-opacity:0.75000000;fill-rule:evenodd;stroke:#000000;stroke-width:2.7001543;"
     d="M 70.853522,76.680462 C 70.853522,76.680462 67.232746,83.657200 68.987711,85.688192 C 70.816065,87.289952 53.283141,92.592155 50.431715,92.271297 C 50.431717,92.271305 47.962958,97.681103 44.379636,94.048344 C 40.796320,90.415593 46.438207,87.791353 46.438207,87.791353 C 46.443358,83.595025 51.071115,67.524419 52.862775,69.340796 C 54.654435,71.157171 61.895225,67.598574 61.895225,67.598574 C 61.895225,67.598574 70.853522,76.680462 70.853522,76.680462 z "
     id="path868"
     sodipodi:nodetypes="cccccccc" />
  <path
     style="fill:none;fill-opacity:0.75000000;fill-rule:evenodd;stroke:#000000;stroke-width:0.72004113pt;stroke-linecap:round;stroke-linejoin:round;"
     d="M 45.597291,92.861796 C 45.597291,92.861796 60.128307,78.528518 60.128307,78.528518"
     id="path876"
     sodipodi:nodetypes="cc" />
  <path
     style="font-size:40.000000;stroke-width:1.0000000pt;font-family:Trek;"
     d="M 128.29020,107.72914 L 128.29020,113.08914 L 116.77020,113.08914 C 114.21020,113.08914 112.29020,113.94247 111.01020,115.64914 C 109.73020,117.35580 109.09020,119.90247 109.09020,123.28914 C 109.09020,126.70247 109.69020,129.26247 110.89020,130.96914 C 112.09020,132.67580 114.05020,133.52914 116.77020,133.52914 L 128.29020,133.52914 L 128.29020,138.84914 L 114.77020,138.84914 C 110.55687,138.84914 107.31687,137.51580 105.05020,134.84914 C 102.81020,132.15580 101.69020,128.30247 101.69020,123.28914 C 101.69020,118.22247 102.81020,114.36914 105.05020,111.72914 C 107.29020,109.06247 110.53020,107.72914 114.77020,107.72914 L 128.29020,107.72914 z M 66.890202,123.28914 C 66.890202,120.70247 67.143536,118.51580 67.650202,116.72914 C 68.183536,114.91580 69.010202,113.32914 70.130202,111.96914 C 72.663536,108.84914 76.850202,107.28914 82.690202,107.28914 C 88.370202,107.28914 92.556869,108.83580 95.250202,111.92914 C 95.703536,112.48914 96.156869,113.20914 96.610202,114.08914 C 96.663536,114.19580 96.796869,114.50247 97.010202,115.00914 C 97.223536,115.51580 97.436869,116.08914 97.650202,116.72914 C 98.210202,118.62247 98.490202,120.80914 98.490202,123.28914 C 98.490202,128.19580 97.423536,131.96914 95.290202,134.60914 C 92.676869,137.72914 88.476869,139.28914 82.690202,139.28914 C 76.850202,139.28914 72.663536,137.74247 70.130202,134.64914 C 67.970202,132.08914 66.890202,128.30247 66.890202,123.28914 z M 82.690202,112.40914 C 79.970202,112.40914 77.876869,113.06247 76.410202,114.36914 C 74.730202,115.96914 73.890202,118.94247 73.890202,123.28914 C 73.890202,126.70247 74.356869,129.20914 75.290202,130.80914 C 76.570202,133.04914 79.036869,134.16914 82.690202,134.16914 C 86.183536,134.16914 88.650202,133.04914 90.090202,130.80914 C 91.050202,129.20914 91.530202,126.70247 91.530202,123.28914 C 91.530202,119.82247 91.063536,117.31580 90.130202,115.76914 C 88.770202,113.52914 86.290202,112.40914 82.690202,112.40914 z M 34.330202,107.72914 L 50.850202,107.72914 C 55.036869,107.72914 58.223536,109.06247 60.410202,111.72914 C 62.596869,114.39580 63.690202,118.24914 63.690202,123.28914 C 63.690202,128.27580 62.596869,132.11580 60.410202,134.80914 C 58.250202,137.50247 55.063536,138.84914 50.850202,138.84914 L 34.330202,138.84914 L 34.330202,107.72914 z M 40.810202,133.52914 L 48.690202,133.52914 C 51.303536,133.52914 53.236869,132.68914 54.490202,131.00914 C 55.743536,129.30247 56.370202,126.72914 56.370202,123.28914 C 56.370202,119.84914 55.770202,117.28914 54.570202,115.60914 C 53.396869,113.92914 51.436869,113.08914 48.690202,113.08914 L 40.810202,113.08914 L 40.810202,133.52914 z "
     id="path905" />
</svg>
