<?xml version="1.0" encoding="UTF-8" standalone="no"?>
<!DOCTYPE svg PUBLIC "-//W3C//DTD SVG 20010904//EN"
"http://www.w3.org/TR/2001/REC-SVG-20010904/DTD/svg10.dtd">
<!-- Created with Inkscape (http://www.inkscape.org/) -->
<svg
   id="svg1"
   sodipodi:version="0.32"
   inkscape:version="0.38.1"
   width="128.00000pt"
   height="128.00000pt"
   sodipodi:docbase="/usr/share/icons/Fuzzy/scalable/mimetypes"
   sodipodi:docname="gnome-mime-audio-x-voc.svg"
   xmlns="http://www.w3.org/2000/svg"
   xmlns:inkscape="http://www.inkscape.org/namespaces/inkscape"
   xmlns:sodipodi="http://sodipodi.sourceforge.net/DTD/sodipodi-0.dtd"
   xmlns:xlink="http://www.w3.org/1999/xlink">
  <defs
     id="defs3">
    <linearGradient
       id="linearGradient839">
      <stop
         style="stop-color:#46a046;stop-opacity:1.0000000;"
         offset="0.0000000"
         id="stop840" />
      <stop
         style="stop-color:#df421e;stop-opacity:1.0000000;"
         offset="0.39364964"
         id="stop841" />
      <stop
         style="stop-color:#ada7c8;stop-opacity:1.0000000;"
         offset="0.72036445"
         id="stop842" />
      <stop
         style="stop-color:#eed680;stop-opacity:1.0000000;"
         offset="1.0000000"
         id="stop843" />
    </linearGradient>
    <linearGradient
       xlink:href="#linearGradient839"
       id="linearGradient836"
       x1="1.3267924e-17"
       y1="0.50000000"
       x2="1.0000000"
       y2="0.50000000" />
  </defs>
  <sodipodi:namedview
     id="base"
     pagecolor="#ffffff"
     bordercolor="#666666"
     borderopacity="1.0"
     inkscape:pageopacity="0.0"
     inkscape:pageshadow="2"
     inkscape:zoom="5.0234375"
     inkscape:cx="65.065954"
     inkscape:cy="64.597201"
     inkscape:window-width="751"
     inkscape:window-height="909"
     showgrid="true"
     snaptogrid="true"
     gridspacingx="1.0000000mm"
     gridspacingy="1.0000000mm"
     inkscape:window-x="0"
     inkscape:window-y="31" />
  <rect
     style="fill:none;fill-rule:evenodd;stroke:#000000;stroke-width:11.250000;stroke-dasharray:none;stroke-opacity:0.50000000;stroke-linejoin:round;"
     id="rect834"
     width="128.25159"
     height="145.27559"
     x="17.024004"
     y="7.6377968"
     ry="22.892691" />
  <rect
     style="fill:#ffffff;fill-rule:evenodd;stroke:#000000;stroke-width:6.2500000;stroke-dasharray:none;"
     id="rect828"
     width="128.25158"
     height="145.27559"
     x="17.091653"
     y="7.6377954"
     ry="22.892691" />
  <path
     style="fill:#4b6983;fill-rule:evenodd;stroke:#000000;stroke-width:1.5059674;stroke-linejoin:round;"
     d="M 89.725711,30.433362 L 74.778985,94.455805 L 104.65881,79.520341 C 107.41966,77.077142 110.92444,76.441725 112.63525,70.717991 C 114.25030,65.314633 113.28001,62.195194 111.06214,58.175920 L 111.06214,58.175920 L 89.725711,30.433362 z "
     id="path831"
     sodipodi:nodetypes="ccccccc" />
  <path
     sodipodi:type="arc"
     style="fill-rule:evenodd;stroke:#000000;stroke-width:5.0000000;fill:#9db8d2;fill-opacity:1.0000000;stroke-dasharray:none;"
     id="path825"
     sodipodi:cx="100.98425"
     sodipodi:cy="78.503937"
     sodipodi:rx="44.291340"
     sodipodi:ry="70.866142"
     d="M 145.27559 78.503937 A 44.291340 70.866142 0 1 0 56.692913,78.503937 A 44.291340 70.866142 0 1 0 145.27559 78.503937 z"
     transform="matrix(0.477735,0.122682,-0.122682,0.477735,35.52938,11.17656)" />
  <path
     sodipodi:type="arc"
     style="fill-rule:evenodd;stroke:#000000;stroke-width:2.2747321;stroke-dasharray:none;fill:#7590ae;fill-opacity:1.0000000;"
     id="path826"
     sodipodi:cx="102.75591"
     sodipodi:cy="85.590553"
     sodipodi:rx="28.346457"
     sodipodi:ry="56.692913"
     d="M 131.10237 85.590553 A 28.346457 56.692913 0 1 0 74.409456,85.590553 A 28.346457 56.692913 0 1 0 131.10237 85.590553 z"
     transform="matrix(0.575251,0.147724,-0.135083,0.526023,24.05911,0.197551)" />
  <path
     sodipodi:type="arc"
     style="fill-rule:evenodd;stroke:#000000;stroke-width:1.0000000pt;fill:#314e6c;fill-opacity:1.0000000;"
     id="path827"
     sodipodi:cx="33.661419"
     sodipodi:cy="51.929134"
     sodipodi:rx="12.401575"
     sodipodi:ry="19.488190"
     d="M 46.062994 51.929134 A 12.401575 19.488190 0 1 0 21.259844,51.929134 A 12.401575 19.488190 0 1 0 46.062994 51.929134 z"
     transform="matrix(0.477735,0.122682,-0.140577,0.547423,70.71934,29.45280)" />
  <path
     style="font-size:40.000000;stroke-width:1.0000000pt;font-family:Trek;"
     d="M 129.81953,107.72914 L 129.81953,113.08914 L 118.29953,113.08914 C 115.73953,113.08914 113.81953,113.94247 112.53953,115.64914 C 111.25953,117.35580 110.61953,119.90247 110.61953,123.28914 C 110.61953,126.70247 111.21953,129.26247 112.41953,130.96914 C 113.61953,132.67580 115.57953,133.52914 118.29953,133.52914 L 129.81953,133.52914 L 129.81953,138.84914 L 116.29953,138.84914 C 112.08620,138.84914 108.84620,137.51580 106.57953,134.84914 C 104.33953,132.15580 103.21953,128.30247 103.21953,123.28914 C 103.21953,118.22247 104.33953,114.36914 106.57953,111.72914 C 108.81953,109.06247 112.05953,107.72914 116.29953,107.72914 L 129.81953,107.72914 z M 68.419533,123.28914 C 68.419533,120.70247 68.672866,118.51580 69.179533,116.72914 C 69.712866,114.91580 70.539533,113.32914 71.659533,111.96914 C 74.192866,108.84914 78.379533,107.28914 84.219533,107.28914 C 89.899533,107.28914 94.086200,108.83580 96.779533,111.92914 C 97.232866,112.48914 97.686200,113.20914 98.139533,114.08914 C 98.192866,114.19580 98.326200,114.50247 98.539533,115.00914 C 98.752866,115.51580 98.966200,116.08914 99.179533,116.72914 C 99.739533,118.62247 100.01953,120.80914 100.01953,123.28914 C 100.01953,128.19580 98.952866,131.96914 96.819533,134.60914 C 94.206200,137.72914 90.006200,139.28914 84.219533,139.28914 C 78.379533,139.28914 74.192866,137.74247 71.659533,134.64914 C 69.499533,132.08914 68.419533,128.30247 68.419533,123.28914 z M 84.219533,112.40914 C 81.499533,112.40914 79.406200,113.06247 77.939533,114.36914 C 76.259533,115.96914 75.419533,118.94247 75.419533,123.28914 C 75.419533,126.70247 75.886200,129.20914 76.819533,130.80914 C 78.099533,133.04914 80.566200,134.16914 84.219533,134.16914 C 87.712866,134.16914 90.179533,133.04914 91.619533,130.80914 C 92.579533,129.20914 93.059533,126.70247 93.059533,123.28914 C 93.059533,119.82247 92.592866,117.31580 91.659533,115.76914 C 90.299533,113.52914 87.819533,112.40914 84.219533,112.40914 z M 32.099533,107.72914 L 39.819533,107.72914 L 49.259533,132.00914 L 49.419533,132.00914 L 59.179533,107.72914 L 66.899533,107.72914 L 52.379533,138.84914 L 45.499533,138.84914 L 32.099533,107.72914 z "
     id="path867" />
</svg>
