<?xml version="1.0" encoding="UTF-8" standalone="no"?>
<!DOCTYPE svg PUBLIC "-//W3C//DTD SVG 20010904//EN"
"http://www.w3.org/TR/2001/REC-SVG-20010904/DTD/svg10.dtd">
<!-- Created with Inkscape (http://www.inkscape.org/) -->
<svg
   id="svg1"
   sodipodi:version="0.32"
   inkscape:version="0.38.1"
   width="128.00000pt"
   height="128.00000pt"
   sodipodi:docbase="/usr/share/icons/Fuzzy/scalable/mimetypes"
   sodipodi:docname="gnome-mime-image-ief.svg"
   xmlns="http://www.w3.org/2000/svg"
   xmlns:inkscape="http://www.inkscape.org/namespaces/inkscape"
   xmlns:sodipodi="http://sodipodi.sourceforge.net/DTD/sodipodi-0.dtd"
   xmlns:xlink="http://www.w3.org/1999/xlink">
  <defs
     id="defs3">
    <linearGradient
       id="linearGradient839">
      <stop
         style="stop-color:#46a046;stop-opacity:1.0000000;"
         offset="0.0000000"
         id="stop840" />
      <stop
         style="stop-color:#df421e;stop-opacity:1.0000000;"
         offset="0.39364964"
         id="stop841" />
      <stop
         style="stop-color:#ada7c8;stop-opacity:1.0000000;"
         offset="0.72036445"
         id="stop842" />
      <stop
         style="stop-color:#eed680;stop-opacity:1.0000000;"
         offset="1.0000000"
         id="stop843" />
    </linearGradient>
    <linearGradient
       id="linearGradient833">
      <stop
         style="stop-color:#00ff00;stop-opacity:1.0000000;"
         offset="0.0000000"
         id="stop834" />
      <stop
         style="stop-color:#ff0000;stop-opacity:1.0000000;"
         offset="0.30839416"
         id="stop837" />
      <stop
         style="stop-color:#7f8cff;stop-opacity:1.0000000;"
         offset="0.75000000"
         id="stop838" />
      <stop
         style="stop-color:#ffff00;stop-opacity:1.0000000;"
         offset="1.0000000"
         id="stop835" />
    </linearGradient>
    <linearGradient
       xlink:href="#linearGradient839"
       id="linearGradient836"
       x1="1.3267924e-17"
       y1="0.50000000"
       x2="1.0000000"
       y2="0.50000000" />
  </defs>
  <sodipodi:namedview
     id="base"
     pagecolor="#ffffff"
     bordercolor="#666666"
     borderopacity="1.0"
     inkscape:pageopacity="0.0"
     inkscape:pageshadow="2"
     inkscape:zoom="5.0234375"
     inkscape:cx="70.541588"
     inkscape:cy="64.069669"
     inkscape:window-width="751"
     inkscape:window-height="909"
     showgrid="true"
     snaptogrid="true"
     gridspacingx="1.0000000mm"
     gridspacingy="1.0000000mm"
     inkscape:window-x="0"
     inkscape:window-y="31" />
  <rect
     style="fill:none;fill-rule:evenodd;stroke:#000000;stroke-width:11.250000;stroke-dasharray:none;stroke-opacity:0.50000000;stroke-linejoin:round;"
     id="rect834"
     width="128.25159"
     height="145.27559"
     x="17.024004"
     y="7.6377968"
     ry="22.892691" />
  <rect
     style="fill:#ffffff;fill-rule:evenodd;stroke:#000000;stroke-width:6.2500000;stroke-dasharray:none;"
     id="rect828"
     width="128.25158"
     height="145.27559"
     x="17.091653"
     y="7.6377954"
     ry="22.892691" />
  <rect
     style="fill:url(#linearGradient836);fill-rule:evenodd;stroke:#000000;stroke-width:3.4436574;"
     id="rect832"
     width="125.93480"
     height="67.172065"
     ry="1.2896985"
     x="18.276772"
     y="28.497944" />
  <path
     style="font-size:40.000000;stroke-width:1.0000000pt;font-family:Trek;"
     d="M 115.17555,113.33798 L 105.17555,113.33798 C 103.62889,113.33798 102.38889,113.51131 101.45555,113.85798 C 101.00222,113.99131 100.60222,114.15131 100.25555,114.33798 C 99.908886,114.52464 99.575553,114.79131 99.255553,115.13798 C 98.375553,115.93798 97.735553,116.92464 97.335553,118.09798 L 97.095553,119.05798 L 97.015553,120.13798 L 97.015553,120.97798 L 115.17555,120.97798 L 115.17555,126.09798 L 97.015553,126.09798 L 97.015553,139.09798 L 90.295553,139.09798 L 90.295553,123.53798 C 90.295553,122.17798 90.335553,120.99131 90.415553,119.97798 C 90.495553,118.93798 90.628886,118.03131 90.815553,117.25798 C 91.375553,114.69798 92.548886,112.60464 94.335553,110.97798 C 95.455553,109.93798 96.815553,109.17798 98.415553,108.69798 C 100.01555,108.21798 102.04222,107.97798 104.49555,107.97798 L 115.17555,107.97798 L 115.17555,113.33798 z M 87.095553,126.09798 L 68.815553,126.09798 L 68.815553,126.29798 L 69.295553,128.73798 C 69.695553,130.01798 70.375553,131.16464 71.335553,132.17798 C 71.548886,132.33798 71.748886,132.47131 71.935553,132.57798 C 72.282219,132.79131 72.762219,133.04464 73.375553,133.33798 L 74.655553,133.65798 L 76.375553,133.77798 L 87.095553,133.77798 L 87.095553,139.09798 L 74.495553,139.09798 C 70.282219,139.09798 67.042219,137.76464 64.775553,135.09798 C 62.535553,132.40464 61.415553,128.55131 61.415553,123.53798 C 61.415553,118.47131 62.535553,114.61798 64.775553,111.97798 C 67.015553,109.31131 70.255553,107.97798 74.495553,107.97798 L 87.095553,107.97798 L 87.095553,113.33798 L 76.375553,113.33798 L 75.615553,113.33798 L 74.855553,113.41798 C 74.322219,113.41798 73.762219,113.55131 73.175553,113.81798 C 72.615553,114.08464 72.002219,114.45798 71.335553,114.93798 C 70.695553,115.57798 70.135553,116.41798 69.655553,117.45798 C 69.362219,118.15131 69.082219,119.25798 68.815553,120.77798 L 68.815553,120.97798 L 87.095553,120.97798 L 87.095553,126.09798 z M 56.735553,139.09798 L 50.015553,139.09798 L 50.015553,107.97798 L 56.735553,107.97798 L 56.735553,139.09798 z "
     id="path849" />
</svg>
