<?xml version="1.0" encoding="UTF-8" standalone="no"?>
<!DOCTYPE svg PUBLIC "-//W3C//DTD SVG 20010904//EN"
"http://www.w3.org/TR/2001/REC-SVG-20010904/DTD/svg10.dtd">
<!-- Created with Inkscape (http://www.inkscape.org/) -->
<svg
   id="svg1"
   sodipodi:version="0.32"
   inkscape:version="0.38.1"
   width="128.00000pt"
   height="128.00000pt"
   sodipodi:docbase="/usr/share/icons/Fuzzy/scalable/mimetypes"
   sodipodi:docname="gnome-mime-text-x-troff-man.svg"
   xmlns="http://www.w3.org/2000/svg"
   xmlns:inkscape="http://www.inkscape.org/namespaces/inkscape"
   xmlns:sodipodi="http://sodipodi.sourceforge.net/DTD/sodipodi-0.dtd"
   xmlns:xlink="http://www.w3.org/1999/xlink">
  <defs
     id="defs3">
    <linearGradient
       id="linearGradient907">
      <stop
         style="stop-color:#eed680;stop-opacity:1.0000000;"
         offset="0.0000000"
         id="stop908" />
      <stop
         style="stop-color:#dfb546;stop-opacity:1.0000000;"
         offset="0.29427481"
         id="stop911" />
      <stop
         style="stop-color:#d1940c;stop-opacity:1.0000000;"
         offset="1.0000000"
         id="stop910" />
    </linearGradient>
    <linearGradient
       id="linearGradient869">
      <stop
         style="stop-color:#7590ae;stop-opacity:1.0000000;"
         offset="0.0000000"
         id="stop870" />
      <stop
         style="stop-color:#89a4c0;stop-opacity:1.0000000;"
         offset="0.87030536"
         id="stop912" />
      <stop
         style="stop-color:#9db8d2;stop-opacity:1.0000000;"
         offset="1.0000000"
         id="stop871" />
    </linearGradient>
    <linearGradient
       id="linearGradient866">
      <stop
         style="stop-color:#ffff00;stop-opacity:1.0000000;"
         offset="0.0000000"
         id="stop867" />
      <stop
         style="stop-color:#ffea00;stop-opacity:1.0000000;"
         offset="0.36908397"
         id="stop901" />
      <stop
         style="stop-color:#ffd600;stop-opacity:1.0000000;"
         offset="1.0000000"
         id="stop868" />
    </linearGradient>
    <linearGradient
       xlink:href="#linearGradient907"
       id="linearGradient904"
       x1="0.35737705"
       y1="0.49346405"
       x2="0.17377049"
       y2="0.29411766"
       spreadMethod="reflect" />
    <linearGradient
       id="linearGradient839">
      <stop
         style="stop-color:#46a046;stop-opacity:1.0000000;"
         offset="0.0000000"
         id="stop840" />
      <stop
         style="stop-color:#df421e;stop-opacity:1.0000000;"
         offset="0.39364964"
         id="stop841" />
      <stop
         style="stop-color:#ada7c8;stop-opacity:1.0000000;"
         offset="0.72036445"
         id="stop842" />
      <stop
         style="stop-color:#eed680;stop-opacity:1.0000000;"
         offset="1.0000000"
         id="stop843" />
    </linearGradient>
    <linearGradient
       xlink:href="#linearGradient839"
       id="linearGradient836"
       x1="1.3267924e-17"
       y1="0.50000000"
       x2="1.0000000"
       y2="0.50000000" />
    <linearGradient
       xlink:href="#linearGradient869"
       id="linearGradient674"
       x1="0.68852460"
       y1="0.78625953"
       x2="0.37377051"
       y2="0.47328246"
       spreadMethod="reflect" />
  </defs>
  <sodipodi:namedview
     id="base"
     pagecolor="#ffffff"
     bordercolor="#666666"
     borderopacity="1.0"
     inkscape:pageopacity="0.0"
     inkscape:pageshadow="2"
     inkscape:zoom="5.0234375"
     inkscape:cx="64.190258"
     inkscape:cy="66.779610"
     inkscape:window-width="751"
     inkscape:window-height="909"
     showgrid="true"
     snaptogrid="true"
     gridspacingx="1.0000000mm"
     gridspacingy="1.0000000mm"
     inkscape:window-x="0"
     inkscape:window-y="31" />
  <rect
     style="fill:none;fill-rule:evenodd;stroke:#000000;stroke-width:11.250000;stroke-dasharray:none;stroke-opacity:0.50000000;stroke-linejoin:round;"
     id="rect834"
     width="128.25159"
     height="145.27559"
     x="17.024004"
     y="7.6377968"
     ry="22.892691" />
  <rect
     style="fill:#ffffff;fill-rule:evenodd;stroke:#000000;stroke-width:6.2500000;stroke-dasharray:none;"
     id="rect828"
     width="128.25158"
     height="145.27559"
     x="17.091653"
     y="7.6377954"
     ry="22.892691" />
  <path
     style="fill:#ffffff;fill-rule:evenodd;stroke:#000000;stroke-width:2.3625402;"
     d="M 33.983997,80.256563 C 33.983997,106.74975 55.489749,128.25550 81.982939,128.25550 C 108.47613,128.25550 129.98188,106.74975 129.98188,80.256563 C 129.98188,53.763370 108.47613,32.257619 81.982939,32.257619 C 55.489749,32.257619 33.983997,53.763370 33.983997,80.256563 z M 58.554417,80.217189 C 58.554417,66.793322 69.235037,55.902710 82.416072,55.902710 C 95.597113,55.902710 106.29742,66.793322 106.29742,80.217189 C 106.29742,93.641044 95.597102,104.53166 82.416072,104.53166 C 69.235037,104.53166 58.554417,93.641044 58.554417,80.217189 z "
     id="path834" />
  <path
     style="fill:#df421e;fill-rule:evenodd;stroke:none;stroke-width:1.0000000pt;fill-opacity:1.0000000;"
     d="M 33.860318,80.337840 L 58.540006,80.208606 C 58.540006,80.208606 58.451218,56.813629 81.934989,56.813629 C 81.934989,47.884338 81.934989,32.258096 81.934989,32.258096 C 81.934989,32.258096 63.004647,30.025767 45.146072,50.116655 C 31.752141,67.975237 33.860318,80.337840 33.860318,80.337840 z "
     id="path837"
     sodipodi:nodetypes="cccccc" />
  <path
     style="fill:#df421e;fill-rule:evenodd;stroke:none;stroke-width:1.0000000pt;fill-opacity:1.0000000;"
     d="M 130.40341,80.602363 L 105.72372,80.731597 C 105.72372,80.731597 105.81251,104.12657 82.328740,104.12657 C 82.328740,113.05586 82.328740,128.68211 82.328740,128.68211 C 82.328740,128.68211 101.25909,130.91443 119.11766,110.82354 C 132.51159,92.964964 130.40341,80.602363 130.40341,80.602363 z "
     id="path839"
     sodipodi:nodetypes="cccccc" />
  <path
     style="fill-opacity:0.0000000;fill-rule:evenodd;stroke:#686868;stroke-width:5.0552111;stroke-opacity:0.49677417;"
     d="M 128.32083,77.261120 C 128.32083,99.243094 110.46243,120.74487 88.458347,125.25618 C 66.454258,129.76749 48.595868,115.58837 48.595868,93.606404 C 48.595868,71.624435 66.454258,50.122641 88.458347,45.611342 C 110.46243,41.100032 128.32083,55.279135 128.32083,77.261120 z "
     id="path875" />
  <path
     style="fill-opacity:0.0000000;fill-rule:evenodd;stroke:#ffffff;stroke-width:5.0552111;stroke-opacity:0.78064513;"
     d="M 116.07570,67.026383 C 116.07570,89.008364 98.217300,110.51013 76.213219,115.02144 C 54.209135,119.53275 36.350745,105.35365 36.350745,83.371683 C 36.350745,61.389709 54.209135,39.887915 76.213219,35.376616 C 98.217300,30.865307 116.07570,45.044409 116.07570,67.026383 z "
     id="path872" />
  <path
     style="fill:#ffffff;fill-rule:evenodd;stroke:none;stroke-width:1.0000000pt;fill-opacity:1.0000000;"
     d="M 33.956228,80.208606 L 58.635916,80.337829 C 58.635916,80.337829 58.547129,103.73281 82.030902,103.73281 C 82.030902,112.66210 82.030902,128.28834 82.030902,128.28834 C 82.030902,128.28834 63.100559,130.52067 45.241982,110.42978 C 31.848052,92.571204 33.956228,80.208606 33.956228,80.208606 z "
     id="path936"
     sodipodi:nodetypes="cccccc" />
  <path
     style="fill:#ffffff;fill-rule:evenodd;stroke:none;stroke-width:1.0000000pt;fill-opacity:1.0000000;"
     d="M 82.030902,32.133929 L 82.160130,56.813617 C 82.160130,56.813617 105.55512,56.724835 105.55512,80.208606 C 114.48440,80.208606 130.11065,80.208606 130.11065,80.208606 C 130.11065,80.208606 132.34298,61.278263 112.25208,43.419692 C 94.393510,30.025756 82.030902,32.133929 82.030902,32.133929 z "
     id="path937"
     sodipodi:nodetypes="cccccc" />
  <path
     style="fill:#ffffff;fill-opacity:0.0000000;fill-rule:evenodd;stroke:#000000;stroke-width:3.1500537;"
     d="M 33.618471,80.622089 C 33.618471,107.11527 55.124222,128.62102 81.617414,128.62102 C 108.11061,128.62102 129.61635,107.11527 129.61636,80.622089 C 129.61636,54.128896 108.11061,32.623146 81.617414,32.623146 C 55.124222,32.623146 33.618471,54.128896 33.618471,80.622089 z M 58.188891,80.582715 C 58.188891,67.158848 68.869512,56.268236 82.050546,56.268236 C 95.231598,56.268236 105.93190,67.158848 105.93190,80.582715 C 105.93190,94.006564 95.231587,104.89719 82.050546,104.89719 C 68.869512,104.89719 58.188891,94.006564 58.188891,80.582715 z "
     id="path847" />
  <g
     id="g906"
     transform="matrix(0.994283,-0.106781,0.106781,0.994283,5.905206,18.08878)">
    <path
       style="fill-rule:evenodd;stroke:#000000;stroke-width:0.72004113pt;"
       d="M 69.802503,63.471030 L 74.791215,64.543331 L 72.833011,61.512823 L 69.802503,63.471030 z "
       id="path873"
       sodipodi:nodetypes="cccc" />
    <path
       id="path900"
       fill="none"
       stroke="black"
       stroke-width="1"
       d="M 88.873500,51.389266 C 88.873500,51.389266 90.547125,51.091815 90.547125,51.091815 C 90.547125,51.091815 91.916952,52.207738 91.916952,52.207738 C 91.881018,51.542826 91.572862,51.312293 90.922792,51.008268 C 90.922792,51.008268 90.990304,50.694181 90.990304,50.694181 C 91.741638,50.527086 91.912594,50.563833 92.389528,50.009158 C 92.389528,50.009158 90.544947,50.269862 90.544947,50.269862 C 90.544947,50.269862 89.312321,49.347725 89.312321,49.347725 C 89.348255,50.012638 89.519211,50.049385 90.135524,50.510450 C 90.135524,50.510450 88.873500,51.389266 88.873500,51.389266 z M 89.618299,48.756305 C 89.618299,48.756305 90.405568,49.254116 90.405568,49.254116 C 91.908237,48.919919 92.286083,49.658325 92.760837,48.281700 C 92.760837,48.281700 92.418926,48.208208 92.418926,48.208208 C 91.908237,48.919919 91.566325,48.846427 90.711546,48.662695 C 90.711546,48.662695 90.880323,47.877492 90.880323,47.877492 C 90.880323,47.877492 90.538410,47.803999 90.538410,47.803999 C 90.538410,47.803999 90.369633,48.589203 90.369633,48.589203 C 90.369633,48.589203 89.685810,48.442218 89.685810,48.442218 C 89.685810,48.442218 89.618299,48.756305 89.618299,48.756305 z M 92.686792,46.129914 C 92.688971,46.951867 92.655214,47.108914 91.836368,47.590096 C 91.836368,47.590096 92.173923,46.019675 92.173923,46.019675 C 90.396854,45.966292 90.639677,47.332872 91.426947,47.830683 C 92.589882,48.244954 93.577505,46.978558 92.686792,46.129914 z M 91.112254,45.134284 C 91.112254,45.134284 93.334681,45.611985 93.334681,45.611985 C 93.334681,45.611985 93.402193,45.297898 93.402193,45.297898 C 92.376456,45.077421 91.863589,44.967182 91.724212,43.951436 C 91.724212,43.951436 91.382299,43.877943 91.382299,43.877943 C 91.382299,43.877943 91.555433,44.736650 91.555433,44.736650 C 91.555433,44.736650 91.112254,45.134284 91.112254,45.134284 z M 91.449809,43.563863 C 91.449809,43.563863 93.672237,44.041565 93.672237,44.041565 C 93.672237,44.041565 93.739749,43.727478 93.739749,43.727478 C 93.397836,43.653985 91.517321,43.249776 92.369921,42.611554 C 92.608390,42.334214 93.634125,42.554691 93.976037,42.628184 C 93.976037,42.628184 94.043547,42.314104 94.043547,42.314104 C 93.701635,42.240611 91.992075,41.873148 92.639965,41.355220 C 92.878433,41.077880 93.904169,41.298357 94.246081,41.371849 C 94.246081,41.371849 94.347347,40.900723 94.347347,40.900723 C 93.834479,40.790484 92.979700,40.606752 92.433077,40.653554 C 92.023653,40.894148 91.719852,42.307529 91.789543,42.815395 C 91.755787,42.972442 91.926743,43.009189 91.892988,43.166229 C 91.892988,43.166229 91.449809,43.563863 91.449809,43.563863 z M 91.764502,46.260263 C 91.764502,46.260263 91.494457,47.516603 91.494457,47.516603 C 91.082856,46.935238 90.979411,46.584404 91.764502,46.260263 z "
       style="fill:none;stroke:#000000;stroke-width:0.16759372;" />
    <path
       style="fill:url(#linearGradient674);fill-rule:evenodd;stroke:#000000;stroke-width:3.6002057;"
       d="M 60.706767,66.061293 C 76.015081,49.758486 107.49250,17.715988 119.10216,29.512404 C 129.37105,41.744571 89.547236,67.154383 72.719322,77.933003 L 60.706767,66.061293 z "
       id="path879"
       sodipodi:nodetypes="cccc" />
    <path
       style="fill:url(#linearGradient904);fill-opacity:0.75000000;fill-rule:evenodd;stroke:#000000;stroke-width:2.7001543;"
       d="M 70.853522,76.680462 C 70.853522,76.680462 67.232746,83.657200 68.987711,85.688192 C 70.816065,87.289952 53.283141,92.592155 50.431715,92.271297 C 50.431717,92.271305 47.962958,97.681103 44.379636,94.048344 C 40.796320,90.415593 46.438207,87.791353 46.438207,87.791353 C 46.443358,83.595025 51.071115,67.524419 52.862775,69.340796 C 54.654435,71.157171 61.895225,67.598574 61.895225,67.598574 C 61.895225,67.598574 70.853522,76.680462 70.853522,76.680462 z "
       id="path868"
       sodipodi:nodetypes="cccccccc" />
    <path
       style="fill:none;fill-opacity:0.75000000;fill-rule:evenodd;stroke:#000000;stroke-width:0.72004113pt;stroke-linecap:round;stroke-linejoin:round;"
       d="M 45.597291,92.861796 C 45.597291,92.861796 60.128307,78.528518 60.128307,78.528518"
       id="path876"
       sodipodi:nodetypes="cc" />
  </g>
</svg>
