<?xml version="1.0" encoding="UTF-8" standalone="no"?>
<!DOCTYPE svg PUBLIC "-//W3C//DTD SVG 20010904//EN"
"http://www.w3.org/TR/2001/REC-SVG-20010904/DTD/svg10.dtd">
<!-- Created with Inkscape (http://www.inkscape.org/) -->
<svg
   id="svg1"
   sodipodi:version="0.32"
   inkscape:version="0.38.1"
   width="128.00000pt"
   height="128.00000pt"
   sodipodi:docbase="/usr/share/icons/Fuzzy/scalable/mimetypes"
   sodipodi:docname="gnome-mime-image-x-xwindowdum.svg"
   xmlns="http://www.w3.org/2000/svg"
   xmlns:inkscape="http://www.inkscape.org/namespaces/inkscape"
   xmlns:sodipodi="http://sodipodi.sourceforge.net/DTD/sodipodi-0.dtd"
   xmlns:xlink="http://www.w3.org/1999/xlink">
  <defs
     id="defs3">
    <linearGradient
       id="linearGradient839">
      <stop
         style="stop-color:#46a046;stop-opacity:1.0000000;"
         offset="0.0000000"
         id="stop840" />
      <stop
         style="stop-color:#df421e;stop-opacity:1.0000000;"
         offset="0.39364964"
         id="stop841" />
      <stop
         style="stop-color:#ada7c8;stop-opacity:1.0000000;"
         offset="0.72036445"
         id="stop842" />
      <stop
         style="stop-color:#eed680;stop-opacity:1.0000000;"
         offset="1.0000000"
         id="stop843" />
    </linearGradient>
    <linearGradient
       id="linearGradient833">
      <stop
         style="stop-color:#00ff00;stop-opacity:1.0000000;"
         offset="0.0000000"
         id="stop834" />
      <stop
         style="stop-color:#ff0000;stop-opacity:1.0000000;"
         offset="0.30839416"
         id="stop837" />
      <stop
         style="stop-color:#7f8cff;stop-opacity:1.0000000;"
         offset="0.75000000"
         id="stop838" />
      <stop
         style="stop-color:#ffff00;stop-opacity:1.0000000;"
         offset="1.0000000"
         id="stop835" />
    </linearGradient>
    <linearGradient
       xlink:href="#linearGradient839"
       id="linearGradient836"
       x1="1.3267924e-17"
       y1="0.50000000"
       x2="1.0000000"
       y2="0.50000000" />
  </defs>
  <sodipodi:namedview
     id="base"
     pagecolor="#ffffff"
     bordercolor="#666666"
     borderopacity="1.0"
     inkscape:pageopacity="0.0"
     inkscape:pageshadow="2"
     inkscape:zoom="5.0234375"
     inkscape:cx="70.541588"
     inkscape:cy="64.000000"
     inkscape:window-width="751"
     inkscape:window-height="909"
     showgrid="true"
     snaptogrid="true"
     gridspacingx="1.0000000mm"
     gridspacingy="1.0000000mm"
     inkscape:window-x="0"
     inkscape:window-y="31" />
  <rect
     style="fill:none;fill-rule:evenodd;stroke:#000000;stroke-width:11.250000;stroke-dasharray:none;stroke-opacity:0.50000000;stroke-linejoin:round;"
     id="rect834"
     width="128.25159"
     height="145.27559"
     x="17.024004"
     y="7.6377953"
     ry="22.892691" />
  <rect
     style="fill:#ffffff;fill-rule:evenodd;stroke:#000000;stroke-width:6.2500000;stroke-dasharray:none;"
     id="rect828"
     width="128.25158"
     height="145.27559"
     x="17.091653"
     y="7.6377954"
     ry="22.892691" />
  <rect
     style="fill:url(#linearGradient836);fill-rule:evenodd;stroke:#000000;stroke-width:3.4436574;"
     id="rect832"
     width="125.93480"
     height="67.172065"
     ry="1.2896985"
     x="18.276772"
     y="28.497944" />
  <path
     style="font-size:40.000000;stroke-width:1.0000000pt;font-family:Trek;"
     d="M 106.22936,107.72915 L 122.74936,107.72915 C 126.93603,107.72915 130.12270,109.06248 132.30936,111.72915 C 134.49603,114.39582 135.58936,118.24915 135.58936,123.28915 C 135.58936,128.27582 134.49603,132.11582 132.30936,134.80915 C 130.14936,137.50248 126.96270,138.84915 122.74936,138.84915 L 106.22936,138.84915 L 106.22936,107.72915 z M 112.70936,133.52915 L 120.58936,133.52915 C 123.20270,133.52915 125.13603,132.68915 126.38936,131.00915 C 127.64270,129.30248 128.26936,126.72915 128.26936,123.28915 C 128.26936,119.84915 127.66936,117.28915 126.46936,115.60915 C 125.29603,113.92915 123.33603,113.08915 120.58936,113.08915 L 112.70936,113.08915 L 112.70936,133.52915 z M 59.069362,107.72915 L 66.349362,107.72915 L 70.909362,130.80915 L 71.069362,130.80915 L 77.789362,107.72915 L 85.749362,107.72915 L 92.389362,130.80915 L 92.549362,130.80915 L 97.109362,107.72915 L 104.38936,107.72915 L 96.469362,138.84915 L 88.509362,138.84915 L 81.869362,115.80915 L 81.709362,115.80915 L 74.949362,138.84915 L 66.989362,138.84915 L 59.069362,107.72915 z M 27.869362,107.72915 L 35.789362,107.72915 L 42.709362,118.44915 L 49.509362,107.72915 L 57.429362,107.72915 L 46.029362,123.28915 L 57.429362,138.84915 L 49.509362,138.84915 L 42.709362,128.12915 L 35.789362,138.84915 L 27.869362,138.84915 L 39.269362,123.28915 L 27.869362,107.72915 z "
     id="path850" />
</svg>
