<?xml version="1.0" encoding="UTF-8" standalone="no"?>
<!DOCTYPE svg PUBLIC "-//W3C//DTD SVG 20010904//EN"
"http://www.w3.org/TR/2001/REC-SVG-20010904/DTD/svg10.dtd">
<!-- Created with Inkscape (http://www.inkscape.org/) -->
<svg
   id="svg1"
   sodipodi:version="0.32"
   inkscape:version="0.38.1"
   width="128.00000pt"
   height="128.00000pt"
   sodipodi:docbase="/usr/share/icons/Fuzzy/scalable/mimetypes"
   sodipodi:docname="gnome-mime-text-sgml.svg"
   xmlns="http://www.w3.org/2000/svg"
   xmlns:inkscape="http://www.inkscape.org/namespaces/inkscape"
   xmlns:sodipodi="http://sodipodi.sourceforge.net/DTD/sodipodi-0.dtd"
   xmlns:xlink="http://www.w3.org/1999/xlink">
  <defs
     id="defs3">
    <linearGradient
       id="linearGradient907">
      <stop
         style="stop-color:#eed680;stop-opacity:1.0000000;"
         offset="0.0000000"
         id="stop908" />
      <stop
         style="stop-color:#dfb546;stop-opacity:1.0000000;"
         offset="0.29427481"
         id="stop911" />
      <stop
         style="stop-color:#d1940c;stop-opacity:1.0000000;"
         offset="1.0000000"
         id="stop910" />
    </linearGradient>
    <linearGradient
       id="linearGradient869">
      <stop
         style="stop-color:#7590ae;stop-opacity:1.0000000;"
         offset="0.0000000"
         id="stop870" />
      <stop
         style="stop-color:#89a4c0;stop-opacity:1.0000000;"
         offset="0.87030536"
         id="stop912" />
      <stop
         style="stop-color:#9db8d2;stop-opacity:1.0000000;"
         offset="1.0000000"
         id="stop871" />
    </linearGradient>
    <linearGradient
       id="linearGradient866">
      <stop
         style="stop-color:#ffff00;stop-opacity:1.0000000;"
         offset="0.0000000"
         id="stop867" />
      <stop
         style="stop-color:#ffea00;stop-opacity:1.0000000;"
         offset="0.36908397"
         id="stop901" />
      <stop
         style="stop-color:#ffd600;stop-opacity:1.0000000;"
         offset="1.0000000"
         id="stop868" />
    </linearGradient>
    <linearGradient
       xlink:href="#linearGradient907"
       id="linearGradient904"
       x1="0.35737705"
       y1="0.49346405"
       x2="0.17377049"
       y2="0.29411766"
       spreadMethod="reflect" />
    <linearGradient
       id="linearGradient839">
      <stop
         style="stop-color:#46a046;stop-opacity:1.0000000;"
         offset="0.0000000"
         id="stop840" />
      <stop
         style="stop-color:#df421e;stop-opacity:1.0000000;"
         offset="0.39364964"
         id="stop841" />
      <stop
         style="stop-color:#ada7c8;stop-opacity:1.0000000;"
         offset="0.72036445"
         id="stop842" />
      <stop
         style="stop-color:#eed680;stop-opacity:1.0000000;"
         offset="1.0000000"
         id="stop843" />
    </linearGradient>
    <linearGradient
       xlink:href="#linearGradient839"
       id="linearGradient836"
       x1="1.3267924e-17"
       y1="0.50000000"
       x2="1.0000000"
       y2="0.50000000" />
    <linearGradient
       xlink:href="#linearGradient869"
       id="linearGradient674"
       x1="0.68852460"
       y1="0.78625953"
       x2="0.37377051"
       y2="0.47328246"
       spreadMethod="reflect" />
  </defs>
  <sodipodi:namedview
     id="base"
     pagecolor="#ffffff"
     bordercolor="#666666"
     borderopacity="1.0"
     inkscape:pageopacity="0.0"
     inkscape:pageshadow="2"
     inkscape:zoom="5.0234375"
     inkscape:cx="65.690624"
     inkscape:cy="60.416796"
     inkscape:window-width="751"
     inkscape:window-height="909"
     showgrid="true"
     snaptogrid="true"
     gridspacingx="1.0000000mm"
     gridspacingy="1.0000000mm"
     inkscape:window-x="0"
     inkscape:window-y="31"
     showguides="true"
     snaptoguides="true" />
  <rect
     style="fill:none;fill-rule:evenodd;stroke:#000000;stroke-width:11.250000;stroke-dasharray:none;stroke-opacity:0.50000000;stroke-linejoin:round;"
     id="rect834"
     width="128.25159"
     height="145.27559"
     x="17.024004"
     y="7.6377968"
     ry="22.892691" />
  <rect
     style="fill:#ffffff;fill-rule:evenodd;stroke:#000000;stroke-width:6.2500000;stroke-dasharray:none;"
     id="rect828"
     width="128.25158"
     height="145.27559"
     x="17.091653"
     y="7.6377954"
     ry="22.892691" />
  <path
     style="fill-rule:evenodd;stroke:#000000;stroke-width:0.72004113pt;"
     d="M 69.802503,63.471030 L 74.791215,64.543331 L 72.833011,61.512823 L 69.802503,63.471030 z "
     id="path873"
     sodipodi:nodetypes="cccc" />
  <path
     id="path900"
     fill="none"
     stroke="black"
     stroke-width="1"
     d="M 88.873500,51.389266 C 88.873500,51.389266 90.547125,51.091815 90.547125,51.091815 C 90.547125,51.091815 91.916952,52.207738 91.916952,52.207738 C 91.881018,51.542826 91.572862,51.312293 90.922792,51.008268 C 90.922792,51.008268 90.990304,50.694181 90.990304,50.694181 C 91.741638,50.527086 91.912594,50.563833 92.389528,50.009158 C 92.389528,50.009158 90.544947,50.269862 90.544947,50.269862 C 90.544947,50.269862 89.312321,49.347725 89.312321,49.347725 C 89.348255,50.012638 89.519211,50.049385 90.135524,50.510450 C 90.135524,50.510450 88.873500,51.389266 88.873500,51.389266 z M 89.618299,48.756305 C 89.618299,48.756305 90.405568,49.254116 90.405568,49.254116 C 91.908237,48.919919 92.286083,49.658325 92.760837,48.281700 C 92.760837,48.281700 92.418926,48.208208 92.418926,48.208208 C 91.908237,48.919919 91.566325,48.846427 90.711546,48.662695 C 90.711546,48.662695 90.880323,47.877492 90.880323,47.877492 C 90.880323,47.877492 90.538410,47.803999 90.538410,47.803999 C 90.538410,47.803999 90.369633,48.589203 90.369633,48.589203 C 90.369633,48.589203 89.685810,48.442218 89.685810,48.442218 C 89.685810,48.442218 89.618299,48.756305 89.618299,48.756305 z M 92.686792,46.129914 C 92.688971,46.951867 92.655214,47.108914 91.836368,47.590096 C 91.836368,47.590096 92.173923,46.019675 92.173923,46.019675 C 90.396854,45.966292 90.639677,47.332872 91.426947,47.830683 C 92.589882,48.244954 93.577505,46.978558 92.686792,46.129914 z M 91.112254,45.134284 C 91.112254,45.134284 93.334681,45.611985 93.334681,45.611985 C 93.334681,45.611985 93.402193,45.297898 93.402193,45.297898 C 92.376456,45.077421 91.863589,44.967182 91.724212,43.951436 C 91.724212,43.951436 91.382299,43.877943 91.382299,43.877943 C 91.382299,43.877943 91.555433,44.736650 91.555433,44.736650 C 91.555433,44.736650 91.112254,45.134284 91.112254,45.134284 z M 91.449809,43.563863 C 91.449809,43.563863 93.672237,44.041565 93.672237,44.041565 C 93.672237,44.041565 93.739749,43.727478 93.739749,43.727478 C 93.397836,43.653985 91.517321,43.249776 92.369921,42.611554 C 92.608390,42.334214 93.634125,42.554691 93.976037,42.628184 C 93.976037,42.628184 94.043547,42.314104 94.043547,42.314104 C 93.701635,42.240611 91.992075,41.873148 92.639965,41.355220 C 92.878433,41.077880 93.904169,41.298357 94.246081,41.371849 C 94.246081,41.371849 94.347347,40.900723 94.347347,40.900723 C 93.834479,40.790484 92.979700,40.606752 92.433077,40.653554 C 92.023653,40.894148 91.719852,42.307529 91.789543,42.815395 C 91.755787,42.972442 91.926743,43.009189 91.892988,43.166229 C 91.892988,43.166229 91.449809,43.563863 91.449809,43.563863 z M 91.764502,46.260263 C 91.764502,46.260263 91.494457,47.516603 91.494457,47.516603 C 91.082856,46.935238 90.979411,46.584404 91.764502,46.260263 z "
     style="fill:none;stroke:#000000;stroke-width:0.16759372;" />
  <path
     style="fill:url(#linearGradient674);fill-rule:evenodd;stroke:#000000;stroke-width:3.6002057;"
     d="M 60.706767,66.061293 C 76.015081,49.758486 107.49250,17.715988 119.10216,29.512404 C 129.37105,41.744571 89.547236,67.154383 72.719322,77.933003 L 60.706767,66.061293 z "
     id="path879"
     sodipodi:nodetypes="cccc" />
  <path
     style="fill:url(#linearGradient904);fill-opacity:0.75000000;fill-rule:evenodd;stroke:#000000;stroke-width:2.7001543;"
     d="M 70.853522,76.680462 C 70.853522,76.680462 67.232746,83.657200 68.987711,85.688192 C 70.816065,87.289952 53.283141,92.592155 50.431715,92.271297 C 50.431717,92.271305 47.962958,97.681103 44.379636,94.048344 C 40.796320,90.415593 46.438207,87.791353 46.438207,87.791353 C 46.443358,83.595025 51.071115,67.524419 52.862775,69.340796 C 54.654435,71.157171 61.895225,67.598574 61.895225,67.598574 C 61.895225,67.598574 70.853522,76.680462 70.853522,76.680462 z "
     id="path868"
     sodipodi:nodetypes="cccccccc" />
  <path
     style="fill:none;fill-opacity:0.75000000;fill-rule:evenodd;stroke:#000000;stroke-width:0.72004113pt;stroke-linecap:round;stroke-linejoin:round;"
     d="M 45.597291,92.861796 C 45.597291,92.861796 60.128307,78.528518 60.128307,78.528518"
     id="path876"
     sodipodi:nodetypes="cc" />
  <path
     transform="scale(0.768118,0.768118)"
     style="font-size:40.000000;stroke-width:1.0000000pt;font-family:Trek;"
     d="M 160.09799,180.76543 C 158.52466,180.76543 157.08466,180.55209 155.77799,180.12543 C 154.47133,179.67209 153.35133,179.03209 152.41799,178.20543 C 151.93799,177.77876 151.47133,177.24543 151.01799,176.60543 C 150.80466,176.31209 150.63133,176.04543 150.49799,175.80543 C 150.36466,175.53876 150.19133,175.12543 149.97799,174.56543 C 149.44466,173.09876 149.17799,171.40543 149.17799,169.48543 L 149.17799,149.64543 L 155.89799,149.64543 L 155.89799,169.04543 C 155.89799,170.08543 156.01799,170.96543 156.25799,171.68543 C 156.52466,172.40543 156.97799,173.09876 157.61799,173.76543 C 158.23133,174.32543 158.93799,174.75209 159.73799,175.04543 C 160.53799,175.31209 161.40466,175.44543 162.33799,175.44543 L 171.05799,175.44543 L 171.05799,180.76543 L 160.09799,180.76543 z M 114.69799,180.76543 L 107.97799,180.76543 L 107.97799,149.64543 L 117.97799,149.64543 L 126.13799,173.68543 L 134.37799,149.64543 L 144.41799,149.64543 L 144.41799,180.76543 L 137.69799,180.76543 L 137.69799,157.52543 L 137.53799,157.52543 L 129.45799,180.76543 L 122.93799,180.76543 L 114.85799,157.52543 L 114.69799,157.52543 L 114.69799,180.76543 z M 88.057993,180.76543 C 83.844660,180.76543 80.604660,179.43209 78.337993,176.76543 C 76.097993,174.07209 74.977993,170.21876 74.977993,165.20543 C 74.977993,160.13876 76.097993,156.28543 78.337993,153.64543 C 80.577993,150.97876 83.817993,149.64543 88.057993,149.64543 L 104.81799,149.64543 L 104.81799,155.00543 L 90.057993,155.00543 C 87.497993,155.00543 85.577993,155.85876 84.297993,157.56543 C 83.017993,159.27209 82.377993,161.81876 82.377993,165.20543 C 82.377993,168.61876 82.977993,171.17876 84.177993,172.88543 C 85.377993,174.59209 87.337993,175.44543 90.057993,175.44543 L 98.177993,175.44543 L 98.177993,167.76543 L 89.417993,167.76543 L 89.417993,162.64543 L 104.81799,162.64543 L 104.81799,180.76543 L 88.057993,180.76543 z M 70.137993,149.64543 L 70.137993,155.00543 L 52.937993,155.00543 C 51.844660,155.00543 50.857993,155.32543 49.977993,155.96543 C 49.231326,156.63209 48.857993,157.55209 48.857993,158.72543 C 48.857993,160.00543 49.271326,160.96543 50.097993,161.60543 C 50.817993,162.16543 51.804660,162.44543 53.057993,162.44543 L 62.737993,162.44543 C 64.897993,162.44543 66.844660,163.05876 68.577993,164.28543 C 70.764660,165.91209 71.857993,168.35209 71.857993,171.60543 C 71.857993,174.69876 70.764660,177.12543 68.577993,178.88543 C 66.871326,180.13876 64.924660,180.76543 62.737993,180.76543 L 42.137993,180.76543 L 42.137993,175.44543 L 59.737993,175.44543 C 60.751326,175.44543 61.684660,175.08543 62.537993,174.36543 C 63.391326,173.64543 63.817993,172.72543 63.817993,171.60543 C 63.817993,170.45876 63.391326,169.53876 62.537993,168.84543 C 61.737993,168.12543 60.764660,167.76543 59.617993,167.76543 L 49.857993,167.76543 C 47.697993,167.76543 45.777993,167.16543 44.097993,165.96543 C 41.911326,164.33876 40.817993,161.92543 40.817993,158.72543 C 40.817993,155.52543 41.911326,153.11209 44.097993,151.48543 C 45.724660,150.25876 47.644660,149.64543 49.857993,149.64543 L 70.137993,149.64543 z "
     id="path855" />
</svg>
