<?xml version="1.0" encoding="UTF-8" standalone="no"?>
<!DOCTYPE svg PUBLIC "-//W3C//DTD SVG 20010904//EN"
"http://www.w3.org/TR/2001/REC-SVG-20010904/DTD/svg10.dtd">
<!-- Created with Inkscape (http://www.inkscape.org/) -->
<svg
   id="svg1"
   sodipodi:version="0.32"
   inkscape:version="0.38.1"
   width="128.00000pt"
   height="128.00000pt"
   sodipodi:docbase="/usr/share/icons/Fuzzy/scalable/mimetypes"
   sodipodi:docname="gnome-mime-text-x-java.svg"
   xmlns="http://www.w3.org/2000/svg"
   xmlns:inkscape="http://www.inkscape.org/namespaces/inkscape"
   xmlns:sodipodi="http://sodipodi.sourceforge.net/DTD/sodipodi-0.dtd"
   xmlns:xlink="http://www.w3.org/1999/xlink">
  <defs
     id="defs3">
    <linearGradient
       id="linearGradient907">
      <stop
         style="stop-color:#eed680;stop-opacity:1.0000000;"
         offset="0.0000000"
         id="stop908" />
      <stop
         style="stop-color:#dfb546;stop-opacity:1.0000000;"
         offset="0.29427481"
         id="stop911" />
      <stop
         style="stop-color:#d1940c;stop-opacity:1.0000000;"
         offset="1.0000000"
         id="stop910" />
    </linearGradient>
    <linearGradient
       id="linearGradient869">
      <stop
         style="stop-color:#7590ae;stop-opacity:1.0000000;"
         offset="0.0000000"
         id="stop870" />
      <stop
         style="stop-color:#89a4c0;stop-opacity:1.0000000;"
         offset="0.87030536"
         id="stop912" />
      <stop
         style="stop-color:#9db8d2;stop-opacity:1.0000000;"
         offset="1.0000000"
         id="stop871" />
    </linearGradient>
    <linearGradient
       id="linearGradient866">
      <stop
         style="stop-color:#ffff00;stop-opacity:1.0000000;"
         offset="0.0000000"
         id="stop867" />
      <stop
         style="stop-color:#ffea00;stop-opacity:1.0000000;"
         offset="0.36908397"
         id="stop901" />
      <stop
         style="stop-color:#ffd600;stop-opacity:1.0000000;"
         offset="1.0000000"
         id="stop868" />
    </linearGradient>
    <linearGradient
       xlink:href="#linearGradient907"
       id="linearGradient904"
       x1="0.35737705"
       y1="0.49346405"
       x2="0.17377049"
       y2="0.29411766"
       spreadMethod="reflect" />
    <linearGradient
       id="linearGradient839">
      <stop
         style="stop-color:#46a046;stop-opacity:1.0000000;"
         offset="0.0000000"
         id="stop840" />
      <stop
         style="stop-color:#df421e;stop-opacity:1.0000000;"
         offset="0.39364964"
         id="stop841" />
      <stop
         style="stop-color:#ada7c8;stop-opacity:1.0000000;"
         offset="0.72036445"
         id="stop842" />
      <stop
         style="stop-color:#eed680;stop-opacity:1.0000000;"
         offset="1.0000000"
         id="stop843" />
    </linearGradient>
    <linearGradient
       xlink:href="#linearGradient839"
       id="linearGradient836"
       x1="1.3267924e-17"
       y1="0.50000000"
       x2="1.0000000"
       y2="0.50000000" />
    <linearGradient
       xlink:href="#linearGradient869"
       id="linearGradient674"
       x1="0.68852460"
       y1="0.78625953"
       x2="0.37377051"
       y2="0.47328246"
       spreadMethod="reflect" />
  </defs>
  <sodipodi:namedview
     id="base"
     pagecolor="#ffffff"
     bordercolor="#666666"
     borderopacity="1.0"
     inkscape:pageopacity="0.0"
     inkscape:pageshadow="2"
     inkscape:zoom="5.0234375"
     inkscape:cx="74.266924"
     inkscape:cy="65.393480"
     inkscape:window-width="751"
     inkscape:window-height="909"
     showgrid="true"
     snaptogrid="true"
     gridspacingx="1.0000000mm"
     gridspacingy="1.0000000mm"
     inkscape:window-x="0"
     inkscape:window-y="31" />
  <rect
     style="fill:none;fill-rule:evenodd;stroke:#000000;stroke-width:11.250000;stroke-dasharray:none;stroke-opacity:0.50000000;stroke-linejoin:round;"
     id="rect834"
     width="128.25159"
     height="145.27559"
     x="17.024004"
     y="7.6377953"
     ry="22.892691" />
  <rect
     style="fill:#ffffff;fill-rule:evenodd;stroke:#000000;stroke-width:6.2500000;stroke-dasharray:none;"
     id="rect828"
     width="128.25158"
     height="145.27559"
     x="17.091653"
     y="7.6377954"
     ry="22.892691" />
  <path
     style="fill-rule:evenodd;stroke:#000000;stroke-width:0.72004113pt;"
     d="M 69.802503,63.471030 L 74.791215,64.543331 L 72.833011,61.512823 L 69.802503,63.471030 z "
     id="path873"
     sodipodi:nodetypes="cccc" />
  <path
     id="path900"
     fill="none"
     stroke="black"
     stroke-width="1"
     d="M 88.873500,51.389266 C 88.873500,51.389266 90.547125,51.091815 90.547125,51.091815 C 90.547125,51.091815 91.916952,52.207738 91.916952,52.207738 C 91.881018,51.542826 91.572862,51.312293 90.922792,51.008268 C 90.922792,51.008268 90.990304,50.694181 90.990304,50.694181 C 91.741638,50.527086 91.912594,50.563833 92.389528,50.009158 C 92.389528,50.009158 90.544947,50.269862 90.544947,50.269862 C 90.544947,50.269862 89.312321,49.347725 89.312321,49.347725 C 89.348255,50.012638 89.519211,50.049385 90.135524,50.510450 C 90.135524,50.510450 88.873500,51.389266 88.873500,51.389266 z M 89.618299,48.756305 C 89.618299,48.756305 90.405568,49.254116 90.405568,49.254116 C 91.908237,48.919919 92.286083,49.658325 92.760837,48.281700 C 92.760837,48.281700 92.418926,48.208208 92.418926,48.208208 C 91.908237,48.919919 91.566325,48.846427 90.711546,48.662695 C 90.711546,48.662695 90.880323,47.877492 90.880323,47.877492 C 90.880323,47.877492 90.538410,47.803999 90.538410,47.803999 C 90.538410,47.803999 90.369633,48.589203 90.369633,48.589203 C 90.369633,48.589203 89.685810,48.442218 89.685810,48.442218 C 89.685810,48.442218 89.618299,48.756305 89.618299,48.756305 z M 92.686792,46.129914 C 92.688971,46.951867 92.655214,47.108914 91.836368,47.590096 C 91.836368,47.590096 92.173923,46.019675 92.173923,46.019675 C 90.396854,45.966292 90.639677,47.332872 91.426947,47.830683 C 92.589882,48.244954 93.577505,46.978558 92.686792,46.129914 z M 91.112254,45.134284 C 91.112254,45.134284 93.334681,45.611985 93.334681,45.611985 C 93.334681,45.611985 93.402193,45.297898 93.402193,45.297898 C 92.376456,45.077421 91.863589,44.967182 91.724212,43.951436 C 91.724212,43.951436 91.382299,43.877943 91.382299,43.877943 C 91.382299,43.877943 91.555433,44.736650 91.555433,44.736650 C 91.555433,44.736650 91.112254,45.134284 91.112254,45.134284 z M 91.449809,43.563863 C 91.449809,43.563863 93.672237,44.041565 93.672237,44.041565 C 93.672237,44.041565 93.739749,43.727478 93.739749,43.727478 C 93.397836,43.653985 91.517321,43.249776 92.369921,42.611554 C 92.608390,42.334214 93.634125,42.554691 93.976037,42.628184 C 93.976037,42.628184 94.043547,42.314104 94.043547,42.314104 C 93.701635,42.240611 91.992075,41.873148 92.639965,41.355220 C 92.878433,41.077880 93.904169,41.298357 94.246081,41.371849 C 94.246081,41.371849 94.347347,40.900723 94.347347,40.900723 C 93.834479,40.790484 92.979700,40.606752 92.433077,40.653554 C 92.023653,40.894148 91.719852,42.307529 91.789543,42.815395 C 91.755787,42.972442 91.926743,43.009189 91.892988,43.166229 C 91.892988,43.166229 91.449809,43.563863 91.449809,43.563863 z M 91.764502,46.260263 C 91.764502,46.260263 91.494457,47.516603 91.494457,47.516603 C 91.082856,46.935238 90.979411,46.584404 91.764502,46.260263 z "
     style="fill:none;stroke:#000000;stroke-width:0.16759372;" />
  <path
     style="fill:url(#linearGradient674);fill-rule:evenodd;stroke:#000000;stroke-width:3.6002057;"
     d="M 60.706767,66.061293 C 76.015081,49.758486 107.49250,17.715988 119.10216,29.512404 C 129.37105,41.744571 89.547236,67.154383 72.719322,77.933003 L 60.706767,66.061293 z "
     id="path879"
     sodipodi:nodetypes="cccc" />
  <path
     style="fill:url(#linearGradient904);fill-opacity:0.75000000;fill-rule:evenodd;stroke:#000000;stroke-width:2.7001543;"
     d="M 70.853522,76.680462 C 70.853522,76.680462 67.232746,83.657200 68.987711,85.688192 C 70.816065,87.289952 53.283141,92.592155 50.431715,92.271297 C 50.431717,92.271305 47.962958,97.681103 44.379636,94.048344 C 40.796320,90.415593 46.438207,87.791353 46.438207,87.791353 C 46.443358,83.595025 51.071115,67.524419 52.862775,69.340796 C 54.654435,71.157171 61.895225,67.598574 61.895225,67.598574 C 61.895225,67.598574 70.853522,76.680462 70.853522,76.680462 z "
     id="path868"
     sodipodi:nodetypes="cccccccc" />
  <path
     style="fill:none;fill-opacity:0.75000000;fill-rule:evenodd;stroke:#000000;stroke-width:0.72004113pt;stroke-linecap:round;stroke-linejoin:round;"
     d="M 45.597291,92.861796 C 45.597291,92.861796 60.128307,78.528518 60.128307,78.528518"
     id="path876"
     sodipodi:nodetypes="cc" />
  <path
     style="font-size:40.000000;stroke-width:1.0000000pt;font-family:Trek;"
     d="M 109.95353,121.33798 L 109.95353,116.85798 L 122.23353,116.85798 C 123.80686,116.85798 125.00686,116.99131 125.83353,117.25798 C 126.28686,117.39131 126.74020,117.59131 127.19353,117.85798 C 127.67353,118.12464 128.15353,118.47131 128.63353,118.89798 C 129.59353,119.69798 130.24686,120.64464 130.59353,121.73798 C 130.94020,122.83131 131.11353,124.09798 131.11353,125.53798 L 131.11353,139.09798 L 115.43353,139.09798 C 113.27353,139.09798 111.51353,138.49798 110.15353,137.29798 C 108.98020,136.07131 108.39353,134.44464 108.39353,132.41798 C 108.39353,130.49798 108.99353,128.89798 110.19353,127.61798 C 111.58020,126.39131 113.32686,125.77798 115.43353,125.77798 L 125.15353,125.77798 L 125.15353,125.53798 L 125.15353,124.65798 C 125.15353,124.17798 125.12686,123.84464 125.07353,123.65798 C 125.07353,123.41798 124.88686,123.05798 124.51353,122.57798 C 124.14020,122.09798 123.63353,121.77798 122.99353,121.61798 C 122.38020,121.43131 121.62020,121.33798 120.71353,121.33798 L 109.95353,121.33798 z M 125.15353,134.65798 L 125.15353,130.21798 L 117.59353,130.21798 C 116.74020,130.21798 116.03353,130.35131 115.47353,130.61798 C 114.94020,130.85798 114.67353,131.45798 114.67353,132.41798 C 114.67353,133.19131 114.99353,133.80464 115.63353,134.25798 C 116.24686,134.52464 116.94020,134.65798 117.71353,134.65798 L 125.15353,134.65798 z M 80.833529,116.85798 L 87.553529,116.85798 L 93.673529,132.45798 L 93.913529,132.45798 L 100.11353,116.85798 L 106.75353,116.85798 L 97.273529,139.09798 L 90.313529,139.09798 L 80.833529,116.85798 z M 57.393529,121.33798 L 57.393529,116.85798 L 69.673529,116.85798 C 71.246863,116.85798 72.446863,116.99131 73.273529,117.25798 C 73.726863,117.39131 74.180196,117.59131 74.633529,117.85798 C 75.113529,118.12464 75.593529,118.47131 76.073529,118.89798 C 77.033529,119.69798 77.686863,120.64464 78.033529,121.73798 C 78.380196,122.83131 78.553529,124.09798 78.553529,125.53798 L 78.553529,139.09798 L 62.873529,139.09798 C 60.713529,139.09798 58.953529,138.49798 57.593529,137.29798 C 56.420196,136.07131 55.833529,134.44464 55.833529,132.41798 C 55.833529,130.49798 56.433529,128.89798 57.633529,127.61798 C 59.020196,126.39131 60.766863,125.77798 62.873529,125.77798 L 72.593529,125.77798 L 72.593529,125.53798 L 72.593529,124.65798 C 72.593529,124.17798 72.566863,123.84464 72.513529,123.65798 C 72.513529,123.41798 72.326863,123.05798 71.953529,122.57798 C 71.580196,122.09798 71.073529,121.77798 70.433529,121.61798 C 69.820196,121.43131 69.060196,121.33798 68.153529,121.33798 L 57.393529,121.33798 z M 72.593529,134.65798 L 72.593529,130.21798 L 65.033529,130.21798 C 64.180196,130.21798 63.473529,130.35131 62.913529,130.61798 C 62.380196,130.85798 62.113529,131.45798 62.113529,132.41798 C 62.113529,133.19131 62.433529,133.80464 63.073529,134.25798 C 63.686863,134.52464 64.380196,134.65798 65.153529,134.65798 L 72.593529,134.65798 z M 29.113529,139.09798 L 29.113529,133.77798 L 37.833529,133.77798 C 38.873529,133.77798 39.740196,133.64464 40.433529,133.37798 C 40.780196,133.27131 41.126863,133.11131 41.473529,132.89798 L 42.033529,132.49798 L 42.593529,131.97798 L 43.393529,131.05798 L 43.953529,129.97798 C 44.060196,129.57798 44.153529,129.15131 44.233529,128.69798 C 44.313529,128.24464 44.353529,127.80464 44.353529,127.37798 L 44.353529,107.97798 L 50.993529,107.97798 L 50.993529,127.81798 C 50.993529,129.71131 50.740196,131.40464 50.233529,132.89798 C 49.726863,134.36464 48.940196,135.55131 47.873529,136.45798 C 46.940196,137.28464 45.820196,137.95131 44.513529,138.45798 L 42.473529,138.93798 L 40.153529,139.09798 L 29.113529,139.09798 z "
     id="path855" />
</svg>
