<?xml version="1.0" encoding="UTF-8" standalone="no"?>
<!DOCTYPE svg PUBLIC "-//W3C//DTD SVG 20010904//EN"
"http://www.w3.org/TR/2001/REC-SVG-20010904/DTD/svg10.dtd">
<!-- Created with Inkscape (http://www.inkscape.org/) -->
<svg
   id="svg1"
   sodipodi:version="0.32"
   inkscape:version="0.38.1"
   width="128.00000pt"
   height="128.00000pt"
   sodipodi:docbase="/usr/share/icons/Fuzzy/scalable/mimetypes"
   sodipodi:docname="gnome-mime-application-x-object.svg"
   xmlns="http://www.w3.org/2000/svg"
   xmlns:inkscape="http://www.inkscape.org/namespaces/inkscape"
   xmlns:sodipodi="http://sodipodi.sourceforge.net/DTD/sodipodi-0.dtd"
   xmlns:xlink="http://www.w3.org/1999/xlink">
  <defs
     id="defs3">
    <linearGradient
       id="linearGradient839">
      <stop
         style="stop-color:#46a046;stop-opacity:1.0000000;"
         offset="0.0000000"
         id="stop840" />
      <stop
         style="stop-color:#df421e;stop-opacity:1.0000000;"
         offset="0.39364964"
         id="stop841" />
      <stop
         style="stop-color:#ada7c8;stop-opacity:1.0000000;"
         offset="0.72036445"
         id="stop842" />
      <stop
         style="stop-color:#eed680;stop-opacity:1.0000000;"
         offset="1.0000000"
         id="stop843" />
    </linearGradient>
    <linearGradient
       xlink:href="#linearGradient839"
       id="linearGradient836"
       x1="1.3267924e-17"
       y1="0.50000000"
       x2="1.0000000"
       y2="0.50000000" />
  </defs>
  <sodipodi:namedview
     id="base"
     pagecolor="#ffffff"
     bordercolor="#666666"
     borderopacity="1.0"
     inkscape:pageopacity="0.0"
     inkscape:pageshadow="2"
     inkscape:zoom="5.0234375"
     inkscape:cx="64.634902"
     inkscape:cy="70.370140"
     inkscape:window-width="751"
     inkscape:window-height="909"
     showgrid="true"
     snaptogrid="true"
     gridspacingx="1.0000000mm"
     gridspacingy="1.0000000mm"
     inkscape:window-x="0"
     inkscape:window-y="31" />
  <rect
     style="fill:none;fill-rule:evenodd;stroke:#000000;stroke-width:11.250000;stroke-dasharray:none;stroke-opacity:0.50000000;stroke-linejoin:round;"
     id="rect834"
     width="128.25159"
     height="145.27559"
     x="17.024004"
     y="7.6377968"
     ry="22.892691" />
  <rect
     style="fill:#ffffff;fill-rule:evenodd;stroke:#000000;stroke-width:6.2500000;stroke-dasharray:none;"
     id="rect828"
     width="128.25158"
     height="145.27559"
     x="17.091653"
     y="7.6377954"
     ry="22.892691" />
  <path
     style="fill:none;fill-opacity:0.75000000;fill-rule:evenodd;stroke:#000000;stroke-width:12.463263;"
     d="M 54.471452,33.183792 C 39.935195,33.183792 28.232722,44.382131 28.232722,58.292177 L 28.232722,62.278278 C 28.232722,76.188323 39.935195,87.386662 54.471452,87.386662 L 64.343574,87.386662 C 78.879830,87.386662 90.582304,76.188323 90.582304,62.278278 L 90.582304,58.292177 C 90.582304,44.382131 78.879830,33.183792 64.343574,33.183792 L 54.471452,33.183792 z "
     id="path841" />
  <rect
     style="fill:none;fill-opacity:0.75000000;fill-rule:evenodd;stroke:#000000;stroke-width:12.442595;"
     id="rect839"
     width="62.142967"
     height="54.202869"
     ry="25.108383"
     x="72.098604"
     y="33.183796" />
  <path
     style="font-size:40.000000;stroke-width:1.0000000pt;font-family:Trek;"
     d="M 71.819271,122.78692 C 71.819271,117.69205 73.277588,113.76013 76.194219,110.99118 C 79.147771,108.18530 83.264282,106.78237 88.543755,106.78237 C 93.712470,106.78237 97.792065,108.16685 100.78254,110.93580 C 103.77301,113.66783 105.26824,117.61821 105.26824,122.78692 C 105.26824,127.88180 103.80993,131.83217 100.89330,134.63805 C 98.013575,137.40700 93.897067,138.79148 88.543755,138.79148 C 83.190444,138.79148 79.055472,137.42546 76.138840,134.69343 C 73.259127,131.96140 71.819271,127.99256 71.819271,122.78692 z M 88.543755,113.26172 C 85.664042,113.26172 83.541178,114.16624 82.175160,115.97530 C 81.067578,117.52591 80.513787,119.79645 80.513787,122.78692 C 80.513787,125.77739 81.049119,128.02948 82.119781,129.54317 C 83.411961,131.38914 85.553284,132.31213 88.543755,132.31213 C 91.423467,132.31213 93.546333,131.40761 94.912349,129.59855 C 96.019935,128.04794 96.573725,125.77739 96.573725,122.78692 C 96.573725,119.79645 96.038395,117.54437 94.967729,116.03068 C 93.675550,114.18471 91.534225,113.26172 88.543755,113.26172 z M 60.466559,138.18231 L 60.466559,130.81689 L 67.942735,130.81689 L 67.942735,138.18231 L 60.466559,138.18231 z "
     id="path837" />
</svg>
