<?xml version="1.0" encoding="UTF-8" standalone="no"?>
<!DOCTYPE svg PUBLIC "-//W3C//DTD SVG 20010904//EN"
"http://www.w3.org/TR/2001/REC-SVG-20010904/DTD/svg10.dtd">
<!-- Created with Sodipodi ("http://www.sodipodi.com/") -->
<svg
   id="svg559"
   sodipodi:version="0.32"
   width="128pt"
   height="128pt"
   sodipodi:docname="gnome-fs-smb.svg"
   sodipodi:docbase="/home/francois/Documents/work/artwork/new_theme/rodent/scalable/filesystems"
   inkscape:version="0.38.1"
   xmlns="http://www.w3.org/2000/svg"
   xmlns:inkscape="http://www.inkscape.org/namespaces/inkscape"
   xmlns:sodipodi="http://sodipodi.sourceforge.net/DTD/sodipodi-0.dtd"
   xmlns:xlink="http://www.w3.org/1999/xlink">
  <defs
     id="defs561">
    <linearGradient
       id="linearGradient872">
      <stop
         style="stop-color:#ffffff;stop-opacity:1.0000000;"
         offset="0.0000000"
         id="stop873" />
      <stop
         style="stop-color:#9f9f9f;stop-opacity:1.0000000;"
         offset="0.50000000"
         id="stop879" />
      <stop
         style="stop-color:#3f3f3f;stop-opacity:1.0000000;"
         offset="1.0000000"
         id="stop875" />
    </linearGradient>
    <linearGradient
       id="linearGradient866">
      <stop
         style="stop-color:#ffffff;stop-opacity:1.0000000;"
         offset="0.0000000"
         id="stop867" />
      <stop
         style="stop-color:#bfbeb9;stop-opacity:1.0000000;"
         offset="0.21029197"
         id="stop870" />
      <stop
         style="stop-color:#7f7d73;stop-opacity:1.0000000;"
         offset="1.0000000"
         id="stop869" />
    </linearGradient>
    <linearGradient
       id="linearGradient566">
      <stop
         style="stop-color:#ffffff;stop-opacity:1.0000000;"
         offset="0.0000000"
         id="stop567" />
      <stop
         style="stop-color:#bfbfbf;stop-opacity:1.0000000;"
         offset="0.24229629"
         id="stop853" />
      <stop
         style="stop-color:#7f7f7f;stop-opacity:1.0000000;"
         offset="1.0000000"
         id="stop568" />
    </linearGradient>
    <linearGradient
       xlink:href="#linearGradient566"
       id="linearGradient569"
       x1="0.823204"
       y1="0.937499"
       x2="0.265193"
       y2="-7.812555e-3" />
    <linearGradient
       xlink:href="#linearGradient866"
       id="linearGradient589"
       x1="0.44300517"
       y1="0.012698413"
       x2="0.44374999"
       y2="0.57812500"
       spreadMethod="pad" />
    <linearGradient
       xlink:href="#linearGradient872"
       id="linearGradient871"
       x1="0.49481866"
       y1="0.72897196"
       x2="0.49481866"
       y2="0.97196263"
       spreadMethod="reflect" />
  </defs>
  <sodipodi:namedview
     id="base"
     showgrid="true"
     snaptogrid="false"
     gridspacingx="2.000000mm"
     gridspacingy="2.000000mm"
     inkscape:zoom="4.0934854"
     inkscape:cx="63.999999"
     inkscape:cy="51.785462"
     inkscape:window-width="846"
     inkscape:window-height="913"
     inkscape:window-x="0"
     inkscape:window-y="31" />
  <path
     style="fill:url(#linearGradient871);fill-rule:evenodd;stroke:#000000;stroke-width:2.5000000;stroke-dasharray:none;"
     d="M 74.788387,105.69843 C 72.221882,105.69843 70.132137,107.75693 70.132137,110.32343 L 70.132137,136.26093 L -1.6491133,136.26093 C -4.2156177,136.26093 -6.2741133,138.31943 -6.2741133,140.88593 L -6.2741133,147.32343 C -6.2741133,149.88993 -4.2156177,151.94843 -1.6491133,151.94843 L 163.72589,151.94843 C 166.29240,151.94843 168.38214,149.88993 168.38214,147.32343 L 168.38214,140.88593 C 168.38215,138.31943 166.29239,136.26093 163.72589,136.26093 L 85.819637,136.26093 L 85.819637,110.32343 C 85.819637,107.75693 83.761141,105.69843 81.194637,105.69843 L 74.788387,105.69843 z "
     id="path877" />
  <path
     style="font-size:12.000;fill:#000002;fill-rule:evenodd;stroke:none;stroke-width:3.8000;stroke-linecap:round;stroke-linejoin:round;fill-opacity:0.2011;stroke-dasharray:none;"
     d="M 15.861841,69.484931 L 63.213311,16.284581"
     id="path607"
     sodipodi:nodetypes="cc" />
  <path
     style="font-size:12.000;fill:#000002;fill-rule:evenodd;stroke:none;stroke-width:3.8000;stroke-linecap:round;stroke-linejoin:round;fill-opacity:0.2011;stroke-dasharray:none;"
     d="M 110.56467,16.284581 L 157.91617,69.484931"
     id="path608"
     sodipodi:nodetypes="cc" />
  <path
     style="font-size:12.000;fill:#000002;fill-rule:evenodd;stroke:none;stroke-width:3.8000;stroke-linecap:round;stroke-linejoin:round;fill-opacity:0.2011;stroke-dasharray:none;"
     d="M 15.861841,69.484931 L 63.213311,16.284581"
     id="path613"
     sodipodi:nodetypes="cc" />
  <path
     style="font-size:12.000;fill:#000002;fill-rule:evenodd;stroke:none;stroke-width:3.8000;stroke-linecap:round;stroke-linejoin:round;fill-opacity:0.2011;stroke-dasharray:none;"
     d="M 110.56467,16.284581 L 157.91617,69.484931"
     id="path614"
     sodipodi:nodetypes="cc" />
  <path
     style="font-size:12.000;fill:url(#linearGradient569);fill-rule:evenodd;stroke:#000000;stroke-width:3.794185;stroke-linecap:round;stroke-linejoin:round;"
     d="M 9.0973440,11.829861 L 9.0973440,125.83075 L 151.15167,125.83075 L 151.15167,11.829861 L 9.0973440,11.829861 z "
     id="path565"
     sodipodi:nodetypes="ccccc" />
  <path
     style="font-size:12.000;fill:none;fill-rule:evenodd;stroke:#000000;stroke-width:7.588369;stroke-linecap:round;stroke-linejoin:round;"
     d="M 9.0973440,65.030241 L 56.448821,11.829891"
     id="path570"
     sodipodi:nodetypes="cc" />
  <path
     style="font-size:12.000;fill:none;fill-rule:evenodd;stroke:#000000;stroke-width:7.588369;stroke-linecap:round;stroke-linejoin:round;"
     d="M 103.80027,11.829891 L 151.15167,65.030241"
     id="path571"
     sodipodi:nodetypes="cc" />
  <path
     style="font-size:12.000;fill:none;fill-rule:evenodd;stroke:#000000;stroke-width:1.011782;"
     d="M 9.0973440,114.65225 L 151.15167,114.65225"
     id="path589" />
  <path
     style="font-size:12.000;fill:none;fill-rule:evenodd;stroke:#000000;stroke-width:1.011782;"
     d="M 9.0973440,122.25225 L 151.15167,122.25225"
     id="path590" />
  <path
     style="font-size:12.000;fill:none;fill-rule:evenodd;stroke:#000000;stroke-width:1.011782;"
     d="M 9.0973440,107.05225 L 151.15167,107.05225"
     id="path591" />
  <path
     style="font-size:12.000000;fill:url(#linearGradient589);fill-rule:evenodd;stroke:#000000;stroke-width:3.7500000;stroke-linecap:round;stroke-linejoin:round;stroke-dasharray:none;"
     d="M 9.0973440,12.042308 L 9.0973440,125.83423 L 151.15167,125.83423 L 151.15167,12.042308 L 9.0973440,12.042308 z "
     id="path594"
     sodipodi:nodetypes="ccccc" />
  <path
     style="font-size:12.000;fill:none;fill-rule:evenodd;stroke:#000000;stroke-width:7.588369;stroke-linecap:round;stroke-linejoin:round;stroke-opacity:1.0000000;"
     d="M 9.0973440,65.030241 L 56.448821,11.829891"
     id="path595"
     sodipodi:nodetypes="cc" />
  <path
     style="font-size:12.000;fill:none;fill-rule:evenodd;stroke:#000000;stroke-width:7.588369;stroke-linecap:round;stroke-linejoin:round;stroke-opacity:1.0000000;"
     d="M 103.80027,11.829891 L 151.15167,65.030241"
     id="path596"
     sodipodi:nodetypes="cc" />
  <path
     style="font-size:12.000;fill:none;fill-rule:evenodd;stroke:#000000;stroke-width:1.011782;"
     d="M 9.0973440,114.65225 L 151.15167,114.65225"
     id="path597" />
  <path
     style="font-size:12.000;fill:none;fill-rule:evenodd;stroke:#000000;stroke-width:1.011782;"
     d="M 9.0973440,122.25225 L 151.15167,122.25225"
     id="path598" />
  <path
     sodipodi:type="arc"
     style="fill-rule:evenodd;stroke:#000000;stroke-width:11.099028;fill:#ffffff;fill-opacity:0.45033112;stroke-dasharray:none;stroke-opacity:1.0000000;"
     id="path832"
     sodipodi:cx="85.039368"
     sodipodi:cy="80.275589"
     sodipodi:rx="63.779526"
     sodipodi:ry="69.094490"
     d="M 148.81889 80.275589 A 63.779526 69.094490 0 1 0 21.259842,80.275589 A 63.779526 69.094490 0 1 0 148.81889 80.275589 z"
     transform="matrix(0.504005,-0.418847,0.124631,0.299084,26.37917,82.58104)" />
  <path
     sodipodi:type="arc"
     style="fill-rule:evenodd;stroke:#000000;stroke-width:11.099032;fill:#ffffff;fill-opacity:0.45033112;stroke-dasharray:none;"
     id="path862"
     sodipodi:cx="85.039368"
     sodipodi:cy="80.275589"
     sodipodi:rx="63.779526"
     sodipodi:ry="69.094490"
     d="M 148.81889 80.275589 A 63.779526 69.094490 0 1 0 21.259842,80.275589 A 63.779526 69.094490 0 1 0 148.81889 80.275589 z"
     transform="matrix(0.396860,0.521494,-0.304151,0.111697,69.91143,17.65760)" />
  <rect
     style="fill:#ffffff;fill-rule:evenodd;stroke:#000000;stroke-width:4.0429883;"
     id="rect853"
     width="110.80375"
     height="54.665489"
     ry="8.6142493"
     x="24.908659"
     y="87.015452" />
  <path
     transform="scale(0.921500,0.921500)"
     style="font-size:40.000000;stroke-width:1.0000000pt;font-family:Trek;"
     d="M 110.44587,139.49812 L 110.44587,108.37812 L 129.72587,108.37812 C 132.28587,108.37812 134.43254,109.03146 136.16587,110.33812 C 138.13920,111.77812 139.12587,113.69812 139.12587,116.09812 C 139.12587,117.85812 138.71254,119.44479 137.88587,120.85812 C 137.48587,121.49812 137.00587,122.05812 136.44587,122.53812 C 135.88587,122.99146 135.13920,123.45812 134.20587,123.93812 C 135.80587,124.52479 137.08587,125.47146 138.04587,126.77812 C 139.00587,128.08479 139.48587,129.59146 139.48587,131.29812 C 139.48587,134.25812 138.48587,136.41812 136.48587,137.77812 C 134.85920,138.92479 132.60587,139.49812 129.72587,139.49812 L 110.44587,139.49812 z M 127.64587,121.37812 C 129.11254,121.37812 130.23254,121.03146 131.00587,120.33812 C 131.77920,119.64479 132.16587,118.68479 132.16587,117.45812 C 132.16587,114.81812 130.65920,113.49812 127.64587,113.49812 L 117.16587,113.49812 L 117.16587,121.37812 L 127.64587,121.37812 z M 127.64587,134.37812 C 129.11254,134.37812 130.23254,134.03146 131.00587,133.33812 C 131.77920,132.64479 132.16587,131.68479 132.16587,130.45812 C 132.16587,127.81812 130.65920,126.49812 127.64587,126.49812 L 117.16587,126.49812 L 117.16587,134.37812 L 127.64587,134.37812 z M 76.005870,139.49812 L 69.285870,139.49812 L 69.285870,108.37812 L 79.285870,108.37812 L 87.445870,132.41812 L 95.685870,108.37812 L 105.72587,108.37812 L 105.72587,139.49812 L 99.005870,139.49812 L 99.005870,116.25812 L 98.845870,116.25812 L 90.765870,139.49812 L 84.245870,139.49812 L 76.165870,116.25812 L 76.005870,116.25812 L 76.005870,139.49812 z M 64.445870,108.37812 L 64.445870,113.73812 L 47.245870,113.73812 C 46.152536,113.73812 45.165870,114.05812 44.285870,114.69812 C 43.539203,115.36479 43.165870,116.28479 43.165870,117.45812 C 43.165870,118.73812 43.579203,119.69812 44.405870,120.33812 C 45.125870,120.89812 46.112536,121.17812 47.365870,121.17812 L 57.045870,121.17812 C 59.205870,121.17812 61.152536,121.79146 62.885870,123.01812 C 65.072536,124.64479 66.165870,127.08479 66.165870,130.33812 C 66.165870,133.43146 65.072536,135.85812 62.885870,137.61812 C 61.179203,138.87146 59.232536,139.49812 57.045870,139.49812 L 36.445870,139.49812 L 36.445870,134.17812 L 54.045870,134.17812 C 55.059203,134.17812 55.992536,133.81812 56.845870,133.09812 C 57.699203,132.37812 58.125870,131.45812 58.125870,130.33812 C 58.125870,129.19146 57.699203,128.27146 56.845870,127.57812 C 56.045870,126.85812 55.072536,126.49812 53.925870,126.49812 L 44.165870,126.49812 C 42.005870,126.49812 40.085870,125.89812 38.405870,124.69812 C 36.219203,123.07146 35.125870,120.65812 35.125870,117.45812 C 35.125870,114.25812 36.219203,111.84479 38.405870,110.21812 C 40.032536,108.99146 41.952536,108.37812 44.165870,108.37812 L 64.445870,108.37812 z "
     id="path866" />
</svg>
