<?xml version="1.0" encoding="UTF-8" standalone="no"?>
<!DOCTYPE svg PUBLIC "-//W3C//DTD SVG 20010904//EN"
"http://www.w3.org/TR/2001/REC-SVG-20010904/DTD/svg10.dtd">
<!-- Created with Inkscape (http://www.inkscape.org/) -->
<svg
   id="svg1"
   sodipodi:version="0.32"
   inkscape:version="0.38.1"
   width="128.00000pt"
   height="128.00000pt"
   sodipodi:docbase="/usr/share/icons/Fuzzy/scalable/mimetypes"
   sodipodi:docname="gnome-mime-audio-x-pn-realaudio.svg"
   xmlns="http://www.w3.org/2000/svg"
   xmlns:inkscape="http://www.inkscape.org/namespaces/inkscape"
   xmlns:sodipodi="http://sodipodi.sourceforge.net/DTD/sodipodi-0.dtd"
   xmlns:xlink="http://www.w3.org/1999/xlink">
  <defs
     id="defs3">
    <linearGradient
       id="linearGradient839">
      <stop
         style="stop-color:#46a046;stop-opacity:1.0000000;"
         offset="0.0000000"
         id="stop840" />
      <stop
         style="stop-color:#df421e;stop-opacity:1.0000000;"
         offset="0.39364964"
         id="stop841" />
      <stop
         style="stop-color:#ada7c8;stop-opacity:1.0000000;"
         offset="0.72036445"
         id="stop842" />
      <stop
         style="stop-color:#eed680;stop-opacity:1.0000000;"
         offset="1.0000000"
         id="stop843" />
    </linearGradient>
    <linearGradient
       xlink:href="#linearGradient839"
       id="linearGradient836"
       x1="1.3267924e-17"
       y1="0.50000000"
       x2="1.0000000"
       y2="0.50000000" />
  </defs>
  <sodipodi:namedview
     id="base"
     pagecolor="#ffffff"
     bordercolor="#666666"
     borderopacity="1.0"
     inkscape:pageopacity="0.0"
     inkscape:pageshadow="2"
     inkscape:zoom="5.0234375"
     inkscape:cx="66.459321"
     inkscape:cy="64.000000"
     inkscape:window-width="751"
     inkscape:window-height="909"
     showgrid="true"
     snaptogrid="true"
     gridspacingx="1.0000000mm"
     gridspacingy="1.0000000mm"
     inkscape:window-x="0"
     inkscape:window-y="31" />
  <rect
     style="fill:none;fill-rule:evenodd;stroke:#000000;stroke-width:11.250000;stroke-dasharray:none;stroke-opacity:0.50000000;stroke-linejoin:round;"
     id="rect834"
     width="128.25159"
     height="145.27559"
     x="17.024004"
     y="7.6377953"
     ry="22.892691" />
  <rect
     style="fill:#ffffff;fill-rule:evenodd;stroke:#000000;stroke-width:6.2500000;stroke-dasharray:none;"
     id="rect828"
     width="128.25158"
     height="145.27559"
     x="17.091653"
     y="7.6377954"
     ry="22.892691" />
  <path
     style="fill:#4b6983;fill-rule:evenodd;stroke:#000000;stroke-width:1.5059674;stroke-linejoin:round;"
     d="M 89.725711,30.433362 L 74.778985,94.455805 L 104.65881,79.520341 C 107.41966,77.077142 110.92444,76.441725 112.63525,70.717991 C 114.25030,65.314633 113.28001,62.195194 111.06214,58.175920 L 111.06214,58.175920 L 89.725711,30.433362 z "
     id="path831"
     sodipodi:nodetypes="ccccccc" />
  <path
     sodipodi:type="arc"
     style="fill-rule:evenodd;stroke:#000000;stroke-width:5.0000000;fill:#9db8d2;fill-opacity:1.0000000;stroke-dasharray:none;"
     id="path825"
     sodipodi:cx="100.98425"
     sodipodi:cy="78.503937"
     sodipodi:rx="44.291340"
     sodipodi:ry="70.866142"
     d="M 145.27559 78.503937 A 44.291340 70.866142 0 1 0 56.692913,78.503937 A 44.291340 70.866142 0 1 0 145.27559 78.503937 z"
     transform="matrix(0.477735,0.122682,-0.122682,0.477735,35.52938,11.17656)" />
  <path
     sodipodi:type="arc"
     style="fill-rule:evenodd;stroke:#000000;stroke-width:2.2747321;stroke-dasharray:none;fill:#7590ae;fill-opacity:1.0000000;"
     id="path826"
     sodipodi:cx="102.75591"
     sodipodi:cy="85.590553"
     sodipodi:rx="28.346457"
     sodipodi:ry="56.692913"
     d="M 131.10237 85.590553 A 28.346457 56.692913 0 1 0 74.409456,85.590553 A 28.346457 56.692913 0 1 0 131.10237 85.590553 z"
     transform="matrix(0.575251,0.147724,-0.135083,0.526023,24.05911,0.197551)" />
  <path
     sodipodi:type="arc"
     style="fill-rule:evenodd;stroke:#000000;stroke-width:1.0000000pt;fill:#314e6c;fill-opacity:1.0000000;"
     id="path827"
     sodipodi:cx="33.661419"
     sodipodi:cy="51.929134"
     sodipodi:rx="12.401575"
     sodipodi:ry="19.488190"
     d="M 46.062994 51.929134 A 12.401575 19.488190 0 1 0 21.259844,51.929134 A 12.401575 19.488190 0 1 0 46.062994 51.929134 z"
     transform="matrix(0.477735,0.122682,-0.140577,0.547423,70.71934,29.45280)" />
  <path
     style="font-size:40.000000;stroke-width:1.0000000pt;font-family:Trek;"
     d="M 81.286720,139.09798 L 94.606720,107.97798 L 101.44672,107.97798 L 114.76672,139.09798 L 107.64672,139.09798 L 104.56672,131.53798 L 91.566720,131.53798 L 88.446720,139.09798 L 81.286720,139.09798 z M 98.046720,115.57798 L 93.486720,126.65798 L 102.56672,126.65798 L 98.046720,115.57798 z M 63.646720,126.85798 L 56.486720,126.85798 L 56.486720,139.09798 L 49.766720,139.09798 L 49.766720,107.97798 L 67.806720,107.97798 C 70.793386,107.97798 73.073386,108.71131 74.646720,110.17798 C 76.380053,111.77798 77.246720,114.19131 77.246720,117.41798 C 77.246720,118.67131 77.140053,119.76464 76.926720,120.69798 C 76.713386,121.60464 76.353386,122.44464 75.846720,123.21798 C 74.940053,124.63131 73.473386,125.69798 71.446720,126.41798 L 71.286720,126.45798 L 78.086720,139.09798 L 70.166720,139.09798 L 63.646720,126.85798 z M 56.486720,113.33798 L 56.486720,121.97798 L 64.326720,121.97798 C 65.873386,121.97798 67.033386,121.68464 67.806720,121.09798 C 68.793386,120.43131 69.286720,119.28464 69.286720,117.65798 C 69.286720,116.13798 68.820053,115.04464 67.886720,114.37798 C 66.980053,113.68464 65.793386,113.33798 64.326720,113.33798 L 56.486720,113.33798 z "
     id="path851" />
</svg>
