<?xml version="1.0" encoding="UTF-8" standalone="no"?>
<!DOCTYPE svg PUBLIC "-//W3C//DTD SVG 20010904//EN"
"http://www.w3.org/TR/2001/REC-SVG-20010904/DTD/svg10.dtd">
<!-- Created with Inkscape (http://www.inkscape.org/) -->
<svg
   id="svg1"
   sodipodi:version="0.32"
   inkscape:version="0.38.1"
   width="128.00000pt"
   height="128.00000pt"
   sodipodi:docbase="/usr/share/icons/Fuzzy/scalable/mimetypes"
   sodipodi:docname="gnome-mime-application-x-deb.svg"
   xmlns="http://www.w3.org/2000/svg"
   xmlns:inkscape="http://www.inkscape.org/namespaces/inkscape"
   xmlns:sodipodi="http://sodipodi.sourceforge.net/DTD/sodipodi-0.dtd"
   xmlns:xlink="http://www.w3.org/1999/xlink">
  <defs
     id="defs3">
    <linearGradient
       id="linearGradient850">
      <stop
         style="stop-color:#fbffff;stop-opacity:0.0000000;"
         offset="0.0000000"
         id="stop851" />
      <stop
         style="stop-color:#ffffff;stop-opacity:1.0000000;"
         offset="1.0000000"
         id="stop852" />
    </linearGradient>
    <linearGradient
       xlink:href="#linearGradient850"
       id="linearGradient859"
       x1="0.57772022"
       y1="0.56882256"
       x2="0.077720210"
       y2="0.0097879283" />
    <linearGradient
       id="linearGradient839">
      <stop
         style="stop-color:#46a046;stop-opacity:1.0000000;"
         offset="0.0000000"
         id="stop840" />
      <stop
         style="stop-color:#df421e;stop-opacity:1.0000000;"
         offset="0.39364964"
         id="stop841" />
      <stop
         style="stop-color:#ada7c8;stop-opacity:1.0000000;"
         offset="0.72036445"
         id="stop842" />
      <stop
         style="stop-color:#eed680;stop-opacity:1.0000000;"
         offset="1.0000000"
         id="stop843" />
    </linearGradient>
    <linearGradient
       id="linearGradient833">
      <stop
         style="stop-color:#00ff00;stop-opacity:1.0000000;"
         offset="0.0000000"
         id="stop834" />
      <stop
         style="stop-color:#ff0000;stop-opacity:1.0000000;"
         offset="0.30839416"
         id="stop837" />
      <stop
         style="stop-color:#7f8cff;stop-opacity:1.0000000;"
         offset="0.75000000"
         id="stop838" />
      <stop
         style="stop-color:#ffff00;stop-opacity:1.0000000;"
         offset="1.0000000"
         id="stop835" />
    </linearGradient>
    <linearGradient
       xlink:href="#linearGradient850"
       id="linearGradient836"
       x1="0.47213113"
       y1="0.66958040"
       x2="-0.088524587"
       y2="-0.078671329" />
    <linearGradient
       xlink:href="#linearGradient850"
       id="linearGradient855"
       x1="0.61967212"
       y1="0.66881722"
       x2="0.029508196"
       y2="0.019354839" />
    <linearGradient
       xlink:href="#linearGradient850"
       id="linearGradient853"
       x1="0.39344263"
       y1="0.92035401"
       x2="0.67540985"
       y2="0.29203540" />
  </defs>
  <sodipodi:namedview
     id="base"
     pagecolor="#ffffff"
     bordercolor="#666666"
     borderopacity="1.0"
     inkscape:pageopacity="0.0"
     inkscape:pageshadow="2"
     inkscape:zoom="5.0234375"
     inkscape:cx="64.165964"
     inkscape:cy="63.499648"
     inkscape:window-width="751"
     inkscape:window-height="909"
     showgrid="true"
     snaptogrid="false"
     gridspacingx="1.0000000mm"
     gridspacingy="1.0000000mm"
     inkscape:window-x="0"
     inkscape:window-y="31" />
  <path
     style="font-size:40.000000;stroke-width:12.500000;font-family:Trek;stroke:#000000;stroke-opacity:0.50000000;fill:none;stroke-dasharray:none;stroke-linejoin:round;"
     d="M 82.283004,8.1376963 L 7.7830037,27.012695 L 7.9392537,125.57524 L 7.9705037,125.57524 L 7.9705037,125.76274 L 8.2517537,125.70024 L 82.095504,153.10649 L 151.47048,124.45024 L 151.47048,118.73149 L 151.47048,27.012695 L 82.283004,8.1376963 z "
     id="path874" />
  <path
     style="font-size:12.000000;fill:#515151;fill-rule:evenodd;stroke:#000000;stroke-width:7.5206294;stroke-linecap:round;stroke-linejoin:round;"
     d="M 151.38159,27.032982 L 151.38159,118.74314 L 84.429019,104.01428 L 82.186208,8.1726167 L 151.38159,27.032982 z "
     id="path633"
     sodipodi:nodetypes="ccccc" />
  <path
     style="font-size:12.000000;fill:#4a494d;fill-rule:evenodd;stroke:#000000;stroke-width:7.5206294;stroke-linecap:round;stroke-linejoin:round;"
     d="M 7.6717290,27.032982 L 82.186208,8.1726167 L 86.959934,107.27938 L 7.8671494,125.77363 L 7.6717290,27.032982 z "
     id="path631"
     sodipodi:nodetypes="ccccc" />
  <path
     style="font-size:12.000000;fill:#9db8d2;fill-rule:evenodd;stroke:#000000;stroke-width:7.5206294;stroke-linecap:round;stroke-linejoin:round;"
     d="M 82.004422,49.960515 L 151.38159,27.032982 L 82.186208,8.1726167 L 7.6717290,27.032982 L 82.004422,49.960515 z "
     id="path640"
     sodipodi:nodetypes="ccccc" />
  <path
     style="font-size:12.000000;fill:#4b6983;fill-rule:evenodd;stroke:#000000;stroke-width:7.5206294;stroke-linecap:round;stroke-linejoin:round;"
     d="M 151.38159,27.032982 L 151.38159,124.47503 L 82.004422,153.13443 L 82.004422,49.960515 L 151.38159,27.032982 z "
     id="path627"
     sodipodi:nodetypes="ccccc" />
  <path
     style="font-size:12.000000;fill:#7590ae;fill-rule:evenodd;stroke:#000000;stroke-width:7.5206294;stroke-linecap:round;stroke-linejoin:round;"
     d="M 82.004422,49.960515 L 82.004422,153.13443 L 7.8251535,125.58483 L 7.6717290,27.032982 L 82.004422,49.960515 z "
     id="path629"
     sodipodi:nodetypes="ccccc" />
  <path
     style="fill:url(#linearGradient859);fill-rule:evenodd;stroke:none;stroke-opacity:1;stroke-width:1pt;stroke-linejoin:miter;stroke-linecap:butt;fill-opacity:1.0000000;"
     d="M 81.911361,12.086354 L 11.738893,30.005965 L 11.738893,121.67109 C 84.777144,150.32538 96.941441,169.12448 78.272468,47.310010 C 144.42448,22.937158 81.911361,12.086354 81.911361,12.086354 z "
     id="path892"
     sodipodi:nodetypes="ccccc" />
  <path
     style="fill:url(#linearGradient836);fill-rule:evenodd;stroke:none;stroke-opacity:1;stroke-width:1pt;stroke-linejoin:miter;stroke-linecap:butt;fill-opacity:0.75;"
     d="M 85.893270,52.859176 L 85.893270,146.58228 C 86.168119,146.58228 115.30197,135.58837 128.76951,121.84598 C 142.51189,110.57722 147.18431,87.764837 147.18431,87.764837 L 147.18431,31.695900 L 85.893270,52.859176 z "
     id="path849"
     sodipodi:nodetypes="cccccc" />
  <path
     style="font-size:12.000000;fill:none;fill-rule:evenodd;stroke:#000000;stroke-width:7.5206294;stroke-linecap:round;stroke-linejoin:round;"
     d="M 82.004422,49.960515 L 82.004422,153.13443 L 7.8251535,125.58483 L 7.6717290,27.032982 L 82.004422,49.960515 z "
     id="path852"
     sodipodi:nodetypes="ccccc" />
  <path
     id="selection_to_path"
     fill="none"
     stroke="black"
     stroke-width="1"
     d="M 82.595853,17.285857 C 82.595853,17.285857 82.595853,17.342602 82.595853,17.342602 C 82.595853,17.342602 82.651696,17.285857 82.651696,17.285857 C 82.651696,17.285857 82.595853,17.285857 82.595853,17.285857 z M 80.809221,17.456098 C 81.088376,17.569589 81.255876,17.512844 81.535041,17.456098 C 81.535041,17.456098 80.809221,17.456098 80.809221,17.456098 z M 75.560954,18.250555 C 75.560954,18.250555 75.616783,17.966818 75.616783,17.966818 C 75.616783,17.966818 74.220964,18.534288 74.220964,18.534288 C 74.220964,18.534288 72.043494,19.498991 72.043494,19.498991 C 69.307701,20.747422 67.186062,21.712122 64.841091,23.755010 C 64.841091,23.755010 64.785255,23.187540 64.785255,23.187540 C 64.394429,23.471278 64.003598,23.925252 63.668603,24.265735 C 63.668603,24.265735 62.942778,24.946696 62.942778,24.946696 C 61.826127,25.968145 60.318650,27.330069 59.425324,28.521759 C 59.201993,28.805492 59.090329,29.032484 58.922830,29.372962 C 58.922830,29.372962 58.699498,29.883687 58.699498,29.883687 C 58.587831,30.053928 58.420337,29.997178 58.308668,30.167419 C 58.141173,30.394411 57.750348,31.302359 57.582847,31.586093 C 57.359516,32.210318 56.801191,33.628991 56.466197,34.082964 C 56.242866,34.423446 55.963702,34.763925 55.517045,34.650429 C 54.679551,36.182598 53.507063,39.246936 53.004575,41.006092 C 53.004575,41.006092 52.390416,42.935494 52.390416,42.935494 C 52.334579,43.105736 52.167085,43.502960 52.167085,43.673202 C 52.167085,43.673202 52.390416,45.262116 52.390416,45.262116 C 52.390416,45.262116 52.390416,46.680789 52.390416,46.680789 C 52.390416,46.680789 52.334579,47.588742 52.334579,47.588742 C 52.334579,47.588742 52.334579,48.893925 52.334579,48.893925 C 52.334579,48.893925 52.278749,49.745132 52.278749,49.745132 C 52.278749,49.745132 52.278749,50.596330 52.278749,50.596330 C 52.278749,50.596330 52.334579,51.277297 52.334579,51.277297 C 52.334579,51.277297 52.278749,53.433687 52.278749,53.433687 C 52.278749,53.433687 52.334579,54.171399 52.334579,54.171399 C 52.334579,54.171399 52.334579,55.079347 52.334579,55.079347 C 52.334579,55.079347 52.390416,55.760313 52.390416,55.760313 C 52.502080,57.803201 52.837079,59.789345 53.339574,61.775492 C 55.628707,70.684764 61.156133,78.629346 68.693542,83.736572 C 72.099327,86.063202 76.677598,88.049342 80.809221,88.106092 C 80.809221,88.106092 81.646707,88.162836 81.646707,88.162836 C 81.646707,88.162836 82.707524,88.162836 82.707524,88.162836 C 82.707524,88.162836 83.768344,88.219584 83.768344,88.219584 C 83.433351,88.049342 82.037531,87.765608 81.590871,87.708858 C 80.362554,87.481878 78.910906,87.254886 77.794258,86.744160 C 77.124259,86.460424 76.175110,85.722718 75.672616,85.211997 C 75.170123,84.701270 74.611795,83.963558 74.053468,83.566330 C 74.053468,83.566330 74.500129,84.474284 74.500129,84.474284 C 74.500129,84.474284 72.936820,83.736572 72.936820,83.736572 C 72.936820,83.736572 72.155155,83.169102 72.155155,83.169102 C 71.764337,82.885366 71.094343,82.601638 70.591850,82.488138 C 70.591850,82.488138 71.150172,81.693678 71.150172,81.693678 C 70.312685,81.353193 69.921852,81.069464 69.307701,80.445244 C 69.028535,80.161514 68.916869,80.048022 68.693542,79.764281 C 68.637707,79.650788 68.470208,79.423802 68.358542,79.367058 C 68.246877,79.310304 67.856046,79.310304 67.744383,79.310304 C 67.241894,79.310304 67.130225,78.969824 66.851063,78.572596 C 66.404401,77.948378 65.901906,77.267414 65.678575,76.529708 C 65.678575,76.529708 65.566912,76.018982 65.566912,76.018982 C 65.566912,76.018982 65.231912,76.472952 65.231912,76.472952 C 65.064418,76.132474 64.617760,75.565004 64.394429,75.224525 C 64.394429,75.224525 62.886942,73.068138 62.886942,73.068138 C 62.775277,72.841152 62.496120,72.443924 62.440289,72.216938 C 62.328620,71.819704 62.551953,71.819704 62.831110,71.933196 C 62.496120,71.535968 61.714463,71.025248 61.602795,70.514522 C 61.491132,70.174037 61.937794,70.060550 61.770295,69.720066 C 61.770295,69.720066 61.156133,68.755368 61.156133,68.755368 C 60.653639,67.960912 60.262818,67.223205 60.095318,66.315244 C 60.541976,66.769216 60.709470,67.109700 61.379464,67.279942 C 61.100301,66.428743 60.430307,65.010068 59.816155,64.385847 C 59.201993,63.761632 58.811162,64.102114 58.308668,63.761632 C 57.582847,63.307656 56.968690,61.605251 56.801191,60.754043 C 56.801191,60.754043 57.136191,60.754043 57.136191,60.754043 C 57.136191,60.754043 56.466197,59.278625 56.466197,59.278625 C 56.410359,58.881397 56.633691,57.859951 56.577859,57.462718 C 56.577859,57.462718 56.019534,56.271037 56.019534,56.271037 C 55.796203,55.590071 55.684539,54.738863 55.684539,54.001157 C 55.684539,54.001157 55.628707,53.263444 55.628707,53.263444 C 55.628707,53.263444 55.684539,51.617779 55.684539,51.617779 C 55.684539,51.617779 55.740376,51.050314 55.740376,51.050314 C 55.740376,51.050314 56.131197,46.907781 56.131197,46.907781 C 56.131197,46.907781 56.466197,43.843443 56.466197,43.843443 C 56.689528,43.105736 57.303685,41.914045 57.694516,41.233084 C 58.141173,40.381876 58.587831,39.473928 58.922830,38.565970 C 58.922830,38.565970 58.308668,38.452479 58.308668,38.452479 C 58.978662,37.317538 59.871987,36.239348 60.765307,35.274649 C 61.937794,33.969468 63.277772,32.607542 64.673592,31.586093 C 65.231912,31.188868 65.957738,30.678144 66.627732,30.451157 C 66.795232,30.394411 67.018563,30.280915 67.241894,30.280915 C 67.353553,30.280915 67.632715,30.280915 67.744383,30.224169 C 67.911878,30.110673 68.135209,29.770190 68.191046,29.543203 C 67.856046,29.713445 67.632715,29.883687 67.241894,29.940432 C 67.911878,29.032484 69.307701,27.897544 70.424351,27.613811 C 71.317672,27.386819 72.713487,27.557060 73.327647,26.819354 C 73.327647,26.819354 71.820165,27.103087 71.820165,27.103087 C 71.875994,26.989586 71.875994,26.932845 71.987661,26.876095 C 71.987661,26.876095 73.327647,26.365370 73.327647,26.365370 C 74.835128,25.741153 75.281789,25.003446 77.068431,24.606213 C 77.068431,24.606213 78.520079,24.322481 78.520079,24.322481 C 78.687579,24.322481 79.078402,24.208989 78.966740,24.492722 C 79.190068,24.549473 79.525062,24.435976 79.748394,24.379231 C 79.748394,24.379231 81.311709,24.208989 81.311709,24.208989 C 81.311709,24.208989 82.316696,24.152239 82.316696,24.152239 C 82.316696,24.152239 82.595853,24.152239 82.595853,24.152239 C 82.595853,24.152239 83.154189,24.208989 83.154189,24.208989 C 83.154189,24.208989 83.712511,24.208989 83.712511,24.208989 C 83.712511,24.208989 84.270839,24.265735 84.270839,24.265735 C 85.945815,24.379231 87.899956,24.776455 89.463270,25.343930 C 92.087408,26.308628 94.153209,27.897544 95.995685,29.997178 C 98.005655,32.267059 99.624795,34.820670 100.51812,37.771513 C 100.68562,38.452479 100.85311,39.133445 100.96478,39.814411 C 100.96478,39.814411 101.02061,40.722359 101.02061,40.722359 C 101.13228,41.289829 101.29977,40.892601 101.29977,41.630312 C 101.29977,41.630312 101.29977,43.900194 101.29977,43.900194 C 101.29977,43.900194 101.35561,44.467659 101.35561,44.467659 C 101.35561,44.467659 101.35561,45.262116 101.35561,45.262116 C 101.35561,45.262116 101.29977,46.226815 101.29977,46.226815 C 101.29977,47.134768 101.07645,47.929225 100.90895,48.837179 C 100.90895,48.837179 101.35561,47.929225 101.35561,47.929225 C 101.46727,48.269708 101.41144,48.553442 101.35561,48.893925 C 101.24395,49.745132 101.02061,50.426098 100.68562,51.220551 C 100.68562,51.220551 100.29478,52.241995 100.29478,52.241995 C 100.12729,52.525733 99.680635,52.639228 99.401475,52.809465 C 99.122305,53.036452 98.954815,53.603923 98.954815,54.001157 C 98.954815,54.228144 99.010655,54.341635 98.954815,54.625372 C 98.843145,55.249588 98.117315,55.760313 97.670665,56.157536 C 97.670665,56.157536 95.549015,58.030193 95.549015,58.030193 C 95.102355,58.370672 94.488211,58.938142 93.874044,58.994888 C 93.985711,58.597659 94.320707,58.370672 94.544036,58.086935 C 93.929874,58.427418 93.371550,59.108384 92.757388,59.562358 C 92.199069,60.016337 91.305749,60.356820 90.579920,60.527061 C 90.579920,60.527061 90.524087,60.356820 90.524087,60.356820 C 88.904945,61.037781 88.067452,61.151277 86.336641,61.151277 C 84.940832,61.151277 83.154189,60.527061 81.925865,59.846095 C 78.073423,57.859951 75.225956,53.660674 75.225956,49.234408 C 75.225956,49.234408 74.890956,49.574891 74.890956,49.574891 C 74.890956,49.574891 74.835128,48.837179 74.835128,48.837179 C 74.835128,48.837179 74.890956,48.156212 74.890956,48.156212 C 74.946789,47.248264 75.114290,46.340311 75.393455,45.432357 C 76.510104,41.914045 79.245901,39.360432 82.763362,38.452479 C 83.824173,38.168745 84.494166,38.168745 85.554988,38.168745 C 86.894969,38.168745 88.625783,38.679471 89.798265,39.360432 C 90.524087,39.757661 90.747424,39.984648 91.361573,40.438627 C 91.194079,40.098144 90.914919,39.871152 90.635758,39.587419 C 89.965769,38.906453 89.239943,38.338988 88.402450,37.941753 C 87.229967,37.317538 85.889977,36.806818 84.550004,36.806818 C 83.880011,36.806818 83.210022,36.806818 82.540030,36.863564 C 80.697554,37.147296 78.855068,38.055254 77.459263,39.360432 C 77.124259,39.700910 76.621765,40.268385 76.398442,40.665614 C 76.398442,40.665614 75.951778,41.403321 75.951778,41.403321 C 75.728449,41.687058 75.505117,41.630312 75.002622,42.481515 C 74.388463,43.389468 74.165139,44.410918 73.774308,45.432357 C 73.774308,45.432357 73.215980,46.510552 73.215980,46.510552 C 73.215980,46.510552 73.048481,48.610192 73.048481,48.610192 C 73.048481,48.610192 73.048481,49.801873 73.048481,49.801873 C 73.048481,49.801873 73.104319,50.482839 73.104319,50.482839 C 73.215980,51.958263 73.550975,53.376936 74.165139,54.738863 C 75.337622,57.122235 77.124259,58.767901 79.078402,60.413560 C 79.078402,60.413560 80.306726,61.378259 80.306726,61.378259 C 80.306726,61.378259 80.753388,61.888984 80.753388,61.888984 C 81.032548,62.059225 81.981702,62.286212 82.316696,62.399708 C 83.656678,62.796933 84.884994,62.967173 86.280808,63.080669 C 86.280808,63.080669 86.839136,63.137416 86.839136,63.137416 C 86.839136,63.137416 87.955789,63.137416 87.955789,63.137416 C 87.955789,63.137416 89.184105,63.023924 89.184105,63.023924 C 91.919904,62.740186 94.599873,61.718742 96.889005,60.073083 C 97.558995,59.562358 98.228985,59.051638 98.787315,58.484168 C 99.457295,57.803201 100.07145,57.065494 100.85311,56.554770 C 100.62978,57.122235 100.62978,56.895253 100.68562,57.519469 C 100.85311,57.292478 101.02061,56.895253 101.02061,56.554770 C 101.02061,56.554770 100.96478,56.157536 100.96478,56.157536 C 100.90895,55.646821 101.57894,54.568622 101.91394,54.171399 C 101.91394,54.171399 102.47226,55.079347 102.47226,55.079347 C 102.58393,54.852360 102.52809,54.341635 102.86308,53.603923 C 103.36558,52.412237 104.09140,51.277297 104.37057,49.972114 C 104.37057,49.972114 104.48223,48.553442 104.48223,48.553442 C 104.53806,48.326455 104.64973,48.269708 104.87306,48.326455 C 104.87306,48.326455 104.92890,47.078022 104.92890,47.078022 C 104.92890,47.078022 105.43139,48.326455 105.43139,48.326455 C 105.43139,48.326455 105.43139,47.758985 105.43139,47.758985 C 105.43139,47.758985 105.59889,46.680789 105.59889,46.680789 C 105.59889,46.680789 106.38055,44.127176 106.38055,44.127176 C 106.26888,44.183926 106.04555,44.240677 105.93388,44.240677 C 105.71055,44.127176 105.59889,43.786693 105.54305,43.616456 C 105.48723,43.332719 105.43139,42.311274 105.54305,42.027541 C 105.65472,41.857300 105.71055,41.857300 105.87805,41.800554 C 105.54305,41.289829 105.43139,41.176334 105.15222,40.552118 C 105.15222,40.552118 104.76139,39.190191 104.76139,39.190191 C 105.26389,39.190191 105.20805,39.871152 105.76638,40.211635 C 105.76638,40.211635 105.26389,37.998505 105.26389,37.998505 C 105.09640,37.033805 105.26389,37.090556 104.70556,36.182598 C 104.70556,36.182598 104.59390,36.182598 104.59390,36.182598 C 104.37057,36.579831 104.20306,36.409589 104.03557,36.069107 C 103.92391,35.785374 103.70058,34.934166 103.75641,34.650429 C 103.92391,34.082964 104.59390,34.650429 104.87306,34.309951 C 104.98472,34.196455 104.98472,34.082964 104.98472,33.969468 C 105.37557,34.309951 105.93388,35.444891 106.10138,35.955610 C 106.60387,37.147296 107.27388,38.849711 107.55303,40.098144 C 107.66470,39.814411 107.44136,39.246936 107.38553,38.963203 C 107.38553,38.963203 106.43637,36.012361 106.43637,36.012361 C 106.60387,35.842119 106.54803,35.615132 106.49221,35.388140 C 106.43637,34.877421 106.38055,34.536938 106.38055,34.026213 C 106.65970,34.253205 106.77137,34.366696 106.93887,34.707179 C 106.93887,34.423446 106.71553,33.855972 106.60387,33.572241 C 106.26888,32.664292 105.87805,31.756334 105.37557,30.905136 C 103.86807,28.238026 101.80227,25.854654 99.401475,23.981997 C 98.731485,23.414527 97.335665,22.393083 96.554015,22.052605 C 96.554015,22.052605 97.447325,23.130795 97.447325,23.130795 C 97.447325,23.130795 97.391505,23.187540 97.391505,23.187540 C 96.944845,22.903808 96.219015,22.449829 95.828185,22.109346 C 95.325695,21.655372 95.381525,21.428390 95.214025,21.258148 C 95.046535,21.031156 94.153209,20.860915 93.874044,20.860915 C 93.371550,20.917664 92.645721,21.258148 92.254901,21.201396 C 92.087408,21.144647 91.752412,20.974406 91.584914,20.860915 C 91.584914,20.860915 90.189097,20.179947 90.189097,20.179947 C 89.016606,19.669228 87.955789,19.385491 86.727469,18.988267 C 86.727469,18.988267 85.052494,18.477542 85.052494,18.477542 C 85.052494,18.477542 85.164164,19.101758 85.164164,19.101758 C 84.717499,18.931517 84.215005,18.818025 83.712511,18.818025 C 83.712511,18.818025 80.809221,19.158509 80.809221,19.158509 C 80.809221,19.158509 80.139227,19.101758 80.139227,19.101758 C 80.362554,18.874771 80.697554,18.761275 81.032548,18.704530 C 81.032548,18.704530 80.027566,18.591033 80.027566,18.591033 C 79.078402,18.477542 78.520079,18.364046 77.570925,18.647784 C 77.961757,18.307301 78.520079,18.023568 79.022569,17.796576 C 78.743417,17.683085 78.240918,17.796576 77.961757,17.853327 C 77.180092,18.023568 76.398442,18.250555 75.560954,18.250555 z M 81.255876,18.137060 C 81.255876,18.137060 81.758365,18.250555 81.758365,18.250555 C 82.037531,18.364046 82.316696,18.534288 82.540030,18.250555 C 82.540030,18.250555 81.255876,18.137060 81.255876,18.137060 z M 53.674562,32.607542 C 53.618732,33.345249 53.562900,33.458750 53.283736,34.082964 C 53.842063,33.855972 54.344556,33.175007 54.177057,32.550792 C 54.177057,32.550792 53.674562,32.607542 53.674562,32.607542 z M 52.278749,37.885013 C 51.999585,38.225496 51.776254,38.679471 51.720422,39.133445 C 51.720422,39.133445 51.776254,40.154889 51.776254,40.154889 C 51.776254,40.154889 52.167085,38.622721 52.167085,38.622721 C 52.167085,38.622721 52.278749,37.885013 52.278749,37.885013 z M 93.650715,47.361755 C 93.874044,46.907781 93.874044,46.113324 93.650715,45.659350 C 93.427381,45.829591 93.204046,46.170069 93.259883,46.453807 C 93.259883,46.567298 93.371550,46.737539 93.371550,46.851030 C 93.483217,47.078022 93.483217,47.191514 93.650715,47.361755 z M 104.87306,49.518141 C 104.87306,49.518141 104.87306,49.858623 104.87306,49.858623 C 104.87306,49.858623 104.87306,49.518141 104.87306,49.518141 z M 106.15722,49.518141 C 106.15722,49.518141 105.65472,52.071754 105.65472,52.071754 C 105.87805,51.731271 105.98972,50.709831 106.10138,50.255857 C 106.15722,50.028865 106.21305,49.745132 106.15722,49.518141 z M 92.701558,50.539589 C 92.701558,50.539589 92.701558,50.596330 92.701558,50.596330 C 92.701558,50.596330 92.757388,50.539589 92.757388,50.539589 C 92.757388,50.539589 92.701558,50.539589 92.701558,50.539589 z M 91.752412,50.709831 C 91.529071,50.993564 91.082418,51.617779 90.914919,51.958263 C 90.859081,52.128504 90.747424,52.355491 90.859081,52.582478 C 90.970752,52.809465 91.194079,52.695974 91.473247,53.036452 C 91.473247,53.036452 91.584914,53.036452 91.584914,53.036452 C 91.975734,52.468987 92.422399,51.674530 92.589896,50.993564 C 92.143238,51.561029 92.199069,52.071754 91.473247,52.468987 C 91.194079,52.582478 91.138246,52.639228 90.859081,52.582478 C 91.026575,52.071754 91.249912,51.788021 91.529071,51.334047 C 91.640745,51.163806 91.808243,50.936813 91.752412,50.709831 z M 92.645721,50.709831 C 92.645721,50.709831 92.645721,50.766572 92.645721,50.766572 C 92.645721,50.766572 92.701558,50.709831 92.701558,50.709831 C 92.701558,50.709831 92.645721,50.709831 92.645721,50.709831 z M 104.64973,50.766572 C 104.64973,50.766572 104.64973,50.823322 104.64973,50.823322 C 104.64973,50.823322 104.70556,50.766572 104.70556,50.766572 C 104.70556,50.766572 104.64973,50.766572 104.64973,50.766572 z M 105.09640,53.774165 C 105.09640,53.774165 105.09640,53.830915 105.09640,53.830915 C 105.09640,53.830915 105.15222,53.774165 105.15222,53.774165 C 105.15222,53.774165 105.09640,53.774165 105.09640,53.774165 z M 105.04055,53.944406 C 105.04055,53.944406 105.04055,54.001157 105.04055,54.001157 C 105.04055,54.001157 105.09640,53.944406 105.09640,53.944406 C 105.09640,53.944406 105.04055,53.944406 105.04055,53.944406 z M 104.92890,54.228144 C 104.92890,54.228144 104.92890,54.284890 104.92890,54.284890 C 104.92890,54.284890 104.98472,54.228144 104.98472,54.228144 C 104.98472,54.228144 104.92890,54.228144 104.92890,54.228144 z M 104.81724,54.511877 C 104.81724,54.511877 104.81724,54.568622 104.81724,54.568622 C 104.81724,54.568622 104.87306,54.511877 104.87306,54.511877 C 104.87306,54.511877 104.81724,54.511877 104.81724,54.511877 z M 84.884994,54.795614 C 84.884994,54.795614 84.884994,54.909105 84.884994,54.909105 C 85.331659,55.192838 85.889977,55.363079 86.392474,55.419830 C 86.615808,55.476580 86.839136,55.590071 87.062473,55.476580 C 87.341630,55.363079 87.788295,54.909105 88.067452,54.682118 C 87.844128,54.625372 87.676624,54.682118 87.453301,54.738863 C 87.453301,54.738863 86.504142,54.795614 86.504142,54.795614 C 86.504142,54.795614 85.889977,54.795614 85.889977,54.795614 C 85.443321,54.738863 85.331659,54.682118 84.884994,54.795614 z M 73.606808,54.965856 C 73.606808,54.965856 73.606808,55.022596 73.606808,55.022596 C 73.606808,55.022596 73.662646,54.965856 73.662646,54.965856 C 73.662646,54.965856 73.606808,54.965856 73.606808,54.965856 z M 73.662646,55.079347 C 73.774308,55.646821 74.388463,56.611511 74.667628,57.122235 C 74.723457,56.668261 74.276797,56.044045 74.053468,55.703563 C 74.053468,55.703563 73.662646,55.079347 73.662646,55.079347 z M 72.601821,56.441279 C 72.601821,56.611511 72.490154,57.008744 72.545987,57.178985 C 72.545987,57.349227 72.936820,57.859951 73.048481,58.030193 C 73.495147,58.711155 74.109306,59.619104 74.723457,60.073083 C 74.555958,59.619104 73.550975,58.030193 73.215980,57.462718 C 73.104319,57.178985 72.825153,56.611511 72.601821,56.441279 z M 74.165139,57.632961 C 74.723457,58.881397 76.286776,60.413560 77.347592,61.208018 C 79.469234,62.853682 81.925865,64.045369 84.494166,64.612840 C 86.057481,64.896568 87.676624,64.953324 89.239943,64.442598 C 88.960781,64.329106 88.290789,64.385847 87.955789,64.385847 C 87.955789,64.385847 85.499163,64.272356 85.499163,64.272356 C 84.661661,64.158865 83.154189,63.875127 82.428358,63.477899 C 82.037531,63.250912 81.423375,62.796933 81.088376,62.513199 C 80.865054,62.286212 80.809221,62.172716 80.530054,62.002475 C 80.530054,62.002475 80.530054,62.286212 80.530054,62.286212 C 80.195060,62.172716 79.860065,61.945734 79.525062,61.775492 C 78.687579,61.321518 77.961757,60.697298 77.235931,60.073083 C 76.900932,59.789345 76.621765,59.448867 76.286776,59.165129 C 76.510104,59.619104 77.180092,60.413560 77.515091,60.754043 C 77.515091,60.754043 78.296751,61.548500 78.296751,61.548500 C 77.180092,60.924285 76.510104,60.129828 75.672616,59.165129 C 75.281789,58.711155 74.667628,57.859951 74.165139,57.632961 z "
     style="fill:#de0551;stroke:#de0551;stroke-width:0.76913476;" />
  <rect
     style="fill:#ffffff;fill-rule:evenodd;stroke:#000000;stroke-width:3.7500000;stroke-dasharray:none;"
     id="rect853"
     width="110.80375"
     height="47.029549"
     ry="7.4109693"
     x="24.971378"
     y="73.654748" />
  <path
     style="font-size:40.000000;stroke-width:1.0000000pt;font-family:Trek;"
     d="M 96.765537,113.21930 L 96.765537,82.099276 L 116.04554,82.099276 C 118.60554,82.099276 120.75220,82.752610 122.48554,84.059276 C 124.45887,85.499276 125.44554,87.419276 125.44554,89.819276 C 125.44554,91.579276 125.03220,93.165943 124.20554,94.579276 C 123.80554,95.219276 123.32554,95.779276 122.76554,96.259276 C 122.20554,96.712610 121.45887,97.179276 120.52554,97.659276 C 122.12554,98.245943 123.40554,99.192614 124.36554,100.49930 C 125.32554,101.80597 125.80554,103.31263 125.80554,105.01930 C 125.80554,107.97930 124.80554,110.13930 122.80554,111.49930 C 121.17887,112.64597 118.92554,113.21930 116.04554,113.21930 L 96.765537,113.21930 z M 113.96554,95.099276 C 115.43220,95.099276 116.55220,94.752610 117.32554,94.059276 C 118.09887,93.365943 118.48554,92.405943 118.48554,91.179276 C 118.48554,88.539276 116.97887,87.219276 113.96554,87.219276 L 103.48554,87.219276 L 103.48554,95.099276 L 113.96554,95.099276 z M 113.96554,108.09930 C 115.43220,108.09930 116.55220,107.75263 117.32554,107.05930 C 118.09887,106.36597 118.48554,105.40597 118.48554,104.17930 C 118.48554,101.53930 116.97887,100.21930 113.96554,100.21930 L 103.48554,100.21930 L 103.48554,108.09930 L 113.96554,108.09930 z M 93.565537,100.21930 L 75.285537,100.21930 L 75.285537,100.41930 L 75.765537,102.85930 C 76.165537,104.13930 76.845537,105.28597 77.805537,106.29930 C 78.018870,106.45930 78.218870,106.59263 78.405537,106.69930 C 78.752204,106.91263 79.232204,107.16597 79.845537,107.45930 L 81.125537,107.77930 L 82.845537,107.89930 L 93.565537,107.89930 L 93.565537,113.21930 L 80.965537,113.21930 C 76.752204,113.21930 73.512204,111.88597 71.245537,109.21930 C 69.005537,106.52597 67.885537,102.67263 67.885537,97.659276 C 67.885537,92.592610 69.005537,88.739276 71.245537,86.099276 C 73.485537,83.432610 76.725537,82.099276 80.965537,82.099276 L 93.565537,82.099276 L 93.565537,87.459276 L 82.845537,87.459276 L 82.085537,87.459276 L 81.325537,87.539276 C 80.792204,87.539276 80.232204,87.672610 79.645537,87.939276 C 79.085537,88.205943 78.472204,88.579276 77.805537,89.059276 C 77.165537,89.699276 76.605537,90.539276 76.125537,91.579276 C 75.832204,92.272610 75.552204,93.379276 75.285537,94.899276 L 75.285537,95.099276 L 93.565537,95.099276 L 93.565537,100.21930 z M 35.325537,82.099276 L 51.845537,82.099276 C 56.032204,82.099276 59.218870,83.432610 61.405537,86.099276 C 63.592204,88.765943 64.685537,92.619276 64.685537,97.659276 C 64.685537,102.64597 63.592204,106.48597 61.405537,109.17930 C 59.245537,111.87263 56.058870,113.21930 51.845537,113.21930 L 35.325537,113.21930 L 35.325537,82.099276 z M 41.805537,107.89930 L 49.685537,107.89930 C 52.298870,107.89930 54.232204,107.05930 55.485537,105.37930 C 56.738870,103.67263 57.365537,101.09930 57.365537,97.659276 C 57.365537,94.219276 56.765537,91.659276 55.565537,89.979276 C 54.392204,88.299276 52.432204,87.459276 49.685537,87.459276 L 41.805537,87.459276 L 41.805537,107.89930 z "
     id="path889" />
</svg>
