<?xml version="1.0" encoding="UTF-8" standalone="no"?>
<!DOCTYPE svg PUBLIC "-//W3C//DTD SVG 20010904//EN"
"http://www.w3.org/TR/2001/REC-SVG-20010904/DTD/svg10.dtd">
<!-- Created with Inkscape (http://www.inkscape.org/) -->
<svg
   id="svg1"
   sodipodi:version="0.32"
   inkscape:version="0.38.1"
   width="128.00000pt"
   height="128.00000pt"
   sodipodi:docbase="/usr/share/icons/Fuzzy/scalable/mimetypes"
   sodipodi:docname="gnome-mime-application-x-gnumeric.svg"
   xmlns="http://www.w3.org/2000/svg"
   xmlns:inkscape="http://www.inkscape.org/namespaces/inkscape"
   xmlns:sodipodi="http://sodipodi.sourceforge.net/DTD/sodipodi-0.dtd"
   xmlns:xlink="http://www.w3.org/1999/xlink">
  <defs
     id="defs3">
    <linearGradient
       id="linearGradient907">
      <stop
         style="stop-color:#eed680;stop-opacity:1.0000000;"
         offset="0.0000000"
         id="stop908" />
      <stop
         style="stop-color:#dfb546;stop-opacity:1.0000000;"
         offset="0.29427481"
         id="stop911" />
      <stop
         style="stop-color:#d1940c;stop-opacity:1.0000000;"
         offset="1.0000000"
         id="stop910" />
    </linearGradient>
    <linearGradient
       id="linearGradient869">
      <stop
         style="stop-color:#7590ae;stop-opacity:1.0000000;"
         offset="0.0000000"
         id="stop870" />
      <stop
         style="stop-color:#89a4c0;stop-opacity:1.0000000;"
         offset="0.87030536"
         id="stop912" />
      <stop
         style="stop-color:#9db8d2;stop-opacity:1.0000000;"
         offset="1.0000000"
         id="stop871" />
    </linearGradient>
    <linearGradient
       id="linearGradient866">
      <stop
         style="stop-color:#ffff00;stop-opacity:1.0000000;"
         offset="0.0000000"
         id="stop867" />
      <stop
         style="stop-color:#ffea00;stop-opacity:1.0000000;"
         offset="0.36908397"
         id="stop901" />
      <stop
         style="stop-color:#ffd600;stop-opacity:1.0000000;"
         offset="1.0000000"
         id="stop868" />
    </linearGradient>
    <linearGradient
       xlink:href="#linearGradient907"
       id="linearGradient904"
       x1="0.35737705"
       y1="0.49346405"
       x2="0.17377049"
       y2="0.29411766"
       spreadMethod="reflect" />
    <linearGradient
       id="linearGradient839">
      <stop
         style="stop-color:#46a046;stop-opacity:1.0000000;"
         offset="0.0000000"
         id="stop840" />
      <stop
         style="stop-color:#df421e;stop-opacity:1.0000000;"
         offset="0.39364964"
         id="stop841" />
      <stop
         style="stop-color:#ada7c8;stop-opacity:1.0000000;"
         offset="0.72036445"
         id="stop842" />
      <stop
         style="stop-color:#eed680;stop-opacity:1.0000000;"
         offset="1.0000000"
         id="stop843" />
    </linearGradient>
    <linearGradient
       xlink:href="#linearGradient839"
       id="linearGradient836"
       x1="1.3267924e-17"
       y1="0.50000000"
       x2="1.0000000"
       y2="0.50000000" />
    <linearGradient
       xlink:href="#linearGradient869"
       id="linearGradient674"
       x1="0.68852460"
       y1="0.78625953"
       x2="0.37377051"
       y2="0.47328246"
       spreadMethod="reflect" />
  </defs>
  <sodipodi:namedview
     id="base"
     pagecolor="#ffffff"
     bordercolor="#666666"
     borderopacity="1.0"
     inkscape:pageopacity="0.0"
     inkscape:pageshadow="2"
     inkscape:zoom="5.1562500"
     inkscape:cx="64.000000"
     inkscape:cy="64.000000"
     inkscape:window-width="751"
     inkscape:window-height="909"
     showgrid="true"
     snaptogrid="true"
     gridspacingx="1.0000000mm"
     gridspacingy="1.0000000mm"
     inkscape:window-x="0"
     inkscape:window-y="31" />
  <rect
     style="fill:none;fill-rule:evenodd;stroke:#000000;stroke-width:11.250000;stroke-dasharray:none;stroke-opacity:0.50000000;stroke-linejoin:round;"
     id="rect834"
     width="128.25159"
     height="145.27559"
     x="17.024004"
     y="7.6377953"
     ry="22.892691" />
  <rect
     style="fill:#ffffff;fill-rule:evenodd;stroke:#000000;stroke-width:6.2500000;stroke-dasharray:none;"
     id="rect828"
     width="128.25158"
     height="145.27559"
     x="17.091653"
     y="7.6377954"
     ry="22.892691" />
  <g
     id="g938"
     transform="matrix(1.067168,0.000000,0.000000,1.067168,-5.384275,-1.472818)">
    <rect
       style="fill:#ffffff;fill-rule:evenodd;stroke:#000000;stroke-width:3.4922469;"
       id="rect830"
       width="79.987961"
       height="70.600235"
       x="41.156162"
       y="23.673359" />
    <rect
       style="fill:#b8baba;fill-rule:evenodd;stroke:#717373;stroke-width:0.45499301pt;"
       id="rect831"
       width="25.794879"
       height="11.285260"
       x="42.489932"
       y="24.866571" />
    <rect
       style="fill:#ffffff;fill-rule:evenodd;stroke-width:1.0000000pt;"
       id="rect837"
       width="25.110155"
       height="0.89646011"
       x="42.898913"
       y="25.173308" />
    <rect
       style="fill:#ffffff;fill-rule:evenodd;stroke-width:1.0000000pt;"
       id="rect838"
       width="10.182296"
       height="0.89646011"
       x="25.642673"
       y="-43.734993"
       transform="matrix(0.000000,1.000000,-1.000000,0.000000,0.000000,0.000000)" />
    <rect
       style="fill:#333333;fill-rule:evenodd;stroke-width:1.0000000pt;"
       id="rect839"
       width="24.292191"
       height="0.89646011"
       x="43.716878"
       y="34.886643" />
    <rect
       style="fill:#333333;fill-rule:evenodd;stroke-width:1.0000000pt;"
       id="rect840"
       width="8.8531003"
       height="0.89646011"
       x="26.153902"
       y="-67.967206"
       transform="matrix(0.000000,1.000000,-1.000000,0.000000,0.000000,0.000000)" />
    <rect
       style="fill:#b8baba;fill-rule:evenodd;stroke:#717373;stroke-width:0.45499301pt;"
       id="rect841"
       width="25.794879"
       height="11.285260"
       x="68.284811"
       y="24.866571" />
    <rect
       style="fill:#ffffff;fill-rule:evenodd;stroke-width:1.0000000pt;"
       id="rect842"
       width="25.110155"
       height="0.89646011"
       x="68.693792"
       y="25.173308" />
    <rect
       style="fill:#ffffff;fill-rule:evenodd;stroke-width:1.0000000pt;"
       id="rect843"
       width="10.182296"
       height="0.89646011"
       x="25.642673"
       y="-69.529870"
       transform="matrix(0.000000,1.000000,-1.000000,0.000000,0.000000,0.000000)" />
    <rect
       style="fill:#333333;fill-rule:evenodd;stroke-width:1.0000000pt;"
       id="rect844"
       width="24.292191"
       height="0.89646011"
       x="69.511757"
       y="34.886643" />
    <rect
       style="fill:#333333;fill-rule:evenodd;stroke-width:1.0000000pt;"
       id="rect845"
       width="8.8531003"
       height="0.89646011"
       x="26.153902"
       y="-93.762083"
       transform="matrix(0.000000,1.000000,-1.000000,0.000000,0.000000,0.000000)" />
    <rect
       style="fill:#b8baba;fill-rule:evenodd;stroke:#717373;stroke-width:0.45499301pt;"
       id="rect846"
       width="25.794879"
       height="11.285260"
       x="94.079688"
       y="24.866572" />
    <rect
       style="fill:#ffffff;fill-rule:evenodd;stroke-width:1.0000000pt;"
       id="rect847"
       width="25.110155"
       height="0.89646011"
       x="94.488672"
       y="25.173309" />
    <rect
       style="fill:#ffffff;fill-rule:evenodd;stroke-width:1.0000000pt;"
       id="rect848"
       width="10.182296"
       height="0.89646011"
       x="25.642674"
       y="-95.324747"
       transform="matrix(0.000000,1.000000,-1.000000,0.000000,0.000000,0.000000)" />
    <rect
       style="fill:#333333;fill-rule:evenodd;stroke-width:1.0000000pt;"
       id="rect849"
       width="24.292191"
       height="0.89646011"
       x="95.306634"
       y="34.886645" />
    <rect
       style="fill:#333333;fill-rule:evenodd;stroke-width:1.0000000pt;"
       id="rect850"
       width="8.8531003"
       height="0.89646011"
       x="26.153903"
       y="-119.55696"
       transform="matrix(0.000000,1.000000,-1.000000,0.000000,0.000000,0.000000)" />
    <rect
       style="fill:#b8baba;fill-rule:evenodd;stroke:#717373;stroke-width:0.45499301pt;"
       id="rect851"
       width="25.794879"
       height="11.285260"
       x="42.489931"
       y="58.722349" />
    <rect
       style="fill:#ffffff;fill-rule:evenodd;stroke-width:1.0000000pt;"
       id="rect852"
       width="25.110155"
       height="0.89646011"
       x="42.898915"
       y="59.029089" />
    <rect
       style="fill:#ffffff;fill-rule:evenodd;stroke-width:1.0000000pt;"
       id="rect853"
       width="10.182296"
       height="0.89646011"
       x="59.498454"
       y="-43.734982"
       transform="matrix(0.000000,1.000000,-1.000000,0.000000,0.000000,0.000000)" />
    <rect
       style="fill:#333333;fill-rule:evenodd;stroke-width:1.0000000pt;"
       id="rect854"
       width="24.292191"
       height="0.89646011"
       x="43.716869"
       y="68.742422" />
    <rect
       style="fill:#333333;fill-rule:evenodd;stroke-width:1.0000000pt;"
       id="rect855"
       width="8.8531003"
       height="0.89646011"
       x="60.009682"
       y="-67.967199"
       transform="matrix(0.000000,1.000000,-1.000000,0.000000,0.000000,0.000000)" />
    <rect
       style="fill:#b8baba;fill-rule:evenodd;stroke:#717373;stroke-width:0.45499301pt;"
       id="rect856"
       width="25.794879"
       height="11.285260"
       x="42.489932"
       y="36.151833" />
    <rect
       style="fill:#ffffff;fill-rule:evenodd;stroke-width:1.0000000pt;"
       id="rect857"
       width="25.110155"
       height="0.89646011"
       x="42.898913"
       y="36.458570" />
    <rect
       style="fill:#ffffff;fill-rule:evenodd;stroke-width:1.0000000pt;"
       id="rect858"
       width="10.182296"
       height="0.89646011"
       x="36.927934"
       y="-43.734993"
       transform="matrix(0.000000,1.000000,-1.000000,0.000000,0.000000,0.000000)" />
    <rect
       style="fill:#333333;fill-rule:evenodd;stroke-width:1.0000000pt;"
       id="rect859"
       width="24.292191"
       height="0.89646011"
       x="43.716878"
       y="46.171906" />
    <rect
       style="fill:#333333;fill-rule:evenodd;stroke-width:1.0000000pt;"
       id="rect860"
       width="8.8531003"
       height="0.89646011"
       x="37.439164"
       y="-67.967206"
       transform="matrix(0.000000,1.000000,-1.000000,0.000000,0.000000,0.000000)" />
    <rect
       style="fill:#b8baba;fill-rule:evenodd;stroke:#717373;stroke-width:0.45499301pt;"
       id="rect861"
       width="25.794879"
       height="11.285260"
       x="42.489933"
       y="47.437091" />
    <rect
       style="fill:#ffffff;fill-rule:evenodd;stroke-width:1.0000000pt;"
       id="rect862"
       width="25.110155"
       height="0.89646011"
       x="42.898913"
       y="47.743828" />
    <rect
       style="fill:#ffffff;fill-rule:evenodd;stroke-width:1.0000000pt;"
       id="rect863"
       width="10.182296"
       height="0.89646011"
       x="48.213192"
       y="-43.734991"
       transform="matrix(0.000000,1.000000,-1.000000,0.000000,0.000000,0.000000)" />
    <rect
       style="fill:#333333;fill-rule:evenodd;stroke-width:1.0000000pt;"
       id="rect864"
       width="24.292191"
       height="0.89646011"
       x="43.716878"
       y="57.457164" />
    <rect
       style="fill:#333333;fill-rule:evenodd;stroke-width:1.0000000pt;"
       id="rect865"
       width="8.8531003"
       height="0.89646011"
       x="48.724424"
       y="-67.967206"
       transform="matrix(0.000000,1.000000,-1.000000,0.000000,0.000000,0.000000)" />
    <rect
       style="fill:#b8baba;fill-rule:evenodd;stroke:#717373;stroke-width:0.45499301pt;"
       id="rect866"
       width="25.794879"
       height="11.285260"
       x="42.489933"
       y="70.007614" />
    <rect
       style="fill:#ffffff;fill-rule:evenodd;stroke-width:1.0000000pt;"
       id="rect867"
       width="25.110155"
       height="0.89646011"
       x="42.898917"
       y="70.314351" />
    <rect
       style="fill:#ffffff;fill-rule:evenodd;stroke-width:1.0000000pt;"
       id="rect868"
       width="10.182296"
       height="0.89646011"
       x="70.783711"
       y="-43.734983"
       transform="matrix(0.000000,1.000000,-1.000000,0.000000,0.000000,0.000000)" />
    <rect
       style="fill:#333333;fill-rule:evenodd;stroke-width:1.0000000pt;"
       id="rect869"
       width="24.292191"
       height="0.89646011"
       x="43.716871"
       y="80.027683" />
    <rect
       style="fill:#333333;fill-rule:evenodd;stroke-width:1.0000000pt;"
       id="rect870"
       width="8.8531003"
       height="0.89646011"
       x="71.294943"
       y="-67.967199"
       transform="matrix(0.000000,1.000000,-1.000000,0.000000,0.000000,0.000000)" />
    <rect
       style="fill:#b8baba;fill-rule:evenodd;stroke:#717373;stroke-width:0.45499301pt;"
       id="rect871"
       width="25.794879"
       height="11.285260"
       x="42.489933"
       y="81.292869" />
    <rect
       style="fill:#ffffff;fill-rule:evenodd;stroke-width:1.0000000pt;"
       id="rect872"
       width="25.110155"
       height="0.89646011"
       x="42.898917"
       y="81.599609" />
    <rect
       style="fill:#ffffff;fill-rule:evenodd;stroke-width:1.0000000pt;"
       id="rect873"
       width="10.182296"
       height="0.89646011"
       x="82.068966"
       y="-43.734983"
       transform="matrix(0.000000,1.000000,-1.000000,0.000000,0.000000,0.000000)" />
    <rect
       style="fill:#333333;fill-rule:evenodd;stroke-width:1.0000000pt;"
       id="rect874"
       width="24.292191"
       height="0.89646011"
       x="43.716871"
       y="91.312934" />
    <rect
       style="fill:#333333;fill-rule:evenodd;stroke-width:1.0000000pt;"
       id="rect875"
       width="8.8531003"
       height="0.89646011"
       x="82.580194"
       y="-67.967199"
       transform="matrix(0.000000,1.000000,-1.000000,0.000000,0.000000,0.000000)" />
    <rect
       style="fill:#ffffff;fill-rule:evenodd;stroke:#717373;stroke-width:0.45499301pt;"
       id="rect876"
       width="25.794879"
       height="11.285260"
       x="68.000441"
       y="36.436202" />
    <rect
       style="fill:#ffffff;fill-rule:evenodd;stroke:#717373;stroke-width:0.45499301pt;"
       id="rect877"
       width="25.794879"
       height="11.285260"
       x="93.795321"
       y="36.436202" />
    <rect
       style="fill:#ffffff;fill-rule:evenodd;stroke:#717373;stroke-width:0.45499301pt;"
       id="rect878"
       width="25.794879"
       height="11.285260"
       x="68.000441"
       y="47.721462" />
    <rect
       style="fill:#ffffff;fill-rule:evenodd;stroke:#717373;stroke-width:0.45499301pt;"
       id="rect879"
       width="25.794879"
       height="11.285260"
       x="93.795321"
       y="47.721462" />
    <rect
       style="fill:#ffffff;fill-rule:evenodd;stroke:#717373;stroke-width:0.45499301pt;"
       id="rect880"
       width="25.794879"
       height="11.285260"
       x="68.000441"
       y="59.006720" />
    <rect
       style="fill:#ffffff;fill-rule:evenodd;stroke:#717373;stroke-width:0.45499301pt;"
       id="rect881"
       width="25.794879"
       height="11.285260"
       x="93.795321"
       y="59.006720" />
    <rect
       style="fill:#ffffff;fill-rule:evenodd;stroke:#717373;stroke-width:0.45499301pt;"
       id="rect882"
       width="25.794879"
       height="11.285260"
       x="68.000441"
       y="70.291978" />
    <rect
       style="fill:#ffffff;fill-rule:evenodd;stroke:#717373;stroke-width:0.45499301pt;"
       id="rect883"
       width="25.794879"
       height="11.285260"
       x="93.795321"
       y="70.291978" />
    <rect
       style="fill:#ffffff;fill-rule:evenodd;stroke:#717373;stroke-width:0.45499301pt;"
       id="rect884"
       width="25.794879"
       height="11.285260"
       x="68.000441"
       y="81.577239" />
    <rect
       style="fill:#ffffff;fill-rule:evenodd;stroke:#717373;stroke-width:0.45499301pt;"
       id="rect885"
       width="25.794879"
       height="11.285260"
       x="93.795321"
       y="81.577239" />
  </g>
  <path
     transform="scale(0.842311,0.842311)"
     style="font-size:40.000000;stroke-width:1.0000000pt;font-family:Trek;"
     d="M 132.97552,164.92551 L 126.25552,164.92551 L 126.25552,133.80551 L 136.25552,133.80551 L 144.41552,157.84551 L 152.65552,133.80551 L 162.69552,133.80551 L 162.69552,164.92551 L 155.97552,164.92551 L 155.97552,141.68551 L 155.81552,141.68551 L 147.73552,164.92551 L 141.21552,164.92551 L 133.13552,141.68551 L 132.97552,141.68551 L 132.97552,164.92551 z M 94.535523,133.80551 L 101.25552,133.80551 L 101.25552,154.64551 C 101.25552,156.40551 101.89552,157.77884 103.17552,158.76551 C 104.45552,159.75217 106.18886,160.24551 108.37552,160.24551 C 110.50886,160.24551 112.24219,159.76551 113.57552,158.80551 C 114.93552,157.84551 115.61552,156.45884 115.61552,154.64551 L 115.61552,133.80551 L 122.33552,133.80551 L 122.33552,154.88551 C 122.33552,158.11217 121.01552,160.67217 118.37552,162.56551 C 115.73552,164.43217 112.40219,165.36551 108.37552,165.36551 C 104.32219,165.36551 101.02886,164.45884 98.495523,162.64551 C 95.855523,160.75217 94.535523,158.16551 94.535523,154.88551 L 94.535523,133.80551 z M 68.375523,164.92551 L 61.655523,164.92551 L 61.655523,133.80551 L 70.135523,133.80551 L 82.895523,156.60551 L 83.055523,156.60551 L 83.055523,133.80551 L 89.775523,133.80551 L 89.775523,164.92551 L 81.295523,164.92551 L 68.535523,142.16551 L 68.375523,142.16551 L 68.375523,164.92551 z M 41.735523,164.92551 C 37.522190,164.92551 34.282190,163.59217 32.015523,160.92551 C 29.775523,158.23217 28.655523,154.37884 28.655523,149.36551 C 28.655523,144.29884 29.775523,140.44551 32.015523,137.80551 C 34.255523,135.13884 37.495523,133.80551 41.735523,133.80551 L 58.495523,133.80551 L 58.495523,139.16551 L 43.735523,139.16551 C 41.175523,139.16551 39.255523,140.01884 37.975523,141.72551 C 36.695523,143.43217 36.055523,145.97884 36.055523,149.36551 C 36.055523,152.77884 36.655523,155.33884 37.855523,157.04551 C 39.055523,158.75217 41.015523,159.60551 43.735523,159.60551 L 51.855523,159.60551 L 51.855523,151.92551 L 43.095523,151.92551 L 43.095523,146.80551 L 58.495523,146.80551 L 58.495523,164.92551 L 41.735523,164.92551 z "
     id="path907" />
</svg>
