<?xml version="1.0" encoding="UTF-8" standalone="no"?>
<!DOCTYPE svg PUBLIC "-//W3C//DTD SVG 20010904//EN"
"http://www.w3.org/TR/2001/REC-SVG-20010904/DTD/svg10.dtd">
<!-- Created with Inkscape (http://www.inkscape.org/) -->
<svg
   id="svg1"
   sodipodi:version="0.32"
   inkscape:version="0.38.1"
   width="128.00000pt"
   height="128.00000pt"
   sodipodi:docbase="/usr/share/icons/Fuzzy/scalable/mimetypes"
   sodipodi:docname="gnome-mime-application-x-php.svg"
   xmlns="http://www.w3.org/2000/svg"
   xmlns:inkscape="http://www.inkscape.org/namespaces/inkscape"
   xmlns:sodipodi="http://sodipodi.sourceforge.net/DTD/sodipodi-0.dtd"
   xmlns:xlink="http://www.w3.org/1999/xlink">
  <defs
     id="defs3">
    <linearGradient
       id="linearGradient907">
      <stop
         style="stop-color:#eed680;stop-opacity:1.0000000;"
         offset="0.0000000"
         id="stop908" />
      <stop
         style="stop-color:#dfb546;stop-opacity:1.0000000;"
         offset="0.29427481"
         id="stop911" />
      <stop
         style="stop-color:#d1940c;stop-opacity:1.0000000;"
         offset="1.0000000"
         id="stop910" />
    </linearGradient>
    <linearGradient
       id="linearGradient869">
      <stop
         style="stop-color:#7590ae;stop-opacity:1.0000000;"
         offset="0.0000000"
         id="stop870" />
      <stop
         style="stop-color:#89a4c0;stop-opacity:1.0000000;"
         offset="0.87030536"
         id="stop912" />
      <stop
         style="stop-color:#9db8d2;stop-opacity:1.0000000;"
         offset="1.0000000"
         id="stop871" />
    </linearGradient>
    <linearGradient
       id="linearGradient866">
      <stop
         style="stop-color:#ffff00;stop-opacity:1.0000000;"
         offset="0.0000000"
         id="stop867" />
      <stop
         style="stop-color:#ffea00;stop-opacity:1.0000000;"
         offset="0.36908397"
         id="stop901" />
      <stop
         style="stop-color:#ffd600;stop-opacity:1.0000000;"
         offset="1.0000000"
         id="stop868" />
    </linearGradient>
    <linearGradient
       xlink:href="#linearGradient907"
       id="linearGradient904"
       x1="0.35737705"
       y1="0.49346405"
       x2="0.17377049"
       y2="0.29411766"
       spreadMethod="reflect" />
    <linearGradient
       id="linearGradient839">
      <stop
         style="stop-color:#46a046;stop-opacity:1.0000000;"
         offset="0.0000000"
         id="stop840" />
      <stop
         style="stop-color:#df421e;stop-opacity:1.0000000;"
         offset="0.39364964"
         id="stop841" />
      <stop
         style="stop-color:#ada7c8;stop-opacity:1.0000000;"
         offset="0.72036445"
         id="stop842" />
      <stop
         style="stop-color:#eed680;stop-opacity:1.0000000;"
         offset="1.0000000"
         id="stop843" />
    </linearGradient>
    <linearGradient
       xlink:href="#linearGradient839"
       id="linearGradient836"
       x1="1.3267924e-17"
       y1="0.50000000"
       x2="1.0000000"
       y2="0.50000000" />
    <linearGradient
       xlink:href="#linearGradient869"
       id="linearGradient674"
       x1="0.68852460"
       y1="0.78625953"
       x2="0.37377051"
       y2="0.47328246"
       spreadMethod="reflect" />
  </defs>
  <sodipodi:namedview
     id="base"
     pagecolor="#ffffff"
     bordercolor="#666666"
     borderopacity="1.0"
     inkscape:pageopacity="0.0"
     inkscape:pageshadow="2"
     inkscape:zoom="5.0234375"
     inkscape:cx="70.930611"
     inkscape:cy="66.696455"
     inkscape:window-width="751"
     inkscape:window-height="909"
     showgrid="true"
     snaptogrid="true"
     gridspacingx="1.0000000mm"
     gridspacingy="1.0000000mm"
     inkscape:window-x="11"
     inkscape:window-y="31" />
  <rect
     style="fill:none;fill-rule:evenodd;stroke:#000000;stroke-width:11.250000;stroke-dasharray:none;stroke-opacity:0.50000000;stroke-linejoin:round;"
     id="rect834"
     width="128.25159"
     height="145.27559"
     x="17.024004"
     y="7.6377953"
     ry="22.892691" />
  <rect
     style="fill:#ffffff;fill-rule:evenodd;stroke:#000000;stroke-width:6.2500000;stroke-dasharray:none;"
     id="rect828"
     width="128.25158"
     height="145.27559"
     x="17.091653"
     y="7.6377954"
     ry="22.892691" />
  <g
     id="g891"
     transform="matrix(0.425321,0.000000,0.000000,0.425321,29.11753,92.89133)">
    <path
       style="font-size:12.000000;fill:#efe0cd;fill-rule:evenodd;stroke:#000000;stroke-width:6.2500000;stroke-linecap:square;stroke-linejoin:bevel;"
       d="M 65.284900,7.3370508 L 62.813816,24.464219 L 37.037854,10.915862 L 42.022627,39.759376 L 13.136508,34.859813 L 26.727470,60.635775 L 9.6429068,63.106859 L 21.827907,74.951019 L 13.136508,79.254114 L 21.785302,83.514603 L 9.6429068,95.401369 L 26.770075,97.872453 L 13.221718,123.64841 L 42.107837,118.66364 L 37.165669,147.54976 L 62.899026,133.95880 L 65.412714,151.04336 L 77.214270,138.90097 L 81.517362,147.54976 L 85.820456,138.85836 L 97.664617,151.04336 L 100.13570,133.91619 L 125.95427,147.46455 L 120.96949,118.62104 L 149.81301,123.52060 L 136.26465,97.787243 L 153.34921,95.273554 L 141.16421,83.429394 L 149.81301,79.168904 L 141.16421,74.908415 L 153.34921,63.021649 L 136.22205,60.550565 L 149.77040,34.731999 L 120.88428,39.716771 L 125.82645,10.873257 L 100.09310,24.421614 L 97.579407,7.3370508 L 85.735247,19.522051 L 81.474757,10.873257 L 77.214270,19.522051 L 65.284900,7.3370508 z "
       id="path829"
       transform="translate(-8.177647e-6,-171.3337)" />
    <path
       sodipodi:type="arc"
       style="fill:#ffffff;fill-rule:evenodd;stroke:#000000;stroke-width:3.7500000;"
       id="path830"
       sodipodi:cx="83.267715"
       sodipodi:cy="74.960632"
       sodipodi:rx="26.574802"
       sodipodi:ry="28.346457"
       d="M 109.84252 74.960632 A 26.574802 28.346457 0 1 0 56.692913,74.960632 A 26.574802 28.346457 0 1 0 109.84252 74.960632 z"
       transform="matrix(1.363357,0.000000,0.000000,1.363357,-32.97844,-194.4756)" />
  </g>
  <g
     id="g855"
     transform="matrix(0.425321,0.000000,0.000000,0.425321,64.94957,104.3377)">
    <path
       style="font-size:12.000000;fill:#efe0cd;fill-rule:evenodd;stroke:#000000;stroke-width:6.2500000;stroke-linecap:square;stroke-linejoin:bevel;"
       d="M 65.284900,7.3370508 L 62.813816,24.464219 L 37.037854,10.915862 L 42.022627,39.759376 L 13.136508,34.859813 L 26.727470,60.635775 L 9.6429068,63.106859 L 21.827907,74.951019 L 13.136508,79.254114 L 21.785302,83.514603 L 9.6429068,95.401369 L 26.770075,97.872453 L 13.221718,123.64841 L 42.107837,118.66364 L 37.165669,147.54976 L 62.899026,133.95880 L 65.412714,151.04336 L 77.214270,138.90097 L 81.517362,147.54976 L 85.820456,138.85836 L 97.664617,151.04336 L 100.13570,133.91619 L 125.95427,147.46455 L 120.96949,118.62104 L 149.81301,123.52060 L 136.26465,97.787243 L 153.34921,95.273554 L 141.16421,83.429394 L 149.81301,79.168904 L 141.16421,74.908415 L 153.34921,63.021649 L 136.22205,60.550565 L 149.77040,34.731999 L 120.88428,39.716771 L 125.82645,10.873257 L 100.09310,24.421614 L 97.579407,7.3370508 L 85.735247,19.522051 L 81.474757,10.873257 L 77.214270,19.522051 L 65.284900,7.3370508 z "
       id="path856"
       transform="translate(-8.177647e-6,-171.3337)" />
    <path
       sodipodi:type="arc"
       style="fill:#ffffff;fill-rule:evenodd;stroke:#000000;stroke-width:3.7500000;"
       id="path857"
       sodipodi:cx="83.267715"
       sodipodi:cy="74.960632"
       sodipodi:rx="26.574802"
       sodipodi:ry="28.346457"
       d="M 109.84252 74.960632 A 26.574802 28.346457 0 1 0 56.692913,74.960632 A 26.574802 28.346457 0 1 0 109.84252 74.960632 z"
       transform="matrix(1.363357,0.000000,0.000000,1.363357,-32.97844,-194.4756)" />
  </g>
  <path
     transform="scale(0.880061,0.880061)"
     style="font-size:40.000000;stroke-width:1.0000000pt;font-family:Trek;"
     d="M 117.10954,146.65222 L 117.10954,157.77222 L 110.38954,157.77222 L 110.38954,126.65222 L 129.06954,126.65222 C 131.94954,126.65222 134.22954,127.50555 135.90954,129.21222 C 137.58954,130.89222 138.42954,133.37222 138.42954,136.65222 C 138.42954,139.90555 137.58954,142.38555 135.90954,144.09222 C 134.22954,145.79888 131.94954,146.65222 129.06954,146.65222 L 117.10954,146.65222 z M 117.10954,132.01222 L 117.10954,141.33222 L 126.02954,141.33222 C 127.49621,141.33222 128.69621,140.95888 129.62954,140.21222 C 130.56287,139.43888 131.02954,138.25222 131.02954,136.65222 C 131.02954,135.07888 130.56287,133.91888 129.62954,133.17222 C 128.72287,132.39888 127.52287,132.01222 126.02954,132.01222 L 117.10954,132.01222 z M 79.589541,157.77222 L 79.589541,126.65222 L 86.309541,126.65222 L 86.309541,139.65222 L 98.989541,139.65222 L 98.989541,126.65222 L 105.62954,126.65222 L 105.62954,157.77222 L 98.989541,157.77222 L 98.989541,144.77222 L 86.309541,144.77222 L 86.309541,157.77222 L 79.589541,157.77222 z M 55.069541,146.65222 L 55.069541,157.77222 L 48.349541,157.77222 L 48.349541,126.65222 L 67.029541,126.65222 C 69.909541,126.65222 72.189541,127.50555 73.869541,129.21222 C 75.549541,130.89222 76.389541,133.37222 76.389541,136.65222 C 76.389541,139.90555 75.549541,142.38555 73.869541,144.09222 C 72.189541,145.79888 69.909541,146.65222 67.029541,146.65222 L 55.069541,146.65222 z M 55.069541,132.01222 L 55.069541,141.33222 L 63.989541,141.33222 C 65.456207,141.33222 66.656207,140.95888 67.589541,140.21222 C 68.522874,139.43888 68.989541,138.25222 68.989541,136.65222 C 68.989541,135.07888 68.522874,133.91888 67.589541,133.17222 C 66.682874,132.39888 65.482874,132.01222 63.989541,132.01222 L 55.069541,132.01222 z "
     id="path865" />
</svg>
