<?xml version="1.0" encoding="UTF-8" standalone="no"?>
<!DOCTYPE svg PUBLIC "-//W3C//DTD SVG 20010904//EN"
"http://www.w3.org/TR/2001/REC-SVG-20010904/DTD/svg10.dtd">
<!-- Created with Inkscape (http://www.inkscape.org/) -->
<svg
   id="svg1"
   sodipodi:version="0.32"
   inkscape:version="0.38.1"
   width="128.00000pt"
   height="128.00000pt"
   sodipodi:docbase="/usr/share/icons/Fuzzy/scalable/mimetypes"
   sodipodi:docname="gnome-mime-application-x-font-bdf.svg"
   xmlns="http://www.w3.org/2000/svg"
   xmlns:inkscape="http://www.inkscape.org/namespaces/inkscape"
   xmlns:sodipodi="http://sodipodi.sourceforge.net/DTD/sodipodi-0.dtd"
   xmlns:xlink="http://www.w3.org/1999/xlink">
  <defs
     id="defs3">
    <linearGradient
       id="linearGradient839">
      <stop
         style="stop-color:#46a046;stop-opacity:1.0000000;"
         offset="0.0000000"
         id="stop840" />
      <stop
         style="stop-color:#df421e;stop-opacity:1.0000000;"
         offset="0.39364964"
         id="stop841" />
      <stop
         style="stop-color:#ada7c8;stop-opacity:1.0000000;"
         offset="0.72036445"
         id="stop842" />
      <stop
         style="stop-color:#eed680;stop-opacity:1.0000000;"
         offset="1.0000000"
         id="stop843" />
    </linearGradient>
    <linearGradient
       xlink:href="#linearGradient839"
       id="linearGradient836"
       x1="1.3267924e-17"
       y1="0.50000000"
       x2="1.0000000"
       y2="0.50000000" />
  </defs>
  <sodipodi:namedview
     id="base"
     pagecolor="#ffffff"
     bordercolor="#666666"
     borderopacity="1.0"
     inkscape:pageopacity="0.0"
     inkscape:pageshadow="2"
     inkscape:zoom="5.0234375"
     inkscape:cx="72.028518"
     inkscape:cy="71.340591"
     inkscape:window-width="751"
     inkscape:window-height="909"
     showgrid="true"
     snaptogrid="true"
     gridspacingx="1.0000000mm"
     gridspacingy="1.0000000mm"
     inkscape:window-x="0"
     inkscape:window-y="31" />
  <rect
     style="fill:none;fill-rule:evenodd;stroke:#000000;stroke-width:11.250000;stroke-dasharray:none;stroke-opacity:0.50000000;stroke-linejoin:round;"
     id="rect834"
     width="128.25159"
     height="145.27559"
     x="17.024004"
     y="7.6377968"
     ry="22.892691" />
  <rect
     style="fill:#ffffff;fill-rule:evenodd;stroke:#000000;stroke-width:6.2500000;stroke-dasharray:none;"
     id="rect828"
     width="128.25158"
     height="145.27559"
     x="17.091653"
     y="7.6377954"
     ry="22.892691" />
  <rect
     style="fill:#ffffff;fill-rule:evenodd;stroke:#000000;stroke-width:5.5853095;"
     id="rect849"
     width="92.758515"
     height="69.498535"
     ry="11.146752"
     x="35.344905"
     y="24.536432" />
  <path
     style="font-size:40.000000;stroke-width:1.0000000pt;font-family:Trek;"
     d="M 47.029549,63.307622 L 59.231391,34.800015 L 65.497202,34.800015 L 77.699044,63.307622 L 71.176738,63.307622 L 68.355291,56.382252 L 56.446586,56.382252 L 53.588497,63.307622 L 47.029549,63.307622 z M 62.382618,41.762027 L 58.205410,51.911908 L 66.523183,51.911908 L 62.382618,41.762027 z "
     id="path896" />
  <path
     style="font-size:40.000000;stroke-width:1.0000000pt;font-family:Trek;"
     d="M 79.625684,84.734454 L 79.625684,56.226847 L 84.975440,56.226847 L 84.975440,64.361409 L 91.461102,64.361409 C 94.539054,64.361409 96.981860,65.240821 98.789546,66.999645 C 99.595674,67.830201 100.23080,68.905037 100.69494,70.224156 C 101.18350,71.518846 101.42778,72.960104 101.42778,74.547931 C 101.42778,77.870155 100.57279,80.398465 98.862830,82.132860 C 97.177291,83.867257 94.710044,84.734454 91.461102,84.734454 L 79.625684,84.734454 z M 84.975440,80.447320 L 90.618332,80.447320 C 92.132881,80.447320 93.354284,79.922116 94.282558,78.871707 C 95.235255,77.821299 95.711603,76.380040 95.711603,74.547931 C 95.711603,72.740251 95.259677,71.311207 94.355843,70.260798 C 93.476431,69.185961 92.230588,68.648542 90.618332,68.648542 L 84.975440,68.648542 L 84.975440,80.447320 z "
     id="path897" />
  <path
     style="font-size:40.000000;stroke-width:1.0000000pt;font-family:Trek;"
     d="M 112.19876,34.572070 L 112.19876,39.482121 L 101.64582,39.482121 C 99.300723,39.482121 97.541898,40.263820 96.369345,41.827220 C 95.196796,43.390618 94.610521,45.723503 94.610521,48.825874 C 94.610521,51.952672 95.160154,54.297771 96.259419,55.861170 C 97.358688,57.424569 99.154154,58.206269 101.64582,58.206269 L 112.19876,58.206269 L 112.19876,63.079677 L 99.813713,63.079677 C 95.954068,63.079677 92.986052,61.858271 90.909662,59.415461 C 88.857701,56.948221 87.831720,53.418359 87.831720,48.825874 C 87.831720,44.184532 88.857701,40.654670 90.909662,38.236287 C 92.961624,35.793476 95.929639,34.572070 99.813713,34.572070 L 112.19876,34.572070 z "
     id="path843" />
  <path
     style="font-size:40.000000;stroke-width:1.0000000pt;font-family:Trek;"
     d="M 126.45854,112.59149 L 116.45854,112.59149 C 114.91187,112.59149 113.67187,112.76482 112.73854,113.11149 C 112.28520,113.24482 111.88520,113.40482 111.53854,113.59149 C 111.19187,113.77815 110.85854,114.04482 110.53854,114.39149 C 109.65854,115.19149 109.01854,116.17815 108.61854,117.35149 L 108.37854,118.31149 L 108.29854,119.39149 L 108.29854,120.23149 L 126.45854,120.23149 L 126.45854,125.35149 L 108.29854,125.35149 L 108.29854,138.35149 L 101.57854,138.35149 L 101.57854,122.79149 C 101.57854,121.43149 101.61854,120.24482 101.69854,119.23149 C 101.77854,118.19149 101.91187,117.28482 102.09854,116.51149 C 102.65854,113.95149 103.83187,111.85815 105.61854,110.23149 C 106.73854,109.19149 108.09854,108.43149 109.69854,107.95149 C 111.29854,107.47149 113.32520,107.23149 115.77854,107.23149 L 126.45854,107.23149 L 126.45854,112.59149 z M 69.018537,107.23149 L 85.538537,107.23149 C 89.725204,107.23149 92.911870,108.56482 95.098537,111.23149 C 97.285204,113.89815 98.378537,117.75149 98.378537,122.79149 C 98.378537,127.77815 97.285204,131.61815 95.098537,134.31149 C 92.938537,137.00482 89.751870,138.35149 85.538537,138.35149 L 69.018537,138.35149 L 69.018537,107.23149 z M 75.498537,133.03149 L 83.378537,133.03149 C 85.991870,133.03149 87.925204,132.19149 89.178537,130.51149 C 90.431870,128.80482 91.058537,126.23149 91.058537,122.79149 C 91.058537,119.35149 90.458537,116.79149 89.258537,115.11149 C 88.085204,113.43149 86.125204,112.59149 83.378537,112.59149 L 75.498537,112.59149 L 75.498537,133.03149 z M 36.578537,138.35149 L 36.578537,107.23149 L 55.858537,107.23149 C 58.418537,107.23149 60.565204,107.88482 62.298537,109.19149 C 64.271870,110.63149 65.258537,112.55149 65.258537,114.95149 C 65.258537,116.71149 64.845204,118.29815 64.018537,119.71149 C 63.618537,120.35149 63.138537,120.91149 62.578537,121.39149 C 62.018537,121.84482 61.271870,122.31149 60.338537,122.79149 C 61.938537,123.37815 63.218537,124.32482 64.178537,125.63149 C 65.138537,126.93815 65.618537,128.44482 65.618537,130.15149 C 65.618537,133.11149 64.618537,135.27149 62.618537,136.63149 C 60.991870,137.77815 58.738537,138.35149 55.858537,138.35149 L 36.578537,138.35149 z M 53.778537,120.23149 C 55.245204,120.23149 56.365204,119.88482 57.138537,119.19149 C 57.911870,118.49815 58.298537,117.53815 58.298537,116.31149 C 58.298537,113.67149 56.791870,112.35149 53.778537,112.35149 L 43.298537,112.35149 L 43.298537,120.23149 L 53.778537,120.23149 z M 53.778537,133.23149 C 55.245204,133.23149 56.365204,132.88482 57.138537,132.19149 C 57.911870,131.49815 58.298537,130.53815 58.298537,129.31149 C 58.298537,126.67149 56.791870,125.35149 53.778537,125.35149 L 43.298537,125.35149 L 43.298537,133.23149 L 53.778537,133.23149 z "
     id="path847" />
</svg>
