<?xml version="1.0" encoding="UTF-8" standalone="no"?>
<!DOCTYPE svg PUBLIC "-//W3C//DTD SVG 20010904//EN"
"http://www.w3.org/TR/2001/REC-SVG-20010904/DTD/svg10.dtd">
<!-- Created with Inkscape (http://www.inkscape.org/) -->
<svg
   id="svg1"
   sodipodi:version="0.32"
   inkscape:version="0.38.1"
   width="128.00000pt"
   height="128.00000pt"
   sodipodi:docbase="/usr/share/icons/Fuzzy/scalable/mimetypes"
   sodipodi:docname="gnome-mime-application-x-glade.svg"
   xmlns="http://www.w3.org/2000/svg"
   xmlns:inkscape="http://www.inkscape.org/namespaces/inkscape"
   xmlns:sodipodi="http://sodipodi.sourceforge.net/DTD/sodipodi-0.dtd"
   xmlns:xlink="http://www.w3.org/1999/xlink">
  <defs
     id="defs3">
    <linearGradient
       id="linearGradient907">
      <stop
         style="stop-color:#eed680;stop-opacity:1.0000000;"
         offset="0.0000000"
         id="stop908" />
      <stop
         style="stop-color:#dfb546;stop-opacity:1.0000000;"
         offset="0.29427481"
         id="stop911" />
      <stop
         style="stop-color:#d1940c;stop-opacity:1.0000000;"
         offset="1.0000000"
         id="stop910" />
    </linearGradient>
    <linearGradient
       id="linearGradient869">
      <stop
         style="stop-color:#7590ae;stop-opacity:1.0000000;"
         offset="0.0000000"
         id="stop870" />
      <stop
         style="stop-color:#89a4c0;stop-opacity:1.0000000;"
         offset="0.87030536"
         id="stop912" />
      <stop
         style="stop-color:#9db8d2;stop-opacity:1.0000000;"
         offset="1.0000000"
         id="stop871" />
    </linearGradient>
    <linearGradient
       id="linearGradient866">
      <stop
         style="stop-color:#ffff00;stop-opacity:1.0000000;"
         offset="0.0000000"
         id="stop867" />
      <stop
         style="stop-color:#ffea00;stop-opacity:1.0000000;"
         offset="0.36908397"
         id="stop901" />
      <stop
         style="stop-color:#ffd600;stop-opacity:1.0000000;"
         offset="1.0000000"
         id="stop868" />
    </linearGradient>
    <linearGradient
       xlink:href="#linearGradient907"
       id="linearGradient904"
       x1="0.35737705"
       y1="0.49346405"
       x2="0.17377049"
       y2="0.29411766"
       spreadMethod="reflect" />
    <linearGradient
       id="linearGradient839">
      <stop
         style="stop-color:#46a046;stop-opacity:1.0000000;"
         offset="0.0000000"
         id="stop840" />
      <stop
         style="stop-color:#df421e;stop-opacity:1.0000000;"
         offset="0.39364964"
         id="stop841" />
      <stop
         style="stop-color:#ada7c8;stop-opacity:1.0000000;"
         offset="0.72036445"
         id="stop842" />
      <stop
         style="stop-color:#eed680;stop-opacity:1.0000000;"
         offset="1.0000000"
         id="stop843" />
    </linearGradient>
    <linearGradient
       xlink:href="#linearGradient839"
       id="linearGradient836"
       x1="1.3267924e-17"
       y1="0.50000000"
       x2="1.0000000"
       y2="0.50000000" />
    <linearGradient
       xlink:href="#linearGradient869"
       id="linearGradient674"
       x1="0.68852460"
       y1="0.78625953"
       x2="0.37377051"
       y2="0.47328246"
       spreadMethod="reflect" />
  </defs>
  <sodipodi:namedview
     id="base"
     pagecolor="#ffffff"
     bordercolor="#666666"
     borderopacity="1.0"
     inkscape:pageopacity="0.0"
     inkscape:pageshadow="2"
     inkscape:zoom="5.0234375"
     inkscape:cx="70.930611"
     inkscape:cy="66.696455"
     inkscape:window-width="751"
     inkscape:window-height="909"
     showgrid="true"
     snaptogrid="true"
     gridspacingx="1.0000000mm"
     gridspacingy="1.0000000mm"
     inkscape:window-x="0"
     inkscape:window-y="31" />
  <rect
     style="fill:none;fill-rule:evenodd;stroke:#000000;stroke-width:11.250000;stroke-dasharray:none;stroke-opacity:0.50000000;stroke-linejoin:round;"
     id="rect834"
     width="128.25159"
     height="145.27559"
     x="17.024004"
     y="7.6377953"
     ry="22.892691" />
  <rect
     style="fill:#ffffff;fill-rule:evenodd;stroke:#000000;stroke-width:6.2500000;stroke-dasharray:none;"
     id="rect828"
     width="128.25158"
     height="145.27559"
     x="17.091653"
     y="7.6377954"
     ry="22.892691" />
  <g
     id="g891"
     transform="matrix(0.425321,0.000000,0.000000,0.425321,29.11753,92.89133)">
    <path
       style="font-size:12.000000;fill:#efe0cd;fill-rule:evenodd;stroke:#000000;stroke-width:6.2500000;stroke-linecap:square;stroke-linejoin:bevel;"
       d="M 65.284900,7.3370508 L 62.813816,24.464219 L 37.037854,10.915862 L 42.022627,39.759376 L 13.136508,34.859813 L 26.727470,60.635775 L 9.6429068,63.106859 L 21.827907,74.951019 L 13.136508,79.254114 L 21.785302,83.514603 L 9.6429068,95.401369 L 26.770075,97.872453 L 13.221718,123.64841 L 42.107837,118.66364 L 37.165669,147.54976 L 62.899026,133.95880 L 65.412714,151.04336 L 77.214270,138.90097 L 81.517362,147.54976 L 85.820456,138.85836 L 97.664617,151.04336 L 100.13570,133.91619 L 125.95427,147.46455 L 120.96949,118.62104 L 149.81301,123.52060 L 136.26465,97.787243 L 153.34921,95.273554 L 141.16421,83.429394 L 149.81301,79.168904 L 141.16421,74.908415 L 153.34921,63.021649 L 136.22205,60.550565 L 149.77040,34.731999 L 120.88428,39.716771 L 125.82645,10.873257 L 100.09310,24.421614 L 97.579407,7.3370508 L 85.735247,19.522051 L 81.474757,10.873257 L 77.214270,19.522051 L 65.284900,7.3370508 z "
       id="path829"
       transform="translate(-8.177647e-6,-171.3337)" />
    <path
       sodipodi:type="arc"
       style="fill:#ffffff;fill-rule:evenodd;stroke:#000000;stroke-width:3.7500000;"
       id="path830"
       sodipodi:cx="83.267715"
       sodipodi:cy="74.960632"
       sodipodi:rx="26.574802"
       sodipodi:ry="28.346457"
       d="M 109.84252 74.960632 A 26.574802 28.346457 0 1 0 56.692913,74.960632 A 26.574802 28.346457 0 1 0 109.84252 74.960632 z"
       transform="matrix(1.363357,0.000000,0.000000,1.363357,-32.97844,-194.4756)" />
  </g>
  <g
     id="g894"
     transform="matrix(0.705225,0.000000,0.000000,0.705225,39.94138,37.48818)">
    <path
       style="font-size:12.000000;fill:#a20000;fill-rule:evenodd;stroke:#000000;stroke-width:2.3794308;"
       d="M 68.425631,79.003240 L 137.45003,122.18780 L 147.03332,108.05910 L 78.009046,64.874350 L 54.392526,60.161220 L 68.425631,79.003240 z "
       id="path572"
       sodipodi:nodetypes="cccccc"
       transform="translate(-18.95784,-35.73654)" />
    <path
       style="font-size:12.000000;fill-rule:evenodd;stroke:#000000;stroke-width:2.3794308;"
       d="M 65.193339,72.987410 L 65.193339,72.987410 L 70.943353,64.510080 L 70.943353,64.510080 L 53.949764,59.915540 L 65.193339,72.987410 z "
       id="path573"
       sodipodi:nodetypes="cccccc"
       transform="translate(-18.95784,-35.73654)" />
    <path
       style="fill:#ffffff;fill-opacity:0.69230771;fill-rule:evenodd;stroke-width:1.0000000pt;"
       d="M 76.964061,66.206896 L 144.29327,108.28111 L 141.83749,112.33103 L 75.122229,70.481817 L 76.964061,66.206896 z "
       id="path837"
       transform="translate(-18.95784,-35.73654)" />
    <path
       style="fill:#4e4e4a;fill-opacity:0.31538460;fill-rule:evenodd;stroke-width:1.0000000pt;"
       d="M 71.971478,74.151724 L 139.49528,116.02463 L 137.03240,120.05517 L 70.124321,78.406190 L 71.971478,74.151724 z "
       id="path838"
       transform="translate(-18.95784,-35.73654)" />
  </g>
  <path
     transform="scale(0.742213,0.742213)"
     style="font-size:40.000000;stroke-width:1.0000000pt;font-family:Trek;"
     d="M 184.13159,174.43739 L 165.85159,174.43739 L 165.85159,174.63739 L 166.33159,177.07739 C 166.73159,178.35739 167.41159,179.50406 168.37159,180.51739 C 168.58492,180.67739 168.78492,180.81073 168.97159,180.91739 C 169.31825,181.13073 169.79825,181.38406 170.41159,181.67739 L 171.69159,181.99739 L 173.41159,182.11739 L 184.13159,182.11739 L 184.13159,187.43739 L 171.53159,187.43739 C 167.31825,187.43739 164.07825,186.10406 161.81159,183.43739 C 159.57159,180.74406 158.45159,176.89073 158.45159,171.87739 C 158.45159,166.81073 159.57159,162.95739 161.81159,160.31739 C 164.05159,157.65073 167.29159,156.31739 171.53159,156.31739 L 184.13159,156.31739 L 184.13159,161.67739 L 173.41159,161.67739 L 172.65159,161.67739 L 171.89159,161.75739 C 171.35825,161.75739 170.79825,161.89073 170.21159,162.15739 C 169.65159,162.42406 169.03825,162.79739 168.37159,163.27739 C 167.73159,163.91739 167.17159,164.75739 166.69159,165.79739 C 166.39825,166.49073 166.11825,167.59739 165.85159,169.11739 L 165.85159,169.31739 L 184.13159,169.31739 L 184.13159,174.43739 z M 125.89159,156.31739 L 142.41159,156.31739 C 146.59825,156.31739 149.78492,157.65073 151.97159,160.31739 C 154.15825,162.98406 155.25159,166.83739 155.25159,171.87739 C 155.25159,176.86406 154.15825,180.70406 151.97159,183.39739 C 149.81159,186.09073 146.62492,187.43739 142.41159,187.43739 L 125.89159,187.43739 L 125.89159,156.31739 z M 132.37159,182.11739 L 140.25159,182.11739 C 142.86492,182.11739 144.79825,181.27739 146.05159,179.59739 C 147.30492,177.89073 147.93159,175.31739 147.93159,171.87739 C 147.93159,168.43739 147.33159,165.87739 146.13159,164.19739 C 144.95825,162.51739 142.99825,161.67739 140.25159,161.67739 L 132.37159,161.67739 L 132.37159,182.11739 z M 90.531588,187.43739 L 103.85159,156.31739 L 110.69159,156.31739 L 124.01159,187.43739 L 116.89159,187.43739 L 113.81159,179.87739 L 100.81159,179.87739 L 97.691588,187.43739 L 90.531588,187.43739 z M 107.29159,163.91739 L 102.73159,174.99739 L 111.81159,174.99739 L 107.29159,163.91739 z M 77.931588,187.43739 C 76.358255,187.43739 74.918255,187.22406 73.611588,186.79739 C 72.304921,186.34406 71.184921,185.70406 70.251588,184.87739 C 69.771588,184.45073 69.304921,183.91739 68.851588,183.27739 C 68.638255,182.98406 68.464921,182.71739 68.331588,182.47739 C 68.198255,182.21073 68.024921,181.79739 67.811588,181.23739 C 67.278255,179.77073 67.011588,178.07739 67.011588,176.15739 L 67.011588,156.31739 L 73.731588,156.31739 L 73.731588,175.71739 C 73.731588,176.75739 73.851588,177.63739 74.091588,178.35739 C 74.358255,179.07739 74.811588,179.77073 75.451588,180.43739 C 76.064921,180.99739 76.771588,181.42406 77.571588,181.71739 C 78.371588,181.98406 79.238255,182.11739 80.171588,182.11739 L 88.891588,182.11739 L 88.891588,187.43739 L 77.931588,187.43739 z M 47.051588,187.43739 C 42.838255,187.43739 39.598255,186.10406 37.331588,183.43739 C 35.091588,180.74406 33.971588,176.89073 33.971588,171.87739 C 33.971588,166.81073 35.091588,162.95739 37.331588,160.31739 C 39.571588,157.65073 42.811588,156.31739 47.051588,156.31739 L 63.811588,156.31739 L 63.811588,161.67739 L 49.051588,161.67739 C 46.491588,161.67739 44.571588,162.53073 43.291588,164.23739 C 42.011588,165.94406 41.371588,168.49073 41.371588,171.87739 C 41.371588,175.29073 41.971588,177.85073 43.171588,179.55739 C 44.371588,181.26406 46.331588,182.11739 49.051588,182.11739 L 57.171588,182.11739 L 57.171588,174.43739 L 48.411588,174.43739 L 48.411588,169.31739 L 63.811588,169.31739 L 63.811588,187.43739 L 47.051588,187.43739 z "
     id="path902" />
</svg>
