<?xml version="1.0" encoding="UTF-8" standalone="no"?>
<!DOCTYPE svg PUBLIC "-//W3C//DTD SVG 20010904//EN"
"http://www.w3.org/TR/2001/REC-SVG-20010904/DTD/svg10.dtd">
<!-- Created with Inkscape (http://www.inkscape.org/) -->
<svg
   id="svg1"
   sodipodi:version="0.32"
   inkscape:version="0.38.1"
   width="128.00000pt"
   height="128.00000pt"
   sodipodi:docbase="/usr/share/icons/Fuzzy/scalable/mimetypes"
   sodipodi:docname="gnome-mime-audio-x-s3m.svg"
   xmlns="http://www.w3.org/2000/svg"
   xmlns:inkscape="http://www.inkscape.org/namespaces/inkscape"
   xmlns:sodipodi="http://sodipodi.sourceforge.net/DTD/sodipodi-0.dtd"
   xmlns:xlink="http://www.w3.org/1999/xlink">
  <defs
     id="defs3">
    <linearGradient
       id="linearGradient839">
      <stop
         style="stop-color:#46a046;stop-opacity:1.0000000;"
         offset="0.0000000"
         id="stop840" />
      <stop
         style="stop-color:#df421e;stop-opacity:1.0000000;"
         offset="0.39364964"
         id="stop841" />
      <stop
         style="stop-color:#ada7c8;stop-opacity:1.0000000;"
         offset="0.72036445"
         id="stop842" />
      <stop
         style="stop-color:#eed680;stop-opacity:1.0000000;"
         offset="1.0000000"
         id="stop843" />
    </linearGradient>
    <linearGradient
       xlink:href="#linearGradient839"
       id="linearGradient836"
       x1="1.3267924e-17"
       y1="0.50000000"
       x2="1.0000000"
       y2="0.50000000" />
  </defs>
  <sodipodi:namedview
     id="base"
     pagecolor="#ffffff"
     bordercolor="#666666"
     borderopacity="1.0"
     inkscape:pageopacity="0.0"
     inkscape:pageshadow="2"
     inkscape:zoom="5.0234375"
     inkscape:cx="66.459321"
     inkscape:cy="64.000000"
     inkscape:window-width="751"
     inkscape:window-height="909"
     showgrid="true"
     snaptogrid="true"
     gridspacingx="1.0000000mm"
     gridspacingy="1.0000000mm"
     inkscape:window-x="0"
     inkscape:window-y="31" />
  <rect
     style="fill:none;fill-rule:evenodd;stroke:#000000;stroke-width:11.250000;stroke-dasharray:none;stroke-opacity:0.50000000;stroke-linejoin:round;"
     id="rect834"
     width="128.25159"
     height="145.27559"
     x="17.024004"
     y="7.6377968"
     ry="22.892691" />
  <rect
     style="fill:#ffffff;fill-rule:evenodd;stroke:#000000;stroke-width:6.2500000;stroke-dasharray:none;"
     id="rect828"
     width="128.25158"
     height="145.27559"
     x="17.091653"
     y="7.6377954"
     ry="22.892691" />
  <path
     style="fill:#4b6983;fill-rule:evenodd;stroke:#000000;stroke-width:1.5059674;stroke-linejoin:round;"
     d="M 89.725711,30.433362 L 74.778985,94.455805 L 104.65881,79.520341 C 107.41966,77.077142 110.92444,76.441725 112.63525,70.717991 C 114.25030,65.314633 113.28001,62.195194 111.06214,58.175920 L 111.06214,58.175920 L 89.725711,30.433362 z "
     id="path831"
     sodipodi:nodetypes="ccccccc" />
  <path
     sodipodi:type="arc"
     style="fill-rule:evenodd;stroke:#000000;stroke-width:5.0000000;fill:#9db8d2;fill-opacity:1.0000000;stroke-dasharray:none;"
     id="path825"
     sodipodi:cx="100.98425"
     sodipodi:cy="78.503937"
     sodipodi:rx="44.291340"
     sodipodi:ry="70.866142"
     d="M 145.27559 78.503937 A 44.291340 70.866142 0 1 0 56.692913,78.503937 A 44.291340 70.866142 0 1 0 145.27559 78.503937 z"
     transform="matrix(0.477735,0.122682,-0.122682,0.477735,35.52938,11.17656)" />
  <path
     sodipodi:type="arc"
     style="fill-rule:evenodd;stroke:#000000;stroke-width:2.2747321;stroke-dasharray:none;fill:#7590ae;fill-opacity:1.0000000;"
     id="path826"
     sodipodi:cx="102.75591"
     sodipodi:cy="85.590553"
     sodipodi:rx="28.346457"
     sodipodi:ry="56.692913"
     d="M 131.10237 85.590553 A 28.346457 56.692913 0 1 0 74.409456,85.590553 A 28.346457 56.692913 0 1 0 131.10237 85.590553 z"
     transform="matrix(0.575251,0.147724,-0.135083,0.526023,24.05911,0.197551)" />
  <path
     sodipodi:type="arc"
     style="fill-rule:evenodd;stroke:#000000;stroke-width:1.0000000pt;fill:#314e6c;fill-opacity:1.0000000;"
     id="path827"
     sodipodi:cx="33.661419"
     sodipodi:cy="51.929134"
     sodipodi:rx="12.401575"
     sodipodi:ry="19.488190"
     d="M 46.062994 51.929134 A 12.401575 19.488190 0 1 0 21.259844,51.929134 A 12.401575 19.488190 0 1 0 46.062994 51.929134 z"
     transform="matrix(0.477735,0.122682,-0.140577,0.547423,70.71934,29.45280)" />
  <path
     style="font-size:40.000000;stroke-width:1.0000000pt;font-family:Trek;"
     d="M 101.79303,138.84915 L 95.073033,138.84915 L 95.073033,107.72915 L 105.07303,107.72915 L 113.23303,131.76915 L 121.47303,107.72915 L 131.51303,107.72915 L 131.51303,138.84915 L 124.79303,138.84915 L 124.79303,115.60915 L 124.63303,115.60915 L 116.55303,138.84915 L 110.03303,138.84915 L 101.95303,115.60915 L 101.79303,115.60915 L 101.79303,138.84915 z M 87.633033,123.56915 C 88.886366,124.18248 89.819700,124.88915 90.433033,125.68915 C 91.579700,127.07582 92.153033,128.70248 92.153033,130.56915 C 92.153033,133.31582 91.059700,135.48915 88.873033,137.08915 C 88.046366,137.67582 87.126366,138.11582 86.113033,138.40915 C 85.126366,138.70248 84.099700,138.84915 83.033033,138.84915 L 65.513033,138.84915 L 65.513033,133.52915 L 80.793033,133.52915 C 82.019700,133.52915 82.979700,133.23582 83.673033,132.64915 C 84.553033,132.00915 84.993033,131.02248 84.993033,129.68915 C 84.993033,128.40915 84.593033,127.44915 83.793033,126.80915 C 82.993033,126.16915 81.993033,125.84915 80.793033,125.84915 L 69.033033,125.84915 L 69.033033,120.72915 L 80.793033,120.72915 C 81.993033,120.72915 82.953033,120.44915 83.673033,119.88915 C 84.553033,119.24915 84.993033,118.24915 84.993033,116.88915 C 84.993033,115.68915 84.593033,114.75582 83.793033,114.08915 C 82.993033,113.42248 81.993033,113.08915 80.793033,113.08915 L 65.513033,113.08915 L 65.513033,107.72915 L 83.033033,107.72915 C 85.193033,107.72915 87.139700,108.30248 88.873033,109.44915 C 91.059700,110.99582 92.153033,113.18248 92.153033,116.00915 C 92.153033,117.84915 91.579700,119.46248 90.433033,120.84915 C 89.793033,121.64915 88.859700,122.36915 87.633033,123.00915 L 87.113033,123.28915 L 87.633033,123.56915 z M 60.673033,107.72915 L 60.673033,113.08915 L 43.473033,113.08915 C 42.379700,113.08915 41.393033,113.40915 40.513033,114.04915 C 39.766366,114.71582 39.393033,115.63582 39.393033,116.80915 C 39.393033,118.08915 39.806366,119.04915 40.633033,119.68915 C 41.353033,120.24915 42.339700,120.52915 43.593033,120.52915 L 53.273033,120.52915 C 55.433033,120.52915 57.379700,121.14248 59.113033,122.36915 C 61.299700,123.99582 62.393033,126.43582 62.393033,129.68915 C 62.393033,132.78248 61.299700,135.20915 59.113033,136.96915 C 57.406366,138.22248 55.459700,138.84915 53.273033,138.84915 L 32.673033,138.84915 L 32.673033,133.52915 L 50.273033,133.52915 C 51.286366,133.52915 52.219700,133.16915 53.073033,132.44915 C 53.926366,131.72915 54.353033,130.80915 54.353033,129.68915 C 54.353033,128.54248 53.926366,127.62248 53.073033,126.92915 C 52.273033,126.20915 51.299700,125.84915 50.153033,125.84915 L 40.393033,125.84915 C 38.233033,125.84915 36.313033,125.24915 34.633033,124.04915 C 32.446366,122.42248 31.353033,120.00915 31.353033,116.80915 C 31.353033,113.60915 32.446366,111.19582 34.633033,109.56915 C 36.259700,108.34248 38.179700,107.72915 40.393033,107.72915 L 60.673033,107.72915 z "
     id="path855" />
</svg>
