<?xml version="1.0" encoding="UTF-8" standalone="no"?>
<!DOCTYPE svg PUBLIC "-//W3C//DTD SVG 20010904//EN"
"http://www.w3.org/TR/2001/REC-SVG-20010904/DTD/svg10.dtd">
<!-- Created with Inkscape (http://www.inkscape.org/) -->
<svg
   id="svg1"
   sodipodi:version="0.32"
   inkscape:version="0.38.1"
   width="128.00000pt"
   height="128.00000pt"
   sodipodi:docbase="/usr/share/icons/Fuzzy/scalable/mimetypes"
   sodipodi:docname="gnome-mime-application-pdf.svg"
   xmlns="http://www.w3.org/2000/svg"
   xmlns:inkscape="http://www.inkscape.org/namespaces/inkscape"
   xmlns:sodipodi="http://sodipodi.sourceforge.net/DTD/sodipodi-0.dtd"
   xmlns:xlink="http://www.w3.org/1999/xlink">
  <defs
     id="defs3">
    <linearGradient
       id="linearGradient839">
      <stop
         style="stop-color:#46a046;stop-opacity:1.0000000;"
         offset="0.0000000"
         id="stop840" />
      <stop
         style="stop-color:#df421e;stop-opacity:1.0000000;"
         offset="0.39364964"
         id="stop841" />
      <stop
         style="stop-color:#ada7c8;stop-opacity:1.0000000;"
         offset="0.72036445"
         id="stop842" />
      <stop
         style="stop-color:#eed680;stop-opacity:1.0000000;"
         offset="1.0000000"
         id="stop843" />
    </linearGradient>
    <linearGradient
       xlink:href="#linearGradient839"
       id="linearGradient836"
       x1="1.3267924e-17"
       y1="0.50000000"
       x2="1.0000000"
       y2="0.50000000" />
  </defs>
  <sodipodi:namedview
     id="base"
     pagecolor="#ffffff"
     bordercolor="#666666"
     borderopacity="1.0"
     inkscape:pageopacity="0.0"
     inkscape:pageshadow="2"
     inkscape:zoom="5.0234375"
     inkscape:cx="64.634902"
     inkscape:cy="70.370140"
     inkscape:window-width="751"
     inkscape:window-height="909"
     showgrid="true"
     snaptogrid="false"
     gridspacingx="1.0000000mm"
     gridspacingy="1.0000000mm"
     inkscape:window-x="0"
     inkscape:window-y="31" />
  <rect
     style="fill:none;fill-rule:evenodd;stroke:#000000;stroke-width:11.250000;stroke-dasharray:none;stroke-opacity:0.50000000;stroke-linejoin:round;"
     id="rect834"
     width="128.25159"
     height="145.27559"
     x="17.242798"
     y="7.7354556"
     ry="22.892691" />
  <rect
     style="fill:#ffffff;fill-rule:evenodd;stroke:#000000;stroke-width:6.2500000;stroke-dasharray:none;"
     id="rect828"
     width="128.25158"
     height="145.27559"
     x="17.091653"
     y="7.6377954"
     ry="22.892691" />
  <path
     style="fill:#ffffff;fill-rule:evenodd;stroke:#df421e;stroke-width:5.9288116;"
     d="M 80.593275,24.819490 C 96.829313,24.957082 61.742958,102.42224 48.396386,92.102731 C 36.838527,76.417063 122.42170,60.181029 114.99165,70.225356 C 99.856368,87.699734 70.273755,24.819490 80.593275,24.819490 z "
     id="path847"
     sodipodi:nodetypes="cccc" />
  <path
     style="font-size:40.000000;stroke-width:1.0000000pt;font-family:Trek;"
     d="M 125.99621,113.33798 L 115.99621,113.33798 C 114.44954,113.33798 113.20954,113.51131 112.27621,113.85798 C 111.82287,113.99131 111.42287,114.15131 111.07621,114.33798 C 110.72954,114.52464 110.39621,114.79131 110.07621,115.13798 C 109.19621,115.93798 108.55621,116.92464 108.15621,118.09798 L 107.91621,119.05798 L 107.83621,120.13798 L 107.83621,120.97798 L 125.99621,120.97798 L 125.99621,126.09798 L 107.83621,126.09798 L 107.83621,139.09798 L 101.11621,139.09798 L 101.11621,123.53798 C 101.11621,122.17798 101.15621,120.99131 101.23621,119.97798 C 101.31621,118.93798 101.44954,118.03131 101.63621,117.25798 C 102.19621,114.69798 103.36954,112.60464 105.15621,110.97798 C 106.27621,109.93798 107.63621,109.17798 109.23621,108.69798 C 110.83621,108.21798 112.86287,107.97798 115.31621,107.97798 L 125.99621,107.97798 L 125.99621,113.33798 z M 68.556206,107.97798 L 85.076206,107.97798 C 89.262873,107.97798 92.449540,109.31131 94.636206,111.97798 C 96.822873,114.64464 97.916206,118.49798 97.916206,123.53798 C 97.916206,128.52464 96.822873,132.36464 94.636206,135.05798 C 92.476206,137.75131 89.289540,139.09798 85.076206,139.09798 L 68.556206,139.09798 L 68.556206,107.97798 z M 75.036206,133.77798 L 82.916206,133.77798 C 85.529540,133.77798 87.462873,132.93798 88.716206,131.25798 C 89.969540,129.55131 90.596206,126.97798 90.596206,123.53798 C 90.596206,120.09798 89.996206,117.53798 88.796206,115.85798 C 87.622873,114.17798 85.662873,113.33798 82.916206,113.33798 L 75.036206,113.33798 L 75.036206,133.77798 z M 43.796206,127.97798 L 43.796206,139.09798 L 37.076206,139.09798 L 37.076206,107.97798 L 55.756206,107.97798 C 58.636206,107.97798 60.916206,108.83131 62.596206,110.53798 C 64.276206,112.21798 65.116206,114.69798 65.116206,117.97798 C 65.116206,121.23131 64.276206,123.71131 62.596206,125.41798 C 60.916206,127.12464 58.636206,127.97798 55.756206,127.97798 L 43.796206,127.97798 z M 43.796206,113.33798 L 43.796206,122.65798 L 52.716206,122.65798 C 54.182873,122.65798 55.382873,122.28464 56.316206,121.53798 C 57.249540,120.76464 57.716206,119.57798 57.716206,117.97798 C 57.716206,116.40464 57.249540,115.24464 56.316206,114.49798 C 55.409540,113.72464 54.209540,113.33798 52.716206,113.33798 L 43.796206,113.33798 z "
     id="path836" />
</svg>
