<?xml version="1.0" encoding="UTF-8" standalone="no"?>
<!DOCTYPE svg PUBLIC "-//W3C//DTD SVG 20010904//EN"
"http://www.w3.org/TR/2001/REC-SVG-20010904/DTD/svg10.dtd">
<!-- Created with Inkscape (http://www.inkscape.org/) -->
<svg
   id="svg1"
   sodipodi:version="0.32"
   inkscape:version="0.38.1"
   width="128.00000pt"
   height="128.00000pt"
   sodipodi:docbase="/usr/share/icons/Fuzzy/scalable/mimetypes"
   sodipodi:docname="gnome-mime-image-x-xpixmap.svg"
   xmlns="http://www.w3.org/2000/svg"
   xmlns:inkscape="http://www.inkscape.org/namespaces/inkscape"
   xmlns:sodipodi="http://sodipodi.sourceforge.net/DTD/sodipodi-0.dtd"
   xmlns:xlink="http://www.w3.org/1999/xlink">
  <defs
     id="defs3">
    <linearGradient
       id="linearGradient839">
      <stop
         style="stop-color:#46a046;stop-opacity:1.0000000;"
         offset="0.0000000"
         id="stop840" />
      <stop
         style="stop-color:#df421e;stop-opacity:1.0000000;"
         offset="0.39364964"
         id="stop841" />
      <stop
         style="stop-color:#ada7c8;stop-opacity:1.0000000;"
         offset="0.72036445"
         id="stop842" />
      <stop
         style="stop-color:#eed680;stop-opacity:1.0000000;"
         offset="1.0000000"
         id="stop843" />
    </linearGradient>
    <linearGradient
       id="linearGradient833">
      <stop
         style="stop-color:#00ff00;stop-opacity:1.0000000;"
         offset="0.0000000"
         id="stop834" />
      <stop
         style="stop-color:#ff0000;stop-opacity:1.0000000;"
         offset="0.30839416"
         id="stop837" />
      <stop
         style="stop-color:#7f8cff;stop-opacity:1.0000000;"
         offset="0.75000000"
         id="stop838" />
      <stop
         style="stop-color:#ffff00;stop-opacity:1.0000000;"
         offset="1.0000000"
         id="stop835" />
    </linearGradient>
    <linearGradient
       xlink:href="#linearGradient839"
       id="linearGradient836"
       x1="1.3267924e-17"
       y1="0.50000000"
       x2="1.0000000"
       y2="0.50000000" />
  </defs>
  <sodipodi:namedview
     id="base"
     pagecolor="#ffffff"
     bordercolor="#666666"
     borderopacity="1.0"
     inkscape:pageopacity="0.0"
     inkscape:pageshadow="2"
     inkscape:zoom="5.0234375"
     inkscape:cx="70.541588"
     inkscape:cy="64.000000"
     inkscape:window-width="751"
     inkscape:window-height="909"
     showgrid="true"
     snaptogrid="true"
     gridspacingx="1.0000000mm"
     gridspacingy="1.0000000mm"
     inkscape:window-x="0"
     inkscape:window-y="31" />
  <rect
     style="fill:none;fill-rule:evenodd;stroke:#000000;stroke-width:11.250000;stroke-dasharray:none;stroke-opacity:0.50000000;stroke-linejoin:round;"
     id="rect834"
     width="128.25159"
     height="145.27559"
     x="17.024004"
     y="7.6377953"
     ry="22.892691" />
  <rect
     style="fill:#ffffff;fill-rule:evenodd;stroke:#000000;stroke-width:6.2500000;stroke-dasharray:none;"
     id="rect828"
     width="128.25158"
     height="145.27559"
     x="17.091653"
     y="7.6377954"
     ry="22.892691" />
  <rect
     style="fill:url(#linearGradient836);fill-rule:evenodd;stroke:#000000;stroke-width:3.4436574;"
     id="rect832"
     width="125.93480"
     height="67.172065"
     ry="1.2896985"
     x="18.276772"
     y="28.497944" />
  <path
     style="font-size:40.000000;stroke-width:1.0000000pt;font-family:Trek;"
     d="M 101.25953,138.84915 L 94.539533,138.84915 L 94.539533,107.72915 L 104.53953,107.72915 L 112.69953,131.76915 L 120.93953,107.72915 L 130.97953,107.72915 L 130.97953,138.84915 L 124.25953,138.84915 L 124.25953,115.60915 L 124.09953,115.60915 L 116.01953,138.84915 L 109.49953,138.84915 L 101.41953,115.60915 L 101.25953,115.60915 L 101.25953,138.84915 z M 70.019533,127.72915 L 70.019533,138.84915 L 63.299533,138.84915 L 63.299533,107.72915 L 81.979533,107.72915 C 84.859533,107.72915 87.139533,108.58248 88.819533,110.28915 C 90.499533,111.96915 91.339533,114.44915 91.339533,117.72915 C 91.339533,120.98248 90.499533,123.46248 88.819533,125.16915 C 87.139533,126.87582 84.859533,127.72915 81.979533,127.72915 L 70.019533,127.72915 z M 70.019533,113.08915 L 70.019533,122.40915 L 78.939533,122.40915 C 80.406200,122.40915 81.606200,122.03582 82.539533,121.28915 C 83.472866,120.51582 83.939533,119.32915 83.939533,117.72915 C 83.939533,116.15582 83.472866,114.99582 82.539533,114.24915 C 81.632866,113.47582 80.432866,113.08915 78.939533,113.08915 L 70.019533,113.08915 z M 32.099533,107.72915 L 40.019533,107.72915 L 46.939533,118.44915 L 53.739533,107.72915 L 61.659533,107.72915 L 50.259533,123.28915 L 61.659533,138.84915 L 53.739533,138.84915 L 46.939533,128.12915 L 40.019533,138.84915 L 32.099533,138.84915 L 43.499533,123.28915 L 32.099533,107.72915 z "
     id="path846" />
</svg>
