<?xml version="1.0" encoding="UTF-8" standalone="no"?>
<!DOCTYPE svg PUBLIC "-//W3C//DTD SVG 20010904//EN"
"http://www.w3.org/TR/2001/REC-SVG-20010904/DTD/svg10.dtd">
<!-- Created with Inkscape (http://www.inkscape.org/) -->
<svg
   id="svg1"
   sodipodi:version="0.32"
   inkscape:version="0.38.1"
   width="128.00000pt"
   height="128.00000pt"
   sodipodi:docbase="/usr/share/icons/Fuzzy/scalable/mimetypes"
   sodipodi:docname="gnome-mime-application-x-reject.svg"
   xmlns="http://www.w3.org/2000/svg"
   xmlns:inkscape="http://www.inkscape.org/namespaces/inkscape"
   xmlns:sodipodi="http://sodipodi.sourceforge.net/DTD/sodipodi-0.dtd"
   xmlns:xlink="http://www.w3.org/1999/xlink">
  <defs
     id="defs3">
    <linearGradient
       id="linearGradient839">
      <stop
         style="stop-color:#46a046;stop-opacity:1.0000000;"
         offset="0.0000000"
         id="stop840" />
      <stop
         style="stop-color:#df421e;stop-opacity:1.0000000;"
         offset="0.39364964"
         id="stop841" />
      <stop
         style="stop-color:#ada7c8;stop-opacity:1.0000000;"
         offset="0.72036445"
         id="stop842" />
      <stop
         style="stop-color:#eed680;stop-opacity:1.0000000;"
         offset="1.0000000"
         id="stop843" />
    </linearGradient>
    <linearGradient
       xlink:href="#linearGradient839"
       id="linearGradient836"
       x1="1.3267924e-17"
       y1="0.50000000"
       x2="1.0000000"
       y2="0.50000000" />
  </defs>
  <sodipodi:namedview
     id="base"
     pagecolor="#ffffff"
     bordercolor="#666666"
     borderopacity="1.0"
     inkscape:pageopacity="0.0"
     inkscape:pageshadow="2"
     inkscape:zoom="5.0234375"
     inkscape:cx="67.172529"
     inkscape:cy="70.370140"
     inkscape:window-width="751"
     inkscape:window-height="909"
     showgrid="true"
     snaptogrid="true"
     gridspacingx="1.0000000mm"
     gridspacingy="1.0000000mm"
     inkscape:window-x="0"
     inkscape:window-y="31" />
  <rect
     style="fill:none;fill-rule:evenodd;stroke:#000000;stroke-width:11.250000;stroke-dasharray:none;stroke-opacity:0.50000000;stroke-linejoin:round;"
     id="rect834"
     width="128.25159"
     height="145.27559"
     x="17.024004"
     y="7.6377968"
     ry="22.892691" />
  <rect
     style="fill:#ffffff;fill-rule:evenodd;stroke:#000000;stroke-width:6.2500000;stroke-dasharray:none;"
     id="rect828"
     width="128.25158"
     height="145.27559"
     x="17.091653"
     y="7.6377954"
     ry="22.892691" />
  <path
     style="fill:#df421e;fill-rule:evenodd;stroke:#df421e;stroke-width:5.4111900;"
     d="M 112.18094,32.930561 C 112.12892,30.618690 111.20000,28.346153 109.42271,26.666382 C 105.86813,23.306839 100.27287,23.611187 96.877733,27.337544 L 79.613862,46.284965 L 62.050898,27.217079 C 58.635853,23.510288 53.130781,23.338013 49.705314,26.838475 C 46.279852,30.338935 46.273653,36.141902 49.688698,39.848693 L 67.683674,59.381229 L 49.589004,79.240748 C 46.193864,82.967103 46.316897,88.667691 49.871472,92.027230 C 53.426055,95.386778 59.021308,95.099641 62.416447,91.373283 L 79.696942,72.408657 L 97.259896,91.476540 C 100.67495,95.183331 106.18002,95.355610 109.60549,91.855150 C 113.03096,88.354682 113.03715,82.551713 109.62210,78.844933 L 91.627125,59.312392 L 109.72179,39.470089 C 111.41937,37.606910 112.23297,35.242431 112.18094,32.930561 z "
     id="path855" />
  <path
     style="font-size:40.000000;stroke-width:1.0000000pt;font-family:Trek;"
     d="M 100.95988,138.60033 L 100.95988,133.28033 L 109.67988,133.28033 C 110.71988,133.28033 111.58654,133.14699 112.27988,132.88033 C 112.62654,132.77366 112.97321,132.61366 113.31988,132.40033 L 113.87988,132.00033 L 114.43988,131.48033 L 115.23988,130.56033 L 115.79988,129.48033 C 115.90654,129.08033 115.99988,128.65366 116.07988,128.20033 C 116.15988,127.74699 116.19988,127.30699 116.19988,126.88033 L 116.19988,107.48033 L 122.83988,107.48033 L 122.83988,127.32033 C 122.83988,129.21366 122.58654,130.90699 122.07988,132.40033 C 121.57321,133.86699 120.78654,135.05366 119.71988,135.96033 C 118.78654,136.78699 117.66654,137.45366 116.35988,137.96033 L 114.31988,138.44033 L 111.99988,138.60033 L 100.95988,138.60033 z M 97.759875,125.60033 L 79.479875,125.60033 L 79.479875,125.80033 L 79.959875,128.24033 C 80.359875,129.52033 81.039875,130.66699 81.999875,131.68033 C 82.213209,131.84033 82.413209,131.97366 82.599875,132.08033 C 82.946542,132.29366 83.426542,132.54699 84.039875,132.84033 L 85.319875,133.16033 L 87.039875,133.28033 L 97.759875,133.28033 L 97.759875,138.60033 L 85.159875,138.60033 C 80.946542,138.60033 77.706542,137.26699 75.439875,134.60033 C 73.199875,131.90699 72.079875,128.05366 72.079875,123.04033 C 72.079875,117.97366 73.199875,114.12033 75.439875,111.48033 C 77.679875,108.81366 80.919875,107.48033 85.159875,107.48033 L 97.759875,107.48033 L 97.759875,112.84033 L 87.039875,112.84033 L 86.279875,112.84033 L 85.519875,112.92033 C 84.986542,112.92033 84.426542,113.05366 83.839875,113.32033 C 83.279875,113.58699 82.666542,113.96033 81.999875,114.44033 C 81.359875,115.08033 80.799875,115.92033 80.319875,116.96033 C 80.026542,117.65366 79.746542,118.76033 79.479875,120.28033 L 79.479875,120.48033 L 97.759875,120.48033 L 97.759875,125.60033 z M 54.439875,126.36033 L 47.279875,126.36033 L 47.279875,138.60033 L 40.559875,138.60033 L 40.559875,107.48033 L 58.599875,107.48033 C 61.586542,107.48033 63.866542,108.21366 65.439875,109.68033 C 67.173209,111.28033 68.039875,113.69366 68.039875,116.92033 C 68.039875,118.17366 67.933209,119.26699 67.719875,120.20033 C 67.506542,121.10699 67.146542,121.94699 66.639875,122.72033 C 65.733209,124.13366 64.266542,125.20033 62.239875,125.92033 L 62.079875,125.96033 L 68.879875,138.60033 L 60.959875,138.60033 L 54.439875,126.36033 z M 47.279875,112.84033 L 47.279875,121.48033 L 55.119875,121.48033 C 56.666542,121.48033 57.826542,121.18699 58.599875,120.60033 C 59.586542,119.93366 60.079875,118.78699 60.079875,117.16033 C 60.079875,115.64033 59.613209,114.54699 58.679875,113.88033 C 57.773209,113.18699 56.586542,112.84033 55.119875,112.84033 L 47.279875,112.84033 z "
     id="path872" />
</svg>
