<?xml version="1.0" encoding="UTF-8" standalone="no"?>
<!DOCTYPE svg PUBLIC "-//W3C//DTD SVG 20010904//EN"
"http://www.w3.org/TR/2001/REC-SVG-20010904/DTD/svg10.dtd">
<!-- Created with Inkscape (http://www.inkscape.org/) -->
<svg
   id="svg1"
   sodipodi:version="0.32"
   inkscape:version="0.38.1"
   width="128.00000pt"
   height="128.00000pt"
   sodipodi:docbase="/usr/share/icons/Fuzzy/scalable/mimetypes"
   sodipodi:docname="gnome-mime-application-rhythmbox-playlist.svg"
   xmlns="http://www.w3.org/2000/svg"
   xmlns:inkscape="http://www.inkscape.org/namespaces/inkscape"
   xmlns:sodipodi="http://sodipodi.sourceforge.net/DTD/sodipodi-0.dtd"
   xmlns:xlink="http://www.w3.org/1999/xlink">
  <defs
     id="defs3">
    <linearGradient
       id="linearGradient839">
      <stop
         style="stop-color:#46a046;stop-opacity:1.0000000;"
         offset="0.0000000"
         id="stop840" />
      <stop
         style="stop-color:#df421e;stop-opacity:1.0000000;"
         offset="0.39364964"
         id="stop841" />
      <stop
         style="stop-color:#ada7c8;stop-opacity:1.0000000;"
         offset="0.72036445"
         id="stop842" />
      <stop
         style="stop-color:#eed680;stop-opacity:1.0000000;"
         offset="1.0000000"
         id="stop843" />
    </linearGradient>
    <linearGradient
       xlink:href="#linearGradient839"
       id="linearGradient836"
       x1="1.3267924e-17"
       y1="0.50000000"
       x2="1.0000000"
       y2="0.50000000" />
  </defs>
  <sodipodi:namedview
     id="base"
     pagecolor="#ffffff"
     bordercolor="#666666"
     borderopacity="1.0"
     inkscape:pageopacity="0.0"
     inkscape:pageshadow="2"
     inkscape:zoom="5.0234375"
     inkscape:cx="64.523264"
     inkscape:cy="67.583204"
     inkscape:window-width="751"
     inkscape:window-height="909"
     showgrid="true"
     snaptogrid="false"
     gridspacingx="1.0000000mm"
     gridspacingy="1.0000000mm"
     inkscape:window-x="0"
     inkscape:window-y="31" />
  <rect
     style="fill:none;fill-rule:evenodd;stroke:#000000;stroke-width:11.250000;stroke-dasharray:none;stroke-opacity:0.50000000;stroke-linejoin:round;"
     id="rect834"
     width="128.25159"
     height="145.27559"
     x="17.242792"
     y="7.4866238"
     ry="22.892691" />
  <rect
     style="fill:#ffffff;fill-rule:evenodd;stroke:#000000;stroke-width:6.2500000;stroke-dasharray:none;"
     id="rect828"
     width="128.25158"
     height="145.27559"
     x="17.091653"
     y="7.6377954"
     ry="22.892691" />
  <path
     style="fill:#4b6983;fill-rule:evenodd;stroke:#000000;stroke-width:1.5059674;stroke-linejoin:round;"
     d="M 106.89523,30.184529 L 91.948503,94.206972 L 121.82833,79.271508 C 124.58918,76.828309 128.09396,76.192892 129.80477,70.469158 C 131.41982,65.065800 130.44953,61.946361 128.23166,57.927087 L 128.23166,57.927087 L 106.89523,30.184529 z "
     id="path831"
     sodipodi:nodetypes="ccccccc" />
  <path
     sodipodi:type="arc"
     style="fill-rule:evenodd;stroke:#000000;stroke-width:5.0000000;fill:#9db8d2;fill-opacity:1.0000000;stroke-dasharray:none;"
     id="path825"
     sodipodi:cx="100.98425"
     sodipodi:cy="78.503937"
     sodipodi:rx="44.291340"
     sodipodi:ry="70.866142"
     d="M 145.27559 78.503937 A 44.291340 70.866142 0 1 0 56.692913,78.503937 A 44.291340 70.866142 0 1 0 145.27559 78.503937 z"
     transform="matrix(0.477735,0.122682,-0.122682,0.477735,52.69889,10.92773)" />
  <path
     sodipodi:type="arc"
     style="fill-rule:evenodd;stroke:#000000;stroke-width:2.2747321;stroke-dasharray:none;fill:#7590ae;fill-opacity:1.0000000;"
     id="path826"
     sodipodi:cx="102.75591"
     sodipodi:cy="85.590553"
     sodipodi:rx="28.346457"
     sodipodi:ry="56.692913"
     d="M 131.10237 85.590553 A 28.346457 56.692913 0 1 0 74.409456,85.590553 A 28.346457 56.692913 0 1 0 131.10237 85.590553 z"
     transform="matrix(0.575251,0.147724,-0.135083,0.526023,41.22863,-5.128211e-2)" />
  <path
     sodipodi:type="arc"
     style="fill-rule:evenodd;stroke:#000000;stroke-width:1.0000000pt;fill:#314e6c;fill-opacity:1.0000000;"
     id="path827"
     sodipodi:cx="33.661419"
     sodipodi:cy="51.929134"
     sodipodi:rx="12.401575"
     sodipodi:ry="19.488190"
     d="M 46.062994 51.929134 A 12.401575 19.488190 0 1 0 21.259844,51.929134 A 12.401575 19.488190 0 1 0 46.062994 51.929134 z"
     transform="matrix(0.477735,0.122682,-0.140577,0.547423,87.88885,29.20396)" />
  <path
     style="fill:url(#linearGradient838);fill-rule:evenodd;stroke:#000000;stroke-width:2.5000000;stroke-dasharray:none;stroke-linejoin:round;"
     d="M 120.20594,30.834473 L 112.78142,38.142589 L 114.01177,46.675688 L 122.66665,47.900672 L 130.09118,40.592556 C 130.09118,40.592556 137.50510,47.911117 128.84316,56.437252 C 118.94379,66.181407 112.76729,57.644826 109.05679,58.861105 L 79.358689,88.093572 C 76.885613,88.091835 75.648194,89.309851 73.176885,86.870329 C 70.705576,84.430811 71.942994,83.212786 71.944762,80.775009 L 101.64286,51.542542 C 102.88205,47.886743 94.230701,41.786201 104.13007,32.042046 C 112.79201,23.515910 120.20594,30.834473 120.20594,30.834473 z "
     id="path834"
     sodipodi:nodetypes="ccccccccccccc"
     transform="matrix(-1.000000,0.000000,0.000000,1.000000,165.4470,1.990681)" />
  <path
     style="fill:#eed680;fill-rule:evenodd;stroke:#000000;stroke-width:2.5000000;fill-opacity:1.0000000;stroke-dasharray:none;stroke-linejoin:round;"
     d="M 105.83368,64.730259 L 79.847843,90.308668 C 78.612188,89.088906 74.901694,90.305186 72.430384,87.865664 C 69.959075,85.426145 71.198261,81.770343 69.962606,80.550586 L 95.948444,54.972174 C 98.419754,57.411695 103.36237,62.290737 105.83368,64.730259 z "
     id="path830"
     sodipodi:nodetypes="cccccc"
     transform="matrix(-1.000000,0.000000,0.000000,1.000000,165.4470,1.990681)" />
  <path
     style="font-size:40.000000;stroke-width:1.0000000pt;font-family:Trek;"
     d="M 106.27204,127.97798 L 106.27204,139.09798 L 99.552039,139.09798 L 99.552039,107.97798 L 118.23204,107.97798 C 121.11204,107.97798 123.39204,108.83131 125.07204,110.53798 C 126.75204,112.21798 127.59204,114.69798 127.59204,117.97798 C 127.59204,121.23131 126.75204,123.71131 125.07204,125.41798 C 123.39204,127.12464 121.11204,127.97798 118.23204,127.97798 L 106.27204,127.97798 z M 106.27204,113.33798 L 106.27204,122.65798 L 115.19204,122.65798 C 116.65871,122.65798 117.85871,122.28464 118.79204,121.53798 C 119.72537,120.76464 120.19204,119.57798 120.19204,117.97798 C 120.19204,116.40464 119.72537,115.24464 118.79204,114.49798 C 117.88537,113.72464 116.68537,113.33798 115.19204,113.33798 L 106.27204,113.33798 z M 67.352039,139.09798 L 67.352039,107.97798 L 86.632039,107.97798 C 89.192039,107.97798 91.338706,108.63131 93.072039,109.93798 C 95.045372,111.37798 96.032039,113.29798 96.032039,115.69798 C 96.032039,117.45798 95.618706,119.04464 94.792039,120.45798 C 94.392039,121.09798 93.912039,121.65798 93.352039,122.13798 C 92.792039,122.59131 92.045372,123.05798 91.112039,123.53798 C 92.712039,124.12464 93.992039,125.07131 94.952039,126.37798 C 95.912039,127.68464 96.392039,129.19131 96.392039,130.89798 C 96.392039,133.85798 95.392039,136.01798 93.392039,137.37798 C 91.765372,138.52464 89.512039,139.09798 86.632039,139.09798 L 67.352039,139.09798 z M 84.552039,120.97798 C 86.018706,120.97798 87.138706,120.63131 87.912039,119.93798 C 88.685372,119.24464 89.072039,118.28464 89.072039,117.05798 C 89.072039,114.41798 87.565372,113.09798 84.552039,113.09798 L 74.072039,113.09798 L 74.072039,120.97798 L 84.552039,120.97798 z M 84.552039,133.97798 C 86.018706,133.97798 87.138706,133.63131 87.912039,132.93798 C 88.685372,132.24464 89.072039,131.28464 89.072039,130.05798 C 89.072039,127.41798 87.565372,126.09798 84.552039,126.09798 L 74.072039,126.09798 L 74.072039,133.97798 L 84.552039,133.97798 z M 49.712039,126.85798 L 42.552039,126.85798 L 42.552039,139.09798 L 35.832039,139.09798 L 35.832039,107.97798 L 53.872039,107.97798 C 56.858706,107.97798 59.138706,108.71131 60.712039,110.17798 C 62.445372,111.77798 63.312039,114.19131 63.312039,117.41798 C 63.312039,118.67131 63.205372,119.76464 62.992039,120.69798 C 62.778706,121.60464 62.418706,122.44464 61.912039,123.21798 C 61.005372,124.63131 59.538706,125.69798 57.512039,126.41798 L 57.352039,126.45798 L 64.152039,139.09798 L 56.232039,139.09798 L 49.712039,126.85798 z M 42.552039,113.33798 L 42.552039,121.97798 L 50.392039,121.97798 C 51.938706,121.97798 53.098706,121.68464 53.872039,121.09798 C 54.858706,120.43131 55.352039,119.28464 55.352039,117.65798 C 55.352039,116.13798 54.885372,115.04464 53.952039,114.37798 C 53.045372,113.68464 51.858706,113.33798 50.392039,113.33798 L 42.552039,113.33798 z "
     id="path884" />
</svg>
