<?xml version="1.0" encoding="UTF-8" standalone="no"?>
<!DOCTYPE svg PUBLIC "-//W3C//DTD SVG 20010904//EN"
"http://www.w3.org/TR/2001/REC-SVG-20010904/DTD/svg10.dtd">
<!-- Created with Inkscape (http://www.inkscape.org/) -->
<svg
   id="svg1"
   sodipodi:version="0.32"
   inkscape:version="0.38.1"
   width="128.00000pt"
   height="128.00000pt"
   sodipodi:docbase="/home/francois/Documents/work/artwork/new_theme/Rodent/scalable/stock"
   sodipodi:docname="stock_balance.svg"
   xmlns="http://www.w3.org/2000/svg"
   xmlns:inkscape="http://www.inkscape.org/namespaces/inkscape"
   xmlns:sodipodi="http://sodipodi.sourceforge.net/DTD/sodipodi-0.dtd"
   xmlns:xlink="http://www.w3.org/1999/xlink">
  <defs
     id="defs3">
    <linearGradient
       id="linearGradient839">
      <stop
         style="stop-color:#46a046;stop-opacity:1.0000000;"
         offset="0.0000000"
         id="stop840" />
      <stop
         style="stop-color:#df421e;stop-opacity:1.0000000;"
         offset="0.39364964"
         id="stop841" />
      <stop
         style="stop-color:#ada7c8;stop-opacity:1.0000000;"
         offset="0.72036445"
         id="stop842" />
      <stop
         style="stop-color:#eed680;stop-opacity:1.0000000;"
         offset="1.0000000"
         id="stop843" />
    </linearGradient>
    <linearGradient
       id="linearGradient850">
      <stop
         style="stop-color:#eed680;stop-opacity:1.0000000;"
         offset="0.0000000"
         id="stop852" />
      <stop
         style="stop-color:#dfb546;stop-opacity:1.0000000;"
         offset="0.68035328"
         id="stop858" />
      <stop
         style="stop-color:#d8a429;stop-opacity:1.0000000;"
         offset="0.77277374"
         id="stop859" />
      <stop
         style="stop-color:#d1940c;stop-opacity:1.0000000;"
         offset="1.0000000"
         id="stop857" />
    </linearGradient>
    <linearGradient
       xlink:href="#linearGradient850"
       id="linearGradient569"
       x1="-4.3584927e-17"
       y1="0.50000000"
       x2="1.0000000"
       y2="0.50000000" />
    <linearGradient
       xlink:href="#linearGradient850"
       id="linearGradient836"
       x1="-8.4703295e-19"
       y1="0.50000000"
       x2="1.0000000"
       y2="0.50000000" />
  </defs>
  <sodipodi:namedview
     id="base"
     pagecolor="#ffffff"
     bordercolor="#666666"
     borderopacity="1.0"
     inkscape:pageopacity="0.0"
     inkscape:pageshadow="2"
     inkscape:zoom="3.5521067"
     inkscape:cx="66.459322"
     inkscape:cy="62.629296"
     inkscape:window-width="751"
     inkscape:window-height="909"
     showgrid="true"
     snaptogrid="false"
     gridspacingx="1.0000000mm"
     gridspacingy="1.0000000mm"
     inkscape:window-x="142"
     inkscape:window-y="34" />
  <path
     style="fill:none;fill-rule:evenodd;stroke:#000000;stroke-width:5.0000000;stroke-dasharray:none;stroke-opacity:0.50228310;stroke-linejoin:round;stroke-linecap:round;"
     d="M 81.461905,18.412390 C 80.079157,18.321982 78.689191,18.440125 77.336905,18.787390 C 74.970661,19.395038 72.933888,20.766660 71.149405,22.537390 L 51.180655,47.474890 C 49.126422,51.197618 48.247263,54.095197 49.743155,59.099890 C 51.327740,64.401322 54.561004,64.993203 57.118155,67.256140 L 84.805655,81.068640 L 84.743155,80.787390 C 87.637266,81.912733 90.580453,82.238068 93.430655,81.506140 C 104.24893,78.728021 109.43813,62.440396 104.99314,45.131140 C 101.10378,29.985542 91.141144,19.045245 81.461905,18.412390 z "
     id="path857"
     sodipodi:nodetypes="ccccccccccc" />
  <g
     id="g838"
     transform="matrix(-0.926219,0.000000,0.000000,0.926219,153.6995,-6.021070)">
    <path
       style="fill:#4b6983;fill-rule:evenodd;stroke:#000000;stroke-width:1.5059674;stroke-linejoin:round;"
       d="M 89.725711,30.433362 L 74.778985,94.455805 L 104.65881,79.520341 C 107.41966,77.077142 110.92444,76.441725 112.63525,70.717991 C 114.25030,65.314633 113.28001,62.195194 111.06214,58.175920 L 111.06214,58.175920 L 89.725711,30.433362 z "
       id="path831"
       sodipodi:nodetypes="ccccccc" />
    <path
       sodipodi:type="arc"
       style="fill-rule:evenodd;stroke:#000000;stroke-width:5.0000000;fill:#9db8d2;fill-opacity:1.0000000;stroke-dasharray:none;"
       id="path825"
       sodipodi:cx="100.98425"
       sodipodi:cy="78.503937"
       sodipodi:rx="44.291340"
       sodipodi:ry="70.866142"
       d="M 145.27559 78.503937 A 44.291340 70.866142 0 1 0 56.692913,78.503937 A 44.291340 70.866142 0 1 0 145.27559 78.503937 z"
       transform="matrix(0.477735,0.122682,-0.122682,0.477735,35.52938,11.17656)" />
    <path
       sodipodi:type="arc"
       style="fill-rule:evenodd;stroke:#000000;stroke-width:2.2747321;stroke-dasharray:none;fill:#7590ae;fill-opacity:1.0000000;"
       id="path826"
       sodipodi:cx="102.75591"
       sodipodi:cy="85.590553"
       sodipodi:rx="28.346457"
       sodipodi:ry="56.692913"
       d="M 131.10237 85.590553 A 28.346457 56.692913 0 1 0 74.409456,85.590553 A 28.346457 56.692913 0 1 0 131.10237 85.590553 z"
       transform="matrix(0.575251,0.147724,-0.135083,0.526023,24.05911,0.197551)" />
    <path
       sodipodi:type="arc"
       style="fill-rule:evenodd;stroke:#000000;stroke-width:1.0000000pt;fill:#314e6c;fill-opacity:1.0000000;"
       id="path827"
       sodipodi:cx="33.661419"
       sodipodi:cy="51.929134"
       sodipodi:rx="12.401575"
       sodipodi:ry="19.488190"
       d="M 46.062994 51.929134 A 12.401575 19.488190 0 1 0 21.259844,51.929134 A 12.401575 19.488190 0 1 0 46.062994 51.929134 z"
       transform="matrix(0.477735,0.122682,-0.140577,0.547423,70.71934,29.45280)" />
  </g>
  <rect
     style="fill-rule:evenodd;stroke:#000000;stroke-width:3.7500000;stroke-linecap:round;stroke-linejoin:round;stroke-dasharray:none;fill:#ffffff;fill-opacity:1.0000000;"
     id="rect842"
     width="143.89169"
     height="10.629921"
     x="8.4705009"
     y="118.72047" />
  <rect
     style="fill:url(#linearGradient569);fill-opacity:0.75000000;fill-rule:evenodd;stroke:#000000;stroke-width:3.7500000;stroke-dasharray:none;stroke-linejoin:round;stroke-opacity:1.0000000;"
     id="rect843"
     width="14.173228"
     height="31.889763"
     x="74.173233"
     y="108.09055" />
  <rect
     style="fill:url(#linearGradient569);fill-opacity:0.75000000;fill-rule:evenodd;stroke:#000000;stroke-width:3.7500000;stroke-dasharray:none;stroke-linejoin:round;stroke-opacity:1.0000000;"
     id="rect845"
     width="14.173228"
     height="31.889763"
     x="74.173233"
     y="108.09055" />
  <rect
     style="fill:url(#linearGradient569);fill-opacity:0.75000000;fill-rule:evenodd;stroke:#000000;stroke-width:3.7500000;stroke-dasharray:none;stroke-linejoin:round;stroke-opacity:1.0000000;"
     id="rect846"
     width="14.173228"
     height="31.889763"
     x="74.173233"
     y="108.09055" />
  <path
     style="fill:url(#linearGradient836);fill-rule:evenodd;stroke:black;stroke-opacity:1;stroke-width:3.7500000;stroke-linejoin:round;stroke-linecap:round;fill-opacity:0.75000000;stroke-dasharray:none;"
     d="M 7.3750000,58.468750 L 7.3750000,101.00000 L 80.500000,100.84375 L 153.59375,101.00000 L 153.59375,58.468750 L 80.500000,96.625000 L 7.3750000,58.468750 z "
     id="path848" />
</svg>
