<?xml version="1.0" encoding="UTF-8" standalone="no"?>
<!DOCTYPE svg PUBLIC "-//W3C//DTD SVG 20010904//EN"
"http://www.w3.org/TR/2001/REC-SVG-20010904/DTD/svg10.dtd">
<!-- Created with Inkscape (http://www.inkscape.org/) -->
<svg
   id="svg1"
   sodipodi:version="0.32"
   inkscape:version="0.38.1"
   width="128.00000pt"
   height="128.00000pt"
   sodipodi:docbase="/usr/share/icons/Fuzzy/scalable/stock"
   sodipodi:docname="stock_undelete.svg"
   xmlns="http://www.w3.org/2000/svg"
   xmlns:inkscape="http://www.inkscape.org/namespaces/inkscape"
   xmlns:sodipodi="http://sodipodi.sourceforge.net/DTD/sodipodi-0.dtd"
   xmlns:xlink="http://www.w3.org/1999/xlink">
  <defs
     id="defs3">
    <linearGradient
       id="linearGradient827">
      <stop
         style="stop-color:#e0c39e;stop-opacity:1.0000000;"
         offset="0.0000000"
         id="stop867" />
      <stop
         style="stop-color:#c9aa83;stop-opacity:1.0000000;"
         offset="0.34664121"
         id="stop834" />
      <stop
         style="stop-color:#b39169;stop-opacity:1.0000000;"
         offset="1.0000000"
         id="stop829" />
    </linearGradient>
    <linearGradient
       xlink:href="#linearGradient827"
       id="linearGradient830"
       x1="0.14754099"
       y1="0.57948720"
       x2="0.45901638"
       y2="0.53846157" />
    <linearGradient
       id="linearGradient843">
      <stop
         style="stop-color:#ffffff;stop-opacity:1.0000000;"
         offset="0.0000000"
         id="stop844" />
      <stop
         style="stop-color:#ffc900;stop-opacity:1.0000000;"
         offset="1.0000000"
         id="stop845" />
    </linearGradient>
    <linearGradient
       id="linearGradient872">
      <stop
         style="stop-color:#ffffff;stop-opacity:1.0000000;"
         offset="0.0000000"
         id="stop873" />
      <stop
         style="stop-color:#cececd;stop-opacity:1.0000000;"
         offset="0.21198474"
         id="stop881" />
      <stop
         style="stop-color:#9e9e9c;stop-opacity:1.0000000;"
         offset="1.0000000"
         id="stop874" />
    </linearGradient>
    <linearGradient
       id="linearGradient826">
      <stop
         style="stop-color:#ffffff;stop-opacity:1.0000000;"
         offset="0.0000000"
         id="stop827" />
      <stop
         style="stop-color:#ffb000;stop-opacity:1.0000000;"
         offset="1.0000000"
         id="stop828" />
    </linearGradient>
    <linearGradient
       xlink:href="#linearGradient826"
       id="linearGradient829"
       x1="0.59062499"
       y1="0.73825502"
       x2="0.64062500"
       y2="0.27516779"
       spreadMethod="reflect" />
    <linearGradient
       xlink:href="#linearGradient872"
       id="linearGradient837"
       x1="5.1872298e-17"
       y1="0.49253732"
       x2="0.45454547"
       y2="0.51741296" />
    <linearGradient
       xlink:href="#linearGradient872"
       id="linearGradient835"
       x1="0.64840394"
       y1="0.37222797"
       x2="0.21134619"
       y2="0.37222797"
       spreadMethod="reflect" />
  </defs>
  <sodipodi:namedview
     id="base"
     pagecolor="#ffffff"
     bordercolor="#666666"
     borderopacity="1.0"
     inkscape:pageopacity="0.0"
     inkscape:pageshadow="2"
     inkscape:zoom="4.3696989"
     inkscape:cx="63.369850"
     inkscape:cy="63.833442"
     inkscape:window-width="851"
     inkscape:window-height="906"
     showgrid="true"
     snaptogrid="false"
     gridspacingx="1.0000000mm"
     gridspacingy="1.0000000mm"
     inkscape:window-x="0"
     inkscape:window-y="31"
     showguides="true"
     snaptoguides="true" />
  <path
     style="fill:none;fill-rule:evenodd;stroke:#000000;stroke-width:13.957372;stroke-linecap:round;stroke-linejoin:round;stroke-opacity:0.49999997;"
     d="M 79.546798,12.195559 C 51.910992,12.195559 29.474727,23.086496 29.474727,36.504648 C 29.474727,37.753301 29.739860,38.970319 30.114439,40.168458 C 29.801351,39.660195 29.375198,39.212815 29.096714,38.685487 L 43.839188,135.36936 C 43.839188,135.36937 78.500511,164.53927 113.16080,135.36936 C 113.16080,135.36937 128.53942,42.956917 129.00824,40.139380 C 129.37563,38.952437 129.61886,37.741067 129.61886,36.504648 C 129.61886,23.086496 107.18260,12.195550 79.546798,12.195559 z "
     id="path841"
     transform="translate(0.572122,0.286061)" />
  <path
     sodipodi:type="arc"
     style="fill:url(#linearGradient835);fill-opacity:1.0000000;fill-rule:evenodd;stroke:#000000;stroke-width:6.1936464;"
     id="path831"
     sodipodi:cx="74.409447"
     sodipodi:cy="44.842518"
     sodipodi:rx="46.062992"
     sodipodi:ry="26.574802"
     d="M 120.47244 44.842518 A 46.062992 26.574802 0 1 0 28.346455,44.842518 A 46.062992 26.574802 0 1 0 120.47244 44.842518 z"
     transform="matrix(1.099974,0.000000,0.000000,0.925731,-1.590560,-5.047226)" />
  <path
     style="fill:url(#linearGradient830);fill-rule:evenodd;stroke:#000000;stroke-width:6.2500000;stroke-linecap:round;stroke-linejoin:round;"
     d="M 28.633613,38.397497 L 43.536315,136.22341 C 43.536315,136.22341 78.614232,165.74476 113.69213,136.22341 C 113.69213,136.22341 129.96982,38.397497 129.96982,38.397497 C 114.37963,67.918849 44.223798,67.918849 28.633613,38.397497 z "
     id="path825"
     sodipodi:nodetypes="ccccc"
     transform="translate(0.572122,0.286061)" />
  <path
     style="font-size:12.000000;fill:#ffd100;fill-rule:evenodd;stroke:#000000;stroke-width:6.8506417;stroke-linecap:round;stroke-linejoin:round;"
     d="M 106.91424,123.93732 C 96.813222,121.53770 86.518692,113.13905 78.352835,107.73991 C 92.286072,88.458150 88.512672,83.069091 73.682983,83.069091 L 65.809412,83.269053 L 65.809412,107.55002 L 25.259604,67.081735 L 65.809412,26.613480 L 65.809412,50.894426 L 71.602219,50.894426 C 77.395034,50.894426 71.602219,50.894426 88.980652,50.894426 C 106.35911,50.894426 117.94473,68.976409 117.94473,93.257374 C 117.94473,106.88347 114.26790,113.11076 106.91424,123.93732 z "
     id="path684"
     sodipodi:nodetypes="cccccccccccc" />
</svg>
