<?xml version="1.0" encoding="UTF-8" standalone="no"?>
<!DOCTYPE svg PUBLIC "-//W3C//DTD SVG 20010904//EN"
"http://www.w3.org/TR/2001/REC-SVG-20010904/DTD/svg10.dtd">
<!-- Created with Inkscape (http://www.inkscape.org/) -->
<svg
   id="svg1"
   sodipodi:version="0.32"
   inkscape:version="0.38.1"
   width="128.00000pt"
   height="128.00000pt"
   sodipodi:docbase="/home/francois/Documents/work/artwork/new_theme/Rodent/scalable/apps"
   sodipodi:docname="bluefish.svg"
   xmlns="http://www.w3.org/2000/svg"
   xmlns:inkscape="http://www.inkscape.org/namespaces/inkscape"
   xmlns:sodipodi="http://sodipodi.sourceforge.net/DTD/sodipodi-0.dtd"
   xmlns:xlink="http://www.w3.org/1999/xlink">
  <defs
     id="defs3">
    <linearGradient
       id="linearGradient826">
      <stop
         style="stop-color:#9db8d2;stop-opacity:1.0000000;"
         offset="0.0000000"
         id="stop827" />
      <stop
         style="stop-color:#7590ae;stop-opacity:1.0000000;"
         offset="1.0000000"
         id="stop828" />
    </linearGradient>
    <linearGradient
       xlink:href="#linearGradient826"
       id="linearGradient829"
       x1="0.015544041"
       y1="0.024911031"
       x2="0.57772022"
       y2="0.37010676" />
  </defs>
  <sodipodi:namedview
     id="base"
     pagecolor="#ffffff"
     bordercolor="#666666"
     borderopacity="1.0"
     inkscape:pageopacity="0.0"
     inkscape:pageshadow="2"
     inkscape:zoom="4.4062500"
     inkscape:cx="64.000000"
     inkscape:cy="64.000000"
     inkscape:window-width="640"
     inkscape:window-height="902"
     showgrid="true"
     gridspacingx="1.0000000mm"
     gridspacingy="1.0000000mm"
     showguides="true"
     snaptoguides="true"
     inkscape:window-x="63"
     inkscape:window-y="38" />
  <path
     style="fill:url(#linearGradient829);fill-rule:evenodd;stroke:#000000;stroke-width:8.6077909;stroke-opacity:0.49999997;"
     d="M 7.9797573,80.302338 C 7.9797573,80.302338 40.681949,-7.9935789 102.81612,69.674126 C 105.81382,27.706318 149.68925,25.798685 151.05184,25.526168 C 145.32897,33.701715 145.30867,56.304017 131.60108,71.719494 C 144.41895,84.514736 143.96638,114.54782 150.50682,124.99534 C 110.17411,117.90986 106.35886,103.46639 103.36116,92.020624 C 97.910781,112.73201 82.922281,130.99073 51.855198,129.35562 C -11.641557,124.45029 7.9797573,80.302338 7.9797573,80.302338 z "
     id="path834"
     sodipodi:nodetypes="cccccccc" />
  <path
     style="fill:url(#linearGradient829);fill-rule:evenodd;stroke:#000000;stroke-width:6.1484222;"
     d="M 7.9797573,80.302338 C 7.9797573,80.302338 40.681949,-7.9935789 102.81612,69.674126 C 105.81382,27.706318 149.68925,25.798685 151.05184,25.526168 C 145.32897,33.701715 145.30867,56.304017 131.60108,71.719494 C 144.41895,84.514736 143.96638,114.54782 150.50682,124.99534 C 110.17411,117.90986 106.35886,103.46639 103.36116,92.020624 C 97.910781,112.73201 82.922281,130.99073 51.855198,129.35562 C -11.641557,124.45029 7.9797573,80.302338 7.9797573,80.302338 z "
     id="path825"
     sodipodi:nodetypes="cccccccc" />
  <path
     sodipodi:type="arc"
     style="fill-rule:evenodd;stroke:#000000;stroke-width:3.7500000;stroke-linejoin:round;stroke-linecap:round;stroke-dasharray:none;fill:#ffffff;fill-opacity:1.0000000;"
     id="path830"
     sodipodi:cx="33.758865"
     sodipodi:cy="10.921986"
     sodipodi:rx="14.184397"
     sodipodi:ry="18.581560"
     d="M 47.943262 10.921986 A 14.184397 18.581560 0 1 0 19.574469,10.921986 A 14.184397 18.581560 0 1 0 47.943262 10.921986 z"
     transform="matrix(0.887103,0.425214,-0.425214,0.887103,5.687380,46.52407)" />
  <path
     sodipodi:type="arc"
     style="fill-rule:evenodd;stroke:#000000;stroke-width:1.0000000pt;"
     id="path831"
     sodipodi:cx="44.822697"
     sodipodi:cy="-7.3758864"
     sodipodi:rx="5.6737590"
     sodipodi:ry="6.2411346"
     d="M 50.496456 -7.3758864 A 5.6737590 6.2411346 0 1 0 39.148938,-7.3758864 A 5.6737590 6.2411346 0 1 0 50.496456 -7.3758864 z"
     transform="matrix(0.983748,0.000000,0.000000,0.983748,-20.91758,82.67272)" />
  <path
     sodipodi:type="arc"
     style="fill-rule:evenodd;stroke:#ffffff;stroke-width:1.0000000pt;fill:#ffffff;fill-opacity:1.0000000;stroke-opacity:1.0000000;"
     id="path832"
     sodipodi:cx="25.106382"
     sodipodi:cy="-10.070922"
     sodipodi:rx="2.4113476"
     sodipodi:ry="3.2624114"
     d="M 27.517730 -10.070922 A 2.4113476 3.2624114 0 1 0 22.695035,-10.070922 A 2.4113476 3.2624114 0 1 0 27.517730 -10.070922 z"
     transform="matrix(0.983748,0.000000,0.000000,0.983748,-3.614788,85.46349)" />
  <path
     style="fill:none;fill-opacity:0.75000000;fill-rule:evenodd;stroke:#000000;stroke-width:3.6890533;stroke-linecap:round;"
     d="M 13.688005,115.32477 C 13.688005,115.32477 61.131149,104.99891 60.852072,92.440429"
     id="path833" />
</svg>
