<?xml version="1.0" encoding="UTF-8" standalone="no"?>
<!DOCTYPE svg PUBLIC "-//W3C//DTD SVG 20010904//EN"
"http://www.w3.org/TR/2001/REC-SVG-20010904/DTD/svg10.dtd">
<!-- Created with Inkscape (http://www.inkscape.org/) -->
<svg
   id="svg1"
   sodipodi:version="0.32"
   inkscape:version="0.38.1"
   width="128.00000pt"
   height="128.00000pt"
   sodipodi:docbase="/home/francois/waiting/new_theme/New_clock/various/scalable"
   sodipodi:docname="camera.svg"
   xmlns="http://www.w3.org/2000/svg"
   xmlns:inkscape="http://www.inkscape.org/namespaces/inkscape"
   xmlns:sodipodi="http://sodipodi.sourceforge.net/DTD/sodipodi-0.dtd"
   xmlns:xlink="http://www.w3.org/1999/xlink">
  <defs
     id="defs3">
    <linearGradient
       id="linearGradient833">
      <stop
         style="stop-color:#a8a9a8;stop-opacity:1.0000000;"
         offset="0.0000000"
         id="stop834" />
      <stop
         style="stop-color:#fff;stop-opacity:1;"
         offset="1"
         id="stop835" />
    </linearGradient>
    <linearGradient
       id="linearGradient826">
      <stop
         style="stop-color:#aeadae;stop-opacity:1.0000000;"
         offset="0.0000000"
         id="stop827" />
      <stop
         style="stop-color:#fff;stop-opacity:1;"
         offset="1"
         id="stop828" />
    </linearGradient>
    <linearGradient
       xlink:href="#linearGradient826"
       id="linearGradient829"
       x1="0.45937499"
       y1="1.0684931"
       x2="0.45937499"
       y2="-0.11872146" />
    <linearGradient
       xlink:href="#linearGradient833"
       id="linearGradient832"
       x1="0.50000000"
       y1="0.98969072"
       x2="0.48124999"
       y2="0.38144329" />
    <linearGradient
       xlink:href="#linearGradient833"
       id="linearGradient839"
       x1="0.32499999"
       y1="0.90035588"
       x2="0.50625002"
       y2="0.51601422"
       spreadMethod="reflect" />
  </defs>
  <sodipodi:namedview
     id="base"
     pagecolor="#ffffff"
     bordercolor="#666666"
     borderopacity="1.0"
     inkscape:pageopacity="0.0"
     inkscape:pageshadow="2"
     inkscape:zoom="6.0156250"
     inkscape:cx="65.912178"
     inkscape:cy="64.000000"
     inkscape:window-width="880"
     inkscape:window-height="913"
     showgrid="true"
     gridspacingx="1.0000000mm"
     gridspacingy="1.0000000mm"
     inkscape:window-x="0"
     inkscape:window-y="31" />
  <rect
     style="fill:#666666;fill-rule:evenodd;stroke:none;stroke-width:5.1183872;stroke-opacity:1.0000000;fill-opacity:0.49668875;"
     id="rect843"
     width="153.57051"
     height="106.02088"
     ry="17.557600"
     x="5.1199061"
     y="28.157335" />
  <rect
     style="fill:url(#linearGradient829);fill-rule:evenodd;stroke:#000000;stroke-width:5.1170492;"
     id="rect825"
     width="147.72241"
     height="99.778811"
     ry="16.523879"
     x="5.0553447"
     y="28.100704" />
  <path
     style="fill:none;fill-opacity:0.75000000;fill-rule:evenodd;stroke:#000000;stroke-width:1.0234098pt;"
     d="M 59.277155,126.82029 C 59.277155,126.82029 58.850212,55.640502 45.401495,28.524393"
     id="path830" />
  <path
     style="fill:#666666;fill-rule:evenodd;stroke:#000000;stroke-width:1.0234098pt;"
     d="M 40.918589,42.506136 C 44.120664,41.870602 50.738287,77.884185 52.446060,118.34651 C 21.065722,110.72010 36.649155,49.497008 40.918589,42.506136 z "
     id="path831"
     sodipodi:nodetypes="ccc" />
  <path
     sodipodi:type="arc"
     style="fill-rule:evenodd;stroke:#000000;stroke-width:3.6642206;stroke-dasharray:none;fill:#dedede;fill-opacity:1.0000000;"
     id="path836"
     sodipodi:cx="122.49351"
     sodipodi:cy="71.480522"
     sodipodi:rx="30.441559"
     sodipodi:ry="31.168831"
     d="M 152.93507 71.480522 A 30.441559 31.168831 0 1 0 92.051949,71.480522 A 30.441559 31.168831 0 1 0 152.93507 71.480522 z"
     transform="matrix(1.027333,0.000000,0.000000,1.019502,-2.416165,5.433331)" />
  <path
     sodipodi:type="arc"
     style="fill-rule:evenodd;stroke:#000000;stroke-width:2.5000000;stroke-dasharray:none;fill:#aeacae;fill-opacity:1.0000000;"
     id="path837"
     sodipodi:cx="122.49351"
     sodipodi:cy="71.480522"
     sodipodi:rx="30.441559"
     sodipodi:ry="31.168831"
     d="M 152.93507 71.480522 A 30.441559 31.168831 0 1 0 92.051949,71.480522 A 30.441559 31.168831 0 1 0 152.93507 71.480522 z"
     transform="matrix(0.778149,0.000000,0.000000,0.784196,28.10727,22.46505)" />
  <path
     style="fill:url(#linearGradient839);fill-rule:evenodd;stroke:none;stroke-opacity:1;stroke-width:1pt;stroke-linejoin:miter;stroke-linecap:butt;fill-opacity:1.0000000;"
     d="M 110.93731,57.970793 L 135.91350,99.068645 C 136.12697,99.280489 151.49693,91.230395 146.16013,70.681469 C 145.73319,69.410401 101.97149,89.747483 101.33108,87.629037 C 94.499988,67.291956 110.93731,57.970793 110.93731,57.970793 z "
     id="path838"
     sodipodi:nodetypes="ccccc" />
  <path
     sodipodi:type="arc"
     style="fill-rule:evenodd;stroke:#000000;stroke-width:2.5000000;stroke-dasharray:none;fill:#aeacae;fill-opacity:0.0000000;stroke-opacity:1.0000000;"
     id="path840"
     sodipodi:cx="122.49351"
     sodipodi:cy="71.480522"
     sodipodi:rx="30.441559"
     sodipodi:ry="31.168831"
     d="M 152.93507 71.480522 A 30.441559 31.168831 0 1 0 92.051949,71.480522 A 30.441559 31.168831 0 1 0 152.93507 71.480522 z"
     transform="matrix(0.778149,0.000000,0.000000,0.784196,28.10727,22.46505)" />
  <rect
     style="fill:#ffffff;fill-rule:evenodd;stroke:#000000;stroke-width:1.2974438pt;"
     id="rect841"
     width="34.518759"
     height="14.842528"
     ry="7.4212642"
     x="58.348358"
     y="35.720404" />
  <path
     sodipodi:type="arc"
     style="fill-rule:evenodd;stroke:#000000;stroke-width:1.0000000pt;"
     id="path842"
     sodipodi:cx="66.389610"
     sodipodi:cy="5.6103897"
     sodipodi:rx="6.7532468"
     sodipodi:ry="6.8571429"
     d="M 73.142857 5.6103897 A 6.7532468 6.8571429 0 1 0 59.636364,5.6103897 A 6.7532468 6.8571429 0 1 0 73.142857 5.6103897 z"
     transform="matrix(1.027333,0.000000,0.000000,1.019502,38.99735,42.29429)" />
  <rect
     style="fill-rule:evenodd;stroke:#000000;stroke-width:2.5000000;fill:url(#linearGradient832);stroke-dasharray:none;"
     id="rect844"
     width="22.857143"
     height="6.0259738"
     ry="0.99793196"
     x="28.883116"
     y="20.779220" />
</svg>
