<?xml version="1.0" encoding="UTF-8" standalone="no"?>
<!DOCTYPE svg PUBLIC "-//W3C//DTD SVG 20010904//EN"
"http://www.w3.org/TR/2001/REC-SVG-20010904/DTD/svg10.dtd">
<!-- Created with Inkscape (http://www.inkscape.org/) -->
<svg
   id="svg1"
   sodipodi:version="0.32"
   inkscape:version="0.38.1"
   width="128.00000pt"
   height="128.00000pt"
   sodipodi:docbase="/home/francois/Documents/work/artwork/new_theme/Rodent/scalable/apps"
   sodipodi:docname="gftp.svg"
   xmlns="http://www.w3.org/2000/svg"
   xmlns:inkscape="http://www.inkscape.org/namespaces/inkscape"
   xmlns:sodipodi="http://sodipodi.sourceforge.net/DTD/sodipodi-0.dtd"
   xmlns:xlink="http://www.w3.org/1999/xlink">
  <defs
     id="defs3">
    <linearGradient
       id="linearGradient845">
      <stop
         style="stop-color:#4b6983;stop-opacity:1.0000000;"
         offset="0.0000000"
         id="stop846" />
      <stop
         style="stop-color:#9db8d2;stop-opacity:1.0000000;"
         offset="0.44778731"
         id="stop847" />
      <stop
         style="stop-color:#cedbe8;stop-opacity:1.0000000;"
         offset="0.93561327"
         id="stop850" />
      <stop
         style="stop-color:#ffffff;stop-opacity:1.0000000;"
         offset="1.0000000"
         id="stop849" />
    </linearGradient>
    <linearGradient
       id="linearGradient840">
      <stop
         style="stop-color:#004eb1;stop-opacity:1.0000000;"
         offset="0.0000000"
         id="stop841" />
      <stop
         style="stop-color:#3cc3ff;stop-opacity:1.0000000;"
         offset="1.0000000"
         id="stop842" />
    </linearGradient>
    <linearGradient
       id="linearGradient837">
      <stop
         style="stop-color:#fbb100;stop-opacity:1.0000000;"
         offset="0.0000000"
         id="stop838" />
      <stop
         style="stop-color:#fdd800;stop-opacity:1.0000000;"
         offset="0.29212120"
         id="stop839" />
      <stop
         style="stop-color:#ffff00;stop-opacity:1.0000000;"
         offset="1.0000000"
         id="stop840" />
    </linearGradient>
    <linearGradient
       id="linearGradient833">
      <stop
         style="stop-color:#004eb1;stop-opacity:1.0000000;"
         offset="0.0000000"
         id="stop834" />
      <stop
         style="stop-color:#1e88d8;stop-opacity:1.0000000;"
         offset="0.35549620"
         id="stop843" />
      <stop
         style="stop-color:#8ec3eb;stop-opacity:1.0000000;"
         offset="0.79931182"
         id="stop844" />
      <stop
         style="stop-color:#ffffff;stop-opacity:1.0000000;"
         offset="1.0000000"
         id="stop835" />
    </linearGradient>
    <linearGradient
       id="linearGradient826">
      <stop
         style="stop-color:#000;stop-opacity:1;"
         offset="0"
         id="stop827" />
      <stop
         style="stop-color:#fff;stop-opacity:1;"
         offset="1"
         id="stop828" />
    </linearGradient>
    <linearGradient
       xlink:href="#linearGradient845"
       id="linearGradient829"
       x1="0.45626533"
       y1="0.55078673"
       x2="0.22509645"
       y2="0.31685987"
       spreadMethod="reflect" />
  </defs>
  <sodipodi:namedview
     id="base"
     pagecolor="#ffffff"
     bordercolor="#666666"
     borderopacity="1.0"
     inkscape:pageopacity="0.0"
     inkscape:pageshadow="2"
     inkscape:zoom="4.1542523"
     inkscape:cx="64.000000"
     inkscape:cy="63.999996"
     inkscape:window-width="812"
     inkscape:window-height="906"
     showgrid="true"
     snaptogrid="false"
     gridspacingx="1.0000000mm"
     gridspacingy="1.0000000mm"
     inkscape:window-x="42"
     inkscape:window-y="38" />
  <path
     sodipodi:type="arc"
     style="fill-rule:evenodd;stroke:#000000;stroke-width:12.395181;fill:none;fill-opacity:1.0000000;stroke-dasharray:none;stroke-linejoin:miter;stroke-opacity:0.46451613;"
     id="path837"
     sodipodi:cx="77.952759"
     sodipodi:cy="80.275589"
     sodipodi:rx="70.866142"
     sodipodi:ry="72.637794"
     d="M 148.81890 80.275589 A 70.866142 72.637794 0 1 0 7.0866165,80.275589 A 70.866142 72.637794 0 1 0 148.81890 80.275589 z"
     transform="matrix(0.914335,0.000000,0.000000,0.900936,3.910467,7.953276)" />
  <path
     sodipodi:type="arc"
     style="fill-rule:evenodd;stroke:#000000;stroke-width:7.0975247;fill:url(#linearGradient829);fill-opacity:1.0000000;stroke-dasharray:none;stroke-linejoin:miter;stroke-opacity:1.0000000;"
     id="path825"
     sodipodi:cx="77.952759"
     sodipodi:cy="80.275589"
     sodipodi:rx="70.866142"
     sodipodi:ry="72.637794"
     d="M 148.81890 80.275589 A 70.866142 72.637794 0 1 0 7.0866165,80.275589 A 70.866142 72.637794 0 1 0 148.81890 80.275589 z"
     transform="matrix(0.914335,0.000000,0.000000,0.900936,4.073707,7.905270)" />
  <path
     style="fill:#ffffff;fill-rule:evenodd;stroke:none;stroke-width:6.2500000;stroke-opacity:1.0000000;fill-opacity:1.0000000;"
     d="M 78.957334,62.458150 C 106.62153,112.04304 104.10914,114.48124 64.047580,78.184309 C 29.826233,78.184309 13.369132,114.85918 13.369132,80.293704 C 13.369132,45.728238 41.142979,17.675106 75.364325,17.675106 C 109.58568,17.675106 78.957334,27.892684 78.957334,62.458150 z "
     id="path834"
     sodipodi:nodetypes="ccccc" />
  <rect
     style="fill:#ffffff;fill-rule:evenodd;stroke:#000000;stroke-width:4.0429883;"
     id="rect853"
     width="110.80375"
     height="54.665489"
     ry="8.6142492"
     x="41.186275"
     y="88.736366" />
  <path
     style="font-size:40.000000;stroke-width:1.0000000pt;font-family:Trek;"
     d="M 119.60803,120.36996 L 119.60803,131.48996 L 112.88802,131.48996 L 112.88802,100.36996 L 131.56803,100.36996 C 134.44803,100.36996 136.72803,101.22329 138.40803,102.92996 C 140.08803,104.60996 140.92803,107.08996 140.92803,110.36996 C 140.92803,113.62329 140.08803,116.10329 138.40803,117.80996 C 136.72803,119.51662 134.44803,120.36996 131.56803,120.36996 L 119.60803,120.36996 z M 119.60803,105.72996 L 119.60803,115.04996 L 128.52803,115.04996 C 129.99469,115.04996 131.19469,114.67662 132.12803,113.92996 C 133.06136,113.15662 133.52803,111.96996 133.52803,110.36996 C 133.52803,108.79662 133.06136,107.63662 132.12803,106.88996 C 131.22136,106.11662 130.02136,105.72996 128.52803,105.72996 L 119.60803,105.72996 z M 82.528022,100.36996 L 110.52802,100.36996 L 110.52802,105.72996 L 99.848020,105.72996 L 99.848020,131.48996 L 93.208022,131.48996 L 93.208022,105.72996 L 82.528022,105.72996 L 82.528022,100.36996 z M 79.328022,105.72996 L 69.328022,105.72996 C 67.781362,105.72996 66.541362,105.90329 65.608022,106.24996 C 65.154692,106.38329 64.754692,106.54329 64.408022,106.72996 C 64.061362,106.91662 63.728022,107.18329 63.408022,107.52996 C 62.528022,108.32996 61.888022,109.31662 61.488022,110.48996 L 61.248022,111.44996 L 61.168022,112.52996 L 61.168022,113.36996 L 79.328022,113.36996 L 79.328022,118.48996 L 61.168022,118.48996 L 61.168022,131.48996 L 54.448022,131.48996 L 54.448022,115.92996 C 54.448022,114.56996 54.488022,113.38329 54.568022,112.36996 C 54.648022,111.32996 54.781362,110.42329 54.968022,109.64996 C 55.528022,107.08996 56.701362,104.99662 58.488022,103.36996 C 59.608022,102.32996 60.968022,101.56996 62.568022,101.08996 C 64.168022,100.60996 66.194692,100.36996 68.648022,100.36996 L 79.328022,100.36996 L 79.328022,105.72996 z "
     id="path920" />
</svg>
