<?xml version="1.0" encoding="UTF-8" standalone="no"?>
<!DOCTYPE svg PUBLIC "-//W3C//DTD SVG 20010904//EN"
"http://www.w3.org/TR/2001/REC-SVG-20010904/DTD/svg10.dtd">
<!-- Created with Inkscape (http://www.inkscape.org/) -->
<svg
   id="svg1"
   sodipodi:version="0.32"
   inkscape:version="0.38.1"
   width="128.00000pt"
   height="128.00000pt"
   sodipodi:docbase="/home/francois/Documents/work/artwork/new_theme/Improved/apps"
   sodipodi:docname="gnome-graphics.svg"
   xmlns="http://www.w3.org/2000/svg"
   xmlns:inkscape="http://www.inkscape.org/namespaces/inkscape"
   xmlns:sodipodi="http://sodipodi.sourceforge.net/DTD/sodipodi-0.dtd"
   xmlns:xlink="http://www.w3.org/1999/xlink">
  <defs
     id="defs3">
    <linearGradient
       id="linearGradient847">
      <stop
         style="stop-color:#000000;stop-opacity:1.0000000;"
         offset="0.0000000"
         id="stop848" />
      <stop
         style="stop-color:#959694;stop-opacity:0.49803922;"
         offset="0.52227271"
         id="stop849" />
      <stop
         style="stop-color:#ffffff;stop-opacity:0.0000000;"
         offset="1.0000000"
         id="stop850" />
    </linearGradient>
    <linearGradient
       id="linearGradient838">
      <stop
         style="stop-color:#151111;stop-opacity:1.0000000;"
         offset="0.0000000"
         id="stop839" />
      <stop
         style="stop-color:#959694;stop-opacity:0.49803922;"
         offset="0.64106059"
         id="stop843" />
      <stop
         style="stop-color:#ffffff;stop-opacity:0.0000000;"
         offset="1.0000000"
         id="stop842" />
    </linearGradient>
    <linearGradient
       id="linearGradient829">
      <stop
         style="stop-color:#ffc300;stop-opacity:1.0000000;"
         offset="0.0000000"
         id="stop830" />
      <stop
         style="stop-color:#fbff00;stop-opacity:0.52549022;"
         offset="0.72473139"
         id="stop833" />
      <stop
         style="stop-color:#fefb7f;stop-opacity:0.24705882;"
         offset="0.93585211"
         id="stop836" />
      <stop
         style="stop-color:#ffffff;stop-opacity:0.0000000;"
         offset="1.0000000"
         id="stop831" />
    </linearGradient>
    <linearGradient
       xlink:href="#linearGradient829"
       id="linearGradient832"
       x1="0.47540984"
       y1="0.94531250"
       x2="0.88709676"
       y2="0.35156250" />
    <linearGradient
       xlink:href="#linearGradient838"
       id="linearGradient837"
       x1="0.59322035"
       y1="0.61718750"
       x2="0.20338982"
       y2="0.23437500" />
    <linearGradient
       xlink:href="#linearGradient847"
       id="linearGradient846"
       x1="0.22297297"
       y1="0.91719747"
       x2="0.81756759"
       y2="0.0063694268" />
  </defs>
  <sodipodi:namedview
     id="base"
     pagecolor="#ffffff"
     bordercolor="#666666"
     borderopacity="1.0"
     inkscape:pageopacity="0.0"
     inkscape:pageshadow="2"
     inkscape:zoom="4.2150193"
     inkscape:cx="63.999999"
     inkscape:cy="66.656993"
     inkscape:window-width="823"
     inkscape:window-height="913"
     showgrid="true"
     snaptogrid="false"
     gridspacingx="1.0000000mm"
     gridspacingy="1.0000000mm"
     inkscape:window-x="42"
     inkscape:window-y="31" />
  <g
     id="g863"
     transform="matrix(1.045894,3.098520e-2,-0.340107,0.616218,41.45507,52.44603)"
     style="fill:#b4b4b0;fill-opacity:0.52903223;stroke:none;stroke-opacity:1.0000000;">
    <path
       style="fill:#b4b4b0;fill-opacity:0.52903223;fill-rule:evenodd;stroke:none;stroke-width:3.5268781;stroke-linecap:square;stroke-linejoin:round;stroke-opacity:1.0000000;"
       d="M 129.81531,7.3591908 C 129.81531,7.3591908 115.14084,23.532870 100.25377,54.345240 C 100.25377,54.345240 133.67384,80.929389 133.67384,80.929389 C 159.00332,58.343133 168.97430,38.207118 168.97430,38.207118"
       id="path859"
       sodipodi:nodetypes="cccc" />
    <path
       style="fill:#b4b4b0;fill-opacity:0.52903223;fill-rule:evenodd;stroke:none;stroke-width:2.3512521;stroke-opacity:1.0000000;"
       d="M 100.25377,54.345240 L 133.67384,80.929389 C 122.20865,101.67543 97.395784,122.20179 84.731042,133.49492 C 84.731042,133.49492 61.235648,114.98618 61.235648,114.98618 C 68.679190,99.579979 85.917026,68.041465 100.25377,54.345240 z "
       id="path860"
       sodipodi:nodetypes="ccccc" />
    <path
       style="fill:#b4b4b0;fill-rule:evenodd;stroke:none;stroke-width:2.3512521;stroke-linecap:round;stroke-linejoin:round;fill-opacity:0.52903223;stroke-opacity:1.0000000;"
       d="M 61.235648,114.98618 L 84.731042,133.49492 C 84.731042,133.49492 89.940698,172.70858 32.084487,161.16357 C 17.020660,153.55085 24.343909,152.92452 16.009408,147.42242 C 21.133539,146.14155 26.084993,145.97076 29.700284,145.49089 C 34.321707,144.87749 34.306825,141.64433 42.350136,130.96460 C 50.393449,120.28488 61.235648,114.98618 61.235648,114.98618 z "
       id="path861"
       sodipodi:nodetypes="ccccscc" />
    <path
       style="fill:#b4b4b0;fill-rule:evenodd;stroke:none;stroke-width:2.3512521;stroke-linecap:round;stroke-linejoin:round;fill-opacity:0.52903223;stroke-opacity:1.0000000;"
       d="M 81.687063,145.49089 C 81.687063,153.08636 74.260381,168.27730 32.084487,161.16357 C 17.020660,153.55085 24.343909,152.92452 16.009408,147.42242 C 21.133539,146.14155 26.084993,145.97076 29.700284,145.49089 C 34.321707,144.87749 32.796996,144.77741 40.840308,134.09768 C 65.323869,133.43302 63.120356,153.08636 81.687063,145.49089 z "
       id="path862"
       sodipodi:nodetypes="cccscc" />
  </g>
  <path
     style="fill:#ffffff;fill-rule:nonzero;stroke:#000000;fill-opacity:1.0000000;stroke-opacity:1.0000000;stroke-width:1.8750000;stroke-linejoin:miter;stroke-linecap:butt;stroke-dasharray:none;"
     id="path851"
     d="M 21.937903,4.6760361 C 27.956170,5.5262500 37.358726,6.2154426 44.044274,7.5288468 C 53.958052,9.4810978 66.234411,11.312019 74.931070,17.110415 C 80.931994,22.648778 72.762955,26.379071 68.683240,27.832932 C 62.624003,30.963678 49.682918,36.005314 46.236547,37.943884 C 44.389651,39.072722 33.350809,43.368228 33.855655,47.515304 C 34.448728,54.764953 40.758624,54.188620 45.183059,55.714426 C 49.610114,57.910842 54.263404,62.002662 47.815793,74.768115 C 46.067734,77.545843 44.362814,81.785265 42.916218,84.736055 C 38.982843,90.889683 39.795993,99.276353 41.575344,104.91096 C 42.528784,107.65510 52.857289,119.32727 55.952075,136.59413 L 11.300934,138.67004 C 11.416345,138.40497 7.5875926,142.46778 3.8742516,138.67004 C 3.4163666,137.02103 7.3572933,122.62716 7.7253193,121.32524 C 8.1358323,119.80632 11.232765,111.86162 12.021032,109.47159 C 12.850764,107.03891 16.237960,99.083327 17.357891,96.877572 C 18.943697,93.773590 20.822111,90.049696 22.062464,86.792527 C 24.062623,82.446729 29.857621,73.924472 29.583802,69.182098 C 27.798448,62.103286 17.547953,61.114443 15.371020,56.538413 C 10.835103,50.492115 13.984852,43.094334 17.986260,41.168901 C 19.695001,38.827099 42.124808,29.468092 46.162278,28.265640 C 51.923850,26.584052 57.744267,24.790270 64.009423,21.916131 C 70.333173,16.468069 32.278963,9.1069823 26.942414,8.6255473 C 26.077122,8.5474843 12.088560,5.6090819 13.041147,5.7346139 L 21.937903,4.6760361 z "
     sodipodi:nodetypes="ccccccccccccccccccccccccc" />
  <path
     style="fill:#83a67f;fill-opacity:1.0000000;fill-rule:evenodd;stroke:#000000;stroke-width:3.5268781;stroke-linecap:square;stroke-linejoin:round;stroke-opacity:1.0000000;"
     d="M 139.60175,-26.448484 C 139.60175,-25.855367 108.91311,14.042997 91.653572,48.414069 C 91.653572,48.414069 119.73559,71.142957 119.73559,71.142957 C 146.25131,43.515205 177.27794,1.1372996 176.98139,1.1372996"
     id="path826"
     sodipodi:nodetypes="cccc" />
  <path
     style="fill:url(#linearGradient837);fill-opacity:0.75000000;fill-rule:evenodd;stroke:#000000;stroke-width:2.3512521;"
     d="M 91.950130,48.117510 L 120.03216,70.549840 C 102.93235,89.219973 85.533442,109.44977 71.682466,123.70849 C 70.496232,122.81881 56.194152,111.13092 53.821684,110.53780 C 62.451460,94.241925 80.282413,67.448347 91.950130,48.117510 z "
     id="path827"
     sodipodi:nodetypes="ccccc" />
  <path
     style="fill:#b39169;fill-rule:evenodd;stroke:#000000;stroke-width:2.3512521;stroke-linecap:round;stroke-linejoin:round;fill-opacity:1.0000000;"
     d="M 54.711360,110.53780 L 71.682466,123.11537 C 71.682466,123.11537 77.158901,137.67149 68.834619,143.65154 C 46.593507,159.84231 27.420513,155.30135 21.111821,152.56337 C 6.0479937,144.95065 13.074684,144.91744 4.7401828,139.41534 C 9.8643144,138.13447 14.815768,137.96368 18.431059,137.48381 C 23.052482,136.87041 25.706627,133.04413 33.749938,122.36440 C 47.131305,109.90533 54.711360,110.53780 54.711360,110.53780 z "
     id="path828"
     sodipodi:nodetypes="ccsccscc" />
  <path
     style="fill:#ffffff;fill-rule:evenodd;stroke:#000000;stroke-width:2.3512521;stroke-linecap:round;stroke-linejoin:round;fill-opacity:1.0000000;"
     d="M 56.984131,150.53954 C 49.218512,154.02159 36.268598,158.19615 21.704941,153.15649 C 6.6411108,145.54377 12.778126,144.91744 4.4436246,139.41534 C 9.5677556,138.13447 36.948820,137.36346 41.136869,143.88411 C 53.164969,139.06764 51.666760,144.91971 56.984131,150.53954 z "
     id="path844"
     sodipodi:nodetypes="ccccc" />
  <path
     style="fill-rule:evenodd;stroke:none;stroke-width:0.81925402pt;fill:#ffffff;fill-opacity:1.0000000;"
     d="M 140.69067,-21.254531 L 95.079665,47.670842 L 100.70800,51.813388 L 146.31901,-17.111984 L 140.69067,-21.254531 z "
     id="path852" />
</svg>
