<?xml version="1.0" encoding="UTF-8" standalone="no"?>
<!DOCTYPE svg PUBLIC "-//W3C//DTD SVG 20010904//EN"
"http://www.w3.org/TR/2001/REC-SVG-20010904/DTD/svg10.dtd">
<!-- Created with Inkscape (http://www.inkscape.org/) -->
<svg
   id="svg1"
   sodipodi:version="0.32"
   inkscape:version="0.39"
   width="128.00000pt"
   height="128.00000pt"
   sodipodi:docbase="/usr/share/icons/Rodent/scalable/apps"
   sodipodi:docname="settings2.svg"
   xmlns="http://www.w3.org/2000/svg"
   xmlns:inkscape="http://www.inkscape.org/namespaces/inkscape"
   xmlns:sodipodi="http://sodipodi.sourceforge.net/DTD/sodipodi-0.dtd"
   xmlns:xlink="http://www.w3.org/1999/xlink"
   xmlns:rdf="http://www.w3.org/1999/02/22-rdf-syntax-ns#"
   xmlns:cc="http://web.resource.org/cc/"
   xmlns:dc="http://purl.org/dc/elements/1.1/">
  <defs
     id="defs3">
    <linearGradient
       id="linearGradient832">
      <stop
         style="stop-color:#ffffff;stop-opacity:1.0000000;"
         offset="0.0000000"
         id="stop833" />
      <stop
         style="stop-color:#bdbcbc;stop-opacity:1.0000000;"
         offset="0.50000000"
         id="stop835" />
      <stop
         style="stop-color:#7b7979;stop-opacity:1.0000000;"
         offset="1.0000000"
         id="stop834" />
    </linearGradient>
    <linearGradient
       id="linearGradient826">
      <stop
         style="stop-color:#eed680;stop-opacity:1.0000000;"
         offset="0.0000000"
         id="stop827" />
      <stop
         style="stop-color:#dfb546;stop-opacity:1.0000000;"
         offset="0.34620437"
         id="stop840" />
      <stop
         style="stop-color:#d1940c;stop-opacity:1.0000000;"
         offset="1.0000000"
         id="stop828" />
    </linearGradient>
    <linearGradient
       xlink:href="#linearGradient832"
       id="linearGradient829"
       x1="0.42288557"
       y1="0.26963907"
       x2="0.95024878"
       y2="0.96390659" />
    <linearGradient
       xlink:href="#linearGradient832"
       id="linearGradient831"
       x1="-9.1886134e-18"
       y1="0.50000000"
       x2="1.0000000"
       y2="0.50000000" />
    <linearGradient
       xlink:href="#linearGradient832"
       id="linearGradient838"
       x1="0.47549018"
       y1="0.34328359"
       x2="1.0392157"
       y2="0.84079599"
       spreadMethod="reflect" />
    <linearGradient
       xlink:href="#linearGradient826"
       id="linearGradient839"
       x1="0.44607842"
       y1="0.46766168"
       x2="0.55882353"
       y2="0.58706468"
       spreadMethod="reflect" />
    <linearGradient
       inkscape:collect="always"
       xlink:href="#linearGradient826"
       id="linearGradient2808"
       x1="0.47826087"
       y1="0.53290868"
       x2="0.61956519"
       y2="0.39702761"
       spreadMethod="reflect" />
  </defs>
  <sodipodi:namedview
     id="base"
     pagecolor="#ffffff"
     bordercolor="#666666"
     borderopacity="1.0"
     inkscape:pageopacity="0.0"
     inkscape:pageshadow="2"
     inkscape:zoom="2.1848495"
     inkscape:cx="1.6348632"
     inkscape:cy="61.416884"
     inkscape:window-width="851"
     inkscape:window-height="906"
     showgrid="true"
     snaptogrid="false"
     gridspacingx="1.0000000mm"
     gridspacingy="1.0000000mm"
     inkscape:window-x="53"
     inkscape:window-y="34"
     showguides="true"
     snaptoguides="true" />
  <g
     id="g2809"
     transform="matrix(1.049881,-0.100427,0.100427,1.049881,-13.88812,6.238102)">
    <path
       style="fill:none;fill-opacity:1.0000000;fill-rule:evenodd;stroke:#000000;stroke-width:3.9112453;stroke-linecap:butt;stroke-linejoin:miter;stroke-miterlimit:4.0000000;stroke-opacity:0.46753243;"
       d="M 73.425834,99.224333 L 42.196122,72.068526 L 23.396357,92.908426 L 14.182269,83.921453 L 20.194524,44.049259 L 55.528735,6.6136695 L 79.173340,29.511238 L 63.926583,49.353082 L 92.796234,77.472504 L 73.425834,99.224333 z "
       id="path1562" />
    <path
       style="fill:url(#linearGradient829);fill-opacity:0.75000000;fill-rule:evenodd;stroke:#000000;stroke-width:3.9112453;stroke-linecap:butt;stroke-linejoin:miter;stroke-miterlimit:4.0000000;stroke-opacity:1.0000000;"
       d="M 69.605541,98.490413 L 38.375837,71.334600 L 19.576075,92.174502 L 10.361986,83.187527 L 16.374240,43.315334 L 51.708443,5.8797441 L 75.353048,28.777313 L 60.106291,48.619157 L 88.975941,76.738580 L 69.605541,98.490413 z "
       id="path940" />
    <path
       style="fill-opacity:0.36774191;fill-rule:evenodd;stroke:#000000;stroke-width:3.9739625;stroke-opacity:0.47096774;"
       d="M 53.533959,93.587428 L 122.87118,154.59141 C 128.65040,152.13511 135.45941,153.95622 141.44410,147.51110 C 147.42877,141.06600 145.75035,134.04881 146.80991,128.81099 L 77.472688,67.806988 C 71.488005,74.252100 59.518641,87.142318 53.533959,93.587428 z "
       id="path931"
       sodipodi:nodetypes="cccccc" />
    <path
       style="fill:url(#linearGradient2808);fill-rule:evenodd;stroke:#000000;stroke-width:2.6074953;"
       d="M 56.675751,90.132327 L 124.53437,150.58877 C 127.45934,147.39920 136.84703,149.96737 142.69696,143.58820 C 148.54690,137.20905 145.00915,128.26169 147.93412,125.07213 L 80.075498,64.615661 C 74.225560,70.994826 62.525687,83.753156 56.675751,90.132327 z "
       id="path933"
       sodipodi:nodetypes="cccccc" />
  </g>
  <g
     id="g924"
     transform="translate(2.288405,-0.572123)">
    <path
       style="fill:url(#linearGradient831);fill-rule:evenodd;stroke:#000000;stroke-width:3.7752166;stroke-opacity:0.47741935;"
       d="M 124.30861,15.999337 L 106.63326,33.767151 L 109.56234,54.513198 L 130.16676,57.491431 L 147.84210,39.723619 C 147.84210,39.723619 165.49222,57.516826 144.87098,78.245942 C 121.30385,101.93637 106.59963,81.181849 97.766154,84.138919 L 27.064758,155.21018 C 21.177179,155.20595 18.231293,158.16725 12.347920,152.23617 C 6.4645465,146.30511 9.4104318,143.34381 9.4146393,137.41696 L 80.116035,66.345708 C 83.066131,57.457567 62.470120,42.625661 86.037251,18.935243 C 106.65850,-1.7938718 124.30861,15.999337 124.30861,15.999337 z "
       id="path836"
       sodipodi:nodetypes="ccccccccccccc" />
    <path
       style="fill-opacity:0.36774191;fill-rule:evenodd;stroke:#000000;stroke-width:3.8101337;stroke-opacity:0.47096774;"
       d="M 94.155214,94.714694 L 30.665631,156.43560 C 25.014465,154.35885 18.581012,156.42720 12.543016,150.54061 C 6.5050194,144.65403 7.7778665,137.85447 6.5136457,132.88927 L 70.003229,71.168362 C 76.041226,77.054946 88.117218,88.828111 94.155214,94.714694 z "
       id="path837"
       sodipodi:nodetypes="cccccc" />
    <path
       style="fill:url(#linearGradient838);fill-rule:evenodd;stroke:#000000;stroke-width:3.7500000;"
       d="M 123.54424,12.931832 L 105.80145,30.396436 L 108.74170,50.788450 L 129.42474,53.715861 L 147.16753,36.251256 C 147.16753,36.251256 164.88500,53.740822 144.18507,74.116194 C 120.52801,97.402332 105.76768,77.001999 96.900506,79.908606 L 25.929333,149.76703 C 20.019287,149.76288 17.062161,152.67364 11.156338,146.84378 C 5.2505156,141.01393 8.2076416,138.10315 8.2118651,132.27746 L 79.183038,62.419037 C 82.144392,53.682575 61.469792,39.103775 85.126850,15.817636 C 105.82677,-4.5577359 123.54424,12.931832 123.54424,12.931832 z "
       id="path834"
       sodipodi:nodetypes="ccccccccccccc" />
    <path
       style="fill:url(#linearGradient839);fill-rule:evenodd;stroke:#000000;stroke-width:2.5000000;"
       d="M 90.982021,91.555840 L 28.882244,152.68196 C 25.929333,149.76703 17.062161,152.67364 11.156338,146.84378 C 5.2505156,141.01393 8.2118651,132.27746 5.2589531,129.36254 L 67.358730,68.236411 C 73.264554,74.066268 85.076199,85.725980 90.982021,91.555840 z "
       id="path830"
       sodipodi:nodetypes="cccccc" />
  </g>
  <metadata
     id="metadata20">
    <rdf:RDF
       id="RDF21">
      <cc:Work
         rdf:about=""
         id="Work22">
        <dc:format
           id="format23">image/svg+xml</dc:format>
        <dc:type
           id="type25"
           rdf:resource="http://purl.org/dc/dcmitype/StillImage" />
      </cc:Work>
    </rdf:RDF>
  </metadata>
</svg>
