<?xml version="1.0" encoding="UTF-8" standalone="no"?>
<!DOCTYPE svg PUBLIC "-//W3C//DTD SVG 20010904//EN"
"http://www.w3.org/TR/2001/REC-SVG-20010904/DTD/svg10.dtd">
<!-- Created with Sodipodi ("http://www.sodipodi.com/") -->
<svg
   id="svg559"
   sodipodi:version="0.32"
   width="128pt"
   height="128pt"
   sodipodi:docbase="/home/francois/Documents/work/artwork/new_theme/Improved/apps"
   sodipodi:docname="palm-pilot.svg"
   inkscape:version="0.38.1"
   xmlns="http://www.w3.org/2000/svg"
   xmlns:inkscape="http://www.inkscape.org/namespaces/inkscape"
   xmlns:sodipodi="http://sodipodi.sourceforge.net/DTD/sodipodi-0.dtd"
   xmlns:xlink="http://www.w3.org/1999/xlink">
  <defs
     id="defs561">
    <linearGradient
       id="linearGradient851">
      <stop
         style="stop-color:#83a67f;stop-opacity:1.0000000;"
         offset="0.0000000"
         id="stop852" />
      <stop
         style="stop-color:#ffffff;stop-opacity:1.0000000;"
         offset="1.0000000"
         id="stop853" />
    </linearGradient>
    <linearGradient
       id="linearGradient833">
      <stop
         style="stop-color:#000000;stop-opacity:1.0000000;"
         offset="0.0000000"
         id="stop834" />
      <stop
         style="stop-color:#ffc300;stop-opacity:1.0000000;"
         offset="1.0000000"
         id="stop835" />
    </linearGradient>
    <linearGradient
       id="linearGradient828">
      <stop
         style="stop-color:#c9ea1e;stop-opacity:1.0000000;"
         offset="0.0000000"
         id="stop829" />
      <stop
         style="stop-color:#ffffff;stop-opacity:1.0000000;"
         offset="1.0000000"
         id="stop830" />
    </linearGradient>
    <linearGradient
       xlink:href="#linearGradient851"
       id="linearGradient831"
       x1="0.84062499"
       y1="0.71047229"
       x2="0.32499999"
       y2="0.29979467"
       spreadMethod="reflect" />
    <linearGradient
       xlink:href="#linearGradient833"
       id="linearGradient836"
       x1="0.95544553"
       y1="0.044776119"
       x2="0.38118812"
       y2="0.32338309"
       spreadMethod="reflect" />
    <radialGradient
       xlink:href="#linearGradient833"
       id="radialGradient839"
       cx="0.50000000"
       cy="0.50000000"
       r="0.50000000"
       fx="0.50000000"
       fy="0.50000000"
       spreadMethod="reflect" />
    <radialGradient
       xlink:href="#linearGradient833"
       id="radialGradient841" />
  </defs>
  <sodipodi:namedview
     id="base"
     inkscape:zoom="4.2481650"
     inkscape:cx="64.000000"
     inkscape:cy="64.000002"
     inkscape:window-width="829"
     inkscape:window-height="906"
     inkscape:window-x="91"
     inkscape:window-y="34"
     snaptogrid="false"
     showgrid="true"
     gridspacingx="1.0000000mm"
     gridspacingy="1.0000000mm" />
  <path
     style="fill:#000000;fill-rule:evenodd;stroke:none;stroke-width:3.8890450;stroke-linejoin:round;fill-opacity:0.49668875;"
     d="M 31.805567,3.6306562 C 31.805567,42.286922 31.805567,80.943192 31.805567,119.59947 C 31.805567,138.92759 31.805567,146.65884 35.706820,158.25572 C 39.608073,162.12136 121.53437,162.12136 125.43564,158.25572 C 129.33689,146.65884 129.33689,138.92759 129.33689,119.59947 C 129.33689,80.943192 129.33689,42.286922 129.33689,3.6306562 L 31.805567,3.6306562 z "
     id="path853"
     sodipodi:nodetypes="ccccccc" />
  <path
     style="fill:#9a9a9a;fill-rule:evenodd;stroke:#000000;stroke-width:3.9139419;stroke-linejoin:round;"
     d="M 31.694828,3.5953863 C 31.694828,40.483892 31.694828,77.372399 31.694828,114.26090 C 31.694828,132.70515 31.694828,140.08286 35.402426,151.14941 C 39.110025,154.83826 116.96960,154.83826 120.67720,151.14941 C 124.38480,140.08286 124.38480,132.70515 124.38480,114.26090 C 124.38480,77.372399 124.38480,40.483892 124.38480,3.5953863 L 31.694828,3.5953863 z "
     id="path838"
     sodipodi:nodetypes="ccccccc" />
  <rect
     style="fill:url(#linearGradient831);fill-opacity:0.78807944;fill-rule:evenodd;stroke:#000000;stroke-width:2.6092947;"
     id="rect839"
     width="70.444382"
     height="106.97668"
     x="42.817623"
     y="18.350790" />
  <rect
     style="fill:#46a046;fill-rule:evenodd;stroke:#000000;stroke-width:2.6092947;fill-opacity:1.0000000;"
     id="rect840"
     width="70.444382"
     height="25.821955"
     x="42.817623"
     y="99.505508" />
  <path
     sodipodi:type="arc"
     style="fill-rule:evenodd;stroke:#000000;stroke-width:1.0000000pt;fill:#ffffff;fill-opacity:1.0000000;"
     id="path841"
     sodipodi:cx="-8.8582678"
     sodipodi:cy="-11.850393"
     sodipodi:rx="5.3149605"
     sodipodi:ry="5.3149605"
     d="M -3.5433073 -11.850393 A 5.3149605 5.3149605 0 1 0 -14.173228,-11.850393 A 5.3149605 5.3149605 0 1 0 -3.5433073 -11.850393 z"
     transform="matrix(1.046367,0.000000,0.000000,1.041076,60.70164,149.9249)" />
  <path
     sodipodi:type="arc"
     style="fill-rule:evenodd;stroke:#000000;stroke-width:1.0000000pt;fill:#ffffff;fill-opacity:1.0000000;"
     id="path842"
     sodipodi:cx="-8.8582678"
     sodipodi:cy="-11.850393"
     sodipodi:rx="5.3149605"
     sodipodi:ry="5.3149605"
     d="M -3.5433073 -11.850393 A 5.3149605 5.3149605 0 1 0 -14.173228,-11.850393 A 5.3149605 5.3149605 0 1 0 -3.5433073 -11.850393 z"
     transform="matrix(1.046367,0.000000,0.000000,1.041076,75.53204,149.9249)" />
  <path
     sodipodi:type="arc"
     style="fill-rule:evenodd;stroke:#000000;stroke-width:1.0000000pt;fill:#ffffff;fill-opacity:1.0000000;"
     id="path843"
     sodipodi:cx="-8.8582678"
     sodipodi:cy="-11.850393"
     sodipodi:rx="5.3149605"
     sodipodi:ry="5.3149605"
     d="M -3.5433073 -11.850393 A 5.3149605 5.3149605 0 1 0 -14.173228,-11.850393 A 5.3149605 5.3149605 0 1 0 -3.5433073 -11.850393 z"
     transform="matrix(1.046367,0.000000,0.000000,1.041076,115.1158,149.9249)" />
  <path
     sodipodi:type="arc"
     style="fill-rule:evenodd;stroke:#000000;stroke-width:1.0000000pt;fill:#ffffff;fill-opacity:1.0000000;"
     id="path844"
     sodipodi:cx="-8.8582678"
     sodipodi:cy="-11.850393"
     sodipodi:rx="5.3149605"
     sodipodi:ry="5.3149605"
     d="M -3.5433073 -11.850393 A 5.3149605 5.3149605 0 1 0 -14.173228,-11.850393 A 5.3149605 5.3149605 0 1 0 -3.5433073 -11.850393 z"
     transform="matrix(1.046367,0.000000,0.000000,1.041076,100.2854,149.9249)" />
  <path
     sodipodi:type="arc"
     style="fill-rule:evenodd;stroke:#000000;stroke-width:1.0000000pt;"
     id="path845"
     sodipodi:cx="-8.8582678"
     sodipodi:cy="5.8661418"
     sodipodi:rx="1.7716535"
     sodipodi:ry="1.7716535"
     d="M -7.0866143 5.8661418 A 1.7716535 1.7716535 0 1 0 -10.629921,5.8661418 A 1.7716535 1.7716535 0 1 0 -7.0866143 5.8661418 z"
     transform="matrix(1.046367,0.000000,0.000000,1.041076,87.96279,127.7919)" />
  <path
     sodipodi:type="arc"
     style="fill-rule:evenodd;stroke:#000000;stroke-width:1.0000000pt;"
     id="path846"
     sodipodi:cx="-8.8582678"
     sodipodi:cy="5.8661418"
     sodipodi:rx="1.7716535"
     sodipodi:ry="1.7716535"
     d="M -7.0866143 5.8661418 A 1.7716535 1.7716535 0 1 0 -10.629921,5.8661418 A 1.7716535 1.7716535 0 1 0 -7.0866143 5.8661418 z"
     transform="matrix(1.046367,0.000000,0.000000,1.041076,87.96279,136.4709)" />
  <rect
     style="fill:#46a046;fill-rule:evenodd;stroke:#000000;stroke-width:1.0437174pt;fill-opacity:1.0000000;"
     id="rect847"
     width="4.6587077"
     height="9.2717294"
     x="14.907311"
     y="136.16237"
     transform="matrix(0.992421,-0.122887,0.124120,0.992267,0.000000,0.000000)" />
  <path
     sodipodi:type="arc"
     style="fill-rule:evenodd;stroke:#000000;stroke-width:1.0000000pt;fill:#ffffff;fill-opacity:1.0000000;"
     id="path848"
     sodipodi:cx="-17.716536"
     sodipodi:cy="14.724409"
     sodipodi:rx="3.5433071"
     sodipodi:ry="3.5433071"
     d="M -14.173229 14.724409 A 3.5433071 3.5433071 0 1 0 -21.259843,14.724409 A 3.5433071 3.5433071 0 1 0 -14.173229 14.724409 z"
     transform="matrix(1.046367,0.000000,0.000000,1.041076,69.42479,91.55397)" />
  <path
     sodipodi:type="arc"
     style="fill-rule:evenodd;stroke:#000000;stroke-width:1.0000000pt;fill:#ffffff;fill-opacity:1.0000000;"
     id="path849"
     sodipodi:cx="-17.716536"
     sodipodi:cy="14.724409"
     sodipodi:rx="3.5433071"
     sodipodi:ry="3.5433071"
     d="M -14.173229 14.724409 A 3.5433071 3.5433071 0 1 0 -21.259843,14.724409 A 3.5433071 3.5433071 0 1 0 -14.173229 14.724409 z"
     transform="matrix(1.046367,0.000000,0.000000,1.041076,123.7308,92.20465)" />
  <path
     sodipodi:type="arc"
     style="fill-rule:evenodd;stroke:#000000;stroke-width:1.0000000pt;fill:#ffffff;fill-opacity:1.0000000;"
     id="path850"
     sodipodi:cx="-17.716536"
     sodipodi:cy="14.724409"
     sodipodi:rx="3.5433071"
     sodipodi:ry="3.5433071"
     d="M -14.173229 14.724409 A 3.5433071 3.5433071 0 1 0 -21.259843,14.724409 A 3.5433071 3.5433071 0 1 0 -14.173229 14.724409 z"
     transform="matrix(1.046367,0.000000,0.000000,1.041076,69.42479,102.6205)" />
  <path
     sodipodi:type="arc"
     style="fill-rule:evenodd;stroke:#000000;stroke-width:1.0000000pt;fill:#ffffff;fill-opacity:1.0000000;"
     id="path851"
     sodipodi:cx="-17.716536"
     sodipodi:cy="14.724409"
     sodipodi:rx="3.5433071"
     sodipodi:ry="3.5433071"
     d="M -14.173229 14.724409 A 3.5433071 3.5433071 0 1 0 -21.259843,14.724409 A 3.5433071 3.5433071 0 1 0 -14.173229 14.724409 z"
     transform="matrix(1.046367,0.000000,0.000000,1.041076,123.7308,103.2712)" />
  <rect
     style="fill:none;fill-rule:evenodd;stroke:#000000;stroke-width:0.90720997pt;"
     id="rect852"
     width="33.432655"
     height="18.544432"
     x="61.291352"
     y="103.09418" />
</svg>
