<?xml version="1.0" encoding="UTF-8" standalone="no"?>
<!DOCTYPE svg PUBLIC "-//W3C//DTD SVG 20010904//EN"
"http://www.w3.org/TR/2001/REC-SVG-20010904/DTD/svg10.dtd">
<!-- Created with Inkscape (http://www.inkscape.org/) -->
<svg
   id="svg1"
   sodipodi:version="0.32"
   inkscape:version="0.39"
   width="128.00000pt"
   height="128.00000pt"
   sodipodi:docbase="/home/francois/Domus/images/dessin/Xfce/icones/essais"
   sodipodi:docname="sound.svg"
   xmlns="http://www.w3.org/2000/svg"
   xmlns:cc="http://web.resource.org/cc/"
   xmlns:inkscape="http://www.inkscape.org/namespaces/inkscape"
   xmlns:sodipodi="http://sodipodi.sourceforge.net/DTD/sodipodi-0.dtd"
   xmlns:rdf="http://www.w3.org/1999/02/22-rdf-syntax-ns#"
   xmlns:dc="http://purl.org/dc/elements/1.1/"
   xmlns:xlink="http://www.w3.org/1999/xlink">
  <defs
     id="defs3">
    <linearGradient
       id="linearGradient839">
      <stop
         style="stop-color:#46a046;stop-opacity:1.0000000;"
         offset="0.0000000"
         id="stop840" />
      <stop
         style="stop-color:#df421e;stop-opacity:1.0000000;"
         offset="0.39364964"
         id="stop841" />
      <stop
         style="stop-color:#ada7c8;stop-opacity:1.0000000;"
         offset="0.72036445"
         id="stop842" />
      <stop
         style="stop-color:#eed680;stop-opacity:1.0000000;"
         offset="1.0000000"
         id="stop843" />
    </linearGradient>
    <linearGradient
       xlink:href="#linearGradient839"
       id="linearGradient836"
       x1="1.3267924e-17"
       y1="0.50000000"
       x2="1.0000000"
       y2="0.50000000" />
  </defs>
  <sodipodi:namedview
     id="base"
     pagecolor="#ffffff"
     bordercolor="#666666"
     borderopacity="1.0"
     inkscape:pageopacity="0.0"
     inkscape:pageshadow="2"
     inkscape:zoom="3.5521067"
     inkscape:cx="69.198600"
     inkscape:cy="71.601126"
     inkscape:window-width="751"
     inkscape:window-height="909"
     showgrid="true"
     snaptogrid="true"
     gridspacingx="1.0000000mm"
     gridspacingy="1.0000000mm"
     inkscape:window-x="237"
     inkscape:window-y="0" />
  <path
     sodipodi:type="arc"
     style="fill:#9db8d2;fill-opacity:1.0000000;fill-rule:evenodd;stroke:#000000;stroke-width:9.5334082;stroke-miterlimit:4.0000000;stroke-opacity:0.47954544;"
     id="path2165"
     sodipodi:cx="100.98425"
     sodipodi:cy="78.503937"
     sodipodi:rx="44.291340"
     sodipodi:ry="70.866142"
     d="M 145.27559 78.503937 A 44.291340 70.866142 0 1 0 56.692913,78.503937 A 44.291340 70.866142 0 1 0 145.27559 78.503937 z"
     transform="matrix(1.019493,0.260002,-0.261805,1.012475,-19.32200,-24.90466)" />
  <path
     style="fill:#4b6983;fill-rule:evenodd;stroke:#000000;stroke-width:7.5000000;stroke-linejoin:round;stroke-miterlimit:4.0000000;stroke-opacity:0.47727272;"
     d="M 96.333782,15.906688 L 64.437262,151.59087 L 128.20121,119.93781 C 134.09289,114.75988 141.67432,113.07375 145.22304,101.28280 C 148.77176,89.491850 146.59897,83.220238 141.86600,74.702102 L 141.86600,74.702102 L 96.333782,15.906688 z "
     id="path1539"
     sodipodi:nodetypes="ccczccc" />
  <path
     style="fill:#4b6983;fill-rule:evenodd;stroke:#000000;stroke-width:3.2026734;stroke-linejoin:round;"
     d="M 96.333782,15.906688 L 64.437262,151.59087 L 128.20121,119.93781 C 134.09289,114.75988 141.67432,113.07375 145.22304,101.28280 C 148.77176,89.491850 146.59897,83.220238 141.86600,74.702102 L 96.333782,15.906688 z "
     id="path831"
     sodipodi:nodetypes="ccczcc" />
  <path
     sodipodi:type="arc"
     style="fill:#9db8d2;fill-opacity:1.0000000;fill-rule:evenodd;stroke:#000000;stroke-width:5.0000000;"
     id="path825"
     sodipodi:cx="100.98425"
     sodipodi:cy="78.503937"
     sodipodi:rx="44.291340"
     sodipodi:ry="70.866142"
     d="M 145.27559 78.503937 A 44.291340 70.866142 0 1 0 56.692913,78.503937 A 44.291340 70.866142 0 1 0 145.27559 78.503937 z"
     transform="matrix(1.019493,0.260002,-0.261805,1.012475,-19.32200,-24.90466)" />
  <path
     sodipodi:type="arc"
     style="fill:#7590ae;fill-opacity:1.0000000;fill-rule:evenodd;stroke:#000000;stroke-width:5.1746888;stroke-miterlimit:4.0000000;stroke-opacity:0.45909092;"
     id="path4029"
     sodipodi:cx="102.75591"
     sodipodi:cy="85.590553"
     sodipodi:rx="28.346457"
     sodipodi:ry="56.692913"
     d="M 131.10237 85.590553 A 28.346457 56.692913 0 1 0 74.409456,85.590553 A 28.346457 56.692913 0 1 0 131.10237 85.590553 z"
     transform="matrix(1.227594,0.313074,-0.288269,1.114812,-42.35540,-47.46896)" />
  <path
     sodipodi:type="arc"
     style="fill:#7590ae;fill-opacity:1.0000000;fill-rule:evenodd;stroke:#000000;stroke-width:2.2747321;"
     id="path826"
     sodipodi:cx="102.75591"
     sodipodi:cy="85.590553"
     sodipodi:rx="28.346457"
     sodipodi:ry="56.692913"
     d="M 131.10237 85.590553 A 28.346457 56.692913 0 1 0 74.409456,85.590553 A 28.346457 56.692913 0 1 0 131.10237 85.590553 z"
     transform="matrix(1.227594,0.313074,-0.288269,1.114812,-42.35540,-47.46896)" />
  <path
     style="fill:#000000;fill-opacity:0.10454542;fill-rule:evenodd;stroke:none;stroke-width:1.0000000pt;stroke-linecap:butt;stroke-linejoin:miter;stroke-opacity:1.0000000;"
     d="M 60.043603,20.646068 C 60.043603,20.646068 80.454033,34.370318 81.509743,60.763108 C 82.565453,87.155902 73.415953,101.93586 70.952623,106.86252 C 68.489303,111.78918 62.506933,127.97676 46.671251,143.10862 C 59.339791,139.94148 86.084487,137.83006 96.641606,75.543075 C 101.92017,31.906988 82.213555,7.6256278 60.043603,20.646068 z "
     id="path2788"
     sodipodi:nodetypes="cccccc" />
  <path
     sodipodi:type="arc"
     style="fill:#314e6c;fill-opacity:1.0000000;fill-rule:evenodd;stroke:#000000;stroke-width:4.4529762;stroke-miterlimit:4.0000000;stroke-opacity:0.49999997;"
     id="path5272"
     sodipodi:cx="33.661419"
     sodipodi:cy="51.929134"
     sodipodi:rx="12.401575"
     sodipodi:ry="19.488190"
     d="M 46.062994 51.929134 A 12.401575 19.488190 0 1 0 21.259844,51.929134 A 12.401575 19.488190 0 1 0 46.062994 51.929134 z"
     transform="matrix(1.019493,0.260002,-0.299993,1.160166,54.71830,15.23604)" />
  <path
     sodipodi:type="arc"
     style="fill:#314e6c;fill-opacity:1.0000000;fill-rule:evenodd;stroke:#000000;stroke-width:1.0000000pt;"
     id="path827"
     sodipodi:cx="33.661419"
     sodipodi:cy="51.929134"
     sodipodi:rx="12.401575"
     sodipodi:ry="19.488190"
     d="M 46.062994 51.929134 A 12.401575 19.488190 0 1 0 21.259844,51.929134 A 12.401575 19.488190 0 1 0 46.062994 51.929134 z"
     transform="matrix(1.019493,0.260002,-0.299993,1.160166,54.71830,15.23604)" />
  <metadata
     id="metadata17">
    <rdf:RDF
       id="RDF18">
      <cc:Work
         rdf:about=""
         id="Work19">
        <dc:format
           id="format20">image/svg+xml</dc:format>
        <dc:type
           id="type22"
           rdf:resource="http://purl.org/dc/dcmitype/StillImage" />
      </cc:Work>
    </rdf:RDF>
  </metadata>
  <path
     sodipodi:type="arc"
     style="fill:none;fill-opacity:1.0000000;fill-rule:evenodd;stroke:#000000;stroke-width:7.1500564;stroke-miterlimit:4.0000000;stroke-opacity:0.46136364;"
     id="path922"
     sodipodi:cx="100.98425"
     sodipodi:cy="78.503937"
     sodipodi:rx="44.291340"
     sodipodi:ry="70.866142"
     d="M 145.27559 78.503937 A 44.291340 70.866142 0 1 0 56.692913,78.503937 A 44.291340 70.866142 0 1 0 145.27559 78.503937 z"
     transform="matrix(1.019493,0.260002,-0.261805,1.012475,-19.32200,-24.90466)" />
  <path
     style="fill:#ffffff;fill-opacity:0.48863634;fill-rule:evenodd;stroke:none;stroke-width:1.0000000pt;stroke-linecap:butt;stroke-linejoin:miter;stroke-opacity:1.0000000;"
     d="M 60.747414,145.22003 C 83.621169,148.38717 131.48009,65.689769 89.955438,20.997978 C 118.45965,61.115018 91.363053,131.49578 60.747414,145.22003 z "
     id="path923"
     sodipodi:nodetypes="ccc" />
  <path
     style="fill:#ffffff;fill-opacity:0.63863635;fill-rule:evenodd;stroke:none;stroke-width:1.0000000pt;stroke-linecap:butt;stroke-linejoin:miter;stroke-opacity:1.0000000;"
     d="M 67.616825,105.10298 C 52.836871,91.730644 67.968727,62.874534 77.118229,63.578344 C 60.930658,81.877340 75.710614,99.472519 67.616825,105.10298 z "
     id="path1545"
     sodipodi:nodetypes="ccc" />
</svg>
