<?xml version="1.0" encoding="UTF-8" standalone="no"?>
<!DOCTYPE svg PUBLIC "-//W3C//DTD SVG 20010904//EN"
"http://www.w3.org/TR/2001/REC-SVG-20010904/DTD/svg10.dtd">
<!-- Created with Sodipodi ("http://www.sodipodi.com/") -->
<svg
   id="svg562"
   sodipodi:version="0.32"
   width="128pt"
   height="128pt"
   sodipodi:docbase="/home/francois"
   sodipodi:docname="test.svg"
   xmlns="http://www.w3.org/2000/svg"
   xmlns:sodipodi="http://sodipodi.sourceforge.net/DTD/sodipodi-0.dtd"
   xmlns:inkscape="http://www.inkscape.org/namespaces/inkscape"
   xmlns:xlink="http://www.w3.org/1999/xlink"
   inkscape:version="0.38.1">
  <defs
     id="defs564" />
  <sodipodi:namedview
     id="base"
     snaptogrid="false"
     showgrid="true"
     gridspacingx="1mm"
     gridspacingy="1mm"
     inkscape:zoom="2.8359375"
     inkscape:cx="64.000000"
     inkscape:cy="64.000000"
     inkscape:window-width="1131"
     inkscape:window-height="829"
     inkscape:window-x="191"
     inkscape:window-y="177" />
  <path
     style="font-size:12.000;fill:#e8e8e7;fill-rule:evenodd;stroke:#000000;stroke-width:3.656701;"
     d="M 156.8815 16.80374 L 4.519288 16.80374 L 4.519288 144.3627 L 156.8815 144.3627 "
     id="path603"
     sodipodi:nodetypes="cccc" />
  <g
     id="g622"
     transform="matrix(0.977273,0.000000,0.000000,0.972973,1.056510,5.924835)">
    <rect
       style="font-size:12.000;fill:#9a999a;fill-rule:evenodd;stroke-width:1;fill-opacity:1.0000;"
       id="rect612"
       width="7.086613"
       height="7.086611"
       x="14.17323"
       y="21.81100" />
    <rect
       style="font-size:12.000;fill:#ffffff;fill-rule:evenodd;stroke-width:1;fill-opacity:0.5767;"
       id="rect613"
       width="7.086615"
       height="7.086611"
       x="17.71654"
       y="25.35431" />
    <rect
       style="font-size:12.000;fill:#9a999a;fill-rule:evenodd;stroke-width:1;fill-opacity:1.0000;"
       id="rect614"
       width="7.086613"
       height="7.086611"
       x="14.17323"
       y="35.98423" />
    <rect
       style="font-size:12.000;fill:#ffffff;fill-rule:evenodd;stroke-width:1;fill-opacity:0.5767;"
       id="rect615"
       width="7.086615"
       height="7.086611"
       x="17.71654"
       y="39.52754" />
    <rect
       style="font-size:12.000;fill:#9a999a;fill-rule:evenodd;stroke-width:1;fill-opacity:1.0000;"
       id="rect616"
       width="7.086613"
       height="7.086611"
       x="14.17323"
       y="50.15745" />
    <rect
       style="font-size:12.000;fill:#ffffff;fill-rule:evenodd;stroke-width:1;fill-opacity:0.5767;"
       id="rect617"
       width="7.086615"
       height="7.086611"
       x="17.71654"
       y="53.70076" />
    <rect
       style="font-size:12.000;fill:#9a999a;fill-rule:evenodd;stroke-width:1;fill-opacity:1.0000;"
       id="rect618"
       width="7.086613"
       height="7.086611"
       x="14.17323"
       y="64.33068" />
    <rect
       style="font-size:12.000;fill:#ffffff;fill-rule:evenodd;stroke-width:1;fill-opacity:0.5767;"
       id="rect619"
       width="7.086615"
       height="7.086611"
       x="17.71654"
       y="67.87400" />
    <rect
       style="font-size:12.000;fill:#9a999a;fill-rule:evenodd;stroke-width:1;fill-opacity:1.0000;"
       id="rect620"
       width="7.086613"
       height="7.086611"
       x="14.17323"
       y="78.50390" />
    <rect
       style="font-size:12.000;fill:#ffffff;fill-rule:evenodd;stroke-width:1;fill-opacity:0.5767;"
       id="rect621"
       width="7.086615"
       height="7.086611"
       x="17.71654"
       y="82.04721" />
    <rect
       style="font-size:12.000;fill:#9a999a;fill-rule:evenodd;stroke-width:1;fill-opacity:1.0000;"
       id="rect622"
       width="7.086613"
       height="7.086611"
       x="14.17323"
       y="92.67713" />
    <rect
       style="font-size:12.000;fill:#ffffff;fill-rule:evenodd;stroke-width:1;fill-opacity:0.5767;"
       id="rect623"
       width="7.086615"
       height="7.086611"
       x="17.71654"
       y="96.22045" />
    <rect
       style="font-size:12.000;fill:#9a999a;fill-rule:evenodd;stroke-width:1;fill-opacity:1.0000;"
       id="rect624"
       width="7.086613"
       height="7.086611"
       x="14.17323"
       y="106.8504" />
    <rect
       style="font-size:12.000;fill:#ffffff;fill-rule:evenodd;stroke-width:1;fill-opacity:0.5767;"
       id="rect625"
       width="7.086615"
       height="7.086611"
       x="17.71654"
       y="110.3937" />
    <rect
       style="font-size:12.000;fill:#9a999a;fill-rule:evenodd;stroke-width:1;fill-opacity:1.0000;"
       id="rect626"
       width="7.086613"
       height="7.086611"
       x="14.17323"
       y="121.0236" />
    <rect
       style="font-size:12.000;fill:#ffffff;fill-rule:evenodd;stroke-width:1;fill-opacity:0.5767;"
       id="rect627"
       width="7.086615"
       height="7.086611"
       x="17.71654"
       y="124.5669" />
  </g>
  <g
     id="g23"
     transform="matrix(0.723158,0.000000,0.000000,0.702824,-78.66851,-179.4962)"
     style="fill:#000000;fill-opacity:0.5;stroke:none;">
    <path
       style="fill:#020202;fill-opacity:1.0000;fill-rule:evenodd;stroke:#000002;stroke-opacity:1.0000;stroke-width:1pt;stroke-linejoin:miter;stroke-linecap:butt;"
       id="path14"
       d="M 143.756 326.774 C 144.294 326.684 157.709 333.765 166.726 336.212 C 182.805 340.321 197.482 352.688 204.576 359.792 C 205.102 360.4 210.669 355.624 216.495 355.968 C 224.453 356.45 249.077 363.374 252.367 358.659 C 254.362 355.891 254.219 352.495 256.708 351.104 C 258.048 350.729 251.727 339.168 258.445 335.464 C 263.235 333.07 267.294 346.473 268.524 347.975 C 269.075 348.647 271.998 348.811 271.652 347.28 C 271.277 345.617 266.549 332.756 272.347 330.598 C 281.764 326.869 280.095 347.054 280.34 347.628 C 280.861 348.85 313.137 349.792 315.094 364.31 C 316.226 372.3 289.236 382.627 286.596 384.467 C 283.957 386.307 284.177 389.25 285.206 391.071 C 286.389 393.046 294.252 399.712 293.2 402.887 C 292.477 404.721 277.802 397.999 276.865 399.412 C 274.728 402.111 287.548 408.867 283.121 413.661 C 281.366 414.809 261.174 405.207 261.225 405.32 C 260.683 405.526 232.693 410.433 211.179 403.929 C 210.421 403.715 197.371 416.535 195.887 416.094 C 193.858 415.35 198.878 404.944 198.32 402.887 C 197.408 401.741 189.069 407.54 188.589 404.625 C 188.015 400.794 195.907 396.39 195.54 393.851 C 193.505 379.427 196.449 371.004 201.448 363.963 C 203.115 361.371 181.856 345.317 166.465 338.981 C 151.075 332.645 142.841 327.275 143.756 326.774 z "
       transform="matrix(1 0 0 1 4.86564 17.0296)" />
    <path
       style="fill:#ffffff;fill-opacity:1.0000;fill-rule:evenodd;stroke:#000000;stroke-opacity:1.0000;stroke-width:0.6pt;stroke-linejoin:miter;stroke-linecap:butt;"
       id="path7"
       d="M 286.934 392.031 C 286.765 391.441 297.437 384.986 298.982 386.47 C 301.763 387.478 287.032 392.78 286.934 392.031 z " />
    <path
       style="fill:#ffffff;fill-opacity:1.0000;fill-rule:evenodd;stroke:#000000;stroke-opacity:1.0000;stroke-width:0.6pt;stroke-linejoin:miter;stroke-linecap:butt;"
       id="path8"
       d="M 292.031 397.901 C 291.091 397.333 298.42 388.787 300.218 389.714 C 302.843 392.322 291.908 398.104 292.031 397.901 z " />
    <path
       style="fill:#020202;fill-opacity:1.0000;fill-rule:evenodd;stroke:#000000;stroke-opacity:1.0000;stroke-width:0.6pt;stroke-linejoin:miter;stroke-linecap:butt;"
       id="path13"
       d="M 320.916 358.358 C 320.025 357.621 313.038 368.645 314.583 369.789 C 315.512 370.484 321.314 358.751 320.916 358.358 z " />
    <ellipse
       style="stroke:#000000;fill:#ffffff;fill-opacity:1.0000;fill-rule:evenodd;stroke-opacity:1.0000;stroke-width:0.6pt;stroke-linejoin:miter;stroke-linecap:butt;"
       id="ellipse17"
       cx="288.864754"
       cy="374.586539"
       rx="3.012037"
       ry="3.398196"
       transform="matrix(0.9253 0 0 0.933788 22.0283 24.352)" />
    <path
       style="fill:#020202;fill-opacity:1.0000;fill-rule:evenodd;stroke:#000000;stroke-opacity:1.0000;stroke-width:0.6pt;stroke-linejoin:miter;stroke-linecap:butt;"
       id="path18"
       d="M 320.916 358.358 C 320.475 357.846 318.135 369.726 319.217 370.252 C 320.146 370.947 321.764 358.976 320.916 358.358 z "
       transform="matrix(1 0 0 1 -8.0321 -1.54463)" />
    <path
       style="fill:#ffffff;fill-opacity:1.0000;fill-rule:evenodd;stroke:#000000;stroke-opacity:1.0000;stroke-width:0.6pt;stroke-linejoin:miter;stroke-linecap:butt;"
       id="path21"
       d="M 321.366 357.908 C 318.595 359.867 322.887 370.953 329.946 364.48 C 324.4 364.643 322.55 363.019 321.366 357.908 z "
       transform="matrix(1 0 0 1 -38.3069 14.983)" />
  </g>
  <path
     style="font-size:12.000;fill:#a6a6a6;fill-rule:evenodd;stroke:none;stroke-width:1;fill-opacity:1.0000;"
     d="M 94.55151 51.27914 L 80.70040 37.48898 L 80.70040 37.48898 L 66.84929 51.27914 L 66.84929 51.27914 L 94.55151 51.27914 z "
     id="path680"
     sodipodi:nodetypes="cccccc" />
  <path
     style="font-size:12.000;fill:#ffffff;fill-rule:evenodd;stroke:none;stroke-width:1;fill-opacity:0.6138;"
     d="M 98.01428 54.72667 L 84.16317 40.93652 L 84.16317 40.93652 L 70.31207 54.72667 L 70.31207 54.72667 L 98.01428 54.72667 z "
     id="path681"
     sodipodi:nodetypes="cccccc" />
</svg>
