<?xml version="1.0" encoding="UTF-8" standalone="no"?>
<!DOCTYPE svg PUBLIC "-//W3C//DTD SVG 20010904//EN"
"http://www.w3.org/TR/2001/REC-SVG-20010904/DTD/svg10.dtd">
<!-- Created with Inkscape (http://www.inkscape.org/) -->
<svg
   id="svg1"
   sodipodi:version="0.32"
   inkscape:version="0.38.1"
   width="128.00000pt"
   height="128.00000pt"
   sodipodi:docbase="/usr/share/icons/Fuzzy/scalable/apps"
   sodipodi:docname="xfce-trash_full.svg"
   xmlns="http://www.w3.org/2000/svg"
   xmlns:inkscape="http://www.inkscape.org/namespaces/inkscape"
   xmlns:sodipodi="http://sodipodi.sourceforge.net/DTD/sodipodi-0.dtd"
   xmlns:xlink="http://www.w3.org/1999/xlink">
  <defs
     id="defs3">
    <linearGradient
       id="linearGradient837">
      <stop
         style="stop-color:#e6e6e6;stop-opacity:1.0000000;"
         offset="0.0000000"
         id="stop838" />
      <stop
         style="stop-color:#929292;stop-opacity:1.0000000;"
         offset="0.19702290"
         id="stop841" />
      <stop
         style="stop-color:#3e3f3f;stop-opacity:1.0000000;"
         offset="1.0000000"
         id="stop840" />
    </linearGradient>
    <linearGradient
       id="linearGradient827">
      <stop
         style="stop-color:#e0c39e;stop-opacity:1.0000000;"
         offset="0.0000000"
         id="stop828" />
      <stop
         style="stop-color:#c9aa83;stop-opacity:1.0000000;"
         offset="0.34664121"
         id="stop834" />
      <stop
         style="stop-color:#b39169;stop-opacity:1.0000000;"
         offset="1.0000000"
         id="stop829" />
    </linearGradient>
    <linearGradient
       xlink:href="#linearGradient827"
       id="linearGradient830"
       x1="0.14754099"
       y1="0.57948720"
       x2="0.45901638"
       y2="0.53846157" />
    <linearGradient
       xlink:href="#linearGradient837"
       id="linearGradient835"
       x1="0.68196720"
       y1="0.32795700"
       x2="0.96721309"
       y2="0.32795700"
       spreadMethod="reflect" />
    <radialGradient
       xlink:href="#linearGradient827"
       id="radialGradient836"
       cx="0.50000000"
       cy="0.50000000"
       r="0.50000000"
       fx="0.50000000"
       fy="0.50000000" />
  </defs>
  <sodipodi:namedview
     id="base"
     pagecolor="#ffffff"
     bordercolor="#666666"
     borderopacity="1.0"
     inkscape:pageopacity="0.0"
     inkscape:pageshadow="2"
     inkscape:zoom="4.5312500"
     inkscape:cx="63.172745"
     inkscape:cy="53.656317"
     inkscape:window-width="671"
     inkscape:window-height="909"
     showgrid="true"
     gridspacingx="1.0000000mm"
     gridspacingy="1.0000000mm"
     snaptogrid="false"
     showguides="true"
     snaptoguides="true"
     inkscape:window-x="0"
     inkscape:window-y="31" />
  <path
     style="fill:none;fill-rule:evenodd;stroke:#000000;stroke-width:13.821846;stroke-linecap:round;stroke-linejoin:round;stroke-opacity:0.49999997;"
     d="M 76.190115,13.155026 C 48.822655,13.155026 26.604247,23.940220 26.604247,37.228082 C 26.604247,38.464606 26.866805,39.669801 27.237748,40.856310 C 26.927698,40.353002 26.505684,39.909957 26.229904,39.387746 L 40.829230,135.13281 C 40.829230,135.13282 75.153994,164.01948 109.47773,135.13281 C 109.47773,135.13282 124.70702,43.617693 125.17130,40.827525 C 125.53512,39.652103 125.77598,38.452490 125.77598,37.228082 C 125.77598,23.940220 103.55758,13.155015 76.190115,13.155026 z "
     id="path841" />
  <path
     sodipodi:type="arc"
     style="fill:#ffffff;fill-opacity:1.0000000;fill-rule:evenodd;stroke:#000000;stroke-width:6.2825889;stroke-dasharray:none;"
     id="path831"
     sodipodi:cx="74.409447"
     sodipodi:cy="44.842518"
     sodipodi:rx="46.062992"
     sodipodi:ry="26.574802"
     d="M 120.47244 44.842518 A 46.062992 26.574802 0 1 0 28.346455,44.842518 A 46.062992 26.574802 0 1 0 120.47244 44.842518 z"
     transform="matrix(1.084401,0.000000,0.000000,0.912626,-4.311633,-3.883994)" />
  <path
     style="fill:url(#linearGradient830);fill-rule:evenodd;stroke:#000000;stroke-width:6.2500000;stroke-linecap:round;stroke-linejoin:round;stroke-dasharray:none;"
     d="M 26.048676,39.227700 L 40.740400,135.66868 C 40.740400,135.66868 75.321717,164.77210 109.90301,135.66868 C 109.90301,135.66868 125.95025,39.227700 125.95025,39.227700 C 110.58078,68.331123 41.418150,68.331123 26.048676,39.227700 z "
     id="path825"
     sodipodi:nodetypes="ccccc" />
  <path
     style="fill:#ffffff;fill-rule:evenodd;stroke:#000000;stroke-width:2.5963886;"
     d="M 61.915686,27.065870 C 61.915686,27.065870 52.161647,23.502819 52.161647,23.502819 C 52.161647,23.502819 52.161647,23.502819 51.790392,27.032088 C 51.419136,30.561336 51.047862,34.090606 54.848621,34.435348 C 58.649371,34.780080 65.879588,38.998835 66.250853,35.469565 C 66.622108,31.940296 66.993363,28.411048 66.993363,28.411048 C 66.993363,28.411048 71.907898,18.167994 63.935143,21.007767 C 55.962397,23.847562 55.591142,27.376820 55.591142,27.376820 C 55.591142,27.376820 62.078856,38.654082 57.906851,41.838608 C 53.734836,45.023135 54.848621,34.435348 51.047862,34.090606 C 47.247132,33.745863 47.989642,26.687346 47.989642,26.687346 C 47.989642,26.687346 44.931413,19.284065 44.188902,26.342603 C 43.446382,33.401121 42.703871,40.459638 46.504612,40.804391 C 50.305351,41.149134 57.164321,48.897147 61.336336,45.712609 C 65.508332,42.528083 74.223608,32.629781 74.223608,32.629781 C 74.223608,32.629781 64.677672,13.949250 60.876913,13.604507 C 57.076172,13.259775 57.447428,9.7305063 53.275423,12.915022 C 49.103427,16.099559 47.989642,26.687346 44.188902,26.342603 C 40.388152,25.997861 32.044146,32.366903 35.473646,36.240905 C 38.903121,40.114906 35.102389,39.770163 42.332606,43.988918 C 49.562831,48.207651 61.336336,45.712609 65.137076,46.057363 C 68.937817,46.402095 76.910564,43.562311 77.653093,36.503793 C 78.395613,29.445276 72.650409,11.109466 68.849668,10.764723 C 65.048928,10.419981 48.732172,19.628807 48.732172,19.628807 C 48.732172,19.628807 45.302687,15.754806 41.130673,18.939333 C 36.958676,22.123849 37.701196,15.065342 36.587421,25.653118 C 35.473646,36.240905 34.359860,46.828702 34.359860,46.828702"
     id="path857" />
  <path
     style="fill:#ffffff;fill-rule:evenodd;stroke:#000000;stroke-width:2.5963886;"
     d="M 82.403870,36.285551 C 82.403870,36.285551 72.649830,32.722500 72.649830,32.722500 C 72.649830,32.722500 72.649830,32.722500 72.278575,36.251769 C 71.907320,39.781018 71.536046,43.310287 75.336805,43.655029 C 79.137556,43.999761 86.367772,48.218516 86.739037,44.689257 C 87.110292,41.159977 87.481548,37.630729 87.481548,37.630729 C 87.481548,37.630729 92.396083,27.387675 84.423327,30.227448 C 76.450580,33.067243 76.079325,36.596501 76.079325,36.596501 C 76.079325,36.596501 82.567041,47.873773 78.395035,51.058289 C 74.223019,54.242816 75.336805,43.655029 71.536046,43.310287 C 67.735315,42.965544 68.477825,35.907027 68.477825,35.907027 C 68.477825,35.907027 65.419595,28.503746 64.677085,35.562284 C 63.934565,42.620802 63.192053,49.679319 66.992794,50.024072 C 70.793535,50.368815 77.652506,58.116828 81.824520,54.932291 C 85.996517,51.747764 94.711792,41.849463 94.711792,41.849463 C 94.711792,41.849463 85.165856,23.168931 81.365098,22.824188 C 77.564357,22.479456 77.935613,18.950187 73.763607,22.134714 C 69.591610,25.319240 68.477825,35.907027 64.677085,35.562284 C 60.876335,35.217542 52.532329,41.586584 55.961828,45.460586 C 59.391303,49.334587 55.590572,48.989844 62.820789,53.208599 C 70.051014,57.427332 81.824520,54.932291 85.625261,55.277044 C 89.426002,55.621776 97.398752,52.781992 98.141281,45.723474 C 98.883803,38.664957 93.138594,20.329147 89.337853,19.984404 C 85.537113,19.639662 69.220355,28.848488 69.220355,28.848488 C 69.220355,28.848488 65.790870,24.974498 61.618855,28.159014 C 57.446859,31.343530 58.189379,24.285023 57.075604,34.872799 C 55.961828,45.460586 54.848043,56.048383 54.848043,56.048383"
     id="path880" />
  <path
     style="fill:#ffffff;fill-rule:evenodd;stroke:#000000;stroke-width:2.8249309;"
     d="M 102.16969,31.532897 L 103.41722,39.384725 L 108.62271,42.053330 L 116.83727,40.105439 L 114.64086,32.820273 L 111.34624,21.892556 L 105.32809,31.125603 L 106.42630,34.768186 L 111.63178,37.436812 L 110.53357,33.794240 L 104.22988,27.483020 L 101.22079,32.099559 C 101.22079,32.099559 96.300842,44.975199 100.40812,44.001243 C 104.51541,43.027287 123.14098,46.416648 122.04276,42.774065 C 120.94456,39.131472 117.64994,28.203744 117.64994,28.203744 L 97.926170,21.171811 L 96.015294,29.430933 L 106.42630,34.768186 L 117.64994,28.203744 L 116.55173,24.561162 L 117.64994,28.203744 L 106.14075,19.223919"
     id="path883" />
  <path
     style="fill:#ffffff;fill-rule:evenodd;stroke:#000000;stroke-width:2.8249309;"
     d="M 85.725628,10.091315 L 78.612697,13.642891 L 77.633493,19.410019 L 81.962127,26.658229 L 88.249206,22.372163 L 97.679807,15.943060 L 87.064108,12.980925 L 83.920565,15.123964 L 82.941341,20.891091 L 86.084875,18.748064 L 90.207652,10.837887 L 84.899784,9.3568154 C 84.899784,9.3568154 71.140529,8.5377195 73.304850,12.161819 C 75.469171,15.785919 77.839364,34.568416 80.982906,32.425367 C 84.126457,30.282329 93.557063,23.853225 93.557063,23.853225 L 94.330405,2.9277119 L 85.878997,3.5896778 L 83.920565,15.123964 L 93.557063,23.853225 L 96.700599,21.710187 L 93.557063,23.853225 L 98.659034,10.175911"
     id="path884" />
  <path
     style="fill:#ffffff;fill-rule:evenodd;stroke:#000000;stroke-width:2.4260232;"
     d="M 49.016172,98.544123 C 60.484660,82.567398 56.615459,88.988495 60.762929,75.994277 C 64.632139,69.573180 82.933211,59.342857 82.933211,59.342857 C 63.081485,60.884884 47.269536,54.876558 31.498315,44.800070 C 31.498315,44.800070 43.503891,58.801385 39.217278,75.082158 C 35.854586,87.853846 46.260031,78.672759 49.016172,98.544123 z "
     id="path879"
     sodipodi:nodetypes="ccccsc" />
  <path
     style="fill:#ffffff;stroke:#000000;stroke-width:2.4260232;stroke-linecap:round;stroke-linejoin:round;"
     id="path881"
     d="M 113.69489,50.811568 C 118.80971,49.792944 101.31018,61.134659 99.055293,62.232930 C 95.957079,63.821558 93.360110,65.634890 91.396393,67.627953 C 89.981240,69.180477 89.396747,70.564554 89.633844,72.205173 C 89.923913,73.851855 90.468616,75.449120 91.266467,77.029447 C 92.110282,78.628099 93.209065,80.172868 94.142523,81.753531 C 95.464820,84.172918 96.090736,86.710305 96.535296,89.243363 C 96.957259,91.878712 97.585024,94.514166 97.264355,97.192406 C 96.738619,100.29580 95.343324,103.31982 92.829778,106.23962 C 91.223483,108.01190 89.209773,109.67957 87.470851,111.42036 C 86.430249,112.51798 85.676050,113.62873 85.331309,114.81586 C 85.035967,116.07786 85.245862,117.31190 85.512796,118.54648 C 85.809012,119.86675 86.280763,121.15482 86.961891,122.42120 C 87.724538,123.82014 88.538282,125.22149 89.567187,126.56492 C 90.546311,127.81529 91.866538,128.94310 93.116487,130.11407 C 93.491800,130.47464 93.304668,130.29113 93.677409,130.66475 L 85.151438,133.24338 C 84.868703,132.95757 85.015060,133.10218 84.711798,132.80970 C 83.279350,131.46604 81.846511,130.15128 80.732819,128.71512 C 79.596818,127.21818 78.643503,125.67605 77.794869,124.11927 C 76.981636,122.60664 76.415134,121.06706 76.063124,119.48989 C 75.702044,117.80985 75.514512,116.14157 75.941349,114.42608 C 76.480009,112.66220 77.558312,110.98184 79.155842,109.35644 C 80.840028,107.71867 82.807366,106.15280 84.378634,104.48838 C 86.455863,102.17317 87.605706,99.780498 87.953790,97.302851 C 88.175967,94.867766 87.635953,92.470109 87.264595,90.070518 C 86.873760,87.859023 86.283428,85.673744 85.095531,83.567998 C 84.101989,81.922104 82.971382,80.308636 82.103651,78.637545 C 81.178493,76.776383 80.554182,74.901624 80.218595,72.964303 C 79.845019,70.369818 80.901356,68.057566 83.190663,65.630571 C 85.722608,63.122091 88.997204,60.834353 92.826530,58.782951 C 95.144930,57.596752 97.421419,56.610502 100.36390,56.016699 L 113.69489,50.811568 z "
     sodipodi:nodetypes="ccccccccccccccccccccccccccccccccc" />
</svg>
