<?xml version="1.0" encoding="UTF-8" standalone="no"?>
<!DOCTYPE svg PUBLIC "-//W3C//DTD SVG 20010904//EN"
"http://www.w3.org/TR/2001/REC-SVG-20010904/DTD/svg10.dtd">
<!-- Created with Sodipodi ("http://www.sodipodi.com/") -->
<svg
   id="svg559"
   sodipodi:version="0.32"
   width="128pt"
   height="128pt"
   sodipodi:docname="edit.svg"
   sodipodi:docbase="/home/francois/waiting/new_theme/New_clock/panel_theme/Clockwork/scalable/emblems"
   inkscape:version="0.38.1"
   xmlns="http://www.w3.org/2000/svg"
   xmlns:inkscape="http://www.inkscape.org/namespaces/inkscape"
   xmlns:sodipodi="http://sodipodi.sourceforge.net/DTD/sodipodi-0.dtd"
   xmlns:xlink="http://www.w3.org/1999/xlink">
  <defs
     id="defs561" />
  <sodipodi:namedview
     id="base"
     showgrid="true"
     snaptogrid="false"
     gridspacingx="1mm"
     gridspacingy="1mm"
     inkscape:zoom="5.6640625"
     inkscape:cx="64.000000"
     inkscape:cy="64.000000"
     inkscape:window-width="786"
     inkscape:window-height="902"
     inkscape:window-x="0"
     inkscape:window-y="31"
     showguides="true"
     snaptoguides="true">
    <sodipodi:guide
       orientation="horizontal"
       position="98.515862"
       id="guide886" />
    <sodipodi:guide
       orientation="horizontal"
       position="87.922759"
       id="guide887" />
  </sodipodi:namedview>
  <rect
     style="font-size:12.000;fill:#000000;fill-rule:evenodd;stroke:none;stroke-width:3.898938;stroke-linecap:round;stroke-linejoin:round;fill-opacity:0.3545;"
     id="rect574"
     width="117.52331"
     height="139.21440"
     x="19.369264"
     y="19.234470" />
  <rect
     style="font-size:12.000000;fill:#ffffff;fill-rule:evenodd;stroke:#000000;stroke-width:3.7109015;stroke-linecap:round;stroke-linejoin:round;"
     id="rect562"
     width="112.34219"
     height="133.62469"
     x="16.159499"
     y="16.712120" />
  <path
     style="font-size:12.000;fill:#000000;fill-rule:evenodd;stroke:none;stroke-width:2.500000;stroke-opacity:1.0000;fill-opacity:0.3598;"
     d="M 60.492405,81.334160 L 120.52981,154.87560 L 133.17105,147.19540 L 73.133567,73.653900 L 50.439152,57.437290 L 60.492405,81.334160 z "
     id="path578"
     sodipodi:nodetypes="cccccc" />
  <path
     style="font-size:12.000000;fill:none;fill-rule:evenodd;stroke:#000000;stroke-width:6.2701526;"
     d="M 29.776759,27.847520 C 19.563827,24.135720 22.968153,5.5767230 33.181075,5.5767230 C 39.989689,5.5767230 43.394005,13.000320 39.989689,16.712120"
     id="path567"
     sodipodi:nodetypes="ccc" />
  <path
     style="font-size:12.000000;fill:none;fill-rule:evenodd;stroke:#000000;stroke-width:6.2701526;"
     d="M 56.369144,27.847520 C 46.156214,24.135720 49.560539,5.5767230 59.773461,5.5767230 C 66.582075,5.5767230 69.986392,13.000320 66.582075,16.712120"
     id="path568"
     sodipodi:nodetypes="ccc" />
  <path
     style="font-size:12.000000;fill:none;fill-rule:evenodd;stroke:#000000;stroke-width:6.2701526;"
     d="M 82.910205,27.847520 C 72.697273,24.135720 76.101599,5.5767230 86.314566,5.5767230 C 93.123171,5.5767230 96.527516,13.000320 93.123171,16.712120"
     id="path569"
     sodipodi:nodetypes="ccc" />
  <path
     style="font-size:12.000000;fill:none;fill-rule:evenodd;stroke:#000000;stroke-width:6.2701526;"
     d="M 110.14472,27.847520 C 99.931669,24.135720 103.33611,5.5767230 113.54899,5.5767230 C 120.35760,5.5767230 123.76195,13.000320 120.35760,16.712120"
     id="path570"
     sodipodi:nodetypes="ccc" />
  <path
     style="font-size:12.000000;fill:#a20000;fill-rule:evenodd;stroke:#000000;stroke-width:2.3794308;fill-opacity:1.0000000;"
     d="M 68.425631,79.003240 L 137.45003,122.18780 L 147.03332,108.05910 L 78.009046,64.874350 L 54.392526,60.161220 L 68.425631,79.003240 z "
     id="path572"
     sodipodi:nodetypes="cccccc" />
  <path
     style="font-size:12.000000;fill-rule:evenodd;stroke:#000000;stroke-width:2.3794308;"
     d="M 65.193339,72.987410 L 65.193339,72.987410 L 70.943353,64.510080 L 70.943353,64.510080 L 53.949764,59.915540 L 65.193339,72.987410 z "
     id="path573"
     sodipodi:nodetypes="cccccc" />
  <path
     style="fill:#ffffff;fill-rule:evenodd;stroke:none;stroke-opacity:1;stroke-width:1pt;stroke-linejoin:miter;stroke-linecap:butt;fill-opacity:0.69230771;"
     d="M 76.964061,66.206896 L 144.29327,108.28111 L 141.83749,112.33103 L 75.122229,70.481817 L 76.964061,66.206896 z "
     id="path837" />
  <path
     style="fill:#4e4e4a;fill-rule:evenodd;stroke:none;stroke-opacity:1;stroke-width:1pt;stroke-linejoin:miter;stroke-linecap:butt;fill-opacity:0.31538463;"
     d="M 71.971478,74.151724 L 139.49528,116.02463 L 137.03240,120.05517 L 70.124321,78.406190 L 71.971478,74.151724 z "
     id="path838" />
  <path
     id="path871"
     fill="none"
     stroke="black"
     stroke-width="1"
     d="M 24.784972,36.971576 C 25.752540,38.988175 26.236324,38.540042 26.236324,41.004774 C 26.236324,41.004774 26.720107,41.004774 26.720107,41.004774 C 26.720107,38.540042 27.203891,38.988175 28.171459,36.971576 C 27.203891,37.419709 27.203891,37.643775 26.720107,38.540042 C 25.994431,37.867842 25.752540,37.195642 24.784972,36.971576 z M 50.667413,36.971576 C 50.667413,36.971576 50.667413,41.004774 50.667413,41.004774 C 50.667413,41.004774 51.151197,41.004774 51.151197,41.004774 C 51.151197,41.004774 51.151197,36.971576 51.151197,36.971576 C 51.151197,36.971576 50.667413,36.971576 50.667413,36.971576 z M 60.826873,37.195642 C 60.826873,37.195642 60.343090,38.315975 60.343090,38.315975 C 61.310657,40.108508 60.343090,40.780707 62.520122,41.004774 C 62.520122,41.004774 62.520122,40.556641 62.520122,40.556641 C 61.310657,40.108508 61.310657,39.660375 61.310657,38.540042 C 61.310657,38.540042 62.520122,38.540042 62.520122,38.540042 C 62.520122,38.540042 62.520122,38.091909 62.520122,38.091909 C 62.520122,38.091909 61.310657,38.091909 61.310657,38.091909 C 61.310657,38.091909 61.310657,37.195642 61.310657,37.195642 C 61.310657,37.195642 60.826873,37.195642 60.826873,37.195642 z M 28.655243,38.315975 C 26.962000,39.660375 28.655243,41.452907 30.106595,40.780707 C 31.316055,40.108508 31.074163,37.643775 28.655243,38.315975 z M 31.799839,38.091909 C 31.799839,39.212242 31.557947,41.901040 33.734975,40.556641 C 33.734975,40.556641 34.460651,41.004774 34.460651,41.004774 C 34.460651,41.004774 34.460651,38.091909 34.460651,38.091909 C 34.460651,38.091909 33.976867,38.091909 33.976867,38.091909 C 33.976867,38.540042 33.976867,41.004774 32.767407,40.108508 C 32.283623,39.884441 32.283623,38.540042 32.283623,38.091909 C 32.283623,38.091909 31.799839,38.091909 31.799839,38.091909 z M 35.428219,38.091909 C 35.428219,38.091909 35.428219,41.004774 35.428219,41.004774 C 35.428219,41.004774 35.912002,41.004774 35.912002,41.004774 C 35.912002,39.660375 35.912002,38.988175 37.363354,38.540042 C 37.363354,38.540042 37.363354,38.091909 37.363354,38.091909 C 37.363354,38.091909 36.153895,38.540042 36.153895,38.540042 C 36.153895,38.540042 35.428219,38.091909 35.428219,38.091909 z M 40.024166,38.764108 C 40.991734,38.540042 41.233626,38.540042 41.959302,39.212242 C 41.475518,39.212242 40.749842,39.212242 40.266058,39.436308 C 39.298490,40.108508 40.266058,41.676973 41.717410,40.556641 C 41.717410,40.556641 42.443086,41.004774 42.443086,41.004774 C 42.443086,40.556641 42.443086,39.212242 42.201194,38.764108 C 41.717410,37.867842 40.507950,37.867842 40.024166,38.764108 z M 43.410653,38.091909 C 43.410653,38.091909 43.410653,42.125107 43.410653,42.125107 C 43.410653,42.125107 43.894438,42.125107 43.894438,42.125107 C 43.894438,42.125107 43.894438,40.556641 43.894438,40.556641 C 44.136330,40.780707 44.378222,40.780707 44.862006,41.004774 C 47.039034,41.004774 46.313357,36.971576 44.136330,38.540042 C 44.136330,38.540042 43.410653,38.091909 43.410653,38.091909 z M 47.039034,38.091909 C 47.039034,38.091909 47.039034,42.125107 47.039034,42.125107 C 47.039034,42.125107 47.522817,42.125107 47.522817,42.125107 C 47.522817,42.125107 47.522817,40.556641 47.522817,40.556641 C 47.764709,40.780707 48.006601,40.780707 48.490385,41.004774 C 50.667413,41.004774 49.941737,36.971576 47.764709,38.540042 C 47.764709,38.540042 47.039034,38.091909 47.039034,38.091909 z M 52.360657,38.091909 C 52.360657,38.091909 52.360657,41.004774 52.360657,41.004774 C 52.360657,41.004774 52.844441,41.004774 52.844441,41.004774 C 52.844441,41.004774 52.844441,38.091909 52.844441,38.091909 C 52.844441,38.091909 52.360657,38.091909 52.360657,38.091909 z M 56.230929,41.004774 C 56.230929,41.004774 56.230929,40.556641 56.230929,40.556641 C 54.053901,40.332574 54.053901,38.764108 56.230929,38.540042 C 56.230929,38.540042 56.230929,38.091909 56.230929,38.091909 C 55.505252,38.091909 55.021468,38.091909 54.295792,38.540042 C 53.570117,38.988175 53.812008,40.332574 54.537685,40.780707 C 55.021468,41.004774 55.747145,41.004774 56.230929,41.004774 z M 57.440388,38.764108 C 58.407956,38.540042 58.649848,38.540042 59.375524,39.212242 C 58.891740,39.212242 58.166064,39.212242 57.682280,39.436308 C 56.714712,40.108508 57.682280,41.676973 59.133632,40.556641 C 59.133632,40.556641 59.859307,41.004774 59.859307,41.004774 C 59.859307,40.556641 59.859307,39.212242 59.617415,38.764108 C 59.133632,37.867842 57.924172,37.867842 57.440388,38.764108 z M 63.003905,38.091909 C 63.003905,38.091909 63.003905,41.004774 63.003905,41.004774 C 63.003905,41.004774 63.487689,41.004774 63.487689,41.004774 C 63.487689,41.004774 63.487689,38.091909 63.487689,38.091909 C 63.487689,38.091909 63.003905,38.091909 63.003905,38.091909 z M 65.180931,38.315975 C 63.487689,39.660375 65.180931,41.452907 66.632281,40.780707 C 67.841746,40.108508 67.599854,37.643775 65.180931,38.315975 z M 68.325529,38.091909 C 68.325529,38.091909 68.325529,41.004774 68.325529,41.004774 C 68.325529,41.004774 68.809313,41.004774 68.809313,41.004774 C 68.809313,40.556641 68.809313,38.091909 70.018771,38.988175 C 70.502555,39.212242 70.502555,40.556641 70.502555,41.004774 C 70.502555,41.004774 70.986338,41.004774 70.986338,41.004774 C 70.986338,39.884441 71.228230,37.195642 69.051204,38.540042 C 69.051204,38.540042 68.325529,38.091909 68.325529,38.091909 z M 29.139028,38.764108 C 30.590379,38.764108 30.348487,40.108508 29.622812,40.332574 C 28.897135,40.556641 27.929568,39.436308 29.139028,38.764108 z M 44.620113,38.764108 C 46.071465,38.764108 45.829574,40.108508 45.103897,40.332574 C 44.378222,40.556641 43.410653,39.436308 44.620113,38.764108 z M 48.248493,38.764108 C 49.699845,38.764108 49.457953,40.108508 48.732277,40.332574 C 48.006601,40.556641 47.039034,39.436308 48.248493,38.764108 z M 65.664714,38.764108 C 67.116064,38.764108 66.874172,40.108508 66.148497,40.332574 C 65.422822,40.556641 64.455256,39.436308 65.664714,38.764108 z M 41.959302,39.660375 C 41.475518,40.556641 41.233626,40.556641 40.266058,40.332574 C 40.266058,40.332574 40.266058,39.884441 40.266058,39.884441 C 40.266058,39.884441 41.959302,39.660375 41.959302,39.660375 z M 59.375524,39.660375 C 58.891740,40.556641 58.649848,40.556641 57.682280,40.332574 C 57.682280,40.332574 57.682280,39.884441 57.682280,39.884441 C 57.682280,39.884441 59.375524,39.660375 59.375524,39.660375 z "
     style="stroke:#000000;stroke-width:0.23280874;fill:#000000;fill-opacity:1.0000000;" />
  <path
     id="path878"
     fill="none"
     stroke="black"
     stroke-width="1"
     d="M 77.154456,36.976799 C 77.154456,36.976799 77.154456,41.085845 77.154456,41.085845 C 77.154456,41.085845 77.672869,41.085845 77.672869,41.085845 C 77.672869,41.085845 77.672869,37.889921 77.672869,37.889921 C 77.672869,37.889921 78.968900,40.401004 78.968900,40.401004 C 78.968900,40.401004 79.487313,40.401004 79.487313,40.401004 C 79.487313,40.401004 80.524137,37.889921 80.524137,37.889921 C 80.524137,37.889921 80.783344,41.085845 80.783344,41.085845 C 80.783344,41.085845 81.301757,41.085845 81.301757,41.085845 C 81.301757,41.085845 81.301757,36.976799 81.301757,36.976799 C 81.301757,36.976799 80.264931,36.976799 80.264931,36.976799 C 80.264931,36.976799 79.228106,39.487883 79.228106,39.487883 C 79.228106,39.487883 78.191282,36.976799 78.191282,36.976799 C 78.191282,36.976799 77.154456,36.976799 77.154456,36.976799 z M 91.151593,36.976799 C 91.151593,36.976799 91.151593,41.085845 91.151593,41.085845 C 91.151593,41.085845 91.670006,41.085845 91.670006,41.085845 C 91.670006,41.085845 91.670006,36.976799 91.670006,36.976799 C 91.670006,36.976799 91.151593,36.976799 91.151593,36.976799 z M 92.966037,36.976799 C 92.966037,36.976799 92.966037,41.085845 92.966037,41.085845 C 92.966037,41.085845 93.484449,41.085845 93.484449,41.085845 C 93.484449,41.085845 93.484449,36.976799 93.484449,36.976799 C 93.484449,36.976799 92.966037,36.976799 92.966037,36.976799 z M 82.856994,38.346481 C 81.042550,39.716163 82.856994,41.542405 84.412231,40.857564 C 85.708263,40.172724 85.449056,37.661640 82.856994,38.346481 z M 85.967469,38.118200 C 85.967469,38.118200 85.967469,38.574761 85.967469,38.574761 C 85.967469,38.574761 87.781912,38.574761 87.781912,38.574761 C 87.781912,38.574761 85.967469,41.085845 85.967469,41.085845 C 85.967469,41.085845 88.559531,41.085845 88.559531,41.085845 C 88.559531,41.085845 88.559531,40.629284 88.559531,40.629284 C 88.559531,40.629284 86.745087,40.629284 86.745087,40.629284 C 86.745087,40.629284 88.559531,38.118200 88.559531,38.118200 C 88.559531,38.118200 85.967469,38.118200 85.967469,38.118200 z M 89.337150,38.118200 C 89.337150,38.118200 89.337150,41.085845 89.337150,41.085845 C 89.337150,41.085845 89.855562,41.085845 89.855562,41.085845 C 89.855562,41.085845 89.855562,38.118200 89.855562,38.118200 C 89.855562,38.118200 89.337150,38.118200 89.337150,38.118200 z M 95.039687,38.803042 C 96.076511,38.574761 96.335717,38.574761 97.113337,39.259602 C 96.594923,39.259602 95.817306,39.259602 95.298893,39.487883 C 94.262068,40.172724 95.298893,41.770686 96.854130,40.629284 C 96.854130,40.629284 97.631750,41.085845 97.631750,41.085845 C 97.631750,40.629284 97.631750,39.259602 97.372544,38.803042 C 96.854130,37.889921 95.558100,37.889921 95.039687,38.803042 z M 83.375406,38.803042 C 84.930644,38.803042 84.671437,40.172724 83.893819,40.401004 C 83.116200,40.629284 82.079375,39.487883 83.375406,38.803042 z M 97.113337,39.716163 C 96.594923,40.629284 96.335717,40.629284 95.298893,40.401004 C 95.298893,40.401004 95.298893,39.944443 95.298893,39.944443 C 95.298893,39.944443 97.113337,39.716163 97.113337,39.716163 z "
     style="stroke:#000000;stroke-width:0.24325232;fill:#000000;fill-opacity:1.0000000;" />
  <path
     id="path883"
     fill="none"
     stroke="black"
     stroke-width="1"
     d="M 103.41969,36.971550 C 103.41969,36.971550 104.31202,39.157182 104.31202,39.157182 C 104.31202,39.157182 103.19660,41.342815 103.19660,41.342815 C 104.08894,41.099967 104.31202,40.614271 104.53510,39.642878 C 104.53510,39.642878 104.98127,39.642878 104.98127,39.642878 C 105.42743,40.614271 105.42743,40.857119 106.31976,41.342815 C 106.31976,41.342815 105.42743,38.914335 105.42743,38.914335 C 105.42743,38.914335 106.31976,36.971550 106.31976,36.971550 C 105.42743,37.214398 105.42743,37.457246 104.98127,38.428638 C 104.98127,38.428638 103.41969,36.971550 103.41969,36.971550 z M 107.21210,37.214398 C 107.21210,37.214398 106.76593,38.428638 106.76593,38.428638 C 107.65826,40.371423 106.76593,41.099967 108.77368,41.342815 C 108.77368,41.342815 108.77368,40.857119 108.77368,40.857119 C 107.65826,40.371423 107.65826,39.885726 107.65826,38.671487 C 107.65826,38.671487 108.77368,38.671487 108.77368,38.671487 C 108.77368,38.671487 108.77368,38.185790 108.77368,38.185790 C 108.77368,38.185790 107.65826,38.185790 107.65826,38.185790 C 107.65826,38.185790 107.65826,37.214398 107.65826,37.214398 C 107.65826,37.214398 107.21210,37.214398 107.21210,37.214398 z M 111.67375,40.614271 C 110.55834,40.857119 110.33526,40.857119 109.44292,39.885726 C 109.44292,39.885726 111.67375,39.885726 111.67375,39.885726 C 111.22759,37.457246 109.44292,38.185790 108.99676,39.400031 C 108.77368,41.099967 110.78142,42.071359 111.67375,40.614271 z M 112.56608,38.185790 C 112.56608,38.185790 112.56608,41.342815 112.56608,41.342815 C 112.56608,41.342815 113.01225,41.342815 113.01225,41.342815 C 113.01225,39.885726 113.01225,39.157182 114.35075,38.671487 C 114.35075,38.671487 114.35075,38.185790 114.35075,38.185790 C 114.35075,38.185790 113.23533,38.671487 113.23533,38.671487 C 113.23533,38.671487 112.56608,38.185790 112.56608,38.185790 z M 114.79691,38.185790 C 114.79691,38.185790 114.79691,41.342815 114.79691,41.342815 C 114.79691,41.342815 115.24308,41.342815 115.24308,41.342815 C 115.24308,40.857119 115.24308,38.185790 116.35849,39.157182 C 116.80466,39.400031 116.80466,40.857119 116.80466,41.342815 C 116.80466,41.342815 117.25082,41.342815 117.25082,41.342815 C 117.25082,40.857119 117.25082,38.428638 118.14316,39.157182 C 118.58932,39.400031 118.58932,40.857119 118.58932,41.342815 C 118.58932,41.342815 119.25857,41.342815 119.25857,41.342815 C 119.25857,40.614271 119.25857,39.400031 119.03549,38.671487 C 118.58932,38.185790 116.58158,38.185790 115.91233,38.428638 C 115.68924,38.428638 115.68924,38.671487 115.46616,38.671487 C 115.46616,38.671487 114.79691,38.185790 114.79691,38.185790 z M 111.22759,39.400031 C 111.22759,39.400031 109.44292,39.400031 109.44292,39.400031 C 110.11217,38.671487 110.55834,38.428638 111.22759,39.400031 z "
     style="fill:#000000;stroke:#000000;stroke-width:0.23275575;fill-opacity:1.0000000;" />
  <path
     id="path899"
     fill="none"
     stroke="black"
     stroke-width="1"
     d="M 52.371185,50.212952 C 53.338753,52.229551 53.822537,51.781418 53.822537,54.246150 C 53.822537,54.246150 54.306316,54.246150 54.306316,54.246150 C 54.306316,51.781418 54.790106,52.229551 55.757676,50.212952 C 54.790106,50.661085 54.790106,50.885151 54.306316,51.781418 C 53.580644,51.109218 53.338753,50.437018 52.371185,50.212952 z M 78.253626,50.212952 C 78.253626,50.212952 78.253626,54.246150 78.253626,54.246150 C 78.253626,54.246150 78.737406,54.246150 78.737406,54.246150 C 78.737406,54.246150 78.737406,50.212952 78.737406,50.212952 C 78.737406,50.212952 78.253626,50.212952 78.253626,50.212952 z M 88.413086,50.437018 C 88.413086,50.437018 87.929306,51.557351 87.929306,51.557351 C 88.896866,53.349884 87.929306,54.022083 90.106336,54.246150 C 90.106336,54.246150 90.106336,53.798017 90.106336,53.798017 C 88.896866,53.349884 88.896866,52.901751 88.896866,51.781418 C 88.896866,51.781418 90.106336,51.781418 90.106336,51.781418 C 90.106336,51.781418 90.106336,51.333285 90.106336,51.333285 C 90.106336,51.333285 88.896866,51.333285 88.896866,51.333285 C 88.896866,51.333285 88.896866,50.437018 88.896866,50.437018 C 88.896866,50.437018 88.413086,50.437018 88.413086,50.437018 z M 56.241456,51.557351 C 54.548216,52.901751 56.241456,54.694283 57.692806,54.022083 C 58.902266,53.349884 58.660376,50.885151 56.241456,51.557351 z M 59.386056,51.333285 C 59.386056,52.453618 59.144156,55.142416 61.321186,53.798017 C 61.321186,53.798017 62.046866,54.246150 62.046866,54.246150 C 62.046866,54.246150 62.046866,51.333285 62.046866,51.333285 C 62.046866,51.333285 61.563076,51.333285 61.563076,51.333285 C 61.563076,51.781418 61.563076,54.246150 60.353616,53.349884 C 59.869836,53.125817 59.869836,51.781418 59.869836,51.333285 C 59.869836,51.333285 59.386056,51.333285 59.386056,51.333285 z M 63.014436,51.333285 C 63.014436,51.333285 63.014436,54.246150 63.014436,54.246150 C 63.014436,54.246150 63.498216,54.246150 63.498216,54.246150 C 63.498216,52.901751 63.498216,52.229551 64.949566,51.781418 C 64.949566,51.781418 64.949566,51.333285 64.949566,51.333285 C 64.949566,51.333285 63.740106,51.781418 63.740106,51.781418 C 63.740106,51.781418 63.014436,51.333285 63.014436,51.333285 z M 67.610376,52.005484 C 68.577946,51.781418 68.819836,51.781418 69.545516,52.453618 C 69.061726,52.453618 68.336056,52.453618 67.852266,52.677684 C 66.884706,53.349884 67.852266,54.918349 69.303626,53.798017 C 69.303626,53.798017 70.029296,54.246150 70.029296,54.246150 C 70.029296,53.798017 70.029296,52.453618 69.787406,52.005484 C 69.303626,51.109218 68.094166,51.109218 67.610376,52.005484 z M 70.996866,51.333285 C 70.996866,51.333285 70.996866,55.366483 70.996866,55.366483 C 70.996866,55.366483 71.480646,55.366483 71.480646,55.366483 C 71.480646,55.366483 71.480646,53.798017 71.480646,53.798017 C 71.722546,54.022083 71.964436,54.022083 72.448216,54.246150 C 74.625246,54.246150 73.899566,50.212952 71.722546,51.781418 C 71.722546,51.781418 70.996866,51.333285 70.996866,51.333285 z M 74.625246,51.333285 C 74.625246,51.333285 74.625246,55.366483 74.625246,55.366483 C 74.625246,55.366483 75.109026,55.366483 75.109026,55.366483 C 75.109026,55.366483 75.109026,53.798017 75.109026,53.798017 C 75.350926,54.022083 75.592816,54.022083 76.076596,54.246150 C 78.253626,54.246150 77.527946,50.212952 75.350926,51.781418 C 75.350926,51.781418 74.625246,51.333285 74.625246,51.333285 z M 79.946866,51.333285 C 79.946866,51.333285 79.946866,54.246150 79.946866,54.246150 C 79.946866,54.246150 80.430656,54.246150 80.430656,54.246150 C 80.430656,54.246150 80.430656,51.333285 80.430656,51.333285 C 80.430656,51.333285 79.946866,51.333285 79.946866,51.333285 z M 83.817146,54.246150 C 83.817146,54.246150 83.817146,53.798017 83.817146,53.798017 C 81.640116,53.573950 81.640116,52.005484 83.817146,51.781418 C 83.817146,51.781418 83.817146,51.333285 83.817146,51.333285 C 83.091466,51.333285 82.607676,51.333285 81.882006,51.781418 C 81.156326,52.229551 81.398216,53.573950 82.123896,54.022083 C 82.607676,54.246150 83.333356,54.246150 83.817146,54.246150 z M 85.026596,52.005484 C 85.994166,51.781418 86.236056,51.781418 86.961736,52.453618 C 86.477956,52.453618 85.752276,52.453618 85.268496,52.677684 C 84.300926,53.349884 85.268496,54.918349 86.719846,53.798017 C 86.719846,53.798017 87.445516,54.246150 87.445516,54.246150 C 87.445516,53.798017 87.445516,52.453618 87.203626,52.005484 C 86.719846,51.109218 85.510386,51.109218 85.026596,52.005484 z M 90.590116,51.333285 C 90.590116,51.333285 90.590116,54.246150 90.590116,54.246150 C 90.590116,54.246150 91.073906,54.246150 91.073906,54.246150 C 91.073906,54.246150 91.073906,51.333285 91.073906,51.333285 C 91.073906,51.333285 90.590116,51.333285 90.590116,51.333285 z M 92.767143,51.557351 C 91.073906,52.901751 92.767143,54.694283 94.218493,54.022083 C 95.427953,53.349884 95.186063,50.885151 92.767143,51.557351 z M 95.911743,51.333285 C 95.911743,51.333285 95.911743,54.246150 95.911743,54.246150 C 95.911743,54.246150 96.395523,54.246150 96.395523,54.246150 C 96.395523,53.798017 96.395523,51.333285 97.604983,52.229551 C 98.088763,52.453618 98.088763,53.798017 98.088763,54.246150 C 98.088763,54.246150 98.572543,54.246150 98.572543,54.246150 C 98.572543,53.125817 98.814443,50.437018 96.637413,51.781418 C 96.637413,51.781418 95.911743,51.333285 95.911743,51.333285 z M 56.725236,52.005484 C 58.176596,52.005484 57.934696,53.349884 57.209026,53.573950 C 56.483346,53.798017 55.515776,52.677684 56.725236,52.005484 z M 72.206326,52.005484 C 73.657676,52.005484 73.415786,53.349884 72.690106,53.573950 C 71.964436,53.798017 70.996866,52.677684 72.206326,52.005484 z M 75.834706,52.005484 C 77.286056,52.005484 77.044166,53.349884 76.318486,53.573950 C 75.592816,53.798017 74.625246,52.677684 75.834706,52.005484 z M 93.250923,52.005484 C 94.702273,52.005484 94.460383,53.349884 93.734703,53.573950 C 93.009033,53.798017 92.041463,52.677684 93.250923,52.005484 z M 69.545516,52.901751 C 69.061726,53.798017 68.819836,53.798017 67.852266,53.573950 C 67.852266,53.573950 67.852266,53.125817 67.852266,53.125817 C 67.852266,53.125817 69.545516,52.901751 69.545516,52.901751 z M 86.961736,52.901751 C 86.477956,53.798017 86.236056,53.798017 85.268496,53.573950 C 85.268496,53.573950 85.268496,53.125817 85.268496,53.125817 C 85.268496,53.125817 86.961736,52.901751 86.961736,52.901751 z "
     style="stroke:#000000;stroke-width:0.23280874;fill:#000000;fill-opacity:1.0000000;" />
  <path
     id="path884"
     fill="none"
     stroke="black"
     stroke-width="1"
     d="M 25.071698,50.218175 C 25.071698,50.218175 25.071698,54.327221 25.071698,54.327221 C 25.071698,54.327221 25.590111,54.327221 25.590111,54.327221 C 25.590111,54.327221 25.590111,51.131297 25.590111,51.131297 C 25.590111,51.131297 26.886142,53.642380 26.886142,53.642380 C 26.886142,53.642380 27.404555,53.642380 27.404555,53.642380 C 27.404555,53.642380 28.441379,51.131297 28.441379,51.131297 C 28.441379,51.131297 28.700586,54.327221 28.700586,54.327221 C 28.700586,54.327221 29.218999,54.327221 29.218999,54.327221 C 29.218999,54.327221 29.218999,50.218175 29.218999,50.218175 C 29.218999,50.218175 28.182173,50.218175 28.182173,50.218175 C 28.182173,50.218175 27.145348,52.729259 27.145348,52.729259 C 27.145348,52.729259 26.108524,50.218175 26.108524,50.218175 C 26.108524,50.218175 25.071698,50.218175 25.071698,50.218175 z M 39.068835,50.218175 C 39.068835,50.218175 39.068835,54.327221 39.068835,54.327221 C 39.068835,54.327221 39.587248,54.327221 39.587248,54.327221 C 39.587248,54.327221 39.587248,50.218175 39.587248,50.218175 C 39.587248,50.218175 39.068835,50.218175 39.068835,50.218175 z M 40.883279,50.218175 C 40.883279,50.218175 40.883279,54.327221 40.883279,54.327221 C 40.883279,54.327221 41.401691,54.327221 41.401691,54.327221 C 41.401691,54.327221 41.401691,50.218175 41.401691,50.218175 C 41.401691,50.218175 40.883279,50.218175 40.883279,50.218175 z M 30.774236,51.587857 C 28.959792,52.957539 30.774236,54.783781 32.329473,54.098940 C 33.625505,53.414100 33.366298,50.903016 30.774236,51.587857 z M 33.884711,51.359576 C 33.884711,51.359576 33.884711,51.816137 33.884711,51.816137 C 33.884711,51.816137 35.699154,51.816137 35.699154,51.816137 C 35.699154,51.816137 33.884711,54.327221 33.884711,54.327221 C 33.884711,54.327221 36.476773,54.327221 36.476773,54.327221 C 36.476773,54.327221 36.476773,53.870660 36.476773,53.870660 C 36.476773,53.870660 34.662329,53.870660 34.662329,53.870660 C 34.662329,53.870660 36.476773,51.359576 36.476773,51.359576 C 36.476773,51.359576 33.884711,51.359576 33.884711,51.359576 z M 37.254392,51.359576 C 37.254392,51.359576 37.254392,54.327221 37.254392,54.327221 C 37.254392,54.327221 37.772804,54.327221 37.772804,54.327221 C 37.772804,54.327221 37.772804,51.359576 37.772804,51.359576 C 37.772804,51.359576 37.254392,51.359576 37.254392,51.359576 z M 42.956929,52.044418 C 43.993753,51.816137 44.252959,51.816137 45.030579,52.500978 C 44.512165,52.500978 43.734548,52.500978 43.216135,52.729259 C 42.179310,53.414100 43.216135,55.012062 44.771372,53.870660 C 44.771372,53.870660 45.548992,54.327221 45.548992,54.327221 C 45.548992,53.870660 45.548992,52.500978 45.289786,52.044418 C 44.771372,51.131297 43.475342,51.131297 42.956929,52.044418 z M 31.292648,52.044418 C 32.847886,52.044418 32.588679,53.414100 31.811061,53.642380 C 31.033442,53.870660 29.996617,52.729259 31.292648,52.044418 z M 45.030579,52.957539 C 44.512165,53.870660 44.252959,53.870660 43.216135,53.642380 C 43.216135,53.642380 43.216135,53.185819 43.216135,53.185819 C 43.216135,53.185819 45.030579,52.957539 45.030579,52.957539 z "
     style="stroke:#000000;stroke-width:0.24325232;fill:#000000;fill-opacity:1.0000000;" />
</svg>
