<?xml version="1.0" encoding="UTF-8" standalone="no"?>
<!DOCTYPE svg PUBLIC "-//W3C//DTD SVG 20010904//EN"
"http://www.w3.org/TR/2001/REC-SVG-20010904/DTD/svg10.dtd">
<!-- Created with Inkscape (http://www.inkscape.org/) -->
<svg
   id="svg1"
   sodipodi:version="0.32"
   inkscape:version="0.38.1"
   width="128.00000pt"
   height="128.00000pt"
   sodipodi:docbase="/home/francois/Documents/work/artwork/new_theme/Improved/panel_theme/Noname/scalable/emblems"
   sodipodi:docname="schedule.svg"
   xmlns="http://www.w3.org/2000/svg"
   xmlns:inkscape="http://www.inkscape.org/namespaces/inkscape"
   xmlns:sodipodi="http://sodipodi.sourceforge.net/DTD/sodipodi-0.dtd"
   xmlns:xlink="http://www.w3.org/1999/xlink">
  <defs
     id="defs3">
    <linearGradient
       id="linearGradient865">
      <stop
         style="stop-color:#d8d4d6;stop-opacity:1.0000000;"
         offset="0.0000000"
         id="stop866" />
      <stop
         style="stop-color:#3f3f3f;stop-opacity:1.0000000;"
         offset="1.0000000"
         id="stop870" />
    </linearGradient>
    <linearGradient
       id="linearGradient831">
      <stop
         style="stop-color:#ffcb00;stop-opacity:1.0000000;"
         offset="0.0000000"
         id="stop832" />
      <stop
         style="stop-color:#ffffff;stop-opacity:1.0000000;"
         offset="0.50000000"
         id="stop835" />
      <stop
         style="stop-color:#ffffff;stop-opacity:1.0000000;"
         offset="0.75000000"
         id="stop836" />
      <stop
         style="stop-color:#ffffff;stop-opacity:1.0000000;"
         offset="0.87500000"
         id="stop837" />
      <stop
         style="stop-color:#ffffff;stop-opacity:1.0000000;"
         offset="1.0000000"
         id="stop833" />
    </linearGradient>
    <linearGradient
       xlink:href="#linearGradient865"
       id="linearGradient834"
       x1="0.51249999"
       y1="0.36708862"
       x2="0.51875001"
       y2="0.69620252"
       spreadMethod="pad" />
  </defs>
  <sodipodi:namedview
     id="base"
     pagecolor="#ffffff"
     bordercolor="#666666"
     borderopacity="1.0"
     inkscape:pageopacity="0.0"
     inkscape:pageshadow="2"
     inkscape:zoom="5.3906250"
     inkscape:cx="64.000000"
     inkscape:cy="64.000000"
     inkscape:window-width="842"
     inkscape:window-height="902"
     showgrid="true"
     snaptogrid="false"
     gridspacingx="1.0000000mm"
     gridspacingy="1.0000000mm"
     inkscape:window-x="0"
     inkscape:window-y="31" />
  <path
     style="fill:#dae0e0;fill-rule:evenodd;stroke:black;stroke-opacity:1;stroke-width:5.0000000;stroke-linejoin:miter;stroke-linecap:butt;fill-opacity:0.19230767;stroke-dasharray:none;"
     d="M 15.657880,20.122789 C 26.287801,80.359009 51.090951,69.729088 51.090951,80.359009 C 51.090951,90.988930 26.287801,80.359009 15.657880,140.59523 C 51.090951,140.59523 58.177565,140.59523 93.610636,140.59523 C 82.980714,80.359009 58.177565,90.988930 58.177565,80.359009 C 58.177565,69.729088 82.980714,80.359009 93.610636,20.122789 C 65.264179,13.036174 44.004336,13.036174 15.657880,20.122789 z "
     id="path847"
     sodipodi:nodetypes="czcczcc" />
  <g
     id="g882"
     transform="matrix(1.007641,7.936891e-3,-0.359475,0.586882,30.80040,64.89711)"
     style="fill:#cccaca;fill-opacity:0.66153848;stroke:none;stroke-opacity:1.0000000;">
    <path
       style="fill:#cccaca;fill-rule:evenodd;stroke:none;stroke-opacity:1.0000000;stroke-width:1.2500000;stroke-linejoin:round;stroke-linecap:round;fill-opacity:0.66153848;stroke-dasharray:none;"
       d="M 49.391304,51.942029 L 108.98551,51.710145 C 108.98551,51.710145 104.68447,64.924570 89.843889,73.736164 C 84.742440,77.214425 83.478261,76.289855 81.623188,80.463768 C 81.365970,102.85177 81.391304,108.98551 81.391304,112.23189 C 84.173913,127.76812 109.44928,136.81160 109.44928,136.81160 L 43.594203,136.34783 C 43.594203,136.34783 68.637682,119.88406 76.985507,108.05798 C 76.985507,101.33333 77.449275,96.231885 76.753623,80.000001 C 75.053140,76.212561 68.946860,74.048310 67.246377,73.275362 C 61.758454,68.483092 54.879227,64.850242 49.391304,51.942029 z "
       id="path866"
       sodipodi:nodetypes="ccccccccccc" />
    <path
       style="fill:#cccaca;fill-rule:evenodd;stroke:none;stroke-opacity:1.0000000;stroke-width:3.7500000;stroke-linejoin:miter;stroke-linecap:butt;fill-opacity:0.66153848;stroke-dasharray:none;"
       d="M 40.237590,20.354674 C 50.867511,80.590894 75.670661,69.960973 75.670661,80.590894 C 75.670661,91.220815 50.867511,80.590894 40.237590,140.82712 C 75.670661,140.82712 82.757275,140.82712 118.19035,140.82712 C 107.56042,80.590894 82.757275,91.220815 82.757275,80.590894 C 82.757275,69.960973 107.56042,80.590894 118.19035,20.354674 C 89.843889,13.268059 68.584046,13.268059 40.237590,20.354674 z "
       id="path867"
       sodipodi:nodetypes="czcczcc" />
    <rect
       style="fill-rule:evenodd;stroke:none;stroke-width:3.7500000;fill:#cccaca;fill-opacity:0.66153848;stroke-dasharray:none;stroke-opacity:1.0000000;"
       id="rect868"
       width="85.130417"
       height="17.890718"
       x="36.603233"
       y="6.0072618" />
    <rect
       style="fill-rule:evenodd;stroke:none;stroke-width:3.7500000;fill:#cccaca;fill-opacity:0.66153848;stroke-dasharray:none;stroke-opacity:1.0000000;"
       id="rect869"
       width="85.130417"
       height="17.890718"
       x="36.603235"
       y="137.28381" />
    <rect
       style="fill-rule:evenodd;stroke:none;stroke-width:1.0000000pt;fill:#cccaca;fill-opacity:0.66153848;stroke-opacity:1.0000000;"
       id="rect870"
       width="73.507248"
       height="3.2463768"
       x="39.652174"
       y="9.0434780" />
    <rect
       style="fill-rule:evenodd;stroke:none;stroke-width:1.0000000pt;fill:#cccaca;fill-opacity:0.66153848;stroke-opacity:1.0000000;"
       id="rect871"
       width="73.507248"
       height="3.2463768"
       x="38.956522"
       y="140.52174" />
    <path
       style="fill:#cccaca;fill-rule:evenodd;stroke:none;stroke-opacity:1.0000000;stroke-width:1pt;stroke-linejoin:miter;stroke-linecap:butt;fill-opacity:0.66153848;"
       d="M 54.956522,54.028986 C 54.956522,54.028986 61.681159,65.623189 68.869565,69.565218 C 76.057971,73.507247 75.594203,53.797102 75.594203,53.797102 L 54.956522,54.028986 z "
       id="path872" />
    <path
       style="fill:#cccaca;fill-rule:evenodd;stroke:none;stroke-opacity:1.0000000;stroke-width:1pt;stroke-linejoin:miter;stroke-linecap:butt;fill-opacity:0.66153848;"
       d="M 48.000000,122.49227 C 48.927537,119.70966 55.652175,96.753143 71.652174,89.332853 C 76.753624,87.941546 74.898551,107.65170 74.898551,107.65170 L 48.000000,122.49227 z "
       id="path873"
       sodipodi:nodetypes="cccc" />
    <path
       style="fill:#cccaca;fill-rule:evenodd;stroke:none;stroke-opacity:1.0000000;stroke-width:1.2500000;stroke-linejoin:round;stroke-linecap:round;fill-opacity:0.66153848;stroke-dasharray:none;"
       d="M 49.391304,51.942029 L 108.98551,51.710145 C 108.98551,51.710145 104.68447,64.924570 89.843889,73.736164 C 84.742440,77.214425 83.478261,76.289855 81.623188,80.463768 C 81.365970,102.85177 81.391304,108.98551 81.391304,112.23189 C 84.173913,127.76812 109.44928,136.81160 109.44928,136.81160 L 43.594203,136.34783 C 43.594203,136.34783 68.637682,119.88406 76.985507,108.05798 C 76.985507,101.33333 77.449275,96.231885 76.753623,80.000001 C 75.053140,76.212561 68.946860,74.048310 67.246377,73.275362 C 61.758454,68.483092 54.879227,64.850242 49.391304,51.942029 z "
       id="path874"
       sodipodi:nodetypes="ccccccccccc" />
    <path
       style="fill:#cccaca;fill-rule:evenodd;stroke:none;stroke-opacity:1.0000000;stroke-width:3.7500000;stroke-linejoin:miter;stroke-linecap:butt;fill-opacity:0.66153848;stroke-dasharray:none;"
       d="M 40.237590,20.354674 C 50.867511,80.590894 75.670661,69.960973 75.670661,80.590894 C 75.670661,91.220815 50.867511,80.590894 40.237590,140.82712 C 75.670661,140.82712 82.757275,140.82712 118.19035,140.82712 C 107.56042,80.590894 82.757275,91.220815 82.757275,80.590894 C 82.757275,69.960973 107.56042,80.590894 118.19035,20.354674 C 89.843889,13.268059 68.584046,13.268059 40.237590,20.354674 z "
       id="path875"
       sodipodi:nodetypes="czcczcc" />
    <rect
       style="fill-rule:evenodd;stroke:none;stroke-width:3.7500000;fill:#cccaca;fill-opacity:0.66153848;stroke-dasharray:none;stroke-opacity:1.0000000;"
       id="rect876"
       width="85.130417"
       height="17.890718"
       x="36.603233"
       y="6.0072618" />
    <rect
       style="fill-rule:evenodd;stroke:none;stroke-width:3.7500000;fill:#cccaca;fill-opacity:0.66153848;stroke-dasharray:none;stroke-opacity:1.0000000;"
       id="rect877"
       width="85.130417"
       height="17.890718"
       x="36.603235"
       y="137.28381" />
    <rect
       style="fill-rule:evenodd;stroke:none;stroke-width:1.0000000pt;fill:#cccaca;fill-opacity:0.66153848;stroke-opacity:1.0000000;"
       id="rect878"
       width="73.507248"
       height="3.2463768"
       x="39.652174"
       y="9.0434780" />
    <rect
       style="fill-rule:evenodd;stroke:none;stroke-width:1.0000000pt;fill:#cccaca;fill-opacity:0.66153848;stroke-opacity:1.0000000;"
       id="rect879"
       width="73.507248"
       height="3.2463768"
       x="38.956522"
       y="140.52174" />
    <path
       style="fill:#cccaca;fill-rule:evenodd;stroke:none;stroke-opacity:1.0000000;stroke-width:1pt;stroke-linejoin:miter;stroke-linecap:butt;fill-opacity:0.66153848;"
       d="M 54.956522,54.028986 C 54.956522,54.028986 61.681159,65.623189 68.869565,69.565218 C 76.057971,73.507247 75.594203,53.797102 75.594203,53.797102 L 54.956522,54.028986 z "
       id="path880" />
    <path
       style="fill:#cccaca;fill-rule:evenodd;stroke:none;stroke-opacity:1.0000000;stroke-width:1pt;stroke-linejoin:miter;stroke-linecap:butt;fill-opacity:0.66153848;"
       d="M 48.000000,122.49227 C 48.927537,119.70966 55.652175,96.753143 71.652174,89.332853 C 76.753624,87.941546 74.898551,107.65170 74.898551,107.65170 L 48.000000,122.49227 z "
       id="path881"
       sodipodi:nodetypes="cccc" />
  </g>
  <path
     style="fill:#ffce00;fill-rule:evenodd;stroke:#000000;stroke-opacity:1.0000000;stroke-width:1.2500000;stroke-linejoin:round;stroke-linecap:round;fill-opacity:1.0000000;stroke-dasharray:none;"
     d="M 24.811594,51.710144 L 84.405796,51.478260 C 84.405796,51.478260 80.104759,64.692685 65.264179,73.504279 C 60.162730,76.982540 58.898551,76.057970 57.043478,80.231883 C 56.786260,102.61988 56.811594,108.75362 56.811594,112.00000 C 59.594203,127.53623 84.869566,136.57971 84.869566,136.57971 L 19.014493,136.11594 C 19.014493,136.11594 44.057972,119.65217 52.405797,107.82609 C 52.405797,101.10145 52.869565,96.000000 52.173913,79.768116 C 50.473430,75.980676 44.367150,73.816425 42.666667,73.043477 C 37.178744,68.251207 30.299517,64.618357 24.811594,51.710144 z "
     id="path839"
     sodipodi:nodetypes="ccccccccccc" />
  <rect
     style="fill-rule:evenodd;stroke:#000000;stroke-width:3.7500000;fill:#b9b7b9;fill-opacity:1.0000000;stroke-dasharray:none;"
     id="rect825"
     width="85.130417"
     height="17.890718"
     x="12.023523"
     y="5.7753778" />
  <rect
     style="fill-rule:evenodd;stroke:#000000;stroke-width:3.7500000;fill:#b8b8b8;fill-opacity:1.0000000;stroke-dasharray:none;"
     id="rect829"
     width="85.130417"
     height="17.890718"
     x="12.023525"
     y="137.05193" />
  <rect
     style="fill-rule:evenodd;stroke:none;stroke-width:1.0000000pt;fill:#ffffff;fill-opacity:1.0000000;"
     id="rect840"
     width="73.507248"
     height="3.2463768"
     x="15.072464"
     y="8.8115940" />
  <rect
     style="fill-rule:evenodd;stroke:none;stroke-width:1.0000000pt;fill:#ffffff;fill-opacity:1.0000000;"
     id="rect841"
     width="73.507248"
     height="3.2463768"
     x="14.376812"
     y="140.28986" />
  <path
     style="fill:#ffffff;fill-rule:evenodd;stroke:none;stroke-opacity:1;stroke-width:1pt;stroke-linejoin:miter;stroke-linecap:butt;fill-opacity:1.0000000;"
     d="M 30.376812,53.797101 C 30.376812,53.797101 37.101449,65.391304 44.289855,69.333333 C 51.478261,73.275362 51.014493,53.565217 51.014493,53.565217 L 30.376812,53.797101 z "
     id="path842" />
  <path
     style="fill:#ffffff;fill-rule:evenodd;stroke:none;stroke-opacity:1;stroke-width:1pt;stroke-linejoin:miter;stroke-linecap:butt;fill-opacity:1.0000000;"
     d="M 23.420290,122.26038 C 24.347827,119.47777 31.072465,96.521258 47.072464,89.100968 C 52.173914,87.709661 50.318841,107.41981 50.318841,107.41981 L 23.420290,122.26038 z "
     id="path845"
     sodipodi:nodetypes="cccc" />
  <path
     style="fill:#d1940c;fill-rule:evenodd;stroke:#000000;stroke-opacity:1.0000000;stroke-width:1.2500000;stroke-linejoin:round;stroke-linecap:round;fill-opacity:1.0000000;stroke-dasharray:none;"
     d="M 24.811594,51.710144 L 84.405796,51.478260 C 84.405796,51.478260 80.104759,64.692685 65.264179,73.504279 C 60.162730,76.982540 58.898551,76.057970 57.043478,80.231883 C 56.786260,102.61988 56.811594,108.75362 56.811594,112.00000 C 59.594203,127.53623 84.869566,136.57971 84.869566,136.57971 L 19.014493,136.11594 C 19.014493,136.11594 44.057972,119.65217 52.405797,107.82609 C 52.405797,101.10145 52.869565,96.000000 52.173913,79.768116 C 50.473430,75.980676 44.367150,73.816425 42.666667,73.043477 C 37.178744,68.251207 30.299517,64.618357 24.811594,51.710144 z "
     id="path846"
     sodipodi:nodetypes="ccccccccccc" />
  <path
     style="fill:#dae0e0;fill-rule:evenodd;stroke:black;stroke-opacity:1;stroke-width:3.7500000;stroke-linejoin:miter;stroke-linecap:butt;fill-opacity:0.19230767;stroke-dasharray:none;"
     d="M 15.657880,20.122789 C 26.287801,80.359009 51.090951,69.729088 51.090951,80.359009 C 51.090951,90.988930 26.287801,80.359009 15.657880,140.59523 C 51.090951,140.59523 58.177565,140.59523 93.610636,140.59523 C 82.980714,80.359009 58.177565,90.988930 58.177565,80.359009 C 58.177565,69.729088 82.980714,80.359009 93.610636,20.122789 C 65.264179,13.036174 44.004336,13.036174 15.657880,20.122789 z "
     id="path828"
     sodipodi:nodetypes="czcczcc" />
  <rect
     style="fill-rule:evenodd;stroke:#000000;stroke-width:3.7500000;fill:url(#linearGradient834);fill-opacity:1.0000000;stroke-dasharray:none;"
     id="rect848"
     width="85.130417"
     height="17.890718"
     x="12.023523"
     y="5.7753778" />
  <rect
     style="fill-rule:evenodd;stroke:#000000;stroke-width:3.7500000;fill:#b8b8b8;fill-opacity:1.0000000;stroke-dasharray:none;"
     id="rect849"
     width="85.130417"
     height="17.890718"
     x="12.023525"
     y="137.05193" />
  <rect
     style="fill-rule:evenodd;stroke:none;stroke-width:1.0000000pt;fill:#ffffff;fill-opacity:1.0000000;"
     id="rect850"
     width="73.507248"
     height="3.2463768"
     x="15.072464"
     y="8.8115940" />
  <rect
     style="fill-rule:evenodd;stroke:#000000;stroke-width:3.7500000;fill:url(#linearGradient834);fill-opacity:1.0000000;stroke-dasharray:none;"
     id="rect872"
     width="85.130417"
     height="17.890718"
     x="12.023523"
     y="137.02176" />
  <rect
     style="fill-rule:evenodd;stroke:none;stroke-width:1.0000000pt;fill:#ffffff;fill-opacity:1.0000000;"
     id="rect851"
     width="73.507248"
     height="3.2463768"
     x="14.376812"
     y="140.28986" />
  <path
     style="fill:#ffffff;fill-rule:evenodd;stroke:none;stroke-opacity:1;stroke-width:1pt;stroke-linejoin:miter;stroke-linecap:butt;fill-opacity:1.0000000;"
     d="M 30.376812,53.797101 C 30.376812,53.797101 37.101449,65.391304 44.289855,69.333333 C 51.478261,73.275362 51.014493,53.565217 51.014493,53.565217 L 30.376812,53.797101 z "
     id="path852" />
  <path
     style="fill:#ffffff;fill-rule:evenodd;stroke:none;stroke-opacity:1;stroke-width:1pt;stroke-linejoin:miter;stroke-linecap:butt;fill-opacity:1.0000000;"
     d="M 23.420290,122.26038 C 24.347827,119.47777 31.072465,96.521258 47.072464,89.100968 C 52.173914,87.709661 50.318841,107.41981 50.318841,107.41981 L 23.420290,122.26038 z "
     id="path853"
     sodipodi:nodetypes="cccc" />
</svg>
