/* XPM */
static char * comp1_xpm[] = {
"16 16 100 2",
"  	c None",
". 	c #282828",
"+ 	c #535352",
"@ 	c #272727",
"# 	c #6D6D6C",
"$ 	c #A2A2A2",
"% 	c #A6A6A6",
"& 	c #A5A5A5",
"* 	c #9B9A9B",
"= 	c #676766",
"- 	c #767675",
"; 	c #F8F7F8",
"> 	c #F8F8F8",
", 	c #F7F7F7",
"' 	c #F2F2F2",
") 	c #EDECED",
"! 	c #E7E6E7",
"~ 	c #EFEEEF",
"{ 	c #EEEEEE",
"] 	c #ECEBEC",
"^ 	c #E9E8E9",
"/ 	c #DAD9DA",
"( 	c #737172",
"_ 	c #C2C0C1",
": 	c #B5B4B5",
"< 	c #5B5859",
"[ 	c #DDDCDD",
"} 	c #9A999A",
"| 	c #C6C5C6",
"1 	c #C1C1C1",
"2 	c #C8C8C8",
"3 	c #747473",
"4 	c #E5E4E5",
"5 	c #8B8B8B",
"6 	c #959595",
"7 	c #6C6B6B",
"8 	c #191918",
"9 	c #333332",
"0 	c #323232",
"a 	c #323231",
"b 	c #2D2D2C",
"c 	c #30302F",
"d 	c #151515",
"e 	c #727271",
"f 	c #696968",
"g 	c #696969",
"h 	c #6A6A69",
"i 	c #5C5C5C",
"j 	c #666665",
"k 	c #686868",
"l 	c #6B6B6A",
"m 	c #6A6F6A",
"n 	c #6B6D6D",
"o 	c #6C6D6C",
"p 	c #525252",
"q 	c #C2C2C2",
"r 	c #9F9F9F",
"s 	c #9F9F9E",
"t 	c #9C9C9D",
"u 	c #9C9C9C",
"v 	c #C3C3C3",
"w 	c #999999",
"x 	c #9B9B9B",
"y 	c #B2B2B2",
"z 	c #93B692",
"A 	c #99A2A1",
"B 	c #A6AFAE",
"C 	c #50504F",
"D 	c #6B6B6B",
"E 	c #989898",
"F 	c #909090",
"G 	c #939393",
"H 	c #919191",
"I 	c #929292",
"J 	c #B0B0B0",
"K 	c #ACACAC",
"L 	c #8B8B8A",
"M 	c #8F8F8F",
"N 	c #AAAAAA",
"O 	c #B5B5B5",
"P 	c #989897",
"Q 	c #CACAC9",
"R 	c #898989",
"S 	c #A2A2A1",
"T 	c #787878",
"U 	c #838384",
"V 	c #878786",
"W 	c #878787",
"X 	c #868686",
"Y 	c #838383",
"Z 	c #9B9B9A",
"` 	c #878788",
" .	c #808081",
"..	c #858585",
"+.	c #7C7C7C",
"@.	c #919190",
"#.	c #7B7B7B",
"$.	c #3D3D3D",
"%.	c #545453",
"&.	c #3D3D3C",
"    . + + + + + + + + + + @     ",
"    # $ % % % % % % % & * =     ",
"    - ; > > > > , ' ) ! ! #     ",
"    - ~ ~ { ] ^ ! / ! ! ! #     ",
"    - ! ! ! ! ! ! ( _ ! ! #     ",
"    - ! ! ! ! ! ! : < ! ! #     ",
"    - ! ! ! ! ! ! [ } ! ! #     ",
"    - ! | 1 1 1 1 1 1 2 ! #     ",
"    3 4 5 & & & & & & 6 4 7     ",
"    8 9 9 0 a b 9 c c 0 9 d     ",
"    e f f g h i j k l m n o     ",
"  p q r s t u v w x y z A B C   ",
"  D E E x F G y H I J x 5 K g   ",
"  3 G G 6 L M N O P Q 6 R S 3   ",
"  T U V W X Y Z `  .$ ..+.@.#.  ",
"  $.%.%.%.%.%.%.%.%.%.%.%.%.&.  "};
