/* XPM */
static char * new_win_xpm[] = {
"16 16 80 1",
" 	c None",
".	c #121212",
"+	c #131313",
"@	c #080808",
"#	c #060606",
"$	c #606060",
"%	c #B8B8B8",
"&	c #BFBFBF",
"*	c #B0B0B0",
"=	c #BABABA",
"-	c #636363",
";	c #454545",
">	c #FFFFFF",
",	c #FCFCFC",
"'	c #2C2B25",
")	c #BCBBBA",
"!	c #525252",
"~	c #0E0E0E",
"{	c #959595",
"]	c #9F9E9B",
"^	c #958654",
"/	c #585549",
"(	c #9E9E9E",
"_	c #111111",
":	c #0F0F0F",
"<	c #979797",
"[	c #D2D2D2",
"}	c #ABAAA9",
"|	c #8A8781",
"1	c #4B4737",
"2	c #EDD57F",
"3	c #7D724C",
"4	c #878681",
"5	c #EAEAEA",
"6	c #9F9F9F",
"7	c #595750",
"8	c #73673F",
"9	c #C7B36B",
"0	c #E7CF7C",
"a	c #EED680",
"b	c #EAD37E",
"c	c #BBA864",
"d	c #8F8150",
"e	c #171612",
"f	c #8D8D8D",
"g	c #FAFAFA",
"h	c #5C5950",
"i	c #BAA867",
"j	c #E4CD7A",
"k	c #55503C",
"l	c #CBCAC9",
"m	c #504B3A",
"n	c #7F744D",
"o	c #C6C6C5",
"p	c #E7E7E7",
"q	c #6C6346",
"r	c #9A8B55",
"s	c #DEC877",
"t	c #988A56",
"u	c #BDBDBD",
"v	c #B6B6B6",
"w	c #3F3A28",
"x	c #ADACAB",
"y	c #58554B",
"z	c #575034",
"A	c #93928E",
"B	c #D6D6D5",
"C	c #C4C3C2",
"D	c #B7B7B5",
"E	c #B7B6B3",
"F	c #969696",
"G	c #494949",
"H	c #545454",
"I	c #727272",
"J	c #C4C4C4",
"K	c #C7C7C7",
"L	c #C5C5C5",
"M	c #747474",
"N	c #050505",
"O	c #0A0A0A",
"   .+++++++++@  ",
" #$%&&&&&*&&=-# ",
" ;>>>>>>,')>>>! ",
"~{>>>>>>]^/>>>(_",
":<>>>[}|1234&56_",
":<>>>7890abcdef_",
":<>>>ghiaaajkl6_",
":<>>>>gmaaano>6_",
":<>>>>pqjrstu>6_",
":<>>>>vw/xyzA>6_",
":<>>>>BC>>>DE>6_",
":<>>>>>>>>>>>>6_",
"~F>>>>>>>>>>>>(_",
" G>>>>>>>>>>>>H ",
" #IJKKKKKKKKLMN ",
"  @_.........O  "};
