/* XPM */
static char * p_edit_xpm[] = {
"48 48 293 2",
"  	c None",
". 	c #000000",
"+ 	c #0E0E0E",
"@ 	c #424242",
"# 	c #212121",
"$ 	c #595959",
"% 	c #6F6F6F",
"& 	c #1D1D1D",
"* 	c #5C5C5C",
"= 	c #1A1A1A",
"- 	c #606060",
"; 	c #2B2B2B",
"> 	c #4F4F4F",
", 	c #5B5B5B",
"' 	c #6D6D6D",
") 	c #979797",
"! 	c #656565",
"~ 	c #8B8B8B",
"{ 	c #FFFFFF",
"] 	c #5D5D5D",
"^ 	c #939393",
"/ 	c #555555",
"( 	c #9B9B9B",
"_ 	c #7D7D7D",
": 	c #737373",
"< 	c #B5B5B5",
"[ 	c #050505",
"} 	c #010101",
"| 	c #B0B0B0",
"1 	c #AEAEAE",
"2 	c #030303",
"3 	c #020202",
"4 	c #B7B7B7",
"5 	c #A7A7A7",
"6 	c #BEBEBE",
"7 	c #C7C7C7",
"8 	c #0B0B0B",
"9 	c #9A9A9A",
"0 	c #B2B2B2",
"a 	c #454545",
"b 	c #F5F5F5",
"c 	c #ACACAC",
"d 	c #494949",
"e 	c #F7F7F7",
"f 	c #A6A6A6",
"g 	c #4E4E4E",
"h 	c #F9F9F9",
"i 	c #C3C3C3",
"j 	c #3C3C3C",
"k 	c #ECECEC",
"l 	c #FEFEFE",
"m 	c #FDFDFD",
"n 	c #747474",
"o 	c #7E7E7E",
"p 	c #DBDBDB",
"q 	c #959595",
"r 	c #909090",
"s 	c #787878",
"t 	c #A0A0A0",
"u 	c #989898",
"v 	c #5E5E5E",
"w 	c #9E9E9E",
"x 	c #949494",
"y 	c #D1D1D1",
"z 	c #484848",
"A 	c #A9A9A9",
"B 	c #7A7A7A",
"C 	c #6E6E6E",
"D 	c #A5A5A5",
"E 	c #D0D0D0",
"F 	c #6B6B6B",
"G 	c #5F5F5F",
"H 	c #8C8C8C",
"I 	c #919191",
"J 	c #E3E3E3",
"K 	c #C5C5C5",
"L 	c #D7D7D7",
"M 	c #B4B4B4",
"N 	c #B6B6B6",
"O 	c #A1A1A1",
"P 	c #BCBCBC",
"Q 	c #BBBBBB",
"R 	c #BDBDBD",
"S 	c #D2D2D2",
"T 	c #DCDCDC",
"U 	c #C8C8C8",
"V 	c #C4C4C4",
"W 	c #A2A2A2",
"X 	c #C1C1C1",
"Y 	c #DDDDDD",
"Z 	c #ADADAD",
"` 	c #727272",
" .	c #8F8F8F",
"..	c #707070",
"+.	c #999999",
"@.	c #CCCCCC",
"#.	c #888888",
"$.	c #B1B1B1",
"%.	c #8E8E8E",
"&.	c #DADADA",
"*.	c #B9B9B9",
"=.	c #C2C2C2",
"-.	c #D4D4D4",
";.	c #BFBFBF",
">.	c #EBEBEB",
",.	c #9C9C9C",
"'.	c #9D9D9D",
").	c #C0C0C0",
"!.	c #DFDFDF",
"~.	c #7C7C7C",
"{.	c #050404",
"].	c #020000",
"^.	c #080505",
"/.	c #1F1818",
"(.	c #615B5B",
"_.	c #EDEDED",
":.	c #8A8A8A",
"<.	c #050101",
"[.	c #050000",
"}.	c #240505",
"|.	c #421A1A",
"1.	c #3C2929",
"2.	c #B6B4B4",
"3.	c #5E5B5B",
"4.	c #060101",
"5.	c #130000",
"6.	c #980000",
"7.	c #AD2020",
"8.	c #D59595",
"9.	c #6F3C3C",
"0.	c #554848",
"a.	c #E8E8E8",
"b.	c #342C2C",
"c.	c #030000",
"d.	c #750000",
"e.	c #A20000",
"f.	c #AA1818",
"g.	c #D28686",
"h.	c #E2B1B1",
"i.	c #B96E6E",
"j.	c #412727",
"k.	c #958F8F",
"l.	c #9F9F9F",
"m.	c #261818",
"n.	c #8F0000",
"o.	c #970909",
"p.	c #9C0505",
"q.	c #A20101",
"r.	c #BB4545",
"s.	c #DEA5A5",
"t.	c #DDA4A4",
"u.	c #8B4C4C",
"v.	c #403030",
"w.	c #EAEAEA",
"x.	c #A3A3A3",
"y.	c #2C1313",
"z.	c #7E1211",
"A.	c #871817",
"B.	c #930E0D",
"C.	c #A00101",
"D.	c #A70F0F",
"E.	c #CB7171",
"F.	c #CA8585",
"G.	c #543030",
"H.	c #746969",
"I.	c #8D8D8D",
"J.	c #312222",
"K.	c #541312",
"L.	c #861716",
"M.	c #891515",
"N.	c #990807",
"O.	c #B32F2F",
"P.	c #D99898",
"Q.	c #E1ADAD",
"R.	c #A35D5D",
"S.	c #382525",
"T.	c #B8B6B6",
"U.	c #F8F8F8",
"V.	c #AFAFAF",
"W.	c #696464",
"X.	c #2B1515",
"Y.	c #721211",
"Z.	c #8F1110",
"`.	c #9E0303",
" +	c #A40606",
".+	c #C35C5C",
"++	c #D59797",
"@+	c #6D3D3D",
"#+	c #564848",
"$+	c #E9E9E9",
"%+	c #EEEEEE",
"&+	c #413535",
"*+	c #451616",
"=+	c #811514",
"-+	c #881716",
";+	c #950B0B",
">+	c #A10000",
",+	c #AC1D1D",
"'+	c #D38787",
")+	c #B87070",
"!+	c #402828",
"~+	c #989191",
"{+	c #E1E1E1",
"]+	c #7C7B7B",
"^+	c #312020",
"/+	c #651414",
"(+	c #8C1413",
"_+	c #9B0605",
":+	c #DDA5A5",
"<+	c #884C4C",
"[+	c #3F2F2F",
"}+	c #D6D6D6",
"|+	c #766D6D",
"1+	c #3B1C1B",
"2+	c #7B1312",
"3+	c #910E0E",
"4+	c #A00202",
"5+	c #CB7272",
"6+	c #C98686",
"7+	c #512F2F",
"8+	c #0B0000",
"9+	c #D3D3D3",
"0+	c #413333",
"a+	c #561717",
"b+	c #851716",
"c+	c #891615",
"d+	c #980908",
"e+	c #B33030",
"f+	c #D99999",
"g+	c #9E5B5B",
"h+	c #190606",
"i+	c #FBFBFB",
"j+	c #B3B3B3",
"k+	c #B8B8B8",
"l+	c #9F9B9B",
"m+	c #321D1D",
"n+	c #711110",
"o+	c #8E1211",
"p+	c #9E0403",
"q+	c #E1AEAE",
"r+	c #D59898",
"s+	c #5F3030",
"t+	c #F3F3F3",
"u+	c #AAAAAA",
"v+	c #5B4F4F",
"w+	c #461919",
"x+	c #821514",
"y+	c #871716",
"z+	c #940C0C",
"A+	c #A10101",
"B+	c #AC1E1E",
"C+	c #D38888",
"D+	c #B77272",
"E+	c #291010",
"F+	c #A4A4A4",
"G+	c #D8D8D8",
"H+	c #BFBEBE",
"I+	c #322222",
"J+	c #641312",
"K+	c #881817",
"L+	c #8B1514",
"M+	c #9A0606",
"N+	c #BB4646",
"O+	c #3B1010",
"P+	c #E7E7E7",
"Q+	c #7A7171",
"R+	c #371919",
"S+	c #900F0F",
"T+	c #9F0202",
"U+	c #A71010",
"V+	c #B14C4C",
"W+	c #3F3131",
"X+	c #480A09",
"Y+	c #851615",
"Z+	c #881615",
"`+	c #260000",
" @	c #160202",
".@	c #6E0F0F",
"+@	c #5A0A0A",
"@@	c #120000",
"#@	c #0E0000",
"$@	c #0F0000",
"%@	c #CECECE",
"&@	c #FAFAFA",
"*@	c #BABABA",
"=@	c #F2F2F2",
"-@	c #E5E5E5",
";@	c #505050",
">@	c #878787",
",@	c #717171",
"'@	c #565656",
")@	c #0A0A0A",
"!@	c #070707",
"                                                                                                ",
"                . . . .         . . . .         . . . .         . . . .                         ",
"              . . . . . .     . . . . . .     . . . . . .     . . . . . .                       ",
"              . .     . .     . .     . .     . .     . .     . .     . .                       ",
"          . . . . . . . . . . . . . . . . . . . . . . . . . . . . . . . . .                     ",
"        + @ # . $ % % % $ % & . * % % % $ % = . - % % % $ % ; . > % % % , ' .                   ",
"        + ) ! . ~ { { { { { ] . ^ { { { { { / . ( { { { { { _ . : { { { { { .                   ",
"        + ) < [ } | { { { { 1 2 3 4 { { { { 5 3 2 6 { { { { 7 8 . 9 { { { { .                   ",
"        + ) { 0 a b { { { { { c d e { { { { { f g h { { { { { i j k { { { { .                   ",
"        + ) { { { { { { { { { { { { { { { { { { { { { { { { { { { { { { { { .                   ",
"        + ) { l m { { { { { { { { { { { { { { { { { { { { { l l l { { { { { .                   ",
"        + ) { ) n ( o p ^ q r s t u v w x y { z ! A B C D E l F G H : I { { .                   ",
"        + ) { J K L M l N O w P i Q R i S T { U V 6 W X K Y m K Z f X w { { .                   ",
"        + ) { { { { { { { { { { { { { { { { { { { { { { { { { { { { { { { { .                   ",
"        + ) { { { { { { { { { m m { { { { { { { { { { { { { { { { { { { { { .                   ",
"        + ) { ` g  .I ..u +.{ @.v r #.$.^ r q _ ~ W G  .%.0 { { { { { { { { .                   ",
"        + ) { &.@.V f *.y =.{ { U -.;.>.V ,.'.-.).i V V =.!.{ { { { { { { { .                   ",
"        + ) { { { { { { { { { H ~.T { { { { { { { { { { { { { { { { { { { { .                   ",
"        + ) { { { { { { { { { S {.].^./.(.N _.{ { { { { { { { { { { { { { { .                   ",
"        + ) { { { { { { { { { l :.<.. . [.}.|.1.2.{ { { { { { { { { { { { { .                   ",
"        + ) { { { { { { { { { { S 3.4.. 5.6.7.8.9.0.a.{ { { { { { { { { { { .                   ",
"        + ) { { { { { { { { { { e D b.c.d.e.f.g.h.i.j.k.l { { { { { { { { { .                   ",
"        + ) { { { { { { { { { { { i l.m.n.o.p.q.r.s.t.u.v.-.{ { { { { { { { .                   ",
"        + ) { { { { { { { { { { { w.x. .y.z.A.B.C.D.E.h.F.G.H.e { { { { { { .                   ",
"        + ) { { { { { { { { { { { { Q x.I.J.K.L.M.N.e.O.P.Q.R.S.T.{ { { { { .                   ",
"        + ) { { { { { { { { { { { { U.V.x.x.W.X.Y.A.Z.`. +.+Q.++@+#+$+{ { { .                   ",
"        + ) { { { { { { { { { { { { { %+5 x.x.u &+*+=+-+;+>+,+'+h.)+!+~+l { .                   ",
"        + ) { { { { { { { { { { { { { { {+x.x.x.x.]+^+/+A.(+_+q.r.s.:+<+[+}+.                   ",
"        + ) { { { { { { { { { { { { { { { y x.x.x.x.W |+1+2+A.3+4+D.5+h.6+7+8+                  ",
"        + ) { { { { { { { { { { { { { { { { ).x.x.x.x.Z 9+0+a+b+c+d+e.e+f+Q.g+h+c.              ",
"        + ) { { { { { { { { { { { { { { { { i+j+x.x.x.x.k+m l+m+n+A.o+p+ +.+q+r+s+5.            ",
"        + ) { { { { { { { { { { { { { { { { { t+u+x.x.x.x.7 { k v+w+x+y+z+A+B+C+h.D+E+          ",
"        + ) { { { { { { { { { { { { { { { { { { a.F+x.x.x.x.G+{ { H+I+J+K+L+M+q.N+s.:+O+        ",
"        + ) { { { { { { { { { { { { { { { { { { { G+x.x.x.x.F+P+{ { U.Q+R+2+A.S+T+U+V+5.        ",
"        + ) { { { { { { { { { { { { { { { { { { { { 7 x.x.x.x.u+t+{ { { G+W+X+Y+Z+d+`+          ",
"        + ) { { { { { { { { { { { { { { { { { { { { m k+x.x.x.x.j+i+{ { { { [. @.@+@@@          ",
"        + ) { { { { { { { { { { { { { { { { { { { { { e Z x.x.x.x.).{ { { { .   #@$@            ",
"        + ) { { { { { { { { { { { { { { { { { { { { { { _.f x.x.x.x.E { { { .                   ",
"        + ) { { { { { { { { { { { { { { { { { { { { { { { !.x.x.x.x.x.{+{ { .                   ",
"        + ) { { { { { { { { { { { { { { { { { { { { { { { { %@x.x.x.x.5 %+{ .                   ",
"        + ) { { { { { { { { { { { { { { { { { { { { { { { { l 6 x.x.x.x.V.U..                   ",
"        + ) { { { { { { { { { { { { { { { { { { { { { { { { { &@$.x.x.x.x.*@.                   ",
"        + ) { { { { { { { { { { { { { { { { { { { { { { { { { { =@A x.x.x.x..                   ",
"        + ) { { { { { { { { { { { { { { { { { { { { { { { { { { { -@F+x.x.x.. .                 ",
"        + ;@>@>@>@>@>@>@>@>@>@>@>@>@>@>@>@>@>@>@>@>@>@>@>@>@>@>@>@>@,@'@'@'@. .                 ",
"          8 )@)@)@)@)@)@)@)@)@)@)@)@)@)@)@)@)@)@)@)@)@)@)@)@)@)@)@)@)@!@[ !@!@                  ",
"                                                                                                ",
"                                                                                                "};
