/* XPM */
static char * p_file1_xpm[] = {
"48 48 175 2",
"  	c None",
". 	c #0C0C0C",
"+ 	c #060606",
"@ 	c #030303",
"# 	c #000000",
"$ 	c #020202",
"% 	c #0D0D0D",
"& 	c #0B0B0B",
"* 	c #8C8B8A",
"= 	c #C2C1C0",
"- 	c #6E6D6C",
"; 	c #535353",
"> 	c #C1C1C0",
", 	c #5F5F5F",
"' 	c #5C5C5B",
") 	c #979796",
"! 	c #080808",
"~ 	c #0A0A0A",
"{ 	c #9F9F9D",
"] 	c #DEDEDB",
"^ 	c #949492",
"/ 	c #404040",
"( 	c #DBDBD8",
"_ 	c #DEDDDB",
": 	c #DDDCDA",
"< 	c #4D4C4C",
"[ 	c #828180",
"} 	c #ADACAB",
"| 	c #070707",
"1 	c #090909",
"2 	c #949390",
"3 	c #CECDC9",
"4 	c #9B9A97",
"5 	c #2A2A29",
"6 	c #C5C4C0",
"7 	c #CDCDC9",
"8 	c #C8C8C4",
"9 	c #343433",
"0 	c #8D8D8A",
"a 	c #CDCCC9",
"b 	c #A09F9D",
"c 	c #888884",
"d 	c #BEBDB8",
"e 	c #9E9D99",
"f 	c #1A1A19",
"g 	c #AEADA8",
"h 	c #B3B2AD",
"i 	c #222120",
"j 	c #070706",
"k 	c #93928E",
"l 	c #090908",
"m 	c #858581",
"n 	c #BAB9B4",
"o 	c #A6A5A0",
"p 	c #141414",
"q 	c #0F0F0F",
"r 	c #A09F9B",
"s 	c #A6A5A1",
"t 	c #151514",
"u 	c #0E0E0D",
"v 	c #9E9D98",
"w 	c #91908C",
"x 	c #090808",
"y 	c #83827E",
"z 	c #B6B5AF",
"A 	c #ABAAA4",
"B 	c #1F1F1E",
"C 	c #8F8F8A",
"D 	c #989792",
"E 	c #171716",
"F 	c #A5A49F",
"G 	c #8E8D89",
"H 	c #807F7B",
"I 	c #B2B1AB",
"J 	c #ADACA6",
"K 	c #2C2C2A",
"L 	c #7D7C78",
"M 	c #878782",
"N 	c #050505",
"O 	c #222221",
"P 	c #A9A8A2",
"Q 	c #8B8A85",
"R 	c #AEADA7",
"S 	c #3B3A38",
"T 	c #696865",
"U 	c #757571",
"V 	c #010101",
"W 	c #302F2E",
"X 	c #888782",
"Y 	c #7A7974",
"Z 	c #AAA9A2",
"` 	c #4B4A47",
" .	c #545450",
"..	c #61615D",
"+.	c #3F3E3C",
"@.	c #85847E",
"#.	c #060605",
"$.	c #080807",
"%.	c #777671",
"&.	c #A6A59E",
"*.	c #5B5B57",
"=.	c #403F3D",
"-.	c #4D4C49",
";.	c #4F4F4C",
">.	c #82817B",
",.	c #060505",
"'.	c #74746F",
").	c #A2A19A",
"!.	c #6A6965",
"~.	c #2E2E2C",
"{.	c #9F9E98",
"].	c #A1A099",
"^.	c #3A3937",
"/.	c #5F5F5A",
"(.	c #A2A199",
"_.	c #7E7E77",
":.	c #71716B",
"<.	c #76756F",
"[.	c #040404",
"}.	c #20201E",
"|.	c #97968F",
"1.	c #9E9D95",
"2.	c #9B9A92",
"3.	c #2A2A28",
"4.	c #6D6C67",
"5.	c #7B7B74",
"6.	c #5B5A55",
"7.	c #151413",
"8.	c #8D8C84",
"9.	c #9A9991",
"0.	c #929189",
"a.	c #1D1D1B",
"b.	c #5D5C58",
"c.	c #0B0B0A",
"d.	c #0C0C0B",
"e.	c #807F78",
"f.	c #96958C",
"g.	c #87857E",
"h.	c #121211",
"i.	c #73726B",
"j.	c #929188",
"k.	c #929088",
"l.	c #7B7973",
"m.	c #63625C",
"n.	c #8E8D84",
"o.	c #8E8C84",
"p.	c #6D6C65",
"q.	c #4E4E48",
"r.	c #8A887F",
"s.	c #595751",
"t.	c #070606",
"u.	c #605F58",
"v.	c #86847B",
"w.	c #696760",
"x.	c #050404",
"y.	c #5D5C55",
"z.	c #828077",
"A.	c #65645C",
"B.	c #5B5A53",
"C.	c #7F7D73",
"D.	c #63625A",
"E.	c #585750",
"F.	c #7B796F",
"G.	c #605F57",
"H.	c #41413C",
"I.	c #474641",
"J.	c #3E3E39",
"K.	c #57564F",
"L.	c #44433E",
"M.	c #0D0D0C",
"N.	c #131211",
"O.	c #131311",
"P.	c #131312",
"Q.	c #0F0F0E",
"R.	c #050504",
"                                                                                                ",
"                                                                                                ",
"                                                                                                ",
"                                                                                                ",
"                                                                                                ",
"                                                                                                ",
"    . + + + + + + + + + + + + @ # $ + + + + + + + + + + + + $ # $ + + + + + + + + + + + + %     ",
"    & * = = = = = = = = = = - # # ; > > > > > > > > > > > > , # # ' > > > > > > > > > > ) !     ",
"    ~ { ] ] ] ] ] ] ] ] ] ^ $ # / ( ] ] ] ] ] ] ] ] ] ] _ _ : < # # [ _ _ _ _ _ _ _ _ _ } |     ",
"    1 2 3 3 3 3 3 3 3 3 4 + # 5 6 3 3 3 3 7 7 7 7 7 7 7 7 7 7 8 9 # $ 0 7 7 7 a a a a a b |     ",
"    1 c d d d d d d d e . # f g d d d d d d d d d d d d d d d d h i # j k d d d d d d d 2 +     ",
"    l m n n n n n n o p # q r n n n n n n n n n n n n n n n n n n s t # u v n n n n n n w +     ",
"    x y z z z z z A B # | C z z z z z z z z z z z z z z z z z z z z D . # E F z z z z z G +     ",
"    ! H I I I I J K # $ L I I I I I I I I I I I I I I I I I I I I I I M N # O P I I I I Q +     ",
"    ! L R R R J S # # T R R R R R R R R R R R R R R R R R R R R R R R R U V # W A R R R X +     ",
"    ! Y Z Z Z ` # #  .Z Z Z Z Z Z Z Z Z Z Z Z Z Z Z Z Z Z Z Z Z Z Z Z Z Z ..# # +.Z Z Z @.#.    ",
"    $.%.&.&.*.# # =.&.&.&.&.&.&.&.&.&.&.&.&.&.&.&.&.&.&.&.&.&.&.&.&.&.&.&.&.-.# # ;.&.&.>.,.    ",
"    $.'.).!.V # ~.{.).).).).).).).).).).).).).).).).).).).).).).).).).).).).].^.# # /.(._.N     ",
"    | :.<.[.# }.|.1.1.1.1.1.1.1.1.1.1.1.1.1.1.1.1.1.1.1.1.1.1.1.1.1.1.1.1.1.1.2.3.# V 4.5.N     ",
"    | 6.1 # 7.8.9.9.9.9.9.9.9.9.9.9.9.9.9.9.9.9.9.9.9.9.9.9.9.9.9.9.9.9.9.9.9.9.0.a.# N b.N     ",
"    + c.# d.e.f.f.f.f.f.f.f.f.f.f.f.f.f.f.f.f.f.f.f.f.f.f.f.f.f.f.f.f.f.f.f.f.f.f.g.h.# l [.    ",
"    V # #.i.j.j.j.j.j.j.j.j.j.j.j.j.j.j.j.j.j.j.j.j.j.j.j.j.j.j.j.j.k.k.k.k.k.k.k.k.l.~ # V     ",
"    # V m.n.n.n.n.o.o.o.o.o.o.o.o.o.o.o.o.o.o.o.o.o.o.o.o.o.o.o.o.o.o.o.o.o.o.o.o.o.o.p.@ #     ",
"    [.q.r.r.r.r.r.r.r.r.r.r.r.r.r.r.r.r.r.r.r.r.r.r.r.r.r.r.r.r.r.r.r.r.r.r.r.r.r.r.r.r.s.@     ",
"    t.u.v.v.v.v.v.v.v.v.v.v.v.v.v.v.v.v.v.v.v.v.v.v.v.v.v.v.v.v.v.v.v.v.v.v.v.v.v.v.v.v.w.x.    ",
"    + y.z.z.z.z.z.z.z.z.z.z.z.z.z.z.z.z.z.z.z.z.z.z.z.z.z.z.z.z.z.z.z.z.z.z.z.z.z.z.z.z.A.[.    ",
"    + B.C.C.C.C.C.C.C.C.C.C.C.C.C.C.C.C.C.C.C.C.C.C.C.C.C.C.C.C.C.C.C.C.C.C.C.C.C.C.C.C.D.[.    ",
"    + B.C.C.C.C.C.C.C.C.C.C.C.C.C.C.C.C.C.C.C.C.C.C.C.C.C.C.C.C.C.C.C.C.C.C.C.C.C.C.C.C.D.[.    ",
"    + B.C.C.C.C.C.C.C.C.C.C.C.C.C.C.C.C.C.C.C.C.C.C.C.C.C.C.C.C.C.C.C.C.C.C.C.C.C.C.C.C.D.[.    ",
"    + B.C.C.C.C.C.C.C.C.C.C.C.C.C.C.C.C.C.C.C.C.C.C.C.C.C.C.C.C.C.C.C.C.C.C.C.C.C.C.C.C.D.[.    ",
"    + B.C.C.C.C.C.C.C.C.C.C.C.C.C.C.C.C.C.C.C.C.C.C.C.C.C.C.C.C.C.C.C.C.C.C.C.C.C.C.C.C.D.[.    ",
"    + B.C.C.C.C.C.C.C.C.C.C.C.C.C.C.C.C.C.C.C.C.C.C.C.C.C.C.C.C.C.C.C.C.C.C.C.C.C.C.C.C.D.[.    ",
"    + B.C.C.C.C.C.C.C.C.C.C.C.C.C.C.C.C.C.C.C.C.C.C.C.C.C.C.C.C.C.C.C.C.C.C.C.C.C.C.C.C.D.[.    ",
"    + B.C.C.C.C.C.C.C.C.C.C.C.C.C.C.C.C.C.C.C.C.C.C.C.C.C.C.C.C.C.C.C.C.C.C.C.C.C.C.C.C.D.[.    ",
"    + E.F.F.F.F.F.F.F.F.F.F.F.F.F.F.F.F.F.F.F.F.F.F.F.F.F.F.F.F.F.F.F.F.F.F.F.F.F.F.F.F.G.[.    ",
"    + H.B.B.B.B.B.B.B.B.B.B.B.B.B.B.B.B.B.B.B.B.B.B.B.B.B.B.B.B.B.B.B.B.B.B.B.B.B.B.B.B.I.[.    ",
"    + B.C.C.C.C.C.C.C.C.C.C.C.C.C.C.C.C.C.C.C.C.C.C.C.C.C.C.C.C.C.C.C.C.C.C.C.C.C.C.C.C.D.[.    ",
"    N J.K.K.K.K.K.K.K.K.K.K.K.K.K.K.K.K.K.K.K.K.K.K.K.K.K.K.K.K.K.K.K.K.K.K.K.K.K.K.K.K.L.[.    ",
"    + B.C.C.C.C.C.C.C.C.C.C.C.C.C.C.C.C.C.C.C.C.C.C.C.C.C.C.C.C.C.C.C.C.C.C.C.C.C.C.C.C.D.[.    ",
"    + H.B.B.B.B.B.B.B.B.B.B.B.B.B.B.B.B.B.B.B.B.B.B.B.B.B.B.B.B.B.B.B.B.B.B.B.B.B.B.B.B.I.[.    ",
"    + M.N.N.O.O.O.O.O.O.O.O.O.O.O.O.O.O.O.O.O.O.O.O.O.O.O.P.P.P.P.P.P.P.P.P.P.P.P.P.P.P.Q.R.    ",
"      # # # # # # # # # # # # # # # # # # # # # # # # # # # # # # # # # # # # # # # # # #       ",
"                                                                                                ",
"                                                                                                ",
"                                                                                                ",
"                                                                                                ",
"                                                                                                ",
"                                                                                                "};
