/* XPM */
static char * p_file2_xpm[] = {
"48 48 359 2",
"  	c None",
". 	c #B9B9B9",
"+ 	c #D1D1D1",
"@ 	c #0F0F0F",
"# 	c #C1C1C1",
"$ 	c #232323",
"% 	c #474747",
"& 	c #D5D5D3",
"* 	c #BEBDBB",
"= 	c #9A9896",
"- 	c #484848",
"; 	c #272727",
"> 	c #ECECEC",
", 	c #DEDEDE",
"' 	c #6D6D6C",
") 	c #464545",
"! 	c #61605E",
"~ 	c #9C9A98",
"{ 	c #000000",
"] 	c #CECECE",
"^ 	c #E4E4E4",
"/ 	c #373737",
"( 	c #383838",
"_ 	c #A5A5A4",
": 	c #C4C3C1",
"< 	c #A7A5A3",
"[ 	c #0E0E0E",
"} 	c #7B7B7B",
"| 	c #EAEAEA",
"1 	c #2B2B2B",
"2 	c #292929",
"3 	c #CACAC8",
"4 	c #C5C4C2",
"5 	c #ADABA9",
"6 	c #343433",
"7 	c #191919",
"8 	c #050505",
"9 	c #010101",
"0 	c #B1B1B1",
"a 	c #464646",
"b 	c #1A1A1A",
"c 	c #D9D9D9",
"d 	c #D0D0CE",
"e 	c #898887",
"f 	c #3D3C3C",
"g 	c #3C3B3A",
"h 	c #817F7E",
"i 	c #040404",
"j 	c #030303",
"k 	c #393938",
"l 	c #9B9A99",
"m 	c #4A4A49",
"n 	c #181818",
"o 	c #070707",
"p 	c #0B0B0B",
"q 	c #D7D7D7",
"r 	c #EBEBEB",
"s 	c #656564",
"t 	c #3E3E3D",
"u 	c #6C6C6A",
"v 	c #989694",
"w 	c #8C8A89",
"x 	c #2D2D2D",
"y 	c #959493",
"z 	c #C1C1BF",
"A 	c #CBCBC9",
"B 	c #E9E9E8",
"C 	c #FEFEFE",
"D 	c #EBEBEA",
"E 	c #3C3C3C",
"F 	c #242424",
"G 	c #ABABAA",
"H 	c #B3B1AF",
"I 	c #343432",
"J 	c #1F1F1F",
"K 	c #8B8B89",
"L 	c #EAEAE9",
"M 	c #FFFFFF",
"N 	c #D6D6D4",
"O 	c #CCCBCA",
"P 	c #A09F9E",
"Q 	c #171616",
"R 	c #787775",
"S 	c #080704",
"T 	c #080703",
"U 	c #060606",
"V 	c #424141",
"W 	c #B7B7B5",
"X 	c #AAAAA8",
"Y 	c #0D0D0D",
"Z 	c #090804",
"` 	c #110F08",
" .	c #8B7D4A",
"..	c #13110A",
"+.	c #050504",
"@.	c #BEBEBD",
"#.	c #ADACAB",
"$.	c #A3A2A1",
"%.	c #5C5C5B",
"&.	c #090803",
"*.	c #7C7042",
"=.	c #E5CE7B",
"-.	c #EBD075",
";.	c #8C7638",
">.	c #080602",
",.	c #B7B6B5",
"'.	c #999897",
").	c #8B8989",
"!.	c #0A0A0A",
"~.	c #050402",
"{.	c #6D6239",
"].	c #DEC777",
"^.	c #EBD076",
"/.	c #E5C35F",
"(.	c #DFB648",
"_.	c #DBB143",
":.	c #1D1708",
"<.	c #908F8E",
"[.	c #8F8D8D",
"}.	c #858383",
"|.	c #4C4B4B",
"1.	c #070602",
"2.	c #030201",
"3.	c #5C5230",
"4.	c #CAB66C",
"5.	c #C3AE63",
"6.	c #564924",
"7.	c #DFB649",
"8.	c #DEB444",
"9.	c #DEB343",
"0.	c #DEB242",
"a.	c #987A2C",
"b.	c #060501",
"c.	c #999797",
"d.	c #7E7C7C",
"e.	c #848282",
"f.	c #414040",
"g.	c #050401",
"h.	c #030301",
"i.	c #4A4326",
"j.	c #C9B56B",
"k.	c #AC9958",
"l.	c #A58D47",
"m.	c #473A17",
"n.	c #4A3C16",
"o.	c #BC9738",
"p.	c #DDB240",
"q.	c #DDB13F",
"r.	c #DDB03E",
"s.	c #2C230B",
"t.	c #030200",
"u.	c #605F5E",
"v.	c #848382",
"w.	c #878685",
"x.	c #5B5A5A",
"y.	c #010100",
"z.	c #3A341E",
"A.	c #BEAB66",
"B.	c #EDD47C",
"C.	c #605229",
"D.	c #967B33",
"E.	c #54441A",
"F.	c #443714",
"G.	c #95772C",
"H.	c #5A481A",
"I.	c #DCAF3C",
"J.	c #DCAE3B",
"K.	c #A8852C",
"L.	c #040301",
"M.	c #101010",
"N.	c #878585",
"O.	c #676666",
"P.	c #070603",
"Q.	c #2A2616",
"R.	c #AF9D5E",
"S.	c #EDD57E",
"T.	c #E7C767",
"U.	c #E1BA4F",
"V.	c #AC8B35",
"W.	c #5A491B",
"X.	c #3A2E11",
"Y.	c #93772A",
"Z.	c #614D1B",
"`.	c #5F4B1A",
" +	c #DBAE3B",
".+	c #DCAF3B",
"++	c #DCAE3A",
"@+	c #DBAD38",
"#+	c #DBAC37",
"$+	c #3D2F0E",
"%+	c #060400",
"&+	c #131313",
"*+	c #1D1A0F",
"=+	c #A09056",
"-+	c #EED680",
";+	c #E8C969",
">+	c #E1BB51",
",+	c #DEB445",
"'+	c #DEB342",
")+	c #362B10",
"!+	c #8B7027",
"~+	c #755D20",
"{+	c #A3822D",
"]+	c #DBAB36",
"^+	c #DAAB34",
"/+	c #886A1F",
"(+	c #020100",
"_+	c #90824D",
":+	c #EBD37E",
"<+	c #E8C96A",
"[+	c #E2BC52",
"}+	c #DEB344",
"|+	c #DDB241",
"1+	c #9C7C2B",
"2+	c #B08B30",
"3+	c #D7AB39",
"4+	c #DBAC36",
"5+	c #AE8828",
"6+	c #40320E",
"7+	c #554212",
"8+	c #191304",
"9+	c #020201",
"0+	c #100E08",
"a+	c #817445",
"b+	c #E6CF7B",
"c+	c #E8CA6C",
"d+	c #E2BD54",
"e+	c #DDB140",
"f+	c #DCB03D",
"g+	c #DBAD39",
"h+	c #B78F2B",
"i+	c #493810",
"j+	c #4C3A10",
"k+	c #4F3D10",
"l+	c #262213",
"m+	c #EDD57F",
"n+	c #E9CB6E",
"o+	c #E3BE56",
"p+	c #DAAB35",
"q+	c #C0962D",
"r+	c #534013",
"s+	c #43340E",
"t+	c #574312",
"u+	c #4C4323",
"v+	c #E3BF58",
"w+	c #DBAD37",
"x+	c #C2972D",
"y+	c #5B4614",
"z+	c #3D2F0D",
"A+	c #5E4813",
"B+	c #080601",
"C+	c #020200",
"D+	c #010000",
"E+	c #624F1E",
"F+	c #C1962D",
"G+	c #594514",
"H+	c #3C2F0D",
"I+	c #674F16",
"J+	c #0D0A02",
"K+	c #514117",
"L+	c #BF952D",
"M+	c #584414",
"N+	c #735918",
"O+	c #130E03",
"P+	c #362B0F",
"Q+	c #DDB03D",
"R+	c #DCAD39",
"S+	c #DBAB35",
"T+	c #BE942D",
"U+	c #564313",
"V+	c #88691D",
"W+	c #1D1605",
"X+	c #070501",
"Y+	c #090702",
"Z+	c #DCAE39",
"`+	c #D7A834",
" @	c #997724",
".@	c #473810",
"+@	c #3F310E",
"@@	c #A47E22",
"#@	c #4C3A0F",
"$@	c #372D16",
"%@	c #98731B",
"&@	c #110C02",
"*@	c #040300",
"=@	c #0A0802",
"-@	c #6A541B",
";@	c #AF8A2C",
">@	c #AD882B",
",@	c #846720",
"'@	c #574414",
")@	c #31260B",
"!@	c #6E5518",
"~@	c #BC9229",
"{@	c #906F1D",
"]@	c #0A0702",
"^@	c #251F0E",
"/@	c #696354",
"(@	c #EEEEEE",
"_@	c #93825A",
":@	c #CF9C23",
"<@	c #0B0802",
"[@	c #977625",
"}@	c #5C4816",
"|@	c #614C17",
"1@	c #896B20",
"2@	c #B38B28",
"3@	c #D9A830",
"4@	c #C59729",
"5@	c #2A2108",
"6@	c #463F14",
"7@	c #CDCCC6",
"8@	c #928159",
"9@	c #BE8E1E",
"0@	c #D9AA33",
"a@	c #DAAA33",
"b@	c #DAA931",
"c@	c #D9A72F",
"d@	c #674F15",
"e@	c #050400",
"f@	c #685116",
"g@	c #B7A220",
"h@	c #A99935",
"i@	c #9C9779",
"j@	c #BAB9B2",
"k@	c #836C36",
"l@	c #AC8119",
"m@	c #CD9F2E",
"n@	c #D9A82F",
"o@	c #D7A52B",
"p@	c #291F08",
"q@	c #B5881F",
"r@	c #67581E",
"s@	c #827325",
"t@	c #796A22",
"u@	c #64531C",
"v@	c #C18E1B",
"w@	c #7D5C11",
"x@	c #0A0701",
"y@	c #BC9128",
"z@	c #D9A72D",
"A@	c #CA9C28",
"B@	c #161104",
"C@	c #060401",
"D@	c #312507",
"E@	c #C2901D",
"F@	c #A27818",
"G@	c #987015",
"H@	c #856212",
"I@	c #563F0A",
"J@	c #AB8322",
"K@	c #BB8F25",
"L@	c #050300",
"M@	c #0B0800",
"N@	c #0A0801",
"O@	c #906E1A",
"P@	c #0F0B02",
"Q@	c #080500",
"R@	c #1B1404",
"                                                                                                ",
"                                                                                        . + @   ",
"                                                                                    # $ % & * = ",
"                                                                                - ; > , ' ) ! ~ ",
"                                                                            { ] ^ / ( _ : < [   ",
"                                                                        } | 1 2 3 4 5 6 7       ",
"                                                      8 9 8         0 a b c d e f g h           ",
"                                                  i j k l m 1 n o p q r s t u v w               ",
"                                                i x y z A & B C D E F G 4 H I                   ",
"                                            j J K z A & L M L N O P 9 { Q R                     ",
"                                      { S T U V O N L M L & A z W X Y {                         ",
"                                    Z `  ...{ +.@.C L & A z W #.$.%.U                           ",
"                                &.Z *.=.-.;.>.i E & A z ,.#.$.'.).!.                            ",
"                            T ~.{.].^./.(._.:.{ 8 <.,.#.$.'.[.}.|.i                             ",
"                        1.2.3.4.5.6.7.8.9.0.a.b.{ J $.c.[.}.d.e.f.{                             ",
"                    g.h.i.j.k.l.m.n.o.0.p.q.r.s.t.8 u.v.d.w.x.Y o                               ",
"                y.~.z.A.B.C.D.E.F.G.H.q.r.I.J.K.L.  M.N.O.Q o                                   ",
"            { P.Q.R.S.T.U.V.W.X.Y.Z.`. +.+++@+#+$+%+U &+8                                       ",
"        { S *+=+-+;+>+,+9.'+)+!+~+{+.+++@+#+]+^+/+(+                                            ",
"  { { Z .._+:+<+[+,+}+'+|+q.1+2+3+++@+#+4+^+5+6+7+8+{                                           ",
"  9+0+a+b+c+d+,+}+'+|+e+r.f+.+++g+#+4+^+h+i+j+k+t.{ y.                                          ",
"{ l+m+n+o+,+}+'+|+e+r.f+.+++g+#+4+p+q+r+s+t+g.t.{ { {                                           ",
"{ u+v+,+8.'+|+e+r.f+I.++g+w+4+p+x+y+z+A+B+C+{ { { { D+                                          ",
"D+E+8.9.|+e+r.f+I.++g+@+4+p+F+G+H+I+J+y.{ { { { y.                                              ",
"{ K+|+e+q.f+I.++g+@+4+p+L+M+z+N+O+y.{ { { { D+{                                                 ",
"{ P+q.Q+I.J.R+@+4+S+T+U+z+V+W+{ { g.X+{ { {                                                     ",
"{ Y+I.J.Z+@+#+`+ @.@+@@@#@y.{ P.$@%@&@*@                                                        ",
"{ =@-@;@>@,@'@)@!@~@{@]@{ ^@/@(@_@:@{                                                           ",
"  <@[@}@|@1@2@3@4@5@{ L.6@7@M M 8@9@{                                                           ",
"  (+0@a@b@3@c@d@e@t.{ f@g@h@i@j@k@l@*@                                                          ",
"  { m@3@n@o@p@y.{ { C+q@r@s@t@u@v@w@x@                                                          ",
"  { y@z@A@B@t.{ { { C@D@E@F@G@H@I@e@{                                                           ",
"  g.J@K@x@t.{ { { { { L@%+L@x@M@(+                                                              ",
"  N@O@P@(+{ { { { { { { { {                                                                     ",
"  Q@R@D+{ { { { { { { { { {                                                                     ",
"  { { { { { { { { { { { { { {                                                                   ",
"  { { { { { { { { { { { { { {                                                                   ",
"    { { { { { { { { { { { { {                                                                   ",
"    (+{ { { { { { { { { { { { {                                                                 ",
"    (+(+{ { { { { { { { { { { {                                                                 ",
"    { { { { { { { { { { { { { {                                                                 ",
"      { { { { { { { { { { { { {                                                                 ",
"      { { { { { { { { { { { { D+                                                                ",
"        { { { { { { { { { { { {                                                                 ",
"        { { { { { { { { { { (+                                                                  ",
"          { { { { { { { D+{                                                                     ",
"          { { D+D+{ { {                                                                         ",
"              y.t.{                                                                             "};
