/* XPM */
static char * p_games_xpm[] = {
"48 48 155 2",
"  	c None",
". 	c #141414",
"+ 	c #151515",
"@ 	c #0D0D0D",
"# 	c #0F0F0F",
"$ 	c #1C1C1C",
"% 	c #080808",
"& 	c #040404",
"* 	c #0B0B0B",
"= 	c #0E0E0E",
"- 	c #030303",
"; 	c #0A0A0A",
"> 	c #757575",
", 	c #999999",
"' 	c #AAAAAA",
") 	c #AFAFAF",
"! 	c #464646",
"~ 	c #000000",
"{ 	c #050505",
"] 	c #090909",
"^ 	c #595959",
"/ 	c #FFFFFF",
"( 	c #BFBFBF",
"_ 	c #101010",
": 	c #060606",
"< 	c #1B1B1B",
"[ 	c #F0F0F0",
"} 	c #404040",
"| 	c #0C0C0C",
"1 	c #525252",
"2 	c #B4B4B4",
"3 	c #313131",
"4 	c #070707",
"5 	c #181818",
"6 	c #EBEBEB",
"7 	c #3D3D3D",
"8 	c #D4D4D4",
"9 	c #4C4C4C",
"0 	c #515151",
"a 	c #484848",
"b 	c #737373",
"c 	c #505050",
"d 	c #FCFCFC",
"e 	c #DBDBDB",
"f 	c #A2A2A2",
"g 	c #959595",
"h 	c #CBCBCB",
"i 	c #797979",
"j 	c #F2F2F2",
"k 	c #B5B5B5",
"l 	c #B1B1B1",
"m 	c #161616",
"n 	c #6C6C6C",
"o 	c #6E6E6E",
"p 	c #9C9C9C",
"q 	c #D3D3D3",
"r 	c #FDFDFD",
"s 	c #121212",
"t 	c #252525",
"u 	c #C1C1C1",
"v 	c #8F8F8F",
"w 	c #EFEFEF",
"x 	c #B8B8B8",
"y 	c #F4F4F4",
"z 	c #131313",
"A 	c #818181",
"B 	c #6F6F6F",
"C 	c #A3A3A3",
"D 	c #A9A9A9",
"E 	c #FEFEFE",
"F 	c #919191",
"G 	c #656565",
"H 	c #4E4E4E",
"I 	c #303030",
"J 	c #333333",
"K 	c #9D9D9D",
"L 	c #393939",
"M 	c #424242",
"N 	c #3C3C3C",
"O 	c #1E1E1E",
"P 	c #F3F3F3",
"Q 	c #1F1F1F",
"R 	c #9B9B9B",
"S 	c #383838",
"T 	c #616161",
"U 	c #5F5F5F",
"V 	c #B6B6B6",
"W 	c #222222",
"X 	c #F7F7F7",
"Y 	c #A7A7A7",
"Z 	c #3B3B3B",
"` 	c #696969",
" .	c #666666",
"..	c #C2C2C2",
"+.	c #2D2D2D",
"@.	c #838383",
"#.	c #2B2B2B",
"$.	c #171717",
"%.	c #363636",
"&.	c #010101",
"*.	c #7E7E7E",
"=.	c #7D7D7D",
"-.	c #DEDEDE",
";.	c #2A2A2A",
">.	c #C5C5C5",
",.	c #767676",
"'.	c #020202",
").	c #D6D6D6",
"!.	c #272727",
"~.	c #BBBBBB",
"{.	c #777777",
"].	c #545454",
"^.	c #434343",
"/.	c #535353",
"(.	c #686868",
"_.	c #6A6A6A",
":.	c #FBFBFB",
"<.	c #727272",
"[.	c #EAEAEA",
"}.	c #C6C6C6",
"|.	c #B7B7B7",
"1.	c #7C7C7C",
"2.	c #E8E8E8",
"3.	c #E1E1E1",
"4.	c #9E9E9E",
"5.	c #FAFAFA",
"6.	c #707070",
"7.	c #A6A6A6",
"8.	c #444444",
"9.	c #191919",
"0.	c #B9B9B9",
"a.	c #E0E0E0",
"b.	c #E5E5E5",
"c.	c #E7E7E7",
"d.	c #6B6B6B",
"e.	c #636363",
"f.	c #282828",
"g.	c #D5D5D5",
"h.	c #353535",
"i.	c #989898",
"j.	c #373737",
"k.	c #ACACAC",
"l.	c #747474",
"m.	c #494949",
"n.	c #A1A1A1",
"o.	c #4D4D4D",
"p.	c #CDCDCD",
"q.	c #2E2E2E",
"r.	c #F9F9F9",
"s.	c #5C5C5C",
"t.	c #111111",
"u.	c #979797",
"v.	c #B3B3B3",
"w.	c #CFCFCF",
"x.	c #E2E2E2",
"                                                                                                ",
"                                                                                                ",
"                                                                                                ",
"                                                                                                ",
"                                                                                                ",
"                            . + @ # $ % & * =                                                   ",
"                      * - ; > , ' ) ) ! ~ ~ * # { #                                             ",
"                  ] { - ~ ^ / / / / / ( # ~ ~ ~ ~ _ : ]                                         ",
"                : : ~ ~ < [ / / / / / / } ~ ~ ~ ~ ~ ~ | :                                       ",
"              { ~ ~ ~ ~ 1 / / / / / / / 2 @ ~ ~ ~ ~ ~ ~ 3 _                                     ",
"          4 & ~ ~ ~ ~ 5 6 / / / / / / / / 7 ~ ~ ~ ~ ~ : 2 8 5                                   ",
"          | 9 0 0 0 0 a / / / / / / / / / b c 0 0 0 0 1 d / e _                                 ",
"        @ f / / / / / g h / / / / / / / / i / / / / / j k / / l #                               ",
"      m n / / / / / / / o / / / / / / / p q / / / / / / ' r / / b s                             ",
"      t u / / / / / / / v q / / / / / / i / / / / / / / w x / / y .                             ",
"    z A / / / / / / / / / B / / / / / C h / / / / / / / / D E / / F z                           ",
"    _ G / / / / / / / / / H I I I I I J / / / / / / / / / K L M } N {                           ",
"  4 ~ O P / / / / / / / P Q ~ ~ ~ ~ ~ 4 R / / / / / / / / S ~ ~ ~ ~ ]                           ",
"  4 ~ ~ T / / / / / / / U ~ ~ ~ ~ ~ ~ ~ S / / / / / / / V | ~ ~ ~ ~ ~ =                         ",
"  ] ~ ~ W X / / / / / X W ~ ~ ~ ~ ~ ~ ~ ] Y / / / / / / Z ~ ~ ~ ~ ~ ~ :                         ",
"  @ ~ ~ ~ ` / / / / /  .~ ~ ~ ~ ~ ~ ~ ~ ~ N / / / / / ..@ ~ ~ ~ ~ ~ ~ *                         ",
"  4 ~ ~ ~ +.@.@.@.@.@.#.~ ~ ~ ~ ~ ~ ~ ~ ~ $.A @.@.@.@.%.~ ~ ~ ~ ~ ~ ~ @                         ",
"  % ~ ~ &.*./ / / / / =.& ~ ~ ~ ~ ~ ~ ~ ~ ! / / / / / -.. ~ ~ ~ ~ ~ ~ z ~                       ",
"4 ] ~ ~ ;./ / / / / / / ;.~ ~ ~ ~ ~ ~ ~ # >./ / / / / / ! ~ ~ ~ ~ ~ ~ $.~                       ",
"  % ~ ~ ,./ / / / / / / > '.~ ~ ~ ~ ~ ~ M / / / / / / / ).s ~ ~ ~ ~ ~ _                         ",
"  { ~ !.r / / / / / / / r !.~ ~ ~ ~ ~ @ ~./ / / / / / / / M ~ ~ ~ ~ ~ ]                         ",
"  !.,.{./ / / / / / / / / ].^.^.^.^.^.N / / / / / / / / / l /.(._.n B |                         ",
"  _ r 2 :./ / / / / / / X <./ / / / / x l / / / / / / / / Y / / / / [.@                         ",
"  + }.X |./ / / / / / / 1.2./ / / / / / ,./ / / / / / / 3.>./ / / / 4.=                         ",
"    b / l d / / / / / 5.6./ / / / / / / l x / / / / / / 7./ / / / / 8.                          ",
"    9.:.y 0./ / / / / A a./ / / / / / / / ,./ / / / / b.( / / / / c.=                           ",
"    z g / d.7 7 7 7 7 } / / / / / / / / / o N 7 7 7 7 } E / / / / e.4                           ",
"      . [ f.~ ~ ~ ~ ~ z g./ / / / / / / / h.~ ~ ~ ~ ~ - f / / / -.#                             ",
"      s Z ~ ~ ~ ~ ~ ~ ~ ! / / / / / / / i.4 ~ ~ ~ ~ ~ ~ ^./ / r Z {                             ",
"        4 : ~ ~ ~ ~ ~ ~ + -./ / / / / / j.~ ~ ~ ~ ~ ~ ~ { k./ l.=                               ",
"          4 % ~ ~ ~ ~ ~ ~ m./ / / / / n.% ~ ~ ~ ~ ~ ~ ~ ~ a k.=                                 ",
"            ] ] ~ ~ ~ ~ ~ f.|.|.|.|.|.o.~ ~ ~ ~ ~ ~ ~ ~ ~ : ;                                   ",
"              % @ ~ ~ ~ ~ A / / / / / p._ ~ ~ ~ ~ ~ ~ ~ = %                                     ",
"                | @ - ~ q.r./ / / / / / s.~ ~ ~ ~ ~ : ; |                                       ",
"                    % * n d / / / / / / q t.~ ~ : = ;                                           ",
"                        z # ^ u.v.w.x.h ) h.% & @ ~                                             ",
"                              | m m z + z :                                                     ",
"                                                                                                ",
"                                                                                                ",
"                                                                                                ",
"                                                                                                ",
"                                                                                                ",
"                                                                                                "};
