/* XPM */
static char * p_multimedia_xpm[] = {
"48 48 88 1",
" 	c None",
".	c #020202",
"+	c #393939",
"@	c #626262",
"#	c #5C5C5C",
"$	c #5D5D5D",
"%	c #6D6D6D",
"&	c #616161",
"*	c #6A6A6A",
"=	c #575757",
"-	c #6B6B6B",
";	c #5B5B5B",
">	c #636363",
",	c #FFFFFF",
"'	c #7F7F7F",
")	c #808080",
"!	c #595959",
"~	c #666666",
"{	c #B5B5B5",
"]	c #AAAAAA",
"^	c #696969",
"/	c #7D7D7D",
"(	c #838383",
"_	c #606060",
":	c #ACACAC",
"<	c #6F6F6F",
"[	c #707070",
"}	c #646464",
"|	c #4A4A4A",
"1	c #494949",
"2	c #474747",
"3	c #0C0C0C",
"4	c #0F0F0F",
"5	c #121212",
"6	c #141414",
"7	c #131313",
"8	c #060606",
"9	c #050505",
"0	c #070707",
"a	c #0A0A0A",
"b	c #0D0D0D",
"c	c #111111",
"d	c #151515",
"e	c #101010",
"f	c #0E0E0E",
"g	c #090909",
"h	c #040404",
"i	c #000000",
"j	c #080808",
"k	c #0B0B0B",
"l	c #030303",
"m	c #676667",
"n	c #717071",
"o	c #747374",
"p	c #5F5E5F",
"q	c #6E6D6E",
"r	c #5E5E5E",
"s	c #747474",
"t	c #605F60",
"u	c #626162",
"v	c #5E5D5E",
"w	c #616061",
"x	c #5F5F5F",
"y	c #5C5B5C",
"z	c #EFEFEF",
"A	c #908F90",
"B	c #6E6E6E",
"C	c #969696",
"D	c #DFDFDF",
"E	c #595859",
"F	c #E7E7E7",
"G	c #8C8C8C",
"H	c #737373",
"I	c #8F8F8F",
"J	c #939293",
"K	c #929292",
"L	c #E8E8E8",
"M	c #F7F7F7",
"N	c #6D6C6D",
"O	c #D8D8D8",
"P	c #E0E0E0",
"Q	c #898989",
"R	c #737273",
"S	c #5D5C5D",
"T	c #636263",
"U	c #686868",
"V	c #686768",
"W	c #181818",
"                                                ",
"                                                ",
"                                                ",
"                                                ",
"                                                ",
"................................................",
"++++++++++++++++++++++++++++++++++++++++++++++++",
"@###$%####&*=##=-@###$%;###@*=##=-&###$%$###@*=#",
">,,,'%),,,!~{,,]^>,,,)%/,,,#~{,,]^#,,,/%(,,,_~:,",
">,,,'%),,,!~{,,]^>,,,)%/,,,#~{,,]^#,,,/%(,,,_~:,",
">,,,'%),,,!~{,,]^>,,,)%/,,,#~{,,]^#,,,/%(,,,_~:,",
"@<<<>%&[[[_^}[[@-@[[[>%_[[[&^}[[@-_[[[@%@[[[@^><",
"||||||||||||||||||||||||||||||||||||122222222222",
"3456667548.90a3b4cc5666666d75cefbagh..8abec5667c",
"          i                                     ",
"          i                                     ",
"          i                                     ",
"          i                                     ",
"          i                                     ",
"          i                                     ",
"          i                                     ",
"          i                                     ",
"          i                                     ",
"          i                                     ",
"          i                                     ",
"          i                                     ",
"          i                                     ",
"          i                                     ",
"          i                                     ",
"          i                                     ",
"          i                                     ",
"          i                                     ",
"          i                                     ",
"          i                                     ",
"          i                                     ",
"          i                                     ",
"8jgaaagj8.i.h980jggaakkkkkaggg088hh.iilh8jjggggj",
"mmmmmmmmmmmmmmmmmmmmmmmmmmmmmmmmmmmmmmmmmmmmmmmm",
"_noopqrssstqpss%up<ssvqwssswq$ss%t&<ssxqtssswqro",
"yz,,AqB,,,-qC,,DyEF,,GqH,,,nqI,,DEyF,,JqB,,,nqK,",
"yz,,AqB,,,-qC,,DyEF,,GqH,,,nqI,,DEyF,,JqB,,,nqK,",
"yLMMGqNMMM*qJMMOyEPMMQqRMMM[qGMMOEyPMMIqqMMM[qIM",
"m;;;SquyyyTqyyyyUmyyyyqTyyyTqyyyyVVyyyyqTyyyTqy;",
"WWWWWWWWWWWWWWWWWWWWWWWWWWWWWWWWWWWWWWWWWWWWWWWW",
"                                                ",
"                                                ",
"                                                ",
"                                                "};
