/* XPM */
static char * p_network_xpm[] = {
"48 48 322 2",
"  	c None",
". 	c #000000",
"+ 	c #101010",
"@ 	c #6C6E71",
"# 	c #93979A",
"$ 	c #A8AAAC",
"% 	c #AAAAAB",
"& 	c #AAAAAA",
"* 	c #9D9D9D",
"= 	c #8F8F8F",
"- 	c #676868",
"; 	c #191919",
"> 	c #151516",
", 	c #8A8D90",
"' 	c #D9DCDF",
") 	c #FDFDFE",
"! 	c #FFFFFF",
"~ 	c #F1F4F7",
"{ 	c #7E8C9A",
"] 	c #424A52",
"^ 	c #0A0C0D",
"/ 	c #090909",
"( 	c #999DA1",
"_ 	c #F9FAFB",
": 	c #EAEFF5",
"< 	c #AFC5DA",
"[ 	c #AAC1D7",
"} 	c #9BB3C9",
"| 	c #4C5965",
"1 	c #050607",
"2 	c #676B6E",
"3 	c #F2F4F6",
"4 	c #C8D7E5",
"5 	c #A4BDD5",
"6 	c #9FB9D3",
"7 	c #98B3CD",
"8 	c #7F98AF",
"9 	c #2B333C",
"0 	c #989CA0",
"a 	c #FEFEFE",
"b 	c #F0F4F8",
"c 	c #8EAAC4",
"d 	c #85A0BA",
"e 	c #7B97B1",
"f 	c #394855",
"g 	c #000001",
"h 	c #050505",
"i 	c #C0C4C8",
"j 	c #C6D5E4",
"k 	c #718EA8",
"l 	c #68859F",
"m 	c #3F5365",
"n 	c #030405",
"o 	c #B5B9BD",
"p 	c #5E7B95",
"q 	c #55728C",
"r 	c #324658",
"s 	c #010000",
"t 	c #84878B",
"u 	c #84A0BA",
"v 	c #54728C",
"w 	c #4B6983",
"x 	c #53718B",
"y 	c #2C3A47",
"z 	c #020200",
"A 	c #4B4D4F",
"B 	c #A7BFD6",
"C 	c #68849E",
"D 	c #5D7A94",
"E 	c #66839D",
"F 	c #202830",
"G 	c #050400",
"H 	c #010101",
"I 	c #E3E6E8",
"J 	c #E9EFF5",
"K 	c #97B3CD",
"L 	c #67849E",
"M 	c #708DA7",
"N 	c #6A8399",
"O 	c #030304",
"P 	c #020100",
"Q 	c #707275",
"R 	c #CEDBE7",
"S 	c #7A96B0",
"T 	c #839FB9",
"U 	c #3D4A55",
"V 	c #070500",
"W 	c #030303",
"X 	c #EEF0F2",
"Y 	c #BDCDDC",
"Z 	c #8DA9C3",
"` 	c #8BA4BC",
" .	c #070809",
"..	c #010100",
"+.	c #4F5152",
"@.	c #ABBECF",
"#.	c #54718B",
"$.	c #97B2CC",
"%.	c #9FB9D2",
"&.	c #384049",
"*.	c #B1B4B8",
"=.	c #99AFC3",
"-.	c #6C7B89",
";.	c #F0F1F3",
">.	c #C3D0DA",
",.	c #5D7B95",
"'.	c #A9C1D7",
").	c #A1B5CA",
"!.	c #242424",
"~.	c #FCFCFD",
"{.	c #728CA2",
"].	c #AEC4DA",
"^.	c #B0C4D7",
"/.	c #040505",
"(.	c #4E4F50",
"_.	c #C1CCD5",
":.	c #B4C8DC",
"<.	c #646F79",
"[.	c #6D6E70",
"}.	c #71899F",
"|.	c #A8B9C9",
"1.	c #0A0B0C",
"2.	c #151100",
"3.	c #787878",
"4.	c #E1E8EF",
"5.	c #CFDAE4",
"6.	c #C0CEDA",
"7.	c #F8F9FA",
"8.	c #CDD6DE",
"9.	c #B9CCDE",
"0.	c #484F55",
"a.	c #1E1700",
"b.	c #767676",
"c.	c #EFF3F7",
"d.	c #CCDAE7",
"e.	c #A4BBD2",
"f.	c #8EA9C3",
"g.	c #7A97B1",
"h.	c #718DA7",
"i.	c #839AAF",
"j.	c #EDF0F3",
"k.	c #90A6BA",
"l.	c #95A3B0",
"m.	c #0C0D0E",
"n.	c #231C00",
"o.	c #616161",
"p.	c #BDCFE0",
"q.	c #658097",
"r.	c #DBE1E6",
"s.	c #DDE4EB",
"t.	c #AFC4DA",
"u.	c #B5C6D6",
"v.	c #1C1E20",
"w.	c #484849",
"x.	c #271F00",
"y.	c #4B4B4B",
"z.	c #F7F9FB",
"A.	c #CBD9E6",
"B.	c #A5BDD5",
"C.	c #5B7790",
"D.	c #ACC0D3",
"E.	c #BED0E1",
"F.	c #484D53",
"G.	c #474748",
"H.	c #4C4F52",
"I.	c #251D00",
"J.	c #111111",
"K.	c #FAFBFB",
"L.	c #FBFCFD",
"M.	c #D8E2ED",
"N.	c #ADC3D8",
"O.	c #C0CCD8",
"P.	c #E6EDF3",
"Q.	c #7E8791",
"R.	c #171717",
"S.	c #C8D1DA",
"T.	c #303336",
"U.	c #1D1700",
"V.	c #AAB4BE",
"W.	c #D1DDE9",
"X.	c #B4C7DC",
"Y.	c #B7C7D6",
"Z.	c #B2C7DB",
"`.	c #A8B5C2",
" +	c #0A0A0B",
".+	c #A0A7AE",
"++	c #C0CEDB",
"@+	c #050606",
"#+	c #100E00",
"$+	c #525B64",
"%+	c #B3C7DA",
"&+	c #F4F7FA",
"*+	c #D5E1EB",
"=+	c #B3C0CF",
"-+	c #666A6F",
";+	c #CAD8E6",
">+	c #86919C",
",+	c #211A00",
"'+	c #1A1D20",
")+	c #A8C0D7",
"!+	c #D8E3EC",
"~+	c #D0DCE9",
"{+	c #BAC9D8",
"]+	c #282B2E",
"^+	c #343638",
"/+	c #C6D4E2",
"(+	c #C5D4E4",
"_+	c #494F56",
":+	c #2F2600",
"<+	c #869AAE",
"[+	c #C0CEDE",
"}+	c #363A3D",
"|+	c #242628",
"1+	c #BCC9D6",
"2+	c #B6C6D6",
"3+	c #0E0F10",
"4+	c #231B00",
"5+	c #2F373F",
"6+	c #C2D1E1",
"7+	c #464B50",
"8+	c #18191B",
"9+	c #B3C0CC",
"0+	c #BFD0E1",
"a+	c #5E6871",
"b+	c #241C00",
"c+	c #6B8094",
"d+	c #BECDDC",
"e+	c #42464B",
"f+	c #0E0F0F",
"g+	c #A8B4C0",
"h+	c #ABBCCD",
"i+	c #312700",
"j+	c #1A1F24",
"k+	c #7792AB",
"l+	c #B9C7D6",
"m+	c #33363A",
"n+	c #09090A",
"o+	c #9BA6B0",
"p+	c #BACDDF",
"q+	c #464E55",
"r+	c #2B2200",
"s+	c #2A353F",
"t+	c #B2BFCE",
"u+	c #26292C",
"v+	c #111112",
"w+	c #9EA9B4",
"x+	c #6D7985",
"y+	c #080600",
"z+	c #354554",
"A+	c #A2AFBC",
"B+	c #1B1D1F",
"C+	c #1B1C1D",
"D+	c #ABB7C3",
"E+	c #C5D4E3",
"F+	c #8C9BAA",
"G+	c #040405",
"H+	c #382D00",
"I+	c #314455",
"J+	c #77818A",
"K+	c #070708",
"L+	c #292A2C",
"M+	c #B6C3D0",
"N+	c #90A0AF",
"O+	c #111113",
"P+	c #342A00",
"Q+	c #2E3C48",
"R+	c #67839D",
"S+	c #B5C5D5",
"T+	c #44494F",
"U+	c #3A3D40",
"V+	c #BECCD9",
"W+	c #74818D",
"X+	c #292100",
"Y+	c #242D35",
"Z+	c #6F88A0",
"`+	c #97A4B2",
" @	c #1B1D20",
".@	c #020202",
"+@	c #6F7378",
"@@	c #C8D6E4",
"#@	c #B3C5D6",
"$@	c #515A62",
"%@	c #302600",
"&@	c #050708",
"*@	c #475562",
"=@	c #90ABC4",
"-@	c #A6B8C8",
";@	c #1C1C1C",
">@	c #A6ADB5",
",@	c #BECEDF",
"'@	c #74808B",
")@	c #131517",
"!@	c #040300",
"~@	c #332800",
"{@	c #0F1214",
"]@	c #4C5763",
"^@	c #8394A5",
"/@	c #AEC3D8",
"(@	c #ADC0D4",
"_@	c #5F6872",
":@	c #08090A",
"<@	c #4F4F4F",
"[@	c #CBD3DD",
"}@	c #A5B2BF",
"|@	c #666F78",
"1@	c #202326",
"2@	c #1E1800",
"3@	c #070808",
"4@	c #121314",
"5@	c #656666",
"6@	c #6D7277",
"7@	c #4F555A",
"8@	c #1C1F21",
"9@	c #161200",
"0@	c #0F0C00",
"a@	c #1F1900",
"b@	c #140F00",
"c@	c #060500",
"d@	c #0C0900",
"e@	c #110D00",
"f@	c #171200",
"g@	c #0B0900",
"                                                                                                ",
"                                                                . . . . . . . . . .             ",
"                                                          . . . . . . . . . . . . . . .         ",
"                                                .   . . . . . . . . .         . . . . . .       ",
"                                    . . . . . . . . . . . . .                       . . . .     ",
"                              . . . . + @ # $ % & * = - ; . . . .                     . . .     ",
"                            . . > , ' ) ! ! ! ! ! ! ! ! ~ { ] ^ . . .                   . . .   ",
"                        . . / ( _ ! ! ! ! ! ! ! ! ! ! ! : < [ } | 1 . .                 . . .   ",
"                      . . 2 3 ! ! ! ! ! ! ! ! ! ! ! ! ! 4 [ 5 6 7 8 9 . . .               . .   ",
"                    . . 0 a ! ! ! ! ! ! ! ! ! ! ! ! ! b [ 5 6 7 c d e f g . .             . . . ",
"                  . h i ! ! ! ! ! ! ! ! ! ! ! ! ! ! ! j 5 6 7 c d e k l m n . .           . . . ",
"                . . o ! ! ! ! ! ! ! ! ! ! ! ! ! ! ! b 5 6 7 c d e k l p q r . s           . .   ",
"              . . t ! ! ! ! ! ! ! ! ! ! ! ! ! ! ! ! 4 6 7 c u e k l p v w x y . z         . .   ",
"              . A ) ! ! ! ! ! ! ! ! ! ! ! ! ! ! ! a B 7 c u e k C p v w x D E F . G       . .   ",
"            . H I ! ! ! ! ! ! ! ! ! ! ! ! ! ! ! ! J K c u e k C p v w x D L M N O P     . . .   ",
"            . Q ! ! ! ! ! ! ! ! ! ! ! ! ! ! ! ! ! R c u e k C p v w x D L M S T U . V   . . .   ",
"          . W X ! ! ! ! ! ! ! ! ! ! ! ! ! ! ! ! ! Y u e k C p v w x D L M S T Z `  .... . . .   ",
"          . +.! ! ! ! ! ! ! ! ! ! ! ! ! ! ! ! ! ! @.e k C p v w #.D L M S u Z $.%.&.. P . .     ",
"          . *.! ! ! ! ! ! ! ! ! ! ! ! ! ! ! ! ! ! =.k C p v w #.D L M S u Z $.%.5 -.. . . .     ",
"        . . ;.! ! ! ! ! ! ! ! ! ! ! ! ! ! ! ! ! ! >.L p v w #.,.L M S u Z $.%.5 '.).H . .       ",
"        . !.! ! ! ! ! ! ! ! ! ! ! ! ! ! ! ! ! ! ! ~.{.v w #.,.L M S u Z $.%.5 '.].^./.. .       ",
"        . (.! ! ! ! ! ! ! ! ! ! ! ! ! ! ! ! ! ! ! ! _.w #.,.L M S u Z $.%.5 '.].:.<.. . G       ",
"        . [.! ! ! ! ! ! ! ! ! ! ! ! ! ! ! ! ! ! ! ! ) }.,.L M S u Z $.%.5 '.].:.|.1.. . 2.      ",
"        . 3.! ! ! ! ! ! ! ! ! ! ! b 4.5.6.7.! ! ! ! ! 8.L M S u Z $.%.5 '.].:.9.0.. . . a.      ",
"        . b.! ! ! ! ! ! ! ! c.d.e.f.u g.h.i.j.! ! ! ! ! k.S u Z $.6 5 '.].:.9.l.. . m.. n.      ",
"        . o.! ! ! ! ! ! b p.6 $.f.u g.h.L p q.r.! ! ! ! s.u Z $.6 5 '.t.:.9.u.v.. . w.. x.      ",
"      . . y.! ! ! ! z.A.B.6 $.f.u g.h.L p v w C.8.! ! ! ! D.$.6 5 '.t.:.9.E.F.. . G.H.. I.      ",
"      . . J.K.! L.M.N.5 6 $.f.u g.h.L p v w #.,.C O.! ! ! P.6 5 '.t.:.9.E.Q.. . R.S.T.. U.      ",
"      . . . V.W.X.'.5 6 $.Z u g.h.L ,.v w #.,.L h.g.Y.) ! ! Z.'.t.:.9.E.`. +. . .+++@+G #+      ",
"    . . . . $+t.'.5 6 $.Z u g.h.L ,.v w v ,.L h.g.u Z %+&+! *+t.:.9.E.=+v.. . -+;+>+. ,+        ",
"    . . . . '+'.5 6 $.Z u g.h.L ,.#.w v ,.L h.g.u Z $.6 )+!+~+:.9.E.{+]+. . ^+/+(+_+. :+        ",
"    . .   . . <+6 $.Z u g.h.L ,.#.w v p L h.g.u f.$.6 5 '.t.:.9.E.[+}+. . |+1+(+2+3+. 4+        ",
"  . . .     . 5+$.Z u g.h.L ,.#.w v p L h.g.u f.$.6 5 '.t.:.9.E.6+7+. . 8+9+(+0+a+. b+          ",
"  . . .     . . c+u S h.L ,.#.w v p L h.g.u f.$.6 5 '.t.:.9.E.d+e+. . f+g+(+0+h+ +..i+          ",
"  . . .       . j+k+h.L ,.#.w v p L h.g.u f.$.6 5 '.t.:.9.E.l+m+. . n+o+(+0+p+q+. r+            ",
"  . .         . . s+L ,.#.w v p L h.g.u f.$.6 5 '.t.:.9.E.t+u+. . v+w+(+0+p+x+. y+r+            ",
"  . .           . . z+#.w v p L k g.u f.$.6 5 '.t.:.9.E.A+B+. . C+D+E+0+p+F+G+..H+              ",
"  . .             . H I+v p L k g.u f.$.6 5 '.< :.9.E.J+K+. . L+M+E+0+p+N+O+. P+                ",
"  . .               . . Q+R+k e u f.$.6 5 '.< :.9.S+T+. . . U+V+E+0+p+W+@+. X+                  ",
"  . . .               . . Y+Z+u f.K 6 5 '.< :.9.`+ @. . .@+@@@E+0+#@$@. . %@                    ",
"  . . .                 . . &@*@=@6 5 [ < :.-@0.H . . ;@>@;+E+,@'@)@. !@~@                      ",
"  . . .                   . . . {@]@^@/@(@_@:@. . . <@[@;+}@|@1@. . 2@,+                        ",
"    . . .                     . . . . 3@K+. . . 4@5@6@7@8@. . . 9@x.                            ",
"    . . . .                       . . . . . . . . . . . . 0@a@b@                                ",
"      . . . . .             . . . . . . . . c@d@e@f@b@g@..                                      ",
"        . . . . . . . . . . . . . . .                                                           ",
"            . . . . . . . . . . .                                                               ",
"                                                                                                "};
