/* XPM */
static char * p_newmail_xpm[] = {
"48 48 426 2",
"  	c None",
". 	c #010101",
"+ 	c #010100",
"@ 	c #010000",
"# 	c #000000",
"$ 	c #1C190F",
"% 	c #494227",
"& 	c #4A4227",
"* 	c #4A4328",
"= 	c #4B4327",
"- 	c #4C4326",
"; 	c #4C4325",
"> 	c #4D4325",
", 	c #4D4425",
"' 	c #4D4324",
") 	c #4E4324",
"! 	c #4E4423",
"~ 	c #4F4423",
"{ 	c #4F4422",
"] 	c #4F4321",
"^ 	c #504422",
"/ 	c #504421",
"( 	c #504420",
"_ 	c #514420",
": 	c #51441F",
"< 	c #51441E",
"[ 	c #52441E",
"} 	c #52441D",
"| 	c #53441C",
"1 	c #54441C",
"2 	c #53441B",
"3 	c #53441A",
"4 	c #54441A",
"5 	c #55441A",
"6 	c #544319",
"7 	c #544318",
"8 	c #554418",
"9 	c #554317",
"0 	c #151105",
"a 	c #1B180E",
"b 	c #050502",
"c 	c #B7A462",
"d 	c #EDD57E",
"e 	c #EDD47C",
"f 	c #ECD37B",
"g 	c #ECD279",
"h 	c #EBD177",
"i 	c #EBD076",
"j 	c #EBCF74",
"k 	c #EACE72",
"l 	c #EACD71",
"m 	c #E9CC6F",
"n 	c #E9CB6D",
"o 	c #E8CA6B",
"p 	c #E8C96A",
"q 	c #E8C868",
"r 	c #E7C766",
"s 	c #E7C665",
"t 	c #E6C563",
"u 	c #E6C461",
"v 	c #E5C360",
"w 	c #E5C25E",
"x 	c #E5C15C",
"y 	c #E4C05A",
"z 	c #E4BF59",
"A 	c #E3BE57",
"B 	c #E3BD55",
"C 	c #E3BD54",
"D 	c #E2BC52",
"E 	c #E2BB50",
"F 	c #E1BA4F",
"G 	c #E1B94D",
"H 	c #E0B84B",
"I 	c #E0B749",
"J 	c #E0B648",
"K 	c #DFB546",
"L 	c #DFB444",
"M 	c #DEB343",
"N 	c #DEB241",
"O 	c #DDB13F",
"P 	c #DDB03E",
"Q 	c #886B24",
"R 	c #060501",
"S 	c #141004",
"T 	c #2C2717",
"U 	c #645A35",
"V 	c #17140C",
"W 	c #D5BE6F",
"X 	c #ECD37A",
"Y 	c #EBD075",
"Z 	c #EACF73",
"` 	c #EACD70",
" .	c #E9CC6E",
"..	c #E8C969",
"+.	c #E7C664",
"@.	c #E6C562",
"#.	c #E5C35F",
"$.	c #E5C25D",
"%.	c #E4BF58",
"&.	c #E2BC53",
"*.	c #E2BB51",
"=.	c #E2BA50",
"-.	c #E1B94E",
";.	c #E1B84C",
">.	c #E0B74B",
",.	c #E0B649",
"'.	c #DFB547",
").	c #DEB342",
"!.	c #DEB240",
"~.	c #DDB03D",
"{.	c #B08C2F",
"].	c #876A22",
"^.	c #1A1406",
"/.	c #E8CF7A",
"(.	c #38321D",
"_.	c #352F1B",
":.	c #E6CC75",
"<.	c #EBCF75",
"[.	c #EACE73",
"}.	c #EACC70",
"|.	c #E9CB6E",
"1.	c #E9CB6C",
"2.	c #E7C867",
"3.	c #E7C765",
"4.	c #E6C460",
"5.	c #E4C15B",
"6.	c #E3BE56",
"7.	c #E0B74A",
"8.	c #DFB445",
"9.	c #DEB242",
"0.	c #DEB140",
"a.	c #DDAF3D",
"b.	c #CAA036",
"c.	c #191406",
"d.	c #574516",
"e.	c #DBAC36",
"f.	c #D6BF6E",
"g.	c #18160C",
"h.	c #5F5430",
"i.	c #E9CA6C",
"j.	c #E7C767",
"k.	c #E6C462",
"l.	c #E6C360",
"m.	c #E5C35E",
"n.	c #E5C25C",
"o.	c #E4C059",
"p.	c #E3BF57",
"q.	c #DDAF3C",
"r.	c #D9AB39",
"s.	c #3A2E0F",
"t.	c #2E240B",
"u.	c #D5A633",
"v.	c #DBAA34",
"w.	c #B8A35C",
"x.	c #060503",
"y.	c #8F7E45",
"z.	c #E2BC54",
"A.	c #E2BB52",
"B.	c #E1BA4E",
"C.	c #DCAE3A",
"D.	c #66501A",
"E.	c #120E04",
"F.	c #C2982F",
"G.	c #DAAA33",
"H.	c #DAA931",
"I.	c #1A1405",
"J.	c #2C2716",
"K.	c #8E7D45",
"L.	c #B7A056",
"M.	c #DFB344",
"N.	c #DCAF3B",
"O.	c #957525",
"P.	c #030200",
"Q.	c #A37F26",
"R.	c #D9A82F",
"S.	c #2B2616",
"T.	c #E9CC70",
"U.	c #5E512C",
"V.	c #19160B",
"W.	c #D3B660",
"X.	c #DCAE3B",
"Y.	c #DCAD39",
"Z.	c #B8912E",
"`.	c #0B0802",
" +	c #775D1C",
".+	c #DAAA32",
"++	c #D9A72D",
"@+	c #2B2615",
"#+	c #E3C569",
"$+	c #332C17",
"%+	c #383019",
"&+	c #E3C365",
"*+	c #CFA334",
"=+	c #221A08",
"-+	c #493811",
";+	c #DAA932",
">+	c #DAA830",
",+	c #D9A72E",
"'+	c #D9A62D",
")+	c #D8A52B",
"!+	c #1A1304",
"~+	c #D1B45D",
"{+	c #151209",
"]+	c #62542A",
"^+	c #DFB647",
"/+	c #DCAD38",
"(+	c #473711",
"_+	c #231C08",
":+	c #CFA12E",
"<+	c #D9A62C",
"[+	c #D8A429",
"}+	c #2B2614",
"|+	c #B1984C",
"1+	c #040301",
"2+	c #917B3D",
"3+	c #DCAE39",
"4+	c #745B1B",
"5+	c #0B0902",
"6+	c #B88F29",
"7+	c #D8A52A",
"8+	c #D8A428",
"9+	c #D7A327",
"0+	c #2B2514",
"a+	c #E8C869",
"b+	c #E6C663",
"c+	c #877338",
"d+	c #070602",
"e+	c #B79B4A",
"f+	c #DBAC37",
"g+	c #DBAB36",
"h+	c #A17D26",
"i+	c #947320",
"j+	c #D8A62B",
"k+	c #D7A326",
"l+	c #D7A225",
"m+	c #584A23",
"n+	c #1A160A",
"o+	c #D2B052",
"p+	c #E3BE55",
"q+	c #DBAB35",
"r+	c #C0962D",
"s+	c #110D03",
"t+	c #674F16",
"u+	c #D7A328",
"v+	c #D7A226",
"w+	c #D7A124",
"x+	c #D6A122",
"y+	c #1A1303",
"z+	c #2B2513",
"A+	c #DDBA57",
"B+	c #2F2712",
"C+	c #393016",
"D+	c #E0BA54",
"E+	c #D4A531",
"F+	c #2C2209",
"G+	c #3A2D0C",
"H+	c #D7A52D",
"I+	c #D6A022",
"J+	c #D69F20",
"K+	c #191303",
"L+	c #CAA94C",
"M+	c #0D0B05",
"N+	c #140F03",
"O+	c #C89A29",
"P+	c #D6A123",
"Q+	c #D6A021",
"R+	c #D59E1E",
"S+	c #2B2512",
"T+	c #A1863B",
"U+	c #9C8138",
"V+	c #A98C3C",
"W+	c #A88B3B",
"X+	c #A88A39",
"Y+	c #A88938",
"Z+	c #A78937",
"`+	c #A78835",
" @	c #A78734",
".@	c #A78633",
"+@	c #A68632",
"@@	c #A68530",
"#@	c #A6842F",
"$@	c #A5832E",
"%@	c #A5832C",
"&@	c #A4822C",
"*@	c #A4812A",
"=@	c #A48029",
"-@	c #A48027",
";@	c #A47F26",
">@	c #A37E25",
",@	c #A37D23",
"'@	c #A27D23",
")@	c #85661B",
"!@	c #AE8622",
"~@	c #D7A224",
"{@	c #D59F1F",
"]@	c #D59D1C",
"^@	c #2A2412",
"/@	c #B89944",
"(@	c #967D36",
"_@	c #7C5E17",
":@	c #C19223",
"<@	c #D69F21",
"[@	c #D59E1D",
"}@	c #D49D1B",
"|@	c #D49C1A",
"1@	c #191202",
"2@	c #CCAA4B",
"3@	c #806A2E",
"4@	c #D6A226",
"5@	c #6F5313",
"6@	c #CE9A22",
"7@	c #D59D1D",
"8@	c #D49C1B",
"9@	c #D49B19",
"0@	c #D49A18",
"a@	c #2A2411",
"b@	c #DAB650",
"c@	c #746029",
"d@	c #DFB84E",
"e@	c #DBAD37",
"f@	c #DBAB34",
"g@	c #CD9A21",
"h@	c #6E5211",
"i@	c #D59E1F",
"j@	c #D39A17",
"k@	c #D39915",
"l@	c #76622A",
"m@	c #D5B04A",
"n@	c #D9A72F",
"o@	c #D8A529",
"p@	c #BE8E1B",
"q@	c #7A5B11",
"r@	c #D49B18",
"s@	c #D29813",
"t@	c #2A2310",
"u@	c #856E2F",
"v@	c #C4A244",
"w@	c #A97D15",
"x@	c #8D6811",
"y@	c #D39A16",
"z@	c #D29711",
"A@	c #191201",
"B@	c #9C8137",
"C@	c #AD8E3C",
"D@	c #936B10",
"E@	c #A17510",
"F@	c #D39814",
"G@	c #D29712",
"H@	c #D29611",
"I@	c #D1950F",
"J@	c #B4943F",
"K@	c #967B33",
"L@	c #7E5B0C",
"M@	c #B5820F",
"N@	c #D29610",
"O@	c #D1940D",
"P@	c #2A230F",
"Q@	c #CAA746",
"R@	c #7F692B",
"S@	c #D8A328",
"T@	c #6E4E08",
"U@	c #C48C0D",
"V@	c #D1940C",
"W@	c #2A220F",
"X@	c #D8B14A",
"Y@	c #715D26",
"Z@	c #DEB64A",
"`@	c #D49B1A",
" #	c #D39914",
".#	c #D1960F",
"+#	c #CB900D",
"@#	c #684A06",
"##	c #CD910B",
"$#	c #2A220E",
"%#	c #E0B84D",
"&#	c #735E27",
"*#	c #D5AE46",
"=#	c #D39916",
"-#	c #BF870B",
";#	c #715006",
">#	c #816A2B",
",#	c #C4A041",
"'#	c #DAA930",
")#	c #D1950E",
"!#	c #AD7B09",
"~#	c #825C07",
"{#	c #161207",
"]#	c #8C722E",
"^#	c #B5933A",
"/#	c #B59238",
"(#	c #B59237",
"_#	c #B49136",
":#	c #B49034",
"<#	c #B38F33",
"[#	c #B38E32",
"}#	c #B38E30",
"|#	c #B28D2F",
"1#	c #B28C2E",
"2#	c #B18B2C",
"3#	c #B18A2B",
"4#	c #B08A29",
"5#	c #B08928",
"6#	c #B08826",
"7#	c #B08725",
"8#	c #B08623",
"9#	c #AF8522",
"0#	c #AF8521",
"a#	c #AE841F",
"b#	c #AE831E",
"c#	c #AE821D",
"d#	c #AD811B",
"e#	c #AD811A",
"f#	c #AC8119",
"g#	c #AC8017",
"h#	c #AC7F15",
"i#	c #AC7E15",
"j#	c #AC7D13",
"k#	c #AB7D11",
"l#	c #AB7C11",
"m#	c #AA7B0F",
"n#	c #AA7A0D",
"o#	c #AA790C",
"p#	c #A9780B",
"q#	c #A97809",
"r#	c #7B5706",
"s#	c #0E0A00",
"                                                                                                ",
"                                                                                                ",
"                                                                                                ",
"                                                                                                ",
"                                                                                                ",
"                                                                                                ",
"                                                                                                ",
"                                                                                                ",
"  . . . + + + + + + + + + + + + + + + + + + + + + + + + + + @ @ @ @ @ @ @ # # # # # # # # #     ",
"# # $ % & * = = - - - ; ; > , ' ) ! ~ ~ { ] ^ / ( ( _ : : < [ [ } } | 1 2 3 4 5 6 7 8 9 0 + #   ",
"  a b c d e f g h i j k l m n o p q r s t u v w x y z A B C D E F G H I J K L M N O P Q R S #   ",
"  T U V W X g h Y Z k `  .n o ..q r +.@.u #.$.x y %.A B &.*.=.-.;.>.,.'.K L ).!.O ~.{.R ].^.#   ",
"  T /.(._.:.i <.[.l }.|.1.o ..2.3.+.@.4.#.$.5.y %.6.C &.*.F -.;.7.,.'.8.M 9.0.P a.b.c.d.e.^.#   ",
"  T f f.g.h.j [.l m n i.p q j.s t k.l.m.n.5.o.p.6.C D *.F G H 7.J K 8.M N 0.P q.r.s.t.u.v.^.#   ",
"  T g h w.x.y.` m n o p q r s t u #.w x y z A B z.A.E B.G H I J K L ).N O ~.q.C.D.E.F.G.H.I.#   ",
"  J.h Y Z K.x.L.n o ..2.r +.@.u #.$.x y %.6.B &.*.=.-.;.>.,.'.8.M.).!.O ~.N.C.O.P.Q.G.H.R.I.#   ",
"  S.<.[.l T.U.V.W...2.3.+.@.4.#.$.5.o.%.6.C &.*.F G ;.7.J '.8.M 9.0.P q.X.Y.Z.`. +.+H.R.++I.#   ",
"  @+k l m n #+$+%+&+s t u l.w x 5.o.p.6.C D E F G H 7.J K 8.M N O P q.C.Y.*+=+-+;+>+,+'+)+!+#   ",
"  @+` m n o ..~+{+]+t u #.w x y %.A B &.A.=.-.G H I ^+K L ).N O ~.q.C./+e.(+_+:+>+,+<+)+[+!+#   ",
"  }+ .1.o ..2.r |+1+2+#.$.5.y %.6.B &.*.=.-.;.7.,.'.8.M.9.0.O ~.N.3+/+e.4+5+6+R.,+<+7+8+9+!+#   ",
"  0+i.p a+j.3.b+@.c+d+e+5.o.%.6.C D *.F G ;.7.J '.8.M N 0.P q.X.Y.f+g+h+P.i+R.++j+7+8+k+l+!+#   ",
"  0+p q r s t u l.w m+n+o+p.p+C D E F G H 7.J K L M N O P q.C.Y.f+q+r+s+t+,+'+)+[+u+v+w+x+y+#   ",
"  z+q r +.t u #.$.x A+B+C+D+&.A.=.-.;.>.I ^+K L ).N O ~.N.C./+e.q+E+F+G+H+<+7+[+9+l+w+I+J+K+#   ",
"  z+r +.@.4.#.$.5.y %.L+M+# # # # # # # # # # # # # # # # # # # # # N+O+<+7+8+9+l+P+Q+J+R+K+#   ",
"  S+t @.4.m.$.5.o.p.6.T+U+V+W+X+Y+Z+`+ @.@+@@@#@$@%@&@*@=@-@;@>@,@'@)@!@7+8+k+~@P+Q+{@R+]@K+#   ",
"  ^@u v w x y z A B /@(@E F G H I J K L M N O P q.C./+f+q+G.;+>+,+<+)+_@:@v+w+I+<@{@[@}@|@1@#   ",
"  ^@#.$.x y %.A B 2@3@=.-.;.>.,.'.K L ).!.O ~.N.C./+e.q+G.H.R.,+<+7+[+4@5@6@I+J+R+7@8@9@0@1@#   ",
"  a@$.5.y %.6.C b@c@d@-.;.7.,.'.8.M 9.0.P a.X.Y.e@e.f@.+H.R.++<+7+8+k+l+g@h@i@R+]@8@9@j@k@1@#   ",
"  a@5.o.p.6.C D l@m@G H 7.J K 8.M N 0.P q.C.Y.f+q+v.;+>+n@'+)+o@8+k+~@P+Q+p@q@]@|@r@j@k@s@1@#   ",
"  t@z A B z.A.u@v@G H I J K L ).N O ~.q.C./+f+q+G.H.>+,+<+)+[+9+v+w+I+J+i@7@w@x@r@y@k@s@z@A@#   ",
"  t@6.B &.*.B@C@;.>.,.'.8.M.).!.O ~.N.C./+e.f@G.H.R.,+<+7+[+9+l+P+I+J+R+7@8@9@D@E@F@G@H@I@A@#   ",
"  t@C &.*.J@K@;.7.J '.8.M 9.0.P q.X.Y.f+g+f@.+H.R.++j+7+8+k+l+P+Q+J+R+]@|@9@j@k@L@M@N@I@O@A@#   ",
"  P@D E Q@R@H 7.J K 8.M N O P q.C.Y.f+q+v.;+>+,+'+)+[+S@k+~@P+Q+{@[@]@|@r@j@k@s@G@T@U@V@V@A@#   ",
"  W@=.X@Y@Z@I ^+K L ).N O ~.q.C./+e.q+G.H.>+,+<+)+[+9+l+w+I+J+i@7@8@`@r@y@ #s@z@.#+#@###V@A@#   ",
"  $#%#&#*#,.'.8.M.9.0.O ~.N.3+/+e.f@G.H.R.,+<+7+8+9+l+P+I+J+R+7@8@9@j@=#F@G@H@I@O@V@-#;#V@A@#   ",
"  $#>#,#J '.8.M N 0.P q.X.Y.f+g+v.;+'#R.++j+7+8+k+l+P+Q+{@R+]@|@9@j@k@s@G@N@)#O@V@V@V@!#~#A@#   ",
"  {#]#^#/#(#_#:#<#[#}#|#1#2#3#4#5#6#7#8#9#0#a#b#c#d#e#f#g#h#i#j#k#l#m#n#o#p#q#q#q#q#q#q#r#s##   ",
"  # # # # # # # # # # # # # # # # # # # # # # # # # # # # # # # # # # # # # # # # # # # # # #   ",
"                                                                                                ",
"                                                                                                ",
"                                                                                                ",
"                                                                                                ",
"                                                                                                ",
"                                                                                                ",
"                                                                                                ",
"                                                                                                ",
"                                                                                                ",
"                                                                                                "};
