/* XPM */
static char * p_nomail_xpm[] = {
"48 48 258 2",
"  	c None",
". 	c #010101",
"+ 	c #010100",
"@ 	c #000000",
"# 	c #171717",
"$ 	c #3C3C3C",
"% 	c #3D3D3C",
"& 	c #3D3D3D",
"* 	c #3E3E3D",
"= 	c #3E3E3E",
"- 	c #3F3F3E",
"; 	c #3F3F3F",
"> 	c #3E3F3E",
", 	c #3C3D3C",
"' 	c #3C3C3B",
") 	c #3B3B3A",
"! 	c #3A3A3A",
"~ 	c #3A3B3A",
"{ 	c #393A39",
"] 	c #3A3A39",
"^ 	c #393939",
"/ 	c #0E0E0E",
"( 	c #161616",
"_ 	c #040404",
": 	c #969695",
"< 	c #C3C3C1",
"[ 	c #C2C2C0",
"} 	c #C0C0BE",
"| 	c #BFBFBD",
"1 	c #BEBEBC",
"2 	c #BCBCBA",
"3 	c #BBBBB9",
"4 	c #B9BAB8",
"5 	c #B8B8B6",
"6 	c #B7B7B5",
"7 	c #B5B5B3",
"8 	c #B4B4B2",
"9 	c #B2B3B1",
"0 	c #B1B1AF",
"a 	c #AFB0AE",
"b 	c #AEAEAC",
"c 	c #ADADAB",
"d 	c #ABACAA",
"e 	c #AAAAA8",
"f 	c #A8A9A7",
"g 	c #A7A7A5",
"h 	c #A6A6A4",
"i 	c #A4A5A3",
"j 	c #A3A3A1",
"k 	c #A1A2A0",
"l 	c #A0A09E",
"m 	c #9E9F9D",
"n 	c #9D9E9C",
"o 	c #9C9C9A",
"p 	c #9A9B99",
"q 	c #999A98",
"r 	c #979896",
"s 	c #969795",
"t 	c #959593",
"u 	c #5A5B59",
"v 	c #0D0D0D",
"w 	c #242424",
"x 	c #525251",
"y 	c #131312",
"z 	c #AFAFAE",
"A 	c #C1C1BF",
"B 	c #BDBDBB",
"C 	c #BABAB8",
"D 	c #B5B6B4",
"E 	c #B3B3B1",
"F 	c #B0B0AE",
"G 	c #AEAFAD",
"H 	c #ACACAA",
"I 	c #AAABA9",
"J 	c #A9A9A7",
"K 	c #A7A8A6",
"L 	c #A3A4A2",
"M 	c #A2A2A0",
"N 	c #A0A19F",
"O 	c #9F9F9D",
"P 	c #9C9D9B",
"Q 	c #9B9B99",
"R 	c #989896",
"S 	c #959694",
"T 	c #939492",
"U 	c #747574",
"V 	c #585857",
"W 	c #111111",
"X 	c #2E2E2E",
"Y 	c #2C2C2B",
"Z 	c #BBBCBA",
"` 	c #B9B9B7",
" .	c #B6B6B4",
"..	c #B4B5B3",
"+.	c #B2B2B0",
"@.	c #AFAFAD",
"#.	c #ADAEAC",
"$.	c #A8A8A6",
"%.	c #A6A7A5",
"&.	c #A5A5A3",
"*.	c #A1A19F",
"=.	c #9FA09E",
"-.	c #9E9E9C",
";.	c #9B9C9A",
">.	c #989997",
",.	c #979795",
"'.	c #949593",
").	c #929391",
"!.	c #858684",
"~.	c #101010",
"{.	c #383938",
"].	c #8D8E8C",
"^.	c #101110",
"/.	c #141414",
"(.	c #4E4E4D",
"_.	c #B3B4B2",
":.	c #B0B1AF",
"<.	c #ACADAB",
"[.	c #ABABA9",
"}.	c #A9AAA8",
"|.	c #A5A6A4",
"1.	c #A4A4A2",
"2.	c #A2A3A1",
"3.	c #9D9D9B",
"4.	c #9A9A98",
"5.	c #969694",
"6.	c #919290",
"7.	c #8E8F8D",
"8.	c #252625",
"9.	c #1D1E1D",
"0.	c #888987",
"a.	c #8A8B89",
"b.	c #050505",
"c.	c #747473",
"d.	c #B6B7B5",
"e.	c #999997",
"f.	c #929290",
"g.	c #90918F",
"h.	c #8F908E",
"i.	c #414241",
"j.	c #0B0B0B",
"k.	c #7A7B79",
"l.	c #898A88",
"m.	c #242423",
"n.	c #727271",
"o.	c #929291",
"p.	c #91918F",
"q.	c #5E5F5E",
"r.	c #020202",
"s.	c #666665",
"t.	c #878886",
"u.	c #232323",
"v.	c #4A4A49",
"w.	c #141413",
"x.	c #B1B2B0",
"y.	c #949492",
"z.	c #757674",
"A.	c #070706",
"B.	c #232322",
"C.	c #B7B8B6",
"D.	c #282828",
"E.	c #2B2B2B",
"F.	c #939391",
"G.	c #8B8C8A",
"H.	c #828382",
"I.	c #151515",
"J.	c #2D2D2C",
"K.	c #222222",
"L.	c #4A4B4A",
"M.	c #8C8D8B",
"N.	c #80817F",
"O.	c #222221",
"P.	c #858584",
"Q.	c #030303",
"R.	c #6B6C6B",
"S.	c #8E8E8C",
"T.	c #484847",
"U.	c #070707",
"V.	c #727371",
"W.	c #212121",
"X.	c #646463",
"Y.	c #636462",
"Z.	c #5C5C5B",
"`.	c #3F403F",
" +	c #131313",
".+	c #777876",
"++	c #0A0A0A",
"@+	c #40403F",
"#+	c #212120",
"$+	c #292928",
"%+	c #8F8F8D",
"&+	c #888886",
"*+	c #838482",
"=+	c #1B1B1B",
"-+	c #202020",
";+	c #090909",
">+	c #0C0C0C",
",+	c #7C7D7C",
"'+	c #20201F",
")+	c #6F706E",
"!+	c #6B6C6A",
"~+	c #747472",
"{+	c #717170",
"]+	c #70716F",
"^+	c #6E6E6D",
"/+	c #6D6E6C",
"(+	c #6C6C6B",
"_+	c #6B6B6A",
":+	c #6A6B69",
"<+	c #686968",
"[+	c #686867",
"}+	c #676866",
"|+	c #656665",
"1+	c #656564",
"2+	c #525351",
"3+	c #6D6D6C",
"4+	c #1F1F1F",
"5+	c #7E7F7D",
"6+	c #90908E",
"7+	c #4D4E4D",
"8+	c #797A78",
"9+	c #1F1F1E",
"0+	c #575756",
"a+	c #868785",
"b+	c #454645",
"c+	c #818280",
"d+	c #1E1E1E",
"e+	c #8B8B89",
"f+	c #1E1E1D",
"g+	c #4F4F4E",
"h+	c #787977",
"i+	c #1D1D1D",
"j+	c #595958",
"k+	c #828381",
"l+	c #5A5A59",
"m+	c #1D1D1C",
"n+	c #5E5E5D",
"o+	c #1C1C1C",
"p+	c #767775",
"q+	c #626261",
"r+	c #515150",
"s+	c #747573",
"t+	c #848483",
"u+	c #535352",
"v+	c #464746",
"w+	c #7F807E",
"x+	c #1B1C1B",
"y+	c #494948",
"z+	c #434443",
"A+	c #848583",
"B+	c #494A49",
"C+	c #7B7C7A",
"D+	c #1A1B1A",
"E+	c #545453",
"F+	c #575856",
"G+	c #707170",
"H+	c #6E6F6D",
"I+	c #4F504E",
"                                                                                                ",
"                                                                                                ",
"                                                                                                ",
"                                                                                                ",
"                                                                                                ",
"                                                                                                ",
"                                                                                                ",
"                                                                                                ",
"  . . . . . . . . . . . . . . . . . . . . . . . + @ @ @ @ @ @ @ @ @ @ @ @ @ @ @ @ @ @ @ @ @     ",
"@ @ # $ % & * * = - ; ; ; - - = - > - = * * * * * % & & % , $ % $ ' ' ' ) ) ! ~ ! { ] ^ / . @   ",
"  ( _ : < < < < < < [ } | 1 2 3 4 5 6 7 8 9 0 a b c d e f g h i j k l m n o p q r s t u _ v @   ",
"  w x y z < < < [ A | 1 B 3 C 5 6 D 8 E 0 F G c H I J K h i L M N O n P Q q R s S T U _ V W @   ",
"  w | X Y 1 < A } 1 B Z C ` 6  ...E +.F @.#.H I J $.%.&.L M *.=.-.P ;.q >.,.S '.).!.~.{.].^.@   ",
"  w < 0 /.(.} | B 2 C ` 5  .7 _.+.:.@.b <.[.}.$.g |.1.2.*.=.m 3.;.4.>.r 5.'.T 6.7.8.9.0.a.~.@   ",
"  w < [ : b.c.2 3 ` 5 d.7 8 +.0 a b c [.e f g |.i j k l m n o p e.r s '.T f.g.h.i.j.k.l.0.~.@   ",
"  m.A | 1 n.b.o.5 6 D 8 9 0 F G c d e J K h i j M N O n P p q R s S T ).p.h.7.q.r.s.0.t.t.~.@   ",
"  u.1 B 3 C v.w.&.8 E x.F @.#.H I J $.%.&.L M N =.-.P Q q >.,.S y.).6.h.7.].z.A.v.t.t.t.t.~.@   ",
"  B.2 C ` C.0 D.E.@.:.@.b H [.}.$.%.&.1.2.*.=.m 3.;.4.>.r S '.F.6.g.7.].G.H.I.J.t.t.t.t.t.~.@   ",
"  K.` 5 d.7 _.l ~.L.b <.[.e f g |.1.2.k l m 3.;.p e.r s '.T 6.g.h.].M.a.l.Y ( N.t.t.t.t.t.~.@   ",
"  O.6 7 8 9 0 F P.Q.R.e f K h i j k N O n o p q R s t T ).g.h.S.M.G.l.0.T.U.V.t.t.t.t.t.t.~.@   ",
"  W.8 E x.F @.c H X.b.!.h &.L M N O n P Q q >.s S y.).6.h.7.M.G.a.0.t.Y.r.Z.t.t.t.t.t.t.t.~.@   ",
"  W.+.:.@.#.H [.}.$.`. +s 2.*.=.-.P ;.4.>.,.S '.).6.g.7.].G.a.l.t.t..+++@+t.t.t.t.t.t.t.t.~.@   ",
"  #+@.b <.[.}.$.g |.O W.$+-.m 3.;.p >.r 5.'.T 6.g.%+].M.a.l.&+t.t.*+=+w !.t.t.t.t.t.t.t.t.~.@   ",
"  -+c d e f g h i j k S.;+@ @ @ @ @ @ @ @ @ @ @ @ @ @ @ @ @ @ @ @ @ >+,+t.t.t.t.t.t.t.t.t.~.@   ",
"  '+I J K h i L M N O )+!+~+V.{+]+)+^+/+(+_+:+<+[+}+|+1+1+1+1+1+1+1+2+3+t.t.t.t.t.t.t.t.t.~.@   ",
"  4+$.%.&.L M *.=.-.5+}+q >.,.S '.).6.6+7.].G.a.0.t.t.t.t.t.t.t.t.t.t.7+8+t.t.t.t.t.t.t.t.~.@   ",
"  9+|.1.2.*.=.m 3.M.0+>.r 5.'.T 6.g.7.].M.a.l.t.t.t.t.t.t.t.t.t.t.t.t.a+b+c+t.t.t.t.t.t.t.~.@   ",
"  d+j k l m n o S (.S s '.T f.g.h.].M.e+l.0.t.t.t.t.t.t.t.t.t.t.t.t.t.t.c+b+a+t.t.t.t.t.t.~.@   ",
"  f+N O n P p q g+7.S T ).p.h.7.M.G.l.0.t.t.t.t.t.t.t.t.t.t.t.t.t.t.t.t.t.h+7+t.t.t.t.t.t.~.@   ",
"  i+-.P Q q >.j+k+y.).6.h.7.].G.a.0.t.t.t.t.t.t.t.t.t.t.t.t.t.t.t.t.t.t.t.t.(+l+t.t.t.t.t.~.@   ",
"  m+;.4.>.r }+V.F.6.g.7.].G.a.l.t.t.t.t.t.t.t.t.t.t.t.t.t.t.t.t.t.t.t.t.t.t.t.n+}+t.t.t.t.~.@   ",
"  o+e.r s p+q+f.g.h.].M.a.l.0.t.t.t.t.t.t.t.t.t.t.t.t.t.t.t.t.t.t.t.t.t.t.t.t.t.r+s+t.t.t.~.@   ",
"  o+s t t+u+g.h.S.M.G.l.0.t.t.t.t.t.t.t.t.t.t.t.t.t.t.t.t.t.t.t.t.t.t.t.t.t.t.t.t.v+w+t.t.~.@   ",
"  x+y.M.y+].7.M.G.a.0.t.t.t.t.t.t.t.t.t.t.t.t.t.t.t.t.t.t.t.t.t.t.t.t.t.t.t.t.t.t.*+z+A+t.~.@   ",
"  =+g.B+t.].G.a.l.t.t.t.t.t.t.t.t.t.t.t.t.t.t.t.t.t.t.t.t.t.t.t.t.t.t.t.t.t.t.t.t.t.C+y+t.~.@   ",
"  D+x C+M.a.l.&+t.t.t.t.t.t.t.t.t.t.t.t.t.t.t.t.t.t.t.t.t.t.t.t.t.t.t.t.t.t.t.t.t.t.t.]+E+~.@   ",
"  / F+G+)+H+/+/+/+/+/+/+/+/+/+/+/+/+/+/+/+/+/+/+/+/+/+/+/+/+/+/+/+/+/+/+/+/+/+/+/+/+/+/+I+;+@   ",
"  @ @ @ @ @ @ @ @ @ @ @ @ @ @ @ @ @ @ @ @ @ @ @ @ @ @ @ @ @ @ @ @ @ @ @ @ @ @ @ @ @ @ @ @ @ @   ",
"                                                                                                ",
"                                                                                                ",
"                                                                                                ",
"                                                                                                ",
"                                                                                                ",
"                                                                                                ",
"                                                                                                ",
"                                                                                                ",
"                                                                                                ",
"                                                                                                "};
