/* XPM */
static char * p_oldmail_xpm[] = {
"48 48 339 2",
"  	c None",
". 	c #000000",
"+ 	c #030303",
"@ 	c #080808",
"# 	c #0F0F0F",
"$ 	c #161616",
"% 	c #202020",
"& 	c #282828",
"* 	c #323232",
"= 	c #3D3D3D",
"- 	c #474747",
"; 	c #525252",
"> 	c #5D5D5D",
", 	c #646464",
"' 	c #5A5A5A",
") 	c #4F4F4F",
"! 	c #454545",
"~ 	c #3A3A3A",
"{ 	c #303030",
"] 	c #262626",
"^ 	c #1E1E1E",
"/ 	c #151515",
"( 	c #0D0D0D",
"_ 	c #050505",
": 	c #070707",
"< 	c #060606",
"[ 	c #676767",
"} 	c #FFFFFF",
"| 	c #F8F8F8",
"1 	c #363636",
"2 	c #3F3F3F",
"3 	c #FBFBFB",
"4 	c #ECECEC",
"5 	c #1F1F1F",
"6 	c #EEEEEE",
"7 	c #DBDBDB",
"8 	c #020202",
"9 	c #010101",
"0 	c #0B0B0B",
"a 	c #D9D9D9",
"b 	c #C3C3C3",
"c 	c #040404",
"d 	c #BBBBBB",
"e 	c #A6A6A6",
"f 	c #949494",
"g 	c #838383",
"h 	c #686868",
"i 	c #5E5E5E",
"j 	c #FAFAFA",
"k 	c #3E3E3E",
"l 	c #F0F0F0",
"m 	c #242424",
"n 	c #E0E0E0",
"o 	c #111111",
"p 	c #CACACA",
"q 	c #959595",
"r 	c #F9F9F9",
"s 	c #F1F1F1",
"t 	c #E8E8E8",
"u 	c #D4D4D4",
"v 	c #C6C6C6",
"w 	c #B6B6B6",
"x 	c #A9A9A9",
"y 	c #9D9D9D",
"z 	c #9E9E9E",
"A 	c #B9B9B9",
"B 	c #C8C8C8",
"C 	c #D8D8D8",
"D 	c #AEAEAE",
"E 	c #131313",
"F 	c #121212",
"G 	c #101010",
"H 	c #0E0E0E",
"I 	c #0C0C0C",
"J 	c #0A0A0A",
"K 	c #0D0D0C",
"L 	c #1D1D1D",
"M 	c #565656",
"N 	c #616161",
"O 	c #6A6A6A",
"P 	c #727272",
"Q 	c #7B7B7B",
"R 	c #848484",
"S 	c #8C8C8C",
"T 	c #AFAFAF",
"U 	c #B8B8B8",
"V 	c #C0C0C0",
"W 	c #C9C9C9",
"X 	c #D2D2D2",
"Y 	c #E3E3E3",
"Z 	c #F5F5F5",
"` 	c #FDFDFD",
" .	c #F3F3F3",
"..	c #E9E9E9",
"+.	c #DFDFDF",
"@.	c #D5D5D5",
"#.	c #CBCBCB",
"$.	c #C1C1C1",
"%.	c #B7B7B7",
"&.	c #ADADAD",
"*.	c #A3A3A3",
"=.	c #999999",
"-.	c #8E8E8E",
";.	c #7A7A7A",
">.	c #707070",
",.	c #585858",
"'.	c #4C4C4C",
").	c #131312",
"!.	c #1C1C1B",
"~.	c #696968",
"{.	c #272727",
"].	c #F4F4F4",
"^.	c #F7F7F7",
"/.	c #515151",
"(.	c #E0E0DE",
"_.	c #373737",
":.	c #5F5F5F",
"<.	c #2B2B2B",
"[.	c #C6C6C4",
"}.	c #252525",
"|.	c #E4E4E2",
"1.	c #CDCDCB",
"2.	c #151514",
"3.	c #969696",
"4.	c #989898",
"5.	c #B2B2B0",
"6.	c #C8C8C6",
"7.	c #A8A8A7",
"8.	c #090909",
"9.	c #CCCCCC",
"0.	c #939392",
"a.	c #C6C6C5",
"b.	c #C4C4C2",
"c.	c #242423",
"d.	c #767674",
"e.	c #EFEFEF",
"f.	c #1A1A1A",
"g.	c #6A6A69",
"h.	c #C4C4C3",
"i.	c #C2C2C1",
"j.	c #C0C0BE",
"k.	c #232323",
"l.	c #E3E3E1",
"m.	c #414140",
"n.	c #FEFEFE",
"o.	c #FCFCFC",
"p.	c #404040",
"q.	c #C3C3C2",
"r.	c #C1C1BF",
"s.	c #BEBEBD",
"t.	c #BCBCBB",
"u.	c #222222",
"v.	c #D3D3D1",
"w.	c #1B1B1B",
"x.	c #898989",
"y.	c #737373",
"z.	c #B7B7B6",
"A.	c #BFBFBE",
"B.	c #BDBDBB",
"C.	c #BABAB9",
"D.	c #B8B8B7",
"E.	c #212121",
"F.	c #B2B2B1",
"G.	c #C2C2C2",
"H.	c #AAAAAA",
"I.	c #A1A1A0",
"J.	c #BEBEBC",
"K.	c #BBBBBA",
"L.	c #B9B9B8",
"M.	c #B6B6B5",
"N.	c #B4B4B3",
"O.	c #818180",
"P.	c #191918",
"Q.	c #80807F",
"R.	c #BABAB8",
"S.	c #B5B5B4",
"T.	c #B0B0AF",
"U.	c #4C4C4B",
"V.	c #585857",
"W.	c #B3B3B2",
"X.	c #B1B1B0",
"Y.	c #ACACAB",
"Z.	c #D8D8D6",
"`.	c #B7B7B5",
" +	c #AFAFAE",
".+	c #ADADAC",
"++	c #868686",
"@+	c #171717",
"#+	c #A7A7A7",
"$+	c #AEAEAD",
"%+	c #ABABAA",
"&+	c #A9A9A8",
"*+	c #A7A7A6",
"=+	c #A4A4A3",
"-+	c #8D8D8C",
";+	c #8F8F8F",
">+	c #A2A2A2",
",+	c #B5B5B5",
"'+	c #DADADA",
")+	c #EDEDED",
"!+	c #D6D6D6",
"~+	c #C4C4C4",
"{+	c #B1B1B1",
"]+	c #7F7F7F",
"^+	c #90908F",
"/+	c #AAAAA9",
"(+	c #A5A5A4",
"_+	c #A3A3A2",
":+	c #A0A0A0",
"<+	c #D1D1CF",
"[+	c #4A4A49",
"}+	c #494948",
"|+	c #383838",
"1+	c #424242",
"2+	c #333332",
"3+	c #444443",
"4+	c #A6A6A5",
"5+	c #9F9F9E",
"6+	c #9C9C9C",
"7+	c #1C1C1C",
"8+	c #DEDEDC",
"9+	c #7C7C7B",
"0+	c #E2E2E0",
"a+	c #DCDCDA",
"b+	c #D9D9D7",
"c+	c #CCCCCA",
"d+	c #979796",
"e+	c #868685",
"f+	c #7C7C7A",
"g+	c #9F9F9F",
"h+	c #B9B9B7",
"i+	c #B8B8B6",
"j+	c #9E9E9D",
"k+	c #696969",
"l+	c #A4A4A4",
"m+	c #A2A2A1",
"n+	c #A0A09F",
"o+	c #9B9B9A",
"p+	c #7E7E7D",
"q+	c #E1E1DF",
"r+	c #DFDFDD",
"s+	c #DCDCDB",
"t+	c #DADAD8",
"u+	c #D5D5D4",
"v+	c #D0D0CF",
"w+	c #CECECC",
"x+	c #C9C9C8",
"y+	c #C7C7C5",
"z+	c #BDBDBC",
"A+	c #8C8C8B",
"B+	c #727271",
"C+	c #9C9C9B",
"D+	c #8F8F8D",
"E+	c #DDDDDB",
"F+	c #DBDBD9",
"G+	c #D8D8D7",
"H+	c #D6D6D4",
"I+	c #D4D4D2",
"J+	c #D1D1D0",
"K+	c #CFCFCD",
"L+	c #CCCCCB",
"M+	c #CACAC9",
"N+	c #C5C5C4",
"O+	c #BCBCBA",
"P+	c #A8A8A8",
"Q+	c #7A7A79",
"R+	c #797979",
"S+	c #9A9A99",
"T+	c #989897",
"U+	c #909090",
"V+	c #B1B1AF",
"W+	c #D9D9D8",
"X+	c #D7D7D5",
"Y+	c #D5D5D3",
"Z+	c #D2D2D1",
"`+	c #D0D0CE",
" @	c #CDCDCC",
".@	c #CBCBC9",
"+@	c #C8C8C7",
"@@	c #C1C1C0",
"#@	c #999998",
"$@	c #949493",
"%@	c #919191",
"&@	c #191919",
"*@	c #CECECD",
"=@	c #C7C7C6",
"-@	c #C5C5C3",
";@	c #C0C0BF",
">@	c #A5A5A5",
",@	c #5A5A59",
"'@	c #878786",
")@	c #929292",
"!@	c #8D8D8D",
"~@	c #8B8B8B",
"{@	c #898988",
"]@	c #181818",
"^@	c #D6D6D5",
"/@	c #A1A1A1",
"(@	c #9D9D9C",
"_@	c #9A9A9A",
":@	c #888888",
"<@	c #878787",
"[@	c #858584",
"}@	c #777776",
"|@	c #CBCBCA",
"1@	c #C9C9C7",
"2@	c #B6B6B4",
"3@	c #9B9B9B",
"4@	c #4B4B4B",
"5@	c #858585",
"6@	c #818181",
"7@	c #787877",
"8@	c #CACAC8",
"9@	c #979797",
"0@	c #959594",
"a@	c #8E8E8D",
"b@	c #7C7C7C",
"c@	c #D2D2D0",
"d@	c #CFCFCE",
"e@	c #969695",
"f@	c #939393",
"g@	c #919190",
"h@	c #8A8A89",
"i@	c #828282",
"j@	c #6D6D6D",
"k@	c #1B1B1A",
"l@	c #AAAAA8",
"m@	c #C2C2C0",
"n@	c #BBBBB9",
"o@	c #929291",
"p@	c #8A8A8A",
"q@	c #626262",
"r@	c #5C5C5C",
"s@	c #C3C3C1",
"t@	c #666666",
"u@	c #BFBFBD",
"v@	c #8F8F8E",
"w@	c #808080",
"x@	c #141414",
"                                                                                                ",
"                                                                                                ",
"                                        . . . . . . .                                           ",
"                        + @ # $ % & * = - ; > , ' ) ! ~ { ] ^ / ( _ :                           ",
"                      < [ } } } } } } } } } } } } } } } } } } } } | 1 :                         ",
"                    : 2 3 } } } } } } } } } } } } } } } } } } } } } 4 5 _                       ",
"                  < 5 6 } } } } } } } } } } } } } } } } } } } } } } } 7 ( 8                     ",
"                9 0 a } } } } } } } } } } } } } } } } } } } } } } } } } b c .                   ",
"                8 d } } } } } } } } } } } } } } } } } } } } } } } } } } } e 9 .                 ",
"              + f } } } } } } } } } } } } } } } } } } } } } } } } } } } } } g c .               ",
"            < h } } } } } } } } } } } } } } } } } } } } } } } } } } } } } } } i <               ",
"          : 2 3 } } } } } } } } } } } } } } } } } } } } } } } } } } } } } } } j k <             ",
"        < % 6 } } } } } } } } } } } } } } } } } } } } } } } } } } } } } } } } } l m _           ",
"      8 0 a } } } } } } } } } } } } } } } } } } } } } } } } } } } } } } } } } } } n o +         ",
"      8 d } } } } } } } } } } } } } } } } } } } } } } } } } } } } } } } } } } } } } p < .       ",
"    8 q } } } } } } } } } } } r s t n u v w x y z x A B C t s j } } } } } } } } } } } D 9 .     ",
"  . _ E o F F E E E F o G H I J @ _ 9 . . . . + : + . . . . + < @ J I K ( ( ( I 0 I H # _ . .   ",
". + L M N O P Q R S q z e T U V W X 7 Y 4 Z ` } } } `  ...+.@.#.$.%.&.*.=.-.R ;.>., ,.'.^ 8 .   ",
"  ).0 @.} } } } } } } } } } } } } } } } } } } } } } } } } } } } } } } } } } } } } } } +.o $ .   ",
"  !.~.{.].} } } } } } } } } } } } } } } } } } } } } } } } } } } } } } } } } } } } } ^.{ /.] .   ",
"  !.(._.,.} } } } } } } } } } } } } } } } } } } } } } } } } } } } } } } } } } } } } :.<.[.}..   ",
"  !.|.1.2.3.} } } } } } } } } } } } } } } } } } } } } } } } } } } } } } } } } } } 4.o 5.6.m .   ",
"  !.|.|.7.8.9.} } } } } } } } } } } } } } } } } } } } } } } } } } } } } } } } } B @ 0.a.b.c..   ",
"  !.|.|.|.d.5 e.} } } } } } } } } } } } } } } } } } } } } } } } } } } } } } } ..f.g.h.i.j.k..   ",
"  !.|.|.|.l.m.'.n.} } } } } } } } } } } } } } } } } } } } } } } } } } } } } o.k p.q.r.s.t.u..   ",
"  !.|.|.|.|.v.w.x.} } } } } } } } } } } } } } } } } } } } } } } } } } } } } y.% z.A.B.C.D.E..   ",
"  !.|.|.|.|.|.F.8.G.} } } } } } } } } } } } } } } } } } } } } } } } } } } H.0 I.J.K.L.M.N.E..   ",
"  !.|.|.|.|.|.|.O.P...} } } } } } } } } } } } } } } } } } } } } } } } } @.0 Q.t.R.z.S.F.T.% .   ",
"  !.|.|.|.|.|.|.|.U.p.` } } } } } } } } } } } } } } } } } } } } } } } s }.V.C.D.M.W.X.D Y.5 .   ",
"  !.|.|.|.|.|.|.|.Z.u.Q } } } } } } } } } } } } } } } } } } } } } } n.) * M.`.N.F. +.+H.7.^ .   ",
"  !.|.|.|.|.|.|.|.|.C.J %.} } } } } } } } } } } } } } } } } } } } } ++@+#+S.W.T.$+%+&+*+=+^ .   ",
"  !.|.|.|.|.|.|.|.|.|.-+G ;+>+,+B '+)+` } } } } } } } 3 ..!+~+{+z ]+@ ^+W.X. +Y./+#+(+_+:+L .   ",
"  !.|.|.|.|.|.|.|.|.|.<+[+}+|+{.$ _ . 9 o k.1 1+* 5 ( . . @ @+}.2+k 3+F. +.+%+7.4+*.I.5+6+7+.   ",
"  !.|.|.|.|.|.|.|.|.8+9+0+l.(.8+a+b+c+C.7.d+e+f+e+0.g+Y.h+t.C.i+S.W.j+k+Y.&+*+l+m+n+y o+4.w..   ",
"  !.|.|.|.|.|.|.|.|.p+b+q+r+s+t+Z.u+v.v+w+c+x+y+h.i.j.z+K.D.M.N.X. +Y.A+B+(+_+:+j+C+=.d+f w..   ",
"  !.|.|.|.|.|.|.|.D+y+(.E+F+G+H+I+J+K+L+M+6.N+q.r.s.O+L.z.N.F.T..+%+P+4+Q+R+5+6+S+T+q 0.U+f..   ",
"  !.|.|.|.|.|.|._+V+8+a+W+X+Y+Z+`+ @.@+@a.b.@@A.B.C.D.S.W.X.$+Y.&+*+l+m+n+h O.#@3.$@%@;+S &@.   ",
"  !.|.|.|.|.|.i+S+E+t+Z.u+v.<+*@c+x+=@-@i.;@z+K.h+M.N.X. +.+/+7.>@_+I.z C+=.,@'@)@^+!@~@{@]@.   ",
"  !.|.|.|.0+.@R F+b+^@I+J+K+1.M+6.N+q.r.s.t.L.z.S.F.T.&.%+&+4+=+/@5+(@_@T+q )@) :@S x.<@[@]@.   ",
"  !.|.l.q+X+}@b+X+Y+Z+`+ @|@1@a.h.@@A.B.C.D.2@W.X.$+Y.x *+(+>+n+j+3@#@3.$@%@;+{@4@++5@g 6@@+.   ",
"  !.0+r+E+7@K+H+v.<+*@c+8@=@-@i.;@J.K.L.M.N.F. +.+H.7.4+_+I.z C+S+9@0@)@U+a@~@x.b@'.6@]+]+@+.   ",
"  w.8+F+e+A.I+c@d@1.M++@[.q.@@s.t.R.z.S.F.T.$+%+&+e =+m+g+(@_@4.e@f@g@-.S h@<@5@i@j@; ]+]+@+.   ",
"  k@t+#@l@Z+`+w+|@1@a.h.m@A.z+n@D.M.W.X.D Y./+*+(+>+n+j+3@#@3.f o@;+!@p@:@++g 6@]+]+q@r@]+@+.   ",
"  f.Y.$@<+K+L+8@=@N+s@;@J.K.L.`.N.F. +.+%+7.4+*.I.5+6+S+9@0@0.U+a@~@x.++R i@]+]+]+]+]+,.t@@+.   ",
"  $ Q.d@1..@+@[.q.@@u@t.C.z.S.W.T.$+%+&+*+=+m+g+(@o+4.e@f@%@v@S p@<@5@g w@]+]+]+]+]+]+]+) x@.   ",
"  . ( ( ( K I I I I I I 0 0 0 0 0 0 J J J J J J J 8.8.8.8.8.8.@ @ @ @ @ @ @ @ @ @ @ @ @ @ . .   ",
"    . . . . . . . . . . . . . . . . . . . . . . . . . . . . . . . . . . . . . . . . . . . .     ",
"                                                                                                "};
