/* XPM */
static char * p_paint_xpm[] = {
"48 48 454 2",
"  	c None",
". 	c #060806",
"+ 	c #303D2F",
"@ 	c #ABC3A9",
"# 	c #FFFFFF",
"$ 	c #FDFDFC",
"% 	c #9BB798",
"& 	c #83A67F",
"* 	c #1A1A1A",
"= 	c #252525",
"- 	c #444444",
"; 	c #363636",
"> 	c #2D2D2D",
", 	c #090C09",
"' 	c #85A381",
") 	c #F4F7F3",
"! 	c #C3D4C1",
"~ 	c #2E2E2E",
"{ 	c #404040",
"] 	c #565656",
"^ 	c #828282",
"/ 	c #9E9E9E",
"( 	c #A7A7A7",
"_ 	c #585858",
": 	c #424242",
"< 	c #303030",
"[ 	c #040604",
"} 	c #5C7559",
"| 	c #D4E0D2",
"1 	c #E9EFE8",
"2 	c #85A882",
"3 	c #606060",
"4 	c #A0A0A0",
"5 	c #DBDBDB",
"6 	c #C2C2C2",
"7 	c #818181",
"8 	c #3D3D3D",
"9 	c #050705",
"0 	c #2C382B",
"a 	c #A9C1A7",
"b 	c #FDFDFD",
"c 	c #9CB899",
"d 	c #2B2B2B",
"e 	c #9C9C9C",
"f 	c #F4F4F4",
"g 	c #C7C7C7",
"h 	c #545454",
"i 	c #080A07",
"j 	c #82A17F",
"k 	c #F3F6F2",
"l 	c #C4D5C2",
"m 	c #B6B6B6",
"n 	c #E9E9E9",
"o 	c #587056",
"p 	c #D2DED0",
"q 	c #EBF0EA",
"r 	c #86A882",
"s 	c #283327",
"t 	c #A7C0A5",
"u 	c #9DB99A",
"v 	c #647E61",
"w 	c #3A3A3A",
"x 	c #777777",
"y 	c #DDDDDD",
"z 	c #F8F8F8",
"A 	c #808080",
"B 	c #030403",
"C 	c #7C9978",
"D 	c #F2F5F1",
"E 	c #C6D6C4",
"F 	c #789875",
"G 	c #0A0D09",
"H 	c #373737",
"I 	c #656565",
"J 	c #CACACA",
"K 	c #EFEFEF",
"L 	c #7D7D7D",
"M 	c #353535",
"N 	c #3E4F3C",
"O 	c #D0DDCE",
"P 	c #ECF1EB",
"Q 	c #86A883",
"R 	c #80A37D",
"S 	c #1C241B",
"T 	c #050604",
"U 	c #2A2A2A",
"V 	c #474747",
"W 	c #A8A8A8",
"X 	c #FAFAFA",
"Y 	c #DEDEDE",
"Z 	c #080B08",
"` 	c #A1B99F",
" .	c #FEFEFD",
"..	c #9EB99B",
"+.	c #344232",
"@.	c #2C2C2C",
"#.	c #666666",
"$.	c #C8C8C8",
"%.	c #505050",
"&.	c #596D56",
"*.	c #F1F5F0",
"=.	c #C7D7C5",
"-.	c #4E634B",
";.	c #636363",
">.	c #E7E7E7",
",.	c #434343",
"'.	c #131813",
").	c #CDDBCC",
"!.	c #EDF2EC",
"~.	c #87A983",
"{.	c #637E60",
"].	c #E3E3E3",
"^.	c #EEEEEE",
"/.	c #525252",
"(.	c #030503",
"_.	c #8B9E89",
":.	c #A0BA9D",
"<.	c #739270",
"[.	c #070907",
"}.	c #343434",
"|.	c #F2F2F2",
"1.	c #020302",
"2.	c #2F382E",
"3.	c #F0F4EF",
"4.	c #C9D8C7",
"5.	c #7D9F7A",
"6.	c #141913",
"7.	c #A5A5A5",
"8.	c #F0F0F0",
"9.	c #020202",
"0.	c #596457",
"a.	c #F4F7F4",
"b.	c #EDF2ED",
"c.	c #87A984",
"d.	c #81A47E",
"e.	c #273126",
"f.	c #A6A6A6",
"g.	c #040402",
"h.	c #131313",
"i.	c #353B34",
"j.	c #98B495",
"k.	c #354434",
"l.	c #454545",
"m.	c #FBFBFB",
"n.	c #8A8A8A",
"o.	c #0F0F0F",
"p.	c #292A28",
"q.	c #0F110F",
"r.	c #455843",
"s.	c #050605",
"t.	c #696969",
"u.	c #F7F7F7",
"v.	c #3B3B3B",
"w.	c #060606",
"x.	c #878887",
"y.	c #3E3F3D",
"z.	c #0A0B0A",
"A.	c #546A51",
"B.	c #040504",
"C.	c #D4D4D4",
"D.	c #272727",
"E.	c #8D8F8D",
"F.	c #80807F",
"G.	c #737372",
"H.	c #484847",
"I.	c #0B0B0B",
"J.	c #607A5D",
"K.	c #040503",
"L.	c #909090",
"M.	c #EDEDED",
"N.	c #0A0A0A",
"O.	c #8F8F8F",
"P.	c #828280",
"Q.	c #747474",
"R.	c #696868",
"S.	c #5C5B5B",
"T.	c #464544",
"U.	c #111010",
"V.	c #20281F",
"W.	c #81A47D",
"X.	c #6B8868",
"Y.	c #2F2F2F",
"Z.	c #C1C1C1",
"`.	c #90908E",
" +	c #848482",
".+	c #777776",
"++	c #6A6A68",
"@+	c #5E5D5C",
"#+	c #514F4E",
"$+	c #444341",
"%+	c #363433",
"&+	c #151413",
"*+	c #0A0D0A",
"=+	c #080A08",
"-+	c #333333",
";+	c #5B5B5B",
">+	c #202020",
",+	c #929290",
"'+	c #858785",
")+	c #797977",
"!+	c #6C6C69",
"~+	c #5F5E5E",
"{+	c #525150",
"]+	c #464443",
"^+	c #393736",
"/+	c #2D2A29",
"(+	c #1E1B1B",
"_+	c #040303",
":+	c #010201",
"<+	c #B4B4B0",
"[+	c #575757",
"}+	c #F1F1F1",
"|+	c #090909",
"1+	c #959593",
"2+	c #878987",
"3+	c #7A7A79",
"4+	c #6E6E6C",
"5+	c #61605F",
"6+	c #545351",
"7+	c #484645",
"8+	c #3B3937",
"9+	c #2E2B2B",
"0+	c #221E1E",
"a+	c #070505",
"b+	c #BABABA",
"c+	c #7A7A7A",
"d+	c #4C4C4C",
"e+	c #898B89",
"f+	c #7B7B7B",
"g+	c #6E6E6E",
"h+	c #636361",
"i+	c #565554",
"j+	c #494747",
"k+	c #3D3A3A",
"l+	c #302D2D",
"m+	c #232020",
"n+	c #090707",
"o+	c #141414",
"p+	c #8B8B89",
"q+	c #7F7F7B",
"r+	c #717170",
"s+	c #656562",
"t+	c #595655",
"u+	c #4B4947",
"v+	c #3E3C3B",
"w+	c #322E2E",
"x+	c #262221",
"y+	c #0C0A0A",
"z+	c #C4C4C4",
"A+	c #868686",
"B+	c #737573",
"C+	c #8C8E8C",
"D+	c #737371",
"E+	c #666664",
"F+	c #5A5857",
"G+	c #4D4B49",
"H+	c #403E3C",
"I+	c #333130",
"J+	c #272423",
"K+	c #0F0D0D",
"L+	c #484848",
"M+	c #8E908E",
"N+	c #818180",
"O+	c #747473",
"P+	c #686765",
"Q+	c #5B5A59",
"R+	c #4F4D4B",
"S+	c #423F3F",
"T+	c #353333",
"U+	c #292525",
"V+	c #131010",
"W+	c #010101",
"X+	c #BDBDBD",
"Y+	c #868684",
"Z+	c #838381",
"`+	c #777775",
" @	c #5C5C5B",
".@	c #504E4E",
"+@	c #363434",
"@@	c #2A2727",
"#@	c #161313",
"$@	c #030101",
"%@	c #B3B3AF",
"&@	c #080808",
"*@	c #858585",
"=@	c #787876",
"-@	c #6C6B69",
";@	c #525151",
">@	c #454343",
",@	c #393636",
"'@	c #2C2929",
")@	c #191717",
"!@	c #B3B3B0",
"~@	c #E4E4E4",
"{@	c #878785",
"]@	c #7A7A78",
"^@	c #6D6D6C",
"/@	c #545151",
"(@	c #474544",
"_@	c #3B3737",
":@	c #2E2B2A",
"<@	c #1C1919",
"[@	c #676967",
"}@	c #7B7B7A",
"|@	c #6E6E6D",
"1@	c #626161",
"2@	c #555553",
"3@	c #494745",
"4@	c #3C3A39",
"5@	c #2F2C2C",
"6@	c #201D1D",
"7@	c #030202",
"8@	c #B5B5B1",
"9@	c #787878",
"0@	c #3F3F3F",
"a@	c #272827",
"b@	c #7E7E7C",
"c@	c #717070",
"d@	c #656362",
"e@	c #575555",
"f@	c #3E3B3B",
"g@	c #312E2E",
"h@	c #222020",
"i@	c #BFBFBF",
"j@	c #242424",
"k@	c #767675",
"l@	c #727270",
"m@	c #595856",
"n@	c #4C4A4A",
"o@	c #403C3C",
"p@	c #333030",
"q@	c #252222",
"r@	c #17120D",
"s@	c #272017",
"t@	c #272018",
"u@	c #272421",
"v@	c #656564",
"w@	c #5B5957",
"x@	c #4E4C4B",
"y@	c #423F3E",
"z@	c #353331",
"A@	c #282524",
"B@	c #080707",
"C@	c #AEAEAE",
"D@	c #63605D",
"E@	c #4D4236",
"F@	c #A1835F",
"G@	c #B39169",
"H@	c #65523C",
"I@	c #161310",
"J@	c #454442",
"K@	c #434140",
"L@	c #2A2726",
"M@	c #0B0909",
"N@	c #2F2F2E",
"O@	c #B4B4B1",
"P@	c #E2E2E2",
"Q@	c #3F3C37",
"R@	c #856C50",
"S@	c #927656",
"T@	c #1A1510",
"U@	c #242221",
"V@	c #2C2828",
"W@	c #100E0E",
"X@	c #343433",
"Y@	c #595959",
"Z@	c #D0D0CF",
"`@	c #37322C",
" #	c #9C7E5B",
".#	c #AB8A64",
"+#	c #352A1E",
"@#	c #13100D",
"##	c #2D2D2C",
"$#	c #9B9B9B",
"%#	c #37332E",
"&#	c #A68661",
"*#	c #26201A",
"=#	c #ADADAA",
"-#	c #282828",
";#	c #D9D9D9",
">#	c #4A4744",
",#	c #917656",
"'#	c #504131",
")#	c #777472",
"!#	c #725F48",
"~#	c #6F5A41",
"{#	c #565654",
"]#	c #B3B3B1",
"^#	c #D0D0D0",
"/#	c #44413D",
"(#	c #665643",
"_#	c #63513B",
":#	c #696967",
"<#	c #1E1D1B",
"[#	c #2A2927",
"}#	c #22211F",
"|#	c #232220",
"1#	c #262321",
"2#	c #36302A",
"3#	c #463E34",
"4#	c #5B4E3E",
"5#	c #6E5B43",
"6#	c #8F7454",
"7#	c #382F24",
"8#	c #8E8E8C",
"9#	c #171616",
"0#	c #50504F",
"a#	c #E5E5E5",
"b#	c #F9F9F9",
"c#	c #F3F3F3",
"d#	c #CFCFCF",
"e#	c #ABABAB",
"f#	c #65625F",
"g#	c #433B31",
"h#	c #7C6448",
"i#	c #5C4E3D",
"j#	c #7A644A",
"k#	c #705B43",
"l#	c #45423F",
"m#	c #201F1D",
"n#	c #727271",
"o#	c #DFDFDF",
"p#	c #8C8A89",
"q#	c #C6C6C6",
"r#	c #EBEBEB",
"s#	c #5C5A57",
"t#	c #80684D",
"u#	c #977A59",
"v#	c #382F25",
"w#	c #3F3C38",
"x#	c #AFAFAB",
"y#	c #262524",
"z#	c #4E4D4C",
"A#	c #E8E8E8",
"B#	c #373430",
"C#	c #3D3428",
"D#	c #383430",
"E#	c #949491",
"F#	c #222120",
"G#	c #777675",
"H#	c #8B8A89",
"I#	c #383736",
"J#	c #242423",
"K#	c #676764",
"L#	c #B2B2AE",
"M#	c #B2B2AF",
"N#	c #1C1B19",
"O#	c #1F1E1D",
"P#	c #272726",
"Q#	c #2D2C2C",
"R#	c #2B2A29",
"S#	c #272625",
"T#	c #252423",
"U#	c #252524",
"                                                                      . + @ # $ % & & & & & & & ",
"        * = - - ; >                                                   , ' ) # ! & & & & & & & & ",
"            ~ { ] ^ / ( ^ _ : <                                     [ } | # 1 2 & & & & & & & & ",
"                      < - 3 4 5 6 7 8                             9 0 a # b c & & & & & & & & & ",
"                              d - e f g h ~                       i j k # l & & & & & & & & & & ",
"                                    > m # n -                   9 o p # q r & & & & & & & & & & ",
"                                    d 7 # # (                 [ s t # b u & & & & & & & & & & v ",
"                                w x y # z A ~                 B C D # E & & & & & & & & & & F G ",
"                          H I J # # K L M                   . N O # P Q & & & & & & & & & R S T ",
"                    U V W X # # Y I <                       Z ` #  ...& & & & & & & & & & +.9   ",
"                @.#.y # # # $.%.d                         9 &.*.# =.& & & & & & & & & & -.[     ",
"            @.;.>.# # # 6 ,.                              '.).# !.~.& & & & & & & & & {.B       ",
"          - ].# # # ^./.                                (._.#  .:.& & & & & & & & & <.[.        ",
"        }.|.# # # # {                                 1.2.3.# 4.& & & & & & & & & 5.6.B         ",
"        7.# # # # 8.@.                                9.0.a.b.c.& & & & & & & & d.e.9           ",
"        f.# # # # # ]                               g.~ h.i.j.& & & & & & & & & k.9             ",
"        l.# # # # # m.n.l.>                         o.    p.q.<.& & & & & & & r.s.              ",
"          t.u.# # # # # # >.v.                    w.      x.y.z.} & & & & & A.B.                ",
"            }.m # # # # # # C.D.                  ~     E.F.G.H.I.N & & & J.K.                  ",
"                L.# # # # # M.>                 N.    O.P.Q.R.S.T.U.V.W.X.9                     ",
"                Y.M.# # # # Z.                w.    `. +.+++@+#+$+%+&+*+=+                      ",
"                -+m.# # # # ;+                >+  ,+'+)+!+~+{+]+^+/+(+_+:+                    <+",
"                [+# # # # }+-+              |+  1+2+3+4+5+6+7+8+9+0+a+                      <+<+",
"                b+# # # # c+              w.d+  e+f+g+h+i+j+k+l+m+n+                    <+<+<+<+",
"              - # # # # }+<               o+  p+q+r+s+t+u+v+w+x+y+9.                  <+<+<+<+<+",
"              z+# # # # A+              |+B+C+F.D+E+F+G+H+I+J+K+9.                <+<+<+<+<+<+<+",
"            L+# # # # # l.              d M+N+O+P+Q+R+S+T+U+V+W+                <+<+<+<+<+<+<+<+",
"            X+# # # # u.Y.            I.Y+Z+`+++ @.@$++@@@#@$@              <+  %@<+<+<+<+<+<+<+",
"          w # # # # # J             &@d+*@=@-@~+;@>@,@'@)@9.            !@!@!@!@    <+<+<+<+<+<+",
"          7.# # # # # ~@>           o+{@]@^@5+/@(@_@:@<@9.          !@!@!@!@!@!@!@%@  %@<+<+<+<+",
"        }.m.# # # # # # }.        N.[@}@|@1@2@3@4@5@6@7@        8@!@!@!@!@!@!@!@!@!@!@    <+<+<+",
"        9@# # # # # # # 0@        a@b@c@d@e@u+f@g@h@_+      <+!@!@!@!@!@!@!@!@!@!@!@!@!@%@      ",
"      Y.n # # # # # # # i@j@    |+k@l@E+m@n@o@p@q@w.    <+!@!@!@!@!@!@!@!@!@!@!@!@!@!@!@        ",
"      %.# # # # # # # # # - r@s@t@u@v@w@x@y@z@A@B@    !@!@!@!@!@!@!@!@!@!@!@!@!@!@!@            ",
"      C@# # # # # # # z D@E@F@G@G@H@I@J@K@%+L@M@N@O@!@!@!@!@!@!@!@!@!@!@!@!@!@!@%@              ",
"    ; X # # # # # # P@Q@R@G@G@G@G@G@S@T@U@V@W@X@!@!@!@!@!@!@!@!@!@!@!@!@!@!@                    ",
"    Y@# # # # # # Z@`@ #G@G@G@G@G@G@G@.#+#@###!@!@!@!@!@!@!@!@!@!@!@!@!@                        ",
"    $## # # # # ^.%#&#G@G@G@G@G@G@G@G@G@G@*#=#!@!@!@!@!@!@!@!@!@!@%@                            ",
"  -#;## # # # b >#,#G@G@G@G@G@G@G@G@G@G@G@'#b@!@!@!@!@!@!@!@!@                                  ",
"  -+# # # # # )#!#G@G@G@G@G@G@G@G@G@G@G@G@~#{#%@!@!@!@!@]#                                      ",
"  L+# # # ^#/#(#G@G@G@G@G@G@G@G@G@G@G@G@G@_#:#%@  %@                                            ",
"  <#[#}#|#1#2#3#4#5#6#G@G@G@G@G@G@G@G@G@G@7#8#!@!@                                              ",
"  9#0#a#K b## c#d#e#f#g#h#i#g#j#G@G@G@G@k#l#!@!@                                                ",
"    m#n## # # # # # # o#p#q#r#s#t#G@u#v#w#x#%@                                                  ",
"      y#z#A## # # # # # # # # u.B#C#D#E#%@!@                                                    ",
"          F#G#$.z # # # # o#H#I#J#K#L#M#                                                        ",
"              N#O#P#Q#R#S#T#U#                                                                  ",
"                                                                                                "};
