/* XPM */
static char * p_print_xpm[] = {
"48 48 235 2",
"  	c None",
". 	c #010101",
"+ 	c #000000",
"@ 	c #020202",
"# 	c #151515",
"$ 	c #EFEFEF",
"% 	c #161616",
"& 	c #FFFFFF",
"* 	c #111111",
"= 	c #C7C7C7",
"- 	c #0A0A0A",
"; 	c #0C0C0C",
"> 	c #0F0F0F",
", 	c #101010",
"' 	c #171717",
") 	c #0D0D0D",
"! 	c #0B0B0B",
"~ 	c #080808",
"{ 	c #5D5D5D",
"] 	c #E1E1E1",
"^ 	c #FCFCFC",
"/ 	c #FDFDFD",
"( 	c #E4E4E4",
"_ 	c #646464",
": 	c #060606",
"< 	c #040404",
"[ 	c #383838",
"} 	c #ECECEC",
"| 	c #EDEDEC",
"1 	c #D8D8D7",
"2 	c #959593",
"3 	c #858584",
"4 	c #80807F",
"5 	c #7B7B7A",
"6 	c #757575",
"7 	c #767675",
"8 	c #808080",
"9 	c #858585",
"0 	c #959594",
"a 	c #D7D7D7",
"b 	c #EDEDED",
"c 	c #3F3F3F",
"d 	c #868686",
"e 	c #DDDDDC",
"f 	c #DDDDDD",
"g 	c #828282",
"h 	c #737372",
"i 	c #757573",
"j 	c #949492",
"k 	c #9B9B99",
"l 	c #949493",
"m 	c #737373",
"n 	c #6F6F6F",
"o 	c #7C7C7B",
"p 	c #C4C4C3",
"q 	c #DEDEDD",
"r 	c #8E8E8D",
"s 	c #939392",
"t 	c #CDCDCD",
"u 	c #747473",
"v 	c #AAAAA9",
"w 	c #ABABAA",
"x 	c #ACACAA",
"y 	c #ACACAB",
"z 	c #787877",
"A 	c #828281",
"B 	c #CECECE",
"C 	c #CFCFCE",
"D 	c #9B9B9A",
"E 	c #090909",
"F 	c #888888",
"G 	c #BEBEBD",
"H 	c #717171",
"I 	c #A1A1A0",
"J 	c #BCBCBB",
"K 	c #BDBDBC",
"L 	c #656565",
"M 	c #BBBBBA",
"N 	c #BFBFBE",
"O 	c #8F8F8E",
"P 	c #070707",
"Q 	c #B9B9B8",
"R 	c #898988",
"S 	c #CFCFCF",
"T 	c #FBFBFB",
"U 	c #FEFEFE",
"V 	c #F0F0F0",
"W 	c #8B8B8A",
"X 	c #B5B5B4",
"Y 	c #B3B3B2",
"Z 	c #63625E",
"` 	c #2C2A21",
" .	c #3D3B33",
"..	c #C1C1C0",
"+.	c #C0C0BF",
"@.	c #929291",
"#.	c #ADADAC",
"$.	c #6E6E6B",
"%.	c #605F5A",
"&.	c #A4A4A3",
"*.	c #888887",
"=.	c #7F7F7E",
"-.	c #B1B1B0",
";.	c #7C7C7A",
">.	c #615838",
",.	c #E7D07C",
"'.	c #CFBA6F",
").	c #2A271F",
"!.	c #7A7A7A",
"~.	c #ADADAB",
"{.	c #6D6D6C",
"].	c #2D2B24",
"^.	c #8B7E4D",
"/.	c #A29258",
"(.	c #29271D",
"_.	c #3F3D35",
":.	c #D5BF72",
"<.	c #EED680",
"[.	c #645B3A",
"}.	c #6F6F6E",
"|.	c #9C9C9B",
"1.	c #9C9C9A",
"2.	c #4B4B4B",
"3.	c #655D3B",
"4.	c #9D8E55",
"5.	c #5E5D58",
"6.	c #AEAEAC",
"7.	c #797979",
"8.	c #A9A9A8",
"9.	c #36342B",
"0.	c #E7CF7C",
"a.	c #786C42",
"b.	c #646463",
"c.	c #8C8C8A",
"d.	c #8B8B89",
"e.	c #393936",
"f.	c #9C8C54",
"g.	c #D0BB70",
"h.	c #46433B",
"i.	c #AAAAA8",
"j.	c #767676",
"k.	c #A5A5A4",
"l.	c #35332A",
"m.	c #3C3C3C",
"n.	c #545453",
"o.	c #555553",
"p.	c #555554",
"q.	c #565654",
"r.	c #565655",
"s.	c #575755",
"t.	c #575756",
"u.	c #585856",
"v.	c #262624",
"w.	c #45423A",
"x.	c #A6A6A4",
"y.	c #343229",
"z.	c #7A6F45",
"A.	c #0E0E0E",
"B.	c #030303",
"C.	c #030302",
"D.	c #434139",
"E.	c #A2A2A0",
"F.	c #797978",
"G.	c #717170",
"H.	c #9E9E9C",
"I.	c #343129",
"J.	c #131313",
"K.	c #424038",
"L.	c #6F6F6D",
"M.	c #9A9A98",
"N.	c #333128",
"O.	c #413F36",
"P.	c #6C6C6A",
"Q.	c #969694",
"R.	c #323027",
"S.	c #7A6F44",
"T.	c #4A4A49",
"U.	c #878787",
"V.	c #484848",
"W.	c #403E35",
"X.	c #70706F",
"Y.	c #696967",
"Z.	c #929290",
"`.	c #322F26",
" +	c #7A6E44",
".+	c #848484",
"++	c #9B8B54",
"@+	c #3F3D34",
"#+	c #060605",
"$+	c #666664",
"%+	c #8E8E8C",
"&+	c #312E26",
"*+	c #6F643E",
"=+	c #2D2C2B",
"-+	c #4E4D46",
";+	c #2E2D2C",
">+	c #887A49",
",+	c #3E3C33",
"'+	c #6A6A6A",
")+	c #050505",
"!+	c #636362",
"~+	c #8A8A88",
"{+	c #302E25",
"]+	c #6E643E",
"^+	c #443E29",
"/+	c #4B442B",
"(+	c #3D3A32",
"_+	c #8A8A89",
":+	c #676767",
"<+	c #60605F",
"[+	c #868684",
"}+	c #2F2D24",
"|+	c #443E28",
"1+	c #4A432B",
"2+	c #3C3931",
"3+	c #868685",
"4+	c #5D5D5C",
"5+	c #828280",
"6+	c #2E2C24",
"7+	c #C3AF69",
"8+	c #C9B46C",
"9+	c #5C5434",
"0+	c #443D28",
"a+	c #3A3830",
"b+	c #616161",
"c+	c #0B0A07",
"d+	c #16140C",
"e+	c #12100A",
"f+	c #0B0A06",
"g+	c #232013",
"h+	c #0C0B06",
"i+	c #16130B",
"j+	c #211E12",
"k+	c #1E1B10",
"l+	c #0F0D08",
"                                                                                                ",
"                                                                                                ",
"                                                                                                ",
"                                                                                                ",
"                      . + + + + + + + + + + + + + + + + + + + + + + + @                         ",
"                      # $ $ $ $ $ $ $ $ $ $ $ $ $ $ $ $ $ $ $ $ $ $ $ + +                       ",
"                      % & & & & & & & & & & & & & & & & & & & & & & & + +                       ",
"                      % & & & & & & & & & & & & & & & & & & & & & & & + +                       ",
"                      % & & & & & & & & & & & & & & & & & & & & & & & + +                       ",
"                      % & & & & & & & & & & & & & & & & & & & & & & & + +                       ",
"                      % & & & & & & & & & & & & & & & & & & & & & & & + +                       ",
"                      % & & & & & & & & & & & & & & & & & & & & & & & + +                       ",
"                      % & & & & & & & & & & & & & & & & & & & & & & & + +                       ",
"                      % & & & & & & & & & & & & & & & & & & & & & & & + +                       ",
"                      % & & & & & & & & & & & & & & & & & & & & & & & + +                       ",
"                      % & & & & & & & & & & & & & & & & & & & & & & & + +                       ",
"                      % & & & & & & & & & & & & & & & & & & & & & & & + +                       ",
"                      % & & & & & & & & & & & & & & & & & & & & & & & + +                       ",
"                      % & & & & & & & & & & & & & & & & & & & & & & & + +                       ",
"                      % & & & & & & & & & & & & & & & & & & & & & & & + +                       ",
"                      * = = = = = = = = = = = = = = = = = = = = = = = + +                       ",
"      - . ; > > > > > , ' ' ' ' ' ' ' ' ' ' ' ' ' ' ' ' ' ' ' ' ' ' ' > > > > > > ) . !         ",
"    ~ { ] ^ ^ ^ ^ ^ ^ ^ ^ ^ ^ ^ ^ ^ ^ ^ ^ ^ ^ ^ ^ ^ ^ ^ ^ ^ ^ / / / / / / / / / / / ( _ :       ",
"  < [ } } } } } } } } } } } } | | 1 2 3 4 5 6 7 5 8 9 0 a b b b b b b b b b b b b b b b c <     ",
"  ; d e e e e e e f f f f f = g h i j k k k k k k k k l m n o p q q q q q q q q q q q q r ;     ",
"  - s t t t t t t t t t t r u v w w w w w w w x x x x x x y v z A t B B B B B B B B B C D ~     ",
"  E F G G G G G G G G G H I J J J J J J J J J J J J J J J J J K w L M N N N N N N N N N O P     ",
"  E 3 Q Q Q Q Q Q Q Q R S T T T ^ ^ ^ ^ ^ ^ / / / / / U U U U U U V z Q Q Q Q Q Q Q Q Q W P     ",
"  E A X X X Y Z `  .W h ....+.+.+.+.+.+.N N N N N G G G G G G K K K 0 @.#.$.%.&.X X X X *.P     ",
"  E =.-.-.-.;.>.,.'.).!.#.#.#.#.~.~.~.~.~.~.y y y y y y y y y y y y y {.].^./.(.I -.-.-.3 P     ",
"  ~ o #.#.#._.:.<.<.[.}.|.|.|.|.|.|.1.1.1.1.1.1.1.1.1.1.1.D D D D D D 2.3.<.<.4.5.#.#.6.A P     ",
"  ~ 7.8.8.8.9.0.<.<.a.b.c.c.W W W W W W d.d.d.d.d.d.d.d.d.d.d.d.d.d.d.e.f.<.<.g.h.i.i.i.=.:     ",
"  ~ j.k.k.k.l.0.<.<.a.m.n.n.o.o.o.p.p.p.q.q.q.r.r.r.s.s.s.t.t.t.t.u.u.v.f.<.<.g.w.x.x.x.o :     ",
"  ~ u I I I y.0.<.<.z.A.B.B.B.B.B.B.B.B.B.B.B.C.C.C.C.C.C.C.@ @ @ @ @ ! f.<.<.g.D.E.E.E.F.:     ",
"  ~ G.H.H.H.I.0.<.<.z.J.+ + + + + + + + + + + + + + + + + + + + + + + A.f.<.<.g.K.H.H.H.7 :     ",
"  ~ L.M.M.M.N.0.<.<.z.J.+ + + + + + + + + + + + + + + + + + + + + + + A.f.<.<.g.O.M.M.M.h :     ",
"  : P.Q.Q.Q.R.0.<.<.S.T.U.U.U.U.U.U.U.U.U.U.U.U.U.U.U.U.U.U.U.U.U.U.U.V.f.<.<.g.W.Q.Q.Q.X.:     ",
"  : Y.Z.Z.Z.`.0.<.<. +.+& & & & & & & & & & & & & & & & & & & & & & & 3 ++<.<.g.@+Z.Z.Z.{.#+    ",
"  : $+%+%+%+&+0.<.<.*+=+-+-+-+-+-+-+-+-+-+-+-+-+-+-+-+-+-+-+-+-+-+-+-+;+>+<.<.g.,+%+%+%+'+)+    ",
"  : !+~+~+~+{+0.<.<.]+^+<.<.<.<.<.<.<.<.<.<.<.<.<.<.<.<.<.<.<.<.<.<.<./+>+<.<.g.(+_+_+_+:+)+    ",
"  : <+[+[+[+}+0.<.<.]+|+<.<.<.<.<.<.<.<.<.<.<.<.<.<.<.<.<.<.<.<.<.<.<.1+>+<.<.g.2+[+3+3+_ )+    ",
"  : 4+5+5+5+6+7+8+8+9+0+<.<.<.<.<.<.<.<.<.<.<.<.<.<.<.<.<.<.<.<.<.<.<.1+>+<.<.g.a+A A A b+)+    ",
"  B.. @ @ @ c+d+d+d+e+f+g+g+g+g+g+g+g+g+g+g+g+g+g+g+g+g+g+g+g+g+g+g+g+h+i+j+j+k+l+@ @ @ . B.    ",
"    + + + + + + + + + + + + + + + + + + + + + + + + + + + + + + + + + + + + + + + + + + + +     ",
"                                                                                                ",
"                                                                                                ",
"                                                                                                ",
"                                                                                                "};
