/* XPM */
static char * p_schedule_xpm[] = {
"48 48 316 2",
"  	c None",
". 	c #050404",
"+ 	c #0A0A0A",
"@ 	c #060606",
"# 	c #020202",
"$ 	c #969596",
"% 	c #BDBBBC",
"& 	c #AEABAD",
"* 	c #9B989A",
"= 	c #5C5B5B",
"- 	c #0B0B0B",
"; 	c #CBC9CA",
"> 	c #F0EEEF",
", 	c #E5E3E4",
"' 	c #D8D4D6",
") 	c #807E7F",
"! 	c #B6B3B4",
"~ 	c #D7D3D5",
"{ 	c #D6D2D4",
"] 	c #D5D1D3",
"^ 	c #D4D0D2",
"/ 	c #7E7B7C",
"( 	c #7D7B7C",
"_ 	c #949293",
": 	c #949192",
"< 	c #939192",
"[ 	c #939091",
"} 	c #929091",
"| 	c #928F91",
"1 	c #918F90",
"2 	c #918E90",
"3 	c #908E8F",
"4 	c #908D8F",
"5 	c #8F8D8E",
"6 	c #8E8C8D",
"7 	c #8D8B8C",
"8 	c #535252",
"9 	c #080808",
"0 	c #010101",
"a 	c #222222",
"b 	c #282828",
"c 	c #282727",
"d 	c #272727",
"e 	c #272627",
"f 	c #262626",
"g 	c #262525",
"h 	c #252525",
"i 	c #161516",
"j 	c #050505",
"k 	c #020102",
"l 	c #070707",
"m 	c #141515",
"n 	c #030303",
"o 	c #000000",
"p 	c #040505",
"q 	c #6D7070",
"r 	c #676969",
"s 	c #333535",
"t 	c #313232",
"u 	c #191919",
"v 	c #161616",
"w 	c #070808",
"x 	c #575959",
"y 	c #191A1A",
"z 	c #0C0C0C",
"A 	c #6B5A2C",
"B 	c #7D6B34",
"C 	c #7E6A34",
"D 	c #7E6B34",
"E 	c #7E6A33",
"F 	c #7F6A33",
"G 	c #806C33",
"H 	c #806B33",
"I 	c #816C33",
"J 	c #816C32",
"K 	c #826C32",
"L 	c #504421",
"M 	c #030201",
"N 	c #080601",
"O 	c #3E2F0F",
"P 	c #E9D19C",
"Q 	c #FAF4E8",
"R 	c #FAF5EB",
"S 	c #FAF6EC",
"T 	c #FBF7EF",
"U 	c #FBF8F0",
"V 	c #DDBA68",
"W 	c #D2A234",
"X 	c #CD9E33",
"Y 	c #141005",
"Z 	c #050401",
"` 	c #9E7D32",
" .	c #FFFFFF",
"..	c #DBB45C",
"+.	c #654D19",
"@.	c #090701",
"#.	c #050400",
"$.	c #120E04",
"%.	c #CEA956",
"&.	c #D7AC4B",
"*.	c #AB842A",
"=.	c #030301",
"-.	c #1D1708",
";.	c #CDA752",
">.	c #FAF6EB",
",.	c #F9F2E4",
"'.	c #AE852B",
").	c #090702",
"!.	c #000201",
"~.	c #161206",
"{.	c #B39248",
"].	c #F6EEDA",
"^.	c #E5CA8B",
"/.	c #866721",
"(.	c #080602",
"_.	c #262522",
":.	c #040301",
"<.	c #584416",
"[.	c #C79A32",
"}.	c #B98F2E",
"|.	c #34280D",
"1.	c #080603",
"2.	c #777777",
"3.	c #CACACA",
"4.	c #CBCACA",
"5.	c #CAC8C8",
"6.	c #CCCACA",
"7.	c #0D0901",
"8.	c #8C6B23",
"9.	c #27241A",
"0.	c #B5B4B4",
"a.	c #CBC9C9",
"b.	c #070500",
"c.	c #251F0C",
"d.	c #CF9F33",
"e.	c #070602",
"f.	c #5A5A5A",
"g.	c #CAC9C9",
"h.	c #CCCBCB",
"i.	c #CCC9C9",
"j.	c #120F07",
"k.	c #BE9331",
"l.	c #151515",
"m.	c #CBCBCB",
"n.	c #453D21",
"o.	c #C59933",
"p.	c #231F17",
"q.	c #040404",
"r.	c #6E6D6D",
"s.	c #C8C7C7",
"t.	c #CCCCCC",
"u.	c #0D0D0D",
"v.	c #6D6E6E",
"w.	c #6F6239",
"x.	c #C49833",
"y.	c #67634E",
"z.	c #6A6969",
"A.	c #292828",
"B.	c #9F9F9F",
"C.	c #4C4D4D",
"D.	c #FBFCFC",
"E.	c #FDFDFD",
"F.	c #6E6139",
"G.	c #C29733",
"H.	c #696350",
"I.	c #D1D0D0",
"J.	c #C1C1C1",
"K.	c #535353",
"L.	c #7E7E7E",
"M.	c #000101",
"N.	c #A9A9A9",
"O.	c #FEFEFE",
"P.	c #7D714E",
"Q.	c #C19533",
"R.	c #6B6654",
"S.	c #D0D0D0",
"T.	c #CECECE",
"U.	c #848484",
"V.	c #888787",
"W.	c #A4A4A4",
"X.	c #92886B",
"Y.	c #BF9433",
"Z.	c #6B6756",
"`.	c #D1D3D3",
" +	c #CECDCD",
".+	c #898888",
"++	c #B5B3B3",
"@+	c #3A3A3A",
"#+	c #8C8365",
"$+	c #BD9333",
"%+	c #6B695A",
"&+	c #CDCDCD",
"*+	c #CECCCC",
"=+	c #CDCECE",
"-+	c #4D4C4C",
";+	c #3D3D3D",
">+	c #CBC8C8",
",+	c #F8F8F8",
"'+	c #867B5C",
")+	c #BC9233",
"!+	c #6C6A5D",
"~+	c #BDBDBD",
"{+	c #0E0E0E",
"]+	c #979797",
"^+	c #F8F9F9",
"/+	c #746438",
"(+	c #BA9133",
"_+	c #6C6C60",
":+	c #CFD1D1",
"<+	c #767676",
"[+	c #272626",
"}+	c #CDC6C6",
"|+	c #FAFAFA",
"1+	c #EAEDED",
"2+	c #685B35",
"3+	c #BE9433",
"4+	c #696657",
"5+	c #CFCECE",
"6+	c #C3C3C3",
"7+	c #090909",
"8+	c #747272",
"9+	c #010202",
"0+	c #484949",
"a+	c #FCFDFD",
"b+	c #EEF1F1",
"c+	c #675C38",
"d+	c #C09533",
"e+	c #746436",
"f+	c #D3D5D5",
"g+	c #424141",
"h+	c #E5E5E5",
"i+	c #F4F5F5",
"j+	c #6A5D35",
"k+	c #BA9233",
"l+	c #987A31",
"m+	c #9C9A93",
"n+	c #CECFCF",
"o+	c #999999",
"p+	c #A7A7A7",
"q+	c #111111",
"r+	c #F3F5F5",
"s+	c #6F5F31",
"t+	c #C89B33",
"u+	c #746335",
"v+	c #BBBABA",
"w+	c #CDCCCC",
"x+	c #1B1B1B",
"y+	c #7F7E7E",
"z+	c #2A2B2B",
"A+	c #848273",
"B+	c #7F6930",
"C+	c #D1A034",
"D+	c #CEA034",
"E+	c #796633",
"F+	c #A2A198",
"G+	c #4D4D4D",
"H+	c #515050",
"I+	c #585A5A",
"J+	c #6D6342",
"K+	c #9E7F31",
"L+	c #907532",
"M+	c #898371",
"N+	c #7C7C7C",
"O+	c #8A8C89",
"P+	c #6E5F33",
"Q+	c #B08B32",
"R+	c #786739",
"S+	c #908C80",
"T+	c #AEAEAE",
"U+	c #BDBBBB",
"V+	c #040303",
"W+	c #15130C",
"X+	c #2A210D",
"Y+	c #2A220D",
"Z+	c #2B220D",
"`+	c #2C220D",
" @	c #2C230E",
".@	c #2D240E",
"+@	c #2E240E",
"@@	c #2E250E",
"#@	c #2F250E",
"$@	c #30260E",
"%@	c #31260E",
"&@	c #31270E",
"*@	c #261F0D",
"=@	c #17140D",
"-@	c #1E1E1B",
";@	c #393939",
">@	c #CAC7C7",
",@	c #3A3839",
"'@	c #444343",
")@	c #282728",
"!@	c #E3E2E2",
"~@	c #FBFBFB",
"{@	c #E5E2E3",
"]@	c #7F7D7E",
"^@	c #B9B5B7",
"/@	c #DAD6D8",
"(@	c #D9D5D7",
"_@	c #D5D2D4",
":@	c #7C7B7B",
"<@	c #928F90",
"[@	c #525152",
"}@	c #444444",
"|@	c #434343",
"1@	c #434242",
"2@	c #424242",
"3@	c #424142",
"4@	c #414141",
"5@	c #414041",
"6@	c #404040",
"7@	c #403F3F",
"8@	c #3F3F3F",
"9@	c #3F3E3F",
"0@	c #3E3E3E",
"a@	c #252425",
"                                                                                                ",
"      . + + + + + + + + + + + + + + + + + + + + + + + + + @                                     ",
"      # $ % % % % % % % % % % % % % % % % % % % % % & * = -                                     ",
"      # ; > > > > > > > > > > > > > > > > > > > > > , ' ) -                                     ",
"      # ! ' ' ' ' ' ' ' ' ' ' ' ' ' ~ ~ ~ { { { ] ] ] ^ / -                                     ",
"      # ( _ : < < [ } } | 1 1 2 3 3 4 5 5 5 6 6 6 7 7 7 8 9                                     ",
"      0 a b b b b b c d d d d d e f f f f f g h h h h h i j                                     ",
"      k # l m m m m m m m m m m m m m m m m m m m m m n n #                                     ",
"        o p                                         q o                                         ",
"          o r                                       s #                                         ",
"          # t                                       u 0                                         ",
"          0 v                                       w o                                         ",
"          o n                                     x o                                           ",
"            0 s                                   y 0                                           ",
"            o z                                   n o                                           ",
"              o A B C C D E F F G G G H I J K J L M                                             ",
"              N O P Q R S T U V W W W W W W W X Y o                                             ",
"                Z ` Q  . . . ...W W W W W W W +.@.                                              ",
"                #.$.%.T  . . .&.W W W W W W *.=.o                                               ",
"                  @.-.;.>. .,.W W W W W W '.).!.                                                ",
"                    N ~.{.].^.W W W W W /.(._.                                                  ",
"                      Z :.<.[.W W W }.|.1.2.3.4.4.4.4.4.4.4.4.4.4.4.4.4.4.4.4.4.4.4.5.4.6.      ",
"                          7.$.'.W 8.Z 9.0.4.4.a.6.a.4.4.a.4.4.a.a.a.4.4.4.a.a.4.4.4.4.4.        ",
"                            b.c.d.e.f.5.a.a.a.4.g.a.4.4.4.a.4.4.6.4.4.6.4.g.4.h.6.6.h.i.        ",
"                            o j.k.0 l.a.4.4.4.4.4.4.4.4.4.4.4.4.4.4.4.4.4.4.4.4.4.m.            ",
"                          o 0 n.o.p.q.r.s.4.4.4.4.4.4.4.4.4.4.4.4.4.4.4.4.4.4.4.t.              ",
"                      o 0 u.v.w.x.y.z.v A.B.4.4.4.4.4.4.4.4.4.4.4.4.4.4.4.4.4.m.                ",
"                    o 0 C.D.E.F.G.H.I.J.K.@ L.4.4.4.4.4.4.4.4.4.4.4.4.4.4.h.                    ",
"                  M.# N.O. . .P.Q.R.S.T.T.U.l V.4.4.a.a.a.6.a.4.4.4.4.4.a.                      ",
"                o 0 W.O. . . .X.Y.Z.`. +T.T..+- ++a.5.4.4.4.4.4.4.4.a.4.                        ",
"                0 @+O. . . . .#+$+%+  &+*+T.=+-+;+>+4.4.4.4.4.4.4.m.                            ",
"              o 9 ,+ . . . . .'+)+!+    =+T. +~+{+V.4.4.4.4.a.i.                                ",
"              0 ]+ . . . .O.^+/+(+_+      :+T.T.<+[+a.6.>+}+                                    ",
"            o w |+ . .O.D.1+2+o.3+4+          5+6+7+8+                                          ",
"            9+0+O. .a+b+  c+d+W W e+      f+I. + +g+7+                                          ",
"          o 0 h+E.i+    j+k+W W W l+m+n+5+ +T. +T.o+9 p+                                        ",
"          o q+r+      s+t+W W W W W u+v+T. +T.T.5+w+x+y+4.                                      ",
"          # z+    A+B+C+W W W W W W D+E+F+T.T.T.5+5+G+H+4.a.                                    ",
"          o I+  J+K+W W W W W W W W W W L+M+T.5+5+5+N+f a.4.                                    ",
"        o n O+P+3+W W W W W W W W W W W W Q+R+S+5+5+T+# U+4.                                    ",
"      o o V+W+X+Y+Z+`+ @ @.@+@@@#@#@#@$@$@%@&@*@=@-@h n v ;@>@                                  ",
"      # ,@'@'@'@'@'@'@'@'@'@'@'@'@'@'@'@'@'@'@'@'@'@'@'@)@z                                     ",
"      # !@~@~@~@~@~@~@~@~@~@~@~@~@~@~@~@~@~@~@~@~@~@{@' ]@u.                                    ",
"      # ^@/@/@/@/@/@/@/@/@/@/@/@/@/@(@(@(@' ' ' ~ ~ _@^ ( u.                                    ",
"      0 :@_ : < < [ } } <@1 1 2 3 3 4 5 5 5 6 6 6 7 7 7 [@+ 6.                                  ",
"      o @+}@}@'@|@|@|@|@|@1@2@2@3@4@4@5@6@6@7@8@8@9@0@0@a@l                                     ",
"      o o o o o o o o o o o o o o o o o o o o o o o o o o q.                                    ",
"                                                                                                "};
