/* XPM */
static char * p_sound_xpm[] = {
"48 48 502 2",
"  	c None",
". 	c #0B0B0B",
"+ 	c #070709",
"@ 	c #080808",
"# 	c #202022",
"$ 	c #49494D",
"% 	c #444447",
"& 	c #353537",
"* 	c #080809",
"= 	c #070708",
"- 	c #38383B",
"; 	c #65656A",
"> 	c #58585C",
", 	c #131314",
"' 	c #090909",
") 	c #050505",
"! 	c #060709",
"~ 	c #191A1B",
"{ 	c #646469",
"] 	c #1A1A1C",
"^ 	c #060808",
"/ 	c #0C0E11",
"( 	c #3E444A",
"_ 	c #3E3E41",
": 	c #5E5E63",
"< 	c #070809",
"[ 	c #15191D",
"} 	c #8C9AA8",
"| 	c #161719",
"1 	c #616165",
"2 	c #4E4E52",
"3 	c #060708",
"4 	c #23282F",
"5 	c #92A1AE",
"6 	c #93A2B0",
"7 	c #121315",
"8 	c #333336",
"9 	c #060606",
"0 	c #050607",
"a 	c #363E46",
"b 	c #94A3B1",
"c 	c #8D9BA9",
"d 	c #17181A",
"e 	c #5F5F64",
"f 	c #050606",
"g 	c #4B555E",
"h 	c #8794A1",
"i 	c #1C1D1F",
"j 	c #272729",
"k 	c #5E6A74",
"l 	c #7F8B97",
"m 	c #212223",
"n 	c #56565A",
"o 	c #020404",
"p 	c #06080A",
"q 	c #6F7C88",
"r 	c #93A1AF",
"s 	c #909EAD",
"t 	c #8D9CAA",
"u 	c #7F8C99",
"v 	c #1A1B1D",
"w 	c #161617",
"x 	c #060608",
"y 	c #0A0C0E",
"z 	c #7F8B98",
"A 	c #919FAD",
"B 	c #8E9DAB",
"C 	c #8B9AA8",
"D 	c #8997A6",
"E 	c #8695A3",
"F 	c #8392A0",
"G 	c #121314",
"H 	c #3B3B3E",
"I 	c #121619",
"J 	c #8795A2",
"K 	c #8F9DAB",
"L 	c #8C9BA9",
"M 	c #8998A6",
"N 	c #8795A4",
"O 	c #8493A1",
"P 	c #81909F",
"Q 	c #7F8D9C",
"R 	c #7C8B99",
"S 	c #23272A",
"T 	c #4F4F53",
"U 	c #0A0A0A",
"V 	c #1E2428",
"W 	c #8B98A7",
"X 	c #8A99A7",
"Y 	c #8796A4",
"Z 	c #8593A2",
"` 	c #82919F",
" .	c #7F8E9D",
"..	c #7D8C9A",
"+.	c #7A8998",
"@.	c #788695",
"#.	c #758492",
"$.	c #3A4148",
"%.	c #424245",
"&.	c #6A6A6F",
"*.	c #6F6F74",
"=.	c #09090A",
"-.	c #2E363C",
";.	c #8897A5",
">.	c #8694A3",
",.	c #808F9D",
"'.	c #7E8C9B",
").	c #7B8A98",
"!.	c #788796",
"~.	c #768493",
"{.	c #738291",
"].	c #707F8E",
"^.	c #6E7C8B",
"/.	c #4B5660",
"(.	c #2E2F31",
"_.	c #67676C",
":.	c #6C6C71",
"<.	c #717176",
"[.	c #76767B",
"}.	c #7B7B80",
"|.	c #818085",
"1.	c #86858A",
"2.	c #0F0F0F",
"3.	c #404851",
"4.	c #8492A1",
"5.	c #81909E",
"6.	c #7E8D9C",
"7.	c #7C8A99",
"8.	c #798896",
"9.	c #768594",
"0.	c #748291",
"a.	c #71808F",
"b.	c #6E7D8C",
"c.	c #6C7B8A",
"d.	c #697887",
"e.	c #667584",
"f.	c #5E6D7B",
"g.	c #111213",
"h.	c #68686D",
"i.	c #6E6E72",
"j.	c #737377",
"k.	c #78787C",
"l.	c #7D7D81",
"m.	c #828286",
"n.	c #87878B",
"o.	c #8D8C90",
"p.	c #929195",
"q.	c #97969A",
"r.	c #2D2D2E",
"s.	c #040507",
"t.	c #4F5965",
"u.	c #7F8E9C",
"v.	c #7C8B9A",
"w.	c #7A8897",
"x.	c #778695",
"y.	c #748392",
"z.	c #72818F",
"A.	c #6F7E8D",
"B.	c #6A7988",
"C.	c #677685",
"D.	c #647383",
"E.	c #627180",
"F.	c #5F6E7D",
"G.	c #5D6B7B",
"H.	c #272C32",
"I.	c #4A4A4E",
"J.	c #747479",
"K.	c #7A7A7E",
"L.	c #7F7F83",
"M.	c #848488",
"N.	c #89898D",
"O.	c #8E8E92",
"P.	c #939397",
"Q.	c #99989C",
"R.	c #9E9DA1",
"S.	c #A3A2A6",
"T.	c #A8A8AB",
"U.	c #39393A",
"V.	c #5B6773",
"W.	c #7B8998",
"X.	c #788795",
"Y.	c #758493",
"Z.	c #738190",
"`.	c #6D7C8B",
" +	c #6B7988",
".+	c #687786",
"++	c #657483",
"@+	c #637181",
"#+	c #606F7E",
"$+	c #5D6C7C",
"%+	c #5B6A79",
"&+	c #586776",
"*+	c #4A5763",
"=+	c #1C1D1E",
"-+	c #8B8B8F",
";+	c #909094",
">+	c #959599",
",+	c #9A9A9E",
"'+	c #A09FA3",
")+	c #A5A4A8",
"!+	c #AAA9AD",
"~+	c #AFAEB2",
"{+	c #B4B4B7",
"]+	c #B9B9BC",
"^+	c #343435",
"/+	c #080A0C",
"(+	c #65727E",
"_+	c #768593",
":+	c #717F8E",
"<+	c #6B7A89",
"[+	c #697787",
"}+	c #637281",
"|+	c #61707F",
"1+	c #5E6D7C",
"2+	c #5B6A7A",
"3+	c #596877",
"4+	c #1C1F23",
"5+	c #79797C",
"6+	c #9C9C9F",
"7+	c #A1A1A4",
"8+	c #A7A6A9",
"9+	c #ACABAE",
"0+	c #B1B0B3",
"a+	c #B6B5B8",
"b+	c #BBBABD",
"c+	c #C0C0C2",
"d+	c #C5C5C7",
"e+	c #CBCACC",
"f+	c #2F2E2F",
"g+	c #0D1114",
"h+	c #6B7887",
"i+	c #6F7D8C",
"j+	c #647382",
"k+	c #617080",
"l+	c #5C6B7A",
"m+	c #596878",
"n+	c #3E4953",
"o+	c #ADADB0",
"p+	c #B3B2B5",
"q+	c #B8B7BA",
"r+	c #BDBCBF",
"s+	c #C2C1C4",
"t+	c #C7C6C9",
"u+	c #CCCBCE",
"v+	c #D1D1D3",
"w+	c #D7D6D8",
"x+	c #DCDBDD",
"y+	c #272727",
"z+	c #171B20",
"A+	c #5F6E7E",
"B+	c #5D6C7B",
"C+	c #5A6979",
"D+	c #23272D",
"E+	c #6F6E70",
"F+	c #C4C3C6",
"G+	c #C9C8CB",
"H+	c #CECDD0",
"I+	c #D3D2D5",
"J+	c #D8D7DA",
"K+	c #DEDDDF",
"L+	c #D6D5D7",
"M+	c #101010",
"N+	c #040506",
"O+	c #222930",
"P+	c #667484",
"Q+	c #5E6C7C",
"R+	c #586777",
"S+	c #53616F",
"T+	c #17191A",
"U+	c #B0AFB1",
"V+	c #DAD9DB",
"W+	c #8E8E8F",
"X+	c #121212",
"Y+	c #040405",
"Z+	c #303841",
"`+	c #5E6D7D",
" @	c #47535F",
".@	c #C8C7C9",
"+@	c #2D2C2D",
"@@	c #3C4750",
"#@	c #5C6B7B",
"$@	c #5A6978",
"%@	c #3E4852",
"&@	c #959495",
"*@	c #626263",
"=@	c #141414",
"-@	c #020203",
";@	c #242C33",
">@	c #37424C",
",@	c #36414B",
"'@	c #343F4A",
")@	c #343F49",
"!@	c #343E49",
"~@	c #333D47",
"{@	c #323D47",
"]@	c #2D3740",
"^@	c #181B1D",
"/@	c #3B3C3D",
"(@	c #676769",
"_@	c #7A797B",
":@	c #353535",
"<@	c #030303",
"[@	c #030405",
"}@	c #030304",
"|@	c #0C0C0C",
"1@	c #49494A",
"2@	c #77777A",
"3@	c #777779",
"4@	c #757577",
"5@	c #737375",
"6@	c #707072",
"7@	c #6E6E70",
"8@	c #6C6C6E",
"9@	c #69696B",
"0@	c #676669",
"a@	c #656466",
"b@	c #626264",
"c@	c #605F62",
"d@	c #5E5D5F",
"e@	c #5C5B5D",
"f@	c #181819",
"g@	c #000000",
"h@	c #020202",
"i@	c #0C0C0D",
"j@	c #555557",
"k@	c #A8A7AB",
"l@	c #A1A0A4",
"m@	c #878689",
"n@	c #727174",
"o@	c #5E5E60",
"p@	c #4A4A4B",
"q@	c #363536",
"r@	c #272728",
"s@	c #1F1F1F",
"t@	c #111111",
"u@	c #040404",
"v@	c #0E0E0E",
"w@	c #131313",
"x@	c #171718",
"y@	c #1B1B1C",
"z@	c #252526",
"A@	c #323133",
"B@	c #404042",
"C@	c #4E4E50",
"D@	c #5C5C5F",
"E@	c #6F6E71",
"F@	c #767578",
"G@	c #767577",
"H@	c #252525",
"I@	c #292929",
"J@	c #535354",
"K@	c #828183",
"L@	c #4F4E50",
"M@	c #010101",
"N@	c #1A1A1A",
"O@	c #3C3B3D",
"P@	c #5F5F61",
"Q@	c #7B7B7D",
"R@	c #242424",
"S@	c #070707",
"T@	c #696969",
"U@	c #333333",
"V@	c #0D0C0D",
"W@	c #4B4A4C",
"X@	c #555455",
"Y@	c #323232",
"Z@	c #595959",
"`@	c #818080",
" #	c #868585",
".#	c #5F5F5F",
"+#	c #363636",
"@#	c #424243",
"##	c #818082",
"$#	c #080807",
"%#	c #6C6C6D",
"&#	c #797979",
"*#	c #B9B9BB",
"=#	c #7E7E80",
"-#	c #232323",
";#	c #4B4A4A",
">#	c #727272",
",#	c #777676",
"'#	c #505050",
")#	c #282727",
"!#	c #4E4D4E",
"~#	c #707070",
"{#	c #7B7A7B",
"]#	c #767677",
"^#	c #323231",
"/#	c #AEADB0",
"(#	c #737274",
"_#	c #3B3B3B",
":#	c #242324",
"<#	c #4B4A4B",
"[#	c #747375",
"}#	c #727172",
"|#	c #7C7C7D",
"1#	c #787878",
"2#	c #737374",
"3#	c #313131",
"4#	c #7E7D7F",
"5#	c #CFCED0",
"6#	c #CAC9CB",
"7#	c #ACACAD",
"8#	c #939394",
"9#	c #616162",
"0#	c #484849",
"a#	c #363637",
"b#	c #2F2F30",
"c#	c #282828",
"d#	c #212122",
"e#	c #171617",
"f#	c #1D1D1D",
"g#	c #222222",
"h#	c #2C2B2C",
"i#	c #373737",
"j#	c #484848",
"k#	c #585758",
"l#	c #666666",
"m#	c #777777",
"n#	c #8B8B8C",
"o#	c #929192",
"p#	c #919192",
"q#	c #757575",
"r#	c #7E7E7E",
"s#	c #7A797A",
"t#	c #757576",
"u#	c #717172",
"v#	c #6E6D6F",
"w#	c #6D6D6F",
"x#	c #6D6D6E",
"y#	c #69696A",
"z#	c #636363",
"A#	c #1E1E1E",
"B#	c #807F80",
"C#	c #7B7B7C",
"D#	c #727273",
"E#	c #6E6E6F",
"F#	c #2F2F2F",
"G#	c #181918",
"H#	c #4B4B4B",
"I#	c #474848",
"J#	c #7A7A7A",
"K#	c #818182",
"L#	c #7D7D7D",
"M#	c #797879",
"N#	c #747475",
"O#	c #707071",
"P#	c #6B6B6C",
"Q#	c #2E2E2E",
"R#	c #3E3F3F",
"S#	c #B7B9B9",
"T#	c #B8B9B9",
"U#	c #B6B6B7",
"V#	c #838383",
"W#	c #7F7E7F",
"X#	c #7A7A7B",
"Y#	c #0D0D0D",
"Z#	c #949696",
"`#	c #949697",
" $	c #959697",
".$	c #808081",
"+$	c #7C7C7C",
"@$	c #787778",
"#$	c #6F6F70",
"$$	c #646465",
"%$	c #282929",
"&$	c #919393",
"*$	c #919394",
"=$	c #7E7D7E",
"-$	c #79797A",
";$	c #717071",
">$	c #272828",
",$	c #8E9090",
"'$	c #8E9091",
")$	c #7B7B7B",
"!$	c #777677",
"~$	c #656565",
"{$	c #262727",
"]$	c #8B8D8D",
"^$	c #8B8D8E",
"/$	c #787879",
"($	c #666566",
"_$	c #0B0B0A",
":$	c #252626",
"<$	c #88898A",
"[$	c #888A8A",
"}$	c #888A8B",
"|$	c #767576",
"1$	c #666667",
"2$	c #858687",
"3$	c #858688",
"4$	c #858788",
"5$	c #676768",
"6$	c #242525",
"7$	c #828384",
"8$	c #828385",
"9$	c #828485",
"0$	c #090908",
"a$	c #030404",
"b$	c #020201",
"c$	c #121211",
"                                                                                                ",
"                                                                  . +                           ",
"                                                              @ # $ % & *                       ",
"                                                            = - ; ; ; ; > , '                   ",
"                                                        ) ! ~ ; ; ; ; ; ; { ]                   ",
"                                                      ^ / ( _ ; ; ; ; ; ; ; : .                 ",
"                                                    < [ } | 1 ; ; ; ; ; ; ; ; 2 @               ",
"                                                  3 4 5 6 7 ; ; ; ; ; ; ; ; ; ; 8 9             ",
"                                                0 a b b c d ; ; ; ; ; ; ; ; ; ; e @             ",
"                                              f g b b b h i ; ; ; ; ; ; ; ; ; ; ; j             ",
"                                            0 k b b b b l m ; ; ; ; ; ; ; ; ; ; ; n @           ",
"                                        o p q b b r s t u v ; ; ; ; ; ; ; ; ; ; ; ; w           ",
"                                      x y z 6 A B C D E F G { ; ; ; ; ; ; ; ; ; ; ; H           ",
"                                    < I J K L M N O P Q R S n ; ; ; ; ; ; ; ; ; ; ; T U         ",
"                                  3 V W X Y Z `  ...+.@.#.$.%.; ; ; ; ; ; ; ; ; &.*.*.=.        ",
"                                0 -.;.>.F ,.'.).!.~.{.].^./.(.; ; ; ; ; _.:.<.[.}.|.1.2.        ",
"                              f 3.4.5.6.7.8.9.0.a.b.c.d.e.f.g.{ ; h.i.j.k.l.m.n.o.p.q.r.        ",
"                            s.t.u.v.w.x.y.z.A.c.B.C.D.E.F.G.H.I.J.K.L.M.N.O.P.Q.R.S.T.U.        ",
"                          3 V.W.X.Y.Z.].`. +.+++@+#+$+%+&+&+*+=+1.-+;+>+,+'+)+!+~+{+]+^+        ",
"                      ) /+(+_+{.:+b.<+[+e.}+|+1+2+3+&+&+&+&+&+4+5+6+7+8+9+0+a+b+c+d+e+f+        ",
"                    x g+h+a.i+c.d.C.j+k+F.l+m+&+&+&+&+&+&+&+&+n+(.o+p+q+r+s+t+u+v+w+x+y+        ",
"                  3 z+c.`.B.C.++E.A+B+C+&+&+&+&+&+&+&+&+&+&+&+&+D+E+F+G+H+I+J+K+K+K+L+M+        ",
"                N+O+<+.+P+}+#+Q+%+R+&+&+&+&+&+&+&+&+&+&+&+&+&+&+S+T+U+V+K+K+K+K+K+K+W+X+        ",
"              Y+Z+e.j+|+`+l+3+&+&+&+&+&+&+&+&+&+&+&+&+&+&+&+&+&+&+ @m .@K+K+K+K+K+K++@          ",
"            N+@@E.F.#@$@&+&+&+&+&+&+&+&+&+&+&+&+&+&+&+&+&+&+&+&+&+&+%@T+&@K+K+K+x+*@=@          ",
"          -@;@>@,@'@'@'@'@'@)@)@)@)@)@!@!@!@!@~@~@~@~@~@~@~@~@{@{@{@{@]@^@/@(@_@:@X+            ",
"        <@0 0 0 0 0 0 0 0 0 0 0 0 0 0 0 0 0 0 0 0 0 0 0 0 0 0 0 0 0 0 0 0 [@}@-@                ",
"                  |@2.2.2.2.2.2.2.2.2.2.2.2.2.2.2.2.2.2.2.2.2.2.2.2.2.2.2.2.2.2.2.2.2.2.2.2.9   ",
"                |@1@2@2@2@2@2@2@2@2@2@2@2@2@2@2@2@2@2@2@2@3@3@3@3@4@5@6@7@8@9@0@a@b@c@d@e@f@g@h@",
"              i@j@k@k@l@m@n@o@p@q@r@s@f@t@. Y+g@g@u@' v@w@x@y@z@A@B@C@D@E@F@F@F@G@G@G@G@H@9 I@) ",
"            |@J@K@L@z@<@g@g@g@g@g@g@g@g@g@g@g@g@g@g@g@g@g@g@g@g@g@g@g@g@M@N@O@P@Q@Q@Q@R@S@T@U@S@",
"          V@W@X@h@g@g@g@g@g@g@g@g@g@g@g@' Y@Z@`@ #.#+#v@g@g@g@g@g@g@g@g@g@g@g@g@@###R@$#%#&#Y@S@",
"        v@%#*#=#9 g@g@g@g@g@g@g@g@g@g@g@<@-#;#>#,#'#)#) g@g@g@g@g@g@g@g@g@g@g@g@!#R@@ ~#{#]#^#S@",
"      2.G@t+t+t+/#(#_#@ g@g@g@g@g@g@g@g@g@g@g@g@g@g@g@g@g@g@g@g@g@g@g@g@h@:#<#[#-#' }#|#1#2#3#S@",
"    2.4#5#5#5#5#5#5#5#6#7#8#{#9#0#a#b#c#d#N@w@i@i@t@e#f#g#r@h#i#j#k#l#m#n#o#p#-#U q#r#s#t#u#b#S@",
"  ' +#v#v#v#v#v#v#v#w#w#w#w#w#w#x#x#x#x#x#x#x#x#x#x#x#x#x#x#x#x#x#x#%#y#l#z#A#. 1#B#C#m#D#E#F#S@",
"g@G#H#H#H#H#H#H#H#H#H#H#H#H#H#H#H#H#H#H#H#H#H#H#H#H#H#H#H#H#H#H#H#H#H#H#H#I#h@J#K#L#M#N#O#P#Q#S@",
"g@R#S#S#S#S#S#S#S#S#S#S#S#S#S#S#S#S#S#S#S#S#S#S#S#S#S#S#T#T#T#T#T#T#T#T#T#U#<@V#W#X#]#}#x#z#Y#. ",
"g@I@Z#Z#Z#Z#Z#Z#Z#Z#Z#Z#Z#Z#Z#Z#`#`#`#`#`#`#`#`#`#`#`#`#`#`#`#`#`#`#`#`#`# $<@.$+$@$2##$$$Y#2.  ",
"g@%$&$&$&$&$&$&$&$&$&$*$*$*$*$*$*$*$*$*$*$*$*$*$*$*$*$*$*$*$*$*$*$*$*$*$*$*$<@=$-$t#;$$$|@2.    ",
"g@>$,$,$,$,$,$,$,$,$,$,$,$'$'$'$'$'$'$'$'$'$'$'$'$'$'$'$'$'$'$'$'$'$'$'$'$'$<@)$!$D#~$. M+      ",
"g@{$]$]$]$]$]$]$^$^$^$^$^$^$^$^$^$^$^$^$^$^$^$^$^$^$^$^$^$^$^$^$^$^$^$^$^$^$<@/$N#($_$M+        ",
"g@:$<$[$[$[$[$[$[$[$}$}$}$}$}$}$}$}$}$}$}$}$}$}$}$}$}$}$}$}$}$}$}$}$}$}$}$}$<@|$1$U t@          ",
"g@:$2$2$2$3$3$3$3$3$3$3$4$4$4$4$4$4$4$4$4$4$4$4$4$4$4$4$4$4$4$4$4$4$4$4$4$4$<@5$' t@            ",
"g@6$7$7$7$7$7$8$8$8$8$8$8$8$8$8$8$8$8$8$9$9$9$9$9$9$9$9$9$9$9$9$9$9$9$9$9$9$<@0$X+              ",
"  a$. . . . . . . . . . . . . . . . . . . . . . . . . . . . . . . . . . . . b$c$                ",
"                                                                                                ",
"                                                                                                "};
