/* XPM */
static char * p_terminal_xpm[] = {
"48 48 153 2",
"  	c None",
". 	c #000000",
"+ 	c #5D5D5D",
"@ 	c #707070",
"# 	c #535353",
"$ 	c #E8E8E8",
"% 	c #FFFFFF",
"& 	c #D0D0D0",
"* 	c #FBFBFB",
"= 	c #919191",
"- 	c #B4B4B4",
"; 	c #B5B5B5",
"> 	c #B3B3B3",
", 	c #848484",
"' 	c #F9F9F9",
") 	c #C1C1C1",
"! 	c #FCFCFC",
"~ 	c #A6A6A6",
"{ 	c #363636",
"] 	c #BCBCBC",
"^ 	c #FDFDFD",
"/ 	c #FEFEFE",
"( 	c #D2D2D2",
"_ 	c #484848",
": 	c #B7B7B7",
"< 	c #EFEFEF",
"[ 	c #727272",
"} 	c #B2B2B2",
"| 	c #F8F8F8",
"1 	c #FAFAFA",
"2 	c #A8A8A8",
"3 	c #3A3A3A",
"4 	c #ADADAD",
"5 	c #F5F5F5",
"6 	c #F6F6F6",
"7 	c #F7F7F7",
"8 	c #D1D1D1",
"9 	c #A7A7A7",
"0 	c #F1F1F1",
"a 	c #F2F2F2",
"b 	c #F3F3F3",
"c 	c #F4F4F4",
"d 	c #EDEDED",
"e 	c #808080",
"f 	c #9F9F9F",
"g 	c #EBEBEB",
"h 	c #ECECEC",
"i 	c #EEEEEE",
"j 	c #F0F0F0",
"k 	c #444444",
"l 	c #979797",
"m 	c #E3E3E3",
"n 	c #E5E5E5",
"o 	c #E6E6E6",
"p 	c #E7E7E7",
"q 	c #E9E9E9",
"r 	c #EAEAEA",
"s 	c #7B7B7B",
"t 	c #8A8A8A",
"u 	c #D7D7D7",
"v 	c #D9D9D9",
"w 	c #DADADA",
"x 	c #DCDCDC",
"y 	c #DDDDDD",
"z 	c #DEDEDE",
"A 	c #DFDFDF",
"B 	c #E0E0E0",
"C 	c #E1E1E1",
"D 	c #E4E4E4",
"E 	c #E2E2E2",
"F 	c #C0C0C0",
"G 	c #4C4C4C",
"H 	c #7E7E7E",
"I 	c #CBCBCB",
"J 	c #CDCDCD",
"K 	c #CECECE",
"L 	c #CFCFCF",
"M 	c #D3D3D3",
"N 	c #D5D5D5",
"O 	c #D6D6D6",
"P 	c #D8D8D8",
"Q 	c #DBDBDB",
"R 	c #8B8B8B",
"S 	c #383838",
"T 	c #787878",
"U 	c #C4C4C4",
"V 	c #C6C6C6",
"W 	c #C7C7C7",
"X 	c #C8C8C8",
"Y 	c #CACACA",
"Z 	c #CCCCCC",
"` 	c #585858",
" .	c #767676",
"..	c #C2C2C2",
"+.	c #C3C3C3",
"@.	c #3C3C3C",
"#.	c #757575",
"$.	c #BEBEBE",
"%.	c #BFBFBF",
"&.	c #C9C9C9",
"*.	c #666666",
"=.	c #717171",
"-.	c #B9B9B9",
";.	c #B8B8B8",
">.	c #4D4D4D",
",.	c #6E6E6E",
"'.	c #B0B0B0",
").	c #A3A3A3",
"!.	c #404040",
"~.	c #6B6B6B",
"{.	c #A9A9A9",
"].	c #ACACAC",
"^.	c #AEAEAE",
"/.	c #8C8C8C",
"(.	c #393939",
"_.	c #686868",
":.	c #A2A2A2",
"<.	c #A5A5A5",
"[.	c #737373",
"}.	c #656565",
"|.	c #9C9C9C",
"1.	c #9E9E9E",
"2.	c #A0A0A0",
"3.	c #626262",
"4.	c #959595",
"5.	c #9A9A9A",
"6.	c #5E5E5E",
"7.	c #8F8F8F",
"8.	c #909090",
"9.	c #939393",
"0.	c #A1A1A1",
"a.	c #5B5B5B",
"b.	c #878787",
"c.	c #818181",
"d.	c #858585",
"e.	c #545454",
"f.	c #7A7A7A",
"g.	c #7C7C7C",
"h.	c #7F7F7F",
"i.	c #6D6D6D",
"j.	c #373737",
"k.	c #454545",
"l.	c #777777",
"m.	c #414141",
"n.	c #525252",
"o.	c #575757",
"p.	c #3E3E3E",
"q.	c #4A4A4A",
"r.	c #4F4F4F",
"s.	c #3F3F3F",
"t.	c #3B3B3B",
"u.	c #424242",
"v.	c #505050",
"                                                                                                ",
"                                                                                                ",
"                                                                                                ",
"                                                                                                ",
"                                                                                                ",
"  . . . . . . . . . . . . . . . . . . . . . . . . . . . . . . . . . . . . . . . . . . . . .     ",
". . + @ @ @ @ @ @ @ @ @ @ @ @ @ @ @ @ @ @ @ @ @ @ @ @ @ @ @ @ @ @ @ @ @ @ @ @ @ @ @ @ @ # . .   ",
". . $ % % % % % % % % % % % % % % % % % % % % % % % % % % % % % % % % % % % % % % % % % & . .   ",
". . $ * = - ; ; ; ; ; ; ; ; ; ; ; ; ; ; ; ; ; ; ; ; ; ; ; ; ; ; ; - - - - - > > > > , * & . .   ",
". . $ ' ) % % % % % % % % % % % % % % % % % % % % % % % % % % % % % % % % % % % ! ~ { ' & . .   ",
". . $ ' ] ^ ^ ^ ^ ^ ^ ^ / / / / / / / / / % % % % % % % % % % % % % % % % % / ( _ { { ' & . .   ",
". . $ ' : * * * * * ! ! ! ! ! ^ ^ ^ ^ ^ / / / / % % % % % % % % % % % % % < [ { { { { ' & . .   ",
". . $ ' } | | ' ' ' 1 1 1 1 * * * * ! ! ! ^ ^ ^ ^ / / % % % % % % % % ! 2 3 { { { { { ' & . .   ",
". . $ ' 4 5 5 6 6 6 7 7 7 | | | ' ' 1 1 1 * * * ! ! ^ ^ ^ / % % % % 8 # { { { { { { { ' & . .   ",
". . $ ' 9 0 0 a b b b c c 5 5 5 6 6 7 | | | ' ' 1 1 * * ! * * * d e { { { { { { { { { ' & . .   ",
". . $ ' f g h h d d i < < j j 0 a a a b c c 5 6 6 7 5 c b c 6 : k { { { { { { { { { { ' & . .   ",
". . $ ' l m n n o p p q q r g g h d d i < j j d g g h i < o s { { { { { { { { { { { { ' & . .   ",
". . $ ' t u v w w x y z A B C C m D D n m E m D n p $ q F G { { { { { { { { { { { { { ' & . .   ",
". . $ ' H I J K L 8 ( M N O u P v w v Q y y A B C m C R S { { { { { { { { { { { { { { ' & . .   ",
". . $ ' T U V W X Y I Z K L 8 ( M N O u v v Q y y V ` { { { { { { { { { { { { { { { { ' & . .   ",
". . $ '  .F ..+.U V W X Y I Z K L 8 ( M N O u v l @.{ { { { { { { { { { { { { { { { { ' & . .   ",
". . $ ' #.] $.%.F ..+.U V W X Y I Z K L 8 ( &.*.{ { { { { { { { { { { { { { { { { { { ' & . .   ",
". . $ ' =.: -.] ] $.%.F ..+.U V W X Y I J ;.>.{ { { { { { { { { { { { { { { { { { { { ' & . .   ",
". . $ ' ,.'.} - : -.] ] $.%.F ..+.U V W ).!.{ { { { { { { { { { { { { { { { { { { { { ' & . .   ",
". . $ ' ~.{.].^.'.} - : -.] ] $.%.F ../.(.{ { { { { { { { { { { { { { { { { { { { { { ' & . .   ",
". . $ ' _.:.<.9 {.].^.'.} - : -.] ] [.{ { { { { { { { { { { { { { { { { { { { { { { { ' & . .   ",
". . $ ' }.|.1.2.:.<.9 {.].^.'.> ^.+ { { { { { { { { { { { { { { { { { { { { { { { { { ' & . .   ",
". . $ ' 3.4.l 5.|.1.2.).<.9 {.1.G { { { { { { { { { { { { { { { { { { { { { { { { { { ' & . .   ",
". . $ ' 6.7.8.9.4.l 5.|.1.0./.!.{ { { { { { { { { { { { { { { { { { { { { { { { { { { ' & . .   ",
". . $ ' a.b.t /.7.= 9.4.l e 3 { { { { { { { { { { { { { { { { { { { { { { { { { { { { ' & . .   ",
". . $ ' ` c., d.b.t /.7. .(.{ { { { { { { { { { { { { { { { { { { { { { { { { { { { { ' & . .   ",
". . $ ' e.f.g.h.c., d.i.j.{ { { { { { { { { { { { { { { { { { { { { { { { { { { { { { ' & . .   ",
". . $ ' k.3.i.l.f.g.}.{ { { { { { { { { { { { { { { { { { { { { { { { { { { { { { { { ' & . .   ",
". . $ ' m.n.e.o.3.o.{ { { { { { { { { { { { { { { { { { { { { { { { { { { { { { { { { ' & . .   ",
". . $ ' p.q.G r.k.{ { { { { { { { { { { { { { { { { { { { { { { { { { { { { { { { { { ' & . .   ",
". . $ ' @.k k.s.{ { { { { { { { { { { { { { { { { { { { { { { { { { { { { { { { { { { ' & . .   ",
". . $ ' t.u.@.{ { { { { { { { { { { { { { { { { { { { { { { { { { { { { { { { { { { { ' & . .   ",
". . $ ' (.(.{ { { { { { { { { { { { { { { { { { { { { { { { { { { { { { { { { { { { { ' & . .   ",
". . $ * s s s s s s s s s s s s s s s s s s s s s s s s s s s s s s s s s s s s s s s * & . .   ",
". . $ % % % % % % % % % % % % % % % % % % % % % % % % % % % % % % % % % % % % % % % % % & . .   ",
". . !.v.v.v.v.v.v.v.v.v.v.v.v.v.v.v.v.v.v.v.v.v.v.v.v.v.v.v.v.v.v.v.v.v.v.v.v.v.v.v.v.v.(.. .   ",
"  . . . . . . . . . . . . . . . . . . . . . . . . . . . . . . . . . . . . . . . . . . . . . .   ",
"                                                                                                ",
"                                                                                                ",
"                                                                                                ",
"                                                                                                ",
"                                                                                                ",
"                                                                                                "};
