/* XPM */
static char * p_unknown_xpm[] = {
"48 48 119 2",
"  	c None",
". 	c #000000",
"+ 	c #020202",
"@ 	c #333333",
"# 	c #1D1D1D",
"$ 	c #131313",
"% 	c #A5A5A5",
"& 	c #212121",
"* 	c #111111",
"= 	c #797979",
"- 	c #0F0F0F",
"; 	c #868686",
"> 	c #828282",
", 	c #141414",
"' 	c #080808",
") 	c #5B5B5B",
"! 	c #595959",
"~ 	c #626262",
"{ 	c #090909",
"] 	c #030303",
"^ 	c #414141",
"/ 	c #373737",
"( 	c #C8C8C8",
"_ 	c #616161",
": 	c #353535",
"< 	c #272727",
"[ 	c #9A9A9A",
"} 	c #6F6F6F",
"| 	c #808080",
"1 	c #656565",
"2 	c #898989",
"3 	c #818181",
"4 	c #2D2D2D",
"5 	c #1B1B1B",
"6 	c #6D6D6D",
"7 	c #939393",
"8 	c #686868",
"9 	c #6C6C6C",
"0 	c #474747",
"a 	c #959595",
"b 	c #727272",
"c 	c #5D5D5D",
"d 	c #7A7A7A",
"e 	c #A4A4A4",
"f 	c #2A2A2A",
"g 	c #A9A9A9",
"h 	c #919191",
"i 	c #676767",
"j 	c #6E6E6E",
"k 	c #A3A3A3",
"l 	c #BFBFBF",
"m 	c #4D4D4D",
"n 	c #777777",
"o 	c #636363",
"p 	c #929292",
"q 	c #949494",
"r 	c #8B8B8B",
"s 	c #838383",
"t 	c #7B7B7B",
"u 	c #343434",
"v 	c #1F1F1F",
"w 	c #404040",
"x 	c #0C0C0C",
"y 	c #292929",
"z 	c #0D0D0D",
"A 	c #0A0A0A",
"B 	c #8E8E8E",
"C 	c #1C1C1C",
"D 	c #8C8C8C",
"E 	c #1A1A1A",
"F 	c #747474",
"G 	c #8A8A8A",
"H 	c #181818",
"I 	c #060606",
"J 	c #535353",
"K 	c #151515",
"L 	c #050505",
"M 	c #6A6A6A",
"N 	c #8D8D8D",
"O 	c #696969",
"P 	c #979797",
"Q 	c #161616",
"R 	c #CACACA",
"S 	c #666666",
"T 	c #848484",
"U 	c #A6A6A6",
"V 	c #909090",
"W 	c #C7C7C7",
"X 	c #707070",
"Y 	c #A2A2A2",
"Z 	c #121212",
"` 	c #717171",
" .	c #101010",
"..	c #BDBDBD",
"+.	c #525252",
"@.	c #7C7C7C",
"#.	c #9C9C9C",
"$.	c #888888",
"%.	c #3C3C3C",
"&.	c #222222",
"*.	c #232323",
"=.	c #383838",
"-.	c #4F4F4F",
";.	c #555555",
">.	c #3D3D3D",
",.	c #282828",
"'.	c #040404",
").	c #7D7D7D",
"!.	c #010101",
"~.	c #323232",
"{.	c #5E5E5E",
"].	c #7E7E7E",
"^.	c #191919",
"/.	c #9D9D9D",
"(.	c #6B6B6B",
"_.	c #878787",
":.	c #565656",
"<.	c #313131",
"[.	c #787878",
"                                                                                                ",
"                                                .                                               ",
"                                              . .                                               ",
"                                              . . .                                             ",
"                                            . . . .                                             ",
"                      . .                   . . . . .                 . .                       ",
"                      . . . .             . .     . .             . . . .                       ",
"                      . + @ . . .         . .     . . .         . . # $ .                       ",
"                      . .   % & . .     . . .       . .     . . * =   - .                       ",
"                        . ;     > , . . . .         . . . . ' )       . .                       ",
"                        . !         ~ { . . .     . . . ] ^         % . .                       ",
"                        . /         ( _ : ] . . . . . < ! [         } .                         ",
"                        . #         | 1 2 3 4 . . 5 6 7 8 9         0 .                         ",
"                        . '         1 } a a a b c a a a d 1 e       f .                         ",
"                        . .   ( g d 1 ; a a a a a a a a h i j k l   $ .                         ",
"                      . . . m 1 1 1 9 a a a a a a a a a a n 1 1 1 o + . .                       ",
"        . . . . . . . . . . ^ = | 2 p a a a a a a a a a a q r s t _ . . . . . . . . . .         ",
"      . . . . . . . . . . . u a a a a a a a a a a a a a a a a a a ! . .   . . . . . . . .       ",
"        . . .             . v a a a a a a a a a a a a a a a a a a w . .           . . .         ",
"          . . .           . x a a a a a a a a a a a a a a a a a a y .           . . .           ",
"            . . .       . . z a a a a a a a a a a a a a a a a a a f . .       . . .             ",
"              . . .   . . A d a a a a a a a a a a a a a a a a a a B C . .   . . .               ",
"                . . . . { n a a a a a a a a a a a a a a a a a a a a D E . . . .                 ",
"                  . . ' F a a a a a a a a a a a a a a a a a a a a a a G H . .                   ",
"                  . I J > a a a a a a a a a a a a a a a a a a a a a a D ~ K .                   ",
"                . L 2 M 1 s a a a a a a a a a a a a a a a a a a a a N O 1 P Q .                 ",
"              . L P   R O S T a a a a a a a a a a a a a a a a a a B O 1 U     , .               ",
"            . ] V       W 8 S a a a a a a a a a a a a a a a a a a X 1 Y         Z .             ",
"          . ] G           ` M a a a a a a a a a a a a a a a a a a F 1              ..           ",
"        . . }             S X a a a a a a a a a a a a a a a a a a t 1 ..            ' .         ",
"      . . . . ' C u +.@.#.o n a a a a a a a a a a a a a a a a a a T 1 $.$.c %.&.z . . . .       ",
"            . . . . . . . +  .*.=.-.n a a a a a a a a a a T ;.>.,.K '.. . . . . . .             ",
"                        . . . . . . z p a a a a a a a a a f . . . . . .                         ",
"                        . .     . . . J a a a a a a a a ).!.. .     . .                         ",
"                        . .       . . $ a a q | = p a a ~.. .       . .                         ",
"                        . .         . . {.; 9 1 1 8 ].T ] .         . .                         ",
"                        . .         . . ^.1 S D /.(.1 u . .         . .                         ",
"                        . .       . . . . {.        _.I . . .       . . .                       ",
"                        . .     . . . . . <         :.. . . . . .     . .                       ",
"                      . . . . . . .     . .         x .     . . . .   . .                       ",
"                      . . . . .           . <.    i .           . . . . .                       ",
"                      . . . .             . !.    Z .               . . .                       ",
"                      . .                   . >.[.. .                   .                       ",
"                                            . '.K .                                             ",
"                                              . . .                                             ",
"                                              . .                                               ",
"                                                .                                               ",
"                                                                                                "};
